<svg height="511pt" viewBox="-121 1 511 511.99849" fill = 'white' width="511pt" xmlns="http://www.w3.org/2000/svg"><path d="m204.085938 432.113281c-31.917969-2.253906-43.292969-30.347656-43.292969-55.886719v-8.042968c0-7.515625 4.355469-14.214844 11.097656-17.085938 57.679687-24.539062 97.964844-86.015625 97.964844-149.5 0-.15625-.066407-14.652344-5.984375-18.71875l-1.519532-1.023437c.546876-6.890625.957032-13.816407.910157-20.777344-.179688-29.386719-9.289063-63.148437-9.289063-63.148437l-1.628906-4.996094c-20.382812-62.023438-65.175781-87.785156-101.710938-92.164063-.0625-.011719-.128906-.019531-.1875-.027343-3.808593-.453126-7.550781-.742188-11.144531-.742188-42.164062 0-97.363281 37.730469-116.636719 107.644531l-1.960937 7.140625s-5.464844 26.988282-5.347656 46.285156c.042969 7.292969-1.585938 10.65625-.964844 17.933594-.640625-.308594-4.199219 1.332032-4.199219 1.332032l-3.707031 2.542968c-5.917969 4.070313-5.984375 18.570313-5.984375 18.714844 0 63.484375 40.285156 124.964844 97.960938 149.503906 6.746093 2.867188 11.101562 9.570313 11.101562 17.085938v8.042968c0 25.539063-11.375 53.628907-43.292969 55.882813-51.886719 3.628906-60.648437 14.292969-60.640625 37.214844 0 30.941406 35.101563 42.511719 129.566406 42.675781 94.429688-.171875 129.53125-11.734375 129.53125-43.085938.007813-22.507812-8.753906-33.171874-60.640624-36.800781zm42.09375-271.039062c0 10.03125-.675782 20.003906-1.894532 29.832031l-.011718.015625-.332032 2.484375c-.304687 2.273438-.621094 4.414062-.945312 6.480469-.15625.921875-.300782 1.84375-.460938 2.757812-.222656 1.316407-.4375 2.65625-.667968 3.886719-7.0625 2.417969-14.421876 4.542969-22.011719 6.394531-.214844.050781-.410157.109375-.617188.164063-2.246093.546875-4.566406 1.007812-6.855469 1.5-1.691406.367187-3.355468.769531-5.070312 1.109375-.625.128906-1.28125.214843-1.90625.332031-7.460938 1.417969-15.09375 2.605469-22.890625 3.492188-.460937.050781-.941406.085937-1.402344.136718-12.25 1.339844-24.855469 2.050782-37.671875 2.050782l-5.011718-.109376h-.078126c-37.089843-.550781-73.019531-6.953124-102.171874-18.359374-2.484376-13.894532-3.738282-28.050782-3.738282-42.171876 0-15.832031 2.167969-30.332031 5.71875-43.667968l33.675782-20.203125c6.753906 13.773437 19.34375 39.304687 21.875 43.523437 1.699218 2.832032 4.6875 4.609375 7.992187 4.753906 3.03125.128907 8.597656.367188 25.164063-20.816406l35.605468 44.503906 33.949219-67.882812 23.234375 30.980469 19.28125-19.28125c4.773438 16.5 7.242188 33.148437 7.242188 48.09375zm-106.878907-143.996094c2.136719 0 4.234375.085937 6.308594.246094.453125.035156.921875.113281 1.375.15625 40.902344 3.875 70.050781 38.335937 85.753906 77.519531l-11.253906 11.253906-28-37.328125-34.359375 68.734375-32.832031-41.035156-6.574219 9.074219c-4.730469 6.53125-10.84375 14.132812-15.25 18.863281-5.4375-10.707031-15.027344-30.167969-21.398438-43.214844l-4.089843-8.359375-31.625 18.972657c22.699219-48.808594 66.03125-74.882813 91.945312-74.882813zm-4.105469 477.851563c-100.832031-.179688-112.488281-14.695313-112.488281-26.015626 0-10.375-.007812-16.632812 44.757813-19.765624 35.949218-2.527344 59.171875-31.140626 59.171875-72.910157v-8.054687c0-14.367188-8.433594-27.238282-21.492188-32.792969-47.457031-20.195313-81.730469-68.40625-86.894531-120.257813 2.867188 3.535157 51.101562 22.574219 116.988281 23.625l3.15625-.078124 1.898438.050781c1.039062.027343 2.074219.0625 3.125.0625 4.890625 0 9.75-.09375 14.582031-.28125 1.648438-.070313 3.269531-.207031 4.917969-.289063 3.160156-.171875 6.335937-.316406 9.460937-.566406 2.015625-.160156 3.988282-.402344 5.984375-.589844 2.714844-.261718 5.457031-.484375 8.136719-.808594 2.101562-.257812 4.152344-.589843 6.234375-.882812 2.539063-.347656 5.097656-.671875 7.601563-1.074219 2.039062-.332031 4.019531-.742187 6.035156-1.109375 2.492187-.453125 5.011718-.878906 7.472656-1.394531 1.921875-.402344 3.78125-.871094 5.675781-1.304687 2.484375-.5625 4.996094-1.101563 7.429688-1.722657 1.765625-.453125 3.472656-.976562 5.214843-1.453125 2.503907-.691406 5.03125-1.355468 7.472657-2.109375 1.570312-.484375 3.082031-1.03125 4.636719-1.535156 2.355468-.777344 4.753906-1.511719 7.0625-2.347656-7.164063 49.472656-40.585938 94.691406-86.148438 114.074219-13.046875 5.550781-21.488281 18.425781-21.488281 32.796874v8.042969c0 41.769531 23.222656 70.382813 59.167969 72.910157 44.769531 3.132812 44.761718 9.402343 44.761718 20.1875.019532 10.898437-11.636718 25.40625-112.433594 25.59375zm0 0"/></svg>