<svg height="512pt" viewBox="0 0 512 512.00185" width="512pt" xmlns="http://www.w3.org/2000/svg"><path d="m512 114.9375h-512v20.898438h52.246094v294.519531c0 45.011719 36.621094 81.644531 81.648437 81.644531h244.214844c45.023437 0 81.648437-36.632812 81.648437-81.644531v-294.519531h52.242188zm-378.105469 376.164062c-3.574219 0-7.066406-.375-10.46875-.96875-.355469-.0625-.722656-.09375-1.078125-.167968-3.21875-.613282-6.324218-1.535156-9.339844-2.640625-.472656-.167969-.953124-.335938-1.414062-.523438-2.914062-1.160156-5.703125-2.539062-8.378906-4.105469-.460938-.273437-.917969-.554687-1.378906-.835937-2.632813-1.640625-5.132813-3.46875-7.472657-5.476563-.363281-.3125-.710937-.648437-1.074219-.972656-2.351562-2.121094-4.566406-4.386718-6.5625-6.855468-.199218-.238282-.367187-.5-.554687-.738282-2.015625-2.5625-3.851563-5.277344-5.441406-8.152344-.050781-.09375-.117188-.175781-.167969-.269531-1.578125-2.886719-2.871094-5.9375-3.96875-9.070312-.136719-.386719-.292969-.761719-.417969-1.148438-.996093-3.03125-1.707031-6.175781-2.21875-9.394531-.050781-.304688-.101562-.617188-.144531-.917969h364.378906c-.042968.300781-.09375.613281-.136718.917969-.5 3.21875-1.222657 6.363281-2.214844 9.394531-.125.386719-.292969.761719-.417969 1.148438-1.097656 3.132812-2.394531 6.183593-3.972656 9.070312-.050781.09375-.113281.175781-.167969.269531-1.585938 2.875-3.425781 5.578126-5.441406 8.152344-.1875.238282-.367188.5-.554688.738282-1.996094 2.46875-4.210937 4.734374-6.558594 6.855468-.355468.324219-.710937.660156-1.078124.972656-2.339844 2.015626-4.847657 3.835938-7.472657 5.476563-.460937.28125-.917969.5625-1.378906.835937-2.675781 1.578126-5.464844 2.957032-8.378906 4.105469-.46875.1875-.941407.34375-1.410157.523438-3.023437 1.105469-6.125 2.027343-9.34375 2.640625-.355468.074218-.71875.105468-1.074218.167968-3.417969.59375-6.90625.96875-10.480469.96875zm304.964844-73.140624h-365.714844v-20.898438h94.042969c5.765625 0 10.449219-4.671875 10.449219-10.449219 0-5.78125-4.683594-10.449219-10.449219-10.449219h-94.042969v-20.898437h62.691407c5.769531 0 10.453124-4.671875 10.453124-10.449219 0-5.78125-4.683593-10.449218-10.453124-10.449218h-62.691407v-20.898438h41.792969c5.769531 0 10.449219-4.671875 10.449219-10.449219 0-5.78125-4.679688-10.449219-10.449219-10.449219h-41.792969v-156.734374h365.714844zm0 0"/><path d="m459.757812 94.042969c0-28.808594-23.4375-52.246094-52.246093-52.246094h-95.097657c-4.859374-23.8125-25.964843-41.796875-51.1875-41.796875h-10.449218c-25.222656 0-46.332032 17.984375-51.191406 41.796875h-95.097657c-28.804687 0-52.242187 23.433594-52.242187 52.242187v10.449219h407.511718zm-208.980468-73.144531h10.449218c13.625 0 25.246094 8.734374 29.558594 20.898437h-69.558594c4.304688-12.164063 15.925782-20.898437 29.550782-20.898437zm-175.847656 62.695312c4.316406-12.164062 15.933593-20.898438 29.5625-20.898438h303.019531c13.628906 0 25.246093 8.734376 29.5625 20.898438zm0 0"/></svg>