<svg height="512pt" viewBox="0 -94 512.00318 512" width="512pt" xmlns="http://www.w3.org/2000/svg"><path d="m485.054688 152.703125h-26.742188c.457031-5.171875 2.003906-10.203125 4.667969-14.667969l14.644531-24.558594c2.882812-4.820312 2.953125-10.859374.179688-15.753906-1.832032-3.226562-4.769532-5.523437-8.140626-6.792968-.167968-2.398438-.789062-4.777344-2.046874-6.925782l-1.175782-1.578125c-10.5625-11.273437-36.882812-37.511719-53.246094-37.511719h-95.125c-4.292968-25.449218-26.425781-44.914062-53.085937-44.914062h-26.949219c-26.652344 0-48.785156 19.464844-53.085937 44.914062h-86.144531c-16.363282 0-42.683594 26.238282-53.238282 37.519532l-1.175781 1.578125c-1.257813 2.140625-1.878906 4.519531-2.046875 6.925781-3.371094 1.265625-6.304688 3.566406-8.140625 6.792969-2.773437 4.894531-2.703125 10.933593.171875 15.753906l14.648438 24.542969c2.667968 4.480468 4.214843 9.511718 4.671874 14.683594h-26.746093c-14.859375.003906-26.949219 12.09375-26.949219 26.949218 0 14.855469 12.089844 26.949219 26.949219 26.949219h26.945312v61.070313c0 .484374.066407.960937.074219 1.445312 0 .117188-.074219.222656-.074219.351562 0 .214844.109375.394532.128907.597657 1.265624 29.589843 25.5625 53.296875 55.320312 53.296875h293.324219c30.566406 0 55.4375-24.992188 55.4375-55.699219v-61.074219h26.949219c14.855468 0 26.949218-12.089844 26.949218-26.945312-.003906-14.855469-12.09375-26.949219-26.949218-26.949219zm-247.019532-134.734375h26.949219c16.707031 0 30.789063 11.460938 34.796875 26.949219h-96.542969c4.003907-15.488281 18.089844-26.949219 34.796875-26.949219zm-139.230468 44.910156h314.390624c5.011719.066406 20.765626 12.171875 35.40625 26.949219h-385.203124c14.640624-14.777344 30.394531-26.886719 35.40625-26.949219zm-80.839844 116.773438c0-4.957032 4.03125-8.984375 8.984375-8.984375h26.945312v17.96875h-26.945312c-4.953125 0-8.984375-4.027344-8.984375-8.984375zm422.175781 88.019531c0 20.804687-16.816406 37.734375-37.476563 37.734375h-293.328124c-16.914063 0-31.089844-11.417969-35.734376-26.945312h79.101563c4.957031 0 8.980469-4.015626 8.980469-8.984376s-4.023438-8.984374-8.980469-8.984374h-80.84375v-17.964844h53.894531c4.957032 0 8.980469-4.015625 8.980469-8.980469 0-4.96875-4.023437-8.984375-8.980469-8.984375h-53.894531v-17.964844h35.929687c4.957032 0 8.984376-4.015625 8.984376-8.984375 0-4.964843-4.027344-8.980469-8.984376-8.980469h-35.929687v-35.929687h-.207031c-.484375-8.417969-2.875-16.625-7.203125-23.882813l-12.546875-21.03125h408.199218l-12.539062 21.039063c-4.332031 7.25-6.71875 15.460937-7.203125 23.875h-.21875zm44.914063-79.035156h-26.949219v-17.96875h26.949219c4.949218 0 8.980468 4.027343 8.980468 8.984375 0 4.957031-4.03125 8.984375-8.980468 8.984375zm0 0"/></svg>