<svg height="512pt" viewBox="0 -73 512 512" width="512pt" xmlns="http://www.w3.org/2000/svg"><path d="m469.042969 169.605469 10.480469-58.671875h-23.722657l-67.285156-67.285156c-6.136719-6.136719-14.292969-9.515626-22.972656-9.515626h-75.410157c0-18.824218-15.308593-34.132812-34.132812-34.132812s-34.132812 15.308594-34.132812 34.132812h-75.410157c-8.675781 0-16.835937 3.378907-22.96875 9.515626l-67.285156 67.28125h-23.722656l10.519531 58.90625c-11.886719-10.222657-26.777344-16.238282-43-16.238282v17.066406c24.917969 0 45.167969 18.292969 51.226562 45.257813l17.457032 97.75c-.167969.683594-.417969 1.332031-.417969 2.058594 0 1.789062.683594 3.371093 1.632813 4.742187l3.558593 19.9375c2.738281 15.359375 16.058594 26.519532 31.675781 26.519532h301.738282c15.613281 0 28.9375-11.160157 31.675781-26.519532l22.082031-123.65625c6.042969-27.425781 26.453125-46.089844 51.371094-46.089844v-17.066406c-16.332031 0-31.152344 5.878906-42.957031 16.007813zm-62.972657-84.273438h-300.136718l8.535156-8.535156h283.066406zm-150.070312-68.269531c9.414062 0 17.066406 7.65625 17.066406 17.070312h-34.132812c0-9.414062 7.65625-17.070312 17.066406-17.070312zm-109.542969 34.132812h219.085938c4.113281 0 7.996093 1.605469 10.90625 4.515626l4.019531 4.019531h-248.933594l4.019532-4.019531c2.910156-2.910157 6.78125-4.515626 10.902343-4.515626zm-57.589843 51.203126h334.265624l8.535157 8.53125h-351.335938zm332.878906 235.003906c-1.289063 7.222656-7.546875 12.460937-14.875 12.460937h-301.738282c-7.328124 0-13.585937-5.238281-14.875-12.460937l-2.34375-13.140625h74.222657c4.710937 0 8.53125-3.8125 8.53125-8.53125s-3.820313-8.535157-8.53125-8.535157h-77.28125l-3.046875-17.066406h54.726562c4.707032 0 8.53125-3.8125 8.53125-8.535156 0-4.71875-3.824218-8.53125-8.53125-8.53125h-57.769531l-3.089844-17.296875c.382813.058594.722657.230469 1.125.230469h42.667969c4.710938 0 8.53125-3.8125 8.53125-8.535156 0-4.71875-3.820312-8.53125-8.53125-8.53125h-42.667969c-1.441406 0-2.746093.449218-3.933593 1.082031l-3.582032-20.078125c-.332031-2.46875-.769531-4.882813-1.300781-7.253906l-15.128906-84.683594h406.28125l-15.199219 85.101562c-.449219 2.074219-.816406 4.207032-1.132812 6.355469zm0 0"/></svg>