<svg height="512pt" viewBox="0 -36 512.00636 512" width="512pt" xmlns="http://www.w3.org/2000/svg"><path d="m485.054688 215.582031h-26.742188c.457031-5.171875 1.992188-10.203125 4.660156-14.675781l14.660156-24.558594c2.875-4.824218 2.9375-10.859375.164063-15.746094-2.769531-4.867187-7.960937-7.894531-13.546875-7.894531h-204.125c.214844-1.480469.367188-2.972656.367188-4.488281 0-17.335938-14.101563-31.441406-31.4375-31.441406-17.335938 0-31.4375 14.105468-31.4375 31.441406 0 1.515625.152343 3.007812.367187 4.488281h-150.234375c-5.585938 0-10.777344 3.027344-13.542969 7.894531-2.785156 4.886719-2.722656 10.921876.167969 15.757813l14.652344 24.539063c2.667968 4.484374 4.210937 9.511718 4.660156 14.6875h-26.738281c-14.859375-.003907-26.949219 12.085937-26.949219 26.945312 0 14.855469 12.089844 26.945312 26.949219 26.945312h26.945312v61.074219c0 30.707031 24.875 55.699219 55.441407 55.699219h13.4375c3.011718 4.757812 6.996093 9.941406 11.8125 16.140625 2.328124 2.992187 4.871093 6.269531 7.601562 9.878906l5.414062 7.171875 7.167969-5.417968c14.191407-10.726563 22.933594-18.738282 25.953125-27.773438h56.15625c.449219.574219.84375 1.09375 1.304688 1.6875 3.601562 4.664062 7.5625 9.738281 11.792968 15.351562l5.414063 7.167969 7.171875-5.414062c9.144531-6.910157 16.761719-13.035157 22.8125-18.792969h50.734375c3.007813 4.761719 6.996094 9.945312 11.804687 16.144531 2.324219 2.988281 4.867188 6.257813 7.597657 9.878907l5.417969 7.167968 7.167968-5.414062c14.199219-10.726563 22.941406-18.738282 25.957032-27.773438h8.632812c30.550781 0 55.421875-24.988281 55.421875-55.699218v-61.070313h26.949219c14.855468 0 26.949218-12.089844 26.949218-26.949219s-12.097656-26.953125-26.953124-26.953125zm-269.476563-67.367187c0-7.429688 6.046875-13.472656 13.472656-13.472656 7.429688 0 13.472657 6.042968 13.472657 13.472656 0 1.6875-.332032 3.195312-.804688 4.488281h-25.332031c-.476563-1.292969-.808594-2.800781-.808594-4.488281zm-188.628906 103.296875c-4.960938 0-8.984375-4.023438-8.984375-8.980469 0-4.960938 4.023437-8.984375 8.984375-8.984375h26.945312v17.964844zm124.019531 142.695312c-.757812-.96875-1.484375-1.910156-2.191406-2.828125-5.9375-7.652344-10.65625-13.761718-12.78125-18.171875-.191406-.386719-.371094-.761719-.53125-1.140625-.222656-.554687-.394532-1.078125-.511719-1.5625-.1875-.878906-.117187-1.851562.242187-2.945312.15625-.449219.316407-.898438.59375-1.382813.21875-.40625.46875-.835937.78125-1.285156.550782-.78125 1.203126-1.589844 1.96875-2.445313.195313-.222656.332032-.410156.546876-.644531 1.125-1.1875 2.398437-2.425781 3.800781-3.683593 1.390625-1.25 2.980469-2.613282 4.839843-4.125.753907.972656 1.484376 1.914062 2.191407 2.824218 3.726562 4.8125 7.070312 9.117188 9.550781 12.773438.007812.007812.015625.027344.027344.035156 1.203125 1.769531 2.179687 3.378906 2.925781 4.824219.046875.078125.082031.167969.128906.25.679688 1.367187 1.109375 2.558593 1.28125 3.601562.074219.476563.136719.941407.082031 1.355469-.488281 3.601562-6.316406 9.152344-12.945312 14.550781zm110.933594-76.824219c.539062.691407 1.003906 1.300782 1.523437 1.964844 10.117188 13.070313 16.449219 21.621094 19.304688 28.175782.089843.21875.195312.433593.277343.640624.359376.878907.664063 1.730469.890626 2.550782.035156.105468.054687.214844.082031.320312.636719 2.410156.679687 4.574219.222656 6.675782-.109375.414062-.179687.824218-.332031 1.246093-.070313.226563-.171875.460938-.25.683594-1.132813 2.738281-3.226563 5.714844-6.101563 8.910156-.71875.773438-1.457031 1.5625-2.273437 2.390625l-1.824219 1.851563c-3.996094 3.84375-8.925781 7.984375-14.613281 12.449219-2.253906-2.929688-4.402344-5.703126-6.449219-8.335938-.691406-.890625-1.304687-1.679688-1.96875-2.53125l-2.019531-2.617188c-1.25-1.617187-2.417969-3.152343-3.566406-4.660156-.316407-.414062-.628907-.835937-.933594-1.230468-1.023438-1.359376-1.996094-2.660157-2.929688-3.945313-.367187-.492187-.71875-.988281-1.070312-1.472656-.898438-1.246094-1.742188-2.453125-2.53125-3.628907-.261719-.375-.496094-.746093-.746094-1.113281-.808594-1.21875-1.574219-2.40625-2.246094-3.546875-.132812-.222656-.25-.441406-.375-.664062-.710937-1.214844-1.355468-2.398438-1.90625-3.519532-.035156-.082031-.0625-.152343-.097656-.234374-1.777344-3.753907-2.605469-7.015626-2.226562-9.871094 1.023437-7.636719 10.8125-17.148438 25.714843-28.851563 2.25 2.945313 4.40625 5.71875 6.445313 8.363281zm102.382812 76.824219c-.746094-.96875-1.484375-1.910156-2.191406-2.828125-5.972656-7.695312-10.71875-13.839844-12.820312-18.25-.167969-.34375-.320313-.683594-.464844-1.015625-.261719-.636719-.46875-1.246093-.585938-1.796875-.140625-.808594-.027344-1.707031.289063-2.695312.152343-.46875.324219-.933594.609375-1.445313.21875-.394531.46875-.816406.765625-1.257812.554687-.789063 1.210937-1.605469 1.984375-2.460938.195312-.214843.320312-.394531.539062-.628906 1.121094-1.195313 2.40625-2.433594 3.816406-3.699219 1.382813-1.25 2.972657-2.605468 4.832032-4.105468.441406.566406.855468 1.09375 1.277344 1.644531.304687.394531.617187.796875.914062 1.175781.261719.339844.503906.648438.761719.980469 1.347656 1.742187 2.644531 3.414062 3.855469 5.011719.242187.320312.5.65625.746093.96875 1.5 1.996093 2.855469 3.851562 4.03125 5.578124.082031.117188.164063.234376.242188.351563 1.160156 1.714844 2.121093 3.277344 2.847656 4.6875.054687.109375.109375.21875.164063.324219.675781 1.355468 1.105468 2.542968 1.273437 3.574218.074219.476563.136719.953126.082031 1.355469-.511718 3.582031-6.332031 9.132813-12.96875 14.53125zm75.855469-63.65625c0 20.800781-16.808594 37.734375-37.476563 37.734375h-9.953124c-.070313-.164062-.1875-.34375-.257813-.503906-.613281-1.3125-1.3125-2.648438-2.113281-4.015625-.222656-.386719-.464844-.789063-.707032-1.175781-.78125-1.257813-1.625-2.558594-2.550781-3.890625-.304687-.4375-.609375-.886719-.933593-1.34375-.996094-1.394531-2.066407-2.855469-3.199219-4.359375-.3125-.421875-.617188-.832032-.941407-1.265625-1.007812-1.320313-2.09375-2.730469-3.1875-4.148438-.476562-.621093-.898437-1.167969-1.394531-1.816406-2.324219-2.980469-4.859375-6.25-7.589843-9.859375l-5.425782-7.144531-7.167968 5.417969c-8.757813 6.613281-16.160157 12.683593-21.046876 19.035156-.367187.484375-.796874.96875-1.128906 1.445312-.441406.625-.78125 1.265625-1.167968 1.902344-.429688.710938-.882813 1.421875-1.242188 2.136719-.339844.683593-.59375 1.386719-.871094 2.078125-.261718.652344-.527344 1.320312-.726562 1.992187-.226563.753907-.378906 1.535157-.523438 2.316407-.070312.371093-.195312.730468-.25 1.097656-.042968.320312-.007812.628906-.035156.941406-.039062.394531-.152344.765625-.164062 1.160156h-30.636719c.617187-1.265625 1.128906-2.523437 1.5625-3.773437.070312-.222657.113281-.449219.1875-.664063.503906-1.5625.84375-3.105468 1.078125-4.644531.019531-.152344.082031-.285156.097656-.4375.011719-.101563 0-.199219.011719-.296875.207031-1.6875.269531-3.378906.167969-5.066406-.027344-.53125-.105469-1.058594-.160157-1.589844-.109375-.96875-.269531-1.941406-.46875-2.910156-1.742187-8.847656-7.238281-17.855469-15.484375-28.96875-1.070312-1.457032-2.183594-2.929688-3.335937-4.445313-.878907-1.152343-1.804688-2.371093-2.730469-3.566406-.96875-1.265625-1.976562-2.5625-2.988281-3.875-.449219-.574219-.84375-1.09375-1.304688-1.6875-3.601562-4.652344-7.554687-9.734375-11.792969-15.351563l-5.40625-7.15625-7.167968 5.414063c-3.039063 2.289063-5.902344 4.5-8.609375 6.636719-18.890625 14.957031-29.476563 26.410156-31.230469 39.640625-.054688.429687-.007812.851562-.042969 1.285156-.109375 1.175781-.152343 2.351563-.117187 3.519531.015625.734375.070312 1.472656.152344 2.210938.109374 1.058594.289062 2.128906.511718 3.1875.199219.933594.421875 1.886718.703125 2.828125.339844 1.160156.726563 2.316406 1.183594 3.484375.304687.773437.648437 1.554687 1 2.335937.484375 1.070313 1.023437 2.15625 1.597656 3.242188.4375.835937.878907 1.679687 1.371094 2.535156.835937 1.445313 1.746094 2.917969 2.714844 4.417969.511719.792968 1.058593 1.609375 1.617187 2.425781.285156.429687.546875.84375.851563 1.273437h-44.011719c-.089844-.203124-.234375-.429687-.332031-.636718-.585938-1.246094-1.25-2.515625-2.011719-3.808594-.25-.429688-.523438-.878906-.800781-1.320312-.753907-1.21875-1.578125-2.476563-2.46875-3.761719-.316407-.457031-.628907-.925781-.96875-1.394531-1.0625-1.492188-2.210938-3.054688-3.433594-4.660157-.179687-.234375-.347656-.46875-.527344-.710937-1.492187-1.957032-3.0625-3.996094-4.761719-6.179688-.25-.320312-.53125-.679687-.78125-1.003906-2.128906-2.742188-4.363281-5.625-6.816406-8.875l-5.410156-7.175781-7.167969 5.414062c-8.757812 6.621094-16.175781 12.691407-21.0625 19.042969-.371093.476562-.792969.960938-1.125 1.4375-.4375.628906-.789062 1.277344-1.175781 1.921875-.429688.703125-.878906 1.410156-1.230469 2.121094-.339843.683593-.59375 1.382812-.871093 2.085937-.261719.652344-.523438 1.320313-.71875 1.984375-.222657.753907-.378907 1.535157-.523438 2.316407-.070312.367187-.195312.726562-.25 1.09375-.042969.324218-.007812.628906-.035156.945312-.046875.386719-.164063.761719-.171875 1.15625h-7.429688c-20.667969 0-37.472656-16.929688-37.472656-37.734375v-114.964844h-.207031c-.484375-8.417969-2.875-16.625-7.214844-23.882812l-12.539062-21.03125h408.191406l-12.542969 21.039062c-4.328125 7.257813-6.71875 15.460938-7.210937 23.875h-.199219v114.96875zm44.914063-79.039062h-26.949219v-17.964844h26.949219c4.957031 0 8.980468 4.023437 8.980468 8.984375 0 4.957031-4.023437 8.980469-8.980468 8.980469zm0 0"/><path d="m282.949219 62.878906c17.335937 0 31.4375-14.101562 31.4375-31.4375 0-17.335937-14.101563-31.43749975-31.4375-31.43749975-17.335938 0-31.441407 14.10156275-31.441407 31.43749975 0 17.335938 14.101563 31.4375 31.441407 31.4375zm0-44.910156c7.429687 0 13.472656 6.046875 13.472656 13.472656 0 7.429688-6.046875 13.472656-13.472656 13.472656-7.429688 0-13.472657-6.042968-13.472657-13.472656 0-7.425781 6.042969-13.472656 13.472657-13.472656zm0 0"/><path d="m404.210938 107.792969c0 9.921875-8.042969 17.964843-17.964844 17.964843s-17.964844-8.042968-17.964844-17.964843 8.042969-17.964844 17.964844-17.964844 17.964844 8.042969 17.964844 17.964844zm0 0"/><path d="m134.738281 107.792969c0 3.816406-1.175781 7.464843-3.414062 10.546875-2.910157 4.011718-2.023438 9.628906 2.003906 12.539062 1.589844 1.160156 3.441406 1.707032 5.261719 1.707032 2.785156 0 5.523437-1.292969 7.285156-3.710938 4.464844-6.164062 6.828125-13.445312 6.828125-21.082031v-.324219c0-4.964844-4.015625-8.820312-8.984375-8.820312-4.964844 0-8.980469 4.179687-8.980469 9.144531zm0 0"/><path d="m116.773438 89.828125c3.773437 0 7.363281 1.148437 10.398437 3.3125 1.589844 1.125 3.40625 1.671875 5.210937 1.671875 2.8125 0 5.566407-1.3125 7.320313-3.761719 2.875-4.042969 1.941406-9.648437-2.09375-12.539062-6.097656-4.347657-13.3125-6.648438-20.835937-6.648438h-.234376c-4.96875 0-8.859374 4.015625-8.859374 8.984375 0 4.964844 4.125 8.980469 9.09375 8.980469zm0 0"/><path d="m89.824219 116.855469c4.96875 0 8.980469-4.09375 8.980469-9.0625 0-3.773438 1.160156-7.394531 3.363281-10.476563 2.882812-4.03125 1.957031-9.636718-2.078125-12.527344-4.039063-2.882812-9.636719-1.957031-12.539063 2.082032-4.382812 6.144531-6.710937 13.375-6.710937 20.921875v.160156c.003906 4.960937 4.019531 8.902344 8.984375 8.902344zm0 0"/><path d="m93.742188 124.410156c-2.894532 4.027344-1.996094 9.640625 2.035156 12.539063 6.144531 4.429687 13.402344 6.773437 20.992187 6.773437h.082031c4.96875 0 8.9375-4.015625 8.9375-8.980468 0-4.96875-4.050781-8.984376-9.015624-8.984376-3.800782 0-7.421876-1.167968-10.492188-3.386718-4.027344-2.902344-9.65625-1.984375-12.539062 2.039062zm0 0"/><path d="m368.28125 422.179688h-233.542969c-4.96875 0-8.984375 4.015624-8.984375 8.980468 0 4.96875 4.015625 8.984375 8.984375 8.984375h233.542969c4.96875 0 8.984375-4.015625 8.984375-8.984375 0-4.964844-4.019531-8.980468-8.984375-8.980468zm0 0"/><path d="m413.195312 197.617188h-232.882812c-4.964844 0-8.980469 4.015624-8.980469 8.984374 0 4.964844 4.015625 8.980469 8.980469 8.980469h232.882812c4.964844 0 8.980469-4.015625 8.980469-8.980469 0-4.96875-4.015625-8.984374-8.980469-8.984374zm0 0"/><path d="m142.164062 197.617188h-43.359374c-4.964844 0-8.980469 4.015624-8.980469 8.984374 0 4.964844 4.015625 8.980469 8.980469 8.980469h43.359374c4.96875 0 8.984376-4.015625 8.984376-8.980469 0-4.96875-4.015626-8.984374-8.984376-8.984374zm0 0"/></svg>