<svg height="512pt" viewBox="0 -43 512.00041 512" width="512pt" xmlns="http://www.w3.org/2000/svg"><path d="m384.574219 157.589844-19.046875 26.671875c-20.414063-19.335938-43.449219-34.078125-68.296875-43.28125-.644531-.242188-1.277344-.53125-1.925781-.761719-3.339844-1.195312-6.722657-2.203125-10.125-3.199219-2.289063-.675781-4.578126-1.332031-6.886719-1.910156-2.800781-.695313-5.609375-1.332031-8.445313-1.890625-.453125-.089844-.898437-.210938-1.355468-.304688 5.914062-7.203124 9.613281-16.277343 9.613281-26.308593 0-23-18.714844-41.714844-41.714844-41.714844s-41.714844 18.714844-41.714844 41.714844c0 10.023437 3.699219 19.105469 9.601563 26.308593-.453125.085938-.898438.214844-1.351563.304688-2.839843.558594-5.648437 1.199219-8.445312 1.890625-2.3125.585937-4.609375 1.242187-6.898438 1.917969-3.394531.992187-6.769531 2.003906-10.097656 3.191406-.675781.242188-1.332031.539062-2.011719.785156-7.304687 2.707032-14.425781 5.925782-21.402344 9.558594-16.640624-18.902344-40.71875-30.054688-66.007812-30.054688-48.554688.003907-88.0625 39.511719-88.0625 88.070313 0 31.046875 16.019531 58.902344 42.144531 74.855469-7.84375 20.0625-14.019531 41.550781-18.070312 64.335937-3.929688 22.089844 1.632812 44.703125 14.871093 60.496094 9.816407 11.707031 22.738282 18.160156 36.402344 18.160156h322.105469c13.664063 0 26.585937-6.453125 36.40625-18.160156 13.238281-15.796875 18.789063-38.414063 14.867187-60.496094-7.191406-40.457031-20.820312-77.027343-39.265624-108.195312l63.761718-81.976563h-88.644531v-.007812zm-117.738281-6.078125c2.972656.601562 5.921874 1.304687 8.871093 2.085937 2.566407.675782 5.132813 1.371094 7.667969 2.175782 2.964844.945312 5.902344 1.996093 8.832031 3.113281 1 .382812 1.996094.800781 2.984375 1.199219 10.429688 4.246093 20.601563 9.574218 30.390625 16.046874h-177.960937c2.722656-1.800781 5.410156-3.671874 8.203125-5.304687.414062-.242187.8125-.519531 1.230469-.75l1-.574219c6.378906-3.597656 12.898437-6.710937 19.507812-9.410156 1.007812-.410156 2.011719-.835938 3.03125-1.226562 2.917969-1.121094 5.855469-2.15625 8.8125-3.101563 2.542969-.808594 5.117188-1.503906 7.695312-2.179687 2.941407-.777344 5.886719-1.472657 8.855469-2.074219 3.523438-.707031 7.0625-1.335938 10.632813-1.789063 1.59375-.214844 3.1875-.390625 4.78125-.558594 4.972656-.480468 9.96875-.84375 15.019531-.84375 5.054687 0 10.046875.355469 15.019531.84375 1.59375.160157 3.1875.34375 4.78125.558594 3.578125.453125 7.121094 1.082032 10.644532 1.789063zm-30.445313-68.082031c12.785156 0 23.175781 10.390624 23.175781 23.175781 0 12.785156-10.390625 23.175781-23.175781 23.175781s-23.175781-10.390625-23.175781-23.175781c0-12.785157 10.394531-23.175781 23.175781-23.175781zm-217.847656 125.148437c0-38.34375 31.183593-69.527344 69.523437-69.527344 18.753906 0 36.710938 7.722657 49.71875 21.054688-36.488281 23.757812-67.164062 60.414062-88.300781 106.238281-19.292969-12.796875-30.941406-34.164062-30.941406-57.765625zm401.09375 187.777344c-6.230469 7.445312-14.109375 11.53125-22.191407 11.53125h-322.105468c-8.074219 0-15.964844-4.085938-22.191406-11.53125-9.605469-11.457031-13.757813-28.839844-10.828126-45.347657 3.808594-21.417968 9.574219-41.617187 16.886719-60.441406l3.171875-7.472656c15.296875-35.996094 37.074219-66.785156 62.878906-89.792969 1.707032.796875 3.523438 1.363281 5.488282 1.363281h211.28125c2.148437 0 4.132812-.660156 5.96875-1.605468 2.28125 2.03125 4.449218 4.246094 6.667968 6.386718l-.03125.039063 5.320313 5.554687c11.03125 11.53125 21.203125 24.65625 30.195313 39.027344l5.839843 9.34375c16.046875 28.320313 27.996094 61.257813 34.457031 97.597656 2.949219 16.507813-1.207031 33.890626-10.808593 45.347657zm-40.964844-198.597657 15.453125-21.625h41.160156l-36.449218 46.871094c-6.269532-9.03125-13.074219-17.355468-20.164063-25.246094zm0 0"/><path d="m417.152344 139.050781c2.9375 0 5.832031-1.390625 7.628906-3.996093l5.273438-7.621094c2.914062-4.207032 1.863281-9.984375-2.34375-12.902344-4.226563-2.910156-9.992188-1.863281-12.90625 2.34375l-5.273438 7.621094c-2.910156 4.210937-1.863281 9.984375 2.347656 12.902344 1.613282 1.125 3.457032 1.652343 5.273438 1.652343zm0 0"/><path d="m439.253906 107.140625c2.9375 0 5.828125-1.390625 7.628906-3.996094l11.207032-16.195312c2.910156-4.207031 1.863281-9.984375-2.347656-12.902344-4.226563-2.921875-9.984376-1.855469-12.902344 2.34375l-11.207032 16.195313c-2.910156 4.210937-1.863281 9.984374 2.34375 12.90625 1.613282 1.113281 3.457032 1.648437 5.277344 1.648437zm0 0"/><path d="m467.277344 66.648438c2.9375 0 5.832031-1.390626 7.628906-3.996094l11.207031-16.195313c2.910157-4.207031 1.863281-9.984375-2.34375-12.902343-4.21875-2.914063-9.984375-1.863282-12.90625 2.34375l-11.207031 16.195312c-2.910156 4.210938-1.863281 9.984375 2.347656 12.90625 1.621094 1.109375 3.453125 1.648438 5.273438 1.648438zm0 0"/><path d="m495.308594 26.167969c2.941406 0 5.832031-1.390625 7.632812-3.996094l5.273438-7.621094c2.910156-4.207031 1.863281-9.984375-2.347656-12.902343-4.226563-2.910157-9.992188-1.863282-12.902344 2.34375l-5.273438 7.621093c-2.914062 4.207031-1.863281 9.984375 2.34375 12.902344 1.613282 1.113281 3.449219 1.652344 5.273438 1.652344zm0 0"/><path d="m451.898438 116.886719-5.277344 7.617187c-2.910156 4.210938-1.863282 9.984375 2.347656 12.90625 1.613281 1.109375 3.445312 1.648438 5.265625 1.648438 2.9375 0 5.832031-1.390625 7.628906-3.996094l5.273438-7.621094c2.914062-4.207031 1.863281-9.984375-2.34375-12.902344-4.210938-2.917968-9.976563-1.863281-12.894531 2.347657zm0 0"/><path d="m475.609375 82.640625-9.484375 13.699219c-2.910156 4.210937-1.859375 9.984375 2.347656 12.90625 1.613282 1.113281 3.445313 1.648437 5.265625 1.648437 2.9375 0 5.832031-1.390625 7.628907-3.996093l9.484374-13.699219c2.910157-4.210938 1.863282-9.984375-2.34375-12.90625-4.230468-2.917969-9.996093-1.871094-12.898437 2.347656zm0 0"/><path d="m508.011719 52.121094c-4.21875-2.917969-9.984375-1.859375-12.90625 2.347656l-5.273438 7.617188c-2.910156 4.210937-1.863281 9.984374 2.34375 12.90625 1.613281 1.113281 3.449219 1.648437 5.269531 1.648437 2.9375 0 5.828126-1.386719 7.628907-3.996094l5.273437-7.617187c2.917969-4.21875 1.871094-9.992188-2.335937-12.90625zm0 0"/></svg>