<svg height="512pt" viewBox="-5 0 512 512.00324" width="512pt" xmlns="http://www.w3.org/2000/svg"><path d="m500.335938 229.265625-44.820313-120.886719c-5.796875-15.605468-20.78125-26.09375-37.3125-26.09375h-52.488281c0-45.375-36.910156-82.285156-82.285156-82.285156-45.378907 0-82.289063 36.910156-82.289063 82.285156v45.714844c0 35.28125-28.714844 64-64 64-17.671875 0-33.699219-7.203125-45.292969-18.835938 20.34375-2.6875 36.152344-19.957031 36.152344-41.023437v-72.28125c0-22.921875-18.652344-41.574219-41.570312-41.574219h-44.855469c-22.921875 0-41.574219 18.652344-41.574219 41.574219v72.28125c0 22.921875 18.652344 41.574219 41.574219 41.574219h27.199219c14.777343 22.035156 39.90625 36.570312 68.371093 36.570312 45.375 0 82.285157-36.910156 82.285157-82.285156v-45.710938c0-35.285156 28.71875-64 64-64s64 28.714844 64 64h-61.632813c-16.53125 0-31.515625 10.484376-37.304687 26.09375l-44.816407 120.875c-1.683593 4.519532-2.523437 9.253907-2.523437 14.082032v228.480468c0 22.152344 17.863281 40.183594 39.824218 40.183594h222.054688c21.960938 0 39.824219-18.03125 39.824219-40.183594v-228.480468c.003906-4.828125-.847657-9.566406-2.519531-14.074219zm-458.761719-73.835937c-12.835938 0-23.289063-10.449219-23.289063-23.289063v-72.28125c0-12.835937 10.453125-23.289063 23.289063-23.289063h44.855469c12.835937 0 23.285156 10.453126 23.285156 23.289063v72.28125c0 12.839844-10.449219 23.289063-23.285156 23.289063h-7.023438c-3.976562-8.328126-6.261719-17.609376-6.261719-27.429688h-18.285156c0 9.628906 1.746094 18.835938 4.800781 27.429688zm324.140625-6.601563c5.441406 3.171875 9.144531 9.007813 9.144531 15.746094 0 10.082031-8.203125 18.285156-18.289063 18.285156-10.082031 0-18.285156-8.203125-18.285156-18.285156 0-6.738281 3.703125-12.574219 9.144532-15.746094v15.746094h18.285156zm97.316406 344.890625h-222.0625c-11.882812 0-21.539062-9.820312-21.539062-21.898438v-47.460937l11.820312 11.820313 12.925781-12.925782-24.746093-24.75v-65.574218l11.820312 11.824218 12.925781-12.929687-24.746093-24.746094v-63.734375c0-2.644531.464843-5.242188 1.378906-7.71875l44.820312-120.886719c3.144532-8.476562 11.246094-14.171875 20.160156-14.171875h61.640626v28.722656c-15.726563 4.089844-27.429688 18.277344-27.429688 35.273438 0 20.167969 16.402344 36.570312 36.570312 36.570312 20.171876 0 36.574219-16.402343 36.574219-36.570312 0-16.996094-11.707031-31.183594-27.429687-35.273438v-28.714843h52.488281c8.914063 0 17.011719 5.695312 20.160156 14.171875l44.820313 120.894531c.921875 2.46875 1.378906 5.066406 1.378906 7.707031v72.878906l-9.144531-9.144531-24.746094 24.75 12.925781 12.929688 11.820313-11.824219 9.144531 9.144531v65.574219l-9.144531-9.144531-24.746094 24.75 12.925781 12.925781 11.820313-11.820312 9.144531 9.140624v38.320313c.011719 12.070313-9.65625 21.890625-21.53125 21.890625zm0 0"/><path d="m231.25 468.964844 12.929688 12.929687 11.820312-11.820312 11.824219 11.820312 12.925781-12.929687-24.75-24.746094zm0 0"/><path d="m295.253906 468.964844 12.925782 12.929687 11.820312-11.820312 11.824219 11.820312 12.925781-12.929687-24.75-24.746094zm0 0"/><path d="m359.25 468.964844 12.929688 12.929687 11.820312-11.820312 11.824219 11.820312 12.925781-12.929687-24.75-24.746094zm0 0"/><path d="m423.25 468.964844 12.929688 12.929687 11.820312-11.820312 11.824219 11.820312 12.925781-12.929687-24.75-24.746094zm0 0"/><path d="m256 378.644531 11.824219 11.820313 12.925781-12.925782-24.75-24.75-24.75 24.75 12.929688 12.925782zm0 0"/><path d="m308.179688 390.464844 11.820312-11.820313 11.824219 11.820313 12.925781-12.925782-24.75-24.75-24.746094 24.75zm0 0"/><path d="m372.179688 390.464844 11.820312-11.820313 11.824219 11.820313 12.925781-12.925782-24.75-24.75-24.75 24.75zm0 0"/><path d="m436.179688 390.464844 11.820312-11.820313 11.824219 11.820313 12.925781-12.925782-24.75-24.75-24.75 24.75zm0 0"/><path d="m308.179688 423.253906-24.75-24.753906-24.75 24.753906 12.929687 12.925782 11.820313-11.820313 11.824218 11.820313zm0 0"/><path d="m372.179688 423.253906-24.75-24.753906-24.75 24.753906 12.929687 12.925782 11.820313-11.820313 11.820312 11.820313zm0 0"/><path d="m436.179688 423.253906-24.75-24.753906-24.75 24.753906 12.925781 12.925782 11.824219-11.820313 11.820312 11.820313zm0 0"/><path d="m283.429688 332.929688 11.824218 11.820312 12.925782-12.925781-24.75-24.75-24.75 24.75 12.929687 12.925781zm0 0"/><path d="m347.429688 332.929688 11.820312 11.820312 12.929688-12.925781-24.75-24.75-24.75 24.75 12.929687 12.925781zm0 0"/><path d="m411.429688 332.929688 11.820312 11.820312 12.929688-12.925781-24.75-24.75-24.75 24.75 12.925781 12.925781zm0 0"/></svg>