<svg height="512pt" viewBox="0 0 511 512" width="512pt" xmlns="http://www.w3.org/2000/svg"><path d="m294.402344 0h-9.847656v68.507812c-84.210938-48.902343-191.523438-35.742187-261.476563 34.214844l-6.960937 6.960938 27.84375 27.84375 240.59375 240.585937v55.109375h9.847656c119.441406 0 216.613281-97.171875 216.613281-216.613281 0-119.445313-97.167969-216.609375-216.613281-216.609375zm-108.304688 232.117188v-133.195313c33.917969 2.109375 67.199219 15.085937 94.246094 38.953125zm98.460938-70.613282v84.539063h-84.539063zm-118.152344 70.613282-94.375-94.371094c27.046875-23.886719 60.433594-36.816406 94.375-38.914063zm33.613281 33.617187h84.539063v84.535156zm104.230469-25.355469 94.3125 94.316406c-25.480469 22.507813-58.277344 36.914063-94.3125 39.148438zm108.128906 80.285156-94.207031-94.207031h133.285156c-2.246093 36.015625-16.582031 68.734375-39.078125 94.207031zm-94.207031-113.898437 94.207031-94.207031c22.496094 25.472656 36.832032 58.191406 39.078125 94.207031zm-13.921875-13.921875v-133.464844c36.035156 2.238282 68.832031 16.652344 94.3125 39.148438zm-19.691406-101.226562v24.191406c-66.886719-51.75-162.460938-48.976563-226.3125 8.152344l-14.109375-14.109376c66.453125-60.1875 165.296875-67.917968 240.421875-18.234374zm19.691406 321.667968v-19.9375c93.132812-5.160156 167.378906-82.332031 167.378906-176.726562 0-94.394532-74.246094-171.578125-167.378906-176.726563v-19.957031c104.023438 5.140625 187.074219 91.390625 187.074219 196.675781 0 105.28125-83.050781 191.53125-187.074219 196.671875zm0 0"/><path d="m49.730469 206.765625c-6.84375 0-13.074219 3.761719-16.277344 9.808594-21.867187 41.292969-32.953125 69.058593-32.953125 82.515625 0 27.148437 22.082031 49.230468 49.230469 49.230468 27.144531 0 49.230469-22.082031 49.230469-49.230468 0-13.457032-11.089844-41.222656-32.957032-82.507813-3.199218-6.054687-9.421875-9.816406-16.273437-9.816406zm0 121.863281c-16.285157 0-29.539063-13.253906-29.539063-29.539062 0-7.316406 7.789063-29.832032 29.539063-71.175782 21.75 41.332032 29.539062 63.851563 29.539062 71.175782 0 16.285156-13.253906 29.539062-29.539062 29.539062zm0 0"/><path d="m187.574219 370.445312c-6.832031 0-13.074219 3.75-16.273438 9.804688-21.871093 41.304688-32.957031 69.070312-32.957031 82.519531 0 27.148438 22.085938 49.230469 49.230469 49.230469s49.230469-22.082031 49.230469-49.230469c0-13.449219-11.089844-41.214843-32.957032-82.519531-3.199218-6.054688-9.429687-9.804688-16.273437-9.804688zm0 121.851563c-16.285157 0-29.539063-13.25-29.539063-29.535156 0-7.316407 7.789063-29.824219 29.539063-71.175781 21.75 41.339843 29.539062 63.859374 29.539062 71.175781 0 16.285156-13.253906 29.535156-29.539062 29.535156zm0 0"/></svg>