<svg height="512pt" viewBox="-65 0 512 512.00313" width="512pt" xmlns="http://www.w3.org/2000/svg"><path d="m134.617188 203.035156h-35.3125c-4.878907 0-8.828126 3.945313-8.828126 8.828125 0 4.878907 3.949219 8.828125 8.828126 8.828125h35.3125c4.878906 0 8.828124-3.949218 8.828124-8.828125 0-4.882812-3.949218-8.828125-8.828124-8.828125zm0 0"/><path d="m99.304688 256h17.65625c4.882812 0 8.828124-3.945312 8.828124-8.828125s-3.945312-8.828125-8.828124-8.828125h-17.65625c-4.882813 0-8.828126 3.945312-8.828126 8.828125s3.945313 8.828125 8.828126 8.828125zm0 0"/><path d="m134.617188 344.277344h-35.3125c-4.878907 0-8.828126 3.945312-8.828126 8.828125 0 4.878906 3.949219 8.824219 8.828126 8.824219h35.3125c4.878906 0 8.828124-3.945313 8.828124-8.824219-.003906-4.882813-3.949218-8.828125-8.828124-8.828125zm0 0"/><path d="m134.617188 273.65625h-35.3125c-4.878907 0-8.828126 3.945312-8.828126 8.828125 0 4.878906 3.949219 8.824219 8.828126 8.824219h35.3125c4.878906 0 8.828124-3.945313 8.828124-8.824219-.003906-4.882813-3.949218-8.828125-8.828124-8.828125zm0 0"/><path d="m99.304688 326.621094h17.65625c4.882812 0 8.828124-3.945313 8.828124-8.828125 0-4.882813-3.945312-8.828125-8.828124-8.828125h-17.65625c-4.882813 0-8.828126 3.945312-8.828126 8.828125 0 4.882812 3.945313 8.828125 8.828126 8.828125zm0 0"/><path d="m355.304688 132.414062h-28.855469l.609375-4.148437c.597656-10.496094-3.046875-20.488281-10.269532-28.144531-6.230468-6.601563-14.40625-10.441406-23.277343-11.429688v-18.070312c0-14.601563-11.882813-26.484375-26.484375-26.484375h-17.65625v-17.652344c.003906-14.601563-11.878906-26.484375-26.480469-26.484375h-105.929687c-14.601563 0-26.484376 11.882812-26.484376 26.484375v17.65625h-17.652343c-14.601563 0-26.484375 11.878906-26.484375 26.480469v17.65625h-19.703125c-9.835938 0-18.839844 5.386718-23.480469 14.070312-4.636719 8.667969-4.132812 19.148438 1.320312 27.332032l33.308594 49.957031 20.683594 199.679687c1.339844 6.71875 4.296875 12.738282 8.253906 17.929688h-20.382812c-14.601563 0-26.484375 11.878906-26.484375 26.480468v88.277344h300.136719v-88.277344c0-14.597656-11.878907-26.480468-26.480469-26.480468h-14.285157c7.539063-8.441406 12.351563-19.28125 13.011719-31.128906l1.90625-13.011719h61.15625c14.601563 0 26.484375-11.878907 26.484375-26.480469v-167.730469c.003906-14.597656-11.878906-26.480469-26.480468-26.480469zm-247.171876-105.929687c0-4.875 3.953126-8.828125 8.828126-8.828125h105.929687c4.871094 0 8.828125 3.953125 8.828125 8.828125v17.65625h-123.585938zm-44.136718 44.136719c0-4.871094 3.953125-8.828125 8.828125-8.828125h194.207031c4.871094 0 8.828125 3.957031 8.828125 8.828125v17.65625h-211.863281zm229.515625 344.277344c4.871093 0 8.828125 3.953124 8.828125 8.828124v70.621094h-264.828125v-70.621094c0-4.875 3.953125-8.828124 8.828125-8.828124zm-14.777344-78.144532-2.488281 16.351563h.097656l-1.644531 11.21875c-1.058594 18.457031-16.355469 32.917969-34.84375 32.917969h-137.972657c-12.648437 0-23.632812-9.003907-25.972656-20.566407l-21.007812-203.207031-35.734375-53.589844c-2.691407-4.035156-1.210938-7.785156-.449219-9.207031.765625-1.421875 3.0625-4.742187 7.90625-4.742187h262.648438c5.605468 0 10.816406 2.242187 14.664062 6.324218 3.847656 4.078125 5.796875 9.410156 5.5625 14.238282zm85.398437-10.132812c0 4.871094-3.953124 8.828125-8.828124 8.828125h-58.507813l28.265625-185.378907h30.242188c4.875 0 8.828124 3.953126 8.828124 8.824219zm0 0"/><path d="m86.0625 423.722656c-17.035156 0-30.894531 13.859375-30.894531 30.898438 0 17.035156 13.859375 30.894531 30.894531 30.894531 17.039062 0 30.898438-13.859375 30.898438-30.894531 0-17.039063-13.859376-30.898438-30.898438-30.898438zm0 44.140625c-7.300781 0-13.238281-5.941406-13.238281-13.242187 0-7.300782 5.941406-13.242188 13.238281-13.242188 7.300781 0 13.242188 5.941406 13.242188 13.242188 0 7.300781-5.941407 13.242187-13.242188 13.242187zm0 0"/><path d="m222.890625 454.621094c0 17.035156 13.859375 30.894531 30.898437 30.894531 17.035157 0 30.894532-13.859375 30.894532-30.894531 0-17.039063-13.859375-30.898438-30.894532-30.898438-17.039062 0-30.898437 13.859375-30.898437 30.898438zm30.898437-13.242188c7.300782 0 13.238282 5.941406 13.238282 13.242188 0 7.300781-5.941406 13.238281-13.238282 13.238281-7.300781 0-13.242187-5.941406-13.242187-13.238281 0-7.300782 5.941406-13.242188 13.242187-13.242188zm0 0"/><path d="m152.269531 423.722656c-4.882812 0-8.828125 3.945313-8.828125 8.828125v44.136719c0 4.882812 3.945313 8.828125 8.828125 8.828125 4.882813 0 8.828125-3.945313 8.828125-8.828125v-44.136719c0-4.882812-3.945312-8.828125-8.828125-8.828125zm0 0"/><path d="m187.582031 423.722656c-4.882812 0-8.828125 3.945313-8.828125 8.828125v44.136719c0 4.882812 3.945313 8.828125 8.828125 8.828125 4.882813 0 8.828125-3.945313 8.828125-8.828125v-44.136719c0-4.882812-3.945312-8.828125-8.828125-8.828125zm0 0"/></svg>