<svg height="512pt" viewBox="-8 0 512 512.00173" width="512pt" fill = 'white' xmlns="http://www.w3.org/2000/svg"><path d="m287.625 65.253906c5.394531 0 9.773438-4.367187 9.773438-9.773437s-4.378907-9.777344-9.773438-9.777344c-6.96875 0-12.636719-5.667969-12.636719-12.636719 0-5.40625-4.382812-9.773437-9.777343-9.773437-5.394532 0-9.773438 4.367187-9.773438 9.773437 0 17.742188 14.4375 32.1875 32.1875 32.1875zm0 0"/><path d="m483.953125 297.941406c-3.492187-2.03125-7.128906-3.714844-10.84375-5.171875.128906-1.914062.226563-3.769531.226563-5.578125 0-44.269531-29.15625-82.097656-70.804688-93.882812 1.582031-6.03125 2.382812-12.226563 2.382812-18.523438 0-39.449218-31.335937-71.625-70.414062-73.160156.773438-4.527344 1.269531-9.160156 1.269531-13.902344.003907-48.371094-34.355469-87.722656-76.585937-87.722656h-11.144532c-42.234374 0-76.589843 39.351562-76.589843 87.734375 0 4.742187.484375 9.363281 1.257812 13.878906-39.253906 1.339844-70.792969 33.605469-70.792969 73.179688 0 5.5625.613282 11.039062 1.835938 16.375-45.761719 8.355469-80.03125 48.382812-80.03125 96.03125 0 1.820312.09375 3.6875.222656 5.601562-3.683594 1.445313-7.289062 3.128907-10.761718 5.132813-10.378907 6.03125-15.410157 18.679687-12.234376 30.757812l1.144532 4.351563c10.339844 39.449219 26.964844 76.71875 49.425781 110.773437 20.457031 31.019532 50.796875 54.214844 85.410156 65.3125 6.109375 1.953125 10.515625 2.871094 13.859375 2.871094h195.488282c3.410156 0 7.730468-.90625 14.042968-2.941406 34.59375-11.171875 64.863282-34.355469 85.253906-65.28125 22.429688-34.015625 39.058594-71.253906 49.398438-110.664063l1.171875-4.46875c3.15625-12.042969-1.859375-24.664062-12.1875-30.703125zm-235.914063-278.390625h11.144532c31.453125 0 57.042968 30.582031 57.042968 68.183594 0 6.472656-.988281 12.714844-2.816406 18.601563l-.078125.214843c-.285156.886719-.632812 1.730469-.957031 2.601563-2.21875 6.078125-5.328125 11.667968-9.148438 16.632812-.058593.078125-.128906.167969-.1875.246094-5.773437 7.4375-13.144531 13.46875-21.492187 17.660156-.15625.078125-.304687.148438-.460937.226563-5.335938 2.628906-11.0625 4.476562-17.027344 5.492187-.546875.097656-1.101563.175782-1.660156.253906-2.894532.410157-5.816407.695313-8.796876.695313-2.972656 0-5.902343-.273437-8.785156-.695313-.558594-.078124-1.117187-.15625-1.671875-.253906-5.953125-1.015625-11.691406-2.863281-17.019531-5.492187-.15625-.078125-.3125-.148438-.46875-.226563-5.570312-2.796875-10.703125-6.402344-15.21875-10.710937l-.007812-.011719c-2.25-2.152344-4.339844-4.46875-6.257813-6.941406-.066406-.097656-.136719-.183594-.214844-.28125-3.800781-4.957032-6.910156-10.527344-9.117187-16.597656-.273438-.753907-.578125-1.488282-.832032-2.257813l-.214843-.589844c-1.824219-5.871093-2.8125-12.109375-2.8125-18.578125.015625-37.589844 25.605469-68.171875 57.058593-68.171875zm-204.765624 268.304688c0-.214844 0-.441407 0-.65625 0-41.472657 32.472656-75.722657 73.925781-77.96875l13.878906-.753907-5.40625-12.816406c-2.796875-6.613281-4.203125-13.632812-4.203125-20.875 0-29.636718 24.113281-53.761718 53.757812-53.761718.617188 0 1.714844.039062 3.453126.226562 0 .007812.007812.019531.019531.027344 1.570312 3.511718 3.410156 6.882812 5.441406 10.109375.117187.183593.226563.378906.34375.566406 2.074219 3.226563 4.339844 6.292969 6.820313 9.1875.078124.089844.15625.167969.238281.265625 2.414062 2.796875 5.023437 5.40625 7.789062 7.847656.15625.136719.300781.285156.460938.421875 5.667969 4.9375 12.011719 9.070313 18.875 12.316407.261719.125.515625.253906.78125.371093 6.566406 3.019531 13.597656 5.171875 20.945312 6.371094.78125.128906 1.554688.257813 2.335938.363281 3.566406.480469 7.183593.800782 10.878906.800782s7.308594-.332032 10.878906-.800782c.792969-.105468 1.5625-.234375 2.34375-.363281 7.351563-1.199219 14.378907-3.351563 20.9375-6.371094.265625-.125.527344-.253906.800781-.378906 6.863282-3.246094 13.195313-7.382813 18.855469-12.308594.175781-.144531.332031-.3125.511719-.457031 2.746094-2.433594 5.335938-5.027344 7.738281-7.800781.089844-.097657.1875-.195313.273438-.304688 2.472656-2.882812 4.730469-5.941406 6.792969-9.148437.128906-.203125.257812-.417969.382812-.625 2.023438-3.214844 3.839844-6.566406 5.414062-10.058594.011719-.007812.011719-.027344.019532-.039062 1.523437-.175782 2.492187-.207032 3.058594-.207032 29.644531 0 53.757812 24.125 53.757812 53.761719 0 7.496094-1.550781 14.796875-4.613281 21.71875l-5.121094 11.582031 12.511719 2.023438c38.042968 6.136718 65.644531 38.558594 65.644531 77.089844v.632812c-.203125-.027344-.417969-.019531-.625-.046875-.34375-.039063-.683594-.039063-1.035156-.078125-2.933594-.292969-5.855469-.410156-8.777344-.378906-.851563.007812-1.703125.027344-2.550781.066406-2.71875.117188-5.425782.351562-8.105469.742188-.605469.089843-1.210937.128906-1.808594.226562-3.066406.507812-6.078125 1.230469-9.058593 2.089844-1.066407.304687-2.109376.683594-3.167969 1.039062-2.03125.683594-4.035157 1.445313-6.007813 2.296875-1.105468.46875-2.199218.917969-3.285156 1.445313-2.746094 1.320312-5.425781 2.785156-8.015625 4.425781-.167969.109375-.351563.179687-.515625.285156-3.335938 2.179688-7.898438 2.238281-11.105469.125-1.164062-.761719-2.414062-1.308593-3.605469-2.003906-1.28125-.742187-2.550781-1.484375-3.859374-2.148437-2.726563-1.398438-5.503907-2.570313-8.328126-3.628907-.949218-.351562-1.867187-.75-2.828124-1.0625-3.820313-1.261719-7.699219-2.25-11.628907-2.90625-.019531 0-.050781-.007812-.070312-.007812-12.5-2.082031-25.324219-1.085938-37.464844 2.921875-.957031.3125-1.878906.722656-2.816406 1.074218-2.824219 1.054688-5.601563 2.226563-8.316407 3.625-1.351562.683594-2.640624 1.449219-3.949218 2.21875-1.210938.714844-2.492188 1.269532-3.675782 2.050782-3.28125 2.183594-7.230468 2.183594-10.535156 0-1.183594-.78125-2.453125-1.335938-3.65625-2.050782-1.320312-.769531-2.628906-1.542968-3.988281-2.226562-2.707031-1.390625-5.472656-2.5625-8.289063-3.617188-.949218-.351562-1.875-.765624-2.832031-1.074218-16.011719-5.300782-33.234375-5.289063-49.234375.019531-.929687.300781-1.828125.703125-2.746094 1.042969-2.84375 1.066406-5.640624 2.25-8.367187 3.644531-1.347656.695313-2.65625 1.457031-3.976563 2.230469-1.210937.714844-2.492187 1.28125-3.675781 2.0625-3.273437 2.167968-7.195312 2.199218-10.46875.03125-1.230469-.8125-2.550781-1.390625-3.8125-2.125-1.296875-.75-2.589843-1.503906-3.917969-2.179688-2.816406-1.433594-5.6875-2.636718-8.621093-3.722656-.871094-.3125-1.71875-.695312-2.601563-.976562-16.242187-5.347657-33.710937-5.347657-49.9375.027343-.839844.273438-1.640625.648438-2.472656.949219-2.960938 1.09375-5.871094 2.316406-8.726562 3.773438-1.339844.683593-2.628907 1.457031-3.9375 2.21875-1.300782.761718-2.667969 1.367187-3.9375 2.207031-3.136719 2.074219-6.890626 2.0625-10.066407-.039063-1.320312-.871094-2.746093-1.523437-4.109375-2.316406-1.101562-.636719-2.179687-1.28125-3.3125-1.867188-2.851562-1.464843-5.773437-2.714843-8.757812-3.8125-.878906-.320312-1.730469-.722656-2.628906-1.027343-3.96875-1.308594-8.003907-2.363281-12.109376-3.046875-.019531 0-.039062 0-.050781 0-3.988281-.652344-8.003906-.9375-12.039062-.996094-.363281 0-.722657-.089844-1.085938-.089844-1.835937 0-3.683593.214844-5.53125.34375-1.234375.089844-2.464843.089844-3.6875.234375-.308593.003907-.5625-.007812-.808593.023438zm433.953124 35.832031-1.171874 4.46875c-9.792969 37.34375-25.550782 72.632812-46.808594 104.867188-17.957032 27.230468-44.570313 47.628906-74.941406 57.441406-6.070313 1.957031-7.957032 1.996094-8.035157 1.996094h-195.484375c-.078125 0-1.957031-.03125-7.898437-1.9375-30.386719-9.734376-57.042969-30.140626-75.054688-57.460938-21.289062-32.265625-37.046875-67.582031-46.839843-104.96875l-1.144532-4.351562c-.929687-3.546876.390625-7.28125 3.148438-8.882813 4.632812-2.6875 9.570312-4.644531 14.640625-5.992187 1.46875-.390626 2.953125-.644532 4.429687-.917969 1.230469-.238281 2.464844-.5 3.703125-.65625 1.328125-.164063 2.667969-.214844 4.007813-.292969 1.386718-.085938 2.765625-.183594 4.144531-.164062 1.320313.007812 2.628906.125 3.949219.222656 1.347656.097656 2.695312.207031 4.035156.394531 1.390625.203125 2.769531.484375 4.136719.78125 1.210937.265625 2.421875.527344 3.625.859375 1.4375.402344 2.851562.878906 4.25 1.386719 1.105469.402343 2.199219.8125 3.273437 1.28125 1.390625.597656 2.746094 1.25 4.085938 1.953125 1.097656.570312 2.160156 1.175781 3.226562 1.820312 3.949219 2.382813 7.703125 5.152344 11.054688 8.453125l6.859375 6.753907 6.863281-6.742188c2.875-2.835938 5.980469-5.308594 9.246094-7.441406.242187-.15625.507812-.261719.761718-.417969 2.863282-1.808594 5.855469-3.34375 8.925782-4.625.683594-.285156 1.375-.527344 2.070312-.792969 2.992188-1.113281 6.03125-2.03125 9.140625-2.65625.363281-.078125.714844-.175781 1.074219-.234375 7.273438-1.339843 14.738281-1.339843 22.023438-.011719.410156.078126.800781.183594 1.210937.265626 3.070313.625 6.089844 1.535156 9.050781 2.636718.683594.253906 1.367188.488282 2.03125.765625 3.246094 1.347657 6.402344 2.929688 9.40625 4.867188.074219.046875.175782.085937.253906.136719 3.300782 2.148437 6.429688 4.640624 9.332032 7.503906l6.890625 6.785156 6.863281-6.824219c2.863281-2.855469 5.949219-5.347656 9.207031-7.488281.085938-.058594.183594-.097656.273438-.15625 2.941406-1.914062 6.050781-3.488281 9.226562-4.828125.703125-.300781 1.417969-.539063 2.121094-.8125 2.863281-1.074219 5.785156-1.960937 8.757813-2.578125.460937-.097656.90625-.214844 1.367187-.304688 7.125-1.308593 14.4375-1.308593 21.5625 0 .441406.078126.878906.195313 1.320313.292969 3.011718.628907 5.960937 1.515625 8.867187 2.609375.664063.253906 1.339844.480469 1.992187.753906 6.8125 2.863282 13.226563 6.976563 18.765626 12.5l6.902343 6.863282 6.902344-6.863282c5.53125-5.511718 11.933594-9.625 18.746094-12.480468.671875-.285156 1.367187-.519532 2.042969-.78125 2.871093-1.085938 5.804687-1.964844 8.777343-2.582032.460938-.097656.917969-.214843 1.386719-.300781 7.105469-1.300781 14.398438-1.300781 21.503906 0 .480469.085938.949219.203125 1.425782.3125 2.992187.625 5.933593 1.503907 8.828124 2.601563.644532.242187 1.300782.457031 1.933594.722656 6.832032 2.863281 13.261719 6.988281 18.816406 12.519531l6.882813 6.839844 6.898437-6.820313c3.421876-3.390624 7.242188-6.238281 11.289063-8.652343.96875-.585938 1.964844-1.113281 2.953125-1.628907 1.414062-.742187 2.84375-1.449218 4.308594-2.074218.9375-.402344 1.886718-.734375 2.84375-1.085938 1.527344-.554687 3.070312-1.09375 4.636718-1.523437 1.015626-.273438 2.042969-.488281 3.058594-.703125 1.535156-.34375 3.070313-.664063 4.621094-.878906 1.125-.15625 2.257812-.214844 3.382812-.3125 1.496094-.128907 2.992188-.257813 4.503907-.265626 1.15625-.011718 2.308593.085938 3.460937.144532 1.515625.078125 3.042969.128906 4.554688.324218 1.035156.125 2.042968.371094 3.070312.554688 1.640625.292969 3.285156.570312 4.90625 1.007812 5.027344 1.339844 9.914063 3.296876 14.488282 5.964844 2.699218 1.585938 4.007812 5.3125 3.078124 8.839844zm0 0"/></svg>