<svg height="512pt" viewBox="0 0 512 512" width="512pt" xmlns="http://www.w3.org/2000/svg"><path d="m259.679688 196.660156c1.179687 4.347656 5.109374 7.207032 9.414062 7.207032.839844 0 1.699219-.105469 2.554688-.339844l42.109374-11.398438c5.203126-1.402344 8.273438-6.761718 6.871094-11.960937-1.40625-5.207031-6.753906-8.332031-11.972656-6.867188l-42.109375 11.394531c-5.199219 1.40625-8.273437 6.761719-6.867187 11.964844zm0 0"/><path d="m106.566406 249.34375 29.269532 9.757812c1.023437.339844 2.070312.507813 3.082031.507813 4.089843 0 7.894531-2.585937 9.261719-6.675781 1.707031-5.109375-1.054688-10.644532-6.167969-12.339844l-29.269531-9.757812c-5.125-1.71875-10.636719 1.054687-12.34375 6.164062-1.707032 5.125 1.054687 10.648438 6.167968 12.34375zm0 0"/><path d="m212.730469 232.132812c.203125.011719.398437.019532.59375.019532 5.125 0 9.425781-3.988282 9.726562-9.171875l.820313-13.773438c.324218-5.386719-3.773438-10.003906-9.152344-10.324219-5.472656-.28125-10 3.785157-10.320312 9.152344l-.820313 13.777344c-.324219 5.394531 3.773437 10.007812 9.152344 10.320312zm0 0"/><path d="m385.695312 274.070312c1.90625 1.902344 4.402344 2.859376 6.898438 2.859376 2.5 0 4.996094-.957032 6.898438-2.859376 3.816406-3.816406 3.816406-9.984374 0-13.796874l-9.753907-9.757813c-3.816406-3.8125-9.984375-3.8125-13.796875 0-3.816406 3.816406-3.816406 9.984375 0 13.796875zm0 0"/><path d="m297.046875 250.507812c-3.816406-3.816406-9.980469-3.816406-13.796875 0-3.8125 3.8125-3.8125 9.980469 0 13.792969l9.757812 9.757813c1.902344 1.902344 4.402344 2.859375 6.898438 2.859375 2.5 0 4.996094-.957031 6.898438-2.859375 3.816406-3.816406 3.816406-9.980469 0-13.796875zm0 0"/><path d="m264.234375 100.574219c1.113281 4.4375 5.082031 7.394531 9.453125 7.394531.792969 0 1.582031-.097656 2.382812-.292969 5.230469-1.304687 8.402344-6.605469 7.101563-11.824219l-9.757813-39.027343c-1.308593-5.238281-6.625-8.390625-11.835937-7.101563-5.226563 1.308594-8.398437 6.605469-7.101563 11.824219zm0 0"/><path d="m219.832031 159.210938c1.902344 1.902343 4.398438 2.859374 6.898438 2.859374 2.496093 0 4.996093-.957031 6.898437-2.859374 3.816406-3.816407 3.816406-9.980469 0-13.796876l-9.757812-9.757812c-3.816406-3.8125-9.980469-3.8125-13.796875 0-3.8125 3.816406-3.8125 9.984375 0 13.796875zm0 0"/><path d="m506.789062 309.527344c-7.824218-7.738282-16.917968-13.4375-26.597656-17.230469.125-1.925781.222656-3.796875.222656-5.613281 0-44.1875-29.101562-81.945313-70.675781-93.710938 1.578125-6.011718 2.378907-12.199218 2.378907-18.492187 0-39.359375-31.230469-71.558594-70.21875-73.117188.800781-4.566406 1.199218-9.160156 1.199218-13.785156 0-48.289063-34.304687-87.578125-76.453125-87.578125h-11.113281c-42.160156 0-76.464844 39.28125-76.464844 87.578125 0 4.613281.402344 9.210937 1.191406 13.777344-39.15625 1.363281-70.589843 33.640625-70.589843 73.125 0 5.550781.613281 11.015625 1.832031 16.34375-45.679688 8.34375-79.886719 48.296875-79.886719 95.859375 0 1.835937.09375 3.71875.222657 5.652344-9.679688 3.792968-18.761719 9.460937-26.585938 17.171874l-5.25 5.160157 93.605469 172.117187c5.90625 14.566406 20.316406 24.304688 36.074219 24.304688h252.652343c15.757813 0 30.167969-9.738282 36.070313-24.304688l93.597656-172.101562zm-455.671874-22.179688c0-.214844 0-.4375 0-.652344 0-41.398437 32.410156-75.585937 73.789062-77.832031 3.171875-.183593 6.058594-1.871093 7.738281-4.574219 1.6875-2.691406 1.953125-6.03125.722657-8.964843-2.78125-6.617188-4.195313-13.621094-4.195313-20.839844 0-29.582031 24.070313-53.664063 53.660156-53.664063 1.105469 0 3.699219.125 8.742188.992188 3.414062.558594 6.910156-.699219 9.125-3.375 2.234375-2.660156 2.867187-6.3125 1.679687-9.570312-2.527344-6.964844-3.804687-14.117188-3.804687-21.289063 0-37.535156 25.550781-68.0625 56.949219-68.0625h11.113281c31.394531 0 56.941406 30.527344 56.941406 68.0625 0 7.179687-1.28125 14.351563-3.816406 21.308594-1.191407 3.289062-.539063 6.957031 1.714843 9.621093 2.246094 2.664063 5.75 3.941407 9.203126 3.316407 4.527343-.828125 6.996093-1.003907 8.265624-1.003907 29.589844 0 53.660157 24.078126 53.660157 53.664063 0 7.492187-1.550781 14.78125-4.601563 21.667969-1.222656 2.769531-1.09375 5.941406.347656 8.605468 1.433594 2.652344 4.042969 4.496094 7.027344 4.984376 37.972656 6.128906 65.527344 38.492187 65.527344 76.953124v.632813c-.871094-.105469-1.738281-.105469-2.617188-.183594-1.335937-.117187-2.671874-.234375-4.019531-.292969-1.0625-.039062-2.125-.039062-3.1875-.027343-1.484375 0-2.96875.027343-4.449219.117187-.949218.058594-1.882812.125-2.820312.214844-1.621094.144531-3.238281.347656-4.851562.601562-.796876.128907-1.597657.253907-2.390626.402344-1.753906.320313-3.5.722656-5.238281 1.171875-.652343.164063-1.304687.320313-1.949219.507813-1.875.527344-3.710937 1.152344-5.542968 1.8125-.515625.1875-1.035156.351562-1.550782.558594-1.933593.75-3.824218 1.597656-5.710937 2.507812-.398437.195312-.820313.359375-1.21875.566406-2 1.003906-3.953125 2.117188-5.875 3.308594-.253906.152344-.515625.28125-.769531.449219-2.164063 1.375-4.273438 2.839843-6.320313 4.4375-1.863281-1.460938-3.894531-2.566407-5.855469-3.84375-27.875-18.109375-64.734374-17.007813-91.234374 3.832031-28.363282-22.300781-68.753907-22.28125-97.109376.019531-28.617187-22.324219-69.421874-22.324219-98.027343.03125-3.367188-2.636719-6.9375-4.898437-10.605469-6.90625-.253906-.136719-.496094-.304687-.761719-.441406-3.570312-1.910156-7.269531-3.484375-11.042969-4.808594-.449218-.15625-.890624-.332031-1.335937-.480469-3.671875-1.21875-7.417969-2.144531-11.203125-2.820312-.652344-.117188-1.308594-.222656-1.960938-.332031-3.695312-.554688-7.414062-.875-11.152343-.914063-.339844 0-.671875-.089844-1.011719-.089844-.597656 0-1.191406.097657-1.796875.105469-2.058594.050781-4.117187.175781-6.164063.382813-.6875.074218-1.355468.046875-2.015624.132812zm349.859374 190.636719-.539062 1.152344c-2.859375 7.445312-10.136719 12.441406-18.105469 12.441406h-252.652343c-7.972657 0-15.25-5.007813-18.109376-12.441406l-87.1875-160.480469c8.617188-6.644531 18.695313-10.574219 29.046876-11.890625.742187-.097656 1.472656-.097656 2.214843-.15625 2.460938-.226563 4.925781-.304687 7.394531-.226563 1.015626.03125 2.03125.097657 3.035157.175782 2.402343.195312 4.78125.546875 7.144531 1.027344.796875.164062 1.609375.253906 2.398438.449218 2.976562.730469 5.90625 1.707032 8.761718 2.898438.871094.359375 1.6875.808594 2.539063 1.21875 2.117187 1.003906 4.195312 2.125 6.207031 3.382812.867188.546875 1.734375 1.085938 2.574219 1.679688 2.605469 1.835937 5.140625 3.816406 7.484375 6.109375.039062.039062.085937.066406.125.105469 0 0 .011718 0 .019531.011718l6.828125 6.722656 6.847656-6.734374c1.398438-1.367188 2.988282-2.390626 4.46875-3.597657 23.417969-18.960937 58.035156-17.953125 79.898438 3.597657l6.878906 6.769531 6.847656-6.808594c11.144532-11.09375 25.679688-16.695313 40.316406-17.027344.449219-.007812.898438-.125 1.347657-.125.507812 0 1.011719.136719 1.53125.148438 10.800781.28125 21.542969 3.367187 30.890625 9.503906 3.265625 2.144531 6.359375 4.644531 9.230468 7.5l6.886719 6.851563 6.878907-6.839844h.007812c2.871094-2.859375 5.972656-5.367188 9.230469-7.515625 22.851562-15.003907 53.976562-12.496094 74.074219 7.503906l6.871093 6.828125 6.886719-6.808594c2.371094-2.34375 4.9375-4.351562 7.570312-6.214844.820313-.574218 1.667969-1.113281 2.515626-1.648437 2.011718-1.269531 4.078124-2.390625 6.199218-3.398437.835938-.398438 1.648438-.847657 2.507813-1.207032 2.828125-1.183594 5.714843-2.148437 8.671875-2.878906.828125-.207031 1.679687-.3125 2.515625-.476562 2.304687-.46875 4.617187-.8125 6.949219-1.007813 1.023437-.085937 2.058593-.15625 3.09375-.183594 2.417968-.078125 4.847656.011719 7.257812.222657.761719.070312 1.511719.070312 2.273438.15625 10.292968 1.308593 20.304687 5.238281 28.871093 11.875zm0 0"/><path d="m128.820312 352.425781c-1.425781-5.199219-6.8125-8.320312-11.980468-6.847656-5.203125 1.425781-8.265625 6.78125-6.851563 11.980469l29.273438 107.324218c1.1875 4.34375 5.113281 7.191407 9.402343 7.191407.851563 0 1.71875-.105469 2.578126-.339844 5.199218-1.425781 8.265624-6.78125 6.847656-11.984375zm0 0"/><path d="m395.160156 345.566406c-5.21875-1.414062-10.566406 1.648438-11.980468 6.847656l-29.269532 107.316407c-1.417968 5.191406 1.648438 10.558593 6.847656 11.980469.859376.238281 1.726563.34375 2.574219.34375 4.292969 0 8.226563-2.847657 9.40625-7.191407l29.269531-107.316406c1.417969-5.1875-1.644531-10.554687-6.847656-11.980469zm0 0"/><path d="m305.671875 345.265625c-5.386719-.460937-10.105469 3.472656-10.597656 8.828125l-9.753907 107.316406c-.488281 5.375 3.460938 10.117188 8.839844 10.605469.300782.027344.59375.039063.886719.039063 4.996094 0 9.25-3.816407 9.707031-8.871094l9.757813-107.316406c.476562-5.363282-3.472657-10.113282-8.839844-10.601563zm0 0"/><path d="m206.339844 345.265625c-5.367188.484375-9.328125 5.238281-8.84375 10.601563l9.757812 107.316406c.457032 5.066406 4.714844 8.871094 9.710938 8.871094.289062 0 .59375-.011719.886718-.039063 5.367188-.488281 9.328126-5.230469 8.839844-10.605469l-9.757812-107.316406c-.488282-5.347656-5.171875-9.269531-10.59375-8.828125zm0 0"/></svg>