<svg height="512pt" viewBox="0 -26 512 511" width="512pt" xmlns="http://www.w3.org/2000/svg"><path d="m510.109375 167.042969c-.0625-.460938-.050781-.917969-.132813-1.378907-.203124-1.191406-.484374-2.355468-.714843-3.539062-.148438-.765625-.300781-1.527344-.46875-2.296875-.546875-2.558594-1.164063-5.101563-1.851563-7.617187-.097656-.363282-.1875-.722657-.289062-1.085938-24.285156-86.828125-128.972656-150.625-251.359375-150.625-1.65625 0-3.273438.140625-4.925781.160156-4.367188.0625-8.703126.203125-13.019532.421875-2.507812.132813-5.023437.238281-7.511718.425781-5.316407.386719-10.566407.925782-15.785157 1.5625-2.558593.308594-5.101562.644532-7.632812 1.015626-5.113281.730468-10.179688 1.550781-15.175781 2.515624-2.550782.484376-5.046876 1.050782-7.5625 1.597657-3.523438.757812-7.011719 1.589843-10.472657 2.453125-3.953125.996094-7.847656 2.066406-11.714843 3.195312-2.796876.820313-5.578126 1.667969-8.324219 2.558594-5.109375 1.652344-10.117188 3.453125-15.058594 5.34375-1.617187.625-3.257813 1.21875-4.855469 1.859375-50.035156 20.164063-90.167968 52.375-112.84375 91.949219-.152344.257812-.300781.511718-.449218.765625-2.269532 4.019531-4.34375 8.097656-6.242188 12.253906-.847656 1.835937-1.714844 3.664063-2.480469 5.519531-.910156 2.214844-1.765625 4.4375-2.578125 6.691406-1.34375 3.726563-2.558594 7.484376-3.601562 11.289063-.160156.59375-.40625 1.148437-.554688 1.75-.160156.632813-.195312 1.269531-.328125 1.90625-2.691406 10.988281-4.175781 22.28125-4.175781 33.835937l.132812 84.992188c0 103.757812 112.082032 185.042969 255.167969 185.042969 141.542969 0 256.699219-84.648438 256.699219-188.699219v-81.355469c0-7.617187-.6875-15.121093-1.890625-22.507812zm-27.027344 23.25c-12.863281 7.839843-18.179687 33.625-24.277343 69.191406-1.5625 9.101563-3.035157 17.691406-4.476563 23.359375-.800781 3.175781-2.25 5.683594-3.210937 6.796875-16.808594-4.785156-30.589844-3.804687-40.953126 2.921875-16.1875 10.488281-18.96875 31.390625-20.460937 42.628906-.097656.742188-.441406 1.277344-1.035156 1.578125-.359375.1875-1.109375.425781-2.011719-.050781-.863281-.574219-2.796875-3.171875-4.21875-5.066406-6.292969-8.441406-16.808594-22.625-39.476562-20.09375-18.460938 2.03125-28.167969 22-36.75 39.617187-3.0625 6.285157-5.949219 12.21875-8.675782 16.039063-3.320312 4.664062-9.914062 6.429687-15.652344 4.273437-.378906-.828125-.875-2.230469-1.253906-3.316406-2.390625-6.828125-7.351562-21.03125-27.257812-21.363281-15.503906-.214844-22.609375 12.253906-26.652344 19.71875-1.078125 2.003906-2.710938 5.023437-3.257812 5.542968-4.960938 2.464844-10.496094 1.148438-13.441407-3.246093-1.828125-2.726563-1.769531-10.339844-1.714843-16.445313.097656-11.679687.210937-26.230468-10.011719-35.019531-5.214844-4.496094-12.207031-6.71875-21.183594-6.71875-3.417969 0-7.117187.324219-11.125.960937-11.386719 1.820313-20.972656 10.382813-28.679687 17.257813-2.789063 2.492187-6.257813 5.597656-7.734376 6.277344-.84375.398437-1.640624.390625-2.417968-.054688-.460938-.246093-1.554688-1.03125-1.78125-2.777343-.488282-3.691407-1.429688-7.195313-2.5625-11.40625-6.425782-23.976563-32.625-25.167969-48.285156-25.875-4.433594-.191407-8.617188-.386719-11.070313-.960938-5.347656-1.242188-9.585937-5.773438-11.050781-11.828125-.8125-3.378906-1.246094-13.058594-1.660156-22.414063-1.535157-34.59375-3.371094-57.820312-14.40625-65.199218-11.882813-7.945313-17.71875-21.890625-14.929688-35.105469.230469-.917969.441406-1.847656.691406-2.753906 1.058594-3.929688 2.3125-7.804688 3.726563-11.617188.527343-1.429687 1.101562-2.851562 1.683593-4.261719 1.394532-3.410156 2.90625-6.773437 4.574219-10.082031.96875-1.917969 2.039063-3.804687 3.105469-5.6875.964844-1.710937 1.988281-3.398437 3.019531-5.082031 2.25-3.636719 4.652344-7.222656 7.230469-10.71875.527344-.714844 1.050781-1.429688 1.589844-2.136719 21.890625-28.667969 54.824218-52.351562 94.65625-68.054687 1.09375-.433594 2.214844-.828125 3.320312-1.242188 5.03125-1.90625 10.167969-3.699218 15.402344-5.351562 2.1875-.6875 4.40625-1.347656 6.628906-1.996094 4.023438-1.164062 8.113282-2.25 12.242188-3.265625 2.898437-.707031 5.800781-1.375 8.742187-2.003906 2.574219-.546875 5.152344-1.101563 7.777344-1.597657 4.492187-.835937 9.039063-1.5625 13.617187-2.203124 2.535157-.363282 5.085938-.691407 7.65625-.992188 4.738282-.554688 9.507813-1.03125 14.316407-1.375 2.464843-.175781 4.953125-.285156 7.433593-.40625 3.804688-.1875 7.628907-.308594 11.46875-.371094 1.675782-.027344 3.34375-.085937 5.03125-.085937 111.042969 0 204.621094 54.542969 231.363282 128.210937.191406.53125.359375 1.070313.539062 1.597656.722656 2.066407 1.402344 4.148438 2.011719 6.25.265625.898438.492187 1.808594.734375 2.71875.476562 1.753907.925781 3.519532 1.320312 5.304688.25 1.085938.460938 2.1875.671876 3.28125.230468 1.183594.433593 2.367188.636718 3.558594 1.253906 8.542968-2.402344 16.796875-9.515625 21.140625zm-227.78125 251.65625c-133.179687 0-237.515625-73.523438-237.515625-167.386719 0-.011719-.078125-49.3125-.113281-72.792969 2.578125 2.664063 5.351563 5.183594 8.527344 7.292969 4.832031 5.199219 6.269531 37.691406 6.886719 51.5625.519531 11.578125.917968 20.734375 2.136718 25.765625 3.046875 12.589844 12.332032 22.132813 24.230469 24.875 4.027344.9375 8.777344 1.15625 14.265625 1.402344 16.402344.742187 29.183594 2.15625 32.265625 13.648437.796875 2.957032 1.546875 5.746094 1.875 8.28125.882813 6.773438 4.914063 12.738282 10.777344 15.96875 5.710937 3.132813 12.410156 3.363282 18.367187.601563 3.859375-1.785157 7.664063-5.191407 12.070313-9.117188 5.984375-5.34375 13.425781-11.988281 19.710937-13.003906 8.828125-1.398437 15.070313-.832031 18.007813 1.703125 4.027343 3.457031 3.9375 13.035156 3.867187 21.484375-.078125 9.429687-.160156 19.171875 4.707032 26.429687 5.339843 7.957032 13.980468 12.316407 23.011718 12.316407 4.34375 0 8.777344-.996094 12.96875-3.101563 5.367188-2.671875 8.191406-7.90625 10.917969-12.957031 4.273437-7.910156 6.359375-10.683594 10.824219-10.460937 7.601562.132812 8.632812 3.078124 10.882812 9.535156 1.625 4.632812 3.648438 10.421875 9.640625 13.160156 13.71875 6.222656 29.820313 2.171875 38.304688-9.691406 3.582031-5.023438 6.789062-11.609375 10.175781-18.574219 6.25-12.84375 14.027344-28.832031 22.800781-29.792969 12.546875-1.394531 17.84375 5.648438 23.394531 13.089844 3.019532 4.050781 5.878907 7.882812 10.042969 10.082031 5.8125 3.078125 12.695313 3.140625 18.433594.175781 5.6875-2.929687 9.578125-8.519531 10.433594-14.9375 1.203125-9.003906 3.195312-24.070312 12.554687-30.128906 6.097656-3.933594 15.378906-4.105468 27.585938-.457031 4.054687 1.207031 8.183594.730469 11.945312-1.414063 8.136719-4.609374 11.371094-15.191406 12.15625-18.316406 1.605469-6.347656 3.070313-14.867187 4.765625-24.71875 2.9375-17.152344 9.0625-52.839844 16.066407-57.113281.730468-.449219 1.375-.996094 2.074218-1.492187v67.035156c-.003906 94.320312-107.230468 171.046875-239.046875 171.046875zm0 0"/><path d="m251.550781 119.742188c-54.449219 0-97.105469 27.144531-97.105469 61.792968 0 6.144532 1.527344 12.324219 4.46875 18.398438.097657.246094.078126.511718.203126.75 12.730468 25.511718 49.875 42.648437 92.441406 42.648437s79.714844-17.136719 92.445312-42.648437c.113282-.238282.105469-.503906.203125-.75 2.9375-6.074219 4.464844-12.261719 4.464844-18.398438-.015625-34.648437-42.664063-61.792968-97.121094-61.792968zm0 17.65625c43.058594 0 79.449219 20.214843 79.449219 44.136718 0 1.140625-.089844 2.269532-.273438 3.417969-.070312-.027344-.160156-.046875-.230468-.082031-5.394532-2.074219-10.992188-3.875-16.703125-5.5-.855469-.246094-1.695313-.5-2.558594-.730469-5.535156-1.492187-11.210937-2.765625-16.984375-3.824219-1.03125-.183594-2.066406-.363281-3.097656-.539062-5.835938-.988282-11.757813-1.78125-17.78125-2.328125-.847656-.082031-1.703125-.117188-2.558594-.1875-6.347656-.503907-12.765625-.820313-19.253906-.820313-6.488282 0-12.90625.316406-19.25.820313-.847656.070312-1.714844.105469-2.5625.1875-6.019532.546875-11.941406 1.339843-17.777344 2.328125-1.042969.175781-2.074219.355468-3.101562.539062-5.769532 1.058594-11.449219 2.332032-16.980469 3.824219-.867188.230469-1.703125.484375-2.5625.730469-5.710938 1.625-11.304688 3.425781-16.699219 5.5-.070312.027344-.160156.042968-.230469.082031-.1875-1.148437-.273437-2.277344-.273437-3.417969-.019532-23.921875 36.367187-44.136718 79.429687-44.136718zm-71.132812 63.398437c.300781-.113281.617187-.210937.925781-.316406 4.5625-1.675781 9.289062-3.167969 14.109375-4.492188.757813-.214843 1.507813-.441406 2.273437-.644531 4.9375-1.296875 10.003907-2.375 15.148438-3.300781 1.035156-.1875 2.058594-.371094 3.089844-.539063 5.183594-.847656 10.445312-1.527344 15.792968-2.003906.875-.082031 1.765626-.125 2.640626-.195312 5.65625-.433594 11.359374-.707032 17.152343-.707032 5.789063 0 11.492188.285156 17.152344.707032.882813.070312 1.765625.113281 2.640625.195312 5.347656.464844 10.609375 1.144531 15.792969 2.003906 1.03125.164063 2.0625.351563 3.085937.539063 5.148438.925781 10.214844 2.003906 15.148438 3.300781.769531.203125 1.511718.433594 2.277344.644531 4.820312 1.332031 9.535156 2.816407 14.105468 4.492188.3125.113281.628906.203125.929688.316406-13.347656 14.980469-40.792969 24.875-71.132813 24.875-30.339843 0-57.792969-9.894531-71.132812-24.875zm0 0"/></svg>