<svg height="511pt" viewBox="1 -35 511.99847 511" width="511pt" xmlns="http://www.w3.org/2000/svg"><path d="m147.105469 195.066406-37.410157 10.121094c-4.617187 1.25-7.347656 6.007812-6.097656 10.625 1.046875 3.863281 4.539063 6.402344 8.359375 6.402344.746094 0 1.507813-.09375 2.269531-.304688l37.410157-10.121094c4.621093-1.246093 7.347656-6.003906 6.101562-10.621093-1.25-4.628907-6.023437-7.410157-10.632812-6.101563zm0 0"/><path d="m251.835938 270.214844-25.996094-8.664063c-4.550782-1.535156-9.445313.933594-10.960938 5.476563-1.519531 4.539062.933594 9.453125 5.476563 10.960937l25.996093 8.664063c.910157.304687 1.835938.453125 2.738282.453125 3.628906 0 7.011718-2.296875 8.222656-5.929688 1.515625-4.539062-.933594-9.453125-5.476562-10.960937zm0 0"/><path d="m416.628906 172.96875c-4.785156 0-8.667968 3.875-8.667968 8.667969v34.660156c0 4.792969 3.882812 8.664063 8.667968 8.664063 4.78125 0 8.664063-3.871094 8.664063-8.664063v-34.660156c0-4.792969-3.882813-8.667969-8.664063-8.667969zm0 0"/><path d="m205.734375 80.050781c1.710937 1.90625 4.074219 2.875 6.449219 2.875 2.0625 0 4.132812-.734375 5.789062-2.21875 3.5625-3.195312 3.847656-8.679687.648438-12.234375l-18.320313-20.390625c-3.195312-3.550781-8.671875-3.847656-12.234375-.65625-3.5625 3.195313-3.847656 8.683594-.648437 12.234375zm0 0"/><path d="m407.242188 125.71875 25.996093 8.664062c.910157.304688 1.839844.453126 2.738281.453126 3.632813 0 7.011719-2.296876 8.226563-5.929688 1.515625-4.539062-.9375-9.453125-5.476563-10.960938l-26-8.667968c-4.546874-1.539063-9.441406.9375-10.960937 5.476562-1.515625 4.550782.9375 9.464844 5.476563 10.964844zm0 0"/><path d="m316.410156 233.179688c-4.875-.355469-8.878906 3.351562-9.164062 8.128906l-.730469 12.226562c-.285156 4.785156 3.351563 8.882813 8.128906 9.167969.183594.007813.355469.015625.527344.015625 4.550781 0 8.371094-3.542969 8.640625-8.144531l.730469-12.226563c.28125-4.785156-3.359375-8.894531-8.132813-9.167968zm0 0"/><path d="m377.285156 280.230469c1.691406 1.691406 3.910156 2.539062 6.128906 2.539062s4.4375-.847656 6.125-2.539062c3.390626-3.386719 3.390626-8.863281 0-12.25l-8.664062-8.667969c-3.390625-3.386719-8.867188-3.386719-12.253906 0-3.386719 3.390625-3.386719 8.867188 0 12.253906zm0 0"/><path d="m136.792969 263.636719c-3.386719-3.386719-8.863281-3.386719-12.25 0-3.390625 3.390625-3.390625 8.867187 0 12.253906l8.664062 8.664063c1.691407 1.691406 3.910157 2.539062 6.128907 2.539062 2.214843 0 4.433593-.851562 6.125-2.539062 3.390624-3.386719 3.390624-8.863282 0-12.25zm0 0"/><path d="m383.664062 91.855469c.128907 0 .257813 0 .390626-.011719 4.78125-.207031 8.480468-4.253906 8.273437-9.039062l-.535156-12.242188c-.210938-4.792969-4.34375-8.519531-9.039063-8.277344-4.785156.207032-8.484375 4.253906-8.277344 9.039063l.539063 12.242187c.207031 4.65625 4.046875 8.289063 8.648437 8.289063zm0 0"/><path d="m116.046875 137.042969c.703125 0 1.40625-.085938 2.113281-.257813 4.644532-1.164062 7.460938-5.867187 6.308594-10.503906l-8.664062-34.660156c-1.164063-4.652344-5.886719-7.460938-10.511719-6.308594-4.644531 1.160156-7.460938 5.867188-6.308594 10.503906l8.664063 34.660156c.980468 3.941407 4.519531 6.566407 8.398437 6.566407zm0 0"/><path d="m71.800781 161.636719c-3.386719-3.390625-8.863281-3.390625-12.25 0-3.390625 3.386719-3.390625 8.863281 0 12.253906l8.664063 8.664063c1.691406 1.691406 3.910156 2.539062 6.128906 2.539062 2.214844 0 4.433594-.851562 6.125-2.539062 3.390625-3.390626 3.390625-8.867188 0-12.253907zm0 0"/><path d="m318.066406 87.519531c1.691406 1.691407 3.910156 2.539063 6.128906 2.539063 2.214844 0 4.433594-.851563 6.125-2.539063 3.390626-3.386719 3.390626-8.863281 0-12.25l-8.664062-8.667969c-3.390625-3.386718-8.867188-3.386718-12.253906 0-3.386719 3.390626-3.386719 8.867188 0 12.253907zm0 0"/><path d="m511.964844 203.136719-.015625-20.652344c0-1.125-.253907-2.199219-.703125-3.1875-.027344-1.058594-.140625-2.097656-.191406-3.15625-.070313-1.507813-.148438-3.023437-.269532-4.523437-.128906-1.558594-.308594-3.109376-.5-4.660157-.183594-1.507812-.359375-3.015625-.589844-4.507812-.234374-1.523438-.53125-3.03125-.816406-4.546875-.285156-1.507813-.570312-3.007813-.910156-4.5-.335938-1.480469-.726562-2.945313-1.109375-4.417969-.386719-1.5-.777344-2.992187-1.21875-4.472656-.433594-1.445313-.917969-2.875-1.40625-4.304688-.492187-1.484375-.984375-2.964843-1.53125-4.429687-.53125-1.402344-1.101563-2.800782-1.671875-4.183594-.597656-1.464844-1.199219-2.929688-1.847656-4.378906-.613282-1.367188-1.28125-2.710938-1.9375-4.070313-.703125-1.449219-1.394532-2.886719-2.152344-4.316406-.703125-1.324219-1.445312-2.632813-2.183594-3.941406-.804687-1.421875-1.59375-2.851563-2.449218-4.257813-.78125-1.289062-1.613282-2.554687-2.4375-3.828125-.898438-1.394531-1.785157-2.78125-2.726563-4.160156-.867187-1.257813-1.785156-2.488281-2.6875-3.726563-.988281-1.351562-1.964844-2.710937-3.007813-4.054687-.933593-1.214844-1.921874-2.390625-2.902343-3.589844-1.082031-1.332031-2.164063-2.660156-3.292969-3.96875-1.003906-1.152343-2.054688-2.285156-3.09375-3.429687-1.1875-1.308594-2.363281-2.617188-3.59375-3.890625-1.074219-1.117188-2.195312-2.203125-3.304688-3.300781-1.265624-1.257813-2.519531-2.523438-3.828124-3.753907-1.152344-1.082031-2.355469-2.140625-3.542969-3.207031-1.34375-1.203125-2.671875-2.414062-4.058594-3.601562-1.21875-1.042969-2.496094-2.054688-3.75-3.078126-1.421875-1.160156-2.828125-2.332031-4.289063-3.464843-1.292968-1-2.628906-1.96875-3.941406-2.949219-1.5-1.109375-2.984375-2.226562-4.515625-3.308594-1.363281-.960937-2.765625-1.890625-4.160156-2.828125-1.558594-1.054687-3.109375-2.121093-4.703125-3.144531-1.414062-.910156-2.878906-1.777344-4.324219-2.667969-1.640625-1.007812-3.269531-2.027343-4.941406-3-1.480469-.867187-3.007813-1.6875-4.523437-2.527343-1.691407-.945313-3.371094-1.898438-5.097657-2.816407-1.566406-.832031-3.179687-1.613281-4.773437-2.417969-1.734375-.875-3.449219-1.761718-5.21875-2.609374-1.628906-.777344-3.300782-1.515626-4.964844-2.269532-1.785156-.816406-3.550781-1.636718-5.363281-2.417968-1.714844-.734376-3.46875-1.421876-5.207031-2.132813-1.8125-.734375-3.605469-1.496094-5.453126-2.207031-1.785156-.683594-3.605468-1.320313-5.40625-1.976563-1.855468-.675781-3.691406-1.371093-5.5625-2.011719-1.875-.632812-3.78125-1.222656-5.667968-1.828124-1.863282-.597657-3.699219-1.214844-5.582032-1.777344-1.941406-.578125-3.925781-1.109375-5.890624-1.65625-1.890626-.527344-3.761719-1.082032-5.675782-1.574219-2.011718-.519531-4.058594-.980469-6.09375-1.472656-1.90625-.460938-3.785156-.9375-5.710937-1.363281-2.132813-.464844-4.296875-.875-6.445313-1.308594-1.871094-.371094-3.726562-.777344-5.617187-1.125-2.226563-.40625-4.496094-.746094-6.742188-1.109375-1.851562-.300781-3.683593-.632813-5.542969-.898438-2.332031-.339843-4.707031-.605469-7.0625-.902343-1.820312-.226563-3.625-.484376-5.453124-.683594-2.546876-.277344-5.136719-.476563-7.710938-.703125-1.664062-.144531-3.320312-.328125-4.992188-.449219-2.996093-.21875-6.03125-.355469-9.0625-.496094-1.28125-.058594-2.546874-.15625-3.832031-.207031-4.332031-.15625-8.691406-.234375-13.074219-.234375-140.953124 0-255.632812 81.636719-255.632812 181.976562 0 7.21875.667969 56.324219.667969 56.324219 0 .320313.078125.625.09375.9375l.042969 24.515625c0 99.910156 111.933593 178.1875 254.835937 178.1875 141.359375 0 256.359375-81.507812 256.359375-181.707031l-.042969-51.550781c.027344-2.078125.035157-4.074219.007813-6.046875zm-18.015625-20.644531c0 1.59375.105469 3.980468.242187 6.960937.15625 3.472656.382813 8.371094.441406 13.976563v5.121093c-.15625 16.671875-2.105468 37.320313-10.855468 46.851563-3.019532 3.285156-6.570313 4.898437-11.171875 5.089844-1.011719-.085938-2.054688-.546876-2.582031-1.058594-.898438-.867188-1.410157-2.054688-1.410157-3.285156 0-4.792969-3.882812-8.664063-8.667969-8.664063-4.78125 0-8.664062 3.871094-8.664062 8.664063v26c0 2.347656-1.984375 4.332031-4.332031 4.332031-2.347657 0-4.332031-1.988281-4.332031-4.332031 0-4.792969-3.882813-8.667969-8.667969-8.667969-4.78125 0-8.664063 3.875-8.664063 8.667969v34.660156c0 2.347656-1.984375 4.332031-4.332031 4.332031s-4.332031-1.984375-4.332031-4.332031v-8.667969c0-4.789063-3.882813-8.664063-8.667969-8.664063-4.78125 0-8.664063 3.875-8.664063 8.664063 0 2.351563-1.984374 4.332031-4.332031 4.332031-2.347656 0-4.332031-1.984375-4.332031-4.332031 0-4.789063-3.882812-8.664063-8.667969-8.664063-4.78125 0-8.664062 3.875-8.664062 8.664063v43.328125c0 2.347656-1.984375 4.332031-4.332031 4.332031-2.347657 0-4.332032-1.984375-4.332032-4.332031v-30.328125c0-4.792969-3.882812-8.667969-8.664062-8.667969-4.785156 0-8.667969 3.875-8.667969 8.667969 0 4.78125-3.890625 8.664063-8.664063 8.664063-4.777343 0-8.667968-3.882813-8.667968-8.664063 0-4.792969-3.882813-8.667969-8.664063-8.667969-4.785156 0-8.667969 3.875-8.667969 8.667969v30.328125c0 2.347656-1.984374 4.332031-4.332031 4.332031-2.34375 0-4.332031-1.984375-4.332031-4.332031v-12.996094c0-4.792968-3.878906-8.667968-8.664062-8.667968-4.78125 0-8.664063 3.875-8.664063 8.667968 0 4.78125-3.890625 8.664063-8.667969 8.664063-4.773437 0-8.664062-3.882813-8.664062-8.664063 0-4.792968-3.882813-8.667968-8.667969-8.667968-4.78125 0-8.664063 3.875-8.664063 8.667968v34.660156c0 4.78125-3.890624 8.664063-8.667968 8.664063-4.773438 0-8.664063-3.882813-8.664063-8.664063v-30.328124c0-4.792969-3.882812-8.667969-8.664062-8.667969-4.785157 0-8.667969 3.875-8.667969 8.667969 0 2.347656-1.984375 4.332031-4.332031 4.332031-2.347657 0-4.332031-1.984375-4.332031-4.332031 0-4.792969-3.882813-8.667969-8.664063-8.667969-4.785156 0-8.667969 3.875-8.667969 8.667969v12.996093c0 4.785157-3.890625 8.667969-8.664062 8.667969-4.777344 0-8.667969-3.882812-8.667969-8.667969v-30.328125c0-4.792968-3.878906-8.667968-8.664063-8.667968-4.78125 0-8.664062 3.875-8.664062 8.667968 0 2.347656-1.988281 4.332032-4.332031 4.332032-2.347657 0-4.332031-1.984376-4.332031-4.332032 0-4.792968-3.882813-8.667968-8.667969-8.667968-4.78125 0-8.664063 3.875-8.664063 8.667968v17.332032c0 2.347656-1.984375 4.332031-4.332031 4.332031s-4.332031-1.984375-4.332031-4.332031v-43.328126c0-4.792968-3.882813-8.664062-8.667969-8.664062-4.78125 0-8.664063 3.871094-8.664063 8.664062 0 2.347657-1.984374 4.332032-4.332031 4.332032-2.347656 0-4.332031-1.984375-4.332031-4.332032 0-4.792968-3.882812-8.664062-8.667969-8.664062-4.78125 0-8.664062 3.871094-8.664062 8.664062v17.332032c0 2.347656-1.984375 4.332031-4.332031 4.332031-2.347657 0-4.332032-1.984375-4.332032-4.332031v-34.660156c0-4.792969-3.882812-8.667969-8.664062-8.667969-4.785156 0-8.667969 3.875-8.667969 8.667969 0 2.347656-1.984375 4.332031-4.332031 4.332031s-4.332032-1.988281-4.332032-4.332031v-41.777344c0-2.167969-.953124-4.410156-2.417968-6.007813-2.296875-2.496093-5.847656-3.421875-9.082032-2.375-3.230468 1.058594-5.542968 3.910157-5.917968 7.296875-.234375 2.175782-2.105469 3.875-4.246094 3.875-2.191406 0-3.992188-1.742187-4.234375-3.980468-.042969-24.046876-.097656-56.679688-.097656-56.679688 0-90.789062 106.601562-164.644531 237.632812-164.644531 131.40625-.007813 238.304688 73.859375 238.304688 164.636719zm-238.300781 242.636718c-133.179688 0-237.503907-70.652344-237.503907-160.859375 0 0 0-1.609375-.007812-4.21875 1.359375.269531 2.761719.425781 4.203125.425781 1.480468 0 2.925781-.15625 4.332031-.441406v22.105469c0 11.949219 9.722656 21.660156 21.664063 21.660156 1.480468 0 2.925781-.15625 4.332031-.429687v13.429687c0 11.949219 9.722656 21.664063 21.660156 21.664063 10.644531 0 19.515625-7.710938 21.328125-17.839844 2.902344.628906 6.089844.648438 9.003906.078125v22.097656c0 11.949219 9.722656 21.660157 21.664063 21.660157 10.640625 0 19.511719-7.710938 21.324219-17.839844 2.894531.632812 6.089843.65625 9.003906.078125v9.097656c0 14.332031 11.664062 25.996094 25.996094 25.996094 11.570312 0 21.394531-7.589844 24.757812-18.058594 3.148438.851563 6.691406.9375 9.90625.296875v9.097656c0 14.332032 11.664062 25.996094 25.996094 25.996094 14.335937 0 25.996094-11.664062 25.996094-25.996094v-10.148437c6.335937 2.234375 14.003906 1.792969 19.992187-1.117188 3.683594 6.699219 10.824219 11.265625 19.003906 11.265625 11.941407 0 21.664063-9.714844 21.664063-21.664062v-5.8125c5.425781 1.914062 11.90625 1.914062 17.332031 0v5.8125c0 11.949218 9.722656 21.664062 21.664063 21.664062 11.941406 0 21.664062-9.714844 21.664062-21.664062v-22.097656c3.949219.789062 8.328125.433593 12.027344-.980469 3.847656 6.050781 10.613281 10.082031 18.300781 10.082031 11.941406 0 21.664063-9.714844 21.664063-21.664062v-13.433594c1.402343.277344 2.847656.433594 4.332031.433594 11.941406 0 21.664062-9.714844 21.664062-21.664063v-4.6875c1.515625.292969 3.066407.371094 4.675781.347656 8.242188-.320312 15.269532-3.355469 21.085938-8.726562-6.328125 86.789062-110.988281 156.054687-238.726562 156.054687zm0 0"/><path d="m165.328125 173.828125c0 6.03125 1.5 12.097656 4.382813 18.058594.097656.242187.078124.503906.199218.738281 12.496094 25.042969 48.960938 41.863281 90.746094 41.863281s78.25-16.820312 90.746094-41.863281c.113281-.234375.105468-.496094.199218-.738281 2.886719-5.960938 4.378907-12.027344 4.378907-18.058594 0-34.011719-41.875-60.65625-95.320313-60.65625-53.449218 0-95.332031 26.644531-95.332031 60.65625zm25.484375 18.90625c.210938-.078125.425781-.136719.632812-.214844 4.609376-1.707031 9.375-3.195312 14.246094-4.539062.695313-.191407 1.371094-.410157 2.0625-.589844 4.871094-1.285156 9.871094-2.347656 14.957032-3.257813.996093-.183593 1.984374-.355468 2.988281-.519531 5.097656-.832031 10.269531-1.507812 15.53125-1.96875.855469-.078125 1.730469-.121093 2.589843-.191406 5.546876-.421875 11.152344-.691406 16.835938-.691406 5.675781 0 11.285156.277343 16.839844.691406.867187.070313 1.730468.113281 2.589844.191406 5.261718.460938 10.433593 1.136719 15.527343 1.96875 1 .164063 1.992188.335938 2.992188.519531 5.078125.910157 10.078125 1.984376 14.945312 3.257813.703125.183594 1.378907.398437 2.070313.589844 4.871094 1.34375 9.640625 2.839843 14.238281 4.539062.210937.078125.425781.136719.632813.214844-13.101563 14.699219-40.050782 24.421875-69.835938 24.421875-29.800781 0-56.75-9.714844-69.84375-24.421875zm69.835938-62.234375c42.269531 0 77.992187 19.84375 77.992187 43.328125 0 1.117187-.085937 2.226563-.269531 3.351563-.070313-.023438-.148438-.042969-.214844-.066407-5.304688-2.039062-10.808594-3.816406-16.421875-5.410156-.832031-.234375-1.65625-.484375-2.488281-.710937-5.441406-1.464844-11.003906-2.710938-16.679688-3.75-1.015625-.183594-2.027344-.355469-3.042968-.53125-5.726563-.96875-11.542969-1.75-17.453126-2.285157-.832031-.078125-1.671874-.113281-2.511718-.183593-6.230469-.492188-12.523438-.804688-18.898438-.804688-6.371094 0-12.660156.3125-18.890625.804688-.839843.070312-1.683593.105468-2.511719.183593-5.914062.535157-11.71875 1.316407-17.445312 2.285157-1.023438.175781-2.035156.347656-3.058594.539062-5.667968 1.039062-11.230468 2.285156-16.664062 3.75-.851563.226562-1.679688.488281-2.523438.722656-5.605468 1.585938-11.089844 3.351563-16.386718 5.390625-.078126.023438-.15625.042969-.234376.078125-.179687-1.128906-.265624-2.238281-.265624-3.355468-.019532-23.492188 35.691406-43.335938 77.96875-43.335938zm0 0"/></svg>