<svg height="512pt" viewBox="0 -35 512 512" width="512pt" xmlns="http://www.w3.org/2000/svg"><path d="m232.164062 311.824219c-15.007812-.996094-29.890624-3.019531-44.355468-5.839844.042968-.753906.210937-1.484375.210937-2.246094 0-9.746093-4.425781-19.734375-11.835937-26.730469-7.003906-6.59375-15.847656-10.082031-24.828125-9.414062-8.9375.410156-21.972657-5.589844-24.230469-11.253906-7.835938-19.675782-25.589844-29.480469-44.171875-24.351563-7.367187 2.019531-14.285156 6.941407-19.289063 13.398438-9.035156-8.765625-17.164062-18.3125-24.101562-28.558594-2.6875-3.96875-8.066406-5.007813-12.050781-2.328125-3.976563 2.691406-5.007813 8.089844-2.328125 12.054688 8.84375 13.042968 19.351562 25.105468 31.214844 35.882812-.703126 5.113281-.277344 10.195312 1.597656 14.925781 7.167968 17.992188 19.734375 33.863281 35.648437 45.125v26.078125c0 16.941406 13.789063 30.730469 30.738281 30.730469 16.945313 0 30.734376-13.789063 30.734376-30.730469v-8.9375c11.8125-1.472656 21.679687-7.863281 27.441406-16.945312 15.777344 3.171875 32.0625 5.371094 48.449218 6.460937.199219.011719.390626.019531.589844.019531 4.53125 0 8.339844-3.515624 8.652344-8.105468.3125-4.78125-3.308594-8.914063-8.085938-9.234375zm-80.792968 10.726562c-1.632813.085938-3.230469.097657-4.851563.0625-2.214843.085938-4.546875.882813-6.1875 2.515625-1.648437 1.632813-2.570312 3.84375-2.570312 6.160156v17.28125c0 7.375-5.996094 13.371094-13.382813 13.371094-7.382812 0-13.382812-5.996094-13.382812-13.371094v-30.695312c0-2.96875-1.507813-5.71875-4.007813-7.316406-14.769531-9.425782-26.441406-23.488282-32.863281-39.613282-1.71875-4.320312-.40625-8.582031.988281-11.402343 2.597657-5.207031 7.472657-9.453125 12.445313-10.824219 1.796875-.492188 3.496094-.71875 5.109375-.71875 9.070312 0 15.316406 7.183594 18.328125 14.75 5.917968 14.890625 28.132812 22.964844 41.367187 22.164062 4.175781-.285156 8.425781 1.433594 11.914063 4.722657 4.003906 3.773437 6.390625 9.042969 6.390625 14.101562 0 11.601563-9.707031 18.25-19.296875 18.8125zm0 0"/><path d="m310.84375 305.109375c-4.710938.867187-7.835938 5.378906-6.976562 10.09375.765624 4.183594 4.417968 7.113281 8.53125 7.113281.519531 0 1.042968-.042968 1.570312-.144531 46.027344-8.429687 111.023438-29.488281 159.285156-82 3.246094-3.53125 3.011719-9.015625-.523437-12.261719-3.519531-3.238281-9.003907-3.027344-12.261719.519532-44.992188 48.980468-106.199219 68.730468-149.625 76.679687zm0 0"/><path d="m272.75 233.757812c1.578125-.128906 3.15625-.269531 4.71875-.441406 1.578125-.175781 3.132812-.375 4.679688-.597656.917968-.132812 1.820312-.289062 2.730468-.433594 41.238282-6.742187 70.917969-30.097656 70.917969-58.726562 0-34.0625-41.933594-60.746094-95.457031-60.746094-53.527344 0-95.457032 26.683594-95.457032 60.746094 0 28.628906 29.675782 51.984375 70.914063 58.726562.910156.144532 1.8125.300782 2.734375.433594 1.542969.222656 3.105469.414062 4.675781.597656 1.5625.171875 3.132813.3125 4.722657.441406 1.1875.097657 2.367187.199219 3.574218.269532 2.914063.171875 5.855469.277344 8.835938.277344 2.976562 0 5.917968-.105469 8.832031-.277344 1.207031-.070313 2.386719-.171875 3.578125-.269532zm51.144531-35.40625c-1.441406 1.136719-2.992187 2.214844-4.609375 3.265626-.972656.632812-1.976562 1.238281-3.007812 1.839843-1.042969.605469-2.144532 1.171875-3.246094 1.742188-2.117188 1.085937-4.332031 2.109375-6.640625 3.074219-1.039063.433593-2.0625.882812-3.148437 1.28125-1.433594.539062-2.925782 1.027343-4.417969 1.511718-1.257813.40625-2.535157.789063-3.828125 1.152344-1.378906.390625-2.757813.792969-4.191406 1.136719-2.582032.625-5.222657 1.191406-7.929688 1.648437-1.007812.175782-2.046875.296875-3.0625.453125-2.207031.320313-4.445312.605469-6.710938.824219-.996093.097656-2.003906.191406-3.019531.261719-3.210937.242187-6.445312.40625-9.746093.40625-3.296876 0-6.535157-.164063-9.746094-.398438-1.015625-.070312-2.011719-.164062-3.019532-.261719-2.265624-.214843-4.496093-.492187-6.707031-.824218-1.027343-.148438-2.058593-.277344-3.066406-.453125-2.703125-.46875-5.34375-1.023438-7.929687-1.648438-1.421876-.34375-2.804688-.746093-4.183594-1.136719-1.292969-.363281-2.578125-.746093-3.828125-1.152343-1.492188-.484375-2.984375-.972657-4.414063-1.511719-1.085937-.398438-2.109375-.847656-3.152344-1.28125-2.308593-.964844-4.53125-1.988281-6.636718-3.074219-1.101563-.574219-2.195313-1.136719-3.246094-1.742187-1.03125-.601563-2.039062-1.207032-3.011719-1.839844-1.621093-1.050781-3.175781-2.136719-4.617187-3.273438-.304688-.234374-.652344-.460937-.945313-.695312-1.882812-1.550781-3.585937-3.183594-5.113281-4.867188-.09375-.105468-.179688-.210937-.277344-.3125 20.96875-7.863281 44.917969-11.976562 69.894532-11.976562 24.976562 0 48.925781 4.117188 69.910156 11.960938-.097656.101562-.183594.207031-.28125.3125-1.535156 1.691406-3.226563 3.320312-5.109375 4.867187-.300781.253906-.648438.476563-.960938.710937zm-63.554687-68.179687c42.328125 0 78.101562 19.871094 78.101562 43.386719 0 1.128906-.15625 2.25-.3125 3.359375-23.371094-9.015625-50.035156-13.773438-77.789062-13.773438s-54.417969 4.757813-77.789063 13.773438c-.15625-1.109375-.3125-2.230469-.3125-3.359375 0-23.515625 35.769531-43.386719 78.101563-43.386719zm0 0"/><path d="m256 0c-141.164062 0-256 81.753906-256 182.238281v78.101563c0 100.480468 114.835938 182.238281 256 182.238281s256-81.757813 256-182.273437v-78.066407c0-100.484375-114.835938-182.238281-256-182.238281zm238.644531 260.339844c0 90.917968-107.050781 164.882812-238.644531 164.882812s-238.644531-73.964844-238.644531-164.917968v-78.066407c0-90.917969 107.050781-164.882812 238.644531-164.882812s238.644531 73.964843 238.644531 164.882812zm0 0"/><path d="m146.433594 295.730469c-18.171875 2.851562-28.222656-9.226563-28.699219-9.824219-2.953125-3.742188-8.355469-4.398438-12.132813-1.492188-3.792968 2.941407-4.484374 8.390626-1.542968 12.171876.589844.765624 13.414062 16.949218 36.742187 16.949218 2.65625 0 5.441407-.207031 8.355469-.675781 4.730469-.757813 7.957031-5.199219 7.210938-9.9375-.753907-4.71875-5.152344-8.019531-9.933594-7.191406zm0 0"/></svg>