<svg height="512pt" viewBox="0 -32 512.00007 512" width="512pt" xmlns="http://www.w3.org/2000/svg"><path d="m511.121094 360.09375c-2.078125-5.742188-7.378906-9.464844-13.492188-9.464844h-32.570312c1.921875-4 3.078125-8.429687 3.078125-13.15625 0-8.597656-3.570313-16.351562-9.28125-21.929687 5.710937-5.582031 9.28125-13.335938 9.28125-21.933594 0-8.59375-3.570313-16.347656-9.28125-21.929687 5.710937-5.578126 9.28125-13.332032 9.28125-21.929688s-3.570313-16.351562-9.28125-21.929688c5.710937-5.582031 9.28125-13.335937 9.28125-21.933593 0-8.59375-3.570313-16.347657-9.28125-21.929688 5.710937-5.578125 9.28125-13.332031 9.28125-21.929687 0-8.332032-3.359375-15.878906-8.773438-21.421875v-44.371094h-168.367187c11.167968-12.695313 12.871094-27.992187 5.167968-41.96875 8.175782-4.324219 18.535157-3.15625 25.402344 3.710937 1.714844 1.710938 3.957032 2.570313 6.203125 2.570313 2.246094 0 4.492188-.859375 6.203125-2.570313 3.429688-3.429687 3.429688-8.972656 0-12.402343-9.0625-9.0625-21.464844-12.613281-33.265625-10.929688.160157-1.457031.433594-2.886719.433594-4.367187 0-10.457032-4.082031-20.300782-11.492187-27.703125-3.429688-3.433594-8.976563-3.433594-12.40625 0-3.425782 3.429687-3.429688 8.980469 0 12.402343 4.097656 4.097657 6.351562 9.527344 6.351562 15.300782 0 2.742187-.542969 5.410156-1.515625 7.894531-16.132813-12.117187-35.035156-10.984375-49.765625 3.746094-12.957031 12.945312-17.28125 38.542969-13.386719 54.308593h-163.085937v44.371094c-5.414063 5.535156-8.773438 13.085938-8.773438 21.421875 0 8.59375 3.570313 16.347657 9.28125 21.929688-5.710937 5.578125-9.28125 13.332031-9.28125 21.929687s3.570313 16.351563 9.28125 21.929688c-5.710937 5.582031-9.28125 13.335937-9.28125 21.933594 0 8.59375 3.570313 16.347656 9.28125 21.929687-5.710937 5.578125-9.28125 13.332031-9.28125 21.929687 0 8.597657 3.570313 16.351563 9.28125 21.929688-5.710937 5.582031-9.28125 13.335938-9.28125 21.933594 0 4.726562 1.164063 9.15625 3.078125 13.15625h-35.78125c-5.828125 0-11.027343 3.472656-13.265625 8.851562-2.132812 5.160156-1.1054685 11.007813 2.605469 15.125l32.414063 42.738282.816406.921874c2.71875 2.699219 6.316406 4.183594 10.121094 4.183594h17.546874v24.675782h377.210938v-24.675782h16.578125c3.332031 0 6.585937-1.175781 9.167969-3.316406l39.804687-43.605469c4.273438-3.933593 5.757813-9.90625 3.757813-15.425781zm-266.40625-305.773438c5.042968-5.042968 9.929687-6.964843 14.4375-6.964843 6.394531 0 12.019531 3.859375 16.28125 8.128906.210937.214844.394531.449219.597656.667969.367188.632812.675781 1.289062 1.21875 1.835937.296875.296875.675781.417969 1 .664063 5.746094 7.167968 8.914062 16.992187-1.648438 27.554687-10.625 10.632813-35.800781 11.730469-39.898437 8.324219-3.359375-4.703125-2.289063-29.914062 8.011719-40.210938zm205.878906 239.289063c0 7.257813-5.90625 13.160156-13.160156 13.160156h-214.921875c0-2.527343-.296875-4.984375-.808594-7.351562-.164063-.789063-.480469-1.5-.699219-2.273438-.449218-1.550781-.894531-3.09375-1.542968-4.550781-.378907-.84375-.871094-1.605469-1.308594-2.414062-.695313-1.269532-1.378906-2.542969-2.21875-3.71875-.5625-.78125-1.203125-1.472657-1.824219-2.210938-.894531-1.0625-1.800781-2.105469-2.816406-3.054688-.246094-.226562-.429688-.515624-.6875-.742187h226.828125c7.253906 0 13.160156 5.894531 13.160156 13.15625zm-258.3125 29.921875c-1.558594.464844-3.183594.773438-4.867188.773438-1.683593 0-3.308593-.308594-4.867187-.773438-.273437-.078125-.542969-.15625-.808594-.253906-4.90625-1.71875-8.949219-5.558594-10.761719-10.683594l-.011718-.027344c-.359375-1.007812-.621094-1.980468-.796875-2.917968-.160157-.949219-.289063-1.894532-.289063-2.886719 0-9.675781 7.867188-17.546875 17.542969-17.546875 9.679687 0 17.546875 7.871094 17.546875 17.546875 0 .992187-.132812 1.9375-.289062 2.886719-.183594.9375-.449219 1.902343-.796876 2.917968l-.011718.027344c-1.8125 5.125-5.867188 8.964844-10.761719 10.683594-.285156.097656-.554687.1875-.828125.253906zm258.3125-117.644531c0 7.253906-5.90625 13.160156-13.160156 13.160156h-214.921875v-13.492187c5.167969 3 11.160156 4.707031 17.546875 4.707031 2.09375 0 4.140625-.253907 6.148437-.621094.613281-.105469 1.210938-.226563 1.808594-.367187 1.605469-.386719 3.175781-.863282 4.699219-1.464844.871094-.335938 1.6875-.738282 2.519531-1.140625 1.0625-.515625 2.097656-1.0625 3.097656-1.683594.859375-.527344 1.683594-1.082031 2.488281-1.6875.660157-.488281 1.28125-1.035156 1.90625-1.570313 1.515626-1.296874 2.902344-2.707031 4.183594-4.242187.351563-.433594.71875-.835937 1.054688-1.28125.769531-1.027344 1.480468-2.089844 2.136718-3.195313.0625-.105468.140626-.203124.203126-.308593h167.132812c7.25.03125 13.15625 5.925781 13.15625 13.1875zm-175.449219-30.703125v-26.316406h162.289063c7.257812 0 13.160156 5.902343 13.160156 13.15625 0 7.257812-5.90625 13.160156-13.160156 13.160156zm-201.761719-61.40625h172.964844.375 195.097656v17.546875h-184.21875v43.859375c0 .984375-.132812 1.933594-.289062 2.878906-.183594.929688-.449219 1.894531-.808594 2.894531l-.015625.042969c-1.84375 5.140625-5.90625 9.003906-10.808593 10.722656-.238282.078125-.480469.15625-.726563.226563-1.570313.472656-3.203125.78125-4.894531.78125-1.695313 0-3.328125-.308594-4.894532-.78125-.246093-.070313-.492187-.140625-.730468-.226563-4.910156-1.71875-8.972656-5.582031-10.804688-10.722656l-.34375-.964844c-.445312-1.550781-.773437-3.15625-.773437-4.851562h-17.542969v43.863281c0 .984375-.128906 1.929687-.289062 2.878906-.183594.929688-.445313 1.894531-.804688 2.894531l-.019531.042969c-1.839844 5.140625-5.902344 9-10.804688 10.71875-.238281.078125-.484375.160157-.730469.230469-1.570312.472656-3.199218.777344-4.894531.777344-1.691406 0-3.324219-.304688-4.894531-.777344-.246094-.070312-.492188-.140625-.726562-.230469-4.914063-1.71875-8.976563-5.578125-10.808594-10.71875l-.015625-.042969c-.363281-1-.625-1.964843-.808594-2.894531-.160156-.941406-.289063-1.886719-.289063-2.878906v-70.179687h-17.550781c0 9.675781-7.867187 17.542968-17.542969 17.542968-9.675781 0-17.546874-7.867187-17.546874-17.542968v-17.546876h-43.859376zm-8.773437 48.25c0-7.257813 5.90625-13.160156 13.160156-13.160156h21.929688c0 2.527343.296875 4.984374.808593 7.351562.164063.789062.480469 1.5.699219 2.273438.449219 1.550781.894531 3.09375 1.546875 4.550781.375.84375.867188 1.605469 1.304688 2.414062.695312 1.269531 1.378906 2.542969 2.21875 3.71875.5625.78125 1.203125 1.472657 1.828125 2.210938.894531 1.0625 1.796875 2.105469 2.8125 3.054687.246093.226563.429687.515625.6875.742188h-33.835938c-7.265625 0-13.160156-5.902344-13.160156-13.15625zm0 43.859375c0-7.253907 5.90625-13.15625 13.160156-13.15625h74.5625v26.316406h-74.5625c-7.265625 0-13.160156-5.90625-13.160156-13.160156zm0 43.863281c0-7.253906 5.90625-13.160156 13.160156-13.160156h79.40625c.0625.109375.140625.203125.203125.308594.65625 1.105468 1.367188 2.167968 2.136719 3.195312.335937.445312.703125.847656 1.054687 1.28125 1.28125 1.535156 2.664063 2.945312 4.183594 4.242188.621094.539062 1.246094 1.082031 1.902344 1.570312.808594.597656 1.632812 1.152344 2.492188 1.6875 1 .621094 2.035156 1.164062 3.097656 1.683594.832031.402344 1.648437.796875 2.515625 1.140625 1.527343.605469 3.097656 1.078125 4.703125 1.464843.597656.140626 1.191406.261719 1.808594.367188 2.015624.367188 4.058593.621094 6.148437.621094s4.140625-.253906 6.148437-.621094c.613282-.105469 1.210938-.226562 1.808594-.367188 1.605469-.386718 3.175782-.859374 4.703125-1.464843.867188-.335938 1.683594-.738281 2.515625-1.140625 1.0625-.515625 2.097656-1.0625 3.097656-1.683594.859376-.527344 1.683594-1.082031 2.492188-1.6875.65625-.488281 1.28125-1.035156 1.902344-1.570312 1.515625-1.296876 2.902344-2.707032 4.183594-4.242188.351562-.433594.71875-.835938 1.054687-1.28125.769531-1.027344 1.480469-2.089844 2.136719-3.195312.0625-.105469.140625-.199219.203125-.308594h219.765625c7.253906 0 13.15625 5.90625 13.15625 13.160156s-5.902344 13.15625-13.15625 13.15625h-359.664063c-7.265625 0-13.160156-5.902344-13.160156-13.15625zm0 43.859375c0-7.253906 5.90625-13.15625 13.160156-13.15625h86.46875c-.253906.226563-.4375.515625-.683593.746094-1.019532.945312-1.921876 1.988281-2.816407 3.050781-.625.738281-1.261719 1.433594-1.824219 2.214844-.84375 1.171875-1.527343 2.4375-2.21875 3.71875-.441406.804687-.933593 1.558594-1.308593 2.410156-.648438 1.457031-1.097657 3-1.542969 4.554688-.21875.761718-.535156 1.480468-.703125 2.269531-.507813 2.378906-.808594 4.824219-.808594 7.351562h-74.5625c-7.265625 0-13.160156-5.90625-13.160156-13.160156zm0 43.863281c0-7.253906 5.90625-13.160156 13.160156-13.160156h79.378907c.105468.1875.238281.335938.34375.519531.585937.964844 1.199218 1.894531 1.867187 2.796875.535156.730469 1.121094 1.394532 1.710937 2.070313.984376 1.132812 2.007813 2.1875 3.132813 3.1875.839844.753906 1.699219 1.480469 2.605469 2.148437.710937.515625 1.429687 1 2.175781 1.464844 1.15625.726562 2.367187 1.367188 3.605469 1.957031.640625.296875 1.253906.605469 1.910156.867188 1.613281.648437 3.289062 1.148437 5 1.550781.582031.132812 1.152344.257812 1.746094.363281 2.027344.367188 4.082031.621094 6.175781.621094 2.097656 0 4.160156-.253906 6.175781-.621094.589844-.105469 1.167969-.21875 1.746094-.363281 1.710938-.402344 3.386719-.902344 5-1.550781.660156-.261719 1.28125-.570313 1.914062-.867188 1.234376-.589843 2.445313-1.238281 3.605469-1.957031.746094-.464844 1.464844-.949219 2.175781-1.464844.910157-.667968 1.761719-1.394531 2.605469-2.148437 1.113281-1 2.148438-2.054688 3.132813-3.1875.585937-.675781 1.175781-1.351563 1.710937-2.070313.675781-.902344 1.289063-1.824218 1.867188-2.796875.105469-.175781.238281-.335937.34375-.519531h219.738281c7.253906 0 13.15625 5.90625 13.15625 13.160156s-5.902344 13.15625-13.15625 13.15625h-359.667969c-7.265625 0-13.160156-5.902344-13.160156-13.15625zm359.664063 92.109375h-342.121094v-7.132812h342.121094zm32.625-24.6875h-408.191407l-27.855469-36.726562h469.480469zm0 0"/></svg>