<svg height="512pt" viewBox="0 -22 512.00156 512" width="512pt" xmlns="http://www.w3.org/2000/svg"><path d="m503.171875 423.726562h-17.65625v-97.101562c0-14.601562-11.878906-26.484375-26.484375-26.484375h-8.824219v-97.101563c0-14.601562-11.882812-26.484374-26.484375-26.484374h-8.828125v-97.105469c0-14.597657-11.882812-26.480469-26.484375-26.480469h-264.824218c-14.601563 0-26.484376 11.878906-26.484376 26.480469v97.105469h-8.828124c-14.597657 0-26.480469 11.882812-26.480469 26.484374v97.101563h-8.828125c-14.601563 0-26.484375 11.882813-26.484375 26.484375v97.101562h-17.652344c-4.882813 0-8.828125 3.949219-8.828125 8.828126 0 4.882812 3.945312 8.828124 8.828125 8.828124h494.34375c4.882813 0 8.828125-3.945312 8.828125-8.828124 0-4.882813-3.945312-8.828126-8.828125-8.828126zm-339.859375-334.484374c9.78125 15.375 26.886719 25.519531 46.34375 25.519531 19.453125 0 36.5625-10.144531 46.34375-25.519531 9.78125 15.375 26.886719 25.519531 46.34375 25.519531s36.5625-10.144531 46.34375-25.519531c9.78125 15.375 26.886719 25.519531 46.34375 25.519531.714844 0 1.472656-.113281 2.207031-.148438v17.945313c-.734375-.035156-1.492187-.148438-2.207031-.148438-19.457031 0-36.5625 10.140625-46.34375 25.519532-9.78125-15.378907-26.886719-25.519532-46.34375-25.519532s-36.566406 10.140625-46.34375 25.519532c-9.78125-15.378907-26.890625-25.519532-46.34375-25.519532-19.457031 0-36.566406 10.140625-46.34375 25.519532-9.78125-15.378907-26.890625-25.519532-46.347656-25.519532-.714844 0-1.472656.113282-2.203125.148438v-17.945313c.730469.035157 1.492187.148438 2.203125.148438 19.457031 0 36.566406-10.144531 46.347656-25.519531zm-48.554688 78.484374v-17.566406c.75-.0625 1.484376-.085937 2.207032-.085937 16.757812 0 31.003906 11.070312 35.707031 26.484375h-29.085937c-4.871094-.003906-8.828126-3.957032-8.828126-8.832032zm94.898438-17.65625c16.753906 0 31 11.070313 35.707031 26.484376h-71.417969c4.707032-15.414063 18.957032-26.484376 35.710938-26.484376zm92.6875 0c16.753906 0 31.003906 11.070313 35.710938 26.484376h-71.417969c4.707031-15.414063 18.953125-26.484376 35.707031-26.484376zm92.691406 0c.722656 0 1.457032.027344 2.207032.089844v17.566406c0 4.871094-3.957032 8.828126-8.828126 8.828126h-29.085937c4.703125-15.414063 18.949219-26.484376 35.707031-26.484376zm-6.621094-79.445312c4.871094 0 8.828126 3.953125 8.828126 8.828125v17.566406c-.75.0625-1.484376.085938-2.207032.085938-16.753906 0-31.011718-11.070313-35.707031-26.484375h29.085937zm-50.363281 0c-4.695312 15.414062-18.941406 26.484375-35.707031 26.484375s-31.011719-11.070313-35.707031-26.484375zm-92.6875 0c-4.695312 15.414062-18.941406 26.484375-35.707031 26.484375s-31.011719-11.070313-35.710938-26.484375zm-130.605469 8.824219c0-4.871094 3.957032-8.828125 8.828126-8.828125h29.085937c-4.695313 15.414062-18.941406 26.484375-35.707031 26.484375-.722656 0-1.457032-.027344-2.207032-.085938zm-35.308593 123.589843c0-4.875 3.953125-8.828124 8.828125-8.828124h335.449218c4.875 0 8.828126 3.953124 8.828126 8.828124v97.101563h-353.105469zm-35.3125 123.585938c0-4.875 3.957031-8.828125 8.828125-8.828125h406.070312c4.871094 0 8.828125 3.953125 8.828125 8.828125v15.445312c0 25.554688-20.789062 46.34375-46.34375 46.34375-25.554687 0-46.34375-20.789062-46.34375-46.34375 0-4.882812-3.949219-8.828124-8.828125-8.828124-4.882812 0-8.828125 3.945312-8.828125 8.828124 0 25.554688-20.789062 46.34375-46.34375 46.34375-25.558593 0-46.34375-20.789062-46.34375-46.34375 0-4.882812-3.949219-8.828124-8.828125-8.828124-4.882812 0-8.828125 3.945312-8.828125 8.828124 0 25.554688-20.789062 46.34375-46.34375 46.34375-25.558593 0-46.347656-20.789062-46.347656-46.34375 0-4.882812-3.945313-8.828124-8.824219-8.828124-4.882812 0-8.828125 3.945312-8.828125 8.828124 0 25.554688-20.789062 46.34375-46.34375 46.34375-25.558593 0-46.347656-20.789062-46.347656-46.34375v-15.445312zm0 97.101562v-37.640624c11.671875 12.28125 28.109375 19.984374 46.34375 19.984374 23.519531 0 44.050781-12.78125 55.171875-31.714843 11.125 18.941406 31.65625 31.714843 55.171875 31.714843 23.519531 0 44.050781-12.78125 55.171875-31.714843 11.125 18.941406 31.65625 31.714843 55.171875 31.714843s44.050781-12.78125 55.171875-31.714843c11.125 18.941406 31.65625 31.714843 55.171875 31.714843 18.242187 0 34.675781-7.703124 46.347656-19.984374v37.640624zm0 0"/><path d="m467.863281 450.210938h-423.726562c-4.882813 0-8.828125 3.945312-8.828125 8.828124 0 4.882813 3.945312 8.828126 8.828125 8.828126h423.722656c4.882813 0 8.828125-3.945313 8.828125-8.828126.003906-4.882812-3.941406-8.828124-8.824219-8.828124zm0 0"/><path d="m97.101562 211.863281c-4.878906 0-8.828124 3.949219-8.828124 8.828125v52.96875c0 4.878906 3.949218 8.824219 8.828124 8.824219 4.882813 0 8.828126-3.945313 8.828126-8.824219v-52.96875c0-4.878906-3.945313-8.828125-8.828126-8.828125zm0 0"/><path d="m132.414062 211.863281c-4.882812 0-8.828124 3.949219-8.828124 8.828125v52.96875c0 4.878906 3.945312 8.824219 8.828124 8.824219 4.882813 0 8.828126-3.945313 8.828126-8.824219v-52.96875c0-4.878906-3.949219-8.828125-8.828126-8.828125zm0 0"/><path d="m167.722656 211.863281c-4.878906 0-8.828125 3.949219-8.828125 8.828125v52.96875c0 4.878906 3.949219 8.824219 8.828125 8.824219 4.882813 0 8.828125-3.945313 8.828125-8.824219v-52.96875c0-4.878906-3.945312-8.828125-8.828125-8.828125zm0 0"/><path d="m203.035156 211.863281c-4.882812 0-8.828125 3.949219-8.828125 8.828125v52.96875c0 4.878906 3.945313 8.824219 8.828125 8.824219 4.878906 0 8.828125-3.945313 8.828125-8.824219v-52.96875c0-4.878906-3.949219-8.828125-8.828125-8.828125zm0 0"/><path d="m238.34375 211.863281c-4.878906 0-8.828125 3.949219-8.828125 8.828125v52.96875c0 4.878906 3.949219 8.824219 8.828125 8.824219 4.882812 0 8.828125-3.945313 8.828125-8.824219v-52.96875c0-4.878906-3.945313-8.828125-8.828125-8.828125zm0 0"/><path d="m273.65625 211.863281c-4.882812 0-8.828125 3.949219-8.828125 8.828125v52.96875c0 4.878906 3.945313 8.824219 8.828125 8.824219 4.878906 0 8.828125-3.945313 8.828125-8.824219v-52.96875c0-4.878906-3.949219-8.828125-8.828125-8.828125zm0 0"/><path d="m308.964844 211.863281c-4.878906 0-8.828125 3.949219-8.828125 8.828125v52.96875c0 4.878906 3.949219 8.824219 8.828125 8.824219 4.882812 0 8.828125-3.945313 8.828125-8.824219v-52.96875c0-4.878906-3.945313-8.828125-8.828125-8.828125zm0 0"/><path d="m344.277344 211.863281c-4.882813 0-8.828125 3.949219-8.828125 8.828125v52.96875c0 4.878906 3.945312 8.824219 8.828125 8.824219 4.878906 0 8.828125-3.945313 8.828125-8.824219v-52.96875c0-4.878906-3.949219-8.828125-8.828125-8.828125zm0 0"/><path d="m379.585938 211.863281c-4.882813 0-8.828126 3.949219-8.828126 8.828125v52.96875c0 4.878906 3.945313 8.824219 8.828126 8.824219 4.882812 0 8.828124-3.945313 8.828124-8.824219v-52.96875c0-4.878906-3.945312-8.828125-8.828124-8.828125zm0 0"/><path d="m414.898438 211.863281c-4.882813 0-8.828126 3.949219-8.828126 8.828125v52.96875c0 4.878906 3.945313 8.824219 8.828126 8.824219 4.878906 0 8.828124-3.945313 8.828124-8.824219v-52.96875c-.003906-4.878906-3.949218-8.828125-8.828124-8.828125zm0 0"/><path d="m143.828125 41.554688c1.722656 1.722656 3.980469 2.585937 6.242187 2.585937 2.257813 0 4.519532-.867187 6.242188-2.585937l7-7 7 7c1.722656 1.722656 3.984375 2.585937 6.242188 2.585937 2.261718 0 4.519531-.867187 6.242187-2.585937 3.453125-3.453126 3.453125-9.03125 0-12.480469l-7-7 7-7.003907c3.453125-3.449218 3.453125-9.03125 0-12.480468-3.453125-3.449219-9.03125-3.453125-12.480469 0l-7.003906 7-7-7c-3.453125-3.453125-9.03125-3.453125-12.480469 0-3.453125 3.453125-3.453125 9.03125 0 12.480468l7 7.003907-7 7c-3.457031 3.449219-3.457031 9.027343-.003906 12.480469zm0 0"/><path d="m205.621094 41.554688c1.722656 1.722656 3.980468 2.585937 6.242187 2.585937 2.257813 0 4.519531-.867187 6.238281-2.585937l7.003907-7 7 7c1.722656 1.722656 3.980469 2.585937 6.242187 2.585937 2.257813 0 4.519532-.867187 6.242188-2.585937 3.449218-3.453126 3.449218-9.03125 0-12.480469l-7.003906-7 7.003906-7.003907c3.449218-3.449218 3.449218-9.03125 0-12.480468-3.453125-3.453125-9.03125-3.453125-12.484375 0l-7 7-7-7c-3.453125-3.453125-9.03125-3.453125-12.480469 0-3.453125 3.453125-3.453125 9.03125 0 12.480468l7 7.003907-7 7c-3.457031 3.449219-3.457031 9.027343-.003906 12.480469zm0 0"/><path d="m267.414062 41.554688c1.722657 1.722656 3.980469 2.585937 6.242188 2.585937 2.257812 0 4.519531-.867187 6.238281-2.585937l7.003907-7 7 7c1.722656 1.722656 3.980468 2.585937 6.242187 2.585937 2.257813 0 4.519531-.867187 6.242187-2.585937 3.449219-3.453126 3.449219-9.03125 0-12.480469l-7.003906-7 7.003906-7.003907c3.449219-3.449218 3.449219-9.03125 0-12.480468-3.453124-3.449219-9.03125-3.453125-12.484374 0l-7 7-7-7c-3.453126-3.453125-9.03125-3.453125-12.480469 0-3.453125 3.453125-3.453125 9.03125 0 12.480468l7 7.003907-7 7c-3.457031 3.449219-3.457031 9.027343-.003907 12.480469zm0 0"/><path d="m329.207031 41.554688c1.722657 1.722656 3.980469 2.585937 6.242188 2.585937 2.257812 0 4.519531-.867187 6.242187-2.585937l7-7 7 7c1.722656 1.722656 3.980469 2.585937 6.242188 2.585937 2.257812 0 4.519531-.867187 6.242187-2.585937 3.449219-3.453126 3.449219-9.03125 0-12.480469l-7.003906-7 7.003906-7.003907c3.449219-3.449218 3.449219-9.03125 0-12.480468-3.453125-3.449219-9.03125-3.453125-12.484375 0l-7 7-7-7c-3.453125-3.453125-9.03125-3.453125-12.480468 0-3.453126 3.453125-3.453126 9.03125 0 12.480468l7 7.003907-7 7c-3.453126 3.449219-3.453126 9.027343-.003907 12.480469zm0 0"/></svg>