<svg height="511pt" viewBox="1 -85 511.99849 511" width="511pt" xmlns="http://www.w3.org/2000/svg"><path d="m145.066406 133.175781h25.601563c14.113281 0 25.597656-11.484375 25.597656-25.601562v-1.566407c2.679687.953126 5.53125 1.566407 8.535156 1.566407h25.601563c14.113281 0 25.601562-11.484375 25.601562-25.597657v-25.601562c0-14.113281-11.488281-25.601562-25.601562-25.601562h-25.601563c-14.113281 0-25.601562 11.488281-25.601562 25.601562v1.570312c-2.679688-.957031-5.527344-1.570312-8.53125-1.570312h-25.601563c-14.113281 0-25.601562 11.488281-25.601562 25.601562v25.601563c.003906 14.113281 11.488281 25.597656 25.601562 25.597656zm51.199219-76.800781c0-4.710938 3.824219-8.53125 8.535156-8.53125h25.597657c4.710937 0 8.535156 3.820312 8.535156 8.53125v25.601562c0 4.710938-3.824219 8.535157-8.535156 8.535157h-25.597657c-4.710937 0-8.535156-3.824219-8.535156-8.535157zm-59.734375 25.601562c0-4.710937 3.824219-8.535156 8.535156-8.535156h25.601563c4.707031 0 8.53125 3.824219 8.53125 8.535156v25.601563c0 4.710937-3.824219 8.53125-8.53125 8.53125h-25.601563c-4.710937 0-8.535156-3.820313-8.535156-8.53125zm0 0"/><path d="m480.253906 172.523438c1.058594-3.609376 1.675782-7.273438 1.675782-10.984376 0-5.691406-1.410157-11.375-4.089844-16.980468 2.660156-5.640625 4.089844-11.433594 4.089844-17.347656 0-5.640626-1.382813-11.289063-4.023438-16.84375 2.648438-5.617188 4.023438-11.394532 4.023438-17.28125 0-7.167969-2.152344-14.351563-6.394532-21.351563-.082031-.132813-.167968-.261719-.253906-.390625-28.527344-41.710938-118.707031-70.84375-219.28125-70.84375s-190.753906 29.132812-219.546875 71.246094c-4.238281 6.996094-6.390625 14.179687-6.390625 21.347656 0 5.847656 1.417969 11.582031 4.089844 17.152344-2.679688 5.597656-4.089844 11.289062-4.089844 16.980468 0 5.890626 1.425781 11.65625 4.128906 17.265626-2.703125 5.628906-4.128906 11.347656-4.128906 17.066406 0 3.609375.582031 7.167968 1.605469 10.667968-20.933594 13.90625-31.667969 30.863282-31.667969 50.550782 0 57.34375 80.109375 119.058594 256 119.058594 237.542969 0 256-91.128907 256-119.058594 0-19.355469-10.753906-36.210938-31.746094-50.253906zm-15.683594 26.574218c-.101562.605469-.273437 1.21875-.425781 1.824219-.121093.496094-.210937.980469-.367187 1.476563-.1875.605468-.453125 1.203124-.699219 1.808593-.195313.503907-.367187 1-.597656 1.503907-.273438.585937-.621094 1.183593-.945313 1.773437-.28125.511719-.53125 1.023437-.835937 1.535156-.351563.574219-.769531 1.136719-1.160157 1.707031-.367187.539063-.710937 1.066407-1.109374 1.605469-.417969.546875-.898438 1.09375-1.351563 1.640625-.449219.546875-.886719 1.101563-1.371094 1.644532-.488281.539062-1.042969 1.074218-1.570312 1.613281-.539063.546875-1.050781 1.101562-1.621094 1.648437-.5625.535156-1.1875 1.066406-1.785156 1.59375-.613281.546875-1.195313 1.082032-1.839844 1.628906-.648437.539063-1.359375 1.066407-2.042969 1.605469-.671875.527344-1.320312 1.058594-2.027344 1.585938-.71875.53125-1.503906 1.058593-2.253906 1.589843-.742187.519532-1.457031 1.039063-2.234375 1.550782-.792969.53125-1.648437 1.042968-2.476562 1.5625-.808594.503906-1.585938 1.015625-2.421875 1.519531-.878906.527344-1.828125 1.050781-2.746094 1.570313-.855469.484374-1.675781.972656-2.554688 1.449218-.953124.519532-1.960937 1.023438-2.953124 1.535156-.910157.480469-1.808594.957032-2.753907 1.425782-.992187.488281-2.039062.964844-3.066406 1.449218-1.007813.476563-1.980469.957032-3.019531 1.425782-1.066406.476562-2.183594.945312-3.277344 1.425781-1.058594.449219-2.082031.921875-3.167969 1.363281-1.132812.472656-2.320312.921875-3.480469 1.382813-1.109374.433593-2.191406.886719-3.328124 1.316406-1.203126.449219-2.457032.886719-3.683594 1.339844-1.15625.417969-2.289063.84375-3.476563 1.253906-1.253906.433594-2.558593.851563-3.847656 1.277344-1.21875.402343-2.40625.8125-3.652344 1.203125-1.296875.410156-2.636719.800781-3.960937 1.195312-1.285156.390625-2.550782.785156-3.863282 1.167969-1.355468.394531-2.765624.761719-4.148437 1.144531-1.328125.367188-2.636719.742188-3.984375 1.089844-1.398438.367188-2.859375.71875-4.285156 1.070312-.613282.152344-1.21875.304688-1.835938.449219 4.386719-4.589843 7.117188-10.777343 7.117188-17.621093v-.765626c40.886718-10.285156 71.671875-24.953124 89.328125-42.113281-.015625.367188-.050781.734375-.085938 1.101563-.042969.480468-.058593.964844-.136719 1.445312zm-131.214843 64.851563c-1.324219.207031-2.621094.417969-3.953125.613281-1.925782.28125-3.890625.53125-5.84375.785156 1.128906-.621094 2.261718-1.21875 3.304687-1.960937.765625-.546875 1.441407-1.179688 2.148438-1.773438 1.023437-.863281 2.039062-1.714843 2.953125-2.6875.195312-.214843.453125-.378906.648437-.589843 2.105469 1.917968 4.554688 3.445312 7.203125 4.582031-.292968.050781-.574218.101562-.863281.152343-1.835937.308594-3.730469.589844-5.597656.878907zm-44.613281 4.761719c-2.199219.136718-4.445313.230468-6.671876.339843-1.355468.070313-2.695312.15625-4.0625.207031-1.921874.078126-3.867187.117188-5.800781.179688-1.707031.050781-3.398437.117188-5.113281.152344-3.667969.078125-7.363281.113281-11.09375.113281-118.835938 0-207.769531-38.632813-208.820312-73.421875 33.949218 33.058594 114.742187 56.371094 208.820312 56.371094 7.050781 0 14.199219-.179688 21.566406-.480469 4.273438 7.605469 11.324219 13.347656 19.820313 15.925781-1.578125.117188-3.164063.230469-4.761719.339844-1.296875.085938-2.578125.195312-3.882812.273438zm-196.335938-113.050782c1 .425782 1.980469.855469 3.003906 1.273438 1.382813.5625 2.78125 1.109375 4.191406 1.65625 2.488282.960937 5.023438 1.910156 7.617188 2.832031.445312.152344.878906.324219 1.324219.476563 29.492187 10.308593 65.648437 17.613281 105.550781 20.667968.75.0625 1.507812.121094 2.261719.171875 4.632812.332031 9.300781.628907 14.035156.851563v17.042968c-107.664063-5.136718-182.160156-41.625-183.261719-72.722656 10.726563 10.371094 26.273438 19.730469 45.277344 27.75zm140.605469 62.148438c4.582031 10.285156 14.785156 17.496094 26.707031 17.714844-1.226562.011718-2.507812.0625-3.71875.0625-105.550781 0-187.488281-30.472657-205.246094-61.664063-.039062-.066406-.058594-.144531-.109375-.203125-2.242187-4.003906-3.464843-8.015625-3.496093-11.972656 31.050781 30.207031 101.460937 52.566406 185.863281 56.0625zm40.054687 17.484375c-4.121094.136719-8.113281.171875-12.125.207031 4.316406-.105469 8.4375-1.050781 12.125-2.808594zm102.398438-65.015625c5.011718-1.253906 9.808594-2.601563 14.507812-3.992188.160156-.050781.316406-.09375.46875-.144531 33.527344-9.957031 58.96875-23.109375 74.394532-38.152344-.835938 21.632813-36.113282 44.636719-89.367188 58.777344v-16.488281zm89.328125-8.046875c-.734375 21.652343-35.992188 44.699219-89.328125 58.855469v-16.734376c40.886718-10.28125 71.664062-24.957031 89.328125-42.121093zm-413.992188-81.246094c21.554688-31.519531 98.96875-63.417969 205.199219-63.417969 106.019531 0 183.320312 31.777344 205.066406 63.222656 2.558594 4.273438 3.796875 8.300782 3.796875 12.296876 0 4.164062-1.339843 8.378906-3.796875 12.585937-.0625.085937-.136718.15625-.199218.25-1.390626 2.320313-3.140626 4.632813-5.1875 6.910156-.195313.222657-.394532.4375-.589844.65625-.871094.949219-1.816406 1.878907-2.800782 2.816407-.484374.460937-.996093.921874-1.507812 1.375-.84375.757812-1.699219 1.511718-2.605469 2.261718-1.125.921875-2.3125 1.824219-3.539062 2.738282-.425781.316406-.820313.640624-1.253907.957031-1.886718 1.339843-3.875 2.667969-5.980468 3.984375-.105469.066406-.222656.128906-.328125.195312-2.027344 1.253906-4.152344 2.492188-6.375 3.722656-.230469.125-.46875.253907-.707031.382813-2.191407 1.195313-4.480469 2.371094-6.851563 3.523437-.171875.085938-.34375.171876-.511719.253907-7.714844 3.730469-16.34375 7.238281-25.746094 10.472656-.523437.179687-1.066406.355469-1.597656.527344-2.445312.828125-4.957031 1.628906-7.515625 2.414062-.886719.273438-1.785156.546875-2.679687.8125-2.339844.699219-4.726563 1.375-7.144532 2.03125-.953124.265625-1.882812.527344-2.847656.785157-3.304687.871093-6.667968 1.722656-10.105468 2.527343-3.863282.886719-6.597657 4.335938-6.597657 8.292969v75.871094c0 4.710937-3.820312 8.53125-8.53125 8.53125-4.710937 0-8.535156-3.820313-8.535156-8.53125v-3.855469c0-4.722656-3.8125-8.535156-8.53125-8.535156-4.722656 0-8.535156 3.8125-8.535156 8.535156 0 9.410156-7.65625 17.066406-17.066407 17.066406-7.511718 0-13.832031-4.917969-16.113281-11.667969-.015625-.066406 0-.132812-.015625-.195312-.304687-.929688-.527344-1.800781-.683594-2.636719-.128906-.84375-.253906-1.6875-.253906-2.558593v-29.867188c0-4.71875-3.8125-8.535156-8.535156-8.535156-4.71875 0-8.53125 3.816406-8.53125 8.535156 0 7.058594-5.742188 12.800781-12.800781 12.800781-6.253907 0-11.453125-4.507812-12.558594-10.445312-.011719-.027344.007813-.050781 0-.085938-.128906-.734375-.242187-1.492187-.242187-2.277343v-30.328126c0-4.605468-3.660157-8.378906-8.265626-8.53125-6.878906-.214843-13.613281-.566406-20.226562-1.027343-1.015625-.066407-1.988281-.167969-2.996094-.246094-5.800781-.433594-11.535156-.9375-17.117187-1.554687-.433594-.039063-.84375-.101563-1.28125-.152344-90.433594-10.222656-150.449219-42.820313-150.449219-70.773438.003906-4.066406 1.292969-8.152344 3.675781-12.113281zm205.199219 243.78125c-175.300781 0-238.933594-60.988281-238.933594-101.992187 0-10.015626 4.367188-19.28125 13.019532-27.707032-.015626.214844-.023438.425782-.023438.597656 0 50.234376 101.347656 91.109376 225.933594 91.109376 124.589844 0 225.9375-40.875 225.9375-91.109376 0-.0625 0-.121093 0-.179687 8.636718 8.394531 12.996094 17.527344 12.996094 27.289063.003906 75.199218-123.421876 101.992187-238.929688 101.992187zm0 0"/><path d="m286.523438 143.636719c75.230468 0 155.203124-21.707031 155.203124-61.941407 0-4.71875-3.8125-8.535156-8.535156-8.535156-4.71875 0-8.53125 3.816406-8.53125 8.535156 0 21.179688-59.078125 44.875-138.136718 44.875-4.71875 0-8.535157 3.816407-8.535157 8.535157s3.816407 8.53125 8.535157 8.53125zm0 0"/></svg>