<svg height="512pt" viewBox="0 -61 512 512" width="512pt" xmlns="http://www.w3.org/2000/svg"><path d="m496.644531 258.914062c.570313-.667968 1.160157-1.328124 1.703125-2.027343.6875-.878907 1.324219-1.800781 1.964844-2.726563.507812-.722656 1.023438-1.433594 1.503906-2.175781.609375-.960937 1.160156-1.964844 1.722656-2.960937.425782-.761719.878907-1.503907 1.277344-2.292969.523438-1.03125.976563-2.101563 1.449219-3.167969.351563-.808594.742187-1.59375 1.070313-2.417969.433593-1.117187.796874-2.265625 1.175781-3.40625.269531-.828125.582031-1.632812.824219-2.476562.351562-1.230469.625-2.515625.90625-3.785157.179687-.796874.398437-1.566406.554687-2.382812.261719-1.414062.433594-2.871094.605469-4.332031.082031-.707031.21875-1.382813.289062-2.101563.199219-2.171875.308594-4.394531.308594-6.648437 0-32.851563-25.539062-60.0625-58.53125-64.25-4.523438-91.136719-81.933594-151.761719-195.484375-151.761719-115.859375 0-194.839844 60.617188-199.453125 151.78125-32.992188 4.175781-58.53125 31.398438-58.53125 64.246094 0 2.191406.117188 4.367187.34375 6.503906.082031.742188.238281 1.46875.335938 2.203125.191406 1.386719.371093 2.773437.652343 4.121094.183594.851562.433594 1.667969.652344 2.511719.308594 1.203124.589844 2.425781.960937 3.605468.28125.878906.632813 1.71875.953126 2.589844.40625 1.097656.785156 2.203125 1.25 3.269531.371093.871094.8125 1.703125 1.230468 2.546875.5 1.023438.980469 2.054688 1.53125 3.042969.464844.835937.988282 1.640625 1.484375 2.457031.582031.949219 1.152344 1.902344 1.785157 2.816406.554687.808594 1.160156 1.566407 1.75 2.347657.660156.878906 1.3125 1.757812 2.019531 2.597656.632812.753906 1.304687 1.46875 1.976562 2.191406.742188.808594 1.476563 1.613281 2.253907 2.386719.707031.695312 1.449218 1.347656 2.183593 2.019531.816407.734375 1.621094 1.46875 2.472657 2.15625.769531.625 1.566406 1.222657 2.363281 1.8125.878906.660157 1.769531 1.3125 2.683593 1.929688.832032.558593 1.683594 1.074219 2.542969 1.601562.941407.570313 1.886719 1.140625 2.863281 1.675781.863282.480469 1.769532.925782 2.671876 1.367188 1.007812.492188 2.011718.96875 3.042968 1.414062.925782.398438 1.867188.761719 2.820313 1.121094 1.058593.402344 2.128906.789063 3.214843 1.132813.96875.308593 1.949219.597656 2.933594.863281 1.117188.308594 2.230469.578125 3.363282.832031 1.003906.238281 2.019531.425781 3.035156.605469 1.15625.199219 2.316406.375 3.496094.519531 1.03125.125 2.0625.234375 3.113281.304688.554687.046875 1.097656.136719 1.648437.164062l20.140625 19.289063c15.046875 14.421875 28.367188 30.730468 40.703125 46.183594 21.996094 27.542968 54.828125 43.339843 90.085938 43.339843h86.816406c35.269531 0 68.097656-15.800781 90.085938-43.339843 12.339843-15.453126 25.65625-31.761719 40.703124-46.183594l20.1875-19.335938c.570313-.035156 1.121094-.132812 1.691407-.1875 1.015625-.089844 2.019531-.199218 3.015625-.335937 1.132812-.15625 2.257812-.335938 3.363281-.542969.96875-.183594 1.929687-.375 2.878906-.589844 1.097657-.253906 2.175781-.542968 3.242188-.851562.925781-.261719 1.839843-.535156 2.738281-.84375 1.050781-.351563 2.082031-.742188 3.117188-1.148438.867187-.34375 1.738281-.699218 2.589843-1.078125 1.003907-.453125 1.984375-.941406 2.953125-1.441406.816406-.414063 1.632813-.839844 2.429688-1.292969.949218-.546875 1.875-1.125 2.789062-1.722656.761719-.488281 1.53125-.976562 2.265625-1.503906.894531-.632813 1.746094-1.304688 2.601563-1.984375.707031-.550781 1.410156-1.105469 2.089844-1.691407.835937-.71875 1.621093-1.480468 2.410156-2.25.644531-.613281 1.289062-1.222656 1.902344-1.863281.785156-.765625 1.5-1.605469 2.214843-2.449219zm-429.261719-89.566406c5.011719 0 9.058594-4.050781 9.058594-9.0625 0-98.203125 91.175782-142.160156 181.542969-142.160156 107.871094 0 177.574219 55.796875 177.574219 142.160156 0 5.011719 4.046875 9.0625 9.058594 9.0625 27.160156 0 49.261718 20.941406 49.261718 46.679688 0 3.324218-.304687 6.539062-.894531 9.632812-.191406 1.011719-.597656 1.925782-.851563 2.914063-.515624 2.011719-.988281 4.0625-1.742187 5.945312-.433594 1.085938-1.074219 2.027344-1.59375 3.070313-.8125 1.648437-1.546875 3.351562-2.535156 4.863281-.652344.996094-1.484375 1.832031-2.210938 2.765625-1.070312 1.386719-2.066406 2.84375-3.289062 4.085938-.878907.894531-1.929688 1.59375-2.878907 2.410156-1.269531 1.085937-2.464843 2.257812-3.851562 3.199218-1.070312.722657-2.28125 1.222657-3.425781 1.855469-1.449219.808594-2.832031 1.703125-4.375 2.355469-1.230469.515625-2.597657.789062-3.894531 1.195312-1.59375.507813-3.132813 1.117188-4.820313 1.453126-1.367187.269531-2.84375.277343-4.265625.433593-1.75.191407-3.453125.507813-5.273438.507813-29.199218-.226563-53.75-16.714844-53.75-36.230469 0-5.011719-4.050781-9.058594-9.058593-9.058594-5.011719 0-9.0625 4.046875-9.0625 9.058594 0 19.640625-24.894531 36.238281-54.355469 36.238281s-54.355469-16.597656-54.355469-36.238281c0-5.011719-4.050781-9.058594-9.058593-9.058594-5.011719 0-9.058594 4.046875-9.058594 9.058594 0 19.640625-24.898438 36.238281-54.359375 36.238281-29.460938 0-54.355469-16.597656-54.355469-36.238281 0-5.011719-4.050781-9.058594-9.058594-9.058594-5.011718 0-9.058594 4.046875-9.058594 9.058594 0 19.640625-24.898437 36.238281-54.359374 36.238281-.234376 0-.476563 0-.695313 0-27.179687 0-49.273437-20.945312-49.273437-46.691406 0-25.75 22.097656-46.683594 49.265624-46.683594zm309.933594 165.558594c-18.539062 23.21875-46.222656 36.527344-75.9375 36.527344h-86.816406c-29.714844 0-57.402344-13.320313-75.9375-36.527344-12.71875-15.9375-26.472656-32.757812-42.324219-47.953125l-8.515625-8.160156c18.742188-3.980469 34.433594-13.492188 43.703125-26.019531 12.375 16.722656 36.164063 28.066406 63.414063 28.066406s51.042968-11.34375 63.417968-28.066406c12.375 16.722656 36.164063 28.066406 63.414063 28.066406s51.042969-11.34375 63.417969-28.066406c9.175781 12.410156 24.640625 21.839843 43.140625 25.890624l-8.644531 8.289063c-15.863282 15.183594-29.605469 32.015625-42.332032 47.953125zm0 0"/><path d="m258.328125 181.1875c19.984375 0 36.238281-20.320312 36.238281-45.296875 0-13.824219-9.875-81.535156-36.238281-81.535156s-36.238281 67.707031-36.238281 81.535156c0 24.972656 16.253906 45.296875 36.238281 45.296875zm0-108.351562c7.273437 5.753906 18.121094 42.941406 18.121094 63.054687 0 14.730469-8.300781 27.179687-18.121094 27.179687s-18.117187-12.449218-18.117187-27.179687c0-20.105469 10.84375-57.300781 18.117187-63.054687zm0 0"/><path d="m358.027344 180.097656c4.71875 0 9.519531-.933594 14.140625-2.890625 18.382812-7.816406 26.980469-29.140625 19.152343-47.523437-5.09375-11.957032-35.085937-53.996094-58.167968-44.164063-23.003906 9.785157-13.617188 60.570313-8.519532 72.539063 5.84375 13.761718 19.277344 22.039062 33.394532 22.039062zm-17.828125-77.890625c.207031-.054687.441406-.082031.6875-.082031 7.121093 0 28.074219 21.28125 33.761719 34.652344 3.914062 9.195312-.390626 19.847656-9.582032 23.761718-9.207031 3.921876-19.859375-.390624-23.773437-9.582031-5.886719-13.828125-6.53125-45.289062-1.09375-48.75zm0 0"/><path d="m144.488281 177.207031c4.621094 1.96875 9.410157 2.890625 14.140625 2.890625 14.105469 0 27.539063-8.277344 33.402344-22.050781 5.097656-11.964844 14.488281-62.753906-8.515625-72.535156-23.109375-9.839844-53.082031 32.207031-58.171875 44.164062-7.824219 18.390625.761719 39.714844 19.144531 47.53125zm-2.480469-40.429687c5.695313-13.390625 26.667969-34.6875 33.699219-34.6875.238281 0 .460938.027344.660157.082031 5.519531 3.503906 4.875 34.960937-1.003907 48.792969-3.914062 9.195312-14.578125 13.5-23.773437 9.585937-9.195313-3.925781-13.5-14.578125-9.582032-23.773437zm0 0"/><path d="m276.320312 335.058594c-61.070312.871094-69.015624-2.175782-92.714843-11.152344-4.683594-1.746094-9.902344.582031-11.6875 5.261719-1.765625 4.683593.582031 9.914062 5.265625 11.6875 24.160156 9.152343 35.167968 12.46875 81.019531 12.46875 5.570313 0 11.675781-.054688 18.363281-.144531 5.007813-.074219 9.003906-4.1875 8.929688-9.1875-.0625-5.011719-4.101563-8.96875-9.175782-8.933594zm0 0"/><path d="m151.554688 287.316406c-2.890626-4.085937-8.542969-5.066406-12.628907-2.183594-4.085937 2.882813-5.074219 8.535157-2.183593 12.628907 4.476562 6.351562 9.203124 12.375 14.035156 17.929687 1.792968 2.054688 4.3125 3.105469 6.828125 3.105469 2.109375 0 4.242187-.734375 5.953125-2.226563 3.769531-3.289062 4.164062-9.015624.878906-12.785156-4.421875-5.089844-8.753906-10.625-12.882812-16.46875zm0 0"/></svg>