<svg height="512pt" viewBox="0 -100 512 511" width="512pt" xmlns="http://www.w3.org/2000/svg"><path d="m182.796875 79.203125c-4.023437-3-9.695313-2.128906-12.667969 1.894531l-21.550781 29.125c-2.980469 4.015625-2.128906 9.695313 1.890625 12.667969l29.128906 21.558594c1.566406 1.160156 3.460938 1.777343 5.390625 1.777343.445313 0 .894531-.035156 1.332031-.097656 2.382813-.355468 4.519532-1.652344 5.941407-3.578125l21.554687-29.136719c2.980469-4.023437 2.128906-9.695312-1.894531-12.667968zm.285156 45.289063-14.558593-10.769532 10.773437-14.558594 14.558594 10.769532zm0 0"/><path d="m456.113281 104.996094-35.539062-7.09375c-4.894531-1.03125-9.675781 2.203125-10.65625 7.113281l-7.09375 35.539063c-.976563 4.898437 2.203125 9.664062 7.113281 10.652343l35.539062 7.09375c.589844.128907 1.195313.183594 1.773438.183594 4.234375 0 8.019531-2.980469 8.871094-7.292969l7.09375-35.542968c.988281-4.898438-2.191406-9.664063-7.101563-10.652344zm-15.980469 33.765625-17.765624-3.550781 3.550781-17.765626 17.765625 3.550782zm0 0"/><path d="m349.210938 121.402344c-1.359376-4.820313-6.398438-7.636719-11.171876-6.25l-34.878906 9.847656c-4.820312 1.347656-7.621094 6.359375-6.253906 11.167969l9.847656 34.878906c1.125 3.988281 4.757813 6.605469 8.707032 6.605469.824218 0 1.648437-.109375 2.464843-.34375l34.878907-9.847656c4.820312-1.351563 7.621093-6.359376 6.25-11.171876zm-27.488282 35.996094-4.917968-17.441407 17.4375-4.917969 4.921874 17.4375zm0 0"/><path d="m512 146.671875c0-13.292969-7.71875-25.132813-22.964844-35.269531.117188-1.386719.179688-2.753906.179688-4.113282 0-27.46875-22.359375-49.828124-49.828125-49.828124-7.527344 0-14.820313 1.703124-21.515625 5.007812-9.015625-14.160156-24.75-23.125-41.902344-23.125-9.449219 0-18.554688 2.660156-26.425781 7.636719-8.445313-9.449219-20.203125-15.4375-32.839844-16.515625l-22.496094-26.71875c-1.539062-1.839844-3.757812-2.988282-6.152343-3.195313-1.46875-.183593-2.851563.152344-4.148438.707031-.871094.371094-1.730469.769532-2.464844 1.394532l-16.207031 13.644531-6.230469 5.234375c-1.859375-.207031-3.617187-.308594-5.335937-.308594-13.636719 0-26.601563 5.171875-36.59375 14.414063-6.929688-3.523438-14.511719-5.351563-22.296875-5.351563-14.175782 0-27.628906 6.214844-36.988282 16.695313-7.875-4.972657-16.976562-7.636719-26.425781-7.636719-14.171875 0-27.496093 6.113281-36.863281 16.632812l-41.09375-15.195312c-4.683594-1.757812-9.910156.652344-11.632812 5.355469l-9.972657 26.941406c-8.84375 9.304687-13.679687 21.375-13.679687 34.210937 0 2.371094.199218 4.738282.613281 7.238282-12.4375 9.421875-18.734375 20.203125-18.734375 32.144531 0 34.28125 27.839844 62.355469 63.515625 64.585937l20.257813 19.40625c10.945312 10.488282 15.847656 16.8125 23.257812 26.40625 2.453125 3.179688 5.144531 6.660157 8.386719 10.71875 24.265625 30.386719 48.496093 43.339844 81.03125 43.339844h123.054687c32.542969 0 56.777344-12.964844 81.027344-43.339844 3.226562-4.039062 5.925781-7.527343 8.378906-10.707031 7.421875-9.59375 12.320313-15.929687 23.265625-26.417969l20.277344-19.433593c34.226563-2.238281 59.546875-29.261719 59.546875-64.558594zm-225.816406-124.335937 11.667968 13.863281-13.863281 11.660156-11.660156-13.851563zm-197.601563 50.769531-12.191406 32.976562-32.976563-12.191406 12.191407-32.976563zm331.074219 144.484375c-11.921875 11.421875-17.4375 18.542968-25.074219 28.410156-2.402343 3.117188-5.046875 6.523438-8.199219 10.480469-20.71875 25.949219-40.097656 36.53125-66.878906 36.53125h-123.046875c-26.78125 0-46.160156-10.582031-66.878906-36.53125-3.171875-3.964844-5.808594-7.382813-8.207031-10.488281-7.628906-9.867188-13.136719-16.988282-25.058594-28.402344l-8.507812-8.152344c2.816406-.597656 5.535156-1.359375 8.199218-2.203125.757813-.234375 1.492188-.507813 2.234375-.761719 1.976563-.679687 3.898438-1.421875 5.773438-2.230468.714843-.304688 1.429687-.597657 2.128906-.921876 4.871094-2.265624 9.355469-4.957031 13.378906-8 .582031-.433593 1.121094-.898437 1.683594-1.351562 1.441406-1.167969 2.820313-2.382812 4.125-3.640625.515625-.5 1.039063-.988281 1.53125-1.496094 1.675781-1.738281 3.25-3.523437 4.648437-5.40625 12.371094 16.722657 36.164063 28.066407 63.414063 28.066407 27.253906 0 51.042969-11.34375 63.417969-28.066407 12.375 16.722657 36.164062 28.066407 63.417968 28.066407 27.152344 0 50.867188-11.253907 63.28125-27.878907 1.375 1.886719 2.933594 3.671875 4.59375 5.402344.460938.476563.949219.941406 1.429688 1.410156 1.324219 1.296875 2.71875 2.539063 4.195312 3.734375.507813.40625.996094.824219 1.511719 1.222656 4.003907 3.054688 8.488281 5.734376 13.390625 7.988282.613282.292968 1.257813.554687 1.894532.824218 1.964843.84375 3.976562 1.625 6.050781 2.332032.652343.222656 1.285156.449218 1.949219.660156 2.652343.832031 5.371093 1.59375 8.1875 2.191406zm28.566406-24.253906c-29.769531-.136719-53.996094-16.378907-53.996094-36.21875 0-5.011719-4.046874-9.0625-9.058593-9.0625s-9.058594 4.050781-9.058594 9.0625c0 19.640624-24.898437 36.238281-54.359375 36.238281s-54.355469-16.597657-54.355469-36.238281c0-5.011719-4.050781-9.0625-9.0625-9.0625-5.007812 0-9.058593 4.050781-9.058593 9.0625 0 19.640624-24.894532 36.238281-54.355469 36.238281-29.464844 0-54.359375-16.597657-54.359375-36.238281 0-5.011719-4.050782-9.0625-9.058594-9.0625-5.011719 0-9.058594 4.050781-9.058594 9.0625 0 19.640624-24.898437 36.238281-55.054687 36.238281-27.171875 0-49.265625-20.9375-49.265625-46.6875 0-6.957031 5.28125-13.878907 15.699218-20.582031 3.351563-2.15625 4.898438-6.25 3.8125-10.09375-.5625-1.964844-.894531-3.695313-1.113281-5.335938l42.089844 15.566406c1.03125.390625 2.09375.570313 3.144531.570313 3.675782 0 7.148438-2.257813 8.496094-5.917969l18.484375-49.96875c.472656-1.253906.578125-2.574219.472656-3.878906 5.867188-5.988282 13.742188-9.558594 22.167969-9.558594 8.191406 0 15.980469 3.167969 21.941406 8.90625 2.011719 1.921875 4.75 2.835938 7.554688 2.453125 2.765625-.390625 5.183594-2.027344 6.589844-4.4375 5.777343-10.003906 16.007812-15.984375 27.339843-15.984375 6.613281 0 13.027344 2.113281 18.542969 6.117188 3.90625 2.824218 9.316406 2.101562 12.347656-1.621094 6.886719-8.488282 16.898438-13.355469 27.515625-13.5l22.777344 27.0625c1.785156 2.128906 4.347656 3.222656 6.9375 3.222656 2.058594 0 4.121094-.695312 5.824219-2.117188l22.648437-19.0625c.402344-.027343.78125-.101562 1.179688-.101562 11.332031 0 21.5625 5.972656 27.339843 15.984375 1.394532 2.417969 3.824219 4.046875 6.585938 4.4375 2.820312.425781 5.546875-.523437 7.558594-2.453125 5.960937-5.746094 13.75-8.90625 21.941406-8.90625 13.246094 0 25.1875 8.46875 29.707031 21.054688.988281 2.753906 3.234375 4.84375 6.050781 5.652343 2.792969.796875 5.816407.199219 8.117188-1.621093 5.742188-4.558594 12.5-6.976563 19.542969-6.976563 17.484375 0 31.707031 14.222656 31.707031 31.707031 0 2.175782-.242188 4.375-.757812 6.742188-.851563 3.851562.90625 7.800781 4.320312 9.773437 12.757812 7.367188 19.226562 15.050781 19.226562 22.859375-.03125 26.492188-19.699218 46.550782-45.691406 46.675782zm0 0"/></svg>