<svg height="512pt" viewBox="-149 0 512 512" width="512pt" xmlns="http://www.w3.org/2000/svg"><path d="m136.898438 292.691406-19.394532-19.394531c-3.574218-3.574219-9.351562-3.574219-12.925781 0-3.574219 3.578125-3.574219 9.355469 0 12.929687l32.320313 32.320313 32.328124-32.320313c3.578126-3.578124 3.578126-9.355468 0-12.929687-3.574218-3.574219-9.351562-3.574219-12.925781 0zm0 0"/><path d="m123.101562 84.773438c3.574219-3.578126 3.574219-9.355469 0-12.929688-3.578124-3.574219-9.355468-3.574219-12.929687 0l-19.390625 19.402344-19.402344-19.402344c-3.574218-3.574219-9.355468-3.574219-12.925781 0-3.578125 3.574219-3.578125 9.351562 0 12.925781l32.328125 32.332031zm0 0"/><path d="m112.386719 214.035156c-3.574219-3.578125-9.355469-3.578125-12.929688 0l-32 32c-3.574219 3.574219-3.574219 9.351563 0 12.925782 1.785157 1.785156 4.125 2.679687 6.464844 2.679687s4.679687-.898437 6.464844-2.679687l32-32c3.566406-3.5625 3.566406-9.351563 0-12.925782zm0 0"/><path d="m97.007812 158.035156c-1.132812 4.917969 1.929688 9.828125 6.855469 10.960938l44.097657 10.175781c.691406.164063 1.378906.226563 2.066406.226563 4.160156 0 7.925781-2.859376 8.90625-7.085938 1.132812-4.917969-1.929688-9.828125-6.859375-10.960938l-44.09375-10.175781c-4.902344-1.132812-9.832031 1.941407-10.972657 6.859375zm0 0"/><path d="m214.777344 337.507812-36.207032-275.179687c-4.671874-35.53125-35.234374-62.328125-71.074218-62.328125s-66.40625 26.796875-71.078125 62.328125l-36.207031 275.179687c-.929688 7.121094 1.242187 14.300782 5.980468 19.703126 4.734375 5.402343 11.566406 8.503906 18.75 8.503906h39.050782v118.855468c0 15.121094 12.304687 27.429688 27.429687 27.429688h27.429687c15.121094 0 27.429688-12.304688 27.429688-27.429688v-118.855468h43.773438c7.1875 0 14.019531-3.101563 18.753906-8.503906 4.734375-5.402344 6.910156-12.582032 5.96875-19.703126zm-86.785156 40.375v31.480469c-6.410157-2.972656-10.84375-8.878906-10.84375-15.738281 0-6.855469 4.433593-12.769531 10.84375-15.742188zm0 50.679688v37.925781c-13.496094-3.300781-20.746094-6.164062-21.449219-8.496093 0-.007813-.082031-.621094.675781-2.148438 6.464844-12.992188 3.90625-21.796875.621094-26.886719-5.8125-9.023437-17.179688-12.042969-25.5625-13.039062v-50.203125h30.894531c-8.660156 6.621094-14.308594 16.601562-14.308594 27.914062 0 16.914063 12.453125 31.039063 29.128907 34.933594zm-9.144532 65.152344h-27.429687c-5.035157 0-9.140625-4.097656-9.140625-9.140625v-50.113281c4.570312.8125 8.832031 2.277343 10.191406 4.386718 1.417969 2.195313-.664062 6.921875-1.617188 8.851563-3.96875 7.960937-2.660156 14.214843-.871093 18.054687 5.496093 11.757813 21.882812 15.679688 35.046875 18.84375 1.003906.238282 1.890625.457032 2.824218.6875-.378906 4.691406-4.210937 8.429688-9.003906 8.429688zm76.207032-148.554688c-.742188.851563-2.378907 2.269532-5 2.269532h-165.113282c-2.625 0-4.261718-1.417969-5.011718-2.269532-.742188-.847656-1.9375-2.660156-1.601563-5.257812l36.207031-275.179688c3.492188-26.46875 26.257813-46.4375 52.953125-46.4375 26.699219 0 49.464844 19.96875 52.957031 46.4375l36.195313 275.179688c.351563 2.597656-.84375 4.410156-1.585937 5.257812zm0 0"/></svg>