<svg height="512pt" viewBox="-149 0 512 512" width="512pt" xmlns="http://www.w3.org/2000/svg"><path d="m214.777344 337.507812-36.207032-275.179687c-3.546874-26.910156-21.933593-48.78125-46.214843-57.832031-.222657-.089844-.441407-.144532-.667969-.21875-7.589844-2.742188-15.734375-4.277344-24.191406-4.277344-35.839844 0-66.40625 26.796875-71.078125 62.328125l-36.207031 275.179687c-.929688 7.121094 1.242187 14.300782 5.980468 19.703126 4.734375 5.402343 11.566406 8.503906 18.75 8.503906h39.050782v118.855468c0 15.121094 12.304687 27.429688 27.429687 27.429688h27.429687c15.121094 0 27.429688-12.304688 27.429688-27.429688v-118.855468h43.773438c7.1875 0 14.019531-3.101563 18.753906-8.503906 4.734375-5.402344 6.910156-12.582032 5.96875-19.703126zm-191.488282 9.699219c-1.664062-.417969-2.78125-1.398437-3.355468-2.046875-.742188-.847656-1.9375-2.660156-1.601563-5.257812l6.4375-48.941406 146.203125-146.203126 6.367188 48.386719zm13.703126-149.089843 124.609374-124.597657 6.363282 48.390625-139.273438 139.273438zm120.027343-145.875-116.113281 116.105468 8.300781-63.058594 81.457031-81.453124c11.929688 5.8125 21.402344 15.863281 26.355469 28.40625zm-49.523437-33.957032c.886718 0 1.734375.203125 2.613281.25l-56.984375 56.984375 1.417969-10.789062c3.488281-26.476563 26.253906-46.445313 52.953125-46.445313zm-58.570313 329.144532 131.425781-131.429688 6.367188 48.355469-84.171875 83.074219zm57.214844 18.285156c.042969 0 .089844.027344.136719.027344s.089844-.027344.136718-.027344h6.757813c-8.660156 6.621094-14.308594 16.601562-14.308594 27.914062 0 16.914063 12.453125 31.039063 29.128907 34.933594v37.925781c-13.496094-3.300781-20.746094-6.164062-21.449219-8.496093 0-.007813-.082031-.621094.675781-2.148438 6.464844-12.992188 3.90625-21.796875.621094-26.886719-5.8125-9.023437-17.179688-12.03125-25.5625-13.039062v-50.203125zm21.851563 12.167968v31.480469c-6.410157-2.972656-10.84375-8.878906-10.84375-15.738281 0-6.855469 4.433593-12.769531 10.84375-15.742188zm-9.144532 115.832032h-27.429687c-5.035157 0-9.140625-4.097656-9.140625-9.140625v-50.113281c4.570312.8125 8.832031 2.277343 10.191406 4.386718 1.417969 2.195313-.664062 6.921875-1.617188 8.851563-3.96875 7.960937-2.660156 14.214843-.871093 18.054687 5.496093 11.757813 21.882812 15.679688 35.046875 18.84375 1.003906.238282 1.890625.457032 2.824218.6875-.378906 4.691406-4.210937 8.429688-9.003906 8.429688zm76.207032-148.554688c-.742188.851563-2.378907 2.269532-5 2.269532h-61.46875l61.121093-60.324219 6.945313 52.796875c.339844 2.597656-.855469 4.410156-1.597656 5.257812zm0 0"/></svg>