<svg height="512pt" viewBox="-148 0 511 512" width="512pt" xmlns="http://www.w3.org/2000/svg"><path d="m215.269531 337.507812-18.503906-140.582031-2.324219-11.390625-10.953125 4.425782c-1.011719.410156-2.027343.859374-3.125 1.125-7.945312 1.964843-16.191406.742187-23.195312-3.5-7.011719-4.226563-11.960938-10.917969-13.925781-18.863282-3.738282-15.066406 4.507812-30.519531 19.183593-35.929687l20.066407-7.425781-19.234376-9.371094c-6.136718-3-10.570312-8.394532-12.171874-14.8125-3.007813-12.148438 4.425781-24.484375 16.53125-27.480469 1.003906-.238281 2.019531-.3125 3.355468-.449219l9.316406-1.554687-1.226562-9.359375c-4.679688-35.535156-35.226562-62.339844-71.074219-62.339844-35.839843 0-66.394531 26.804688-71.078125 62.335938l-36.195312 275.171874c-.941406 7.121094 1.242187 14.300782 5.980468 19.703126 4.734376 5.402343 11.554688 8.503906 18.730469 8.503906h39.050781v118.855468c0 15.121094 12.304688 27.429688 27.429688 27.429688h27.429688c15.121093 0 27.425781-12.304688 27.425781-27.429688v-118.855468h43.769531c7.183594 0 14.015625-3.101563 18.75-8.503906 4.738281-5.402344 6.929688-12.582032 5.988281-19.703126zm-86.78125 40.375v31.480469c-6.410156-2.972656-10.855469-8.878906-10.855469-15.738281 0-6.855469 4.445313-12.769531 10.855469-15.742188zm0 50.679688v37.925781c-13.496093-3.300781-20.753906-6.164062-21.460937-8.503906 0 0-.082032-.621094.675781-2.140625 6.472656-12.992188 3.914063-21.796875.632813-26.886719-5.816407-9.023437-17.179688-12.042969-25.5625-13.039062v-50.203125h30.894531c-8.660157 6.621094-14.308594 16.601562-14.308594 27.914062-.011719 16.914063 12.441406 31.039063 29.128906 34.933594zm-9.144531 65.152344h-27.429688c-5.039062 0-9.144531-4.097656-9.144531-9.140625v-50.105469c4.554688.792969 8.808594 2.230469 10.195313 4.386719 1.410156 2.195312-.667969 6.914062-1.625 8.839843-3.96875 7.964844-2.664063 14.21875-.871094 18.058594 5.496094 11.757813 21.878906 15.679688 35.046875 18.84375 1.003906.238282 1.890625.457032 2.824219.683594-.375 4.695312-4.203125 8.433594-8.996094 8.433594zm76.207031-148.554688c-.75.851563-2.386719 2.269532-5.011719 2.269532h-165.113281c-2.621093 0-4.257812-1.417969-5-2.269532-.742187-.847656-1.9375-2.660156-1.589843-5.257812l36.195312-275.171875c3.484375-26.476563 26.25-46.445313 52.957031-46.445313 23.914063 0 44.671875 16.019532 51.308594 38.859375-19.546875 7.003907-31.050781 27.867188-25.949219 48.445313 1.636719 6.59375 4.882813 12.574218 9.382813 17.5-14.757813 11.59375-21.953125 30.996094-17.234375 50.03125 3.144531 12.691406 11.042968 23.394531 22.234375 30.136718 9.804687 5.902344 21.09375 8.160157 32.285156 6.527344l17.125 130.117188c.347656 2.597656-.851563 4.410156-1.589844 5.257812zm0 0"/></svg>