<svg height="512pt" viewBox="-126 0 512 512.00156" width="512pt" xmlns="http://www.w3.org/2000/svg"><path d="m249 213.800781c-17.5625 3.074219-35.207031-6.796875-41.90625-23.363281-7.246094-17.960938.238281-38.480469 17.40625-47.742188l18.171875-9.796874-19.644531-6.363282c-8.246094-2.675781-14.777344-8.675781-17.929688-16.476562-2.875-7.140625-2.804687-14.96875.203125-22.058594 3.011719-7.085938 8.597657-12.566406 15.738281-15.453125 3.285157-1.316406 6.839844-2.011719 10.582032-2.023437l16.214844-.097657-8.871094-13.558593c-23.273438-35.613282-62.332032-56.867188-104.46875-56.867188h-9.664063c-68.828125 0-124.832031 56.003906-124.832031 124.832031v255.375c0 23.96875 19.496094 43.46875 43.472656 43.46875h53.398438v61.847657c0 14.597656 11.878906 26.476562 26.480468 26.476562h8.824219c14.597657 0 26.480469-11.878906 26.480469-26.476562v-61.855469h57.203125c23.964844 0 43.472656-19.5 43.472656-43.472657v-168.175781zm-108 271.710938c0 4.871093-3.960938 8.828125-8.824219 8.828125h-8.828125c-4.863281 0-8.824218-3.957032-8.824218-8.828125v-61.785157h26.476562zm-16.167969-467.859375h9.664063c31.613281 0 61.21875 13.957031 81.539062 37.910156-.539062.1875-1.0625.398438-1.589844.601562-11.511718 4.640626-20.523437 13.484376-25.375 24.917969-4.855468 11.421875-4.96875 24.058594-.328124 35.558594 3.152343 7.832031 8.378906 14.527344 15.03125 19.515625-16.027344 15.4375-21.703126 39.402344-13.046876 60.867188 8.464844 20.972656 28.917969 34.554687 50.949219 34.953124v112.074219h-224.023437v-219.21875c0-59.101562 48.078125-107.179687 107.179687-107.179687zm91.027344 388.359375h-172.390625c-14.238281 0-25.816406-11.585938-25.816406-25.816407v-18.488281h224.023437v18.488281c0 14.238282-11.582031 25.816407-25.816406 25.816407zm0 0"/></svg>