<svg height="512pt" viewBox="-137 0 512 512" width="512pt" xmlns="http://www.w3.org/2000/svg"><path d="m51.203125 85.332031c2.183594 0 4.367187-.835937 6.03125-2.5l18.109375-18.097656 18.097656 18.097656c3.335938 3.335938 8.730469 3.335938 12.066406 0 3.335938-3.335937 3.335938-8.730469 0-12.066406l-30.167968-30.164063-30.171875 30.164063c-3.335938 3.339844-3.335938 8.730469 0 12.066406 1.664062 1.664063 3.847656 2.5 6.035156 2.5zm0 0"/><path d="m141.960938 222.898438c-3.335938 3.335937-3.335938 8.730468 0 12.066406 3.335937 3.335937 8.730468 3.335937 12.066406 0l18.097656-18.101563 18.109375 18.101563c1.664063 1.664062 3.847656 2.5 6.03125 2.5 2.1875 0 4.371094-.839844 6.035156-2.5 3.335938-3.339844 3.335938-8.730469 0-12.066406l-30.171875-30.164063zm0 0"/><path d="m181.699219 96.367188-29.867188 29.867187c-3.335937 3.335937-3.335937 8.726563 0 12.0625 1.667969 1.667969 3.851563 2.5 6.035157 2.5 2.183593 0 4.367187-.835937 6.035156-2.5l29.863281-29.863281c3.339844-3.335938 3.339844-8.730469 0-12.066406-3.335937-3.335938-8.726563-3.335938-12.066406 0zm0 0"/><path d="m104.320312 180.386719-41.15625-9.496094c-4.574218-1.058594-9.171874 1.796875-10.238281 6.398437-1.058593 4.589844 1.800781 9.175782 6.398438 10.230469l41.15625 9.5c.648437.152344 1.289062.210938 1.929687.210938 3.882813 0 7.398438-2.671875 8.3125-6.613281 1.054688-4.589844-1.8125-9.171876-6.402344-10.230469zm0 0"/><path d="m119.46875 0c-65.878906 0-119.46875 53.589844-119.46875 119.46875v191.886719c0 21.242187 17.269531 38.511719 38.511719 38.511719h38.289062v136.53125c0 14.113281 11.484375 25.601562 25.597657 25.601562h34.132812c14.113281 0 25.601562-11.484375 25.601562-25.601562v-136.53125h38.289063c21.238281 0 38.511719-17.269532 38.511719-38.511719v-191.886719c0-65.878906-53.589844-119.46875-119.464844-119.46875zm25.597656 408.183594c-4.574218-2.933594-8.53125-10.28125-8.53125-19.917969 0-9.632813 3.957032-16.980469 8.53125-19.914063zm0-57.78125c-14.632812 2.613281-25.597656 18.21875-25.597656 37.863281s10.964844 35.25 25.597656 37.863281v46.136719c-12.210937-8.035156-26.128906-21.664063-24.011718-34.132813 3.941406-23.242187-18.023438-42.871093-27.1875-49.933593v-38.332031h51.199218zm-8.53125 144.53125h-34.132812c-4.703125 0-8.535156-3.824219-8.535156-8.535156v-75.136719c6.289062 6.9375 11.769531 15.746093 10.359374 24.023437-4.402343 25.90625 22.5625 47.058594 39.230469 55.824219-1.539062 2.253906-3.996093 3.824219-6.921875 3.824219zm85.332032-183.578125c0 11.824219-9.617188 21.445312-21.445313 21.445312h-161.910156c-11.824219 0-21.441407-9.617187-21.441407-21.445312v-191.886719c0-56.464844 45.933594-102.402344 102.398438-102.402344s102.398438 45.9375 102.398438 102.402344zm0 0"/><path d="m72.535156 256c-16.46875 0-29.867187 13.398438-29.867187 29.867188s13.398437 29.867187 29.867187 29.867187 29.867188-13.398437 29.867188-29.867187-13.398438-29.867188-29.867188-29.867188zm0 42.667969c-7.058594 0-12.800781-5.746094-12.800781-12.800781 0-7.058594 5.742187-12.800782 12.800781-12.800782s12.800782 5.746094 12.800782 12.800782c0 7.054687-5.746094 12.800781-12.800782 12.800781zm0 0"/></svg>