<svg height="512pt" viewBox="-128 0 512 512.00156" width="512pt" xmlns="http://www.w3.org/2000/svg"><path d="m132.75 0h-9.53125c-67.9375 0-123.21875 56.003906-123.21875 124.832031v255.375c0 23.96875 19.285156 43.46875 42.984375 43.46875h53.886719v61.847657c0 14.597656 11.878906 26.476562 26.480468 26.476562h8.824219c14.597657 0 26.480469-11.878906 26.480469-26.476562v-61.855469h54.316406c23.710938 0 42.984375-19.5 42.984375-43.472657v-255.363281c.007813-68.828125-55.261719-124.832031-123.207031-124.832031zm8.261719 485.511719c0 4.871093-3.953125 8.828125-8.824219 8.828125h-8.828125c-4.871094 0-8.828125-3.957032-8.828125-8.828125v-61.785157h26.480469zm97.300781-348.121094-220.660156 220.660156v-85.371093l204.535156-204.523438c10.160156 16.460938 16.136719 35.855469 16.136719 56.675781v12.558594zm-26.722656-83.59375-193.9375 193.921875v-85.367188l141.25-141.230468c20.691406 5.375 38.917968 16.9375 52.6875 32.675781zm-88.371094-36.144531h9.53125c1.492188 0 2.949219.167968 4.421875.230468l-119.519531 119.519532v-12.570313c0-59.101562 47.363281-107.179687 105.566406-107.179687zm-105.308594 365.113281 220.402344-220.40625v81.460937l-161.945312 161.953126c-.070313.070312-.085938.167968-.160157.238281h-33.214843c-13.113282 0-23.792969-10.238281-25.082032-23.246094zm195.070313 23.246094h-111.890625l137.234375-137.230469v111.414062c-.011719 14.238282-11.371094 25.816407-25.34375 25.816407zm0 0"/></svg>