<svg height="512pt" viewBox="-126 0 512 512.00156" width="512pt" xmlns="http://www.w3.org/2000/svg"><path d="m134.507812 0h-9.675781c-68.828125 0-124.832031 56.003906-124.832031 124.832031v255.375c0 23.96875 19.496094 43.46875 43.472656 43.46875h53.40625v61.847657c0 14.597656 11.878906 26.476562 26.480469 26.476562h8.828125c14.597656 0 26.476562-11.878906 26.476562-26.476562v-61.855469h57.195313c23.972656 0 43.472656-19.5 43.472656-43.472657v-255.363281c.007813-68.828125-55.996093-124.832031-124.824219-124.832031zm6.511719 485.511719c0 4.871093-3.953125 8.828125-8.824219 8.828125h-8.828124c-4.871094 0-8.828126-3.957032-8.828126-8.828125v-61.785157h26.480469zm100.664063-105.316407c0 14.230469-11.585938 25.816407-25.816406 25.816407h-172.386719c-14.226563 0-25.816407-11.585938-25.816407-25.816407v-255.363281c0-59.101562 48.078126-107.179687 107.179688-107.179687h9.671875c59.09375 0 107.179687 48.078125 107.179687 107.179687v255.363281zm0 0"/><path d="m202.910156 188.074219c-4.878906 0-8.824218 3.945312-8.824218 8.824219v43.542968c0 8.472656-6.886719 15.355469-15.359376 15.355469-8.472656 0-15.359374-6.882813-15.359374-15.355469v-43.542968c0-4.878907-3.945313-8.824219-8.824219-8.824219-4.882813 0-8.828125 3.945312-8.828125 8.824219v43.542968c0 18.207032 14.8125 33.011719 33.011718 33.011719 18.199219 0 33.011719-14.8125 33.011719-33.011719v-43.542968c0-4.878907-3.945312-8.824219-8.828125-8.824219zm0 0"/><path d="m118.902344 309.433594c-4.882813 0-8.828125 3.945312-8.828125 8.828125v24.183593c0 8.472657-6.894531 15.359376-15.367188 15.359376-8.472656 0-15.355469-6.886719-15.355469-15.359376v-24.183593c0-4.882813-3.945312-8.828125-8.828124-8.828125-4.882813 0-8.828126 3.945312-8.828126 8.828125v24.183593c0 18.210938 14.8125 33.011719 33.011719 33.011719s33.019531-14.8125 33.019531-33.011719v-24.183593c0-4.882813-3.953124-8.828125-8.824218-8.828125zm0 0"/><path d="m90.976562 176.351562c18.207032 0 33.007813-14.8125 33.007813-33.011718v-24.183594c0-4.882812-3.945313-8.828125-8.824219-8.828125-4.882812 0-8.828125 3.945313-8.828125 8.828125v24.183594c0 8.472656-6.882812 15.359375-15.355469 15.359375-8.476562 0-15.359374-6.886719-15.359374-15.359375v-24.183594c0-4.882812-3.945313-8.828125-8.828126-8.828125-4.878906 0-8.824218 3.945313-8.824218 8.828125v24.183594c-.007813 18.210937 14.800781 33.011718 33.011718 33.011718zm0 0"/></svg>