<svg height="512pt" viewBox="-141 0 512 512.00273" width="512pt" xmlns="http://www.w3.org/2000/svg"><path d="m228.980469 243.445312c2.414062-9.042968 1.191406-18.472656-3.460938-26.535156-2.894531-5.011718-6.996093-9.003906-11.78125-11.992187 14.238281-10.398438 18.777344-30.007813 9.769531-45.613281-2.800781-4.84375-6.726562-8.730469-11.300781-11.6875 7.234375-4.695313 12.5-11.738282 14.765625-20.167969 2.414063-9.042969 1.1875-18.472657-3.464844-26.535157-2.832031-4.90625-6.753906-8.738281-11.195312-11.652343 15.375-10.09375 20.492188-30.515625 11.195312-46.632813-9.65625-16.714844-31.101562-22.445312-47.308593-13.0625l-13.847657 6.894532c.296876-6.953126-1.460937-13.828126-5.195312-19.847657-10.179688-16.378906-31.792969-21.410156-47.457031-11.65625l-92.472657 45.867188c-16.375 10.179687-21.421874 31.792969-11.25 48.171875 2.652344 4.261718 6.160157 7.761718 10.21875 10.480468-7.339843 4.695313-12.683593 11.796876-14.976562 20.316407-2.414062 9.042969-1.1875 18.472656 3.464844 26.535156 2.78125 4.8125 6.671875 8.679687 11.203125 11.632813-7.1875 4.707031-12.417969 11.714843-14.675781 20.117187-2.414063 9.042969-1.1914068 18.472656 3.464843 26.539063 2.796875 4.84375 6.722657 8.726562 11.296875 11.683593-7.234375 4.707031-12.496094 11.738281-14.761718 20.167969-2.414063 9.042969-1.1914068 18.472656 3.464843 26.539062 2.804688 4.863282 6.75 8.753907 11.351563 11.71875-6.613282 4.695313-11.457032 11.367188-13.601563 19.339844-2.4140622 9.042969-1.1875 18.46875 3.464844 26.535156 4.652344 8.074219 12.207031 13.855469 21.253906 16.269532 3.070313.832031 6.183594 1.230468 9.25 1.230468 5.984375 0 11.800781-1.519531 16.796875-4.425781l12.804688-6.339843c-.378906 7.085937 1.34375 14.089843 5.140625 20.222656.070312.105468.148437.191406.210937.296875v127.90625c0 14.46875 11.773438 26.242187 26.242188 26.242187h34.984375c9.679687 0 18.058593-5.335937 22.609375-13.15625 1.652344-1.136718 2.945312-2.800781 3.503906-4.878906.449219-1.644531.238281-3.253906-.226562-4.777344.148437-1.136718.351562-2.253906.351562-3.425781v-51.082031c.035156-.304688.183594-.578125.183594-.890625 0-.316407-.148438-.585938-.183594-.890625v-41.949219c.035156-.304687.183594-.578125.183594-.890625 0-.316406-.148438-.585938-.183594-.894531v-39.898438l52.25-25.917969c16.378906-10.1875 21.429688-31.808593 11.246094-48.191406-2.632813-4.234375-6.035156-7.671875-9.890625-10.328125l.269531-.132812c8.101562-4.660157 13.875-12.199219 16.292969-21.253907zm-188.832031 28.757813c-7.625 2.371094-16.152344-.734375-20.308594-7.933594-4.828125-8.351562-1.957032-19.066406 5.921875-23.632812l21.863281-10.878907c1.507812-.59375 2.984375-1.269531 4.375-2.074218l133.695312-66.535156c2.351563-1.128907 4.84375-1.816407 7.425782-1.816407 1.539062 0 3.078125.199219 4.601562.609375 4.527344 1.214844 8.300782 4.09375 10.625 8.117188 4.828125 8.351562 1.957032 19.074218-5.921875 23.640625l-60.875 30.289062zm-9.679688-58.214844c-4.53125-1.214843-8.300781-4.09375-10.628906-8.117187-4.824219-8.351563-1.957032-19.074219 5.921875-23.640625l21.132812-10.511719c1.765625-.648438 3.488281-1.382812 5.109375-2.320312l135.050782-67.207032c2.003906-.761718 4.058593-1.269531 6.121093-1.269531 6.054688 0 11.941407 3.132813 15.175781 8.738281 2.328126 4.023438 2.9375 8.730469 1.714844 13.269532-1.214844 4.539062-4.09375 8.308593-7.636718 10.371093l-24.136719 12.019531c-.691407.332032-1.4375.5625-2.101563.945313l-134.691406 67.03125c-3.484375 1.390625-7.308594 1.6875-11.03125.691406zm153.996094-169.015625c2.746094-1.589844 5.746094-2.34375 8.710937-2.34375 6.050781 0 11.9375 3.132813 15.175781 8.738282 4.828126 8.355468 1.957032 19.074218-5.921874 23.640624l-21.769532 10.828126c-1.511718.59375-3.035156 1.171874-4.46875 2.003906l-135.894531 67.617187c-3.15625 1.007813-6.539063 1.109375-9.839844.238281-4.527343-1.214843-8.300781-4.09375-10.625-8.117187-2.328125-4.023437-2.9375-8.730469-1.714843-13.265625 1.214843-4.542969 4.09375-8.308594 7.636718-10.375l19.511719-9.707031c2.914063-.824219 5.667969-2.023438 8.160156-3.578125l92.46875-45.875c.839844-.523438 1.546875-1.199219 2.332031-1.785156zm-158.730469 21.121094 92.476563-45.871094c3.9375-2.46875 8.632812-3.210937 13.199218-2.144531s8.4375 3.824219 10.886719 7.757813c2.449219 3.945312 3.210937 8.632812 2.144531 13.207031-.824218 3.523437-2.660156 6.605469-4.925781 8.773437l-99.804687 49.671875c-2.597657.609375-5.308594.683594-7.984376.0625-4.566406-1.066406-8.4375-3.832031-10.886718-7.777343-5.09375-8.1875-2.566406-18.996094 4.894531-23.679688zm75.324219 308.09375c.507812 0 1.015625-.082031 1.53125-.105469 6.0625-.011719 12.125-1.539062 17.484375-4.863281.902343-.339844 1.785156-.71875 2.765625-1.261719l18.496094-9.324219v23.503907c-17.613282 3.078125-30.425782 15.023437-30.425782 29.789062 0 14.761719 12.8125 26.710938 30.425782 29.789063v37.320312c-12.917969-6.015625-26.070313-15.835937-24.550782-22.390625 4.515625-19.328125-17.570312-34.378906-27.925781-40.265625v-44.421875c3.925781 1.441407 8.054687 2.230469 12.199219 2.230469zm40.285156 49.660156c-7.914062-2.25-12.9375-7.277344-12.9375-11.921875s5.023438-9.671875 12.9375-11.917969zm-43.730469 70.671875c-4.828125 0-8.746093-3.917969-8.746093-8.746093v-48.507813c6.699218 5.109375 11.914062 11.054687 10.898437 15.410156-4.507813 19.347657 17 33.980469 33.410156 41.730469-.203125.015625-.375.113281-.578125.113281zm94.90625-218.363281c1.347657 0 2.710938.167969 4.058594.484375 4.566406 1.066406 8.4375 3.828125 10.886719 7.773437 5.09375 8.195313 2.574218 18.996094-4.894532 23.675782l-92.46875 45.867187c-2.738281 1.707031-5.765624 2.484375-8.78125 2.554688-5.449218-.316407-10.703124-3.125-13.816406-8.046875l-3.699218-5.835938c-.5-2.441406-.515626-4.976562.070312-7.496094.925781-3.976562 3.164062-7.347656 5.839844-9.523437l98.710937-48.882813c1.347657-.332031 2.710938-.570312 4.09375-.570312zm19.566407-37.230469c-1.214844 4.527344-4.09375 8.300781-7.617188 10.363281l-21.9375 10.863282c-2.640625.8125-5.230469 1.855468-7.652344 3.367187l-92.46875 45.867188c-.460937.289062-.832031.671875-1.277344.980469l-36.183593 17.914062c-4.039063 2.324219-8.761719 2.917969-13.265625 1.710938-4.539063-1.214844-8.300782-4.101563-10.625-8.113282v-.011718c-2.328125-4.023438-2.941406-8.730469-1.714844-13.265626 1.214844-4.53125 4.09375-8.300781 7.617188-10.367187l19.757812-9.785156c1.828125-.65625 3.601562-1.410157 5.273438-2.378907l97.800781-48.664062 36.675781-18.15625c2.667969-1.550781 5.640625-2.335938 8.65625-2.335938 1.53125 0 3.078125.199219 4.601562.609376 4.53125 1.21875 8.300782 4.101562 10.625 8.128906 2.328126 4.019531 2.949219 8.730468 1.734376 13.273437zm0 0"/><path d="m57.335938 118.292969-17.492188 8.75c-4.320312 2.15625-6.070312 7.414062-3.910156 11.734375 1.539062 3.070312 4.617187 4.839844 7.835937 4.839844 1.3125 0 2.652344-.296876 3.898438-.917969l17.496093-8.746094c4.320313-2.160156 6.070313-7.417969 3.910157-11.738281-2.167969-4.332032-7.417969-6.074219-11.738281-3.921875zm0 0"/><path d="m188.53125 170.773438-17.492188 8.746093c-4.320312 2.160157-6.070312 7.417969-3.910156 11.738281 1.539063 3.070313 4.617188 4.835938 7.835938 4.835938 1.3125 0 2.652344-.296875 3.902344-.917969l17.492187-8.746093c4.320313-2.160157 6.070313-7.417969 3.910156-11.738282-2.171875-4.332031-7.425781-6.0625-11.738281-3.917968zm0 0"/><path d="m174.957031 309.789062c1.3125 0 2.652344-.296874 3.902344-.917968l17.492187-8.75c4.320313-2.160156 6.070313-7.414063 3.910157-11.734375-2.171875-4.324219-7.425781-6.054688-11.738281-3.910157l-17.492188 8.746094c-4.324219 2.160156-6.070312 7.414063-3.910156 11.738282 1.546875 3.058593 4.625 4.828124 7.835937 4.828124zm0 0"/><path d="m104.988281 56.140625c1.308594 0 2.648438-.296875 3.898438-.917969l17.492187-8.746094c4.324219-2.160156 6.070313-7.414062 3.910156-11.738281-2.160156-4.320312-7.410156-6.058593-11.726562-3.90625l-17.496094 8.746094c-4.320312 2.160156-6.070312 7.414063-3.910156 11.738281 1.539062 3.058594 4.621094 4.824219 7.832031 4.824219zm0 0"/></svg>