<svg height="512pt" viewBox="-141 0 512 512" width="512pt" xmlns="http://www.w3.org/2000/svg"><path d="m146.140625 0h-61.882813c-46.457031 0-84.257812 37.800781-84.257812 84.257812v248.542969c0 23.527344 19.140625 42.664063 42.667969 42.664063h25.597656v110.933594c0 14.113281 11.488281 25.601562 25.601563 25.601562h34.132812c10.761719 0 19.953125-6.691406 23.730469-16.121094.691406-.878906 1.261719-1.851562 1.578125-2.996094.359375-1.328124.300781-2.644531.035156-3.914062.085938-.855469.253906-1.691406.253906-2.570312v-110.933594h34.132813c23.527343 0 42.667969-19.136719 42.667969-42.664063v-248.542969c0-46.457031-37.800782-84.257812-84.257813-84.257812zm-9.609375 408.472656c-7.824219-2.167968-12.796875-7.109375-12.796875-11.671875 0-4.566406 4.972656-9.507812 12.796875-11.675781zm0 17.433594v52.488281c-12.664062-5.863281-25.617188-15.503906-24.113281-21.921875 4.367187-18.738281-16.898438-33.375-27.085938-39.195312v-41.8125h32.640625c-7.007812 5.386718-11.308594 12.886718-11.308594 21.335937 0 14.453125 12.589844 26.152344 29.867188 29.105469zm-42.664062 69.027344c-4.710938 0-8.535157-3.824219-8.535157-8.535156v-48.683594c6.402344 4.949218 11.433594 10.710937 10.472657 14.867187-4.628907 19.804688 18.710937 34.566407 34.925781 41.796875-.871094.296875-1.765625.550782-2.730469.550782h-34.132812zm59.730468-136.535156h-110.929687c-5.285157 0-10.199219-1.613282-14.277344-4.359376l.007813-.019531c-2.746094-1.859375-5.09375-4.195312-6.945313-6.945312l-.015625.011719c-2.757812-4.089844-4.371094-9.003907-4.371094-14.285157v-76.816406c.332032.253906.71875.433594 1.066406.671875.691407.488281 1.410157.90625 2.125 1.347656 1.460938.90625 2.960938 1.734375 4.53125 2.460938.820313.382812 1.632813.738281 2.476563 1.066406 1.65625.644531 3.371094 1.152344 5.121094 1.59375.792969.195312 1.558593.445312 2.371093.597656 2.566407.496094 5.195313.808594 7.910157.808594h8.53125c23.527343 0 42.667969-19.136719 42.667969-42.664062v-75.195313c0-11.820313 7.335937-22.136719 17.457031-25.765625.574219-.195312 1.144531-.382812 1.734375-.535156.820312-.222656 1.65625-.382813 2.5-.511719s1.699218-.214844 2.566406-.265625c.914062-.050781 1.828125-.042969 2.722656 0 .863282.050781 1.714844.128906 2.554688.253906.894531.136719 1.78125.332032 2.652344.574219.765624.203125 1.519531.425781 2.253906.699219.9375.347656 1.851562.765625 2.746094 1.234375.589843.308593 1.1875.605469 1.75.949219 1.015624.628906 1.980468 1.355468 2.910156 2.132812.382812.316406.792968.613281 1.152344.957031 1.023437.953125 1.929687 2.003907 2.773437 3.097657.203125.261718.441406.503906.640625.777343.921875 1.285157 1.695312 2.660157 2.363281 4.085938.066407.136719.152344.265625.222657.410156.691406 1.550781 1.21875 3.183594 1.585937 4.839844.011719.050781.035156.101562.050781.160156.367188 1.730469.566406 3.507813.566406 5.300781v17.066406c0 23.523438 19.136719 42.664063 42.664063 42.664063 2.714844 0 5.34375-.316406 7.917969-.800781.8125-.15625 1.582031-.402344 2.375-.597656 1.746094-.433594 3.460937-.945313 5.117187-1.59375.84375-.332032 1.65625-.691407 2.476563-1.066407 1.566406-.726562 3.070312-1.554687 4.53125-2.457031.714844-.445312 1.441406-.871094 2.125-1.351562.339844-.238282.726562-.425782 1.066406-.671876v136.539063c0 5.285156-1.613281 10.199219-4.363281 14.277344l-.015625-.007813c-1.859375 2.746094-4.195313 5.09375-6.945313 6.945313l.007813.015625c-4.09375 2.757812-9.007813 4.371094-14.292969 4.371094zm34.132813-170.664063c-14.113281 0-25.597657-11.484375-25.597657-25.601563v-17.066406c0-3.023437-.332031-5.964844-.9375-8.808594-.0625-.28125-.1875-.535156-.257812-.808593-.597656-2.585938-1.390625-5.085938-2.441406-7.46875-.222656-.503907-.546875-.964844-.792969-1.460938-1.015625-2.078125-2.125-4.101562-3.457031-5.988281-.476563-.671875-1.066406-1.261719-1.578125-1.917969-1.269531-1.597656-2.585938-3.140625-4.070313-4.539062-.210937-.199219-.359375-.445313-.570312-.640625-.539063-.488282-1.1875-.820313-1.75-1.273438-1.441406-1.179687-2.910156-2.304687-4.507813-3.292968-.929687-.570313-1.890625-1.050782-2.855469-1.554688-1.570312-.808594-3.167968-1.550781-4.839843-2.167969-1.089844-.398437-2.183594-.714843-3.300781-1.023437-1.613282-.445313-3.246094-.808594-4.925782-1.066406-1.296875-.195313-2.59375-.316407-3.90625-.390626-.835937-.0625-1.628906-.265624-2.472656-.265624-.769531 0-1.488281.1875-2.246094.230468-.710937.035156-1.410156-.085937-2.117187-.007812-.75.078125-1.441407.324218-2.175781.441406-1.363282.214844-2.695313.480469-4.011719.820312-1.089844.289063-2.15625.621094-3.214844 1-1.84375.628907-3.601563 1.363282-5.324219 2.234376-.222656.121093-.4375.230468-.648437.351562-13.5625 7.152344-22.929688 21.230469-22.929688 37.597656v76.800782c0 14.113281-11.484375 25.601562-25.601562 25.601562h-8.53125c-14.117188 0-25.601563-11.488281-25.601563-25.601562v-137.609376c0-37.050781 30.140625-67.191406 67.191406-67.191406h61.882813c37.050781 0 67.191406 30.140625 67.191406 67.191406v77.875c0 14.113282-11.484375 25.601563-25.601562 25.601563zm0 0"/></svg>