<svg height="511pt" viewBox="-47 1 511 511.99836" width="511pt" xmlns="http://www.w3.org/2000/svg"><path d="m143.753906 328.832031c-2.515625 11.554688 4.816406 22.96875 16.371094 25.480469 11.550781 2.515625 22.964844-4.816406 25.480469-16.367188 2.511719-11.550781-5.746094-74.296874-5.746094-74.296874-.214844-.054688-33.578125 53.632812-36.105469 65.183593zm0 0"/><path d="m257.253906 263.640625s-8.257812 62.742187-5.742187 74.296875c2.511719 11.550781 13.917969 18.882812 25.480469 16.367188 11.550781-2.515626 18.878906-13.917969 16.367187-25.480469-2.515625-11.542969-35.882813-65.230469-36.105469-65.183594zm0 0"/><path d="m403.878906 369.4375c-8.554687-5.054688-13.667968-14-13.667968-23.917969 0-4.621093 1.132812-9.023437 3.351562-13.066406 5.074219-9.253906 5.074219-20.292969 0-29.535156-2.230469-4.054688-3.351562-8.453125-3.351562-13.074219 0-4.488281 1.039062-8.777344 3.070312-12.730469 4.519531-8.738281 4.722656-18.660156.578125-27.203125-2.421875-4.976562-3.648437-10.265625-3.648437-15.738281 0-2.503906.25-5.019531.753906-7.476563l2.289062-11.292968-11.523437.167968-.796875.042969c-25.582032 0-46.394532-20.8125-46.394532-46.394531 0-4.554688.65625-9.0625 1.96875-13.386719 2.707032-8.972656.804688-18.78125-5.09375-26.25-6.015624-7.601562-15.273437-11.804687-24.878906-11.199219-15.664062.953126-33.089844 3.746094-53.253906 8.515626-7.246094 1.71875-14.703125 2.609374-22.210938 3.121093 5.519532-41.132812 34.070313-72.179687 67.03125-71.003906 5.304688.269531 9.425782-3.8125 9.609376-8.9375.1875-5.121094-3.8125-9.425781-8.933594-9.609375-33.042969-1.03125-62.222656 21.332031-77.015625 54.714844l-4.378907-29.488282c-4.648437-31.25-28.78125-55.382812-60.035156-60.042968l-37.960937-5.652344 5.652343 37.960938c4.660157 31.25 28.792969 55.375 60.035157 60.03125l33.570312 5.003906c-3.035156 8.488281-5.222656 17.535156-6.300781 27.046875-7.894531-.511719-15.785156-1.457031-23.558594-3.285157-42.914062-10.113281-97.160156-17.742187-136.167968 13.324219-35.5 28.253907-52.5468755 83.890625-52.109376 170.074219.332032 64.839844 38.480469 136.871094 92.789063 175.167969 25.023437 17.644531 51.878906 26.675781 78.257813 26.675781 12.839843 0 25.582031-2.144531 37.929687-6.46875 7.765625-2.726562 16.035156-2.71875 23.894531.027344 54.316406 18.996094 131.5625-3.394532 181.671875-96.238282 7.625-14.152343 2.71875-31.660156-11.171875-39.882812zm-216.078125-289.796875c-23.113281-3.441406-40.964843-21.285156-44.40625-44.40625l-1.960937-13.1875 13.175781 1.957031c23.125 3.445313 40.976563 21.296875 44.410156 44.417969l1.96875 13.175781zm210.917969 320.855469c-32.355469 59.96875-94.132812 110.285156-159.214844 87.542968-5.945312-2.074218-12.054687-3.117187-18.148437-3.117187-6.066407 0-12.128907 1.03125-18 3.089844-40.902344 14.347656-76.597657-1.800781-99.351563-17.851563-48.90625-34.496094-84.621094-101.824218-84.917968-160.097656-.425782-80.128906 14.335937-130.980469 45.09375-155.464844 25.574218-20.359375 62.667968-23.375 120.347656-9.78125 11.429687 2.691406 23.113281 4.082032 34.75 4.25.425781.074219.796875.285156 1.242187.296875h.34375c.480469 0 .910157-.195312 1.371094-.269531 11.960937-.046875 23.839844-1.410156 35.335937-4.128906 19.125-4.53125 35.511719-7.164063 50.105469-8.0625 3.609375-.175782 6.914063 1.304687 9.1875 4.183594 2.171875 2.746093 2.863281 6.160156 1.890625 9.371093-1.835937 6.058594-2.765625 12.367188-2.765625 18.753907 0 32.667968 24.238281 59.773437 55.675781 64.292968v.65625c0 8.304688 1.855469 16.324219 5.511719 23.847656 1.566407 3.230469 1.4375 7.082032-.375 10.585938-3.355469 6.535156-5.136719 13.875-5.136719 21.242188 0 7.664062 1.945313 15.273437 5.632813 22 2.066406 3.765624 2.066406 7.914062 0 11.679687-3.6875 6.726563-5.632813 14.335937-5.632813 22 0 16.304687 8.730469 31.585937 22.777344 39.890625 5.269532 3.136719 7.15625 9.753906 4.277344 15.089844zm0 0"/></svg>