<svg height="512pt" viewBox="-161 0 512 512" width="512pt" xmlns="http://www.w3.org/2000/svg"><path d="m137.738281 192.027344v-22.980469c0-4.71875-3.816406-8.535156-8.535156-8.535156s-8.53125 3.816406-8.53125 8.535156v22.980469c0 2.292968-1.945313 4.238281-4.242187 4.238281-2.292969 0-4.230469-1.945313-4.230469-4.238281v-22.980469c0-4.71875-3.816407-8.535156-8.535157-8.535156s-8.535156 3.816406-8.535156 8.535156v22.980469c0 11.746094 9.558594 21.304687 21.300782 21.304687 11.75 0 21.308593-9.558593 21.308593-21.304687zm0 0"/><path d="m84.839844 238.992188c-4.71875 0-8.535156 3.816406-8.535156 8.535156v12.765625c0 2.304687-1.945313 4.238281-4.234376 4.238281-2.300781 0-4.238281-1.945312-4.238281-4.238281v-12.765625c0-4.71875-3.816406-8.535156-8.535156-8.535156s-8.53125 3.816406-8.53125 8.535156v12.765625c0 11.75 9.558594 21.308593 21.304687 21.308593 11.742188 0 21.300782-9.558593 21.300782-21.308593v-12.765625c0-4.71875-3.8125-8.535156-8.53125-8.535156zm0 0"/><path d="m137.675781 298.726562c-4.71875 0-8.53125 3.8125-8.53125 8.53125v12.769532c0 2.300781-1.945312 4.238281-4.234375 4.238281-2.296875 0-4.238281-1.945313-4.238281-4.238281v-12.769532c0-4.71875-3.816406-8.53125-8.535156-8.53125s-8.53125 3.8125-8.53125 8.53125v12.769532c0 11.75 9.554687 21.304687 21.304687 21.304687 11.742188 0 21.300782-9.554687 21.300782-21.304687v-12.769532c0-4.71875-3.8125-8.53125-8.535157-8.53125zm0 0"/><path d="m82.246094 127.613281c11.742187 0 21.296875-9.554687 21.296875-21.304687v-12.765625c0-4.722657-3.8125-8.535157-8.53125-8.535157s-8.535157 3.8125-8.535157 8.535157v12.765625c0 2.304687-1.945312 4.238281-4.230468 4.238281-2.304688 0-4.242188-1.945313-4.242188-4.238281v-12.765625c0-4.722657-3.8125-8.535157-8.53125-8.535157-4.722656 0-8.535156 3.8125-8.535156 8.535157v12.765625c0 11.75 9.558594 21.304687 21.308594 21.304687zm0 0"/><path d="m146.269531 42.078125c-.316406-23.253906-19.335937-42.078125-42.664062-42.078125h-17.070313c-23.328125 0-42.347656 18.824219-42.664062 42.078125l-43.871094 333.386719h52.402344v110.933594c0 14.113281 11.488281 25.601562 25.601562 25.601562h34.132813c10.761719 0 19.953125-6.691406 23.730469-16.121094.691406-.878906 1.261718-1.851562 1.578124-2.996094.359376-1.328124.300782-2.644531.035157-3.914062.085937-.855469.257812-1.691406.257812-2.570312v-110.933594h52.402344zm-25.597656 366.394531c-7.824219-2.167968-12.800781-7.109375-12.800781-11.671875 0-4.566406 4.976562-9.507812 12.800781-11.675781zm0 17.433594v52.488281c-12.664063-5.863281-25.617187-15.503906-24.117187-21.921875 4.367187-18.738281-16.894532-33.375-27.082032-39.195312v-41.8125h32.636719c-7.003906 5.386718-11.304687 12.886718-11.304687 21.335937 0 14.453125 12.585937 26.152344 29.867187 29.105469zm-42.667969 69.027344c-4.710937 0-8.53125-3.824219-8.53125-8.535156v-48.683594c6.398438 4.949218 11.433594 10.710937 10.46875 14.867187-4.625 19.804688 18.714844 34.566407 34.925782 41.796875-.867188.296875-1.765626.550782-2.730469.550782h-34.132813zm-25.601562-136.535156h-32.929688l41.398438-314.613282.066406-1.117187c0-14.117188 11.484375-25.601563 25.601562-25.601563h17.066407c14.113281 0 25.601562 11.484375 25.601562 25.601563l41.460938 315.730469zm0 0"/></svg>