<svg height="511pt" viewBox="-15 1 511 511.99958" width="511pt" xmlns="http://www.w3.org/2000/svg"><path d="m103.160156 101.710938c9.851563 0 19.710938-3.746094 27.226563-11.253907 3.558593-3.546875 3.558593-9.304687 0-12.859375-3.558594-3.558594-9.3125-3.558594-12.871094 0-7.914063 7.902344-20.804687 7.902344-28.71875 0-3.554687-3.558594-9.3125-3.558594-12.859375 0-3.558594 3.554688-3.558594 9.304688 0 12.859375 7.5 7.503907 17.363281 11.253907 27.222656 11.253907zm0 0"/><path d="m147.695312 379.875c-2.128906-4.550781-7.53125-6.503906-12.097656-4.375-4.546875 2.117188-6.511718 7.539062-4.382812 12.085938l25.140625 53.707031c1.546875 3.304687 4.820312 5.238281 8.242187 5.238281 1.289063 0 2.601563-.269531 3.847656-.863281 4.546876-2.117188 6.511719-7.539063 4.382813-12.089844zm0 0"/><path d="m377.984375 375.5c-4.539063-2.136719-9.96875-.183594-12.097656 4.375l-25.144531 53.703125c-2.128907 4.550781-.171876 9.972656 4.386718 12.089844 1.246094.582031 2.554688.863281 3.847656.863281 3.417969 0 6.695313-1.933594 8.238282-5.238281l25.144531-53.707031c2.128906-4.546876.171875-9.96875-4.375-12.085938zm0 0"/><path d="m300.101562 393.800781c-4.96875-.738281-9.625 2.617188-10.398437 7.585938l-8.378906 53.707031c-.773438 4.964844 2.628906 9.621094 7.585937 10.394531.472656.074219.945313.109375 1.417969.109375 4.402344 0 8.277344-3.210937 8.976563-7.695312l8.378906-53.703125c.765625-4.96875-2.625-9.625-7.582032-10.398438zm0 0"/><path d="m213.484375 393.800781c-4.960937.773438-8.359375 5.429688-7.585937 10.398438l8.378906 53.703125c.699218 4.484375 4.574218 7.695312 8.976562 7.695312.460938 0 .945313-.035156 1.417969-.109375 4.957031-.769531 8.359375-5.429687 7.585937-10.394531l-8.378906-53.707031c-.78125-4.96875-5.429687-8.324219-10.394531-7.585938zm0 0"/><path d="m256.808594 183.242188c39.34375 0 76.820312-5.039063 108.367187-14.5625 4.8125-1.445313 7.53125-6.523438 6.078125-11.335938-1.457031-4.800781-6.542968-7.511719-11.34375-6.074219-29.863281 9.015625-65.523437 13.78125-103.109375 13.78125-5.023437 0-9.097656 4.066407-9.097656 9.097657 0 5.027343 4.085937 9.09375 9.105469 9.09375zm0 0"/><path d="m89.832031 251.457031c9.097657 4.757813 18.832031 9.042969 28.9375 12.71875 1.027344.371094 2.085938.554688 3.113281.554688 3.710938 0 7.203126-2.292969 8.539063-5.976563 1.71875-4.730468-.710937-9.941406-5.429687-11.660156-9.351563-3.414062-18.347657-7.371094-26.734376-11.746094-4.449218-2.347656-9.941406-.601562-12.28125 3.839844-2.320312 4.445312-.589843 9.941406 3.855469 12.269531zm0 0"/><path d="m199.226562 282.710938c18.257813 2.246093 36.742188 3.367187 55.308594 3.367187 20.085938 0 40.28125-1.320313 60.4375-3.9375 4.984375-.636719 8.496094-5.203125 7.851563-10.191406-.648438-4.984375-5.195313-8.484375-10.199219-7.839844-37.277344 4.839844-74.679688 5.03125-111.175781.554687-4.910157-.617187-9.523438 2.929688-10.140625 7.914063-.613282 4.996094 2.933594 9.527344 7.917968 10.132813zm0 0"/><path d="m355.597656 265.546875c1.109375 4.050781 4.765625 6.703125 8.769532 6.703125.789062 0 1.601562-.097656 2.398437-.316406 20.113281-5.496094 38.132813-12.398438 53.554687-20.539063 4.4375-2.355469 6.140626-7.851562 3.792969-12.300781-2.339843-4.4375-7.851562-6.128906-12.289062-3.800781-14.246094 7.523437-31.019531 13.945312-49.851563 19.085937-4.839844 1.328125-7.695312 6.320313-6.375 11.167969zm0 0"/><path d="m481.328125 284.894531c0-21.074219-11.371094-41.296875-32.972656-58.761719.628906-3.421874.945312-6.851562.945312-10.253906 0-26.769531-18.59375-51.71875-52.503906-70.640625-.800781-18.53125-6.394531-78.148437-44.546875-112.917969-21.523438-19.601562-49.492188-27.859374-83.222656-24.511718-3.121094.308594-5.859375 2.199218-7.25 5.011718-1.390625 2.820313-1.238282 6.152344.402344 8.816407 5.757812 9.367187 15.84375 31.972656 10.285156 42.027343-2.390625 4.335938-8.449219 6.585938-18 6.675782-23.46875.234375-46.382813 3.171875-66.960938 8.296875-2.773437-3.902344-5.828125-7.652344-9.285156-11.109375-21.832031-21.820313-50.628906-31.617188-76.820312-28.851563-3.976563-7.550781-9.824219-15.59375-18.484376-22.414062-18.269531-14.402344-43.402343-19.277344-74.695312-14.464844-4.964844.761719-8.375 5.402344-7.613281 10.367187.757812 4.976563 5.457031 8.386719 10.371093 7.613282 26-3.976563 46.359376-.410156 60.492188 10.625 4.886719 3.8125 8.507812 8.203125 11.328125 12.589844-9.453125 3.476562-18.167969 8.824218-25.554687 16.210937l-8.3125 8.3125c-31.066407 31.066406-27.328126 85.335937 8.3125 120.976563 2.175781 2.171874 4.449218 4.183593 6.804687 6.082031-2.804687 7.085937-4.230469 14.230469-4.230469 21.296875 0 3.410156.316406 6.839844.9375 10.25-21.59375 17.46875-32.976562 37.6875-32.976562 58.765625 0 15.335937 5.96875 30.074219 17.628906 43.855469l34.347656 84.613281.4375.929687c28.964844 53.25 53.386719 66.8125 106.285156 87.089844 18.464844 7.078125 44.441407 10.625 70.394532 10.625 25.960937 0 51.898437-3.546875 70.234375-10.632812 52.988281-20.476563 77.394531-34.003907 105.792969-86.226563l44.128906-108.230469-.019532-.015625c2.847657-7.234375 4.320313-14.613281 4.320313-22zm-419.539063-204.515625 8.316407-8.3125c5.746093-5.75 12.617187-9.761718 20.066406-12.363281.980469 3.710937 1.308594 6.285156 1.328125 6.449219.417969 4.730468 4.382812 8.296875 9.050781 8.296875.253907 0 .507813-.011719.765625-.039063 5.011719-.417968 8.722656-4.808594 8.304688-9.824218-.039063-.378907-.328125-3.484376-1.464844-8.140626.664062-.019531 1.300781-.171874 1.964844-.171874 19.011718 0 39.324218 8.195312 55.222656 24.105468 3.996094 3.984375 7.34375 8.429688 10.171875 13.144532.015625.027343.007813.0625.027344.089843 5.792969 9.714844 8.832031 20.414063 9.367187 31.128907.019532.425781.054688.855468.066406 1.289062.097657 3.328125-.027343 6.660156-.417968 9.960938-.046875.355468-.113282.710937-.15625 1.0625-.910156 6.769531-2.855469 13.402343-5.792969 19.640624-.171875.375-.347656.746094-.53125 1.109376-1.472656 2.984374-3.171875 5.878906-5.109375 8.652343-.273438.390625-.574219.761719-.855469 1.152344-2.039062 2.792969-4.257812 5.496094-6.757812 8.007813-2.683594 2.679687-5.578125 5.046874-8.589844 7.195312-.246094.171875-.480469.371094-.726563.535156-3.039062 2.089844-6.214843 3.921875-9.496093 5.464844-.171875.082031-.335938.164062-.511719.238281-10.203125 4.710938-21.402344 6.757813-32.519531 6.085938-.261719-.019531-.519531-.019531-.78125-.039063-3.53125-.253906-7.050781-.808594-10.527344-1.617187-.324219-.082031-.652344-.164063-.980469-.246094-3.484375-.871094-6.929687-2-10.28125-3.457031-.144531-.066406-.289062-.144532-.433594-.210938-3.457031-1.527344-6.832031-3.335937-10.070312-5.492187-.027344-.019531-.0625-.019531-.082031-.039063-3.648438-2.4375-7.085938-5.257812-10.25-8.429687-28.546875-28.53125-32.277344-71.257813-8.316407-95.226563zm14.574219 156.679688c3.066407-2.265625 4.390625-6.222656 3.320313-9.878906-1.109375-3.765626-1.675782-7.570313-1.675782-11.300782 0-3.664062.585938-7.414062 1.757813-11.203125.664063.324219 1.335937.589844 2.007813.890625 4.832031 2.246094 9.859374 4.019532 15.046874 5.320313.78125.203125 1.5625.421875 2.355469.59375 1.519531.335937 3.046875.601562 4.585938.855469.90625.144531 1.816406.28125 2.734375.398437 1.53125.199219 3.058594.382813 4.597656.492187.863281.066407 1.726562.089844 2.589844.128907 1.347656.0625 2.683594.199219 4.050781.199219 4.363281 0 8.648437-.429688 12.886719-1.066407.363281-.054687.71875-.097656 1.082031-.152343 1.984375-.328126 3.941406-.71875 5.878906-1.183594.179688-.042969.363281-.089844.542969-.136719 6.230469-1.519531 12.246094-3.710937 17.957031-6.585937.117188-.054688.226563-.109376.347657-.164063 1.492187-.753906 2.9375-1.582031 4.382812-2.429687.8125-.472657 1.621094-.945313 2.414062-1.445313 1.164063-.738281 2.308594-1.492187 3.445313-2.285156 1.148437-.796875 2.265625-1.652344 3.382813-2.507813.828124-.648437 1.675781-1.265625 2.472656-1.949218 1.957031-1.625 3.859375-3.328126 5.6875-5.15625 2.792968-2.792969 5.285156-5.785157 7.632812-8.878907.488282-.644531.972656-1.28125 1.4375-1.9375 4.539063-6.332031 8.148438-13.195312 10.777344-20.457031.203125-.554688.402344-1.089844.59375-1.644531 2.425781-7.152344 3.894531-14.648438 4.355469-22.34375.046875-.816407.089843-1.625.117187-2.445313.027344-.929687.136719-1.847656.136719-2.785156 0-7.011719-.9375-13.863281-2.5625-20.503906-.066406-.246094-.117187-.488282-.183594-.746094-1.019531-4.007812-2.246093-7.957031-3.839843-11.761719 17.949218-4.039062 37.761718-6.257812 57.972656-6.464843 16.609375-.183594 27.964844-5.585938 33.75-16.101563 7.949218-14.425781 1.925781-34.136719-3.859375-47.136719 22.179687.28125 40.78125 7.132813 55.398437 20.421875 38.632813 35.140625 38.796875 104.28125 38.796875 104.972657-.011719 3.40625 1.882813 6.542968 4.902344 8.117187 30.609375 15.925781 47.472656 36.195313 47.472656 57.070313 0 3.71875-.5625 7.523437-1.671875 11.296874-1.074218 3.660157.246094 7.617188 3.320313 9.882813 13.863281 10.257813 30.390625 26.878906 30.390625 47.835937 0 3.320313-.425782 6.667969-1.289063 10.023438-.183593-.089844-.382812-.109375-.566406-.191406-2.34375-1.082032-4.773437-1.953125-7.3125-2.546875-.308594-.070313-.628906-.109375-.9375-.171875-2.5-.519532-5.066406-.828125-7.730469-.882813-.210937 0-.410156-.035156-.621094-.035156-2.703124-.019531-5.492187.261719-8.339843.714844-.554688.09375-1.109375.175781-1.675781.285156-2.800782.535156-5.65625 1.273437-8.578126 2.253906-.535156.183594-1.074218.402344-1.609374.589844-2.890626 1.046875-5.832032 2.265625-8.832032 3.742187-.21875.109376-.429687.191407-.65625.296876-3.109375 1.558593-6.277344 3.414062-9.46875 5.421874-.65625.410157-1.300781.8125-1.945312 1.230469-3.140625 2.046875-6.304688 4.3125-9.507813 6.785157-.617187.472656-1.226562.984374-1.84375 1.472656-3.367187 2.683594-6.75 5.511718-10.179687 8.660156-24.207032-16.445312-57.910156-5.546875-83.113282 16.25-24.378906-18.703125-58.683593-18.6875-83.042968.015625-1.910156-1.628906-3.875-3.183594-5.867188-4.683594-.59375-.445312-1.191406-.875-1.792968-1.300781-1.492188-1.082031-3.003907-2.121094-4.53125-3.121094-.617188-.410156-1.234376-.820312-1.855469-1.210937-2.074219-1.300781-4.164063-2.546875-6.292969-3.691407-.019531-.011718-.027344-.019531-.046875-.027343-2.144531-1.15625-4.328125-2.191407-6.511719-3.167969-.628906-.28125-1.246094-.527344-1.875-.789062-1.644531-.691407-3.304687-1.328126-4.957031-1.917969-.636719-.226563-1.265625-.457031-1.894531-.65625-2.210938-.71875-4.429688-1.375-6.640625-1.882813h-.007813c-2.230468-.519531-4.457031-.890625-6.679687-1.183594-.589844-.082031-1.179688-.125-1.78125-.179687-1.671875-.171875-3.347657-.273437-5.003907-.308594-.378906-.011719-.765624-.074219-1.136718-.074219-.226563 0-.453125.046876-.683594.046876-4.355469.054687-8.621094.617187-12.753906 1.734374-.5625.15625-1.109375.347657-1.671875.519532-1.546875.480468-3.066407 1.046875-4.558594 1.703125-.5625.246093-1.117187.472656-1.671875.742187-1.945312.945313-3.867188 1.984375-5.710938 3.230469-2.15625-1.972656-4.304687-3.847656-6.441406-5.640625-.691406-.570312-1.363281-1.101562-2.046875-1.65625-1.453125-1.179688-2.898437-2.355469-4.347656-3.445312-.789063-.601563-1.582031-1.164063-2.363281-1.738282-1.320313-.964844-2.640625-1.917968-3.957032-2.820312-.828124-.5625-1.65625-1.097656-2.472656-1.636719-1.257812-.816406-2.503906-1.609375-3.75-2.367187-.835937-.5-1.671875-.992188-2.5-1.460938-1.226562-.703125-2.445312-1.367188-3.65625-1.992188-.808594-.429687-1.628906-.847656-2.4375-1.238281-1.230468-.601562-2.4375-1.136719-3.648437-1.664062-.773438-.335938-1.546875-.683594-2.3125-.992188-1.261719-.507812-2.507813-.945312-3.753907-1.375-.683593-.234375-1.375-.5-2.046874-.710937-1.4375-.445313-2.847657-.808594-4.257813-1.152344-.464844-.109375-.9375-.265625-1.390625-.363281-1.867188-.402344-3.695312-.71875-5.496094-.929688-.363281-.042969-.71875-.035156-1.082031-.070312-1.417969-.136719-2.835937-.238281-4.222656-.253907-.644531.007813-1.246094.054688-1.851563.070313-1.109375.039063-2.210937.074219-3.292968.191406-.664063.074219-1.320313.183594-1.976563.28125-1 .15625-1.992187.328125-2.957031.546875-.664063.15625-1.308594.335938-1.957032.519532-.9375.269531-1.871093.574218-2.78125.910156-.621093.234375-1.238281.488281-1.847656.753906-.921875.402344-1.820312.835938-2.710937 1.308594-.5625.300781-1.128907.59375-1.683594.929687-.289063.171875-.601563.308594-.890625.488281-1.238281-4.027343-1.867188-8.09375-1.867188-12.167968.003907-20.964844 16.523438-37.582032 30.386719-47.84375zm340.316407 169.847656c-25.613282 46.9375-45.664063 58-96.121094 77.503906-32.046875 12.378906-95.238282 12.390625-127.558594-.011718-50.351562-19.308594-70.398438-30.390626-96.570312-78.347657l-34.640626-85.332031c0-.011719 0-.019531-.007812-.027344l-3.503906-8.605468c22.460937-12.679688 59.246094 21.628906 66.832031 29.097656l6.386719 6.277344 6.382812-6.277344c20.132813-19.820313 53.769532-1.101563 71.472656 16.332031l6.410157 6.3125 6.386719-6.351563c19.441406-19.347656 51.09375-19.347656 70.550781 0l6.414062 6.378907 6.421875-6.378907c16.164063-16.089843 45.789063-33.238281 65.867188-20.066406 1.621094 1.066406 3.191406 2.265625 4.675781 3.738282l6.40625 6.367187 6.410156-6.339844s.011719 0 .011719-.007812c.992188-.984375 2.492188-2.4375 4.382812-4.175781.171876-.164063.382813-.347657.5625-.507813.765626-.691406 1.574219-1.421875 2.449219-2.191406.410157-.355469.855469-.738281 1.28125-1.109375.726563-.628906 1.457031-1.257813 2.246094-1.910156.566406-.476563 1.175781-.964844 1.765625-1.449219.71875-.582031 1.4375-1.164063 2.191406-1.761719.699219-.558594 1.429688-1.109375 2.164063-1.65625.71875-.546875 1.4375-1.082031 2.175781-1.628906.800781-.589844 1.625-1.171875 2.453125-1.746094.730469-.507812 1.464844-1.011719 2.210937-1.511719.867188-.582031 1.738282-1.144531 2.632813-1.710937.761719-.480469 1.527344-.945313 2.300781-1.410156.898438-.546876 1.820313-1.074219 2.738282-1.582032.789062-.4375 1.582031-.855468 2.371093-1.265625.921875-.472656 1.839844-.945312 2.765625-1.371093.828125-.390626 1.65625-.738282 2.492188-1.082032.910156-.382812 1.820312-.765625 2.71875-1.101562.867187-.320313 1.730468-.574219 2.59375-.839844.875-.269531 1.738281-.554688 2.609375-.761719.9375-.226562 1.855469-.375 2.785156-.527343.78125-.136719 1.566406-.300782 2.339844-.382813 1.082031-.109375 2.128906-.089844 3.191406-.082031.601563 0 1.210937-.054688 1.792969-.011719 3.230468.238281 6.304687 1.113281 9.160156 2.730469zm0 0"/></svg>