<svg height="511pt" viewBox="-70 0 511 511.99987" width="511pt" xmlns="http://www.w3.org/2000/svg"><path d="m273.417969 494.136719h-169.707031c-4.929688 0-8.933594 3.992187-8.933594 8.929687 0 4.941406 4.003906 8.933594 8.933594 8.933594h169.707031c4.933593 0 8.933593-3.992188 8.933593-8.933594 0-4.9375-3.992187-8.929687-8.933593-8.929687zm0 0"/><path d="m363.597656 17.820312c4.90625-.542968 8.441406-4.957031 7.90625-9.859374-.535156-4.902344-4.957031-8.457032-9.859375-7.9023442l-75.863281 8.3593752c-3.707031.410156-6.761719 3.070312-7.679688 6.671875l-1.859374 7.351562c-5.074219-1.101562-10.324219-1.707031-15.71875-1.707031-25.503907 0-48.859376 12.890625-62.507813 34.074219-9.21875-1.777344-18.597656-1.777344-27.824219 0-13.648437-21.183594-37.007812-34.074219-62.507812-34.074219-.3125 0-.617188.042969-.929688.042969-.320312 0-.625-.042969-.945312-.042969-40.1875 0-72.867188 31.96875-72.867188 71.269531 0 2.347656.160156 4.679688.394532 6.992188-20.394532 13.765625-32.835938 36.882812-32.835938 61.667968 0 36.695313 26.699219 67.1875 61.675781 73.261719 8.226563 14.292969 18.023438 23.539063 20.179688 25.457031 66.550781 70.957032 102.386719 119.628907 40.121093 195.78125-4.5 5.511719-5.394531 12.953126-2.328124 19.429688 3.097656 6.539062 9.511718 10.609375 16.738281 10.609375h99.921875c7.21875 0 13.632812-4.0625 16.738281-10.609375 3.066406-6.476562 2.171875-13.917969-2.328125-19.429688-62.257812-76.152343-26.429688-124.824218 40.113281-195.78125 2.242188-1.992187 12.613281-11.773437 20.992188-26.839843 31.824219-8.441407 55.386719-37.417969 55.386719-71.878907 0-12.832031-3.394532-25.1875-9.441407-36.058593-.164062-.410157-.195312-.839844-.429687-1.230469-1.070313-1.824219-2.3125-3.519531-3.535156-5.21875-.054688-.078125-.109376-.160156-.164063-.242188-1-1.375-2.070313-2.695312-3.167969-3.992187-4.601562-5.671875-9.953125-10.789063-16.132812-14.960937.082031-1.304688.113281-2.5625.113281-3.804688 0-29.324219-17.085937-54.664062-41.792969-66.792969l.734375-2.878906zm-84.300781 228.351563-.714844.675781c-57.996093 61.820313-117.964843 125.738282-41.210937 219.625l-.566406.867188h-99.921876l-.5625-.867188c76.753907-93.886718 16.785157-157.804687-41.210937-219.625l-.6875-.652344c-.074219-.0625-4.941406-4.3125-10.46875-11.628906.394531-.042968.769531-.160156 1.160156-.214844 1.375-.1875 2.707031-.5 4.054688-.757812 2.089843-.402344 4.164062-.824219 6.191406-1.394531 1.394531-.394531 2.734375-.875 4.089844-1.339844 1.902343-.648437 3.769531-1.347656 5.601562-2.152344 1.339844-.589843 2.632813-1.222656 3.9375-1.894531 1.75-.890625 3.457031-1.855469 5.128907-2.882812 1.230468-.761719 2.445312-1.539063 3.632812-2.378907 1.617188-1.132812 3.171875-2.355469 4.691406-3.625 1.089844-.902343 2.179688-1.792969 3.214844-2.757812 1.5-1.402344 2.894531-2.902344 4.28125-4.429688.902344-.992187 1.839844-1.949219 2.6875-2.992187 1.4375-1.769532 2.722656-3.664063 3.992188-5.566406.632812-.945313 1.332031-1.832032 1.921874-2.804688 1.777344-2.945312 3.394532-6.019531 4.761719-9.246094 24.097657 15.898438 57.53125 15.898438 81.628907 0 1.414062 3.316406 3.066406 6.476563 4.902343 9.503906.589844.964844 1.3125 1.832032 1.949219 2.757813 1.335938 1.984375 2.660156 3.984375 4.179688 5.816406.855468 1.035157 1.839843 1.945313 2.742187 2.929688 1.457031 1.582031 2.886719 3.1875 4.472656 4.636719 1.054688.964843 2.21875 1.785156 3.324219 2.6875 1.597656 1.292968 3.167969 2.605468 4.867188 3.769531 1.226562.828125 2.527343 1.527343 3.804687 2.285156 1.722656 1.027344 3.429687 2.066406 5.242187 2.957031 1.378907.671875 2.816407 1.207032 4.234376 1.796875 1.832031.757813 3.648437 1.515625 5.539062 2.132813 1.511719.492187 3.054688.839844 4.601562 1.234375 1.910157.480469 3.8125.964843 5.777344 1.292969 1.617188.277343 3.269532.429687 4.921875.597656 1.324219.136718 2.609375.414062 3.957031.484375-5.40625 7.03125-10.085937 11.105469-10.148437 11.160156zm37.628906-154.382813c-4.832031-1.4375-9.816406-2.464843-14.960937-2.875-23.375-1.859374-45.992188 7.539063-60.621094 25.144532-3.152344 3.796875-2.628906 9.421875 1.167969 12.574218 3.796875 3.152344 9.433593 2.636719 12.578125-1.167968 11.078125-13.34375 27.609375-20.167969 45.445312-18.757813 13.316406 1.0625 25.21875 6.582031 34.058594 15.53125.386719.417969.757812.847657 1.132812 1.277344.824219.882813 1.617188 1.796875 2.386719 2.742187 7.464844 9.734376 11.726563 21.785157 11.726563 34.40625 0 27.269532-19.398438 50.097657-45.113282 55.40625l-.136718.027344c-.285156.054688-.578125.078125-.867188.132813-1.578125.292969-3.160156.5625-4.765625.726562-1.871093.1875-3.773437.285157-5.691406.285157-26.609375 0-49.277344-18.121094-55.128906-44.082032l-3.492188-15.433594-11.414062 10.960938c-10.605469 10.191406-24.503907 15.800781-39.132813 15.800781-14.640625 0-28.539062-5.609375-39.140625-15.800781l-11.414062-10.960938-3.484375 15.445313c-5.851563 25.9375-28.519532 44.070313-55.128906 44.070313-2.074219 0-4.117188-.136719-6.136719-.347657h-.039063c-28.296875-3.082031-50.402344-27.117187-50.402344-56.21875 0-16.542969 7.394532-32.03125 19.675782-42.660156 4.476562 11.164063 11.738281 21.214844 21.492187 29.0625 1.652344 1.324219 3.625 1.972656 5.589844 1.972656 2.609375 0 5.199219-1.140625 6.957031-3.328125 3.101563-3.851562 2.484375-9.46875-1.355468-12.558594-10.585938-8.523437-17.328126-20.410156-19.285157-33.398437-.144531-1.519531-.339843-3.027344-.339843-4.582031 0-30.878906 24.882812-56.023438 55.644531-56.523438 29.886719.5 54.050781 24.214844 54.050781 53.351563 0 10.460937-3.109375 20.589843-8.988281 29.273437-2.769531 4.089844-1.6875 9.636719 2.394531 12.40625 4.089844 2.765625 9.636719 1.675782 12.40625-2.394531 7.886719-11.667969 12.058594-25.242187 12.058594-39.285156 0-6.941407-1.074219-13.628907-2.964844-19.972657 8.066406-1.234374 16.21875-.714843 24.1875 1.609376 4.101562 1.222656 8.457031-.671876 10.425781-4.457032 9.789063-18.859375 29.027344-30.578125 50.195313-30.578125 3.878906 0 7.65625.394531 11.316406 1.144531l-6.921875 27.269532c-1.214844 4.789062 1.679687 9.648437 6.457031 10.863281.742188.1875 1.484375.277344 2.207032.277344 3.992187 0 7.628906-2.691407 8.65625-6.726563l6.429687-25.289062c16.050781 9.238281 27.125 26.109375 28.285156 45.636718zm0 0"/></svg>