<svg height="511pt" viewBox="-118 0 511 511.99986" width="511pt" xmlns="http://www.w3.org/2000/svg"><path d="m272.410156 159.171875-1.878906-6.476563h-6.996094c-3.824218-15.054687-14.5625-27.28125-28.519531-33.28125.554687-2.929687.855469-5.875.855469-8.8125 0-27.261718-22.179688-49.449218-49.441406-49.449218-19.941407 0-37.53125 11.839844-45.273438 29.625-.3125-.039063-.636719-.027344-.953125-.054688l4.035156-48.148437c.3125-3.726563-1.726562-7.265625-5.105469-8.855469l-69.351562-32.855469c-4.476562-2.113281-9.835938-.21875-11.964844 4.273438-2.121094 4.484375-.207031 9.835937 4.273438 11.957031l63.734375 30.199219-2.5625 30.398437c-9.167969-11.246094-23.039063-18.371094-38.273438-18.371094-27.261719 0-49.441406 22.179688-49.441406 49.441407 0 4.25.613281 8.417969 1.679687 12.476562-12.179687 6.457031-21.46875 17.730469-24.953124 31.457031h-6.746094l-1.875 6.484376c-14.320313 49.304687 24.53125 85.578124 29.324218 89.816406 18.953126 20.210937 37.0625 40.035156 50.484376 59.90625-7.160157 10.933594-11.050782 23.800781-11.050782 36.917968 0 21.898438 10.746094 42.378907 28.433594 54.929688-.539062 2.640625-1.007812 5.34375-1.5 8.136719-.828125 4.761719-1.691406 9.703125-2.964844 14.492187-3.214844 12.054688-.925781 24.574219 6.171875 34.726563h-39.128906c-7.195313 0-13.960937 2.808593-19.054687 7.894531-7.859376 7.851562-10.09375 19.105469-5.835938 29.371094 4.238281 10.25 13.777344 16.628906 24.890625 16.628906h152.703125c11.113281 0 20.652344-6.378906 24.898438-16.644531 4.25-10.257813 2.011718-21.511719-5.84375-29.363281-5.09375-5.085938-11.859376-7.886719-19.054688-7.886719h-43.691406c6.636718-9.460938 9.09375-21.117188 6.628906-32.445313-.914062-4.222656-1.445312-8.644531-1.957031-12.917968-.394531-3.308594-.800781-6.675782-1.382813-9.988282 19.546875-12.289062 31.429688-33.503906 31.429688-56.933594 0-14.199218-4.5-27.953124-12.800782-39.414062 13.367188-19.222656 31.332032-38.839844 48.75-57.414062 4.777344-4.234376 43.625-40.515626 29.308594-89.820313zm-27.675781-6.476563h-48.046875c0-.117187 0-.234374 0-.351562 0-1.976562-.109375-3.960938-.304688-5.945312-.171874-1.816407-.460937-3.585938-.78125-5.34375-.019531-.117188-.027343-.234376-.054687-.34375.207031-.171876.429687-.316407.644531-.476563 1.007813-.796875 2.058594-1.535156 3.15625-2.210937.566406-.347657 1.148438-.664063 1.742188-.976563.828125-.441406 1.671875-.820313 2.53125-1.1875.675781-.277344 1.347656-.582031 2.039062-.816406 1.160156-.398438 2.355469-.703125 3.558594-.960938.878906-.191406 1.777344-.316406 2.675781-.421875.953125-.117187 1.894531-.222656 2.855469-.25.746094-.027344 1.492188-.019531 2.238281.007813.78125.035156 1.5625.089843 2.335938.179687.636719.070313 1.273437.152344 1.90625.261719 10.550781 1.886719 19.414062 9.089844 23.503906 18.835937zm-136.761719 0c-.035156-.152343-.105468-.304687-.140625-.457031-.171875-.640625-.40625-1.242187-.601562-1.871093-.648438-2.109376-1.4375-4.167969-2.355469-6.171876-.269531-.582031-.519531-1.183593-.816406-1.757812-1.257813-2.480469-2.695313-4.851562-4.355469-7.097656-.039063-.054688-.082031-.097656-.128906-.152344-1.003907-1.347656-2.046875-2.675781-3.1875-3.917969.226562-.394531.414062-.816406.648437-1.203125.296875-.503906.628906-.988281.941406-1.472656 6.414063-9.828125 16.65625-16.960938 28.367188-19.25.046875-.007812.082031-.042969.125-.054688 2.714844-.519531 5.480469-.878906 8.328125-.878906 5.773437 0 11.265625 1.1875 16.320313 3.222656.792968.316407 1.539062.710938 2.300781 1.070313 1.574219.746094 3.097656 1.5625 4.5625 2.480469.691406.429687 1.394531.84375 2.058593 1.3125 1.914063 1.355468 3.738282 2.828125 5.410157 4.460937.457031.441407.851562.945313 1.289062 1.402344 1.285157 1.375 2.480469 2.820313 3.585938 4.347656.46875.644531.933593 1.273438 1.367187 1.949219 1.273438 1.976562 2.425782 4.03125 3.375 6.207031.261719.601563.433594 1.238281.667969 1.851563.652344 1.722656 1.210937 3.492187 1.648437 5.316406.226563.90625.421876 1.8125.585938 2.722656.429688 2.476563.761719 4.984375.761719 7.582032 0 .105468-.015625.242187-.015625.347656h-70.738282v.011718zm78.445313-73.585937c17.355469 0 31.476562 14.121094 31.476562 31.484375 0 1.578125-.136719 3.179688-.394531 4.777344-.34375-.015625-.683594.046875-1.027344.035156-.257812 0-.492187-.070312-.753906-.070312-1.796875 0-3.582031.109374-5.351562.304687-.566407.066406-1.125.191406-1.691407.269531-1.597656.234375-3.167969.539063-4.730469.925782-.765624.1875-1.519531.386718-2.273437.609374-1.734375.523438-3.433594 1.125-5.101563 1.824219-.308593.136719-.628906.226563-.933593.359375-1.960938.871094-3.828125 1.914063-5.660157 3.035156-.226562.136719-.46875.234376-.683593.371094-1.570313-2.910156-3.414063-5.652344-5.414063-8.253906-.199218-.261719-.378906-.523438-.585937-.78125-1.964844-2.480469-4.121094-4.789062-6.4375-6.945312-.296875-.269532-.585938-.539063-.890625-.808594-2.398438-2.144532-4.929688-4.113282-7.644532-5.863282-.152343-.101562-.304687-.179687-.457031-.28125-2.847656-1.8125-5.832031-3.449218-8.964843-4.777343 5.433593-9.835938 15.84375-16.214844 27.519531-16.214844zm-132.132813 36.570313c-.523437-2.265626-.78125-4.582032-.78125-6.925782 0-17.355468 14.121094-31.476562 31.476563-31.476562 12.011719 0 22.789062 6.890625 28.0625 17.191406-.128907.046875-.234375.128906-.359375.171875-2.929688 1.113281-5.730469 2.441406-8.4375 3.976563-.394532.226562-.777344.449218-1.164063.683593-2.417969 1.445313-4.707031 3.046875-6.898437 4.816407-.511719.414062-1.035156.808593-1.535156 1.230468-1.953126 1.679688-3.773438 3.492188-5.507813 5.414063-.558594.613281-1.152344 1.1875-1.679687 1.824219-1.582032 1.898437-2.992188 3.933593-4.359376 6.027343-.402343.621094-.90625 1.148438-1.28125 1.789063-.875-.433594-1.789062-.765625-2.6875-1.140625-.449218-.191407-.882812-.386719-1.328124-.566407-2.496094-.960937-5.058594-1.726562-7.683594-2.273437-.519532-.105469-1.039063-.179687-1.570313-.277344-2.785156-.496093-5.597656-.816406-8.453125-.816406-1.949218.007813-3.882812.125-5.8125.351563zm-2.917968 18.914062c2.261718-.652344 4.578124-1.023438 6.894531-1.148438.253906-.015624.496093-.042968.746093-.054687 2.425782-.070313 4.851563.125 7.222657.613281.179687.035156.351562.078125.53125.125 4.722656 1.03125 9.179687 3.179688 12.996093 6.269532.261719.214843.539063.402343.792969.621093 1.105469.957031 2.144531 1.984375 3.097657 3.078125.386718.441406.765624.875 1.132812 1.332032 1.015625 1.3125 1.941406 2.683593 2.738281 4.140624.253907.441407.46875.90625.691407 1.367188.28125.5625.46875 1.175781.710937 1.769531h-57.847656c3.65625-8.753906 11.171875-15.445312 20.292969-18.113281zm171.109374 344.097656c3.933594 3.933594 2.488282 8.480469 1.949219 9.792969-.550781 1.300781-2.730469 5.550781-8.300781 5.550781h-152.703125c-5.570313 0-7.761719-4.25-8.300781-5.542968-.539063-1.292969-1.996094-5.847657 1.949218-9.789063 1.671876-1.679687 3.976563-2.632813 6.351563-2.632813h152.703125c2.363281 0 4.671875.953126 6.351562 2.621094zm8.542969-243.015625-.730469.691407c-19.6875 20.992187-40.125 43.351562-54.632812 65.609374l-3.761719 5.777344 4.609375 5.125c8.171875 9.109375 12.671875 20.796875 12.671875 32.941406 0 18.941407-10.605469 35.921876-27.683593 44.320313l-6.835938 3.359375 2.199219 7.300781c1.207031 3.988281 1.796875 8.894531 2.417969 14.078125.566406 4.6875 1.140624 9.546875 2.246093 14.589844 1.5 6.921875-.214843 14.082031-4.699219 19.652344-4.605468 5.714844-11.441406 8.984375-18.773437 8.984375h-1.164063c-7.492187 0-14.410156-3.40625-18.972656-9.34375-4.570312-5.9375-6.082031-13.511719-4.15625-20.765625 1.480469-5.554688 2.40625-10.878906 3.296875-16.027344.816407-4.691406 1.589844-9.117188 2.65625-12.898438l1.933594-6.792968-6.144531-3.484375c-15.488282-8.777344-25.109375-25.25-25.109375-42.984375 0-11.40625 3.792969-22.125 10.976562-30.996094l4.054688-5.015625-3.441407-5.441406c-14.570312-23.011719-34.886718-45.289063-56.175781-67.988281l-.730469-.691407c-.339843-.289062-32.113281-27.882812-25.644531-65.015625h237.269531c6.460938 36.847656-24.304687 63.839844-25.675781 65.015625zm0 0"/><path d="m139.773438 314.382812c-17.335938 0-31.441407 14.101563-31.441407 31.4375 0 17.339844 14.105469 31.441407 31.441407 31.441407 17.335937 0 31.4375-14.101563 31.4375-31.441407 0-17.335937-14.109376-31.4375-31.4375-31.4375zm0 44.914063c-7.429688 0-13.472657-6.046875-13.472657-13.476563 0-7.425781 6.042969-13.472656 13.472657-13.472656 7.429687 0 13.472656 6.046875 13.472656 13.472656 0 7.429688-6.042969 13.476563-13.472656 13.476563zm0 0"/></svg>