<svg height="512pt" viewBox="-92 0 512 512.00142" width="512pt" xmlns="http://www.w3.org/2000/svg"><path d="m117.304688 461.503906 12.507812 12.511719 11.441406-11.4375 11.441406 11.4375 12.511719-12.511719-23.953125-23.949218zm0 0"/><path d="m179.238281 461.503906 12.511719 12.511719 11.4375-11.4375 11.441406 11.4375 12.511719-12.511719-23.953125-23.949218zm0 0"/><path d="m141.253906 374.097656 11.441406 11.441406 12.511719-12.511718-23.953125-23.949219-23.949218 23.949219 12.507812 12.511718zm0 0"/><path d="m203.1875 374.097656 11.441406 11.441406 12.511719-12.511718-23.953125-23.949219-23.949219 23.949219 12.511719 12.511718zm0 0"/><path d="m129.8125 417.265625-23.949219-23.949219-23.953125 23.949219 12.511719 12.511719 11.441406-11.441406 11.441407 11.441406zm0 0"/><path d="m191.75 417.265625-23.953125-23.949219-23.949219 23.949219 12.511719 12.511719 11.4375-11.441406 11.441406 11.441406zm0 0"/><path d="m327.058594 199.8125c0-15.359375-8.007813-30.046875-23.234375-42.726562.320312-2.097657.476562-4.21875.476562-6.316407 0-19.625-13.226562-37.816406-37.378906-51.636719-.804687-14.777343-5.46875-56.058593-32.367187-80.566406-15.820313-14.414062-36.3125-20.496094-60.988282-18.035156-3.035156.300781-5.699218 2.140625-7.042968 4.878906-1.351563 2.730469-1.210938 5.96875.382812 8.570313 4.945312 8.070312 10.21875 22.105469 7.253906 27.476562-1.644531 2.972657-7.421875 3.476563-10.722656 3.503907-59.828125.609374-104.945312 23.046874-104.945312 52.183593 0 3.070313 1.214843 5.34375 2.984374 7.09375-19.324218 11.496094-38.71875 27.164063-38.71875 46.53125 0 4.652344 2.796876 7.761719 6.027344 10.050781-14.601562 11-28.785156 23.457032-28.785156 38.992188 0 9.140625 2.832031 17.980469 8.371094 26.386719-.449219 1.386719-.644532 2.847656-.363282 4.316406l8.007813 42.292969c.449219 18.421875 15.023437 33.347656 33.53125 35.300781l21.828125 181.71875c1.515625 12.644531 12.273438 22.171875 25.011719 22.171875h133.976562c9.980469 0 18.667969-5.882812 22.722657-14.492188l.609374-.609374-.246093-.25c.910156-2.148438 1.636719-4.394532 1.925781-6.820313l21.828125-181.71875c18.519531-1.953125 33.082031-16.878906 33.535156-35.300781l8.003907-42.292969c.257812-1.351563.160156-2.714844-.210938-4.015625 5.660156-8.496094 8.527344-17.433594 8.527344-26.6875zm-281.203125-29.632812 3.328125-2.449219c2.980468-2.210938 4.273437-6.050781 3.230468-9.609375-1.476562-5.007813-5.9375-7.476563-10.246093-9.855469-.371094-.207031-.816407-.453125-1.257813-.691406 1.9375-6.886719 10.761719-18.742188 42.488282-35.25 3.980468-2.0625 5.777343-6.789063 4.195312-10.980469-1.75-4.636719-6.042969-6.46875-10.597656-8.398438 5.589844-14.710937 39.601562-29.796874 86.617187-30.285156 15.847657-.167968 22.910157-6.980468 26.050781-12.679687 5.464844-9.917969 2.625-22.578125-1.132812-32.125 13.527344.867187 24.941406 5.457031 34.054688 13.746093 26.65625 24.234376 26.796874 72.351563 26.796874 72.828126-.007812 3.3125 1.832032 6.371093 4.769532 7.894531 20.925781 10.882812 32.445312 24.542969 32.445312 38.453125 0 2.421875-.371094 4.898437-1.085937 7.34375-1.054688 3.558594.230469 7.40625 3.21875 9.617187 9.40625 6.964844 20.632812 18.191407 20.632812 32.082031 0 6.789063-2.699219 13.566407-8.015625 20.210938h-275.648437c-5.324219-6.644531-8.015625-13.433594-8.015625-20.210938 0-8.933593 16.28125-20.90625 28.171875-29.640624zm183.878906 302.765624-21.359375 21.359376h-19.214844l-21.359375-21.359376-21.359375 21.359376h-19.21875l-21.355468-21.359376-16.414063 16.414063c-.195313-.539063-.441406-1.054687-.515625-1.636719l-2.121094-17.652344 3.945313 3.945313 12.507812-12.507813-17.695312-17.699218-1.707031 1.710937-8.421876-70.121093 1.28125 1.292968 2.59375-2.59375 11.4375 11.441406 12.511719-12.511718-23.949219-23.949219-6.292968 6.28125-5.625-46.855469h34.796875l-20.289063 20.289063 12.511719 12.507812 11.441406-11.441406 11.4375 11.441406 12.511719-12.507812-20.289062-20.289063h54.609374l-20.289062 20.289063 12.511719 12.507812 11.441406-11.441406 11.4375 11.441406 12.511719-12.507812-20.289063-20.289063h54.609375l-20.289062 20.289063 12.511718 12.507812 11.441407-11.441406 11.4375 11.441406 12.511719-12.507812-20.289063-20.289063h25.925781l-6.964844 58.003906-2.328124-2.324218-8.847657 8.847656 9.28125 9.28125-3.398437 28.332031-17.3125-17.324219-23.945313 23.945313 12.507813 12.511719 11.441406-11.441406 11.441406 11.441406 4.070313-4.070313-6.726563 56.015625zm63.464844-202.667968c-.105469.539062-.160157 1.089844-.160157 1.644531 0 10.414063-8.917968 18.890625-19.890624 18.890625h-219.578126c-10.96875 0-19.890624-8.476562-19.890624-18.890625 0-.554687-.050782-1.105469-.160157-1.644531l-6.15625-32.5625h271.992188zm0 0"/><path d="m114.710938 113.847656h26.542968c4.886719 0 8.851563-3.957031 8.851563-8.851562 0-4.890625-3.964844-8.847656-8.851563-8.847656h-26.542968c-4.882813 0-8.847657 3.957031-8.847657 8.847656 0 4.894531 3.964844 8.851562 8.847657 8.851562zm0 0"/><path d="m203.1875 113.847656h17.699219c4.882812 0 8.847656-3.957031 8.847656-8.851562 0-4.890625-3.964844-8.847656-8.847656-8.847656h-17.699219c-4.882812 0-8.847656 3.957031-8.847656 8.847656 0 4.894531 3.964844 8.851562 8.847656 8.851562zm0 0"/><path d="m141.21875 149.238281h-8.8125c-4.882812 0-8.847656 3.953125-8.847656 8.847657 0 4.894531 3.964844 8.847656 8.847656 8.847656h8.8125c4.882812 0 8.847656-3.953125 8.847656-8.847656 0-4.894532-3.964844-8.847657-8.847656-8.847657zm0 0"/><path d="m181.742188 166.933594h16.21875c4.882812 0 8.847656-3.957032 8.847656-8.847656 0-4.894532-3.964844-8.847657-8.847656-8.847657h-16.21875c-4.882813 0-8.847657 3.953125-8.847657 8.847657 0 4.890624 3.964844 8.847656 8.847657 8.847656zm0 0"/><path d="m238.617188 166.933594h8.8125c4.882812 0 8.847656-3.957032 8.847656-8.847656 0-4.894532-3.964844-8.847657-8.847656-8.847657h-8.8125c-4.886719 0-8.847657 3.953125-8.847657 8.847657 0 4.890624 3.960938 8.847656 8.847657 8.847656zm0 0"/><path d="m88.167969 166.933594h8.847656c4.882813 0 8.847656-3.957032 8.847656-8.847656 0-4.894532-3.964843-8.847657-8.847656-8.847657h-8.847656c-4.882813 0-8.847657 3.953125-8.847657 8.847657 0 4.890624 3.964844 8.847656 8.847657 8.847656zm0 0"/></svg>