<svg height="511pt" viewBox="-101 1 511 511.99837" width="511pt" xmlns="http://www.w3.org/2000/svg"><path d="m129.0625 43.796875c-4.265625-2.816406-9.976562-1.652344-12.792969 2.601563l-16.808593 25.421874c-2.8125 4.253907-1.640626 9.976563 2.605468 12.792969 1.566406 1.03125 3.332032 1.53125 5.085938 1.53125 2.988281 0 5.933594-1.449219 7.707031-4.136719l16.808594-25.417968c2.8125-4.253906 1.640625-9.976563-2.605469-12.792969zm87.132812 53.089844c-3.609374-3.609375-9.441406-3.609375-13.050781 0s-3.609375 9.445312 0 13.050781l25.796875 25.808594c1.800782 1.800781 4.171875 2.703125 6.527344 2.703125 2.363281 0 4.726562-.90625 6.527344-2.703125 3.609375-3.609375 3.609375-9.445313 0-13.050782zm-51.84375 14.410156-25.496093 8.289063c-4.84375 1.578124-7.492188 6.785156-5.925781 11.636718 1.277343 3.898438 4.894531 6.371094 8.777343 6.371094.953125 0 1.910157-.148438 2.863281-.453125l25.492188-8.289063c4.847656-1.578124 7.496094-6.785156 5.925781-11.636718-1.578125-4.839844-6.761719-7.46875-11.636719-5.917969zm-52.703124-8.519531-17.125-8.675782c-4.558594-2.335937-10.105469-.488281-12.402344 4.050782-2.308594 4.550781-.492188 10.105468 4.058594 12.40625l17.121093 8.675781c1.339844.683594 2.761719.996094 4.164063.996094 3.371094 0 6.617187-1.847657 8.242187-5.058594 2.300781-4.550781.480469-10.097656-4.058593-12.394531zm63.253906-46.539063c-2.308594-4.542969-7.855469-6.386719-12.40625-4.050781-4.550782 2.296875-6.359375 7.851562-4.058594 12.402344l8.675781 17.125c1.621094 3.199218 4.871094 5.046875 8.242188 5.046875 1.402343 0 2.824219-.3125 4.160156-.996094 4.550781-2.300781 6.359375-7.855469 4.0625-12.40625zm0 0"/><path d="m280.492188 58.054688c-18.828126-26.488282-55.933594-58.054688-125.722657-58.054688-126.5625 0-154.269531 106.402344-154.269531 147.402344 0 33.644531 16.796875 59.996094 38.238281 59.996094 3.074219 0 7.265625-.386719 11.722657-1.652344l100.488281 299.949218c1.253906 3.765626 4.78125 6.304688 8.75 6.304688s7.496093-2.53125 8.75-6.304688l99.960937-298.371093c.839844.042969 1.660156.082031 2.390625.082031 21.441407 0 38.238281-26.351562 38.238281-59.996094 0-23.800781-7.492187-59.769531-28.546874-89.355468zm-29.820313 144.082031-90.972656 271.539062-22.863281-68.226562 6.589843-6.589844-13.050781-13.050781-.082031.082031-13.246094-39.519531.277344.273437 13.050781-13.050781-13.050781-13.050781-6.691407 6.691406-26.203124-78.21875 6.792968-6.792969-13.050781-13.050781-.285156.285156-11.324219-33.789062c.394531-.453125.820312-.820313 1.199219-1.300781 1.550781 1.976562 3.246093 3.5625 4.992187 5.003906.386719.332031.792969.644531 1.199219.957031 1.746094 1.292969 3.527344 2.410156 5.34375 3.289063.664063.320312 1.367187.582031 2.066406.867187 1.957031.792969 3.90625 1.421875 5.769531 1.84375.566407.128906 1.136719.222656 1.71875.324219 2.988282.546875 5.742188.757812 7.917969.757812 2.167969 0 4.910157-.203125 7.882813-.75.601562-.101562 1.199218-.210937 1.792968-.339844 1.824219-.414062 3.710938-1.035156 5.621094-1.800781.753906-.304687 1.523438-.589843 2.242188-.941406 1.753906-.851563 3.46875-1.921875 5.160156-3.167969.480469-.359375.941406-.726562 1.402344-1.117187 1.71875-1.410157 3.386718-2.980469 4.902344-4.925781 1.523437 1.9375 3.183593 3.507812 4.902343 4.925781.453125.386719.921875.757812 1.402344 1.117187 1.691406 1.246094 3.417969 2.316406 5.160156 3.167969.722657.351563 1.488281.636719 2.246094.941406 1.910156.765625 3.800781 1.382813 5.628906 1.800781.59375.128907 1.191407.230469 1.792969.339844 1.910156.351563 3.71875.574219 5.34375.667969l-8.804688 8.792969 13.050782 13.050781 13.050781-13.050781-9.101563-9.101563c.71875-.089843 1.464844-.230469 2.222657-.367187.597656-.101563 1.199219-.214844 1.789062-.34375 1.828125-.414063 3.71875-1.03125 5.632813-1.800782.753906-.300781 1.511718-.589843 2.234375-.941406 1.75-.847656 3.488281-1.929687 5.175781-3.183594.460938-.351562.925781-.710937 1.367188-1.089843 1.726562-1.421875 3.398437-2.988281 4.917968-4.9375 1.535156 1.957031 3.214844 3.535156 4.949219 4.957031.425781.359375.867187.710938 1.308594 1.042969 1.71875 1.261719 3.460937 2.363281 5.246093 3.210937.699219.339844 1.4375.617188 2.167969.914063 1.929688.777343 3.839844 1.394531 5.6875 1.816406.570313.132813 1.160157.230469 1.75.332031 2.984375.546875 5.734375.75 7.902344.75s4.917969-.210937 7.898437-.75c.601563-.101562 1.199219-.199218 1.78125-.332031 1.828126-.414063 3.730469-1.039063 5.648438-1.808594.75-.300781 1.507812-.582031 2.214844-.929687 1.765625-.851563 3.492187-1.941406 5.191406-3.1875.46875-.351563.929688-.71875 1.375-1.097656 1.714844-1.421876 3.386719-2.980469 4.902344-4.925782 2.601562 3.320313 5.582031 5.742188 8.648437 7.613282.066407.066406.140625.128906.214844.175781zm20.128906-13.199219c-1.449219 0-3.378906-.007812-5.453125-.414062-.34375-.136719-.609375-.378907-.980468-.46875-4.097657-1.070313-9.820313-3.839844-12.191407-15.488282-.046875-.230468-.183593-.417968-.25-.636718-.554687-3.019532-.90625-6.5-.90625-10.6875 0-5.105469-4.136719-9.230469-9.230469-9.230469s-9.230468 4.125-9.230468 9.230469c0 4.179687-.351563 7.667968-.90625 10.6875-.0625.21875-.199219.40625-.25.636718-2.332032 11.472656-7.898438 16.363282-18.625 16.363282-10.722656 0-16.289063-4.890626-18.625-16.363282-.046875-.230468-.183594-.417968-.25-.636718-.554688-3.019532-.90625-6.5-.90625-10.6875 0-5.105469-4.132813-9.230469-9.230469-9.230469-5.09375 0-9.230469 4.125-9.230469 9.230469 0 4.179687-.351562 7.667968-.902344 10.6875-.066406.21875-.203124.40625-.25.636718-2.328124 11.472656-7.902343 16.363282-18.625 16.363282-10.726562 0-16.300781-4.890626-18.628906-16.363282-.042968-.230468-.183594-.417968-.25-.636718-.550781-3.019532-.902344-6.5-.902344-10.6875 0-5.105469-4.136718-9.230469-9.230468-9.230469-5.097656 0-9.230469 4.125-9.230469 9.230469 0 4.179687-.351563 7.667968-.90625 10.6875-.066406.21875-.203125.40625-.25.636718-2.328125 11.472656-7.902344 16.363282-18.625 16.363282-10.523437 0-16.050781-4.699219-18.488281-15.710938-.046875-.199219-.1875-.347656-.25-.550781-.644532-3.175781-1.054688-6.898438-1.054688-11.425781 0-5.105469-4.132812-9.230469-9.230468-9.230469-5.09375 0-9.230469 4.125-9.230469 9.230469 0 5.027343-.46875 9.128906-1.253907 12.488281-.054687.183593-.203124.320312-.257812.515625-1.265625 5.058594-3.351562 8.765625-6.210938 11.046875-.15625.128906-.222656.332031-.371093.472656-4.105469 3.128906-8.824219 3.164063-11.683594 3.164063-9.339844 0-19.777344-17.765626-19.777344-41.535157.027344-35.859375 24.421875-128.933593 135.835938-128.933593 134.269531 0 135.8125 123.671874 135.8125 128.941406.007812 23.769531-10.433594 41.535156-19.773438 41.535156zm0 0"/><path d="m221.734375 242.226562-13.050781-13.050781 13.050781-13.050781 13.050781 13.050781zm-39.164063-13.0625 13.050782 13.050782-13.050782 13.050781-13.050781-13.050781zm26.140626 52.214844-13.050782-13.050781 13.050782-13.050781 13.050781 13.050781zm-91.398438-65.277344 13.050781 13.050782-13.050781 13.050781-13.050781-13.050781zm39.15625 39.191407-13.050781 13.050781-13.050781-13.050781 13.050781-13.050781zm26.121094 26.101562-13.050782 13.050781-13.050781-13.050781 13.050781-13.050781zm13.058594 39.148438-13.050782-13.050781 13.050782-13.050782 13.050781 13.050782zm-104.445313-52.199219 13.050781-13.046875 13.050782 13.046875-13.050782 13.050781zm39.152344 13.035156 13.050781 13.050782-13.050781 13.050781-13.050781-13.050781zm26.128906 52.222656-13.046875-13.050781 13.046875-13.050781 13.050781 13.050781zm26.09375 26.113282-13.050781-13.050782 13.050781-13.050781 13.050781 13.050781zm-39.179687-13.070313 13.050781 13.050781-13.050781 13.050782-13.050782-13.050782zm26.148437 52.222657-13.050781-13.050782 13.050781-13.050781 13.050781 13.050781zm-13.050781 39.164062-13.050782-13.050781 13.050782-13.050781 13.050781 13.050781zm0 0"/></svg>