<svg height="511pt" viewBox="-136 1 511 511.99811" width="511pt" xmlns="http://www.w3.org/2000/svg"><path d="m167.636719 284.355469-12.0625-12.0625 12.0625-12.066407 12.066406 12.066407zm-36.203125-12.074219 12.0625 12.066406-12.0625 12.066406-12.066406-12.066406zm24.15625 48.28125-12.066406-12.0625 12.066406-12.066406 12.0625 12.066406zm-84.496094-60.347656 12.0625 12.066406-12.0625 12.066406-12.066406-12.066406zm36.195312 36.214844-12.0625 12.066406-12.066406-12.066406 12.066406-12.0625zm24.144532 24.144531-12.066406 12.0625-12.066407-12.0625 12.066407-12.066407zm12.082031 36.195312-12.066406-12.0625 12.066406-12.066406 12.0625 12.066406zm-96.5625-48.261719 12.0625-12.066406 12.066406 12.066406-12.066406 12.0625zm36.1875 12.039063 12.066406 12.066406-12.066406 12.066407-12.0625-12.066407zm12.09375 36.199219 12.0625-12.066406 12.066406 12.066406-12.066406 12.0625zm36.199219 36.222656-12.066406-12.066406 12.066406-12.066406 12.0625 12.066406zm-36.210938 12.074219-12.066406-12.066407 12.066406-12.066406 12.066406 12.066406zm0 0"/><path d="m236.9375 26.632812-24.132812-24.128906c-3.335938-3.339844-8.730469-3.339844-12.066407 0l-30.402343 30.402344c-17.65625-18.347656-41.722657-28.75-67.433594-28.75-51.753906 0-93.863282 42.113281-93.863282 93.867188 0 19.914062 6.425782 39.285156 18.15625 55.320312-11.441406 15.597656-18.15625 34.832031-18.15625 55.613281 0 4.878907.519532 9.777344 1.289063 14.660157-.300781.578124-.703125 1.101562-.863281 1.738281-1.179688 4.679687-3.105469 8.105469-5.753906 10.214843-2.113282 1.683594-3.300782 4.265626-3.207032 6.964844.09375 2.804688.632813 5.511719 1.46875 7.644532l43.101563 128.46875 51.40625 128c1.304687 3.234374 4.433593 5.351562 7.925781 5.351562s6.613281-2.117188 7.917969-5.351562l51.59375-128.46875 42.792969-127.640626c.28125-.734374.472656-1.441406.640624-2.277343 1.015626-4.488281-1.707031-8.984375-6.167968-10.144531-2.320313-.609376-5.195313-1.828126-7.585938-5.128907 2.054688-7.816406 3.171875-15.875 3.171875-24.03125 0-20.394531-6.65625-39.714843-18.242187-55.5 11.785156-16.050781 18.242187-35.457031 18.242187-55.433593 0-5.664063-.734375-11.476563-1.839843-17.3125l42.007812-42.011719c3.328125-3.328125 3.328125-8.730469 0-12.066407zm-73.566406 37.367188 12.066406 12.066406-5 5-12.066406-12.0625zm-17.066406 17.066406 12.066406 12.066406-5.734375 5.734376-12.066407-12.066407zm41.199218-17.066406-12.066406-12.0625 5.003906-5.003906 12.0625 12.066406zm-39.601562 308.28125-17.5625 43.726562-10.972656-10.972656-12.066407 12.066406 12.066407 12.0625 9.511718-9.503906-12.363281 30.789063-9.207031-9.207031-12.082032 12.054687 12.0625 12.066406 5.378907-5.375-8.269531 20.582031-17.367188-43.222656 8.183594-8.191406-12.0625-12.066406-3.039063 3.039062-19.039062-47.386718-.9375-2.796876 10.945312 10.945313 12.066407-12.0625-12.066407-12.066406-11.507812 11.511719-24.253907-72.296876 11.625-11.621093-12.066406-12.066407-5.617187 5.617188-10.980469-32.75c.375-.4375.742188-.886719 1.09375-1.339844.21875.289063.511719.484375.738281.765625 1.121094 1.367188 2.332031 2.621094 3.644531 3.746094.410157.359375.8125.734375 1.238282 1.066406 1.699218 1.304688 3.507812 2.449219 5.480468 3.371094.332032.152344.699219.253906 1.03125.390625 1.734376.734375 3.566407 1.316406 5.496094 1.761719.605469.132812 1.21875.28125 1.84375.390625 2.355469.410156 4.769532.691406 7.363282.691406 11.628906 0 20.777343-4.214844 26.820312-12.160156 5.980469 7.851562 15 12.03125 26.445312 12.125l-4.25 4.25 12.066407 12.066406 12.0625-12.066406-6.519531-6.519532c5.546874-1.996093 10.273437-5.203124 13.824218-9.855468 4.539063 5.957031 10.8125 9.824218 18.570313 11.375 2.59375.523437 5.351562.785156 8.257812.785156 3.015625 0 5.847657-.304688 8.507813-.863281.863281-.179688 1.605468-.535157 2.433594-.773438 1.722656-.496093 3.449218-.992187 5.007812-1.726562.90625-.425781 1.675781-1.03125 2.511719-1.542969 1.304687-.792969 2.628906-1.5625 3.789062-2.542969.816407-.691406 1.5-1.535156 2.242188-2.320312.769531-.808594 1.640625-1.492188 2.332031-2.40625 2.480469 3.226562 5.316406 5.589843 8.191406 7.324219zm31.382812-155.3125h-.210937c-4.0625 0-7.554688 2.859375-8.355469 6.835938-2.167969 10.605468-7.3125 15.128906-17.230469 15.128906-9.914062 0-15.066406-4.523438-17.226562-15.128906-.8125-3.976563-4.300781-6.835938-8.355469-6.835938h-2.472656c-4.0625 0-7.550782 2.859375-8.355469 6.835938-2.167969 10.609374-7.3125 15.128906-17.238281 15.128906-9.921875 0-15.066406-4.523438-17.226563-15.128906-.8125-3.976563-4.300781-6.835938-8.355469-6.835938h-2.472656c-4.0625 0-7.5625 2.859375-8.363281 6.835938-2.152344 10.609374-7.296875 15.128906-17.210937 15.128906-9.738282 0-14.839844-4.34375-17.09375-14.523438-.230469-1.023437-.691407-1.9375-1.253907-2.789062-.144531-.214844-.28125-.417969-.445312-.613282-.160157-.207031-.273438-.445312-.449219-.632812-.574219-3.804688-.863281-7.621094-.863281-11.417969 0-18.859375 6.757812-36.136719 18.046875-49.535156.136718-.136719.339844-.199219.46875-.351563 10.898437-12.707031 25.285156-21.375 41.21875-24.992187v36.480469c0 16.46875 13.394531 29.863281 29.863281 29.863281s29.867187-13.394531 29.867187-29.863281v-25.386719c2.878907 1.9375 5.632813 4.070313 8.234376 6.375.070312.058594.128906.128906.199218.195313 2.421875 2.167968 4.699219 4.496093 6.832032 6.953124 11.894531 13.695313 18.871093 31.40625 18.871093 50.261719-.003906 2.6875-.148437 5.359375-.421875 8.011719zm.417969-118.945312c0 15.113281-4.496094 29.839843-12.808594 42.371093-.035156-.035156-.078125-.0625-.109375-.09375-1.816406-1.691406-3.710937-3.3125-5.675781-4.867187-.1875-.144532-.367187-.289063-.550781-.433594-1.8125-1.40625-3.671875-2.746094-5.582032-4.027344-.316406-.214844-.621093-.433594-.949218-.640625-1.773438-1.152343-3.597656-2.246093-5.46875-3.285156-.433594-.238281-.851563-.503906-1.289063-.742187-2.21875-1.195313-4.488281-2.320313-6.824219-3.335938-2.636718-1.171875-5.667968-.90625-8.089843.671875-2.398438 1.570313-3.851563 4.25-3.851563 7.132813v39.785156c0 7.054687-5.742187 12.796875-12.796875 12.796875-7.058593 0-12.800781-5.742188-12.800781-12.796875v-46.5c0-2.40625-1.015625-4.710938-2.804688-6.324219-.847656-.765625-1.84375-1.3125-2.902343-1.679687-.308594-.105469-.632813-.105469-.9375-.179688-.625-.144531-1.238281-.351562-1.886719-.351562-.273438 0-.554688.015624-.84375.042968-2.773438.273438-5.511719.691406-8.226562 1.210938-1.167969.222656-2.304688.519531-3.457032.777344-1.449218.332031-2.902344.65625-4.324218 1.054687-1.570313.4375-3.101563.941406-4.632813 1.453125-.871094.296875-1.75.578125-2.613281.902344-1.902344.699218-3.773438 1.46875-5.605469 2.28125-.332031.144531-.667969.296875-1 .449218-9.199219 4.207032-17.59375 9.761719-24.855469 16.539063-8.246094-12.496094-12.707031-27.164063-12.707031-42.214844 0-42.351562 34.449219-76.800781 76.800781-76.800781 21.128906 0 40.933594 8.558594 55.398438 23.695312l-35.832032 35.839844c-3.335937 3.335938-3.335937 8.730469 0 12.066406l24.132813 24.132813c1.664063 1.671875 3.847656 2.507813 6.03125 2.507813 2.1875 0 4.371094-.835938 6.035156-2.5l21-21c.019531.699218.027344 1.378906.027344 2.0625zm24.867187-51.089844-12.066406-12.0625 14.269532-14.269532 12.066406 12.066407zm0 0"/></svg>