<svg height="512pt" viewBox="-109 0 512 512.00153" width="512pt" xmlns="http://www.w3.org/2000/svg"><path d="m270.332031 132.792969c15.273438-12.257813 24.195313-30.597657 24.195313-50.496094 0-35.828125-29.140625-64.972656-64.96875-64.972656-6.179688 0-12.300782.9375-18.296875 2.714843-16.660157-12.519531-37.269531-20.039062-59.660157-20.039062-54.929687 0-99.625 44.691406-99.625 99.621094 0 2.808594.175782 5.710937.46875 8.707031-30.476562 10.605469-52.445312 39.546875-52.445312 73.589844 0 39.210937 29.125 71.660156 66.859375 77.082031l-.527344.53125 2.011719 2.007812 76.457031 244.390626c1.117188 3.585937 4.433594 6.035156 8.1875 6.070312h.078125c3.734375 0 7.039063-2.378906 8.21875-5.933594l96.359375-290.003906c12.136719-13.746094 19.558594-31.738281 19.558594-51.472656 0-11.171875-2.433594-21.941406-6.871094-31.796875zm6.871094-50.496094c0 13.730469-5.792969 26.464844-15.816406 35.414063-1.222657-1.613282-2.523438-3.164063-3.882813-4.679688-.667968-.761719-1.351562-1.515625-2.042968-2.25-.972657-1.007812-1.960938-1.992188-2.992188-2.957031-.507812-.476563-.96875-1.003907-1.488281-1.46875.164062-2.269531.234375-4.523438.234375-6.734375 0-3.230469-.183594-6.425782-.484375-9.605469-.105469-1.058594-.285157-2.085937-.425781-3.136719-.269532-2.105468-.5625-4.203125-.960938-6.28125-.226562-1.167968-.519531-2.304687-.789062-3.453125-.449219-1.941406-.925782-3.875-1.488282-5.78125-.332031-1.097656-.695312-2.183593-1.058594-3.265625-.648437-1.949218-1.351562-3.871094-2.113281-5.769531-.382812-.945313-.777343-1.886719-1.195312-2.816406-.894531-2.015625-1.855469-4-2.875-5.957031-.398438-.753907-.789063-1.519532-1.203125-2.261719-1.171875-2.105469-2.433594-4.15625-3.761719-6.183594-.363281-.546875-.703125-1.109375-1.074219-1.648437-1.488281-2.171876-3.082031-4.285157-4.746094-6.347657-.277343-.355469-.539062-.726562-.824218-1.074219-.363282-.433593-.675782-.902343-1.050782-1.335937 27.132813-1.335937 50.039063 20.53125 50.039063 47.59375zm-207.898437 17.324219c0-45.375 36.917968-82.296875 82.296874-82.296875 21.25 0 40.574219 8.171875 55.199219 21.433593 1.117188 1.011719 2.257813 2.011719 3.308594 3.074219 1.054687 1.066407 2.027344 2.207031 3.023437 3.328125.875.976563 1.75 1.957032 2.570313 2.976563.953125 1.1875 1.847656 2.417969 2.738281 3.65625.761719 1.058593 1.507813 2.125 2.21875 3.214843.804688 1.246094 1.578125 2.511719 2.3125 3.804688.683594 1.195312 1.335938 2.40625 1.957032 3.628906.640624 1.257813 1.257812 2.511719 1.839843 3.804688.613281 1.375 1.160157 2.789062 1.695313 4.191406.460937 1.203125.925781 2.402344 1.335937 3.640625.527344 1.609375.953125 3.257813 1.386719 4.902344.265625 1.109375.585938 2.191406.828125 3.316406.417969 1.914063.695313 3.875.972656 5.824219.128907.90625.320313 1.800781.414063 2.71875.3125 2.902344.484375 5.832031.484375 8.785156 0 2.9375-.1875 5.984375-.535157 9.042969-.042968.40625-.128906.804687-.183593 1.214843-.050781.429688-.144531.847657-.207031 1.28125 0 .007813-.007813.015626-.007813.023438-.027344.183594-.0625.375-.085937.558594-.15625 1.054687-.3125 2.113281-.511719 3.152344-.136719.804687-.277344 1.609374-.453125 2.414062-.042969.199219-.101563.398438-.144532.605469-.121093.523437-.269531 1.023437-.398437 1.535156-.011719.015625-.027344.035156-.027344.0625-.304687 1.175781-.613281 2.347656-.945312 3.515625-.277344.953125-.570313 1.898438-.890625 2.832031-.011719.027344 0 .042969-.011719.070313-.128906.371094-.257813.734375-.386719 1.109375-.035156.085937-.0625.171875-.097656.257812-.015625.042969-.050781.070313-.058594.105469-.832031 2.304688-1.75 4.546875-2.765625 6.738281-.015625.027344-.007812.0625-.015625.085938-5.988281 12.839843-15.109375 23.9375-26.492187 32.15625-.015625.015625-.042969.027343-.070313.042969-1.984375 1.429687-4.035156 2.761718-6.148437 4.019531-.355469.207031-.738281.398437-1.09375.605469-1.785157 1.023437-3.613281 2-5.472657 2.882812-.632812.304688-1.292968.566406-1.933593.851562-1.628907.726563-3.265625 1.417969-4.945313 2.035157-.875.320312-1.765625.597656-2.652344.890625-1.496093.496094-3.003906.972656-4.539062 1.378906-1.046875.277344-2.113281.511719-3.179688.753906-1.417968.320313-2.847656.625-4.296874.867188-1.167969.199218-2.355469.34375-3.542969.492187-1.394531.171875-2.789063.320313-4.199219.425781-.554688.042969-1.121094.050782-1.683594.078126 0-1.386719-.136718-2.746094-.214844-4.117188-.070312-1.226562-.070312-2.476562-.191406-3.6875-.144531-1.421875-.421875-2.808594-.640625-4.203125-.183593-1.175781-.304687-2.375-.546875-3.523437-.257812-1.265626-.640625-2.488282-.960937-3.726563-.320313-1.246094-.585938-2.519531-.96875-3.742187-.332031-1.054688-.761719-2.0625-1.136719-3.09375-.492188-1.359376-.933594-2.746094-1.496094-4.0625-.390625-.917969-.875-1.785157-1.300781-2.683594-.648437-1.386719-1.265625-2.789063-1.992187-4.125-.40625-.746094-.890626-1.445313-1.324219-2.175782-.839844-1.425781-1.664063-2.875-2.589844-4.242187-.363281-.546875-.796875-1.039063-1.179687-1.570313-1.070313-1.503906-2.148438-3.003906-3.316407-4.425781-.3125-.371093-.667969-.710937-.988281-1.082031-1.308594-1.523438-2.632812-3.03125-4.046875-4.445312-.34375-.347657-.726563-.640626-1.070313-.976563-1.449218-1.394531-2.914062-2.773437-4.472656-4.054687-.128906-.105469-.277344-.199219-.40625-.304688-1.804687-1.472656-3.664062-2.875-5.597656-4.183594-.128906-.085937-.269531-.15625-.390625-.242187-1.957031-1.308594-3.957031-2.539063-6.035156-3.664063-.011719 0-.019531-.007812-.027344-.007812-2.199219-1.199219-4.460937-2.289063-6.78125-3.269532-.390625-.164062-.816406-.285156-1.203125-.441406-1.949219-.785156-3.917969-1.550781-5.945312-2.171875-.796876-.253906-1.628907-.40625-2.441407-.632812-1.664062-.457031-3.316406-.945313-5.015625-1.292969-1.890625-.386719-3.832031-.628906-5.769531-.882812-.660156-.085938-1.292969-.234376-1.960937-.292969-2.605469-.292969-5.257813-.433594-7.933594-.433594-2.875 0-5.699219.183594-8.488282.484375-.113281-1.644531-.171874-3.257812-.171874-4.816406zm-51.976563 82.296875c0-28.628907 19.976563-52.632813 46.699219-58.957031 4.75-1.117188 9.425781-1.636719 13.984375-1.679688 22.746093.015625 42.59375 12.644531 52.953125 31.246094.164062.300781.335937.597656.503906.898437.703125 1.316407 1.34375 2.667969 1.949219 4.046875.285156.65625.5625 1.316406.832031 1.984375.464844 1.160157.898438 2.339844 1.296875 3.535157.3125.960937.582031 1.929687.851563 2.910156.277343 1.011718.5625 2.035156.785156 3.066406.277344 1.28125.480468 2.589844.679687 3.90625.121094.808594.285157 1.605469.371094 2.425781.234375 2.175781.382813 4.378907.382813 6.613281 0 2.492188-.191407 4.917969-.484376 7.328126v.023437c0 .011719-.011718.019531-.011718.027344-.257813 2.15625-.648438 4.304687-1.152344 6.445312-.023438.105469-.050781.210938-.078125.304688-.492187 2.054687-1.097656 4.097656-1.816406 6.105469-.191407.539062-.382813 1.074218-.589844 1.601562-.164063.304688-.398437.566406-.527344.894531-5.761719 14.171875-16.320312 25.226563-29.316406 31.652344-.398437.191406-.789063.390625-1.195313.574219-4.84375 2.257812-10.015624 3.863281-15.394531 4.773437-.640625.105469-1.28125.207031-1.933593.292969-2.683594.375-5.394532.625-8.152344.625-.832032 0-1.636719-.085938-2.460938-.121094l-.847656-.050781c-.015625 0-.027344.007813-.042969.007813-31.871093-1.761719-57.285156-28.175782-57.285156-60.480469zm135.988281 293.203125-19.550781-62.5 6.074219-6.074219-11.609375-11.609375-11.980469-38.304688 11.339844-11.339843-12.25-12.25-4.925782 4.929687-15.648437-50 8.316406 8.324219 12.25-12.25-12.25-12.246094-10.195312 10.195313-5.839844-18.660156 3.789063-3.785157-.695313-.695312c1.457031-.222657 2.910156-.441407 4.332031-.742188.824219-.183593 1.621094-.425781 2.433594-.625 1.992188-.503906 3.96875-1.050781 5.890625-1.707031.910156-.3125 1.8125-.652344 2.703125-.996094 1.21875-.460937 2.441406-.910156 3.636719-1.441406l6.195312 6.195312 12.25-12.25-3.007812-3.003906c8.449219-6.332031 15.558593-14.300781 20.871093-23.476562.234376.226562.484376.410156.71875.632812 1.253907 1.175782 2.519532 2.339844 3.84375 3.429688l-10.175781 10.179687 12.246094 12.246094 12.25-12.246094-1.734375-1.734375c.382812.210938.746094.425782 1.125.625.304688.15625.625.277344.9375.433594 2.253906 1.125 4.566406 2.136719 6.921875 3.046875.628906.242187 1.273437.453125 1.914063.675781 2.058593.730469 4.15625 1.378906 6.277343 1.933594.761719.199219 1.519531.390625 2.28125.5625 2.09375.476562 4.207031.855469 6.347657 1.152344.746093.105468 1.492187.242187 2.246093.328125 2.832031.3125 5.691407.519531 8.582031.519531 2.332032 0 4.636719-.144531 6.914063-.355469l-5.066406 5.070313 12.246093 12.246094 12.25-12.246094-7.191406-7.191406c2.113282-.535157 4.203125-1.144532 6.246094-1.855469.382812-.136719.761719-.277344 1.152344-.421875 2.332031-.851563 4.609375-1.804688 6.824218-2.859375.183594-.085938.382813-.148438.574219-.242188zm89.972656-268.980469c-1.152343 1.230469-2.367187 2.382813-3.597656 3.5-.328125.292969-.640625.597656-.96875.882813-1.101562.953124-2.253906 1.835937-3.40625 2.703124-.535156.398438-1.054687.824219-1.609375 1.203126-.902343.632812-1.847656 1.195312-2.78125 1.765624-.839843.519532-1.664062 1.058594-2.527343 1.535157-.625.347656-1.273438.632812-1.90625.953125-1.179688.597656-2.355469 1.203125-3.589844 1.722656-.300782.128906-.621094.226562-.933594.355469-5.199219 2.113281-10.734375 3.550781-16.519531 4.140625-2.042969.214844-4.125.328125-6.210938.328125-2.253906 0-4.480469-.128907-6.6875-.378907-1.65625-.183593-3.273437-.503906-4.894531-.824218-.539062-.105469-1.101562-.15625-1.640625-.277344-1.53125-.347656-3.03125-.824219-4.539063-1.292969-.613281-.1875-1.246093-.328125-1.851562-.535156-1.09375-.375-2.132812-.859375-3.199219-1.300781-1.019531-.421875-2.058593-.796875-3.046875-1.265625-.546875-.257813-1.066406-.585938-1.601562-.863281-1.5-.78125-3.007813-1.5625-4.445313-2.460938-.027343-.007812-.042969-.027344-.0625-.042969-5.363281-3.378906-10.203125-7.667969-14.394531-12.691406.042969-.15625.078125-.3125.121094-.46875.335937-1.203125.664062-2.40625.933594-3.613281 2.390624-.050782 4.75-.234375 7.09375-.449219.277343-.027344.574218-.027344.851562-.054687 3.101562-.320313 6.15625-.804688 9.171875-1.402344.753906-.148438 1.492187-.347656 2.234375-.511719 2.28125-.507813 4.539062-1.082031 6.757812-1.738281.824219-.242188 1.628907-.503906 2.441407-.773438 2.269531-.734375 4.496093-1.558594 6.699219-2.449218.578124-.234376 1.167968-.460938 1.738281-.703126 8.621093-3.707031 16.617187-8.601562 23.789062-14.496093.175781-.136719.339844-.277344.503907-.421875 2.285156-1.898438 4.476562-3.898438 6.59375-5.988282.109374-.109374.226562-.214843.328124-.320312 6.542969-6.566406 12.179688-14.03125 16.695313-22.253906.320313-.578125.613281-1.167969.917969-1.757813 1.039062-1.984375 2.015625-3.996093 2.917968-6.058593.425782-.949219.832032-1.90625 1.222657-2.867188.691406-1.707031 1.316406-3.445312 1.914062-5.207031.414063-1.203125.839844-2.398438 1.210938-3.617188.019531-.070312.054687-.140625.070312-.210937 1.601563 2.113281 3.265625 4.175781 4.625 6.523437.007813.019531.035157.035157.050781.054688 5.214844 9.042969 8.128907 19.316406 8.128907 30.09375-.007813 16.066406-6.351563 30.671875-16.597657 41.535156zm0 0"/><path d="m176.59375 247.273438 12.246094 12.246093-12.246094 12.25-12.25-12.25zm24.523438 49.011718-12.246094-12.246094 12.246094-12.25 12.25 12.25zm-61.269532-36.765625 12.246094 12.25-12.246094 12.25-12.25-12.25zm36.734375 36.773438-12.246093 12.25-12.25-12.25 12.25-12.246094zm12.234375 36.742187-12.25-12.25 12.25-12.25 12.246094 12.25zm-61.246094-36.765625 12.25 12.246094-12.25 12.25-12.25-12.25zm24.515626 49.015625-12.25-12.25 12.25-12.25 12.246093 12.25zm24.515624 24.503906-12.246093-12.246093 12.246093-12.25 12.25 12.25zm-36.746093-12.257812 12.246093 12.25-12.242187 12.25-12.246094-12.25zm24.496093 49.015625-12.246093-12.25 12.246093-12.246094 12.25 12.246094zm-12.265624 36.753906-12.25-12.246093 12.25-12.25 12.246093 12.25zm0 0"/></svg>