<svg height="511pt" viewBox="-3 0 511 511.99714" width="511pt" xmlns="http://www.w3.org/2000/svg"><path d="m307.960938 8.414062c-17.117188-13.714843-42.054688-8.125-73.644532-1.082031-21.609375 4.828125-46.09375 10.292969-71.882812 10.292969-25.789063 0-50.273438-5.464844-71.882813-10.292969-31.589843-7.042969-56.539062-12.621093-73.632812 1.082031-11.207031 8.96875-16.417969 24.351563-16.417969 48.390626 0 10.902343 1.101562 21.417968 3.1875 31.488281-2.097656 7.417969-3.1875 16.125-3.1875 26.660156 0 10.902344 1.101562 21.417969 3.1875 31.476563-2.097656 7.421874-3.1875 16.125-3.1875 26.671874 0 10.902344 1.101562 21.417969 3.1875 31.476563-2.097656 7.421875-3.1875 16.125-3.1875 26.660156 0 9.941407 1 19.535157 2.742188 28.785157-1.8125 7.097656-2.742188 15.324218-2.742188 25.183593 0 10.898438 1.101562 21.417969 3.1875 31.476563-2.097656 7.421875-3.1875 16.125-3.1875 26.671875 0 86.34375 68.105469 149.027343 161.941406 149.027343 93.835938 0 161.941406-62.671874 161.941406-149.027343 0-10.546875-1.082031-19.25-3.1875-26.671875 2.085938-10.070313 3.1875-20.585938 3.1875-31.476563 0-9.859375-.929687-18.078125-2.742187-25.183593 1.742187-9.261719 2.742187-18.84375 2.742187-28.785157 0-10.535156-1.082031-19.238281-3.1875-26.660156 2.085938-10.070313 3.1875-20.585937 3.1875-31.476563 0-10.546874-1.082031-19.25-3.1875-26.671874 2.085938-10.070313 3.1875-20.585938 3.1875-31.476563 0-10.535156-1.082031-19.242187-3.1875-26.660156 2.085938-10.070313 3.1875-20.589844 3.1875-31.488281.003907-24.039063-5.21875-39.421876-16.421874-48.390626zm-132.574219 405.101563c-4.25.304687-8.5625.476563-12.945313.476563-4.382812 0-8.695312-.171876-12.945312-.476563-37.863282-2.773437-70.832032-17.671875-93.90625-41.101563-.101563-.101562-.203125-.191406-.296875-.292968-2.09375-2.136719-4.046875-4.382813-5.96875-6.660156-.609375-.71875-1.226563-1.417969-1.8125-2.148438-1.40625-1.742188-2.714844-3.5625-4.019531-5.382812-.972657-1.367188-1.964844-2.722657-2.882813-4.128907-.871094-1.328125-1.671875-2.703125-2.492187-4.070312-1.171876-1.976563-2.339844-3.949219-3.402344-5.992188-.515625-.992187-.992188-2.015625-1.476563-3.027343-1.183593-2.429688-2.320312-4.886719-3.328125-7.410157-.34375-.839843-.648437-1.699219-.972656-2.546875-1-2.640625-1.933594-5.335937-2.75-8.066406-.304688-1.011719-.566406-2.046875-.851562-3.078125-.832032-3.046875-1.621094-6.113281-2.230469-9.261719.253906.386719.539062.75.792969 1.144532 15.503906 23.695312 38.046874 42.378906 65.667968 54.257812.0625.03125.121094.050781.191406.082031 5.667969 2.429688 11.539063 4.574219 17.613282 6.40625.625.191407 1.242187.40625 1.871094.597657 2.539062.738281 5.113281 1.398437 7.722656 2.023437 2.316406.566406 4.664062 1.0625 7.035156 1.550781 2.203125.445313 4.390625.902344 6.648438 1.265625 4.078124.675781 8.230468 1.183594 12.417968 1.597657 1.4375.140624 2.886719.253906 4.34375.363281 4.949219.375 9.949219.628906 15.039063.628906 5.089843 0 10.089843-.265625 15.039062-.628906 1.457031-.109375 2.90625-.222657 4.34375-.363281 4.191407-.414063 8.347657-.921876 12.417969-1.597657 2.246094-.363281 4.441406-.832031 6.648438-1.265625 2.367187-.476562 4.714843-.984375 7.035156-1.550781 2.601562-.625 5.179687-1.292969 7.722656-2.023437.625-.183594 1.234375-.40625 1.859375-.597657 6.085937-1.828125 11.945313-3.988281 17.625-6.414062.058594-.03125.121094-.050781.183594-.082031 27.621093-11.871094 50.160156-30.554688 65.667969-54.261719.25-.382813.535156-.746094.789062-1.140625-.605469 3.148437-1.398438 6.214844-2.226562 9.261718-.273438 1.03125-.546876 2.0625-.851563 3.074219-.820313 2.734375-1.75 5.417969-2.753906 8.058594-.324219.859375-.636719 1.730469-.96875 2.578125-1.023438 2.523438-2.15625 4.972656-3.328125 7.398438-.496094 1.011718-.964844 2.035156-1.488282 3.027343-1.0625 2.042969-2.226562 4.019531-3.402343 5.992188-.820313 1.367187-1.617188 2.742187-2.488281 4.070312-.921876 1.40625-1.914063 2.761719-2.886719 4.128907-1.304688 1.820312-2.609375 3.644531-4.019531 5.382812-.585938.730469-1.203126 1.425781-1.808594 2.136719-1.925782 2.277343-3.886719 4.535156-5.984375 6.671875-.089844.089844-.179688.179687-.273438.273437-23.074219 23.441407-56.050781 38.347657-93.914062 41.121094zm-57.683594-212.925781c1.339844.324218 2.695313.597656 4.039063.890625 3.554687.761719 7.125 1.449219 10.792968 2.003906 3.367188.527344 6.769532.972656 10.210938 1.316406 1.589844.152344 3.1875.292969 4.796875.414063 4.910156.363281 9.859375.628906 14.890625.628906 5.027344 0 9.988281-.253906 14.886718-.628906 1.609376-.121094 3.210938-.253906 4.796876-.414063 3.445312-.34375 6.84375-.792969 10.214843-1.316406 3.664063-.558594 7.238281-1.246094 10.789063-2.003906 1.347656-.292969 2.714844-.566407 4.039062-.890625 41.589844-9.859375 75.0625-33.429688 95.425782-66.0625.050781-.082032.109374-.160156.171874-.253906-.566406 3.898437-1.316406 7.714843-2.214843 11.457031-.164063.6875-.386719 1.347656-.558594 2.035156-.820313 3.167969-1.710937 6.304687-2.761719 9.363281-.191406.546875-.417968 1.0625-.609375 1.609375-1.09375 3.042969-2.289062 6.03125-3.613281 8.957031-.375.828126-.808594 1.628907-1.203125 2.457032-1.195313 2.480468-2.449219 4.917968-3.796875 7.308594-.75 1.304687-1.558594 2.570312-2.347656 3.847656-1.082032 1.75-2.1875 3.480468-3.359375 5.171875-1.246094 1.78125-2.550781 3.511719-3.898438 5.222656-.808593 1.042969-1.621093 2.085937-2.46875 3.105469-1.800781 2.15625-3.683593 4.253906-5.636719 6.289062-.445312.464844-.890624.9375-1.34375 1.394532-2.371093 2.390624-4.828124 4.707031-7.410156 6.914062-.0625.0625-.132812.109375-.191406.171875-16.8125 14.351563-37.785156 24.738281-61.429688 30.070313-.183593.042968-.375.074218-.554687.113281-3.707031.820312-7.480469 1.527343-11.308594 2.105469-1.234375.183593-2.519531.28125-3.765625.433593-2.882812.363281-5.757812.738281-8.691406.953125-4.320312.3125-8.695312.496094-13.148438.496094-4.453124 0-8.835937-.183594-13.148437-.496094-2.945313-.214844-5.820313-.589844-8.695313-.953125-1.253906-.152343-2.527343-.25-3.761718-.433593-3.835938-.578126-7.601563-1.277344-11.308594-2.105469-.179688-.042969-.371094-.074219-.554688-.113281-23.644531-5.332032-44.617187-15.71875-61.429687-30.070313-.070313-.0625-.128906-.109375-.191406-.171875-2.570313-2.207031-5.027344-4.523438-7.410157-6.914062-.453124-.464844-.898437-.929688-1.34375-1.394532-1.953124-2.035156-3.835937-4.132812-5.636718-6.289062-.839844-1.011719-1.660156-2.0625-2.46875-3.105469-1.347656-1.710937-2.652344-3.441406-3.898438-5.222656-1.164062-1.691407-2.265625-3.421875-3.351562-5.164063-.796875-1.273437-1.609375-2.539062-2.355469-3.855468-1.355469-2.375-2.601563-4.824219-3.796875-7.304688-.394531-.820312-.828125-1.628906-1.203125-2.460938-1.324219-2.914062-2.511719-5.910156-3.613281-8.957031-.191406-.535156-.425782-1.0625-.609375-1.609375-1.050781-3.054687-1.941407-6.195312-2.761719-9.363281-.171875-.6875-.394531-1.34375-.558594-2.03125-.898437-3.746094-1.648437-7.5625-2.214844-11.457031.050782.082031.109376.160156.171876.253906 20.339843 32.628906 53.8125 56.199219 95.398437 66.058594zm185.0625-8.175782c-.566406 3.90625-1.324219 7.730469-2.226563 11.484376-.152343.640624-.355468 1.234374-.515624 1.863281-.828126 3.230469-1.742188 6.425781-2.8125 9.546875-.160157.476562-.363282.9375-.535157 1.414062-1.113281 3.109375-2.339843 6.175782-3.695312 9.152344-.34375.757812-.738281 1.496094-1.105469 2.246094-1.222656 2.5625-2.519531 5.070312-3.914062 7.53125-.710938 1.226562-1.46875 2.417968-2.207032 3.613281-1.132812 1.832031-2.289062 3.652344-3.523437 5.425781-1.183594 1.699219-2.4375 3.351563-3.714844 4.980469-.871094 1.132813-1.75 2.257813-2.660156 3.359375-1.742188 2.074219-3.554688 4.097656-5.445313 6.0625-.515625.535156-1.03125 1.082031-1.558594 1.621094-2.308593 2.316406-4.699218 4.566406-7.1875 6.710937-.140624.121094-.292968.25-.4375.371094-16.78125 14.304687-37.703124 24.648437-61.292968 29.980469-.234375.050781-.464844.09375-.699219.144531-3.664063.808594-7.390625 1.507813-11.171875 2.074219-1.285156.191406-2.613281.292968-3.90625.445312-2.84375.355469-5.679688.730469-8.574219.941406-4.324219.3125-8.695312.496094-13.148437.496094s-8.835938-.183594-13.148438-.496094c-2.894531-.214843-5.738281-.578124-8.574218-.941406-1.296876-.160156-2.621094-.261718-3.90625-.445312-3.785157-.566406-7.507813-1.265625-11.171876-2.074219-.234374-.050781-.46875-.09375-.699218-.144531-23.585938-5.320313-44.503906-15.675782-61.296875-29.980469-.140625-.121094-.292969-.25-.433594-.371094-2.5-2.148437-4.890625-4.394531-7.1875-6.710937-.527344-.535156-1.042969-1.074219-1.558594-1.621094-1.875-1.964844-3.683593-3.988281-5.433593-6.0625-.910157-1.105469-1.792969-2.226562-2.664063-3.359375-1.277344-1.628906-2.53125-3.28125-3.714844-4.980469-1.226562-1.773437-2.386719-3.582031-3.523437-5.425781-.746094-1.195313-1.507813-2.386719-2.203125-3.613281-1.398438-2.449219-2.695313-4.96875-3.917969-7.53125-.363281-.75-.761719-1.488282-1.105469-2.246094-1.355469-2.984375-2.570312-6.042969-3.691406-9.152344-.171875-.472656-.375-.9375-.539063-1.414062-1.070312-3.109375-1.980468-6.308594-2.8125-9.546875-.160156-.628907-.363281-1.234375-.515624-1.863281-.902344-3.753907-1.660157-7.578126-2.226563-11.484376.019531.03125.042969.050782.0625.078126 20.351563 32.734374 53.875 56.367187 95.546875 66.238281 1.3125.3125 2.660156.585937 3.996094.878906 3.5625.757813 7.144531 1.457031 10.808594 2.011719 3.371093.527344 6.773437.972656 10.214843 1.316406 1.589844.152344 3.1875.292969 4.796875.414062 4.910156.367188 9.859375.628907 14.886719.628907 5.03125 0 9.992187-.253907 14.890625-.628907 1.609375-.121093 3.207031-.25 4.796875-.414062 3.441406-.34375 6.84375-.789062 10.214844-1.316406 3.664062-.554688 7.253906-1.253906 10.808593-2.011719 1.335938-.292969 2.683594-.558594 3.996094-.878906 41.671875-9.871094 75.195313-33.511719 95.546875-66.238281.050781-.019532.070313-.046876.089844-.078126zm0 58.144532c-.503906 3.492187-1.214844 6.90625-1.992187 10.277344-.304688 1.34375-.667969 2.660156-1.011719 3.988281-.691407 2.601562-1.425781 5.179687-2.277344 7.703125-.335937 1.011718-.710937 1.992187-1.074219 2.992187-.984375 2.671875-2.023437 5.304688-3.179687 7.875-.414063.921875-.851563 1.832031-1.285157 2.746094-1.195312 2.488281-2.460937 4.929687-3.804687 7.316406-.578125 1.011719-1.171875 2.015625-1.773437 3.015625-1.292969 2.136719-2.652344 4.230469-4.078126 6.273438-.839843 1.207031-1.6875 2.390625-2.570312 3.554687-1.273438 1.699219-2.609375 3.359375-3.976562 5-1.183594 1.40625-2.390626 2.804688-3.632813 4.160157-1.15625 1.265624-2.351563 2.480468-3.554687 3.695312-1.589844 1.601562-3.210938 3.167969-4.886719 4.6875-.953125.859375-1.945313 1.6875-2.925781 2.519531-2.035157 1.710938-4.089844 3.402344-6.246094 5-.71875.535157-1.46875 1.050781-2.207032 1.578125-2.457031 1.75-4.96875 3.453125-7.570312 5.050782-.503906.316406-1.03125.597656-1.539062.910156-2.84375 1.703125-5.757813 3.332031-8.753907 4.832031-.363281.179687-.730469.34375-1.09375.523437-3.15625 1.550782-6.375 3.007813-9.683593 4.34375-.324219.128907-.667969.242188-.992188.375-3.351562 1.3125-6.753906 2.546876-10.246094 3.632813-.453125.140625-.929687.253906-1.398437.394531-3.378907 1.023438-6.8125 1.964844-10.3125 2.773438-.839844.191406-1.710938.324218-2.550781.503906-3.179688.679688-6.378907 1.316406-9.65625 1.8125-1.648438.242188-3.359376.386719-5.039063.585938-2.550781.304687-5.089844.660156-7.691406.851562-4.375.324219-8.804688.507812-13.320313.507812s-8.949218-.183593-13.320312-.507812c-2.601563-.191406-5.144532-.546875-7.695313-.851562-1.679687-.199219-3.386719-.332032-5.039062-.585938-3.269531-.496094-6.46875-1.132812-9.65625-1.8125-.839844-.183594-1.71875-.3125-2.550781-.503906-3.5-.800782-6.933594-1.75-10.3125-2.773438-.457032-.140625-.941407-.253906-1.398438-.394531-3.492188-1.09375-6.902344-2.320313-10.242188-3.632813-.324218-.132812-.667968-.246093-.992187-.375-3.3125-1.335937-6.53125-2.792968-9.6875-4.34375-.363281-.171874-.738281-.34375-1.09375-.523437-3.007813-1.511719-5.910156-3.140625-8.753906-4.832031-.515625-.300782-1.03125-.59375-1.539063-.910156-2.601562-1.597657-5.113281-3.300782-7.570312-5.050782-.738282-.527344-1.488282-1.042968-2.207032-1.578125-2.144531-1.597656-4.210937-3.277343-6.242187-5-.984375-.828125-1.976563-1.660156-2.925781-2.519531-1.683594-1.511719-3.300782-3.089844-4.890625-4.6875-1.203125-1.214844-2.398438-2.4375-3.550781-3.695312-1.246094-1.355469-2.449219-2.75-3.636719-4.160157-1.367188-1.628906-2.691407-3.300781-3.976563-5-.878906-1.164062-1.730468-2.359375-2.570312-3.554687-1.417969-2.042969-2.78125-4.136719-4.078125-6.273438-.609375-.992187-1.195313-2.003906-1.773438-3.015625-1.34375-2.386719-2.621093-4.828125-3.804687-7.316406-.4375-.910156-.871094-1.824219-1.285156-2.746094-1.152344-2.570312-2.195313-5.203125-3.179688-7.875-.363281-.992187-.738281-1.980469-1.070312-2.992187-.851563-2.523438-1.582032-5.101563-2.277344-7.703125-.34375-1.328125-.710938-2.644531-1.015625-3.988281-.777344-3.371094-1.484375-6.785157-1.992188-10.277344.03125.042968.058594.082031.089844.132812 20.355469 32.703125 53.867187 56.316406 95.515625 66.183594 1.328125.3125 2.671875.589844 4.019531.878906 3.5625.761719 7.148438 1.457032 10.8125 2.015625 3.359375.527344 6.75.960938 10.191407 1.316407 1.597656.152343 3.207031.292968 4.824218.414062 4.898438.363281 9.847656.628906 14.878906.628906s9.980469-.253906 14.878907-.628906c1.621093-.121094 3.21875-.253906 4.828125-.414062 3.441406-.34375 6.832031-.792969 10.191406-1.316407 3.664062-.558593 7.257812-1.253906 10.8125-2.015625 1.335938-.292968 2.691406-.566406 4.015625-.878906 41.652344-9.867188 75.164063-33.480469 95.519531-66.183594.015625-.039062.046875-.078125.074219-.132812zm-273.1875-226.355469c3.511719-2.8125 8.691406-3.925781 15.109375-3.925781 10.972656 0 25.527344 3.246094 41.46875 6.800781 22.621094 5.050781 48.269531 10.769531 76.285156 10.769531s53.664063-5.71875 76.285156-10.769531c25.253907-5.648437 47.054688-10.527344 56.578126-2.875 5.863281 4.695313 8.835937 15.667969 8.835937 32.601563 0 23.027343-5.707031 44.089843-15.972656 62.226562-.554688.972656-1.171875 1.914062-1.761719 2.875-1.386719 2.289062-2.820312 4.542969-4.351562 6.730469-1.082032 1.527343-2.214844 3.027343-3.359376 4.503906-1.101562 1.425781-2.226562 2.824219-3.390624 4.210937-1.589844 1.863282-3.207032 3.703126-4.90625 5.476563-.730469.769531-1.488282 1.496094-2.238282 2.246094-2.167968 2.148437-4.371094 4.261719-6.699218 6.253906-.03125.03125-.074219.0625-.113282.09375-13.746094 11.742187-30.28125 20.777344-48.785156 26.617187-.648438.203126-1.292969.414063-1.953125.617188-2.984375.902344-6.042969 1.691406-9.128906 2.429688-1.398438.324218-2.792969.628906-4.210938.910156-2.621093.546875-5.253906 1.054687-7.933593 1.480468-2.269532.355469-4.585938.617188-6.90625.871094-2.042969.230469-4.066407.503906-6.144532.675782-4.554687.355468-9.15625.578124-13.863281.578124s-9.3125-.222656-13.867187-.578124c-2.074219-.160157-4.101563-.433594-6.144532-.675782-2.320312-.265625-4.628906-.527344-6.90625-.871094-2.679687-.425781-5.3125-.933593-7.933594-1.480468-1.417968-.292969-2.8125-.585938-4.210937-.910156-3.085937-.726563-6.132813-1.527344-9.128906-2.429688-.65625-.191406-1.304688-.402344-1.953125-.617188-18.492188-5.839843-35.039063-14.886718-48.785156-26.617187-.03125-.03125-.070313-.0625-.109376-.09375-2.328124-1.992187-4.535156-4.105469-6.703124-6.253906-.75-.75-1.507813-1.488281-2.234376-2.246094-1.703124-1.773437-3.320312-3.605469-4.910156-5.476563-1.164062-1.375-2.296875-2.78125-3.390625-4.210937-1.152343-1.476563-2.289062-2.976563-3.359375-4.503906-1.527344-2.1875-2.976562-4.445313-4.351562-6.730469-.558594-.972656-1.175782-1.902344-1.730469-2.875-10.265625-18.144531-15.960937-39.199219-15.960937-62.226562 0-16.933594 2.964843-27.90625 8.835937-32.601563zm273.1875 338.484375c-9.359375 64.460938-65.496094 109.453125-140.324219 109.453125s-130.972656-44.988281-140.332031-109.453125c.046875.078125.109375.160156.171875.25 20.351562 32.632812 53.824219 56.195312 95.394531 66.054688 1.355469.324218 2.742188.605468 4.117188.898437 3.523437.75 7.074219 1.4375 10.699219 1.996094 3.382812.527343 6.789062.972656 10.253906 1.316406 1.585937.152344 3.1875.292969 4.785156.402344 4.910156.363281 9.859375.628906 14.898438.628906 5.042968 0 9.992187-.253906 14.898437-.628906 1.609375-.121094 3.199219-.25 4.789063-.402344 3.449218-.34375 6.875-.792969 10.253906-1.316406 3.632812-.546875 7.175781-1.246094 10.699218-1.996094 1.375-.292969 2.761719-.574219 4.117188-.898437 41.578125-9.859376 75.042969-33.433594 95.394531-66.054688.0625-.089844.125-.167969.183594-.25zm0 0"/><path d="m106.773438 121.492188c19.535156 0 35.425781-15.894532 35.425781-35.425782 0-19.535156-15.890625-35.425781-35.425781-35.425781-19.535157 0-35.425782 15.890625-35.425782 35.425781 0 19.53125 15.890625 35.425782 35.425782 35.425782zm0-50.609376c8.371093 0 15.179687 6.8125 15.179687 15.183594 0 8.367188-6.8125 15.179688-15.179687 15.179688-8.371094 0-15.183594-6.8125-15.183594-15.179688 0-8.371094 6.804687-15.183594 15.183594-15.183594zm0 0"/><path d="m223.171875 126.550781c0 8.386719-6.796875 15.183594-15.183594 15.183594-8.382812 0-15.179687-6.796875-15.179687-15.183594 0-8.382812 6.796875-15.179687 15.179687-15.179687 8.386719 0 15.183594 6.796875 15.183594 15.179687zm0 0"/><path d="m243.414062 70.882812c0 5.589844-4.53125 10.121094-10.121093 10.121094-5.589844 0-10.121094-4.53125-10.121094-10.121094 0-5.589843 4.53125-10.121093 10.121094-10.121093 5.589843 0 10.121093 4.53125 10.121093 10.121093zm0 0"/><path d="m162.441406 151.855469c0 5.589843-4.53125 10.121093-10.121094 10.121093-5.589843 0-10.121093-4.53125-10.121093-10.121093 0-5.589844 4.53125-10.121094 10.121093-10.121094 5.589844 0 10.121094 4.53125 10.121094 10.121094zm0 0"/><path d="m61.226562 50.640625c0 5.589844-4.53125 10.121094-10.121093 10.121094-5.589844 0-10.121094-4.53125-10.121094-10.121094s4.53125-10.121094 10.121094-10.121094c5.589843 0 10.121093 4.53125 10.121093 10.121094zm0 0"/><path d="m417.351562 414.011719-21.296874-14.199219c-7.457032-4.957031-17.398438-3.15625-22.640626 4.160156-8.238281 11.539063-10.382812 19.222656-7.132812 25.710938.980469 1.941406 2.792969 5.578125 25.191406 26.488281 3.105469 2.894531 7.113282 4.441406 11.246094 4.441406 1.355469 0 2.742188-.183593 4.089844-.527343 5.484375-1.394532 9.824218-5.425782 11.605468-10.789063l5.425782-16.296875c2.378906-7.054688-.292969-14.859375-6.488282-18.988281zm-16.292968 23.371093c-8.382813-7.933593-13.070313-12.742187-15.234375-15.101562.421875-.859375 1.0625-2.042969 2.0625-3.589844l15.871093 10.585938zm0 0"/><path d="m495.308594 462.644531c-5.953125-5.492187-14.597656-6.972656-22.042969-3.742187l-21.296875 9.21875c-5.183594 2.246094-9.242188 6.582031-11.152344 11.894531-1.90625 5.3125-1.519531 11.242187 1.050782 16.265625l2.347656 4.582031c2.589844 5.050781 7.195312 8.828125 12.652344 10.363281 1.824218.519532 3.683593.769532 5.554687.769532 3.714844 0 7.410156-1.011719 10.648437-2.976563 27.109376-16.445312 29.234376-19.21875 30.609376-21.03125 7.945312-10.210937-4.324219-21.585937-8.371094-25.34375zm-33.058594 29-2.226562-4.929687 21.296874-9.21875.242188.019531c.515625.476563.984375.917969 1.398438 1.335937-3.746094 2.46875-10.082032 6.476563-20.710938 12.792969zm0 0"/><path d="m470.429688 384.648438c7.417968 0 14.089843-4.117188 17.410156-10.757813l8.582031-17.164063c3.441406-6.882812 2.589844-14.890624-2.226563-20.882812-4.820312-5.992188-12.421874-8.574219-19.902343-6.691406l-17.285157 4.324218c-4.695312 1.164063-8.765624 4.035157-11.480468 8.085938l-8.5625 12.851562c-3.988282 5.980469-4.351563 13.644532-.960938 19.980469 3.390625 6.335938 9.957032 10.273438 17.144532 10.273438h17.28125zm-8.523438-31.546876 15.636719-3.90625-7.601563 15.210938h-15.34375zm0 0"/></svg>