<svg height="511pt" viewBox="0 1 511 511.9994" width="511pt" xmlns="http://www.w3.org/2000/svg"><path d="m506.945312 216.71875c-7.476562-11.902344-20.722656-18.566406-34.484374-17.464844.855468-10.730468-3.050782-21.445312-10.707032-29.097656-7.652344-7.664062-18.296875-11.605469-29.097656-10.707031.855469-10.730469-3.050781-21.445313-10.707031-29.097657-7.644531-7.664062-18.304688-11.550781-29.097657-10.710937.855469-10.734375-3.050781-21.4375-10.703124-29.109375-7.671876-7.652344-18.445313-11.523438-29.109376-10.695312.855469-10.738282-3.050781-21.445313-10.703124-29.097657-7.65625-7.65625-18.296876-11.570312-29.097657-10.707031 1.089844-13.703125-5.566406-27.007812-17.476562-34.484375-11.871094-7.460937-27.167969-7.382813-38.96875.15625-11.902344 7.59375-18.367188 20.589844-17.246094 34.328125-10.835937-.933594-21.320313 2.953125-29.097656 10.714844-7.75 7.769531-11.578125 18.242187-10.703125 29.089844-10.75-.847657-21.464844 3.070312-29.09375 10.710937-7.644532 7.648437-11.566406 18.386719-10.710938 29.101563-10.695312-.910157-21.453125 3.066406-29.089844 10.703124-7.648437 7.644532-11.5625 18.375-10.714843 29.109376-10.730469-.875-21.445313 3.066406-29.105469 10.703124-7.75 7.769532-11.578125 18.242188-10.707031 29.089844-10.710938-.773437-21.460938 3.078125-29.089844 10.714844-7.644531 7.644531-11.566406 18.382812-10.710937 29.097656-13.828126-1.164062-26.894532 5.414063-34.46875 17.46875-7.40625 11.769532-7.40625 26.988282.007812 38.761719 7.582031 12.0625 20.625 18.59375 34.460938 17.457031-.847657 10.742188 3.078124 21.460938 10.710937 29.089844 7.648437 7.648438 18.402344 11.515625 29.101563 10.714844-.855469 10.730468 3.058593 21.453125 10.703124 29.097656 7.644532 7.644531 18.375 11.523438 29.097657 10.707031-.84375 10.71875 3.070312 21.453125 10.707031 29.097657 7.636719 7.636718 18.347656 11.46875 29.097656 10.710937-.847656 10.734375 3.066406 21.460937 10.710938 29.089844 7.636718 7.636719 18.289062 11.550781 29.09375 10.714843-1.121094 13.738282 5.324218 26.71875 17.21875 34.316407 5.960937 3.808593 12.804687 5.714843 19.644531 5.707031 6.738281 0 13.46875-1.84375 19.355469-5.546875 11.90625-7.476563 18.5625-20.792969 17.46875-34.476563 10.765625.835938 21.433594-3.058593 29.097656-10.707031 7.652344-7.652343 11.5625-18.367187 10.707031-29.105469 10.800781.820313 21.441407-3.050781 29.097657-10.707031 7.652343-7.652343 11.558593-18.367187 10.703124-29.097656 10.679688.828125 21.445313-3.042969 29.117188-10.703125 7.644531-7.664062 11.550781-18.371094 10.695312-29.097656 10.773438.785156 21.433594-3.070313 29.097657-10.707032 7.652343-7.652343 11.558593-18.367187 10.703125-29.109374 10.804687.867187 21.445312-3.050782 29.101562-10.703126 7.652344-7.652343 11.558594-18.367187 10.703125-29.097656 13.640625 1.085938 27.007813-5.574218 34.488281-17.46875 7.398438-11.777344 7.398438-26.980468 0-38.753906zm-14.929687 29.355469c-4.277344 6.808593-11.753906 10.335937-19.546875 9.117187-4.972656-.765625-9.859375.828125-13.402344 4.359375-3.519531 3.527344-5.113281 8.402344-4.347656 13.382813.941406 6.164062-1.03125 12.230468-5.433594 16.632812-4.398437 4.398438-10.472656 6.363282-16.636718 5.429688-4.964844-.785156-9.851563.820312-13.386719 4.359375-3.527344 3.515625-5.113281 8.402343-4.347657 13.382812.9375 6.078125-1.089843 12.300781-5.429687 16.632813-4.402344 4.390625-10.433594 6.355468-16.648437 5.429687-5.027344-.816406-9.867188.832031-13.386719 4.367188-3.527344 3.527343-5.113281 8.410156-4.335938 13.375.933594 6.066406-1.101562 12.300781-5.433593 16.636719-4.328126 4.339843-10.546876 6.402343-16.628907 5.433593-4.964843-.785156-9.84375.8125-13.386719 4.332031-3.535156 3.527344-5.132812 8.410157-4.363281 13.410157.941407 6.164062-1.035156 12.230469-5.433593 16.628906-4.410157 4.410156-10.492188 6.386719-16.636719 5.433594-4.964844-.777344-9.84375.820312-13.386719 4.355469-3.527344 3.519531-5.113281 8.402343-4.347656 13.386718.933594 6.074219-1.09375 12.300782-5.433594 16.628906-4.398438 4.402344-10.410156 6.375-16.648438 5.433594-4.945312-.777344-9.828124.820313-13.367187 4.347656-3.535156 3.527344-5.121094 8.410157-4.355469 13.402344 1.191406 7.777344-2.300781 15.261719-9.117187 19.546875-6.03125 3.785157-14.109375 3.738281-20.113281-.09375-6.667969-4.253906-10.105469-11.648437-9.003907-19.304687.734375-5.007813-.878906-9.917969-4.417969-13.453125-2.96875-2.972657-6.902343-4.585938-11.0625-4.585938-.785156 0-1.578124.054688-2.375.175781-6.101562.855469-12.125-1.089843-16.488281-5.464843-4.363281-4.347657-6.347656-10.359375-5.457031-16.460938.738281-5.011719-.875-9.921875-4.410156-13.457031s-8.410156-5.195312-13.4375-4.410156c-6.101563.875-12.125-1.089844-16.488282-5.457032-4.363281-4.363281-6.359374-10.378906-5.460937-16.496093.734375-5-.878906-9.894531-4.40625-13.429688-3.546875-3.546875-8.457031-5.203125-13.445313-4.417969-6.113281.84375-12.125-1.085937-16.488281-5.449218-4.367187-4.367188-6.351562-10.378906-5.449219-16.5.730469-5-.882812-9.902344-4.417968-13.4375-3.535156-3.527344-8.464844-5.183594-13.441406-4.40625-6.117188.863281-12.121094-1.09375-16.488282-5.46875-4.363281-4.347656-6.347656-10.359375-5.457031-16.460938.742187-5-.867187-9.902344-4.402344-13.4375-3.535156-3.546875-8.453125-5.167968-13.453125-4.429687-7.648437 1.121093-15.140625-2.371094-19.398437-9.132813-3.765625-5.980468-3.765625-14.003906 0-19.980468 4.242187-6.746094 11.683593-10.257813 19.347656-9.136719 5.007813.722656 9.917969-.90625 13.464844-4.441407 3.535156-3.539062 5.15625-8.449218 4.441406-13.464843-.890625-6.09375 1.113281-12.089844 5.460937-16.4375 4.347657-4.347657 10.351563-6.3125 16.425782-5.464844 5.027344.773437 9.929687-.894531 13.472656-4.429687 3.535156-3.542969 5.160156-8.453126 4.4375-13.453126-.882812-6.101562 1.117188-12.097656 5.457031-16.4375 4.347657-4.355468 10.351563-6.3125 16.425781-5.476562 5.027344.769531 9.921876-.878906 13.464844-4.417969 3.546875-3.542969 5.167969-8.453125 4.457032-13.472656-.894532-6.089844 1.109374-12.089844 5.464843-16.433594 4.339844-4.355469 10.332031-6.367187 16.429688-5.460937 5.042969.707031 9.917969-.914063 13.453125-4.441406 3.535156-3.535157 5.160156-8.449219 4.445312-13.464844-.890625-6.09375 1.109375-12.089844 5.457032-16.4375 4.347656-4.347656 10.351562-6.3125 16.429687-5.464844 5.015625.773438 9.929687-.890625 13.472656-4.425781 3.535157-3.546875 5.160157-8.457031 4.433594-13.457031-.882813-6.101563 1.121094-12.097657 5.460937-16.4375 4.34375-4.34375 10.359376-6.304688 16.425782-5.472657 5.015625.773438 9.921875-.894531 13.464844-4.429687 3.546874-3.542969 5.167968-8.464844 4.445312-13.472656-1.09375-7.636719 2.363281-15.015626 9.011719-19.273438 5.988281-3.828125 14.0625-3.871094 20.09375-.089844 6.835937 4.285156 10.328125 11.792969 9.109375 19.59375-.757813 4.914063.871094 9.914063 4.355468 13.386719 3.519532 3.519531 8.351563 5.113281 13.371094 4.332031 6.074219-.945312 12.308594 1.082032 16.65625 5.421875 4.347656 4.347657 6.375 10.570313 5.421875 16.683594-.757812 4.894531.871094 9.894531 4.347657 13.367187 3.535156 3.519532 8.402343 5.105469 13.367187 4.332032 6.191406-.980469 12.257813 1.011718 16.664063 5.421875 4.417968 4.417969 6.402343 10.484375 5.433593 16.664062-.757812 4.902344.863281 9.902344 4.339844 13.386719 3.472656 3.480469 8.515625 5.03125 13.367187 4.328125 6.128907-.949219 12.316407 1.09375 16.671876 5.433594 4.347656 4.347656 6.375 10.570312 5.425781 16.65625-.757813 4.902343.863281 9.902343 4.335937 13.386719 3.476563 3.480468 8.5 5.070312 13.386719 4.335937 6.09375-.949219 12.308594 1.085937 16.65625 5.425781 4.347656 4.34375 6.375 10.570313 5.421875 16.683594-.765625 4.960938.820312 9.839844 4.347656 13.367188 3.492188 3.480468 8.464844 5.097656 13.378906 4.328124 7.730469-1.214843 15.277344 2.277344 19.582032 9.109376 3.777344 5.871093 3.777344 13.894531.019531 19.863281zm0 0"/><path d="m69.304688 271.523438-3.121094 3.121093c-3.449219 3.449219-3.449219 9.019531 0 12.464844 1.71875 1.722656 3.976562 2.585937 6.234375 2.585937 2.257812 0 4.511719-.867187 6.234375-2.585937l3.121094-3.121094c3.449218-3.445312 3.449218-9.019531 0-12.464843-3.449219-3.449219-9.03125-3.449219-12.46875 0zm0 0"/><path d="m147.261719 218.492188 3.121093-3.121094c3.449219-3.449219 3.449219-9.023438 0-12.46875-3.445312-3.445313-9.019531-3.449219-12.464843 0l-3.121094 3.121094c-3.449219 3.449218-3.449219 9.023437 0 12.46875 1.71875 1.71875 3.976563 2.582031 6.234375 2.582031 2.253906 0 4.511719-.855469 6.230469-2.582031zm0 0"/><path d="m112.960938 252.800781 3.121093-3.121093c3.449219-3.449219 3.449219-9.019532 0-12.464844-3.445312-3.449219-9.019531-3.449219-12.464843 0l-3.121094 3.121094c-3.449219 3.445312-3.449219 9.019531 0 12.464843 1.71875 1.722657 3.976562 2.585938 6.234375 2.585938 2.253906 0 4.511719-.867188 6.230469-2.585938zm0 0"/><path d="m181.582031 184.183594 3.121094-3.121094c3.449219-3.449219 3.449219-9.023438 0-12.46875s-9.019531-3.449219-12.46875 0l-3.121094 3.121094c-3.449219 3.449218-3.449219 9.023437 0 12.46875 1.71875 1.71875 3.976563 2.582031 6.234375 2.582031 2.257813 0 4.515625-.863281 6.234375-2.582031zm0 0"/><path d="m243.964844 118.148438c2.257812 0 4.515625-.867188 6.234375-2.585938l3.125-3.121094c3.445312-3.449218 3.445312-9.019531 0-12.46875-3.449219-3.445312-9.023438-3.445312-12.46875 0l-3.121094 3.121094c-3.449219 3.449219-3.449219 9.023438 0 12.46875 1.726563 1.730469 3.976563 2.585938 6.230469 2.585938zm0 0"/><path d="m209.65625 152.457031c2.257812 0 4.507812-.863281 6.226562-2.574219l3.121094-3.121093c3.457032-3.441407 3.457032-9.023438.015625-12.46875-3.4375-3.457031-9.011719-3.457031-12.464843-.015625l-3.125 3.121094c-3.453126 3.4375-3.453126 9.019531-.015626 12.46875 1.71875 1.726562 3.976563 2.589843 6.242188 2.589843zm0 0"/><path d="m278.265625 83.835938c2.257813 0 4.515625-.863282 6.238281-2.582032l3.121094-3.121094c3.445312-3.449218 3.445312-9.019531 0-12.46875-3.449219-3.449218-9.023438-3.449218-12.46875 0l-3.121094 3.121094c-3.449218 3.449219-3.449218 9.023438 0 12.46875 1.71875 1.71875 3.976563 2.582032 6.230469 2.582032zm0 0"/><path d="m109.109375 311.324219-3.125 3.121093c-3.445313 3.449219-3.445313 9.023438 0 12.46875 1.722656 1.71875 3.980469 2.582032 6.234375 2.582032 2.257812 0 4.515625-.863282 6.234375-2.582032l3.125-3.121093c3.445313-3.449219 3.445313-9.019531 0-12.46875-3.449219-3.445313-9.023437-3.445313-12.46875 0zm0 0"/><path d="m152.773438 292.605469 3.121093-3.121094c3.449219-3.449219 3.449219-9.019531 0-12.46875-3.449219-3.445313-9.019531-3.449219-12.46875 0l-3.121093 3.121094c-3.449219 3.449219-3.449219 9.023437 0 12.46875 1.722656 1.71875 3.976562 2.582031 6.234374 2.582031 2.257813 0 4.503907-.863281 6.234376-2.582031zm0 0"/><path d="m187.074219 258.285156 3.121093-3.121094c3.449219-3.449218 3.449219-9.019531 0-12.46875-3.449218-3.445312-9.019531-3.445312-12.46875 0l-3.121093 3.125c-3.449219 3.445313-3.449219 9.019532 0 12.464844 1.722656 1.722656 3.976562 2.585938 6.234375 2.585938 2.257812 0 4.515625-.863282 6.234375-2.585938zm0 0"/><path d="m289.996094 155.375 3.121094-3.121094c3.449218-3.449218 3.449218-9.019531 0-12.46875-3.449219-3.445312-9.019532-3.445312-12.46875 0l-3.121094 3.125c-3.449219 3.445313-3.449219 9.019532 0 12.464844 1.71875 1.722656 3.976562 2.585938 6.234375 2.585938 2.257812 0 4.511719-.867188 6.234375-2.585938zm0 0"/><path d="m246.335938 174.09375-3.121094 3.125c-3.445313 3.445312-3.445313 9.019531 0 12.464844 1.722656 1.722656 3.976562 2.585937 6.234375 2.585937 2.257812 0 4.515625-.867187 6.234375-2.585937l3.125-3.121094c3.445312-3.449219 3.445312-9.019531 0-12.46875-3.449219-3.445312-9.03125-3.4375-12.472656 0zm0 0"/><path d="m221.382812 223.984375 3.125-3.121094c3.445313-3.449219 3.445313-9.019531 0-12.46875-3.449218-3.445312-9.023437-3.445312-12.46875 0l-3.121093 3.125c-3.449219 3.445313-3.449219 9.019531 0 12.464844 1.71875 1.722656 3.976562 2.585937 6.234375 2.585937 2.253906 0 4.503906-.855468 6.230468-2.585937zm0 0"/><path d="m324.3125 121.066406 3.121094-3.121094c3.449218-3.449218 3.449218-9.023437 0-12.46875-3.445313-3.449218-9.019532-3.449218-12.464844 0l-3.125 3.121094c-3.445312 3.449219-3.445312 9.019532 0 12.46875 1.722656 1.71875 3.980469 2.582032 6.238281 2.582032 2.253907 0 4.503907-.863282 6.230469-2.582032zm0 0"/><path d="m148.910156 351.117188-3.121094 3.125c-3.449218 3.445312-3.449218 9.019531 0 12.464843 1.71875 1.722657 3.976563 2.585938 6.234376 2.585938 2.257812 0 4.515624-.867188 6.234374-2.585938l3.121094-3.121093c3.449219-3.449219 3.449219-9.019532 0-12.46875-3.445312-3.445313-9.019531-3.4375-12.46875 0zm0 0"/><path d="m226.878906 298.097656 3.121094-3.121094c3.445312-3.449218 3.445312-9.019531 0-12.46875-3.449219-3.445312-9.023438-3.445312-12.46875 0l-3.121094 3.125c-3.449218 3.445313-3.449218 9.019532 0 12.464844 1.71875 1.722656 3.976563 2.585938 6.234375 2.585938 2.257813 0 4.503907-.867188 6.234375-2.585938zm0 0"/><path d="m192.570312 332.398438 3.121094-3.121094c3.445313-3.449219 3.445313-9.019532 0-12.46875-3.449218-3.445313-9.023437-3.445313-12.46875 0l-3.121094 3.125c-3.449218 3.445312-3.449218 9.019531 0 12.464844 1.71875 1.722656 3.976563 2.585937 6.234376 2.585937 2.257812 0 4.511718-.855469 6.234374-2.585937zm0 0"/><path d="m295.488281 229.480469 3.121094-3.121094c3.449219-3.449219 3.449219-9.023437 0-12.46875-3.449219-3.449219-9.019531-3.449219-12.464844 0l-3.125 3.121094c-3.445312 3.449219-3.445312 9.023437 0 12.46875 1.722657 1.71875 3.976563 2.582031 6.234375 2.582031 2.257813 0 4.515625-.855469 6.234375-2.582031zm0 0"/><path d="m261.179688 263.789062 3.121093-3.121093c3.449219-3.449219 3.449219-9.023438 0-12.46875-3.449219-3.449219-9.023437-3.449219-12.46875 0l-3.121093 3.121093c-3.449219 3.449219-3.449219 9.023438 0 12.46875 1.71875 1.71875 3.976562 2.582032 6.234374 2.582032 2.257813 0 4.515626-.863282 6.234376-2.582032zm0 0"/><path d="m329.796875 195.179688 3.125-3.121094c3.445313-3.449219 3.445313-9.023438 0-12.46875-3.449219-3.449219-9.023437-3.449219-12.46875 0l-3.121094 3.121094c-3.449219 3.449218-3.449219 9.023437 0 12.46875 1.71875 1.71875 3.976563 2.582031 6.234375 2.582031 2.257813 0 4.503906-.863281 6.230469-2.582031zm0 0"/><path d="m364.105469 160.859375 3.125-3.121094c3.445312-3.449219 3.445312-9.023437 0-12.46875-3.449219-3.449219-9.023438-3.449219-12.46875 0l-3.121094 3.121094c-3.449219 3.449219-3.449219 9.023437 0 12.46875 1.71875 1.71875 3.976563 2.582031 6.234375 2.582031s4.511719-.851562 6.230469-2.582031zm0 0"/><path d="m188.714844 390.933594-3.121094 3.121094c-3.449219 3.445312-3.449219 9.019531 0 12.464843 1.71875 1.722657 3.976562 2.585938 6.234375 2.585938s4.511719-.867188 6.234375-2.585938l3.121094-3.121093c3.449218-3.449219 3.449218-9.019532 0-12.464844-3.449219-3.449219-9.03125-3.449219-12.46875 0zm0 0"/><path d="m266.671875 337.902344 3.121094-3.121094c3.449219-3.449219 3.449219-9.023438 0-12.46875-3.445313-3.449219-9.019531-3.449219-12.464844 0l-3.125 3.121094c-3.445313 3.449218-3.445313 9.023437 0 12.46875 1.722656 1.71875 3.980469 2.582031 6.238281 2.582031 2.253906 0 4.511719-.855469 6.230469-2.582031zm0 0"/><path d="m232.371094 372.210938 3.121094-3.121094c3.449218-3.449219 3.449218-9.023438 0-12.46875-3.449219-3.449219-9.019532-3.449219-12.46875 0l-3.121094 3.121094c-3.449219 3.449218-3.449219 9.023437 0 12.46875 1.71875 1.71875 3.976562 2.582031 6.234375 2.582031 2.257812 0 4.515625-.863281 6.234375-2.582031zm0 0"/><path d="m369.601562 234.972656 3.121094-3.121094c3.449219-3.449218 3.449219-9.019531 0-12.46875-3.449218-3.449218-9.019531-3.449218-12.46875 0l-3.121094 3.121094c-3.449218 3.449219-3.449218 9.023438 0 12.46875 1.71875 1.71875 3.976563 2.582032 6.234376 2.582032 2.257812 0 4.515624-.863282 6.234374-2.582032zm0 0"/><path d="m335.308594 269.273438 3.121094-3.121094c3.441406-3.449219 3.441406-9.027344-.015626-12.46875-3.449218-3.4375-9.019531-3.4375-12.46875.019531l-3.121093 3.121094c-3.4375 3.449219-3.4375 9.027343.015625 12.46875 1.722656 1.707031 3.96875 2.570312 6.226562 2.570312 2.265625.003907 4.515625-.863281 6.242188-2.589843zm0 0"/><path d="m300.992188 303.59375 3.121093-3.125c3.449219-3.445312 3.449219-9.019531 0-12.464844-3.449219-3.449218-9.023437-3.449218-12.46875 0l-3.121093 3.121094c-3.449219 3.449219-3.449219 9.019531 0 12.46875 1.71875 1.71875 3.976562 2.582031 6.234374 2.582031 2.257813 0 4.511719-.863281 6.234376-2.582031zm0 0"/><path d="m403.917969 200.671875 3.125-3.121094c3.445312-3.449219 3.445312-9.019531 0-12.46875-3.449219-3.449219-9.023438-3.449219-12.46875 0l-3.121094 3.121094c-3.449219 3.449219-3.449219 9.023437 0 12.46875 1.71875 1.71875 3.976563 2.582031 6.234375 2.582031s4.511719-.863281 6.230469-2.582031zm0 0"/><path d="m228.519531 430.734375-3.125 3.121094c-3.445312 3.449219-3.445312 9.023437 0 12.46875 1.722657 1.71875 3.980469 2.582031 6.234375 2.582031 2.257813 0 4.515625-.863281 6.234375-2.582031l3.125-3.121094c3.445313-3.449219 3.445313-9.023437 0-12.46875-3.449219-3.449219-9.023437-3.449219-12.46875 0zm0 0"/><path d="m262.828125 396.425781-3.121094 3.121094c-3.449219 3.449219-3.449219 9.019531 0 12.46875 1.71875 1.71875 3.976563 2.582031 6.234375 2.582031 2.257813 0 4.511719-.863281 6.234375-2.582031l3.121094-3.125c3.449219-3.445313 3.449219-9.019531 0-12.464844-3.449219-3.449219-9.023437-3.449219-12.46875 0zm0 0"/><path d="m297.136719 362.117188-3.121094 3.121093c-3.449219 3.449219-3.449219 9.019531 0 12.46875 1.71875 1.71875 3.976563 2.582031 6.234375 2.582031s4.511719-.863281 6.234375-2.582031l3.121094-3.125c3.449219-3.445312 3.449219-9.019531 0-12.464843-3.449219-3.449219-9.03125-3.441407-12.46875 0zm0 0"/><path d="m331.4375 327.804688-3.121094 3.125c-3.449218 3.445312-3.449218 9.019531 0 12.464843 1.71875 1.722657 3.976563 2.585938 6.234375 2.585938 2.257813 0 4.511719-.867188 6.234375-2.585938l3.121094-3.121093c3.449219-3.449219 3.449219-9.019532 0-12.46875-3.449219-3.445313-9.019531-3.445313-12.46875 0zm0 0"/><path d="m400.058594 259.195312-3.121094 3.121094c-3.449219 3.449219-3.449219 9.019532 0 12.46875 1.71875 1.71875 3.976562 2.582032 6.234375 2.582032 2.253906 0 4.511719-.863282 6.234375-2.582032l3.121094-3.121094c3.449218-3.449218 3.449218-9.023437 0-12.46875-3.449219-3.445312-9.023438-3.445312-12.46875 0zm0 0"/><path d="m365.765625 293.488281-3.121094 3.121094c-3.457031 3.4375-3.457031 9.019531-.019531 12.46875 1.722656 1.726563 3.976562 2.59375 6.242188 2.59375 2.257812 0 4.507812-.867187 6.226562-2.574219l3.121094-3.125c3.457031-3.4375 3.457031-9.019531.015625-12.464844-3.433594-3.457031-9.015625-3.441406-12.464844-.019531zm0 0"/><path d="m434.367188 224.886719-3.121094 3.121093c-3.449219 3.449219-3.449219 9.019532 0 12.46875 1.71875 1.71875 3.976562 2.582032 6.234375 2.582032 2.257812 0 4.511719-.863282 6.234375-2.582032l3.121094-3.121093c3.449218-3.449219 3.449218-9.023438 0-12.46875-3.449219-3.449219-9.019532-3.449219-12.46875 0zm0 0"/></svg>