<svg height="512pt" viewBox="-92 0 512 512.0002" width="512pt" xmlns="http://www.w3.org/2000/svg"><path d="m122.027344 438.226562c-20.675782-4.875-37.117188-18.085937-45.101563-36.269531-1.921875-4.371093-7.019531-6.351562-11.410156-4.441406-4.371094 1.921875-6.363281 7.03125-4.441406 11.410156 10.191406 23.207031 30.96875 40.027344 56.996093 46.15625.664063.164063 1.332032.234375 1.988282.234375 3.921875 0 7.480468-2.683594 8.417968-6.671875 1.089844-4.660156-1.792968-9.320312-6.449218-10.417969zm0 0"/><path d="m62.027344 366.3125c4.464844 0 8.257812-3.429688 8.621094-7.957031.648437-8.050781 2.015624-16.242188 4.070312-24.347657 1.167969-4.640624-1.636719-9.347656-6.277344-10.515624-4.632812-1.144532-9.339844 1.636718-10.519531 6.273437-2.277344 9.03125-3.800781 18.183594-4.527344 27.195313-.382812 4.773437 3.167969 8.945312 7.929688 9.324218.234375.019532.46875.027344.703125.027344zm0 0"/><path d="m175.132812 76.851562c-3.617187 3.617188-8.164062 5.792969-12.804687 6.121094-4.242187.320313-7.921875-.988281-10.535156-3.601562-3.386719-3.386719-8.859375-3.386719-12.242188 0-3.386719 3.386718-3.386719 8.859375 0 12.242187 5.808594 5.816407 13.566407 8.675781 21.601563 8.675781 9.21875 0 18.804687-3.785156 26.222656-11.195312 3.386719-3.386719 3.386719-8.859375 0-12.242188-3.382812-3.386718-8.863281-3.375-12.242188 0zm0 0"/><path d="m322.207031 323.613281c-5.222656-16.148437-13.890625-31.066406-22.277343-45.492187-2.96875-5.113282-5.929688-10.191406-8.683594-15.273438-2.398438-4.421875-4.882813-8.855468-7.394532-13.332031-9.765624-17.453125-19.859374-35.496094-25.765624-53.964844-3.785157-11.84375-7.089844-24.199219-10.285157-36.148437-3.03125-11.324219-6.164062-23.027344-9.742187-34.476563-1.34375-4.300781-2.605469-8.761719-3.878906-13.261719-3.714844-13.144531-7.558594-26.726562-13.980469-38.902343-10.695313-20.230469-32.675781-32.984375-55.785157-32.871094h-.375c-.234374 0-.457031 0-.699218 0-.285156 0-.5625.050781-.839844.058594-5.921875-14.875-15.644531-31.226563-31.167969-39.03125-4.285156-2.136719-9.480469-.421875-11.617187 3.855469-2.148438 4.269531-.425782 9.472656 3.851562 11.617187 8.121094 4.082031 15.636719 13.636719 21.351563 26.398437-15.53125 4.824219-28.988281 15.472657-36.652344 29.972657-6.429687 12.175781-10.273437 25.769531-13.992187 38.910156-1.269532 4.503906-2.527344 8.953125-3.867188 13.246094-3.578125 11.4375-6.703125 23.136719-9.742188 34.453125-3.203124 11.957031-6.511718 24.320312-10.292968 36.171875-5.90625 18.484375-16.007813 36.527343-25.773438 53.992187-2.503906 4.457032-4.980468 8.890625-7.378906 13.304688-2.761719 5.074218-5.714844 10.15625-8.683594 15.273437-8.390625 14.425781-17.054687 29.34375-22.277344 45.480469-9.117187 28.21875-8.25 60.007812 2.453126 89.515625 18.007812 49.652344 64.34375 86.492187 120.921874 96.121094 10.789063 1.835937 22.003907 2.769531 33.765626 2.769531h2.105468c11.332032 0 22.546875-.933594 33.332032-2.769531 56.582031-9.636719 102.917968-46.46875 120.917968-96.121094 10.695313-29.488281 11.570313-61.28125 2.453125-89.496094zm-18.738281 83.617188c-15.886719 43.808593-57.097656 76.363281-107.546875 84.953125-10.128906 1.722656-20.761719 2.628906-32.027344 2.519531-10.648437.085937-21.238281-.796875-31.367187-2.519531-50.457032-8.589844-91.660156-41.144532-107.558594-84.953125-9.394531-25.914063-10.191406-53.714844-2.253906-78.285157 4.648437-14.382812 12.839844-28.476562 20.761718-42.113281 3.058594-5.253906 6.097657-10.484375 8.929688-15.703125 2.363281-4.347656 4.8125-8.730468 7.269531-13.128906 10.191407-18.207031 20.730469-37.027344 27.160157-57.175781 3.914062-12.25 7.273437-24.816407 10.527343-36.960938 2.988281-11.144531 6.070313-22.667969 9.542969-33.757812 1.394531-4.453125 2.691406-9.046875 4.007812-13.707031 3.472657-12.277344 7.0625-24.976563 12.640626-35.53125 5.609374-10.613282 15.671874-18.363282 27.117187-21.738282.96875 3.53125 1.851563 7.148438 2.542969 10.90625.773437 4.167969 4.417968 7.074219 8.503906 7.074219.527344 0 1.054688-.042969 1.585938-.144531 4.699218-.875 7.808593-5.394532 6.933593-10.097656-.425781-2.257813-1.097656-5.53125-2.09375-9.4375 15.488281 1.09375 29.574219 9.90625 36.71875 23.429687 5.574219 10.546875 9.160157 23.246094 12.632813 35.523437 1.316406 4.65625 2.621094 9.257813 4.007812 13.714844 3.472656 11.105469 6.5625 22.640625 9.550782 33.792969 3.246093 12.136719 6.613281 24.691406 10.519531 36.933594 6.429687 20.136719 16.957031 38.960937 27.148437 57.160156 2.46875 4.40625 4.917969 8.777344 7.289063 13.144531 2.84375 5.21875 5.871093 10.449219 8.929687 15.695313 7.929688 13.636719 16.121094 27.738281 20.769532 42.113281 7.960937 24.570312 7.164062 52.378906-2.242188 78.292969zm0 0"/></svg>