<svg height="512pt" viewBox="-17 0 512 512" width="512pt" xmlns="http://www.w3.org/2000/svg"><path d="m287.003906 178.445312c-4.289062-2.152343-9.511718-.417968-11.644531 3.863282-2.152344 4.277344-.425781 9.5 3.859375 11.644531 8.75 4.390625 16.734375 10.160156 23.699219 17.136719 1.695312 1.695312 3.917969 2.542968 6.136719 2.542968 2.222656 0 4.445312-.851562 6.136718-2.542968 3.394532-3.390625 3.394532-8.875 0-12.269532-8.289062-8.304687-17.773437-15.160156-28.1875-20.375zm0 0"/><path d="m249.96875 167.554688c-32.996094-3.566407-65.328125 7.835937-88.757812 31.265624-3.394532 3.394532-3.394532 8.878907 0 12.269532 1.691406 1.695312 3.914062 2.542968 6.132812 2.542968 2.222656 0 4.445312-.851562 6.136719-2.542968 19.699219-19.699219 46.914062-29.207032 74.621093-26.277344 4.800782.460938 9.035157-2.929688 9.5625-7.695312.511719-4.773438-2.933593-9.050782-7.695312-9.5625zm0 0"/><path d="m339.445312 174.554688c-55.835937-55.832032-146.65625-55.832032-202.492187 0-55.824219 55.835937-55.824219 146.667968 0 202.503906 27.917969 27.914062 64.574219 41.871094 101.246094 41.871094s73.328125-13.953126 101.246093-41.871094c55.832032-55.828125 55.832032-146.667969 0-202.503906zm-12.269531 190.230468c-49.066406 49.058594-128.90625 49.050782-177.953125 0-49.046875-49.054687-49.046875-128.902344 0-177.957031 24.535156-24.523437 56.753906-36.792969 88.976563-36.792969 32.222656 0 64.441406 12.269532 88.976562 36.792969 49.054688 49.066406 49.054688 128.902344 0 177.957031zm0 0"/><path d="m477.285156 273.355469c0-62.21875-24.515625-121.992188-67.679687-166.375 25.585937-9.207031 43.269531-28.382813 43.269531-50.574219 0-31.101562-34.667969-56.40625-77.285156-56.40625-18.917969 0-37.082032 4.980469-51.167969 14.023438-21.347656 13.730468-43.234375 20.6875-65.003906 20.6875h-178.0625c-11.367188 0-20.609375 9.242187-20.609375 20.613281v2.167969c0 11.367187 9.242187 20.609374 20.609375 20.609374h20.175781c-63.289062 44.351563-101.53125 116.632813-101.53125 195.253907 0 131.585937 107.058594 238.644531 238.644531 238.644531 48.324219 0 94.535157-14.457031 134.253907-41.59375 5.832031 4.503906 12.773437 6.898438 19.804687 6.898438 8.332031 0 16.671875-3.175782 23.015625-9.519532 10.8125-10.820312 12.320312-27.386718 4.695312-39.910156 36.703126-43.121094 56.871094-97.6875 56.871094-154.519531zm-399.1875-215.863281v-2.167969c0-1.761719 1.496094-3.253907 3.253906-3.253907h178.066407c25.15625 0 50.191406-7.890624 74.402343-23.449218 11.308594-7.261719 26.128907-11.261719 41.769532-11.261719 32.480468 0 59.929687 17.882813 59.929687 39.050781 0 17.851563-19.542969 33.3125-45.136719 37.738282-2.308593.390624-4.609374.695312-6.882812.914062-.230469.015625-.457031.050781-.691406.066406-2.449219.210938-4.878906.3125-7.273438.320313-3.808594 0-7.566406-.25-11.238281-.71875-.164063-.015625-.332031-.042969-.496094-.070313-7.175781-.953125-13.988281-2.800781-20.183593-5.40625-.476563-.199218-.953126-.414062-1.421876-.625-2.863281-1.28125-5.613281-2.707031-8.15625-4.328125-.070312-.042969-.148437-.078125-.210937-.121093-18.164063-11.664063-36.777344-19.015626-55.574219-21.964844-6.273437-.972656-12.554687-1.46875-18.839844-1.46875h-178.058593c-1.761719 0-3.257813-1.492188-3.257813-3.253906zm-60.746094 215.863281c0-82.007813 44.847657-156.628907 117.1875-195.253907h124.878907c8.164062 0 16.347656.980469 24.515625 2.925782 13.605468 3.246094 27.152344 9.179687 40.5 17.761718.035156.027344.078125.035157.109375.0625 3.238281 2.074219 6.734375 3.871094 10.355469 5.511719.476562.214844.945312.441407 1.429687.652344 11.472656 4.960937 24.558594 7.6875 38.347656 7.738281.3125 0 .605469.0625.921875.0625.925782 0 1.828125-.078125 2.757813-.105468 1.144531-.035157 2.289062-.050782 3.445312-.128907 2.648438-.15625 5.257813-.40625 7.828125-.746093.078125-.011719.15625-.011719.226563-.019532 44.585937 41.757813 70.070312 100.394532 70.070312 161.542969 0 51.902344-18.097656 101.800781-51.164062 141.511719-.417969-.417969-.832031-.824219-1.273438-1.269532-5.363281-5.320312-12.464843-12.355468-18.832031-18.640624-.730469-.71875-1.449219-1.429688-2.164062-2.125-.285157-.285157-.5625-.554688-.839844-.832032-.980469-.964844-1.925782-1.902344-2.828125-2.785156-.125-.121094-.253907-.242188-.367188-.363281-1.058593-1.042969-2.082031-2.050781-2.992187-2.945313 14.144531-18.101562 24.296875-38.09375 30.535156-58.894531 4.6875-15.605469 7.167969-31.667969 7.480469-47.730469.9375-48.1875-17.648438-96.414062-54.914063-132.398437-28.054687-27.085938-63.050781-43.050781-99.34375-48.136719-50.800781-7.125-104.144531 7.253906-144.679687 43.746094-37.019531 33.3125-58.117188 78.976562-59.425781 128.582031-1.300782 49.636719 17.304687 96.308594 52.40625 131.40625 3.660156 3.664063 7.453124 7.144531 11.355468 10.433594 58.507813 49.359375 142.109375 56.371093 208.808594 15.871093.800781.84375 1.695312 1.78125 2.632812 2.753907.277344.292969.578126.605469.875.910156.800782.832031 1.621094 1.691406 2.492188 2.585937.109375.121094.226562.234376.335938.355469 6.933593 7.175781 15.671874 16.125 22.242187 22.8125-36.179687 23.875-78.003906 36.441407-121.628906 36.441407-122.015625-.003907-221.285157-99.273438-221.285157-221.292969zm386.09375 182.160156c-5.925781 5.917969-15.578124 5.910156-21.425781.042969l-1.589843-1.617188c-3.253907-3.304687-11.167969-11.359375-19.230469-19.621094-.070313-.066406-.136719-.136718-.207031-.207031-1.5625-1.605469-3.125-3.203125-4.660157-4.78125-.789062-.816406-1.570312-1.613281-2.335937-2.402343-.574219-.589844-1.136719-1.175782-1.691406-1.753907-1.285157-1.328125-2.535157-2.621093-3.699219-3.828125-.277344-.285156-.535157-.5625-.804688-.839844-1.265625-1.320312-2.472656-2.578124-3.503906-3.664062-.792969-.832031-1.648437-1.554688-2.554687-2.195312-.304688-.214844-.632813-.390626-.945313-.582032-.625-.386718-1.265625-.753906-1.925781-1.066406-.375-.171875-.746094-.304688-1.128906-.453125-.65625-.25-1.328126-.457031-2.011719-.625-.382813-.085937-.753907-.171875-1.136719-.242187-.738281-.128907-1.484375-.191407-2.238281-.226563-.238281-.007813-.46875-.066406-.703125-.066406-.082032 0-.160156.035156-.226563.035156-1.40625.015625-2.8125.214844-4.203125.578125-.265625.070312-.519531.160156-.789062.246094-1.371094.425781-2.722656.972656-4.015625 1.75-.042969.027344-.085938.035156-.132813.054687-59.886718 36.480469-135.363281 30.164063-188.214844-14.414062-3.523437-2.980469-6.941406-6.117188-10.257812-9.425781-31.699219-31.699219-48.507812-73.851563-47.328125-118.679688 1.179687-44.804688 20.246094-86.050781 53.6875-116.148438 15.691406-14.117187 33.507813-24.59375 52.355469-31.457031.832031-.304687 1.691406-.492187 2.523437-.789062 3.898438-1.34375 7.820313-2.636719 11.785157-3.679688.519531-.136719 1.050781-.199219 1.5625-.328125 9.148437-2.300781 18.449218-3.855468 27.8125-4.539062 1.25-.09375 2.511718-.042969 3.769531-.105469 3.695312-.183594 7.394531-.371094 11.097656-.304687.347656.011718.695313.0625 1.042969.070312 39.292968.964844 78.273437 16.027344 108.414062 45.125 21.242188 20.507812 35.621094 45.457031 43.234375 71.976562 4.476563 15.601563 6.707031 31.726563 6.359375 47.882813-.71875 33.921875-12.167968 67.820313-34.683594 96.441406-5.25 6.6875-4.695312 16.15625 1.300782 22.03125 1.050781 1.03125 2.308594 2.265625 3.574218 3.523438.695313.683593 1.414063 1.386719 2.160157 2.125 1.277343 1.257812 2.554687 2.515625 3.921875 3.878906 10.996094 10.863281 24.457031 24.238281 26.722656 26.484375l.363281.355469c5.867188 5.925781 5.867188 15.53125-.042969 21.441406zm0 0"/></svg>