<svg height="511pt" viewBox="-11 0 511 511.99675" width="511pt" xmlns="http://www.w3.org/2000/svg"><path d="m484.109375 134.4375c-.980469-.980469-2.007813-1.898438-3.007813-2.871094 4.898438-4.371094 8.058594-10.667968 8.058594-17.742187 0-15.183594-12.355468-27.539063-27.539062-27.539063-.039063 0-.066406.015625-.089844.015625.007812-1.394531-.210938-2.789062-.875-4.117187-2.265625-4.539063-7.773438-6.355469-12.316406-4.105469l-14.035156 7.023437c-4.726563-4.039062-9.527344-7.878906-14.402344-11.53125 1.46875-.898437 2.890625-1.917968 4.15625-3.183593 4.867187-4.875 7.546875-11.347657 7.546875-18.238281 0-6.894532-2.679688-13.367188-7.554688-18.230469-11.675781-11.667969-30.675781-11.667969-42.355469 0-3.441406 3.441406-6.011718 7.414062-7.71875 11.664062-7.351562-3.523437-14.796874-6.644531-22.304687-9.390625l5.652344-22.027344c1.257812-4.910156-1.699219-9.914062-6.609375-11.179687-4.9375-1.257813-9.914063 1.707031-11.171875 6.609375l-5.367188 20.910156c-2.792969-.78125-5.582031-1.515625-8.382812-2.183594-3.824219-16.210937-18.308594-28.320312-35.640625-28.320312-4.847656 0-8.71875 3.792969-9.050782 8.5625-4.910156-3.046875-10.648437-4.890625-16.835937-4.890625-12.996094 0-24.160156 7.792969-29.207031 18.925781-3.203125-1.074218-6.859375-.429687-9.410156 2.121094l-3.394532 3.398438c-8.746094 2.144531-17.421875 4.789062-25.960937 8.074218l-10.703125-26.746094c-1.890625-4.710937-7.203125-7.015624-11.929688-5.121093-4.710937 1.878906-6.996094 7.222656-5.113281 11.929687l10.921875 27.308594c-7.1875 3.480469-14.261719 7.371094-21.222656 11.710938-5.082032-3.558594-11.234375-5.707032-17.898438-5.707032-20.25 0-36.714844 16.464844-36.714844 36.714844 0 3.460938 1.992188 6.351562 4.808594 7.921875-6.371094 6.289063-12.417968 12.769531-17.910156 19.617187h-32.796875c-5.066406 0-9.179687 4.101563-9.179687 9.179688 0 5.074219 4.113281 9.179688 9.179687 9.179688h19.726563c-4.296876 6.664062-8.316407 13.585937-11.96875 20.847656-3.800782-1.589844-7.96875-2.488282-12.347657-2.488282-17.714843 0-32.125 14.410157-32.125 32.125 0 14.46875 9.671875 26.585938 22.84375 30.597657-4 16.320312-7.175781 33.871093-9.5 53.007812l-9.234375-4.617187c-4.542968-2.257813-10.050781-.429688-12.320312 4.105468-2.265625 4.535157-.429688 10.050782 4.105468 12.316407l15.4375 7.722656c-.355468 4.019531-.6875 8.132813-.992187 12.28125-10.996094-2.121094-22.496094 3.101563-27.730469 13.585937-7.324218 14.648438-1.355468 32.519532 13.285156 39.855469 1.3125.652344 2.714844.960938 4.09375.960938 3.367188 0 6.605469-1.851563 8.214844-5.074219 2.277344-4.527344.429688-10.050781-4.09375-12.320312-5.601562-2.800782-7.875-9.628907-5.078125-15.21875 1.78125-3.570313 6.132813-5.058594 9.710938-3.25.339843.164062.496093.40625.734375.613281.195312 1.128906.5625 2.15625 1.121094 3.121093 0 .453126-.035157.902344-.035157 1.351563-.039062.082031-.011719.144531-.058593.226563-1.382813 2.765624-1.089844 5.8125.257812 8.34375.550781 17.894531 2.863281 35.46875 6.867188 52.554687l-20.542969 6.847656c-4.8125 1.597657-7.410157 6.792969-5.800781 11.609375 1.285156 3.847656 4.863281 6.28125 8.710937 6.28125.953125 0 1.9375-.15625 2.898437-.476562l19.523438-6.511719c2.800781 9.0625 6.125 17.9375 9.886719 26.621094-2.796875 1.570312-4.769531 4.453125-4.769531 7.894531 0 5.078125 4.109374 9.179688 9.179687 9.179688 1.59375 0 3.027344.523437 4.339844 1.25 1.503906 2.855468 3.113281 5.660156 4.726562 8.460937-.273437 2.78125-2.550781 4.976563-5.398437 4.976563-1.414063 0-2.570313-1.15625-2.570313-2.570313 0-5.078125-4.113281-9.179687-9.179687-9.179687s-9.179688 4.101562-9.179688 9.179687c0 11.546875 9.390625 20.925781 20.929688 20.925781 6.207031 0 11.8125-2.441406 16.0625-6.332031 1.890625 2.761719 3.800781 5.515625 5.792968 8.214844l-4.480468 4.480469c-3.589844 3.589843-3.589844 9.390624 0 12.980468 1.789062 1.789063 4.140625 2.6875 6.488281 2.6875 2.351563 0 4.699219-.898437 6.492187-2.6875l3.054688-3.058594c4.589844 5.378907 9.355469 10.648438 14.414062 15.707032 1.789063 1.789062 4.140626 2.6875 6.488282 2.6875 2.351562 0 4.699218-.898438 6.492187-2.6875l354-353.996094 5.472657-3.496094c2.136718-1.371094 3.617187-3.570312 4.074218-6.058594.046875-.265624-.042968-.535156-.015625-.796874 1.714844-3.433594 1.238281-7.667969-1.628906-10.523438zm-31.464844-37.980469c.511719 4.585938 4.257813 8.195313 8.976563 8.195313 5.058594 0 9.179687 4.113281 9.179687 9.179687 0 2.074219-1.191406 3.816407-2.890625 4.753907-6.167968-7.113282-12.527344-13.859376-19.082031-20.222657zm-57.964843-49.578125c2.257812-2.257812 5.230468-3.386718 8.195312-3.386718s5.9375 1.128906 8.195312 3.386718c1.40625 1.402344 2.175782 3.269532 2.175782 5.25 0 1.992188-.769532 3.855469-2.175782 5.261719-1.605468 1.597656-4.222656 1.597656-5.816406 0-3.078125-3.074219-7.722656-3.351563-11.265625-1.148437-1.171875-.695313-2.347656-1.375-3.535156-2.054688.753906-2.664062 2.121094-5.199219 4.226563-7.308594zm-22.683594 17.882813c.183594 1.046875.496094 2.054687.769531 3.082031-9.023437-2.6875-18.210937-4.863281-27.527344-6.582031l1.882813-7.3125c8.304687 3.035156 16.613281 6.617187 24.875 10.8125zm-44.738282-7.308594c-.101562.382813-.011718.753906-.058593 1.136719-2.859375-.328125-5.734375-.605469-8.625-.835938 2.789062-3.039062 4.945312-6.609375 6.359375-10.566406 1.550781.386719 3.101562.738281 4.664062 1.160156zm-96.523437-11.859375c.964844-.210938 1.929687-.421875 2.902344-.625 2.046875 6.804688 6.207031 12.660156 11.824219 16.753906-14.808594 2.882813-29.246094 7.066406-43.234376 12.390625zm64.925781 3.972656c-.796875 0-1.511718-.246094-2.238281-.449218 1.03125-2.238282 1.855469-4.578126 2.339844-7.046876 3.589843.367188 7.179687.835938 10.785156 1.394532-2.265625 3.652344-6.277344 6.101562-10.886719 6.101562zm-25.699218-1.265625c-1.746094.796875-3.652344 1.265625-5.691407 1.265625-5.304687 0-9.867187-3.042968-12.164062-7.453125 5.527343-.59375 11.117187-.960937 16.761719-1.109375 0 .042969-.007813.082032-.007813.117188 0 2.507812.457031 4.886718 1.101563 7.179687zm-83.066407 13.851563c.121094.3125.339844.539062.488281.824218l-7.628906 7.636719c-3.589844 3.589844-3.589844 9.390625 0 12.980469.074219.074219.171875.089844.25.164062-3.308594 1.625-6.582031 3.289063-9.816406 5.050782.808594-2.550782 1.371094-5.222656 1.371094-8.039063 0-3.828125-.789063-7.464843-2.058594-10.851562 5.40625-3.296875 11.035156-6.351563 16.855469-9.140625zm-64.980469 60.472656c-.183593-4.332031-3.367187-7.738281-7.523437-8.480469 4.351563-4.671875 9.003906-9.171875 13.867187-13.566406 3.40625 3.449219 7.828126 5.863281 12.824219 6.664063-6.597656 4.808593-12.976562 9.941406-19.167969 15.382812zm31.277344-41.921875c0 .027344.007813.046875.007813.074219 0 4.65625-3.789063 8.445312-8.445313 8.445312-.796875 0-1.523437-.238281-2.183594-.570312 3.441407-2.6875 6.9375-5.351563 10.621094-7.949219zm-29.226562-2.6875c2.871094-5.683594 8.65625-9.546875 15.347656-9.941406-3.25 2.359375-6.371094 4.773437-9.445312 7.203125-2.304688.210937-4.40625 1.140625-5.902344 2.738281zm-12.375 54.164063c-.78125.761718-1.589844 1.476562-2.359375 2.25-10.316407 10.316406-19.625 21.371093-27.988281 32.980468-.476563-.863281-.863282-1.789062-1.414063-2.605468 5.65625-11.75 12.292969-22.507813 19.746094-32.632813h12.015625zm-72.214844 50.488281c0-7.59375 6.179688-13.769531 13.769531-13.769531 1.644531 0 3.203125.339843 4.671875.871093-3.386718 8.199219-6.390625 16.863281-9.125 25.867188-5.394531-1.863281-9.316406-6.9375-9.316406-12.96875zm76.464844 307.0625c-11.921875-12.8125-22.269532-26.726563-31.089844-41.445313-1.121094-5.84375-4.113281-11.003906-8.308594-14.90625-17.101562-33.6875-26.222656-71.113281-26.464844-109.949218.3125-2.109376.386719-4.25.085938-6.378907 1.21875-64.089843 26.691406-124.179687 72.148438-169.632812 46.601562-46.605469 108.5625-72.269531 174.460937-72.269531 54.882813 0 107.03125 17.808593 149.839844 50.679687 2.515625 5.1875 7.078125 9.125 12.652343 10.847656 1.339844 1.625 2.667969 3.269531 4 4.949219l-1.449218 1.359375c-.910156.851563-1.582032 1.863281-2.066406 2.9375zm0 0"/><path d="m323.933594 191.847656c0 7.601563-6.164063 13.765625-13.769532 13.765625-7.601562 0-13.769531-6.164062-13.769531-13.765625 0-7.605468 6.167969-13.769531 13.769531-13.769531 7.605469 0 13.769532 6.164063 13.769532 13.769531zm0 0"/><path d="m85.273438 338.714844c0 7.601562-6.164063 13.765625-13.769532 13.765625-7.605468 0-13.769531-6.164063-13.769531-13.765625 0-7.605469 6.164063-13.769532 13.769531-13.769532 7.605469 0 13.769532 6.164063 13.769532 13.769532zm0 0"/><path d="m177.066406 237.742188c0 12.675781-10.277344 22.949218-22.949218 22.949218-12.675782 0-22.949219-10.273437-22.949219-22.949218 0-12.671876 10.273437-22.949219 22.949219-22.949219 12.671874 0 22.949218 10.277343 22.949218 22.949219zm0 0"/><path d="m278.039062 301.996094c0 12.675781-10.277343 22.949218-22.949218 22.949218-12.675782 0-22.949219-10.273437-22.949219-22.949218 0-12.671875 10.273437-22.945313 22.949219-22.945313 12.671875 0 22.949218 10.273438 22.949218 22.945313zm0 0"/><path d="m287.21875 118.414062c0 12.671876-10.277344 22.945313-22.949219 22.945313-12.675781 0-22.949219-10.273437-22.949219-22.945313 0-12.675781 10.273438-22.949218 22.949219-22.949218 12.671875 0 22.949219 10.273437 22.949219 22.949218zm0 0"/><path d="m167.886719 393.789062c0 7.605469-6.167969 13.769532-13.769531 13.769532-7.605469 0-13.769532-6.164063-13.769532-13.769532 0-7.605468 6.164063-13.769531 13.769532-13.769531 7.601562 0 13.769531 6.164063 13.769531 13.769531zm0 0"/><path d="m177.066406 164.308594c0 7.605468-6.167968 13.769531-13.769531 13.769531-7.605469 0-13.769531-6.164063-13.769531-13.769531 0-7.605469 6.164062-13.769532 13.769531-13.769532 7.601563 0 13.769531 6.164063 13.769531 13.769532zm0 0"/><path d="m103.632812 246.921875c0 7.605469-6.164062 13.769531-13.769531 13.769531s-13.769531-6.164062-13.769531-13.769531 6.164062-13.769531 13.769531-13.769531 13.769531 6.164062 13.769531 13.769531zm0 0"/><path d="m222.960938 214.792969c0 5.070312-4.109376 9.179687-9.179688 9.179687s-9.179688-4.109375-9.179688-9.179687c0-5.066407 4.109376-9.179688 9.179688-9.179688s9.179688 4.113281 9.179688 9.179688zm0 0"/><path d="m149.527344 324.945312c0 5.070313-4.109375 9.179688-9.179688 9.179688-5.070312 0-9.179687-4.109375-9.179687-9.179688 0-5.070312 4.109375-9.179687 9.179687-9.179687 5.070313 0 9.179688 4.109375 9.179688 9.179687zm0 0"/><path d="m406.546875 150.539062c0 5.070313-4.109375 9.179688-9.179687 9.179688-5.070313 0-9.179688-4.109375-9.179688-9.179688 0-5.070312 4.109375-9.179687 9.179688-9.179687 5.070312 0 9.179687 4.109375 9.179687 9.179687zm0 0"/><path d="m204.601562 306.585938c0 5.070312-4.109374 9.179687-9.179687 9.179687-5.066406 0-9.179687-4.109375-9.179687-9.179687 0-5.070313 4.113281-9.179688 9.179687-9.179688 5.070313 0 9.179687 4.109375 9.179687 9.179688zm0 0"/><path d="m112.8125 407.558594c0 5.070312-4.109375 9.179687-9.179688 9.179687-5.070312 0-9.179687-4.109375-9.179687-9.179687 0-5.070313 4.109375-9.179688 9.179687-9.179688 5.070313 0 9.179688 4.109375 9.179688 9.179688zm0 0"/></svg>