<svg height="512pt" viewBox="0 0 512.00355 512" width="512pt" xmlns="http://www.w3.org/2000/svg"><path d="m491.921875 345.140625c-5.542969 0-10.039063 4.488281-10.039063 10.039063 0 11.074218-9.007812 20.078124-20.082031 20.078124-11.070312 0-20.078125-9.003906-20.078125-20.078124h-20.078125c0 11.074218-9.003906 20.078124-20.078125 20.078124-11.074218 0-20.078125-9.003906-20.078125-20.078124h-20.082031c0 11.074218-9.003906 20.078124-20.078125 20.078124s-20.078125-9.003906-20.078125-20.078124h-20.078125c0 11.074218-9.003906 20.078124-20.078125 20.078124s-20.082031-9.003906-20.082031-20.078124h-20.078125c0 11.074218-9.003906 20.078124-20.078125 20.078124s-20.078125-9.003906-20.078125-20.078124h-20.070313c0 11.074218-9.003906 20.078124-20.078125 20.078124-11.074218 0-20.078125-9.003906-20.078125-20.078124h-20.078125c0 11.074218-9.007812 20.078124-20.078125 20.078124-11.074219 0-20.082031-9.003906-20.082031-20.078124h-20.074219c0 11.074218-9.007812 20.078124-20.082031 20.078124-11.070312 0-20.078125-9.003906-20.078125-20.078124 0-5.550782-4.496094-10.039063-10.039063-10.039063-5.539062 0-10.039062 4.488281-10.039062 10.039063 0 22.144531 18.011719 40.15625 40.15625 40.15625 11.976562 0 22.757812-5.269532 30.117188-13.621094 7.359374 8.351562 18.140624 13.621094 30.121093 13.621094 11.976563 0 22.757813-5.269532 30.117188-13.621094 7.359375 8.351562 18.140625 13.621094 30.117187 13.621094 11.976563 0 22.757813-5.269532 30.117188-13.621094 7.359375 8.351562 18.140625 13.621094 30.121094 13.621094 11.976562 0 22.757812-5.269532 30.117187-13.621094 7.359375 8.351562 18.140625 13.621094 30.117187 13.621094 11.980469 0 22.761719-5.269532 30.121094-13.621094 7.359375 8.351562 18.140625 13.621094 30.117188 13.621094 11.976562 0 22.757812-5.269532 30.117187-13.621094 7.359375 8.351562 18.140625 13.621094 30.121094 13.621094 11.976563 0 22.757813-5.269532 30.117187-13.621094 7.359376 8.351562 18.140626 13.621094 30.117188 13.621094 22.148438 0 40.15625-18.011719 40.15625-40.15625-.007812-5.550782-4.507812-10.039063-10.046875-10.039063zm0 0"/><path d="m471.84375 411.609375h-421.644531c-5.542969 0-10.042969 4.488281-10.042969 10.039063v80.316406c0 5.550781 4.5 10.039062 10.042969 10.039062h421.644531c5.539062 0 10.039062-4.488281 10.039062-10.039062v-80.316406c0-5.550782-4.5-10.039063-10.039062-10.039063zm-10.042969 80.316406h-401.5625v-60.238281h401.566407v60.238281zm0 0"/><path d="m481.882812 269.34375v-48.476562c0-.222657-.113281-.402344-.121093-.625-.0625-.910157-.230469-1.785157-.53125-2.648438-.109375-.320312-.191407-.644531-.34375-.953125-.480469-1.035156-1.082031-2.007813-1.917969-2.84375-.007812-.007813-.019531-.027344-.027344-.039063l-210.824218-210.8125c-3.925782-3.925781-10.269532-3.925781-14.195313 0l-210.8125 210.8125c-.011719.011719-.019531.03125-.03125.042969-.832031.832031-1.433594 1.816407-1.917969 2.839844-.136718.3125-.21875.632813-.339844.957031-.300781.863282-.480468 1.734375-.53125 2.648438-.019531.21875-.128906.402344-.128906.621094v32.347656c-24.605468 7.085937-40.15624975 23.300781-40.15624975 42.949218 0 25.75 34.52343775 45.175782 80.31249975 45.175782 21.867188 0 41.113282-4.46875 55.304688-11.90625 14.667968 7.609375 34.335937 11.90625 55.125 11.90625 24.566406 0 45.820312-5.632813 60.316406-14.789063 14.910156 9.335938 36.695312 14.789063 60.15625 14.789063 23.628906 0 44.210938-5.199219 58.648438-13.753906 14.789062 8.683593 37.175781 13.753906 61.824218 13.753906 39.914063 0 80.3125-13.796875 80.3125-40.15625-.003906-13.164063-10.917968-24.507813-30.121094-31.839844zm-102.941406 1.71875h-303.644531c-11.6875 0-14.207031-2.027344-14.246094-2.027344-.332031-.644531-.453125-3.035156-.535156-4.597656-.058594-1.226562-.15625-2.449219-.277344-3.675781v-29.855469h401.566407v40.15625zm-117.921875-246.824219 186.589844 186.589844h-373.179687zm-240.941406 271.921875c0-7.609375 6.355469-16.445312 20.078125-21.855468v6.792968c0 5.554688 4.5 10.039063 10.042969 10.039063h88.414062c.238281.375.660157.773437.851563 1.144531.011718.011719.011718.019531.019531.042969.703125 1.335937 1.066406 2.628906 1.066406 3.835937 0 1.171875-.382812 2.410156-.945312 3.664063-.242188.523437-.613281 1.054687-.953125 1.574219-.433594.695312-.925782 1.386718-1.515625 2.078124-.605469.703126-1.277344 1.394532-2.03125 2.089844-.5.460938-1.082031.921875-1.65625 1.375-1.03125.824219-2.054688 1.644532-3.292969 2.429688l-.070312.050781c-10.179688 6.503906-27.296876 11.835937-49.773438 11.835937-37.3125 0-60.234375-14.617187-60.234375-25.097656zm133.402344 19.175782c2.289062-2.882813 4.074219-5.933594 5.28125-9.144532.019531-.050781.039062-.09375.058593-.132812.542969-1.472656.953126-2.96875 1.253907-4.503906.03125-.140626.082031-.273438.109375-.414063.273437-1.636719.445312-3.292969.445312-4.980469 0-1.695312-.160156-3.363281-.464844-5.019531h88.9375c.203126.3125.554688.652344.714844.964844.058594.121093.109375.242187.167969.359375.625 1.277344.996094 2.511718.996094 3.695312 0 1.164063-.382813 2.398438-.945313 3.644532-.179687.390624-.402344.773437-.632812 1.15625-.5.871093-1.164063 1.757812-1.917969 2.628906-.632813.714844-1.265625 1.367187-1.9375 1.96875-8.785156 8.140625-27.988281 15.703125-54.800781 15.703125-13.515625-.003907-26.605469-2.144531-37.265625-5.925781zm112.742187-3.234376c.089844-.140624.148438-.28125.230469-.421874.589844-.972657 1.144531-1.945313 1.625-2.949219.230469-.472657.421875-.957031.621094-1.425781.351562-.835938.703125-1.675782.976562-2.53125.238281-.742188.398438-1.496094.570313-2.25.152344-.640626.332031-1.285157.441406-1.945313.230469-1.46875.371094-2.929687.371094-4.417969 0-1.6875-.160156-3.351562-.472656-5.019531h98.988281c.320312.511719.761719 1.042969.992187 1.535156.042969.101563.101563.203125.140625.292969.472657 1.113281.742188 2.179688.742188 3.191406 0 1.226563-.378907 2.511719-.984375 3.816406-.199219.414063-.480469.773438-.722656 1.164063-.511719.851563-1.125 1.71875-1.886719 2.582031-.429688.480469-.851563.960938-1.304688 1.382813-1.144531 1.117187-2.429687 2.21875-3.957031 3.296875l-.511719.390625c-10.007812 6.804687-27.636719 12.46875-50.867187 12.46875-17.214844-.003907-33.460938-3.398438-44.992188-9.160157zm165.464844 9.15625c-17.457031 0-34.085938-3.003906-45.71875-7.980468.210938-.300782.320312-.59375.511719-.886719.699219-1.09375 1.363281-2.195313 1.925781-3.332031.300781-.601563.523438-1.183594.773438-1.777344.363281-.863281.714843-1.726562.984374-2.597656.25-.792969.421876-1.546875.59375-2.308594.148438-.652344.308594-1.304688.421876-1.980469.21875-1.503906.351562-2.941406.351562-4.234375 0-1.6875-.160156-3.363281-.464844-5.019531h90.566406c7.328126 3.894531 10.289063 7.851563 10.289063 10.039063 0 7.078124-22.871094 20.078124-60.234375 20.078124zm0 0"/><path d="m371.449219 180.710938c0 5.542968-4.492188 10.039062-10.039063 10.039062-5.542968 0-10.039062-4.496094-10.039062-10.039062 0-5.546876 4.496094-10.039063 10.039062-10.039063 5.546875 0 10.039063 4.492187 10.039063 10.039063zm0 0"/><path d="m261.019531 90.355469c0 5.546875-4.492187 10.039062-10.039062 10.039062-5.542969 0-10.039063-4.492187-10.039063-10.039062 0-5.542969 4.496094-10.039063 10.039063-10.039063 5.546875 0 10.039062 4.496094 10.039062 10.039063zm0 0"/><path d="m170.667969 180.710938c0 5.542968-4.496094 10.039062-10.039063 10.039062-5.546875 0-10.039062-4.496094-10.039062-10.039062 0-5.546876 4.492187-10.039063 10.039062-10.039063 5.542969 0 10.039063 4.492187 10.039063 10.039063zm0 0"/><path d="m301.175781 150.589844c0 5.546875-4.492187 10.042968-10.039062 10.042968-5.542969 0-10.039063-4.496093-10.039063-10.042968 0-5.542969 4.496094-10.039063 10.039063-10.039063 5.546875 0 10.039062 4.496094 10.039062 10.039063zm0 0"/><path d="m240.941406 160.632812c0 5.542969-4.496094 10.039063-10.039062 10.039063-5.542969 0-10.039063-4.496094-10.039063-10.039063 0-5.546874 4.496094-10.042968 10.039063-10.042968 5.542968 0 10.039062 4.496094 10.039062 10.042968zm0 0"/><path d="m341.335938 451.765625c0 5.546875-4.496094 10.039063-10.039063 10.039063-5.546875 0-10.042969-4.492188-10.042969-10.039063 0-5.542969 4.496094-10.039063 10.042969-10.039063 5.542969 0 10.039063 4.496094 10.039063 10.039063zm0 0"/><path d="m421.648438 471.84375c0 5.546875-4.496094 10.039062-10.042969 10.039062-5.542969 0-10.039063-4.492187-10.039063-10.039062 0-5.542969 4.496094-10.039062 10.039063-10.039062 5.546875 0 10.042969 4.496093 10.042969 10.039062zm0 0"/><path d="m100.394531 471.84375c0 5.546875-4.496093 10.039062-10.042969 10.039062-5.542968 0-10.039062-4.492187-10.039062-10.039062 0-5.542969 4.496094-10.039062 10.039062-10.039062 5.546876 0 10.042969 4.496093 10.042969 10.039062zm0 0"/><path d="m271.058594 471.84375c0 5.546875-4.492188 10.039062-10.039063 10.039062-5.542969 0-10.039062-4.492187-10.039062-10.039062 0-5.542969 4.496093-10.039062 10.039062-10.039062 5.546875 0 10.039063 4.496093 10.039063 10.039062zm0 0"/><path d="m180.707031 451.765625c0 5.546875-4.496093 10.039063-10.039062 10.039063-5.546875 0-10.039063-4.492188-10.039063-10.039063 0-5.542969 4.492188-10.039063 10.039063-10.039063 5.542969 0 10.039062 4.496094 10.039062 10.039063zm0 0"/></svg>