<svg height="512pt" viewBox="0 -131 512 512" width="512pt" xmlns="http://www.w3.org/2000/svg"><path d="m512 141.976562c0-16.632812-16.710938-30.230468-43.023438-35.917968v-28.621094c0-.550781-.042968-1.089844-.113281-1.683594l.007813-.214844c.054687-.800781.105468-1.59375.105468-2.394531 0-40.332031-32.8125-73.14062475-73.144531-73.14062475-2.304687 0-4.601562.12890575-6.890625.35156275-1.128906.105469-2.230468.292969-3.339844.457031-1.085937.15625-2.175781.292969-3.253906.5-1.417968.265625-2.804687.601562-4.199218.953125-.714844.183594-1.425782.355469-2.132813.550781-1.558594.441406-3.082031.941406-4.585937 1.472656-.507813.183594-1.015626.363282-1.515626.558594-1.601562.613282-3.175781 1.265625-4.722656 1.988282-.398437.183593-.785156.378906-1.171875.570312-1.601562.773438-3.164062 1.589844-4.695312 2.476562-.328125.1875-.648438.398438-.964844.585938-1.558594.9375-3.089844 1.902344-4.570313 2.941406-.285156.199219-.550781.414063-.824218.621094-1.5 1.09375-2.976563 2.210938-4.390625 3.40625-.015625.019531-.042969.035156-.0625.054688-13.164063-11.1875-29.988281-17.4687505-47.328125-17.4687505-2.304688 0-4.601563.1289065-6.890625.3515625-1.128907.105469-2.230469.292969-3.339844.457031-1.085937.15625-2.175781.292969-3.253906.5-1.417969.265625-2.804688.601563-4.199219.953125-.714844.183594-1.429688.355469-2.132812.554688-1.558594.4375-3.082032.9375-4.585938 1.46875-.507812.183594-1.019531.363281-1.515625.558594-1.601563.613281-3.175781 1.265624-4.722656 1.988281-.398438.183593-.785157.378906-1.171875.570312-1.601563.773438-3.167969 1.589844-4.695313 2.476563-.328125.191406-.648437.398437-.964843.585937-1.558594.9375-3.089844 1.902344-4.570313 2.941407-.285156.199218-.550781.414062-.828125.621093-1.496094 1.09375-2.976562 2.210938-4.386719 3.40625-.015625.019531-.042969.035157-.0625.054688-11.753906-9.992188-26.433593-16.03125-41.785156-17.21875-.421875-.0625-.800781-.2500002-1.238281-.2500002-.6875 0-1.351563.0859372-2.03125.1015622-.773438-.066406-1.523438-.144531-2.289063-.144531-17.339843 0-34.164062 6.28125-47.328125 17.46875-13.167968-11.1875-29.988281-17.46875-47.328125-17.46875-40.332031 0-73.144531 32.8125-73.144531 73.144531 0 .808594.054688 1.597657.105469 2.390625l.007812.207032c-.066406.558593-.109375 1.125-.109375 1.703124v29.667969c-23.707031 6.25-38.722656 19.449219-38.722656 34.863281 0 15.917969 15.445312 28.980469 38.757812 35.046876.332032 40.039062 32.992188 72.515624 73.109376 72.515624h283.964843c39.765625 0 72.160157-31.917968 73.058594-71.472656 25.734375-5.507812 43.109375-19.191406 43.109375-36.089844zm-456.066406-68.839843c0-30.839844 25.089844-55.933594 55.929687-55.933594 14.398438 0 27.796875 5.429687 38.207031 15.265625-7.820312 11.632812-12.390624 25.625-12.390624 40.667969 0 4.757812 3.847656 8.605469 8.605468 8.605469 4.757813 0 8.605469-3.847657 8.605469-8.605469 0-30.109375 23.9375-54.679688 53.773437-55.824219 12.417969.464844 24.007813 4.933594 33.464844 12.839844-8.820312 12.082031-14.09375 26.917968-14.09375 42.984375 0 4.757812 3.84375 8.605469 8.601563 8.605469 4.761719 0 8.605469-3.847657 8.605469-8.605469 0-14.707031 5.75-28.070313 15.070312-38.070313 1.1875-1.273437 2.425781-2.46875 3.699219-3.613281.199219-.171875.378906-.355469.574219-.527344 1.121093-.980469 2.289062-1.882812 3.46875-2.761719.40625-.300781.800781-.621093 1.210937-.902343.9375-.664063 1.910156-1.246094 2.882813-1.84375.679687-.410157 1.351562-.859375 2.058593-1.246094.6875-.378906 1.402344-.703125 2.097657-1.058594.988281-.492187 1.972656-1.007812 2.996093-1.445312.421875-.179688.867188-.320313 1.296875-.492188 1.300782-.515625 2.601563-1.023437 3.941406-1.445312.199219-.058594.40625-.101563.613282-.160157 1.5625-.476562 3.148437-.894531 4.773437-1.234374.136719-.023438.277344-.03125.414063-.066407 1.683594-.335937 3.390625-.601562 5.117187-.785156 1.894531-.1875 3.804688-.289063 5.734375-.289063 13.222656 0 25.605469 4.574219 35.605469 12.949219-8.820313 12.082031-14.09375 26.917969-14.09375 42.984375 0 4.757813 3.84375 8.605469 8.605469 8.605469 4.757812 0 8.605468-3.847656 8.605468-8.605469 0-14.707031 5.746094-28.070312 15.066407-38.070312 1.1875-1.273438 2.425781-2.46875 3.699219-3.613282.199218-.171874.378906-.355468.574218-.527343 1.121094-.980469 2.292969-1.882813 3.46875-2.761719.402344-.300781.800782-.617188 1.210938-.902344.941406-.664062 1.914062-1.246094 2.882812-1.839844.679688-.414062 1.351563-.863281 2.058594-1.25.6875-.378906 1.402344-.703124 2.097656-1.058593.992188-.488281 1.972656-1.007813 2.996094-1.445313.421875-.179687.871094-.316406 1.296875-.492187 1.300781-.515625 2.601563-1.023438 3.941406-1.445313.199219-.058594.40625-.101562.613281-.160156 1.566407-.476562 3.148438-.894531 4.773438-1.230469.136719-.027343.277344-.035156.414062-.070312 1.6875-.335938 3.390626-.601563 5.121094-.78125 1.890625-.191407 3.800782-.292969 5.730469-.292969 30.839844 0 55.929687 25.089844 55.929687 55.929688v37.96875l-.117187 1.203124c-.011719.179688-.085937.34375-.105469.527344-.109375.980469-.335937 1.933594-.746094 2.785156-.011718.019532-.019531.027344-.027343.035157-.464844.9375-1.085938 1.78125-1.832031 2.488281-.085938.078125-.191407.109375-.277344.1875-.695313.613281-1.460938 1.144531-2.324219 1.5-.988281.394531-2.0625.644531-3.191406.644531h-378.628907c-1.121093 0-2.1875-.25-3.167968-.636719-.578125-.234374-1.058594-.621093-1.566406-.972656-.335938-.230468-.707032-.402344-1.007813-.679687-.574219-.53125-1.042969-1.1875-1.453125-1.875-.121094-.1875-.277344-.359375-.378906-.558594-.371094-.730469-.585938-1.546875-.742188-2.390625-.066406-.386719-.214844-.75-.234375-1.152344l-.058593-.570312v-33.929688l.164062-1.488281zm356.273437 72.074219c-.058593.128906-.085937.257812-.152343.386718-.484376.929688-1.242188 1.875-2.058594 2.824219-.464844.523437-.980469 1.046875-1.550782 1.566406-.601562.558594-1.273437 1.109375-1.984374 1.652344-1.128907.851563-2.386719 1.683594-3.761719 2.488281-.414063.238282-.828125.480469-1.257813.714844-.871094.472656-1.765625.925781-2.710937 1.375-5.042969 2.339844-10.875 4.15625-17.191407 5.386719-.027343 0-.042968.007812-.070312.007812-3.050781.59375-6.21875 1.042969-9.464844 1.351563-3.363281.308594-6.867187.515625-10.574218.515625-2.597657 0-5.171876-.117188-7.710938-.300781-.695312-.050782-1.382812-.109376-2.082031-.179688-2.003907-.183594-3.976563-.414062-5.917969-.707031-.550781-.085938-1.117188-.144531-1.671875-.238281-2.410156-.398438-4.757813-.871094-7.019531-1.429688-.421875-.105469-.808594-.222656-1.222656-.335938-1.839844-.480468-3.621094-1.015624-5.34375-1.601562-.316407-.109375-.636719-.222656-.945313-.335938 1.953125-2.476562 3.484375-5.09375 4.507813-7.847656.011718-.015625.019531-.042968.027343-.058594.472657-1.273437.835938-2.574218 1.085938-3.898437.023437-.113281.058593-.214844.085937-.328125.230469-1.378906.378906-2.796875.378906-4.242188 0-1.457031-.136718-2.882812-.40625-4.300781h76.292969c.128907.207031.351563.425781.464844.625.109375.214844.207031.421875.300781.628907.472656 1.042968.792969 2.066406.792969 3.046874-.003906 1.039063-.332031 2.125-.839844 3.234376zm-155.132812 17.804687c-.738281-.070313-1.46875-.128906-2.203125-.214844-3.078125-.335937-6.089844-.765625-8.972656-1.351562-.335938-.070313-.65625-.164063-.992188-.234375-2.605469-.558594-5.101562-1.230469-7.484375-1.976563-.597656-.191406-1.207031-.371093-1.78125-.570312-2.523437-.859375-4.90625-1.816407-7.082031-2.882813-.128906-.058594-.234375-.128906-.363282-.195312.0625-.085938.09375-.183594.148438-.269532.523438-.851562 1.003906-1.710937 1.433594-2.597656.191406-.386718.347656-.792968.519531-1.179687.308594-.722657.609375-1.453125.84375-2.203125.207031-.625.332031-1.273438.488281-1.910156.128906-.558594.292969-1.109376.378906-1.675782.207032-1.25.328126-2.507812.328126-3.78125 0-1.445312-.136719-2.871094-.414063-4.300781h84.804687c.207032.320313.566407.664063.730469.972656.007813.015625.015625.035157.027344.050781.59375 1.144532.902344 2.246094.902344 3.277344 0 1.007813-.328125 2.066406-.808594 3.144532-.207031.445312-.535156.910156-.828125 1.367187-.367188.582031-.78125 1.167969-1.289062 1.761719-.523438.613281-1.101563 1.214844-1.753907 1.808594-.421875.386718-.914062.773437-1.394531 1.160156-.886719.707031-1.78125 1.421875-2.839844 2.09375-2.324218 1.480468-4.988281 2.796875-7.890625 3.984375-.4375.179687-.894531.359375-1.351562.53125-2.753907 1.058593-5.714844 1.972656-8.835938 2.753906-.300781.078125-.574219.164063-.886719.234375-1.507812.351562-3.054687.660156-4.621093.945312-2.183594.394532-4.398438.765626-6.773438 1.03125-.859375.097657-1.753906.148438-2.632812.226563-3.125.265625-6.316407.472656-9.722657.472656-3.289062 0-6.507812-.199219-9.683593-.472656zm-101.289063.171875c-.695312-.050781-1.382812-.113281-2.082031-.183594-2.003906-.179687-3.976563-.410156-5.917969-.703125-.550781-.085937-1.117187-.148437-1.671875-.242187-2.410156-.394532-4.757812-.867188-7.019531-1.429688-.421875-.101562-.808594-.222656-1.222656-.332031-1.839844-.484375-3.621094-1.019531-5.34375-1.601563-.316406-.113281-.636719-.226562-.945313-.335937 1.953125-2.480469 3.484375-5.09375 4.507813-7.847656.011718-.015625.019531-.042969.027344-.0625.472656-1.273438.835937-2.570313 1.085937-3.898438.023437-.109375.058594-.214843.082031-.328125.25-1.382812.398438-2.804687.398438-4.25 0-1.453125-.136719-2.882812-.402344-4.300781h76.230469c.171875.273437.472656.558594.621093.824219.050782.105468.09375.207031.144532.300781.535156 1.101563.851562 2.171875.851562 3.175781 0 .996094-.328125 2.054688-.808594 3.125-.15625.335938-.34375.652344-.535156.980469-.4375.757813-1.003906 1.523437-1.667968 2.289063-.523438.59375-1.050782 1.128906-1.609376 1.636718-.472656.4375-1.023437.867188-1.566406 1.296875-.960937.757813-1.953125 1.5-3.070312 2.195313-.277344.171875-.613282.34375-.902344.515625-2.367188 1.402343-5.035156 2.667969-7.945312 3.785156-.453126.179687-.875.371094-1.351563.542969-1.433594.515625-2.957031.980468-4.5 1.429687-.875.257813-1.796875.488281-2.71875.722657-1.824219.457031-3.683594.878906-5.617187 1.238281-2.074219.378906-4.203126.722656-6.445313.980469-1.078125.128906-2.171875.214843-3.253906.308593-3.097657.257813-6.257813.476563-9.636719.476563-2.601562-.007813-5.175781-.128906-7.714844-.308594zm-138.574218-21.210938c0-5.792968 8.570312-13.519531 24.617187-17.996093.136719.257812.308594.484375.457031.734375.429688.738281.851563 1.480468 1.351563 2.167968.695312.972657 1.453125 1.894532 2.269531 2.753907.457031.472656.945312.894531 1.4375 1.335937.621094.558594 1.265625 1.089844 1.9375 1.601563.472656.351562.9375.703125 1.445312 1.023437 1.144532.730469 2.332032 1.402344 3.585938 1.953125.292969.128907.601562.207031.90625.324219 1.117188.441406 2.269531.800781 3.457031 1.078125.421875.101563.84375.195313 1.285157.273437 1.480468.257813 3 .449219 4.578124.449219h54.269532c.207031.316407.570312.664063.730468.972657.011719.015624.019532.035156.027344.050781.59375 1.144531.902344 2.246093.902344 3.277343 0 1.007813-.328125 2.066407-.808594 3.140626-.207031.449218-.53125.914062-.824218 1.371093-.371094.582031-.785157 1.167969-1.292969 1.761719-.523438.609375-1.101563 1.214844-1.753907 1.808594-.421874.386718-.910156.773437-1.394531 1.160156-.886719.707031-1.78125 1.421875-2.839843 2.09375-8.628907 5.480469-21.8125 8.949219-35.847657 9.851562-.714843.042969-1.429687.078126-2.160156.101563-2.289063.105469-4.585937.164063-6.890625.121094-1.121094-.015625-2.160156-.101563-3.253906-.15625-4.886719-.222657-9.757813-.695313-14.457032-1.597657l-2.898437-.5625c-18.210937-4.070312-28.835937-12.511718-28.835937-19.09375zm434.40625 38.4375c-2.066407 28.972657-26.304688 51.914063-55.785157 51.914063h-283.964843c-29.613282 0-53.929688-23.132813-55.8125-52.277344 2.390624.234375 4.84375.398438 7.332031.5.816406.035157 1.632812.042969 2.460937.070313.996094.015625 1.980469.078125 2.996094.078125.78125 0 1.53125-.054688 2.304688-.0625.800781-.015625 1.601562-.035157 2.402343-.0625 2.355469-.085938 4.679688-.222657 6.949219-.421875h.027344c13.898437-1.238282 26.132812-4.636719 35.695312-9.636719.039063.027344.09375.035156.136719.0625 2.820313 1.453125 5.902344 2.734375 9.121094 3.894531.507812.183594.996093.382813 1.511719.554688 3.183593 1.082031 6.53125 2.011718 10.015624 2.796875.613282.136719 1.222657.265625 1.835938.386719 3.542969.730468 7.191406 1.332031 10.953125 1.738281.515625.058593 1.042969.082031 1.554687.136719 3.976563.378906 8.011719.625 12.125.625 21.050782 0 39.257813-4.816407 51.675782-12.65625 1.632812 1.023437 3.378906 1.996093 5.203125 2.910156.492187.25 1.035156.453125 1.542969.695312 1.480468.699219 2.984374 1.378906 4.558593 1.996094.773438.304688 1.582031.578125 2.375.863281 1.394531.5 2.808594.988281 4.269531 1.4375.894532.273438 1.804688.515625 2.726563.765625 1.445313.394532 2.910156.765625 4.40625 1.101563.964844.214843 1.925781.421875 2.910156.617187 1.546875.3125 3.121094.570313 4.714844.820313.964844.144531 1.917969.300781 2.890625.429687 1.753906.222656 3.539062.386719 5.335938.542969.851562.066406 1.695312.171875 2.554687.222656 2.667969.171875 5.371094.265625 8.097656.265625 18.734375 0 35.222657-3.828125 47.390625-10.195312.039063.023437.09375.035156.136719.058594 2.820313 1.457031 5.902344 2.738281 9.121094 3.898437.507812.183594.996093.378906 1.511719.550781 3.183593 1.085938 6.53125 2.015625 10.019531 2.796875.609375.136719 1.21875.269531 1.832031.386719 3.542969.734375 7.191406 1.335938 10.953125 1.738281.515625.0625 1.042969.085938 1.554687.136719 3.976563.382812 8.011719.628906 12.125.628906 3.582032 0 7.046876-.179687 10.457032-.453125.328125-.027343.644531-.054687.96875-.078125 11.09375-.964844 21.136718-3.296875 29.613281-6.738281.851563.34375 1.839844.566406 2.726563.886719 2.015624.730468 4.046874 1.410156 6.179687 2.019531 1.566406.449219 3.148437.84375 4.773437 1.222656 2.238282.527344 4.5.972657 6.832032 1.359375 1.703125.285156 3.402344.542969 5.148437.757813 2.324219.285156 4.65625.472656 7.03125.628906 1.855469.121094 3.6875.230469 5.566407.265625.824218.015625 1.625.121094 2.460937.121094 2.847656 0 5.636719-.113282 8.382813-.285156.042968-.015626.070312-.015626.09375-.015626zm5.5-17.871093c-1.335938.171875-2.667969.335937-4.007813.453125-2.925781.257812-5.945313.421875-9.128906.449218-.84375.007813-1.679688-.035156-2.523438-.042968-2.488281-.035156-4.9375-.171875-7.363281-.371094-.964844-.082031-1.9375-.136719-2.882812-.238281-2.824219-.308594-5.574219-.757813-8.253907-1.285157-.429687-.082031-.84375-.1875-1.273437-.28125.011718-.007812.011718-.007812.019531-.015624 1.296875-1.335938 2.476563-2.710938 3.492187-4.148438.230469-.320312.394532-.65625.609376-.980469.699218-1.058593 1.324218-2.144531 1.859374-3.246093.257813-.527344.472657-1.058594.6875-1.59375.414063-1.003907.742188-2.039063 1.015626-3.078126.128906-.5.285156-.992187.386718-1.496093.304688-1.535157.5-3.089844.5-4.691407 0-1.445312-.136718-2.882812-.402344-4.300781h13.3125c1.554688 0 3.078126-.191406 4.570313-.464843.507813-.085938.996094-.214844 1.496094-.335938.964843-.242188 1.902343-.535156 2.824219-.878906.550781-.199219 1.101562-.378906 1.625-.621094 1.15625-.523438 2.265624-1.117188 3.320312-1.804688.734375-.464843 1.394531-1.007812 2.066406-1.539062.398438-.308594.785156-.621094 1.164063-.957031.703125-.628907 1.367187-1.273438 2.003906-1.96875.199219-.214844.371094-.449219.558594-.671875 1.359375-1.609375 2.523437-3.359375 3.460937-5.257813.035156-.0625.078125-.121093.101563-.183593 17.949219 4.125 28.441406 12.425781 28.441406 18.984374-.007813 7.578126-14.101563 17.597657-37.679687 20.566407zm0 0"/><path d="m111.867188 197.90625c0 4.753906-3.855469 8.605469-8.605469 8.605469-4.753907 0-8.605469-3.851563-8.605469-8.605469 0-4.75 3.851562-8.605469 8.605469-8.605469 4.75 0 8.605469 3.855469 8.605469 8.605469zm0 0"/><path d="m154.890625 215.117188c0 4.753906-3.851563 8.605468-8.605469 8.605468s-8.605468-3.851562-8.605468-8.605468c0-4.75 3.851562-8.605469 8.605468-8.605469s8.605469 3.855469 8.605469 8.605469zm0 0"/><path d="m189.3125 197.90625c0 4.753906-3.851562 8.605469-8.605469 8.605469-4.753906 0-8.605469-3.851563-8.605469-8.605469 0-4.75 3.851563-8.605469 8.605469-8.605469 4.753907 0 8.605469 3.855469 8.605469 8.605469zm0 0"/><path d="m215.125 215.117188c0 4.753906-3.851562 8.605468-8.605469 8.605468-4.75 0-8.605469-3.851562-8.605469-8.605468 0-4.75 3.855469-8.605469 8.605469-8.605469 4.753907 0 8.605469 3.855469 8.605469 8.605469zm0 0"/><path d="m249.546875 197.90625c0 4.753906-3.851563 8.605469-8.605469 8.605469s-8.605468-3.851563-8.605468-8.605469c0-4.75 3.851562-8.605469 8.605468-8.605469s8.605469 3.855469 8.605469 8.605469zm0 0"/><path d="m283.964844 215.117188c0 4.753906-3.851563 8.605468-8.601563 8.605468-4.753906 0-8.605469-3.851562-8.605469-8.605468 0-4.75 3.851563-8.605469 8.605469-8.605469 4.75 0 8.601563 3.855469 8.601563 8.605469zm0 0"/><path d="m318.386719 189.300781c0 4.753907-3.851563 8.605469-8.605469 8.605469s-8.605469-3.851562-8.605469-8.605469c0-4.75 3.851563-8.601562 8.605469-8.601562s8.605469 3.851562 8.605469 8.601562zm0 0"/><path d="m344.203125 215.117188c0 4.753906-3.855469 8.605468-8.605469 8.605468-4.753906 0-8.605468-3.851562-8.605468-8.605468 0-4.75 3.851562-8.605469 8.605468-8.605469 4.75 0 8.605469 3.855469 8.605469 8.605469zm0 0"/><path d="m387.226562 197.90625c0 4.753906-3.851562 8.605469-8.605468 8.605469-4.75 0-8.605469-3.851563-8.605469-8.605469 0-4.75 3.855469-8.605469 8.605469-8.605469 4.753906 0 8.605468 3.855469 8.605468 8.605469zm0 0"/><path d="m421.648438 206.511719c0 4.753906-3.855469 8.605469-8.605469 8.605469-4.753907 0-8.605469-3.851563-8.605469-8.605469 0-4.75 3.851562-8.605469 8.605469-8.605469 4.75 0 8.605469 3.855469 8.605469 8.605469zm0 0"/></svg>