<svg height="512pt" viewBox="0 0 512.00055 512" width="512pt" xmlns="http://www.w3.org/2000/svg"><path d="m124.113281 394.378906c0-5.273437 4.289063-9.5625 9.5625-9.5625 14.683594 0 26.628907-11.945312 26.628907-26.636718 0-5.273438 4.289062-9.566407 9.5625-9.566407 14.691406 0 26.636718-11.941406 26.636718-26.625 0-5.273437 4.292969-9.5625 9.5625-9.5625 14.683594 0 26.628906-11.945312 26.628906-26.636719 0-5.273437 4.289063-9.566406 9.5625-9.566406 14.683594 0 26.628907-11.941406 26.628907-26.625 0-5.273437 4.289062-9.566406 9.574219-9.566406 14.683593 0 26.625-11.941406 26.625-26.625 0-5.285156 4.292968-9.574219 9.566406-9.574219 14.683594 0 26.625-11.945312 26.625-26.628906 0-5.269531 4.292968-9.5625 9.574218-9.5625 14.683594 0 26.625-11.945313 26.625-26.628906 0-5.28125 4.292969-9.570313 9.566407-9.570313 14.683593 0 26.625-11.945312 26.625-26.628906 0-5.273438 4.292969-9.5625 9.574219-9.5625 14.683593 0 26.628906-11.945312 26.628906-26.628906 0-5.28125 4.289062-9.570313 9.5625-9.570313 4.71875 0 8.53125-3.816406 8.53125-8.535156s-3.8125-8.53125-8.53125-8.53125c-14.683594 0-26.628906 11.945313-26.628906 26.636719 0 5.273437-4.289063 9.5625-9.5625 9.5625-14.691407 0-26.636719 11.945312-26.636719 26.628906 0 5.273438-4.289063 9.5625-9.5625 9.5625-14.683594 0-26.628907 11.945312-26.628907 26.636719 0 5.273437-4.289062 9.566406-9.5625 9.566406-14.691406 0-26.636718 11.941406-26.636718 26.625 0 5.273437-4.292969 9.566406-9.5625 9.566406-14.6875 0-26.628906 11.941407-26.628906 26.636719 0 5.269531-4.292969 9.5625-9.5625 9.5625-14.691407 0-26.636719 11.945312-26.636719 26.628906 0 5.269532-4.292969 9.5625-9.566407 9.5625-14.683593 0-26.625 11.945313-26.625 26.628906 0 5.28125-4.292968 9.570313-9.566406 9.570313-14.683594 0-26.625 11.945313-26.625 26.628906 0 5.273438-4.292968 9.5625-9.574218 9.5625-14.683594 0-26.628907 11.945313-26.628907 26.628907 0 5.28125-4.289062 9.570312-9.5625 9.570312-14.683593 0-26.628906 11.945312-26.628906 26.628906 0 5.273438-4.289063 9.5625-9.570313 9.5625-14.683593 0-26.628906 11.945313-26.628906 26.628906 0 5.28125-4.289062 9.574219-9.5625 9.574219-14.683594 0-26.628906 11.941407-26.628906 26.625 0 4.71875 3.8125 8.53125 8.53125 8.53125s8.535156-3.8125 8.535156-8.53125c0-5.273437 4.289063-9.5625 9.5625-9.5625 14.683594 0 26.628906-11.945312 26.628906-26.636719 0-5.273437 4.289063-9.5625 9.5625-9.5625 14.691407 0 26.636719-11.945312 26.636719-26.628906zm0 0"/><path d="m502.964844 105.730469-1.398438-1.835938c-.859375-.859375-1.859375-1.527343-2.863281-2.15625 7.542969-10.769531 11.644531-23.574219 11.644531-37.0625 0-17.335937-6.707031-33.597656-18.890625-45.773437-24.109375-24.121094-62.625-25.125-88.03125-3.191406-.800781-1.640626-1.773437-3.183594-3.105469-4.523438l-1.859374-1.40625c-2.890626-1.648438-72.050782-38.898438-163.699219 52.757812l-173.851563 173.867188c-89.617187 91.9375-54.324218 160.59375-52.777344 163.476562l1.484376 1.984376c1.382812 1.382812 3.011718 2.398437 4.742187 3.199218-19.425781 24.90625-18.5625 64.050782 2.972656 87.945313 12.617188 12.621093 29.203125 18.933593 45.78125 18.933593 16.566407 0 33.152344-6.304687 45.773438-18.933593l4.707031-4.707031c.503906.691406.929688 1.421874 1.542969 2.039062l1.828125 1.390625c1.328125.75 16.550781 9.035156 41.410156 9.035156 29.335938 0 72.070312-11.542969 121.160156-60.628906l171.824219-171.828125c90.691406-90.691406 53.246094-159.679688 51.605469-162.582031zm-429.914063 142.660156 173.773438-173.785156c75.003906-74.992188 130.664062-55.675781 141.449219-50.839844.136718 2.050781-1.3125 7.277344-6.542969 12.5l-347.023438 347.019531c-5.210937 5.214844-10.355469 6.527344-12.402343 6.621094-4.675782-11.039062-22.449219-66.417969 50.746093-141.515625zm23.777344 232.5625c-18.597656 18.597656-48.84375 18.589844-67.117187.324219-14.796876-16.441406-18.328126-47.71875-.308594-67.742188l382.5625-382.566406c8.96875-8.96875 20.9375-13.898438 33.710937-13.898438 12.78125 0 24.75 4.929688 33.71875 13.898438 8.957031 8.957031 13.886719 20.925781 13.886719 33.707031s-4.929688 24.75-13.886719 33.710938l-4.097656 4.09375c-3.710937 1.878906-7.363281 4.4375-10.6875 7.773437l-343.125 343.113282c-3.335937 3.335937-5.886719 6.988281-7.773437 10.699218zm342.472656-224.714844-171.820312 171.832031c-74.191407 74.203126-129.664063 54.535157-140.3125 49.691407-.070313-.804688.21875-2.203125.800781-3.816407l357.320312-357.320312c1.605469-.578125 2.96875-.867188 3.679688-.757812 4.835938 10.621093 24.570312 66.128906-49.667969 140.371093zm0 0"/><path d="m414.636719 234.628906c0 7.070313-5.730469 12.796875-12.796875 12.796875-7.070313 0-12.796875-5.726562-12.796875-12.796875 0-7.066406 5.726562-12.796875 12.796875-12.796875 7.066406 0 12.796875 5.730469 12.796875 12.796875zm0 0"/><path d="m286.660156 379.667969c0 7.070312-5.730468 12.800781-12.796875 12.800781-7.066406 0-12.796875-5.730469-12.796875-12.800781 0-7.066407 5.730469-12.796875 12.796875-12.796875 7.066407 0 12.796875 5.730468 12.796875 12.796875zm0 0"/><path d="m380.511719 298.617188c0 4.710937-3.820313 8.53125-8.535157 8.53125-4.710937 0-8.53125-3.820313-8.53125-8.53125 0-4.710938 3.820313-8.53125 8.53125-8.53125 4.714844 0 8.535157 3.820312 8.535157 8.53125zm0 0"/><path d="m209.875 435.128906c0 4.710938-3.820312 8.53125-8.535156 8.53125-4.710938 0-8.53125-3.820312-8.53125-8.53125 0-4.714844 3.820312-8.535156 8.53125-8.535156 4.714844 0 8.535156 3.820312 8.535156 8.535156zm0 0"/><path d="m465.828125 196.238281c0 4.710938-3.820313 8.53125-8.53125 8.53125s-8.53125-3.820312-8.53125-8.53125c0-4.714843 3.820313-8.535156 8.53125-8.535156s8.53125 3.820313 8.53125 8.535156zm0 0"/><path d="m320.789062 315.683594c0 4.710937-3.820312 8.53125-8.535156 8.53125-4.710937 0-8.53125-3.820313-8.53125-8.53125 0-4.714844 3.820313-8.535156 8.53125-8.535156 4.714844 0 8.535156 3.820312 8.535156 8.535156zm0 0"/><path d="m273.863281 93.855469c0 7.066406-5.730469 12.796875-12.800781 12.796875-7.066406 0-12.796875-5.730469-12.796875-12.796875 0-7.066407 5.730469-12.796875 12.796875-12.796875 7.070312 0 12.800781 5.730468 12.800781 12.796875zm0 0"/><path d="m145.886719 238.894531c0 7.066407-5.730469 12.796875-12.796875 12.796875-7.070313 0-12.796875-5.730468-12.796875-12.796875 0-7.066406 5.726562-12.796875 12.796875-12.796875 7.066406 0 12.796875 5.730469 12.796875 12.796875zm0 0"/><path d="m239.734375 157.84375c0 4.710938-3.820313 8.53125-8.53125 8.53125s-8.53125-3.820312-8.53125-8.53125 3.820313-8.53125 8.53125-8.53125 8.53125 3.820312 8.53125 8.53125zm0 0"/><path d="m69.101562 294.351562c0 4.714844-3.820312 8.53125-8.53125 8.53125-4.714843 0-8.535156-3.816406-8.535156-8.53125 0-4.710937 3.820313-8.53125 8.535156-8.53125 4.710938 0 8.53125 3.820313 8.53125 8.53125zm0 0"/><path d="m325.054688 55.460938c0 4.714843-3.820313 8.53125-8.53125 8.53125-4.714844 0-8.535157-3.816407-8.535157-8.53125 0-4.710938 3.820313-8.53125 8.535157-8.53125 4.710937 0 8.53125 3.820312 8.53125 8.53125zm0 0"/><path d="m180.011719 174.90625c0 4.714844-3.820313 8.53125-8.53125 8.53125-4.710938 0-8.53125-3.816406-8.53125-8.53125 0-4.710938 3.820312-8.53125 8.53125-8.53125 4.710937 0 8.53125 3.820312 8.53125 8.53125zm0 0"/></svg>