<svg height="512pt" viewBox="-1 0 512 512.00155" width="512pt" xmlns="http://www.w3.org/2000/svg"><path d="m494.703125 10.582031c-7.195313-7.207031-17.414063-10.703125-29.625-10.57812475-31.824219.71484375-77.847656 28.14062475-114.714844 68.30078175-6.570312 3.3125-25.621093 13.3125-34.625 22.316406-2.210937 2.210937-4.246093 4.535156-6.199219 6.90625-.058593.070312-.113281.140625-.164062.21875-10.710938 13.105468-17.457031 28.472656-19.441406 44.59375-19.128906 2.359375-37.25 11.34375-51.710938 25.804687-2.191406 2.195313-4.21875 4.5-6.152344 6.855469-.246093.304688-.480468.609375-.726562.914062-10.402344 12.957032-16.976562 28.082032-18.925781 43.949219-17.207031 2.113281-33.550781 9.632813-47.179688 21.617188-.324219.246093-.710937.367187-1 .664062-.582031.585938-1.074219 1.1875-1.640625 1.777344-.621094.59375-1.277344 1.132813-1.890625 1.738281-14.449219 14.449219-23.453125 32.582032-25.804687 51.71875-19.136719 2.359375-37.257813 11.347656-51.707032 25.796875-.988281.996094-1.808593 2.003907-2.71875 3.007813-.253906.199218-.5625.296875-.796874.53125-10.5 10.492187-16.96875 21.234375-19.546876 32.078125-37.179687 39.023437-80.128906 106.117187-49.945312 136.3125 10.945312 10.941406 29.390625 16.894531 51.175781 16.894531 5.710938 0 11.664063-.410156 17.757813-1.25 30.488281-4.175781 59.925781-18.515625 80.757812-39.34375l305.96875-305.96875c20.953125-20.957031 36.226563-51.203125 41.863282-82.988281 5.566406-31.289063.699218-58.152344-13.007813-71.867188zm-4.195313 68.796875c-5.039062 28.34375-18.527343 55.195313-37.015624 73.6875l-305.96875 305.964844c-18.183594 18.1875-43.972657 30.722656-70.765626 34.394531-23.289062 3.179688-44.53125-1.007812-54.207031-10.691406-14.351562-14.355469 3.207031-57.542969 38.691407-99.09375 4.257812 12.78125 14.179687 24.925781 29.777343 36.210937 1.546875 1.117188 3.339844 1.652344 5.113281 1.652344 2.71875 0 5.375-1.257812 7.097657-3.621094 2.824219-3.90625 1.953125-9.371093-1.964844-12.203124-15.605469-11.285157-23.988281-22.816407-24.90625-34.261719-.132813-1.640625-.042969-3.3125.128906-4.980469 1.863281-2.429688 3.488281-5.054688 4.597657-8.0625l.011718-.007812c3.460938-9.40625 7.65625-16.023438 14.449219-22.824219 11.734375-11.734375 26.960937-19.136719 42.460937-20.859375 3.566407 11.226562 12.246094 24.671875 32.605469 35.816406 1.332031.734375 2.773438 1.074219 4.1875 1.074219 3.097657 0 6.085938-1.644531 7.675781-4.542969 2.328126-4.230469.769532-9.554688-3.460937-11.863281-15.238281-8.347657-23.847656-18.691407-25.570313-30.746094-2.046874-14.308594 5.761719-31.664063 21.3125-47.941406 10.910157-10.261719 24.53125-16.976563 38.535157-19.03125 2.464843 18.0625 11.84375 33.210937 26.714843 42.800781 1.46875.9375 3.105469 1.390625 4.730469 1.390625 2.867188 0 5.683594-1.40625 7.359375-4.003906 2.613282-4.066407 1.441406-9.46875-2.613281-12.089844-13.953125-8.976563-18.097656-22.316406-19.128906-31.90625-1.710938-15.980469 3.96875-33.492187 15-47.277344.054687-.070312.105469-.140625.160156-.210937 1.582031-1.957032 3.261719-3.835938 5.050781-5.628906 11.453125-11.453126 26.226563-18.820313 41.324219-20.773438 2.789063 17.730469 12.175781 32.539062 26.828125 41.859375 1.460938.917969 3.085938 1.363281 4.6875 1.363281 2.882812 0 5.714844-1.433594 7.386719-4.046875 2.59375-4.074219 1.386719-9.476562-2.683594-12.074219-10.972656-6.984374-17.84375-18.417968-19.355469-32.222656-2.003906-18.226562 5.226563-37.527344 19.328125-51.628906 4.859375-4.851562 15.359375-11.234375 24.765625-16.261719-.175781 2.824219-.140625 5.472657.140625 7.789063 1.773438 14.722656 11.144531 27.589844 27.097657 37.25 1.417968.859375 2.972656 1.269531 4.519531 1.269531 2.953125 0 5.847656-1.503906 7.480469-4.214844 2.503906-4.136719 1.183593-9.503906-2.953126-12.003906-7.796874-4.71875-17.378906-12.78125-18.785156-24.390625-1.292968-10.714844 4.5625-22.929688 16.960938-35.324219.078125-.078125.09375-.183593.171875-.261719 27.703125-23.542968 57.277343-38.875 77.96875-39.339843.308593-.007813.613281-.007813.910156-.007813 6.957031 0 12.316406 1.835938 15.953125 5.472656 9.410156 9.355469 12.617188 31.507813 8.195312 56.402344zm0 0"/></svg>