<svg height="511pt" viewBox="-4 1 511 511.99843" width="511pt" xmlns="http://www.w3.org/2000/svg"><path d="m163.683594 386.511719c-3.46875-3.46875-9.078125-3.46875-12.546875 0-7.761719 7.765625-20.414063 7.765625-28.175781 0-14.675782-14.691407-38.59375-14.691407-53.269532 0-3.46875 3.472656-3.46875 9.078125 0 12.546875s9.078125 3.46875 12.542969 0c7.765625-7.765625 20.417969-7.765625 28.179687 0 7.347657 7.335937 16.992188 11.007812 26.632813 11.007812 9.644531 0 19.289063-3.671875 26.636719-11.007812 3.46875-3.453125 3.46875-9.074219 0-12.546875zm0 0"/><path d="m136.535156 344.761719c7.53125-7.542969 20.628906-7.542969 28.167969 0 7.339844 7.34375 16.992187 11.007812 26.636719 11.007812 9.640625 0 19.292968-3.664062 26.632812-11.007812 3.46875-3.472657 3.46875-9.078125 0-12.546875s-9.078125-3.46875-12.542968 0c-7.765626 7.765625-20.417969 7.765625-28.179688 0-7.113281-7.125-16.5625-11.035156-26.625-11.035156-10.070312 0-19.519531 3.910156-26.632812 11.035156-3.472657 3.46875-3.472657 9.085937 0 12.546875 3.464843 3.46875 9.082031 3.46875 12.542968 0zm0 0"/><path d="m190.832031 290.472656c7.765625-7.765625 20.414063-7.765625 28.179688 0 7.335937 7.34375 16.988281 11.007813 26.632812 11.007813s19.296875-3.664063 26.636719-11.007813c3.46875-3.46875 3.46875-9.078125 0-12.542968-3.472656-3.472657-9.078125-3.472657-12.546875 0-7.761719 7.761718-20.414063 7.761718-28.175781 0-14.675782-14.691407-38.59375-14.691407-53.269532 0-3.46875 3.46875-3.46875 9.074218 0 12.542968s9.074219 3.46875 12.542969 0zm0 0"/><path d="m245.121094 236.175781c7.761718-7.765625 20.414062-7.765625 28.175781 0 7.339844 7.34375 16.992187 11.007813 26.636719 11.007813 9.644531 0 19.296875-3.664063 26.632812-11.007813 3.46875-3.46875 3.46875-9.078125 0-12.546875s-9.074218-3.46875-12.542968 0c-7.765626 7.765625-20.414063 7.765625-28.179688 0-14.671875-14.691406-38.59375-14.691406-53.269531 0-3.46875 3.472656-3.46875 9.078125 0 12.546875s9.078125 3.46875 12.546875 0zm0 0"/><path d="m299.417969 181.886719c7.761719-7.761719 20.414062-7.761719 28.179687 0 7.121094 7.125 16.570313 11.035156 26.632813 11.035156s19.511719-3.910156 26.625-11.035156c3.46875-3.46875 3.46875-9.085938 0-12.542969-3.46875-3.46875-9.078125-3.46875-12.542969 0-7.5625 7.539062-20.648438 7.53125-28.171875 0-14.671875-14.691406-38.589844-14.691406-53.265625 0-3.472656 3.46875-3.472656 9.074219 0 12.542969 3.464844 3.46875 9.074219 3.46875 12.542969 0zm0 0"/><path d="m217.191406 108.214844c6.449219-6.453125 16.925782-6.453125 23.378906 0 6.679688 6.679687 15.453126 10.023437 24.226563 10.023437 8.777344 0 17.558594-3.34375 24.230469-10.023437 3.46875-3.472656 3.46875-9.078125 0-12.546875s-9.074219-3.46875-12.542969 0c-6.449219 6.453125-16.929687 6.453125-23.378906 0-13.359375-13.359375-35.105469-13.359375-48.46875 0-3.46875 3.46875-3.46875 9.078125 0 12.546875s9.09375 3.46875 12.554687 0zm0 0"/><path d="m163.789062 172.09375c6.683594 6.679688 15.457032 10.015625 24.230469 10.015625 8.773438 0 17.558594-3.335937 24.230469-10.015625 3.46875-3.460938 3.46875-9.078125 0-12.546875s-9.078125-3.46875-12.546875 0c-6.449219 6.433594-16.925781 6.433594-23.375 0-13.363281-13.359375-35.109375-13.359375-48.46875 0-3.472656 3.472656-3.472656 9.078125 0 12.546875 3.46875 3.46875 9.074219 3.46875 12.542969 0 6.449218-6.433594 16.929687-6.453125 23.386718 0zm0 0"/><path d="m295.585938 399.394531c-6.441407 6.453125-16.917969 6.453125-23.378907 0-13.359375-13.359375-35.105469-13.359375-48.46875 0-3.46875 3.460938-3.46875 9.078125 0 12.546875s9.078125 3.46875 12.542969 0c6.453125-6.433594 16.929688-6.433594 23.378906 0 6.683594 6.679688 15.457032 10.023438 24.230469 10.023438s17.558594-3.34375 24.230469-10.023438c3.46875-3.472656 3.46875-9.078125 0-12.546875s-9.066406-3.46875-12.535156 0zm0 0"/><path d="m353.707031 127.589844c5.878907-5.890625 15.488281-5.910156 21.390625 0 6.199219 6.210937 14.460938 9.636718 23.234375 9.636718 8.773438 0 17.035157-3.425781 23.234375-9.636718 3.46875-3.46875 3.46875-9.085938 0-12.542969-3.46875-3.472656-9.074218-3.472656-12.542968 0-5.722657 5.722656-15.667969 5.722656-21.382813 0-12.800781-12.785156-33.644531-12.804687-46.480469 0-3.46875 3.457031-3.46875 9.074219 0 12.542969s9.078125 3.460937 12.546875 0zm0 0"/><path d="m503.582031 186.046875c-3.113281-13.957031-12.742187-24.859375-28.613281-32.417969-7.796875-6.34375-20.101562-4.597656-39.160156 5.785156 6.839844-11.269531 13.371094-22.589843 19.359375-34 9.003906-17.121093 11.96875-44.421874.203125-63.496093-5.582032-9.050781-16.945313-19.757813-38.382813-19.386719-22.835937.417969-48.34375 14.726562-72.457031 31.886719.914062-1.675781 1.855469-3.363281 2.742188-5.046875 7.488281-14.238282 9.925781-36.996094.113281-52.921875-6.6875-10.859375-18.371094-16.3789065-32.445313-16.449219-28.441406.515625-61.515625 26.839844-88.082031 47.996094-6.882813 5.484375-13.394531 10.65625-18.773437 14.507812-48.921876 34.972656-94.496094 79.804688-131.820313 129.628906-4.003906 5.359376-9.714844 12.066407-16.324219 19.839844-28.007812 32.941406-66.363281 78.058594-58.367187 113.96875 3.113281 13.957032 12.730469 24.859375 28.613281 32.421875 3.070312 2.492188 6.804688 3.769531 11.363281 3.769531 5.199219 0 11.542969-1.746093 19.128907-5.144531-20.671876 29.375-36.019532 60.425781-30.105469 87.015625 3.730469 16.714844 15.359375 29.785156 34.601562 38.878906 2.664063 2.136719 6.839844 4.214844 13.058594 4.214844.125 0 .242187 0 .367187-.011718 16.609376-.210938 45.308594-17.085938 77.65625-40.863282-6.128906 14.257813-7.550781 34.636719 1.488282 49.308594 6.558594 10.648438 17.746094 16.46875 31.578125 16.46875.292969 0 .59375-.011719.894531-.011719 28.445312-.515625 61.519531-26.835937 88.082031-47.996093 6.886719-5.484376 13.398438-10.65625 18.773438-14.507813 48.902343-34.953125 94.480469-79.785156 131.824219-129.628906 4-5.359375 9.710937-12.066407 16.324218-19.839844 28.007813-32.9375 66.363282-78.054687 58.359375-113.96875zm-411.097656 130.3125c-41.777344 30.503906-51.273437 27.976563-51.101563 28.242187l-1.136718-1.136718-1.453125-.667969c-11.457031-5.214844-17.957031-11.992187-19.902344-20.703125-4.886719-21.960938 17.773437-54.015625 39.394531-80.507812-.300781 2.597656.398438 5.296874 2.402344 7.292968 3.472656 3.46875 9.078125 3.46875 12.546875 0 6.261719-6.265625 17.121094-6.246094 23.367187 0 6.691407 6.679688 15.457032 10.015625 24.230469 10.015625 8.773438 0 17.558594-3.335937 24.230469-10.015625 3.46875-3.46875 3.46875-9.078125 0-12.546875s-9.078125-3.46875-12.546875 0c-6.4375 6.441407-16.917969 6.460938-23.375 0-11.214844-11.230469-29.652344-12.695312-42.800781-4.453125 2.4375-2.898437 4.84375-5.730468 7.113281-8.402344 6.808594-7.992187 12.679687-14.914062 17.019531-20.699218 36.230469-48.394532 80.476563-91.902344 127.933594-125.839844 5.75-4.105469 12.429688-9.429688 19.5-15.054688 23.183594-18.464843 54.925781-43.742187 77.347656-44.140624.214844-.007813.425782-.007813.628906-.007813 7.710938 0 13.085938 2.636719 16.40625 8.019531 5.960938 9.671875 4.265626 25.882813-.699218 35.355469-7.367188 14-15.660156 28.003906-25.375 42.746094-.460938.371093-.921875.738281-1.382813 1.101562-1.050781.832031-2.078125 1.648438-3.082031 2.4375-1.046875.824219-2.066406 1.625-3.078125 2.421875-.851563.667969-1.703125 1.339844-2.527344 1.96875-1.367187 1.066406-2.6875 2.078125-3.992187 3.0625-.441406.335938-.90625.699219-1.339844 1.019532-1.757812 1.324218-3.460938 2.582031-5.074219 3.734374-60.453125 43.226563-116.800781 98.632813-162.945312 160.25-3.453125 4.613282-7.957031 10.066407-13.085938 16.15625-2.296875 2.722657-4.6875 5.546876-7.222656 8.527344-2.945313 3.457032-6 7.070313-9.085937 10.734375-.320313.390625-.601563.71875-.914063 1.089844zm-16.164063 152.71875-1.117187-1.121094-1.457031-.664062c-14.84375-6.769531-23.296875-15.652344-25.859375-27.148438-6.964844-31.273437 29.027343-77.65625 58.324219-112.535156 2.996093-3.574219 5.933593-7.042969 8.78125-10.378906.328124-.390625.683593-.796875 1.003906-1.179688 8.398437-9.882812 15.667968-18.417969 21-25.542969 11.265625-15.046874 23.15625-29.703124 35.566406-43.898437 37.246094-42.578125 79.246094-80.910156 123.5-112.550781 1.703125-1.226563 3.476562-2.539063 5.316406-3.910156.671875-.507813 1.382813-1.058594 2.066406-1.582032 1.144532-.875 2.296876-1.746094 3.503907-2.6875.992187-.769531 2.023437-1.578125 3.042969-2.386718 1.039062-.816407 2.085937-1.632813 3.175781-2.492188.746093-.585938 1.5-1.191406 2.253906-1.785156.984375-.777344 1.917969-1.515625 2.9375-2.324219l.015625-.015625c.605469-.480469 1.179688-.929688 1.785156-1.417969 28.976563-23.078125 68.640625-54.664062 97.15625-55.175781 11.125-.265625 18.304688 3.386719 22.96875 10.945312 7.78125 12.625 5.644532 33.671876-.804687 45.941407-12.589844 23.945312-27.230469 47.609375-43.605469 70.898437l-.027344.027344c-5.289062 7.523438-10.761718 14.992188-16.40625 22.410156-.0625.078125-.113281.160156-.175781.238282-5.371094 7.046874-10.90625 14.027343-16.574219 20.957031-.441406.542969-.871094 1.074219-1.304687 1.617187-5.214844 6.34375-10.59375 12.605469-16.050781 18.824219-.867188.996094-1.703126 1.996094-2.582032 2.980469-6.175781 6.976562-12.480468 13.867187-18.941406 20.664062-.617188.65625-1.542969 1.597656-2.722656 2.785156-.105469.109376-.257813.257813-.371094.375-.984375.992188-2.199219 2.191407-3.53125 3.503907-14.167969 13.9375-45.628906 43.722656-81.195312 75.171875-19.636719 17.347656-38.203126 33.15625-55.1875 46.953125l-1.117188.914062-.007812.015625c-87.503907 70.9375-102.554688 64.035156-103.359376 63.574219zm377.632813-207.554687c-.4375-1.011719-1.03125-1.96875-1.855469-2.785157-3.472656-3.472656-9.078125-3.472656-12.546875 0-6.253906 6.253907-17.121093 6.253907-23.378906 0-12.96875-12.972656-35.53125-12.953125-48.46875 0-3.46875 3.46875-3.46875 9.082031 0 12.542969 3.472656 3.46875 9.078125 3.46875 12.546875 0 6.253906-6.253906 17.121094-6.253906 23.378906 0 6.464844 6.476562 15.070313 10.050781 24.226563 10.050781 4.082031 0 8.023437-.816406 11.75-2.183593-2.726563 3.246093-5.40625 6.398437-7.925781 9.363281-6.804688 7.992187-12.675782 14.914062-17.015626 20.699219-36.257812 48.40625-80.496093 91.914062-127.933593 125.839843-5.75 4.109375-12.429688 9.433594-19.5 15.054688-23.183594 18.464843-54.929688 43.742187-77.347657 44.140625-8.304687.257812-13.628906-2.484375-17.042968-8.019532-5.960938-9.671874-4.265625-25.871093.710937-35.347656 5.339844-10.148437 11.523438-20.734375 19.375-33.164062 19.199219-15.613282 38.574219-32.300782 56.632813-48.363282 13.929687-11.140624 27.554687-22.871093 40.757812-35.097656.222656.292969.335938.640625.601563.90625 3.472656 3.46875 9.078125 3.46875 12.546875 0 6.449218-6.441406 16.925781-6.460937 23.378906 0 6.464844 6.476563 15.070312 10.050782 24.226562 10.050782 9.148438 0 17.753907-3.566407 24.230469-10.050782 3.46875-3.46875 3.46875-9.078125 0-12.546875s-9.074219-3.46875-12.542969 0c-6.253906 6.253907-17.125 6.253907-23.378906 0-7.390625-7.378906-17.308594-10.53125-26.980468-9.757812 5.695312-5.730469 11.332031-11.5 16.8125-17.390625 3.496093-3.433594 6.132812-6.074219 7.464843-7.488282 6.617188-6.972656 13.039063-14 19.320313-21.082031.96875-1.089843 1.882812-2.1875 2.839844-3.28125 5.511718-6.273437 10.894531-12.582031 16.132812-18.925781.519531-.628906 1.019531-1.265625 1.53125-1.898438 5.742188-7 11.3125-14.042968 16.726562-21.132812.015626-.027344.042969-.054688.0625-.078125 5.808594-7.605469 11.40625-15.261719 16.828126-22.960937l2.511718-2.972657c38.789063-28.3125 49.746094-28.070312 51.449219-27.910156l2.261719 1.472656c11.457031 5.214844 17.957031 11.992188 19.902344 20.707031 4.378906 19.539063-13.136719 47.105469-32.289063 71.609376zm0 0"/></svg>