<svg height="512pt" viewBox="0 -33 512 512" width="512pt" xmlns="http://www.w3.org/2000/svg"><path d="m512 135.367188c0-74.640626-60.726562-135.367188-135.367188-135.367188-72.382812 0-131.519531 57.164062-135.027343 128.6875-25.003907-31.71875-63.679688-51.925781-106.226563-51.925781-74.652344 0-135.378906 60.726562-135.378906 135.367187s60.726562 135.371094 135.367188 135.371094c14.914062 0 29.449218-2.527344 43.398437-7.257812 13.480469 60.53125 67.523437 105.957031 132.058594 105.957031 74.640625 0 135.375-60.726563 135.375-135.367188 0-19.023437-3.980469-37.113281-11.097657-53.554687 46.421876-22.335938 76.898438-69.917969 76.898438-121.910156zm-376.632812 193.617187c-64.429688 0-116.851563-52.414063-116.851563-116.851563 0-64.441406 52.421875-116.855468 116.851563-116.855468 55.574218 0 103.589843 39.851562 114.429687 93.777344-46.515625 22.597656-76.1875 69.613281-76.1875 121.769531 0 3.675781.195313 7.453125.582031 11.542969-12.441406 4.40625-25.472656 6.617187-38.824218 6.617187zm175.464843 98.703125c-64.433593 0-116.855469-52.425781-116.855469-116.855469 0-64.179687 52.015626-116.410156 116.105469-116.816406 1.582031.015625 3.15625.082031 4.730469.164063 1.027344.039062 2.046875.09375 3.066406.160156 40.34375 3.042968 76.203125 26.652344 94.996094 63.160156l3.777344 7.34375s11.042968 29.464844 11.042968 45.988281c-.007812 64.429688-52.433593 116.855469-116.863281 116.855469zm115.667969-186.824219c-22.367188-36.824219-61.710938-62.125-107.144531-64.976562-1.710938-.128907-3.441407-.195313-5.175781-.257813-1.121094-.027344-2.222657-.167968-3.351563-.167968-.238281 0-.480469.039062-.722656.039062-.378907 0-.75-.039062-1.121094-.039062-13.375 0-26.679687 2.027343-39.648437 6.035156-6.351563-14.632813-9.5625-30.121094-9.5625-46.128906 0-64.429688 52.425781-116.851563 116.855468-116.851563 64.429688 0 116.851563 52.421875 116.851563 116.851563.007812 45.09375-26.570313 86.34375-66.980469 105.496093zm0 0"/><path d="m324.734375 246.234375c-9.699219-8.238281-23.796875-8.949219-34.285156-1.722656l-26.300781 18.179687c-4.210938 2.910156-5.257813 8.675782-2.351563 12.878906 1.796875 2.601563 4.683594 4 7.628906 4 1.8125 0 3.648438-.539062 5.25-1.640624l26.296875-18.179688c3.535156-2.445312 8.488282-2.203125 11.773438.59375l20.042968 17.023438c3.886719 3.304687 9.742188 2.832031 13.054688-1.066407 3.304688-3.898437 2.832031-9.738281-1.066406-13.050781zm0 0"/><path d="m299.785156 228.96875 4.167969-16.550781c1.25-4.964844-1.757813-9.988281-6.722656-11.242188-4.949219-1.257812-9.988281 1.753907-11.238281 6.722657l-4.164063 16.550781c-.269531 1.074219-3.324219 3.683593-7.765625 3.683593h-21.800781c-5.109375 0-9.257813 4.148438-9.257813 9.257813s4.148438 9.257813 9.257813 9.257813h21.800781c12.125.003906 23.179688-7.597657 25.722656-17.679688zm0 0"/><path d="m360.375 228.171875-26.796875-2.367187c-3.851563-.34375-6.121094-2.425782-6.351563-3.066407l-1.167968-13.375c-.441406-5.09375-4.804688-8.890625-10.023438-8.417969-5.09375.445313-8.859375 4.9375-8.417968 10.027344l1.167968 13.386719c.898438 10.246094 10.859375 18.800781 23.160156 19.890625l26.792969 2.371094c.277344.019531.554688.039062.824219.039062 4.75 0 8.785156-3.628906 9.210938-8.445312.460937-5.097656-3.304688-9.597656-8.398438-10.042969zm0 0"/><path d="m150.320312 149.011719c-9.703124-8.246094-23.8125-8.949219-34.289062-1.722657l-26.300781 18.183594c-4.210938 2.90625-5.257813 8.671875-2.351563 12.875 1.796875 2.601563 4.683594 4 7.628906 4 1.816407 0 3.648438-.539062 5.25-1.636718l26.300782-18.183594c3.542968-2.433594 8.496094-2.191406 11.765625.59375l20.050781 17.023437c3.90625 3.304688 9.738281 2.84375 13.050781-1.0625 3.308594-3.898437 2.835938-9.742187-1.0625-13.054687zm0 0"/><path d="m125.371094 131.75 4.164062-16.554688c1.25-4.960937-1.757812-9.988281-6.71875-11.238281-4.964844-1.238281-9.988281 1.75-11.238281 6.722657l-4.167969 16.550781c-.269531 1.074219-3.324218 3.683593-7.765625 3.683593h-21.789062c-5.109375 0-9.257813 4.148438-9.257813 9.257813s4.148438 9.257813 9.257813 9.257813h21.800781c12.117188 0 23.175781-7.597657 25.714844-17.679688zm0 0"/><path d="m157.539062 147.023438 26.792969 2.371093c.277344.015625.554688.035157.824219.035157 4.75 0 8.785156-3.625 9.210938-8.441407.453124-5.089843-3.3125-9.589843-8.40625-10.035156l-26.796876-2.367187c-3.851562-.34375-6.121093-2.425782-6.351562-3.074219l-1.167969-13.378907c-.445312-5.082031-4.804687-8.953124-10.027343-8.414062-5.089844.441406-8.859376 4.933594-8.414063 10.023438l1.167969 13.378906c.90625 10.257812 10.855468 18.808594 23.167968 19.902344zm0 0"/><path d="m391.007812 70.347656c-9.699218-8.25-23.808593-8.953125-34.289062-1.722656l-26.296875 18.179688c-4.214844 2.90625-5.261719 8.675781-2.351563 12.878906 1.792969 2.601562 4.683594 3.996094 7.628907 3.996094 1.8125 0 3.644531-.535157 5.246093-1.636719l26.300782-18.179688c3.542968-2.445312 8.5-2.195312 11.765625.589844l20.050781 17.027344c3.898438 3.304687 9.738281 2.832031 13.054688-1.066407 3.304687-3.898437 2.832031-9.738281-1.066407-13.054687zm0 0"/><path d="m366.058594 53.082031 4.167968-16.554687c1.25-4.960938-1.761718-9.988282-6.722656-11.238282-4.96875-1.269531-9.988281 1.75-11.238281 6.722657l-4.164063 16.550781c-.269531 1.074219-3.324218 3.683594-7.769531 3.683594h-21.789062c-5.109375 0-9.257813 4.148437-9.257813 9.257812s4.148438 9.257813 9.257813 9.257813h21.800781c12.117188 0 23.179688-7.597657 25.714844-17.679688zm0 0"/><path d="m426.648438 52.285156-26.800782-2.371094c-3.847656-.339843-6.117187-2.421874-6.347656-3.070312l-1.167969-13.378906c-.445312-5.089844-4.824219-8.941406-10.027343-8.414063-5.089844.445313-8.859376 4.933594-8.414063 10.027344l1.167969 13.375c.898437 10.25 10.859375 18.804687 23.160156 19.894531l26.792969 2.371094c.273437.015625.554687.035156.824219.035156 4.746093 0 8.785156-3.628906 9.210937-8.441406.460937-5.085938-3.304687-9.582031-8.398437-10.027344zm0 0"/></svg>