<svg height="511pt" viewBox="0 -8 511.99969 511" width="511pt" xmlns="http://www.w3.org/2000/svg"><path d="m509.496094 480.867188-126.714844-126.71875c9.78125-9.777344 13.875-21.726563 11.828125-34.535157-1.742187-10.886719-7.921875-21.894531-17.863281-31.828125l-241.351563-241.359375c-14.222656-14.234375-32.867187-18.917969-49.40625-14.320312l-10.28125-22.621094c-2.621093-5.769531-8.578125-9.375-14.738281-8.949219-6.332031.324219-11.707031 4.429688-13.71875 10.441406l-5.5625 16.683594-33.800781 18.773438c-5.84375 3.253906-8.832031 9.601562-7.621094 16.171875 1.222656 6.570312 6.28125 11.425781 12.894531 12.363281l29.730469 4.25c-2.988281 16.050781 1.679687 33.253906 14.0625 45.644531l241.351563 241.351563c9.640624 9.644531 22.5 14.949218 36.207031 14.949218 13.703125 0 26.5625-5.304687 36.195312-14.949218l126.714844 126.71875c1.667969 1.664062 3.851563 2.5 6.035156 2.5 2.183594 0 4.367188-.839844 6.035157-2.5 3.34375-3.339844 3.34375-8.734375.003906-12.066406zm-460.515625-418.007813-28.242188-4.042969 29.832031-16.5625c3.34375-1.859375 5.859376-4.882812 7.082032-8.542968l4.367187-13.085938 8.601563 18.941406c-1.851563 1.339844-3.558594 2.789063-5.128906 4.359375l-8.53125 8.535157c-2.132813 2.132812-3.984376 4.507812-5.699219 6.988281-.496094.707031-.972657 1.40625-1.425781 2.132812-.265626.433594-.597657.824219-.855469 1.277344zm285.535156 301.238281c-9.144531 0-17.722656-3.535156-24.140625-9.949218l-241.347656-241.351563c-6.410156-6.417969-9.941406-14.984375-9.941406-24.132813 0-4.417968.863281-8.6875 2.441406-12.652343l.230468-.554688c1.03125-2.46875 2.390626-4.703125 3.898438-6.808593 1.035156-1.425782 2.101562-2.84375 3.371094-4.113282l8.535156-8.535156c1.152344-1.152344 2.394531-2.089844 3.640625-3.011719 1.253906-.871093 2.628906-1.699219 4.207031-2.5l2.332032-1.195312c3.371093-1.332031 6.917968-2.039063 10.535156-2.039063 8.636718 0 17.597656 3.773438 25.054687 11.230469l241.351563 241.359375c7.277344 7.277344 11.914062 15.25 13.074218 22.46875 1.183594 7.378906-1.128906 13.847656-7.039062 19.761719l-12.066406 12.066406c-6.421875 6.421875-14.980469 9.957031-24.136719 9.957031zm0 0"/><path d="m233.800781 228.933594c-3.335937-3.339844-8.730469-3.339844-12.066406 0-3.335937 3.335937-3.335937 8.726562 0 12.0625l48.214844 48.203125c1.664062 1.667969 3.847656 2.5 6.03125 2.5 2.1875 0 4.371093-.835938 6.035156-2.5 3.335937-3.335938 3.335937-8.726563 0-12.0625zm0 0"/><path d="m167.132812 122.585938c-3.335937-3.339844-8.730468-3.339844-12.066406 0-3.335937 3.335937-3.335937 8.726562 0 12.0625l29.550782 29.550781c1.664062 1.664062 3.847656 2.5 6.035156 2.5 2.183594 0 4.367187-.835938 6.03125-2.5 3.335937-3.335938 3.335937-8.730469 0-12.066407zm0 0"/><path d="m150.371094 105.824219-10.441406-10.445313c-3.339844-3.335937-8.730469-3.335937-12.066407 0-3.335937 3.339844-3.335937 8.730469 0 12.066406l10.445313 10.445313c1.664062 1.664063 3.847656 2.5 6.03125 2.5s4.371094-.839844 6.035156-2.5c3.335938-3.335937 3.335938-8.730469-.003906-12.066406zm0 0"/></svg>