<svg height="511pt" viewBox="-73 1 511 511.99798" width="511pt" xmlns="http://www.w3.org/2000/svg"><path d="m210.761719 429.722656c0 5.050782-4.089844 9.140625-9.140625 9.140625-5.046875 0-9.140625-4.089843-9.140625-9.140625 0-5.050781 4.09375-9.140625 9.140625-9.140625 5.050781 0 9.140625 4.089844 9.140625 9.140625zm0 0"/><path d="m183.339844 466.289062c0 5.050782-4.09375 9.140626-9.144532 9.140626-5.046874 0-9.140624-4.089844-9.140624-9.140626 0-5.050781 4.09375-9.140624 9.140624-9.140624 5.050782 0 9.144532 4.089843 9.144532 9.140624zm0 0"/><path d="m238.191406 457.148438c0 5.046874-4.09375 9.140624-9.144531 9.140624-5.046875 0-9.140625-4.09375-9.140625-9.140624 0-5.050782 4.09375-9.144532 9.140625-9.144532 5.050781 0 9.144531 4.09375 9.144531 9.144532zm0 0"/><path d="m274.757812 438.863281c0 5.050781-4.09375 9.144531-9.144531 9.144531-5.046875 0-9.140625-4.09375-9.140625-9.144531 0-5.046875 4.09375-9.140625 9.140625-9.140625 5.050781 0 9.144531 4.09375 9.144531 9.140625zm0 0"/><path d="m58.140625 402.871094-15.503906 26.851562 15.503906 26.851563h30.992187l15.503907-26.851563-15.503907-26.851562zm20.433594 35.40625h-9.890625l-4.949219-8.566406 4.949219-8.5625h9.890625l4.945312 8.5625zm0 0"/><path d="m112.992188 365.730469-15.503907 26.847656 15.503907 26.851563h30.992187l15.503906-26.851563-15.503906-26.847656zm20.433593 35.40625h-9.894531l-4.945312-8.566407 4.945312-8.566406h9.894531l4.945313 8.566406zm0 0"/><path d="m361.976562 2.679688c-3.574218-3.574219-9.351562-3.574219-12.925781 0l-71.761719 71.765624-.382812.382813-.96875.957031-113.351562 113.371094-.957032.746094-7.71875 6.539062 7.160156 7.148438c2.566407 2.566406 3.984376 6.015625 3.984376 9.699218 0 3.679688-1.417969 7.117188-3.996094 9.695313-5.136719 5.140625-14.234375 5.148437-19.390625 0l-25.851563-25.859375c-5.347656-5.351562-5.347656-14.050781 0-19.402344 5.347656-5.328125 14.050782-5.320312 19.527344.140625l7.15625 7.15625 6.398438-7.84375 103.789062-103.988281 57.511719-57.511719c3.574219-3.574219 3.574219-9.351562 0-12.925781s-9.351563-3.574219-12.925781 0l-70.4375 70.4375h-162.34375c-15.117188 0-27.425782 12.304688-27.425782 27.425781v18.285157c0 14.8125 11.8125 26.925781 26.503906 27.410156-2.019531 4.871094-7.5625 7.859375-18.523437 12.90625-18.796875 8.640625-44.546875 20.488281-44.546875 64.101562v202.894532c0 47.300781 38.476562 85.785156 85.785156 85.785156h157.542969c47.300781 0 85.777344-38.484375 85.777344-85.785156v-202.894532c0-43.613281-25.742188-55.453125-44.546875-64.101562-10.972656-5.046875-16.511719-8.035156-18.523438-12.90625 14.691406-.484375 26.503906-12.597656 26.503906-27.410156v-18.28125c0-4.488282-1.253906-8.8125-3.347656-12.726563l72.285156-72.28125c3.574219-3.578125 3.574219-9.355469 0-12.929687zm-223.535156 242.925781c5.351563 5.347656 5.351563 14.050781 0 19.398437-5.347656 5.339844-14.050781 5.339844-19.386718 0l-22.628907-22.625-12.925781-12.9375c-.007812-.007812-.015625-.007812-.027344-.015625l-9.671875-9.671875c-2.566406-2.566406-3.984375-6.015625-3.984375-9.699218 0-3.683594 1.417969-7.121094 3.996094-9.699219 2.566406-2.566407 6.015625-3.996094 9.691406-3.996094 3.675782 0 7.121094 1.417969 9.699219 3.996094l22.625 22.628906 12.925781 12.925781s.007813.007813.015625.007813zm-42.015625 22.636719c2.570313 2.566406 3.988281 6.015624 3.988281 9.699218s-1.417968 7.121094-3.996093 9.699219c-5.148438 5.144531-14.234375 5.144531-19.390625 0l-25.851563-25.855469c-5.351562-5.347656-5.351562-14.050781 0-19.398437 2.667969-2.667969 6.1875-4.003907 9.699219-4.003907 3.507812 0 7.019531 1.335938 9.6875 4.003907l12.9375 12.9375zm147.402344 225.472656h-157.539063c-37.21875 0-67.503906-30.285156-67.503906-67.503906v-72.8125c13.539063 7.851562 26.035156 11.355468 38.074219 11.355468 21.273437 0 41.101563-10.84375 62.695313-27.480468 32.214843-24.847657 54.859374-23.347657 93.171874 6.179687 19.363282 14.917969 36.277344 22.425781 53.5 22.425781 14.296876 0 28.8125-5.238281 45.085938-15.625v75.96875c.011719 37.207032-30.265625 67.492188-67.484375 67.492188zm33.589844-317.898438c17.433593 8.027344 33.898437 15.597656 33.898437 47.492188v104.730468c-34.832031 25.878907-55.035156 25.890626-87.425781.921876-38.121094-29.371094-70.757813-40.671876-115.496094-6.179688-36.878906 28.402344-59.246093 30.800781-89.617187 8.785156v-108.246094c0-31.898437 16.464844-39.464843 33.898437-47.492187 14.097657-6.484375 30.09375-13.839844 30.09375-34.785156v-13h-18.285156c-5.035156 0-9.140625-4.097657-9.140625-9.144531v-18.28125c0-5.046876 4.105469-9.140626 9.140625-9.140626h144.058594l-67.816407 67.8125c-12.113281-6.554687-27.609374-4.707031-37.84375 5.523438-4.417968 4.40625-7.1875 9.816406-8.476562 15.496094-11.363281-3.90625-24.828125-1.59375-33.542969 7.128906-6.03125 6.015625-9.351562 14.050781-9.351562 22.625 0 3.820312.761719 7.507812 2.019531 10.980469-5.601562 1.316406-10.941406 4.058593-15.3125 8.410156-12.46875 12.480469-12.46875 32.773437 0 45.253906l25.855469 25.851563c6.023437 6.023437 14.058593 9.34375 22.625 9.34375 8.566406 0 16.59375-3.320313 22.625-9.34375 4.261719-4.257813 7.085937-9.542969 8.421875-15.285156 3.546875 1.289062 7.25 2.019531 10.96875 2.019531 8.191406 0 16.382812-3.117188 22.628906-9.351563 6.023438-6.027344 9.339844-14.0625 9.339844-22.628906 0-3.910156-.773438-7.675781-2.101563-11.226562 5.722657-1.25 11.128907-3.917969 15.375-8.171876 6.027344-6.015624 9.34375-14.050781 9.34375-22.625 0-5.394531-1.316406-10.578124-3.820312-15.210937l67.8125-67.824219v10.785156c.039062 20.945313 16.027343 28.296876 30.125 34.777344zm-2.660157-56.917968c0 5.046874-4.105468 9.144531-9.144531 9.144531h-16.070312l25.214843-25.214844zm0 0"/></svg>