<svg height="512pt" viewBox="-54 0 512 512" width="512pt" xmlns="http://www.w3.org/2000/svg"><path d="m121.875 270.710938c0 5.050781-4.09375 9.144531-9.144531 9.144531s-9.140625-4.09375-9.140625-9.144531c0-5.050782 4.089844-9.140626 9.140625-9.140626s9.144531 4.089844 9.144531 9.140626zm0 0"/><path d="m122.023438 316.425781c0 5.050781-4.09375 9.144531-9.144532 9.144531-5.050781 0-9.144531-4.09375-9.144531-9.144531s4.09375-9.144531 9.144531-9.144531c5.050782 0 9.144532 4.09375 9.144532 9.144531zm0 0"/><path d="m160.292969 276.070312c0 5.046876-4.09375 9.140626-9.144531 9.140626-5.046876 0-9.140626-4.09375-9.140626-9.140626 0-5.050781 4.09375-9.144531 9.140626-9.144531 5.050781 0 9.144531 4.09375 9.144531 9.144531zm0 0"/><path d="m92.628906 411.429688c0 5.050781-4.09375 9.140624-9.144531 9.140624s-9.144531-4.089843-9.144531-9.140624c0-5.050782 4.09375-9.144532 9.144531-9.144532s9.144531 4.09375 9.144531 9.144532zm0 0"/><path d="m147.484375 457.144531c0 5.046875-4.09375 9.140625-9.144531 9.140625-5.046875 0-9.140625-4.09375-9.140625-9.140625 0-5.050781 4.09375-9.144531 9.140625-9.144531 5.050781 0 9.144531 4.09375 9.144531 9.144531zm0 0"/><path d="m101.769531 457.144531c0 5.046875-4.09375 9.140625-9.144531 9.140625s-9.140625-4.09375-9.140625-9.140625c0-5.050781 4.089844-9.144531 9.140625-9.144531s9.144531 4.09375 9.144531 9.144531zm0 0"/><path d="m83.484375 347.429688c0 5.046874-4.09375 9.140624-9.144531 9.140624-5.046875 0-9.140625-4.09375-9.140625-9.140624 0-5.050782 4.09375-9.144532 9.140625-9.144532 5.050781 0 9.144531 4.09375 9.144531 9.144532zm0 0"/><path d="m110.910156 365.714844c0 5.050781-4.089844 9.144531-9.140625 9.144531s-9.144531-4.09375-9.144531-9.144531c0-5.050782 4.09375-9.144532 9.144531-9.144532s9.140625 4.09375 9.140625 9.144532zm0 0"/><path d="m83.484375 301.714844c0 5.050781-4.09375 9.144531-9.144531 9.144531-5.046875 0-9.140625-4.09375-9.140625-9.144531 0-5.050782 4.09375-9.144532 9.140625-9.144532 5.050781 0 9.144531 4.09375 9.144531 9.144532zm0 0"/><path d="m83.484375 246.859375c0 5.046875-4.09375 9.140625-9.144531 9.140625-5.046875 0-9.140625-4.09375-9.140625-9.140625 0-5.050781 4.09375-9.144531 9.140625-9.144531 5.050781 0 9.144531 4.09375 9.144531 9.144531zm0 0"/><path d="m257.199219 237.714844c0 5.050781-4.09375 9.144531-9.144531 9.144531-5.050782 0-9.140626-4.09375-9.140626-9.144531 0-5.050782 4.089844-9.144532 9.140626-9.144532 5.050781 0 9.144531 4.09375 9.144531 9.144532zm0 0"/><path d="m211.484375 246.859375c0 5.046875-4.09375 9.140625-9.144531 9.140625-5.046875 0-9.140625-4.09375-9.140625-9.140625 0-5.050781 4.09375-9.144531 9.140625-9.144531 5.050781 0 9.144531 4.09375 9.144531 9.144531zm0 0"/><path d="m129.199219 228.570312c0 5.050782-4.09375 9.144532-9.144531 9.144532-5.050782 0-9.144532-4.09375-9.144532-9.144532 0-5.046874 4.09375-9.140624 9.144532-9.140624 5.050781 0 9.144531 4.09375 9.144531 9.140624zm0 0"/><path d="m275.484375 201.144531c0 5.046875-4.09375 9.140625-9.144531 9.140625-5.050782 0-9.144532-4.09375-9.144532-9.140625 0-5.050781 4.09375-9.144531 9.144532-9.144531 5.050781 0 9.144531 4.09375 9.144531 9.144531zm0 0"/><path d="m302.914062 228.570312c0 5.050782-4.09375 9.144532-9.144531 9.144532s-9.144531-4.09375-9.144531-9.144532c0-5.046874 4.09375-9.140624 9.144531-9.140624s9.144531 4.09375 9.144531 9.140624zm0 0"/><path d="m348.625 210.285156c0 5.050782-4.09375 9.144532-9.140625 9.144532-5.050781 0-9.144531-4.09375-9.144531-9.144532 0-5.050781 4.09375-9.144531 9.144531-9.144531 5.046875 0 9.140625 4.09375 9.140625 9.144531zm0 0"/><path d="m330.34375 265.140625c0 5.050781-4.09375 9.144531-9.144531 9.144531s-9.144531-4.09375-9.144531-9.144531c0-5.046875 4.09375-9.140625 9.144531-9.140625s9.144531 4.09375 9.144531 9.140625zm0 0"/><path d="m178.460938 239.441406c0 5.050782-4.09375 9.144532-9.144532 9.144532-5.050781 0-9.144531-4.09375-9.144531-9.144532 0-5.046875 4.09375-9.140625 9.144531-9.140625 5.050782 0 9.144532 4.09375 9.144532 9.140625zm0 0"/><path d="m305.453125 299.363281-44.433594-44.433593-60.910156 16.578124-13.839844 50.898438-50.644531 13.765625-16.566406 60.902344 44.433594 44.433593 50.742187-13.796874 36.726563 36.726562 60.910156-16.574219 16.566406-60.902343-36.808594-36.789063zm-90.449219-12.972656 40.574219-11.035156 29.441406 29.4375-11 40.449219-40.703125 11.074218-29.339844-29.339844zm-75.511718 105.253906 11.035156-40.578125 40.578125-11.027344 29.226562 29.230469-11.125 40.867188-40.277343 10.945312zm157.476562 41.324219-40.578125 11.035156-29.21875-29.226562 11.078125-40.742188 40.414062-11 29.339844 29.339844zm0 0"/><path d="m341.503906 94.992188c-17.351562-6.207032-26.394531-10.148438-28.671875-16.960938 17.089844-4.113281 29.824219-19.539062 29.824219-37.867188v-1.21875c0-21.472656-17.472656-38.945312-38.949219-38.945312h-203.929687c-21.476563 0-38.949219 17.472656-38.949219 38.949219v1.214843c0 18.210938 12.570313 33.546876 29.851563 37.789063-2.230469 6.863281-11.265626 10.816406-28.699219 17.039063-26.160157 9.355468-61.980469 22.171874-61.980469 70.484374v15.992188c0 3.03125 1.507812 5.867188 4.015625 7.566406 2.503906 1.691406 5.703125 2.050782 8.519531.925782l7.734375-3.089844v231.011718c.011719 51.894532 42.230469 94.117188 94.136719 94.117188h174.683594c51.902344 0 94.125-42.222656 94.125-94.125v-213.347656c2.046875-.53125 4.078125-1.199219 6-2.230469 8.804687-4.71875 14.269531-13.84375 14.269531-23.816406v-13.003907c0-48.320312-35.824219-61.128906-61.980469-70.484374zm23.425782 322.882812c0 41.820312-34.019532 75.839844-75.839844 75.839844h-174.683594c-41.820312 0-75.839844-34.019532-75.839844-75.839844v-238.328125l10.523438-4.203125c3.996094-1.609375 8.511718-.074219 10.734375 3.621094l12.378906 20.625c3.929687 6.546875 10.476563 11.144531 17.976563 12.617187 1.71875.328125 3.453124.503907 5.183593.503907.109375 0 .21875-.027344.328125-.027344.238282 0 .476563-.046875.722656-.054688 1.46875-.058594 2.925782-.238281 4.367188-.53125.484375-.101562.960938-.230468 1.445312-.355468 1.21875-.324219 2.40625-.722657 3.578126-1.21875.457031-.191407.921874-.363282 1.371093-.574219 1.535157-.75 3.035157-1.601563 4.425781-2.644531l12.285157-9.214844c3.457031-2.578125 8.367187-2.242188 11.410156.8125l4.875 4.875c5.539063 5.539062 13.175781 8.464844 21.019531 7.835937 7.816406-.558593 15.003906-4.464843 19.703125-10.742187l3.738281-4.984375c3.335938-4.425781 10.1875-5.054688 14.445313.621093 5.351563 7.121094 13.832031 11.191407 22.757813 10.78125 8.90625-.375 17.039062-5.121093 21.769531-12.671874l17.671875-28.289063c1.800781-2.878906 4.863281-4.527344 8.273437-4.058594 3.382813.335938 6.117188 2.4375 7.304688 5.613281l6.238281 16.636719c3.519531 9.382813 11.542969 15.835938 21.472656 17.261719 9.929688 1.390625 19.429688-2.503906 25.464844-10.550781l.660156-.886719c2.777344-3.703125 7.972656-4.597656 11.828125-2.027344l18.953125 12.632813c1.109375.742187 2.25 1.371093 3.449219 1.929687v214.996094zm20.269531-239.398438c0 4.726563-3.230469 6.960938-4.621094 7.699219-.738281.402344-2.15625.949219-3.894531 1.023438l-1.386719-.191407c-.652344-.089843-1.210937-.230468-1.738281-.394531-.640625-.226562-1.28125-.421875-1.9375-.867187l-18.953125-12.636719c-2.984375-1.992187-6.21875-3.308594-9.539063-3.988281-9.957031-2.046875-20.625 1.65625-27.089844 10.277344l-.660156.886718c-2.804687 3.738282-6.703125 3.613282-8.226562 3.410156-1.535156-.21875-5.304688-1.214843-6.941406-5.578124l-6.234376-16.640626c-3.636718-9.699218-12.296874-16.355468-22.609374-17.386718-10.261719-.953125-20.113282 3.785156-25.609376 12.5625l-17.671874 28.289062c-1.554688 2.476563-4.117188 3.976563-7.042969 4.09375-2.84375 0-5.605469-1.152344-7.816407-4.09375-5.148437-6.875-13.03125-10.816406-21.613281-10.816406-8.585937 0-16.46875 3.941406-21.613281 10.816406l-3.742188 4.972656c-1.542968 2.066407-3.8125 3.292969-6.371093 3.484376-2.558594.164062-4.984375-.714844-6.792969-2.535157l-4.871094-4.871093c-9.445312-9.4375-24.632812-10.53125-35.320312-2.507813l-12.277344 9.21875c-2.011719 1.496094-4.480469 2.039063-6.921875 1.578125-2.460937-.484375-4.523437-1.929688-5.816406-4.074219l-12.378907-20.628906c-1.125-1.875-2.496093-3.492187-3.957031-4.992187-.378906-.382813-.761719-.738282-1.152343-1.097657-1.390626-1.261719-2.875-2.394531-4.472657-3.324219-.183593-.101562-.335937-.25-.519531-.351562-1.765625-.976562-3.640625-1.691406-5.570312-2.246094-.511719-.148437-1.023438-.257812-1.550782-.378906-1.664062-.375-3.355468-.601562-5.074218-.65625-.273438-.011719-.539063-.101562-.816407-.101562-.109375 0-.226562.027343-.335937.027343-1.035156.011719-2.070313.164063-3.101563.292969-.601562.085938-1.203125.085938-1.808593.207031-1.636719.320313-3.261719.785157-4.863282 1.425781l-24 9.609376v-2.488282c0-35.425781 24.210938-44.085937 49.855469-53.265625 17.921875-6.410156 37.824219-13.769531 40.777344-33.097656h22.757812c5.046875 0 9.144531-4.085937 9.144531-9.140625 0-5.058594-4.097656-9.144531-9.144531-9.144531h-31.296875c-.109375 0-.191406.054687-.300781.066406-.097656 0-.199219-.066406-.300781-.066406-11.390625 0-20.660156-9.269531-20.660156-20.664063v-1.242187c0-11.390625 9.269531-20.660157 20.660156-20.660157h203.941406c11.390625 0 20.660156 9.269532 20.660156 20.660157v1.214843c0 11.394532-9.269531 20.664063-21.265625 20.664063h-111.769531c-5.046875 0-9.144531 4.085937-9.144531 9.144531 0 5.054688 4.097656 9.140625 9.144531 9.140625h103.222656c2.953125 19.335938 22.855469 26.6875 40.777344 33.097657 25.636719 9.179687 49.855469 17.839843 49.855469 53.265624zm0 0"/></svg>