<svg height="512pt" viewBox="-43 0 512 512.00189" width="512pt" xmlns="http://www.w3.org/2000/svg"><path d="m360.746094 100.019531c-16.96875-6.066406-26.207032-10.003906-29.085938-16.160156 17.84375-4.851563 31.007813-21.191406 31.007813-40.554687v-1.277344c0-23.167969-18.859375-42.027344-42.027344-42.027344h-214.613281c-23.167969 0-42.027344 18.859375-42.027344 42.027344v1.277344c0 19.253906 13 35.511718 31.050781 40.480468-2.828125 6.199219-12.066406 10.132813-29.121093 16.234375-27.828126 9.953125-65.929688 23.585938-65.929688 75.160157v16.820312c0 3.539062 1.761719 6.847656 4.683594 8.832031 2.933594 1.984375 6.644531 2.386719 9.941406 1.078125l6.710938-2.6875v212.683594c0 55.1875 44.894531 100.09375 100.085937 100.09375h183.816406c2.945313 0 5.847657-.179688 8.726563-.4375l.117187-.011719c.738281-.0625 1.484375-.117187 2.207031-.199219l5.503907-.492187.078125-.363281c47.296875-7.957032 83.464844-49.074219 83.464844-98.589844v-194.914062c1.960937-.5625 3.925781-1.160157 5.773437-2.152344 9.597656-5.132813 15.5625-15.09375 15.5625-25.996094v-13.664062c-.003906-51.574219-38.105469-65.207032-65.925781-75.160157zm-318.078125 145.527344c12.53125.234375 24.03125 8.007813 28.542969 20.191406 7.253906 19.5625 2.804687 56.652344-10.484376 61.578125-4.246093 1.558594-10.804687-.167968-18.058593-4.714844zm187.839843 245.121094c-3.617187-3.179688-6.667968-6.347657-8.886718-9.277344-13.578125-17.910156-10.058594-43.519531 7.839844-57.101563 8.671874-6.578124 19.351562-9.40625 30.179687-7.902343 10.78125 1.480469 20.339844 7.070312 26.921875 15.753906 9.761719 12.875 18.050781 38.699219 17.046875 58.527344zm94.300782-2.5625c.164062-24.679688-9.492188-53.355469-21.257813-68.863281-10.027343-13.203126-24.585937-21.726563-41.011719-23.988282-16.417968-2.238281-32.757812 2.015625-45.976562 12.042969-26.101562 19.789063-32.0625 56.351563-14.410156 83.371094h-80.734375c-43.421875 0-78.75-35.328125-78.75-78.761719v-65.558594c4.992187 1.886719 9.855469 2.898438 14.484375 2.898438 3.816406 0 7.488281-.648438 10.984375-1.9375 30.082031-11.167969 32.066406-64.71875 23.074219-89.003906-7.671876-20.695313-27.277344-33.664063-48.546876-33.921876v-33.703124l10.421876-4.171876c3.746093-1.472656 7.945312-.078124 10.015624 3.371094l13.023438 21.703125c4.289062 7.148438 11.4375 12.160157 19.617188 13.761719 1.867187.363281 3.765624.542969 5.640624.542969.085938 0 .183594-.019531.265626-.019531.4375 0 .867187-.085938 1.300781-.105469 1.417969-.078125 2.828125-.234375 4.214843-.523438.617188-.128906 1.226563-.289062 1.84375-.449219 1.25-.328124 2.464844-.757812 3.667969-1.257812.546875-.226562 1.089844-.425781 1.613281-.683594 1.664063-.808594 3.285157-1.738281 4.789063-2.871094l12.925781-9.683593c3.222656-2.421875 7.796875-2.082031 10.65625.765625l5.109375 5.113281c1.515625 1.511719 3.167969 2.835937 4.929688 3.976563 5.289062 3.414062 11.59375 5.066406 17.929687 4.585937h.066406c.339844-.019531.660157-.136719.988282-.179687 8.128906-.855469 15.574218-4.960938 20.515625-11.542969l3.925781-5.238281c3.101562-4.148438 9.449219-4.796876 13.523438.664062 5.835937 7.773438 15.179687 11.914062 24.832031 11.765625 9.71875-.417969 18.59375-5.578125 23.757812-13.835937l18.601563-29.761719c.332031-.523438.726562-.820313 1.089844-1.214844.308593-.332031.59375-.777344.914062-1.023437.011719 0 .011719 0 .023438-.011719 1.429687-1.078125 2.976562-1.441407 4.179687-1.535157.597656-.042968 1.121094-.03125 1.503906 0 1.515625.160157 5.214844.972657 6.824219 5.257813l4.375 11.660156 2.1875 5.847657c.832031 2.207031 1.992188 4.203124 3.285156 6.097656.179688.277344.277344.609375.46875.875.332032.449218.800782.777344 1.152344 1.21875 4.609375 5.628906 11.082031 9.578125 18.507812 10.632812h.03125c10.6875 1.621094 21.28125-2.890625 27.722657-11.476562l.726562-.972656c2.578125-3.453126 7.445313-4.285157 11.027344-1.886719l19.957031 13.300781c1.015625.671875 2.070313 1.28125 3.148438 1.8125v62.785156c-23.722656-2.667968-47.53125 8.363282-60.214844 29.589844-16.238281 27.175781-24.257812 90.503906 7.050781 109.214844 5.738281 3.425781 12.457031 5.109375 19.847657 5.109375 10.101562 0 21.460937-3.207031 33.269531-9.320313-.257813 36.375-25.347657 66.859375-59.109375 75.539063zm59.191406-100.277344c-17.117188 11.457031-33.683594 15.734375-42.21875 10.648437-17.34375-10.371093-12.328125-58.792968.320312-79.96875 7.507813-12.5625 20.960938-19.785156 34.964844-19.785156 2.304688 0 4.628906.191406 6.933594.59375zm21.332031-198.984375c0 4.40625-3.007812 6.484375-4.296875 7.1875-.660156.351562-1.886718.855469-3.414062.960938l-1.527344-.203126c-1.4375-.203124-2.535156-.566406-3.445312-1.164062l-19.925782-13.28125c-13-8.671875-30.546875-5.664062-39.925781 6.828125l-.722656.96875c-2.625 3.480469-6.242188 3.351563-7.671875 3.179687-.363282-.054687-.84375-.148437-1.398438-.332031-1.664062-.53125-3.914062-1.8125-5.066406-4.875l-6.558594-17.511719c-3.96875-10.574218-13.417968-17.847656-24.660156-18.976562h-.011719c-.542969-.054688-1.066406.097656-1.609375.074219-10.648437-.40625-20.632812 4.523437-26.339844 13.644531l-18.601562 29.757812c-1.449219 2.324219-3.839844 3.714844-6.558594 3.832032-2.796875.007812-5.226562-1.078125-7.351562-3.917969-5.621094-7.484375-14.21875-11.773437-23.582032-11.773437-9.367187 0-17.964843 4.289062-23.585937 11.785156l-3.925781 5.238281c-1.941406 2.59375-4.566406 3.148437-5.953125 3.242187-.085938.011719-.222657 0-.320313 0-.289062.023438-.574218.035157-.9375.011719-1.441406-.105469-3.359375-.671875-5.078125-2.386719l-5.109375-5.109374c-10.292968-10.316407-26.859375-11.5-38.527344-2.742188l-12.9375 9.683594c-1.871093 1.398437-4.160156 1.921875-6.445312 1.484375-2.292969-.449219-4.222656-1.804688-5.417969-3.800781l-13.023437-21.703126c-1.226563-2.039062-2.71875-3.796874-4.308594-5.441406-.417969-.425781-.84375-.820312-1.28125-1.226562-1.503906-1.367188-3.105469-2.582032-4.832031-3.597656-.214844-.117188-.394531-.277344-.597657-.402344-1.910156-1.058594-3.945312-1.835938-6.046874-2.445313-.578126-.171875-1.164063-.289062-1.75-.425781-1.78125-.40625-3.59375-.640625-5.441407-.707031-.316406-.007813-.625-.117188-.957031-.117188-.128906 0-.257812.035157-.394531.035157-1.054688.011718-2.113281.167968-3.167969.308593-.726562.085938-1.441406.105469-2.15625.246094-1.78125.351563-3.550781.863281-5.289062 1.558594l-23.847657 9.503906v-1.066406c0-36.554688 25.140625-45.546875 51.777344-55.074219 18.890625-6.761719 39.871094-14.484375 43.484375-34.769531h23.019531c5.886719 0 10.667969-4.769531 10.667969-10.667969s-4.78125-10.667969-10.667969-10.667969h-32.945312c-.105469 0-.203125.066407-.3125.066407-.117188.007812-.210938-.054688-.328125-.054688-11.402344 0-20.695313-9.277344-20.695313-20.695312v-1.277344c0-11.414063 9.292969-20.695313 20.695313-20.695313h214.613281c11.402344 0 20.695313 9.277344 20.695313 20.695313v1.277344c0 11.414062-9.292969 20.695312-21.335938 20.695312h-117.609375c-5.886719 0-10.667969 4.769531-10.667969 10.667969 0 5.898437 4.78125 10.664062 10.667969 10.664062h107.691406c3.617188 20.289063 24.585938 28.011719 43.488281 34.773438 26.625 9.527343 51.765626 18.519531 51.765626 55.074219v13.664062zm0 0"/><path d="m131.210938 367.125c-22.933594-8.640625-48.660157 2.964844-57.300782 25.929688-7.628906 20.214843-5.996094 64.960937 19.414063 74.550781 3.132812 1.183593 6.355469 1.726562 9.609375 1.726562 23.050781 0 47.519531-27.1875 54.199218-44.90625 8.648438-22.933593-2.980468-48.648437-25.921874-57.300781zm5.960937 49.78125c-5.898437 15.636719-27.648437 34.015625-36.320313 30.742188-8.703124-3.285157-12.882812-31.433594-6.984374-47.070313 3.5-9.257813 12.328124-14.976563 21.683593-14.976563 2.699219 0 5.453125.480469 8.128907 1.492188 11.9375 4.5 17.996093 17.878906 13.492187 29.8125zm0 0"/><path d="m145.601562 265.046875c-9.464843 7.175781-15.566406 17.609375-17.183593 29.386719-1.621094 11.777344 1.449219 23.457031 8.628906 32.925781 9.855469 12.992187 34.34375 28.960937 55.070313 28.960937 6.730468 0 13.078124-1.683593 18.378906-5.707031 21.632812-16.402343 10.464844-59.785156-2.582032-77.011719-14.824218-19.542968-42.785156-23.394531-62.3125-8.554687zm52 68.554687c-7.402343 5.632813-33.472656-5.835937-43.554687-19.148437-3.742187-4.925781-5.332031-11.007813-4.488281-17.117187.839844-6.121094 4.011718-11.5625 8.9375-15.296876 4.171875-3.167968 9.089844-4.691406 13.960937-4.691406 7 0 13.921875 3.15625 18.453125 9.140625 10.105469 13.308594 14.101563 41.5 6.691406 47.113281zm0 0"/><path d="m327.507812 274.242188c9.058594-22.773438-2.109374-48.683594-24.894531-57.761719-22.761719-9.054688-48.691406 2.113281-57.75 24.90625-7.976562 20.074219-7.136719 64.867187 18.089844 74.894531 3.203125 1.269531 6.613281 1.898438 10.164063 1.898438 9.226562 0 19.457031-4.226563 29.707031-12.417969 10.988281-8.78125 20.449219-20.863281 24.683593-31.519531zm-19.816406-7.875c-2.859375 7.191406-10.164062 16.320312-18.1875 22.734374-7.496094 5.992188-14.835937 8.882813-18.675781 7.347657-8.640625-3.421875-12.308594-31.660157-6.144531-47.1875 3.605468-9.058594 12.332031-14.59375 21.535156-14.59375 2.839844 0 5.726562.53125 8.511719 1.632812 11.851562 4.734375 17.675781 18.207031 12.960937 30.066407zm0 0"/></svg>