<svg height="512pt" viewBox="-54 0 512 512" width="512pt" xmlns="http://www.w3.org/2000/svg"><path d="m253.402344 267.683594c5.046875 0 9.144531-4.085938 9.144531-9.140625 0-5.058594-4.097656-9.144531-9.144531-9.144531-21.3125 0-40 11.265624-50.570313 28.113281-10.566406-16.847657-29.253906-28.113281-50.566406-28.113281-5.046875 0-9.144531 4.085937-9.144531 9.144531 0 5.054687 4.097656 9.140625 9.144531 9.140625 21.292969 0 38.679687 16.222656 40.964844 36.921875-33.050781 2.695312-53.257813 22.324219-53.257813 52.644531 0 31.980469 37.953125 72.464844 61.121094 72.464844h.25c9.945312 0 22.417969-6.683594 34.257812-18.394532 12.964844-12.820312 26.816407-33.757812 26.816407-54.070312 0-29.3125-18.898438-48.613281-50.011719-52.296875 2.121094-20.867187 19.585938-37.269531 40.996094-37.269531zm-9.277344 89.566406c0 12.09375-8.394531 28.222656-21.386719 41.070312-9.125 9.023438-17.453125 13.109376-21.476562 13.109376-.019531 0-.046875 0-.066407 0-10.175781 0-42.933593-29.433594-42.933593-54.179688 0-30.199219 26.898437-34.707031 42.933593-34.707031 16.039063 0 42.929688 4.507812 42.929688 34.707031zm0 0"/><path d="m341.496094 94.992188c-20.34375-7.277344-29.25-11.4375-29.25-20.753907v-1.699219c18.734375-2.773437 30.410156-14.867187 30.410156-32.375v-1.21875c0-21.472656-17.472656-38.945312-38.949219-38.945312h-203.941406c-21.476563 0-38.949219 17.472656-38.949219 38.949219v1.214843c0 17.378907 11.511719 29.441407 30.410156 32.3125v1.761719c0 9.316407-8.914062 13.476563-29.246093 20.753907-26.160157 9.355468-61.980469 22.171874-61.980469 70.484374v15.992188c0 3.03125 1.507812 5.867188 4.015625 7.566406 2.511719 1.691406 5.695313 2.042969 8.519531.925782l7.734375-3.089844v231.011718c0 51.894532 42.222657 94.117188 94.128907 94.117188h174.683593c51.902344 0 94.125-42.222656 94.125-94.125v-213.347656c2.046875-.53125 4.078125-1.207032 5.996094-2.230469 8.804687-4.71875 14.273437-13.84375 14.273437-23.816406v-13.003907c-.003906-48.320312-35.824218-61.128906-61.980468-70.484374zm23.421875 322.882812c0 41.820312-34.019531 75.839844-75.839844 75.839844h-174.683594c-41.820312 0-75.839843-34.019532-75.839843-75.839844v-238.328125l10.523437-4.203125c3.988281-1.621094 8.523437-.082031 10.734375 3.621094l12.378906 20.625c3.933594 6.546875 10.480469 11.144531 17.976563 12.617187 1.71875.328125 3.457031.503907 5.183593.503907.121094 0 .238282-.027344.355469-.027344.210938 0 .414063-.046875.613281-.046875 1.507813-.054688 3-.238281 4.472657-.539063.472656-.089844.941406-.21875 1.40625-.347656 1.226562-.320312 2.421875-.730469 3.601562-1.226562.457031-.191407.914063-.355469 1.363281-.574219 1.535157-.75 3.035157-1.601563 4.425782-2.644531l12.289062-9.214844c3.453125-2.578125 8.355469-2.242188 11.410156.8125l4.871094 4.875c1.246094 1.242187 2.617188 2.304687 4.050782 3.273437-.636719.574219-1.308594 1.078125-1.945313 1.671875-11.878906 11.171875-26.699219 17.328125-41.746094 17.328125v.082031c-19.695312 1.296876-35.320312 17.773438-35.320312 37.851563v122.53125c0 19.476563 14.703125 35.578125 33.554687 37.695313v.238281c15.386719 0 30.417969 6.363281 42.332032 17.921875 18.257812 17.699218 39.722656 27.054687 62.070312 27.054687 22.34375 0 43.8125-9.355469 62.078125-27.054687 11.914063-11.558594 26.945313-17.921875 42.332031-17.921875v-.457031c18.066406-2.851563 31.917969-18.566407 31.917969-37.484376v-122.539062c0-19.519531-14.773437-35.640625-33.691406-37.707031v-.21875c-15.046875 0-29.871094-6.15625-41.746094-17.328125-6.273437-5.90625-13.03125-10.734375-20.097656-14.671875l17.308593-27.703125c1.800782-2.878906 4.890626-4.425782 8.273438-4.058594 3.382812.335938 6.117188 2.4375 7.304688 5.609375l6.238281 16.640625c3.519531 9.382812 11.542969 15.835938 21.476562 17.261719 9.929688 1.398437 19.425781-2.503907 25.460938-10.550781l.660156-.886719c2.777344-3.691407 7.980469-4.597657 11.828125-2.027344l18.953125 12.632813c1.109375.742187 2.25 1.371093 3.449219 1.929687v214.984375zm-43.730469-153.910156v122.53125c0 10.84375-8.757812 19.648437-19.519531 19.648437v.226563c-18.054688 1.425781-35.328125 9.417968-49.167969 22.847656-14.785156 14.320312-31.84375 21.898438-49.34375 21.898438s-34.570312-7.570313-49.34375-21.898438c-14.265625-13.832031-32.167969-21.894531-50.808594-22.957031v-.128907c-10.761718 0-19.519531-8.8125-19.519531-19.644531v-122.523437c0-10.835938 8.757813-19.640625 19.519531-19.640625v-.042969c18.851563-.632812 37.148438-8.476562 51.785156-22.246094 14.527344-13.667968 31.25-20.894531 48.363282-20.894531.121094 0 .238281 0 .359375.011719 5.074219 4.179687 11.546875 6.417968 18.300781 6.132812 2.03125-.082031 4.003906-.457031 5.925781-.976562 8.464844 3.554687 16.445313 8.832031 23.78125 15.734375 14.214844 13.367187 31.882813 21.148437 50.148438 22.171875v.117187c10.761719-.007812 19.519531 8.808594 19.519531 19.632813zm64-85.488282c0 4.726563-3.226562 6.960938-4.617188 7.699219-.738281.402344-2.15625.949219-3.894531 1.023438l-1.390625-.191407c-.648437-.089843-1.207031-.230468-1.734375-.394531-.640625-.226562-1.28125-.421875-1.949219-.867187l-18.953124-12.636719c-1.488282-.996094-3.042969-1.820313-4.644532-2.476563-11.179687-4.648437-24.4375-1.300781-31.980468 8.765626l-.660157.886718c-2.804687 3.738282-6.703125 3.621094-8.226562 3.410156-1.539063-.21875-5.304688-1.214843-6.941407-5.578124l-6.234374-16.640626c-3.640626-9.699218-12.296876-16.355468-22.613282-17.386718-10.257812-.953125-20.113281 3.785156-25.605468 12.5625l-17.675782 28.289062c-.738281 1.1875-1.734375 2.101563-2.871094 2.796875l-.628906.273438c-.933594.46875-1.949218.769531-3.027344.878906-1.746093.183594-3.492187-.195313-5.019531-1.042969-.089843-.046875-.171875-.117187-.265625-.171875-.703125-.433593-1.371094-.933593-1.945312-1.574219l-2.496094-2.753906-.101562-.007812c-5.121094-5.804688-12.269532-9.214844-20.105469-9.214844-8.585938 0-16.464844 3.941406-21.613281 10.816406l-3.738282 4.972656c-1.546875 2.066407-3.8125 3.292969-6.375 3.484376-2.558594.109374-4.980468-.722657-6.792968-2.535157l-4.871094-4.871093c-9.445313-9.445313-24.621094-10.523438-35.320313-2.507813l-12.277343 9.21875c-2.019532 1.496094-4.460938 2.046875-6.921876 1.578125-2.457031-.484375-4.523437-1.929688-5.8125-4.074219l-12.382812-20.628906c-1.125-1.875-2.484375-3.480469-3.949219-4.984375-.382812-.390625-.765625-.757812-1.167969-1.113281-1.382812-1.253907-2.851562-2.378907-4.445312-3.308594-.179688-.113281-.347656-.257813-.539062-.359375-1.761719-.976562-3.636719-1.691406-5.566407-2.246094-.511719-.148437-1.023437-.257812-1.546875-.378906-1.671875-.382812-3.371094-.601562-5.109375-.65625-.265625-.011719-.523437-.101562-.785156-.101562-.113281 0-.222656.027343-.324219.027343-1.078125.011719-2.15625.164063-3.234375.3125-.558593.070313-1.117187.082031-1.675781.191407-1.636719.320312-3.269531.785156-4.871094 1.425781l-24 9.609375v-2.484375c0-35.429688 24.210938-44.089844 49.855469-53.269531 19.390625-6.9375 41.371094-14.792969 41.371094-37.960938v-10.285156c0-5.054688-4.699219-9.140625-9.746094-9.140625-7.71875 0-20.664063-1.914063-20.664063-14.695313v-1.214844c0-11.390624 9.273438-20.664062 20.664063-20.664062h203.941406c11.390625 0 20.660157 9.273438 20.660157 20.664062v1.214844c0 12.78125-12.945313 14.695313-21.265626 14.695313-5.046874 0-9.144531 4.085937-9.144531 9.140625v10.242187c0 23.167969 21.980469 31.03125 41.375 37.960938 25.632813 9.179687 49.855469 17.835937 49.855469 53.265625zm0 0"/><path d="m266.332031 54.855469c-16.8125 0-26.707031.027343-36.597656.066406-9.882813.027344-19.757813.054687-36.542969.054687-5.046875 0-9.144531 4.085938-9.144531 9.144532 0 5.054687 4.097656 9.140625 9.144531 9.140625 16.8125 0 26.703125-.027344 36.597656-.0625 9.882813-.027344 19.757813-.054688 36.542969-.054688 5.046875 0 9.144531-4.089843 9.144531-9.144531s-4.097656-9.144531-9.144531-9.144531zm0 0"/><path d="m156.617188 54.855469h-18.285157c-5.046875 0-9.144531 4.089843-9.144531 9.144531s4.097656 9.144531 9.144531 9.144531h18.285157c5.046874 0 9.144531-4.089843 9.144531-9.144531s-4.097657-9.144531-9.144531-9.144531zm0 0"/><path d="m190.539062 350.078125c-3.476562-3.382813-9.601562-3.382813-12.984374 0-1.644532 1.730469-2.652344 4.015625-2.652344 6.492187 0 2.378907 1.007812 4.753907 2.652344 6.492188 1.738281 1.648438 4.113281 2.652344 6.492187 2.652344s4.753906-1.003906 6.492187-2.652344c1.644532-1.734375 2.652344-4.113281 2.652344-6.492188-.003906-2.476562-1.007812-4.84375-2.652344-6.492187zm0 0"/><path d="m220.617188 365.714844c2.375 0 4.753906-1.003906 6.492187-2.652344 1.644531-1.734375 2.648437-4.113281 2.648437-6.492188 0-2.476562-1.003906-4.761718-2.648437-6.492187-3.382813-3.382813-9.601563-3.382813-12.894531 0-1.734375 1.648437-2.742188 4.015625-2.742188 6.492187 0 2.378907 1.003906 4.753907 2.652344 6.492188 1.738281 1.644531 4.117188 2.652344 6.492188 2.652344zm0 0"/><path d="m193.1875 384c0 2.378906 1.007812 4.753906 2.652344 6.492188 1.738281 1.644531 4.113281 2.652343 6.492187 2.652343 2.378907 0 4.753907-1.007812 6.492188-2.652343 1.644531-1.738282 2.652343-4.113282 2.652343-6.492188s-1.007812-4.765625-2.652343-6.492188c-3.382813-3.382812-9.601563-3.382812-12.984375 0-1.644532 1.726563-2.652344 4.015626-2.652344 6.492188zm0 0"/></svg>