<svg height="511pt" viewBox="-64 1 511 511.99838" width="511pt" xmlns="http://www.w3.org/2000/svg"><path d="m109.417969 219.429688c-25.207031 0-45.714844 20.503906-45.714844 45.710937s20.507813 45.714844 45.714844 45.714844 45.714843-20.507813 45.714843-45.714844-20.515624-45.710937-45.714843-45.710937zm0 73.140624c-15.121094 0-27.429688-12.304687-27.429688-27.429687 0-15.121094 12.308594-27.425781 27.429688-27.425781 15.125 0 27.429687 12.304687 27.429687 27.425781 0 15.125-12.308594 27.429687-27.429687 27.429687zm0 0"/><path d="m292.277344 256c-20.167969 0-36.570313 16.402344-36.570313 36.570312 0 20.171876 16.402344 36.570313 36.570313 36.570313 20.167968 0 36.570312-16.398437 36.570312-36.570313 0-20.167968-16.410156-36.570312-36.570312-36.570312zm0 54.859375c-10.085938 0-18.289063-8.203125-18.289063-18.289063 0-10.082031 8.203125-18.285156 18.289063-18.285156 10.082031 0 18.285156 8.203125 18.285156 18.285156 0 10.085938-8.203125 18.289063-18.285156 18.289063zm0 0"/><path d="m219.132812 347.429688c0-15.121094-12.304687-27.429688-27.429687-27.429688s-27.429687 12.304688-27.429687 27.429688c0 15.121093 12.304687 27.429687 27.429687 27.429687s27.429687-12.308594 27.429687-27.429687zm-36.570312 0c0-5.046876 4.105469-9.144532 9.144531-9.144532 5.035157 0 9.140625 4.097656 9.140625 9.144532 0 5.046874-4.105468 9.140624-9.140625 9.140624-5.039062 0-9.144531-4.09375-9.144531-9.140624zm0 0"/><path d="m109.417969 393.144531c-20.167969 0-36.570313 16.402344-36.570313 36.570313 0 20.167968 16.402344 36.570312 36.570313 36.570312s36.570312-16.402344 36.570312-36.570312c0-20.167969-16.410156-36.570313-36.570312-36.570313zm0 54.855469c-10.085938 0-18.285157-8.203125-18.285157-18.285156 0-10.085938 8.199219-18.289063 18.285157-18.289063 10.085937 0 18.285156 8.203125 18.285156 18.289063 0 10.082031-8.199219 18.285156-18.285156 18.285156zm0 0"/><path d="m292.277344 393.144531c-15.125 0-27.429688 12.304688-27.429688 27.425781 0 15.125 12.304688 27.429688 27.429688 27.429688 15.121094 0 27.429687-12.304688 27.429687-27.429688 0-15.121093-12.308593-27.425781-27.429687-27.425781zm0 36.570313c-5.039063 0-9.144532-4.097656-9.144532-9.144532 0-5.042968 4.105469-9.140624 9.144532-9.140624 5.039062 0 9.140625 4.097656 9.140625 9.140624 0 5.046876-4.105469 9.144532-9.140625 9.144532zm0 0"/><path d="m185.1875 267.539062 23.128906 11.574219c1.316406.648438 2.707032.957031 4.078125.957031 3.355469 0 6.582031-1.84375 8.191407-5.054687 2.257812-4.515625.429687-10.011719-4.085938-12.269531l-23.132812-11.574219c-4.515626-2.242187-10.011719-.429687-12.269532 4.085937-2.257812 4.519532-.429687 10.023438 4.089844 12.28125zm0 0"/><path d="m273.988281 374.859375c2.34375 0 4.683594-.898437 6.464844-2.679687 3.578125-3.574219 3.578125-9.355469 0-12.925782l-18.285156-18.289062c-3.574219-3.574219-9.351563-3.574219-12.925781 0-3.578126 3.578125-3.578126 9.355468 0 12.929687l18.285156 18.285157c1.78125 1.78125 4.121094 2.679687 6.460937 2.679687zm0 0"/><path d="m210.21875 426.09375-24.539062 8.183594c-4.789063 1.589844-7.378907 6.765625-5.777344 11.566406 1.28125 3.832031 4.847656 6.253906 8.675781 6.253906.953125 0 1.929687-.15625 2.890625-.476562l24.539062-8.183594c4.789063-1.589844 7.378907-6.765625 5.777344-11.566406-1.601562-4.78125-6.765625-7.378906-11.566406-5.777344zm0 0"/><path d="m79.3125 363.035156 18.285156-18.285156c3.574219-3.574219 3.574219-9.351562 0-12.925781-3.574218-3.574219-9.355468-3.578125-12.929687 0l-18.285157 18.285156c-3.574218 3.574219-3.574218 9.351563 0 12.925781 1.785157 1.785156 4.125 2.679688 6.464844 2.679688s4.671875-.898438 6.464844-2.679688zm0 0"/><path d="m248.636719 100.808594c-4.910157-1.097656-9.828125 1.902344-10.980469 6.820312-1.152344 4.910156 1.902344 9.828125 6.820312 10.980469.648438.15625 65.253907 15.808594 75.410157 66.058594.871093 4.339843 4.683593 7.332031 8.953125 7.332031.59375 0 1.207031-.054688 1.816406-.183594 4.949219-.996094 8.148438-5.824218 7.152344-10.78125-12.453125-61.601562-86.042969-79.496094-89.171875-80.226562zm0 0"/><path d="m333.859375 100.890625c-13.25-6.289063-20.617187-10.15625-22.476563-18.285156.660157-.046875 1.253907-.226563 1.894532-.320313.96875-.128906 1.9375-.257812 2.871094-.476562.902343-.21875 1.765624-.53125 2.632812-.839844.878906-.3125 1.765625-.59375 2.605469-.988281.84375-.394531 1.609375-.886719 2.40625-1.363281.769531-.464844 1.554687-.898438 2.277343-1.4375.757813-.566407 1.433594-1.222657 2.128907-1.863282.640625-.585937 1.316406-1.140625 1.902343-1.792968.667969-.738282 1.234376-1.570313 1.820313-2.375.503906-.6875 1.042969-1.328126 1.480469-2.058594.558594-.929688.996094-1.945313 1.460937-2.953125.339844-.722657.734375-1.40625 1.015625-2.167969.4375-1.179688.722656-2.449219 1.023438-3.703125.167968-.675781.414062-1.308594.53125-2 .359375-1.992187.550781-4.0625.550781-6.199219v-21.457031c-.003906-17.445313-12.308594-30.609375-28.621094-30.609375h-235.328125c-16.320312 0-28.617187 13.15625-28.617187 30.609375v21.46875c0 17.453125 12.304687 30.617187 28.617187 30.617187h1.097656c-1.800781 7.5625-8.710937 11.464844-23.257812 18.160157-21.6875 9.972656-51.375 23.632812-51.375 73.820312v238.203125c-.011719 54.660156 44.460938 99.121094 99.117188 99.121094h184.960937c54.65625 0 99.117187-44.460938 99.117187-99.128906v-238.207032c.007813-50.109374-28.800781-63.78125-49.835937-73.773437zm-14.152344-70.28125v21.46875c0 .765625-.046875 1.535156-.15625 2.285156-.714843 5.292969-3.941406 10.027344-10.1875 10.027344h-16.738281v.011719h-.355469v-46.117188h17.09375c7.140625 0 10.34375 6.191406 10.34375 12.324219zm-210.289062-12.324219h18.285156v46.117188h-18.285156zm36.570312 0h18.289063v46.117188h-18.289063zm36.574219 0h18.285156v46.117188h-18.285156zm36.570312 0h18.285157v46.117188h-18.285157zm36.574219 0h18.285157v46.117188h-18.285157zm-192.003906 12.324219c0-6.132813 3.203125-12.324219 10.332031-12.324219h17.097656v46.105469h-17.097656c-6.242187 0-9.472656-4.734375-10.183594-10.027344-.101562-.761719-.15625-1.527343-.15625-2.285156v-21.46875zm301.714844 382.261719c0 44.574218-36.257813 80.84375-80.828125 80.84375h-184.964844c-44.570312 0-80.828125-36.269532-80.828125-80.84375v-141.675782c0-24.628906 10.550781-48.164062 28.945313-64.558593 15.945312-14.207031 36.550781-21.949219 57.707031-21.949219 3.3125 0 6.636719.191406 9.964843.574219 20.363282 2.367187 40.15625 6.832031 58.84375 13.277343l.019532.007813c2.878906.976563 5.695312 2.214844 8.464844 3.476563 12.535156 5.675781 46.695312 18.6875 93.003906 17.304687 23.960937-.921875 46.433594 7.964844 63.496094 24.523437 16.886718 16.363282 26.195312 38.335938 26.195312 61.859376v107.164062h-.019531zm-13.464844-182.167969c-20.65625-20.023437-48.039063-30.183594-76.792969-29.671875-43.75 1.464844-76.011718-11.648438-84.890625-15.679688-3.292969-1.492187-6.648437-2.933593-10.066406-4.105468-19.941406-6.875-41.035156-11.636719-62.703125-14.152344-29.722656-3.453125-59.609375 5.988281-81.9375 25.894531-6.457031 5.75-11.996094 12.289063-16.777344 19.308594v-37.632813c0-38.472656 19.785156-47.570312 40.730469-57.214843 14.984375-6.886719 31.632813-14.800781 33.9375-34.769531h199.625c2.25 19.902343 18.40625 27.820312 32.941406 34.722656 20.261719 9.617187 39.398438 18.707031 39.398438 57.261718v71.945313c-3.914063-5.65625-8.402344-10.988281-13.464844-15.90625zm0 0"/></svg>