<svg height="512pt" viewBox="-44 0 512 512" width="512pt" xmlns="http://www.w3.org/2000/svg"><path d="m391.042969 139.058594c-5.976563-6.964844-11.136719-13.09375-13.660157-19.546875h1.640626c18.570312 0 33.679687-15.113281 33.679687-33.679688v-52.152343c0-18.566407-15.109375-33.679688-33.679687-33.679688h-334.488282c-18.570312 0-33.660156 15.113281-33.660156 33.679688v52.171874c0 18.558594 15.089844 33.660157 33.660156 33.660157h1.855469c-2.53125 6.410156-7.691406 12.492187-13.632813 19.4375-13.820312 16.101562-32.757812 38.179687-32.757812 82.800781v158.925781c0 72.414063 58.910156 131.324219 131.324219 131.324219h161.078125c66.710937 0 121.835937-50.03125 130.128906-114.523438.714844-2.175781 1.191406-4.457031 1.191406-6.878906v-168.847656c.011719-44.558594-18.894531-66.601562-32.679687-82.691406zm-358.4375-53.214844v-52.160156c0-6.585938 5.355469-11.953125 11.9375-11.953125h334.480469c6.585937 0 11.953124 5.355469 11.953124 11.953125v52.148437c0 6.582031-5.355468 11.949219-11.953124 11.949219h-334.488282c-6.574218 0-11.929687-5.355469-11.929687-11.9375zm368.867187 305.285156h-162.441406v-162.972656h162.972656v32.84375h-109.691406v96.925781h109.160156c.183594 0 .347656-.046875.53125-.054687v22.804687c0 3.53125-.207031 7.011719-.53125 10.453125zm.53125-108.394531v52.929687c0 .296876-.230468.535157-.53125.535157h-87.429687v-53.464844zm-109.59375 207.535156h-161.089844c-60.429687 0-109.59375-49.164062-109.59375-109.59375v-158.925781c0-36.582031 13.984376-52.890625 27.511719-68.65625 7.898438-9.191406 15.339844-17.882812 18.785157-29.550781l.445312-3.109375h286.785156l.421875 2.902344c3.402344 11.839843 10.921875 20.597656 18.863281 29.867187 11.429688 13.332031 23.085938 27.183594 26.433594 53.226563h-183.667968v206.429687h179.867187c-13.800781 44.773437-55.53125 77.410156-104.761719 77.410156zm0 0"/><path d="m89.21875 149.464844c-11.1875 14.339844-24.03125 35.527344-24.03125 72.285156v158.925781c0 6.011719 4.855469 10.867188 10.867188 10.867188 6.007812 0 10.863281-4.855469 10.863281-10.867188v-158.925781c0-29.976562 9.824219-46.601562 19.425781-58.921875 3.695312-4.738281 2.859375-11.558594-1.878906-15.242187-4.738282-3.703126-11.5625-2.859376-15.246094 1.878906zm0 0"/></svg>