<svg height="512pt" viewBox="-64 0 512 512.00189" width="512pt" xmlns="http://www.w3.org/2000/svg"><path d="m332.023438 100.375c-14.207032-6.539062-20.609376-10.113281-22.25-17.035156.257812-.097656.492187-.246094.746093-.339844.566407-.226562 1.097657-.503906 1.644531-.757812 1.195313-.554688 2.335938-1.175782 3.445313-1.867188.53125-.34375 1.066406-.671875 1.578125-1.035156 1.164062-.832032 2.25-1.742188 3.285156-2.710938.332032-.308594.683594-.574218.992188-.898437 1.289062-1.3125 2.476562-2.742188 3.519531-4.265625.265625-.382813.46875-.800782.714844-1.183594.757812-1.207031 1.441406-2.445312 2.035156-3.746094.257813-.574218.492187-1.152344.714844-1.746094.480469-1.25.875-2.539062 1.203125-3.863281.140625-.574219.3125-1.140625.417968-1.726562.363282-1.910157.597657-3.863281.597657-5.867188v-21.332031c0-17.644531-14.355469-32-32-32h-224c-17.640625 0-32 14.355469-32 32v21.335938c0 2.1875.222656 4.308593.640625 6.367187.148437.746094.457031 1.441406.660156 2.164063.351562 1.28125.671875 2.570312 1.171875 3.777343.34375.820313.832031 1.558594 1.25 2.347657.53125 1.023437 1.011719 2.082031 1.652344 3.039062.523437.789062 1.171875 1.460938 1.769531 2.207031.683594.84375 1.3125 1.742188 2.070312 2.507813.671876.683594 1.441407 1.234375 2.175782 1.855468.820312.691407 1.589844 1.429688 2.476562 2.046876.789063.546874 1.664063.960937 2.496094 1.429687.9375.535156 1.84375 1.109375 2.847656 1.546875.886719.382812 1.835938.628906 2.761719.941406 1.046875.339844 2.058594.734375 3.136719.980469.980468.214844 1.996094.277344 3.007812.394531.9375.117188 1.84375.339844 2.804688.375-2.355469 5.683594-8.820313 9.171875-21.609375 15.058594-21.941407 10.078125-51.980469 23.902344-51.980469 74.804688v236.726562c0 1.105469.128906 2.175781.171875 3.273438-.03125.289062-.171875.53125-.171875.820312 0 .492188.214844.90625.277344 1.378906 2.871094 52.636719 46.476562 94.621094 99.820312 94.621094h183.808594c53.34375 0 96.949219-41.984375 99.820312-94.621094.0625-.472656.277344-.886718.277344-1.378906 0-.289062-.140625-.53125-.171875-.820312.042969-1.097657.171875-2.167969.171875-3.273438v-236.726562c-.003906-50.902344-30.039062-64.726563-51.980468-74.804688zm-310.6875 304.957031v-202.664062h341.332031v202.664062zm42.664062-373.332031c0-5.886719 4.78125-10.667969 10.667969-10.667969h224c5.886719 0 10.667969 4.78125 10.667969 10.667969v21.335938c0 5.886718-4.78125 10.664062-10.667969 10.664062h-224c-5.886719 0-10.667969-4.777344-10.667969-10.664062zm-3.101562 87.753906c14.941406-6.878906 31.5625-14.730468 34.492187-34.421875h193.21875c2.929687 19.691407 19.550781 27.542969 34.492187 34.421875 20.34375 9.355469 39.566407 18.199219 39.566407 55.425782v6.152343h-341.332031v-6.152343c0-37.226563 19.21875-46.070313 39.5625-55.425782zm223.007812 370.914063h-183.808594c-38.378906 0-70.390625-27.605469-77.320312-64h338.460937c-6.945312 36.394531-38.953125 64-77.332031 64zm0 0"/><path d="m144 245.332031c5.898438 0 10.667969-4.765625 10.667969-10.664062 0-5.902344-4.769531-10.667969-10.667969-10.667969-44.117188 0-80 35.882812-80 80s35.882812 80 80 80c5.898438 0 10.667969-4.769531 10.667969-10.667969 0-5.898437-4.769531-10.667969-10.667969-10.667969-32.339844 0-58.667969-26.324218-58.667969-58.667968s26.328125-58.664063 58.667969-58.664063zm0 0"/><path d="m240 224c-5.898438 0-10.664062 4.769531-10.664062 10.667969 0 5.898437 4.765624 10.667969 10.664062 10.667969 32.34375 0 58.667969 26.324218 58.667969 58.667968 0 32.339844-26.324219 58.664063-58.667969 58.664063-5.898438 0-10.664062 4.769531-10.664062 10.667969 0 5.898437 4.765624 10.667968 10.664062 10.667968 44.121094 0 80-35.882812 80-80 0-44.117187-35.878906-80.003906-80-80.003906zm0 0"/></svg>