<svg height="512pt" viewBox="0 0 512 512" width="512pt" xmlns="http://www.w3.org/2000/svg"><path d="m256 0c-141.152344 0-256 114.847656-256 256s114.847656 256 256 256 256-114.847656 256-256-114.84375-256-256-256zm0 493.382812c-130.894531 0-237.382812-106.488281-237.382812-237.382812s106.488281-237.382812 237.382812-237.382812 237.382812 106.488281 237.382812 237.382812c0 130.898438-106.488281 237.382812-237.382812 237.382812zm0 0"/><path d="m291.429688 253.457031-64.027344 52.542969c-3.972656 3.265625-4.542969 9.121094-1.292969 13.105469 1.84375 2.238281 4.515625 3.398437 7.203125 3.398437 2.078125 0 4.164062-.6875 5.902344-2.109375l64.027344-52.542969c3.976562-3.265624 4.546874-9.121093 1.296874-13.105468-3.269531-3.96875-9.125-4.546875-13.109374-1.289063zm0 0"/><path d="m302.667969 304.453125c3.972656-3.265625 4.542969-9.121094 1.292969-13.109375-3.269532-3.953125-9.113282-4.542969-13.109376-1.292969l-64.027343 52.542969c-3.976563 3.265625-4.542969 9.121094-1.292969 13.105469 1.84375 2.234375 4.515625 3.398437 7.203125 3.398437 2.078125 0 4.164063-.6875 5.902344-2.113281zm0 0"/><path d="m336.003906 289.128906-54.890625 45.039063c-3.972656 3.269531-4.542969 9.125-1.292969 13.109375 1.84375 2.234375 4.515626 3.398437 7.207032 3.398437 2.074218 0 4.160156-.691406 5.898437-2.113281l54.890625-45.039062c3.972656-3.265626 4.542969-9.121094 1.292969-13.105469-3.277344-3.957031-9.121094-4.546875-13.105469-1.289063zm0 0"/><path d="m326.273438 333.238281-64.027344 52.539063c-3.976563 3.269531-4.542969 9.125-1.292969 13.109375 1.839844 2.234375 4.515625 3.398437 7.203125 3.398437 2.078125 0 4.160156-.6875 5.902344-2.113281l64.027344-52.539063c3.976562-3.269531 4.542968-9.125 1.292968-13.109374-3.265625-3.957032-9.109375-4.554688-13.105468-1.285157zm0 0"/><path d="m68.234375 222.671875c-.929687 5.054687 2.421875 9.90625 7.476563 10.835937.570312.113282 1.136718.160157 1.695312.160157 2.261719 0 4.335938-.921875 5.992188-2.328125 6.433593 6.925781 14.085937 12.203125 22.382812 15.609375.269531.140625.453125.363281.734375.476562.574219.230469 1.179687.304688 1.757813.511719 1.257812.457031 2.515624.875 3.789062 1.238281-14.074219 17.082031-17.890625 42.597657-7.679688 65.75 10.640626 24.128907 33.441407 38.808594 56.507813 38.800781 7.242187 0 14.519531-1.445312 21.445313-4.496093 29-12.800781 41.222656-49.003907 27.242187-80.691407-6.703125-15.191406-18.378906-27.15625-32.882813-33.671874-2.671874-1.199219-5.378906-2.113282-8.105468-2.894532 1.058594-1.285156 2.074218-2.617187 3.023437-4.003906.28125-.410156.53125-.835938.808594-1.257812 1.042969-1.628907 2.011719-3.324219 2.90625-5.074219.296875-.59375.613281-1.171875.890625-1.777344.988281-2.132813 1.898438-4.308594 2.644531-6.597656 0-.011719.011719-.03125.011719-.046875.136719-.417969.222656-.859375.351562-1.265625.605469-1.976563 1.101563-3.976563 1.5-5.996094.066407-.34375.195313-.671875.25-1.015625.03125-.128906-.027343-.25-.007812-.382812 1.789062-10.144532 1.089844-20.703126-2.066406-30.839844-.019532-.085938 0-.160156-.027344-.234375-.058594-.175781-.140625-.34375-.199219-.519531-.726562-2.253907-1.542969-4.488282-2.511719-6.695313-1.65625-3.75-3.621093-7.296875-5.863281-10.640625-1.722656-2.570312-3.746093-4.859375-5.773437-7.128906-.597656-.671875-1.0625-1.445313-1.695313-2.085938-.007812 0-.007812-.011718-.015625-.011718-5.613281-5.789063-12.207031-10.488282-19.539062-13.792969-1.9375-.875-3.902344-1.621094-5.875-2.273438 1.445312-3.378906.828125-7.417969-1.898438-10.191406-3.601562-3.675781-9.503906-3.714844-13.164062-.113281-2.484375 2.441406-4.820313 5.035156-7.175782 7.625-5.808593.5-11.515624 1.925781-16.953124 4.328125-14.214844 6.273437-24.851563 18.246093-29.9375 33.707031-4.867188 14.832031-4.011719 31.160156 2.355468 46.117188-.855468 3.589843-1.722656 7.191406-2.394531 10.867187zm124.304687 53.371094c9.839844 22.304687 1.890626 47.492187-17.703124 56.140625-19.597657 8.652344-43.578126-2.464844-53.40625-24.769532-9.832032-22.304687-1.890626-47.503906 17.703124-56.144531 4.460938-1.964843 9.207032-2.941406 14.050782-2.941406 5.277344 0 10.667968 1.175781 15.878906 3.519531 10.296875 4.628906 18.636719 13.230469 23.476562 24.195313zm-106.570312-104.5625c3.40625-10.375 10.425781-18.375 19.753906-22.480469 4.257813-1.871094 8.78125-2.792969 13.386719-2.875h.277344c.933593.011719 1.761719.128906 2.644531.1875 1.367188.082031 2.738281.214844 4.105469.457031 1.003906.175781 2.019531.398438 3.035156.660157 2.167969.566406 4.328125 1.191406 6.460937 2.148437 5.148438 2.320313 9.800782 5.625 13.777344 9.710937.015625.019532.027344.054688.046875.074219 2 2.066407 3.816407 4.308594 5.425781 6.703125 1.609376 2.410156 3.023438 4.980469 4.226563 7.699219 4.832031 10.945313 5.558594 22.863281 2.066406 33.566406-.046875.160157-.128906.300781-.175781.457031-.726562 2.140626-1.636719 4.152344-2.664062 6.070313-.304688.578125-.621094 1.136719-.957032 1.683594-1.023437 1.714843-2.160156 3.332031-3.417968 4.832031-.214844.253906-.390626.542969-.605469.785156-3.324219 3.730469-7.34375 6.71875-11.941407 8.75-2.335937 1.03125-4.738281 1.738282-7.167968 2.222656-.449219.09375-.902344.113282-1.351563.1875-1.851562.289063-3.722656.429688-5.59375.417969-.652343 0-1.3125 0-1.972656-.039062-2.226563-.128907-4.453125-.398438-6.640625-.917969-.398438-.09375-.789062-.273438-1.191406-.382812-9.140625-2.496094-17.613282-8.378907-23.847656-16.8125-.605469-.808594-1.230469-1.601563-1.777344-2.457032-1.3125-2.03125-2.515625-4.171875-3.558594-6.441406l-.410156-.847656c-4.714844-10.875-5.421875-22.714844-1.933594-33.359375zm0 0"/><path d="m271.433594 427.539062c-8.777344.773438-17.675782.882813-26.335938.34375-5.257812-.277343-9.550781 3.59375-9.875 8.710938-.316406 5.140625 3.585938 9.554688 8.710938 9.878906 3.996094.230469 8.015625.363282 12.066406.363282 5.667969 0 11.421875-.253907 17.074219-.757813 5.128906-.453125 8.90625-4.96875 8.449219-10.089844-.453126-5.117187-5.023438-8.980469-10.089844-8.449219zm0 0"/><path d="m406.527344 172.265625c1.707031 3.054687 4.871094 4.773437 8.136718 4.773437 1.535157 0 3.089844-.378906 4.523438-1.179687 4.488281-2.503906 6.097656-8.175781 3.59375-12.660156-4.738281-8.488281-10.15625-16.683594-16.105469-24.316407-3.164062-4.058593-9.011719-4.785156-13.058593-1.628906-4.058594 3.164063-4.785157 9.011719-1.628907 13.058594 5.371094 6.898438 10.257813 14.28125 14.539063 21.953125zm0 0"/><path d="m417.550781 196.171875c3.035157 8.207031 5.464844 16.726563 7.214844 25.320313.890625 4.414062 4.773437 7.457031 9.113281 7.457031.605469 0 1.238282-.066407 1.863282-.195313 5.035156-1.015625 8.292968-5.941406 7.269531-10.976562-1.945313-9.523438-4.636719-18.980469-8.007813-28.085938-1.785156-4.824218-7.15625-7.300781-11.960937-5.492187-4.820313 1.785156-7.289063 7.160156-5.492188 11.972656zm0 0"/><path d="m322.394531 414.960938c-8.054687 3.371093-16.46875 6.15625-24.996093 8.261718-4.988282 1.226563-8.042969 6.273438-6.804688 11.261719 1.042969 4.246094 4.851562 7.085937 9.03125 7.085937.734375 0 1.488281-.085937 2.234375-.269531 9.464844-2.328125 18.792969-5.410156 27.730469-9.160156 4.738281-1.984375 6.972656-7.4375 4.980468-12.1875-1.972656-4.738281-7.4375-7.011719-12.175781-4.992187zm0 0"/><path d="m433.972656 293.191406c-4.980468-1.324218-10.0625 1.664063-11.367187 6.636719-2.222657 8.480469-5.136719 16.847656-8.628907 24.863281-2.054687 4.710938.101563 10.203125 4.824219 12.25 1.207031.53125 2.476563.773438 3.703125.773438 3.59375 0 7.019532-2.09375 8.546875-5.59375 3.871094-8.890625 7.09375-18.164063 9.550781-27.574219 1.320313-4.960937-1.660156-10.054687-6.628906-11.355469zm0 0"/><path d="m254.59375 83.789062h.1875l1.230469-.007812h.175781c8.265625 0 16.585938.597656 24.75 1.777344.457031.074218.902344.101562 1.351562.101562 4.550782 0 8.527344-3.332031 9.195313-7.964844.746094-5.09375-2.78125-9.8125-7.875-10.550781-9.046875-1.320312-18.273437-1.980469-27.414063-1.980469-.066406 0-.132812 0-.195312 0l-1.59375.007813c-5.148438.105469-9.226562 4.359375-9.121094 9.496094.09375 5.074219 4.246094 9.121093 9.308594 9.121093zm0 0"/><path d="m374.261719 130.820312c1.796875 1.703126 4.097656 2.542969 6.40625 2.542969 2.464843 0 4.933593-.96875 6.765625-2.914062 3.539062-3.734375 3.371094-9.625-.359375-13.164063-7.058594-6.671875-14.671875-12.84375-22.660157-18.359375-4.234374-2.921875-10.035156-1.878906-12.949218 2.367188-2.921875 4.226562-1.863282 10.027343 2.363281 12.949219 7.195313 4.988281 14.078125 10.554687 20.433594 16.578124zm0 0"/><path d="m306.613281 91.351562c8.351563 2.558594 16.597657 5.808594 24.492188 9.632813 1.3125.632813 2.691406.941406 4.058593.941406 3.453126 0 6.777344-1.925781 8.378907-5.238281 2.242187-4.617188.316406-10.195312-4.308594-12.4375-8.742187-4.257812-17.890625-7.847656-27.164063-10.6875-4.90625-1.5-10.117187 1.265625-11.625 6.171875-1.519531 4.902344 1.246094 10.097656 6.167969 11.617187zm0 0"/><path d="m446.625 246.730469c-.234375-4.980469-4.359375-8.871094-9.292969-8.871094-.148437 0-.289062 0-.445312.007813-5.140625.234374-9.105469 4.601562-8.863281 9.738281.121093 2.773437.195312 5.578125.195312 8.394531 0 6.015625-.304688 12.046875-.929688 17.941406-.53125 5.117188 3.191407 9.6875 8.304688 10.230469.324219.027344.648438.042969.964844.042969 4.710937 0 8.75-3.5625 9.253906-8.339844.679688-6.53125 1.023438-13.21875 1.023438-19.875 0-3.109375-.074219-6.199219-.210938-9.269531zm0 0"/><path d="m414.476562 345.042969c-4.34375-2.730469-10.089843-1.433594-12.84375 2.902343-4.664062 7.382813-9.953124 14.484376-15.714843 21.101563-3.378907 3.875-2.96875 9.757813.914062 13.128906 1.761719 1.535157 3.9375 2.289063 6.105469 2.289063 2.589844 0 5.1875-1.078125 7.019531-3.203125 6.386719-7.316407 12.234375-15.179688 17.417969-23.371094 2.753906-4.339844 1.449219-10.09375-2.898438-12.847656zm0 0"/><path d="m112.855469 351.792969c-2.875-4.28125-8.667969-5.421875-12.921875-2.550781-4.273438 2.867187-5.417969 8.648437-2.550782 12.917968 5.398438 8.054688 11.46875 15.769532 18.039063 22.921875 1.835937 2 4.347656 3.003907 6.851563 3.003907 2.253906 0 4.515624-.808594 6.300781-2.457032 3.78125-3.480468 4.042969-9.371094.558593-13.152344-5.9375-6.460937-11.410156-13.414062-16.277343-20.683593zm0 0"/><path d="m170.113281 405.308594c-7.566406-4.375-14.894531-9.363282-21.734375-14.847656-4.03125-3.238282-9.878906-2.558594-13.082031 1.445312-3.21875 4.011719-2.566406 9.875 1.445313 13.078125 7.578124 6.070313 15.683593 11.609375 24.0625 16.449219 1.460937.847656 3.0625 1.246094 4.644531 1.246094 3.222656 0 6.351562-1.675782 8.074219-4.652344 2.578124-4.453125 1.050781-10.148438-3.410157-12.71875zm0 0"/><path d="m219.023438 424.246094c-8.574219-1.882813-17.054688-4.441406-25.199219-7.589844-4.8125-1.863281-10.191407.53125-12.046875 5.316406-1.851563 4.785156.53125 10.191406 5.316406 12.046875 9.039062 3.5 18.433594 6.328125 27.945312 8.40625.671876.148438 1.339844.214844 2.003907.214844 4.28125 0 8.136719-2.960937 9.085937-7.320313 1.097656-5.007812-2.085937-9.980468-7.105468-11.074218zm0 0"/><path d="m99.914062 328.863281c-3.714843-7.933593-6.832031-16.214843-9.289062-24.632812-1.433594-4.941407-6.613281-7.792969-11.535156-6.339844-4.933594 1.433594-7.773438 6.601563-6.339844 11.535156 2.71875 9.335938 6.179688 18.523438 10.285156 27.332031 1.582032 3.378907 4.933594 5.363282 8.445313 5.363282 1.320312 0 2.660156-.28125 3.933593-.875 4.667969-2.179688 6.679688-7.730469 4.5-12.382813zm0 0"/><path d="m367.171875 387.527344c-6.667969 5.652344-13.84375 10.847656-21.339844 15.4375-4.382812 2.691406-5.761719 8.414062-3.070312 12.800781 1.75 2.867187 4.824219 4.449219 7.949219 4.449219 1.65625 0 3.332031-.449219 4.851562-1.371094 8.304688-5.082031 16.253906-10.832031 23.644531-17.089844 3.917969-3.324218 4.414063-9.195312 1.089844-13.125-3.324219-3.921875-9.179687-4.414062-13.125-1.101562zm0 0"/><path d="m150.601562 117.667969c1.871094 0 3.773438-.570313 5.410157-1.75 7.160156-5.121094 14.726562-9.71875 22.519531-13.675781 4.578125-2.328126 6.402344-7.933594 4.078125-12.523438-2.328125-4.570312-7.921875-6.402344-12.523437-4.074219-8.628907 4.382813-17.007813 9.476563-24.917969 15.144531-4.179688 2.988282-5.148438 8.808594-2.144531 12.988282 1.828124 2.53125 4.675781 3.890625 7.578124 3.890625zm0 0"/><path d="m77.199219 288.890625c5.101562-.660156 8.695312-5.324219 8.023437-10.425781-.949218-7.382813-1.441406-14.941406-1.441406-22.464844l.046875-3.84375c.101563-5.148438-3.984375-9.394531-9.113281-9.503906-4.824219.046875-9.394532 3.992187-9.503906 9.113281l-.046876 4.234375c0 8.332031.539063 16.691406 1.609376 24.863281.605468 4.691407 4.609374 8.109375 9.214843 8.109375.402344 0 .800781-.027344 1.210938-.082031zm0 0"/><path d="m199.949219 92.652344c.960937 0 1.925781-.148438 2.894531-.464844 8.3125-2.707031 16.914062-4.800781 25.574219-6.199219 5.074219-.828125 8.515625-5.613281 7.699219-10.675781-.832032-5.074219-5.550782-8.527344-10.679688-7.699219-9.597656 1.5625-19.148438 3.871094-28.375 6.886719-4.875 1.59375-7.558594 6.84375-5.957031 11.738281 1.285156 3.929688 4.933593 6.414063 8.84375 6.414063zm0 0"/><path d="m209.917969 103.90625c-28.996094 12.792969-41.210938 48.996094-27.238281 80.691406 10.6875 24.242188 33.644531 38.941406 56.460937 38.941406 4.578125 0 9.148437-.660156 13.617187-1.890624 11.851563 18.636718 31.605469 29.6875 51.59375 29.679687 7.242188 0 14.519532-1.445313 21.445313-4.496094 29.007813-12.800781 41.222656-49.003906 27.242187-80.691406-6.703124-15.195313-18.378906-27.15625-32.882812-33.671875-12.15625-5.464844-25.105469-6.535156-37.226562-3.304688-16.195313-25.710937-46.792969-36.816406-73.011719-25.257812zm-10.199219 73.179688c-9.839844-22.304688-1.890625-47.503907 17.703125-56.140626 4.582031-2.023437 9.375-2.980468 14.160156-2.980468 12.957031 0 25.859375 7.027344 34.320313 19.101562 0 0-.007813.011719-.015625.019532-2.46875 1.738281-4.75 3.703124-6.890625 5.824218-.042969.046875-.089844.09375-.136719.140625-6.097656 6.125-10.820313 13.722657-13.703125 22.492188-4.003906 12.175781-4.089844 25.367187-.496094 37.980469.074219.269531.09375.53125.179688.800781-17.726563 2.851562-36.640625-8.003907-45.121094-27.238281zm112.796875-27.636719c10.296875 4.625 18.644531 13.226562 23.476563 24.203125 9.847656 22.304687 1.898437 47.496094-17.707032 56.144531-19.59375 8.648437-43.566406-2.46875-53.402344-24.773437-4.582031-10.378907-5.160156-21.347657-2.628906-31.035157.1875-.707031.261719-1.445312.484375-2.140625.632813-1.992187 1.5-3.855468 2.402344-5.699218.253906-.5.417969-1.070313.691406-1.554688 1.03125-1.886719 2.277344-3.617188 3.601563-5.292969.269531-.347656.472656-.746093.761718-1.074219 1.40625-1.65625 3.027344-3.117187 4.71875-4.484374.308594-.242188.550782-.558594.867188-.792969 2.039062-1.546875 4.253906-2.875 6.664062-3.957031l.355469-.15625c4.402344-1.917969 9.09375-2.886719 13.859375-2.886719 5.273438-.019531 10.652344 1.152343 15.855469 3.5zm0 0"/></svg>