<svg height="512pt" viewBox="-54 0 512 512.00318" width="512pt" xmlns="http://www.w3.org/2000/svg"><path d="m360.441406 84.527344c-11.964844-5.507813-17.355468-8.515625-18.738281-14.347656.21875-.078126.414063-.207032.636719-.285157.476562-.191406.925781-.421875 1.386718-.640625 1.003907-.464844 1.964844-.984375 2.898438-1.570312.449219-.289063.898438-.566406 1.332031-.871094.980469-.703125 1.886719-1.464844 2.765625-2.28125.277344-.261719.574219-.488281.835938-.757812 1.085937-1.105469 2.085937-2.308594 2.964844-3.59375.222656-.320313.394531-.671876.597656-.996094.640625-1.015625 1.214844-2.058594 1.71875-3.152344.214844-.484375.414062-.972656.601562-1.472656.402344-1.050782.734375-2.136719 1.011719-3.253906.117187-.484376.261719-.960938.351563-1.453126.296874-1.609374.492187-3.253906.492187-4.941406v-17.960937c.003906-14.859375-12.089844-26.949219-26.945313-26.949219h-269.472656c-14.855468 0-26.949218 12.089844-26.949218 26.949219v17.964843c0 1.839844.191406 3.628907.539062 5.363282.125.625.386719 1.210937.558594 1.820312.292968 1.078125.566406 2.164063.988281 3.183594.285156.691406.699219 1.308594 1.050781 1.976562.445313.859376.851563 1.75 1.390625 2.558594.441407.664063.988281 1.230469 1.492188 1.859375.574219.707031 1.105469 1.464844 1.742187 2.109375.566406.574219 1.222656 1.050782 1.832032 1.574219.691406.582031 1.339843 1.203125 2.085937 1.722656.664063.460938 1.398437.808594 2.101563 1.203125.789062.449219 1.554687.933594 2.398437 1.304688.746094.324218 1.546875.527344 2.324219.789062.882812.289063 1.734375.621094 2.644531.828125.824219.179688 1.675781.234375 2.53125.332031.789063.097657 1.554687.289063 2.363281.316407-1.984375 4.785156-7.429687 7.722656-18.199218 12.679687-18.476563 8.480469-43.773438 20.121094-43.773438 62.988282v280.1875c0 46.476562 37.816406 84.292968 84.292969 84.292968h235.628906c46.472656 0 84.289063-37.816406 84.289063-84.292968v-280.191407c0-42.863281-25.292969-54.503906-43.769532-62.992187zm-306.546875-57.578125c0-4.960938 4.027344-8.984375 8.984375-8.984375h269.472656c4.957032 0 8.984376 4.023437 8.984376 8.984375v17.964843c0 4.957032-4.027344 8.980469-8.984376 8.980469h-269.472656c-4.957031 0-8.984375-4.023437-8.984375-8.980469zm332.351563 400.757812c0 36.578125-29.75 66.328125-66.324219 66.328125h-235.628906c-36.566407 0-66.324219-29.75-66.324219-66.328125v-280.1875c0-31.347656 16.183594-38.789062 33.316406-46.671875 12.582032-5.796875 26.578125-12.40625 29.046875-28.988281h243.550781c2.46875 16.582031 16.464844 23.191406 29.050782 28.988281 17.128906 7.875 33.316406 15.324219 33.316406 46.671875v280.1875zm-311.753906-407.109375 12.703124 12.699219-17.964843 17.964844-12.699219-12.699219zm35.929687 0 12.699219 12.699219-17.964844 17.964844-12.699219-12.699219zm35.929687 0 12.703126 12.699219-17.964844 17.964844-12.703125-12.699219zm35.929688 0 12.703125 12.699219-17.964844 17.964844-12.703125-12.699219zm35.929688 0 12.703124 12.699219-17.964843 17.964844-12.699219-12.699219zm35.933593 0 12.699219 12.699219-17.964844 17.964844-12.703125-12.699219zm35.925781 0 12.703126 12.699219-17.964844 17.964844-12.703125-12.699219zm35.921876 0 12.703124 12.699219-17.96875 17.964844-12.699218-12.699219zm51.273437 172.523438c0-56.957032-32.238281-103.296875-71.863281-103.296875-18.710938 0-35.710938 10.417969-48.511719 27.324219-6.863281-16.042969-22.789063-27.324219-41.308594-27.324219-24.765625 0-44.914062 20.148437-44.914062 44.910156 0 3.441406.46875 6.757813 1.203125 9.980469-3.296875-.636719-6.699219-.996094-10.183594-.996094-13.816406 0-26.382812 5.261719-35.929688 13.84375v-4.859375c0-24.765625-20.148437-44.914063-44.914062-44.914063s-44.914062 20.148438-44.914062 44.914063v62.875c0 17.183594 9.8125 31.960937 24.011718 39.515625-20.507812 11.933594-32.992187 27.933594-32.992187 45.816406 0 22.261719 19.257812 41.617188 49.4375 53.808594-28.839844 9.636719-49.4375 34.1875-49.4375 62.964844 0 37.152344 34.25 67.367187 76.347656 67.367187 23.859375 0 45.183594-9.71875 59.195313-24.890625 3.449218 14.191406 17.875 24.890625 35.121093 24.890625 19.816407 0 35.929688-14.101562 35.929688-31.4375 0-8.863281-4.246094-16.851562-11.019531-22.574219 3.863281-.167968 7.617187-.726562 11.199218-1.671874-.027344.613281-.179687 1.179687-.179687 1.789062 0 24.765625 20.148437 44.910156 44.914062 44.910156h44.910157c24.765624 0 44.914062-20.144531 44.914062-44.910156 0-15.214844-7.644531-28.636719-19.25-36.765625 16.996094-10.582031 28.230469-28.683594 28.230469-49.207031 0-26.605469-18.863281-49.140625-44.6875-56.492188 26.1875-15.4375 44.691406-52.433594 44.691406-95.570312zm-128.074219 64.171875c-13.632812-8.695313-31.394531-15.394531-51.785156-19.4375 11.121094-9.882813 18.175781-24.234375 18.175781-40.242188 0-6.433593-1.195312-12.574219-3.269531-18.296875 1.105469.082032 2.144531.332032 3.269531.332032 6.859375 0 13.292969-1.671876 19.121094-4.4375-.71875 5.828124-1.160156 11.792968-1.160156 17.910156.003906 24.253906 5.886719 46.53125 15.648437 64.171875zm2.777344 94.710937c-2.300781-1.777344-4.796875-3.347656-7.429688-4.722656 2.480469-1.410156 4.859376-2.867188 7.097657-4.394531-.035157.773437-.125 1.519531-.125 2.300781 0 2.308594.179687 4.570312.457031 6.816406zm26.140625-54.933594c-.34375-3.34375-.960937-6.632812-2.140625-9.8125 3.261719 2.121094 6.648438 3.875 10.152344 5.273438-2.792969 1.328125-5.472656 2.839844-8.011719 4.539062zm-62.527344-189.28125c14.855469 0 26.945313 12.089844 26.945313 26.949219s-12.089844 26.949219-26.945313 26.949219c-14.859375 0-26.949219-12.089844-26.949219-26.949219s12.089844-26.949219 26.949219-26.949219zm-53.894531 53.894532c19.8125 0 35.925781 16.113281 35.925781 35.929687 0 19.816407-16.113281 35.929688-35.925781 35.929688-19.816406 0-35.929688-16.113281-35.929688-35.929688 0-19.816406 16.113282-35.929687 35.929688-35.929687zm-107.792969-8.980469c0-14.859375 12.089844-26.949219 26.949219-26.949219s26.949219 12.089844 26.949219 26.949219v62.875c0 14.855469-12.089844 26.949219-26.949219 26.949219s-26.949219-12.089844-26.949219-26.949219zm-8.980469 148.207031c0-23.855468 43.3125-49.402344 107.789063-49.402344s107.789063 25.546876 107.789063 49.402344c0 15.503906-18.359376 31.675782-48.855469 41.121094-3.925781.621094-7.699219 1.625-11.253907 3.039062-14.023437 3.277344-30.019531 5.242188-47.679687 5.242188-64.476563.003906-107.789063-25.542969-107.789063-49.402344zm110.042969 67.308594c6.988281-.066406 13.816407-.433594 20.453125-1.050781-2.980468 5.746093-4.707031 12.132812-4.734375 18.898437-4.066406-6.71875-9.421875-12.71875-15.71875-17.847656zm-51.65625 98.871094c-32.191406 0-58.386719-22.171875-58.386719-49.40625s26.195313-49.402344 58.386719-49.402344c32.191407 0 58.386719 22.167969 58.386719 49.402344s-26.195312 49.40625-58.386719 49.40625zm76-55.53125c3.269531 4.339844 7.375 8.113281 12.074219 11.175781-4.539062.699219-8.75 2.15625-12.523438 4.203125.46875-3.035156.800782-6.109375.800782-9.25 0-2.070312-.144532-4.109375-.351563-6.128906zm18.316407 55.53125c-9.738282 0-17.964844-6.171875-17.964844-13.476563 0-7.300781 8.226562-13.472656 17.964844-13.472656 9.734374 0 17.964843 6.171875 17.964843 13.472656 0 7.304688-8.230469 13.476563-17.964843 13.476563zm22.457031-53.894532c-17.335938 0-31.441407-12.089843-31.441407-26.949218 0-10.84375 7.546876-20.140625 18.332032-24.414063 2.617187-.65625 5.203125-1.320312 7.707031-2.066406 1.753906-.261719 3.550781-.46875 5.402344-.46875 17.332031 0 31.4375 12.089844 31.4375 26.949219 0 4.375-1.339844 8.453125-3.503907 12.109375-2.496093 2.324219-4.816406 4.832031-6.738281 7.667969-5.605469 4.402343-13.007812 7.171874-21.195312 7.171874zm103.296875-8.984374c14.855468 0 26.945312 12.089843 26.945312 26.949218 0 14.855469-12.089844 26.945313-26.945312 26.945313h-44.914063c-14.855469 0-26.949219-12.089844-26.949219-26.945313 0-4.90625 1.410157-9.441406 3.710938-13.402344 2.515625-2.316406 4.726562-4.898437 6.636719-7.660156 4.589843-3.628906 10.3125-5.886718 16.601562-5.886718zm35.929687-59.023438c0 22.632812-20.148437 41.058594-44.914062 41.058594-24.761719 0-44.910157-18.425782-44.910157-41.058594 0-22.636719 20.148438-41.058594 44.910157-41.058594 24.765625 0 44.914062 18.414063 44.914062 41.058594zm-53.894531-66.730469c-29.210938 0-53.894531-39.082031-53.894531-85.335937 0-46.25 24.683593-85.332032 53.894531-85.332032s53.894531 39.082032 53.894531 85.332032c0 46.253906-24.683593 85.335937-53.894531 85.335937zm0 0"/></svg>