<svg height="512pt" viewBox="0 0 512 512" width="512pt" xmlns="http://www.w3.org/2000/svg"><path d="m490.0625 152.488281c-.242188-2.296875-1.042969-4.535156-2.441406-6.492187-.355469-.492188-.800782-.960938-1.183594-1.441406-41.511719-85.472657-129.203125-144.554688-230.4375-144.554688-141.160156 0-256 114.839844-256 256s114.839844 256 256 256 256-114.839844 256-256c0-36.828125-7.878906-71.832031-21.9375-103.511719zm-50.125 4.984375-.042969-.085937-5.664062 1.476562c-.410157.109375-.820313.214844-1.222657.320313l-.148437.035156c-4.390625 1.160156-8.746094 2.363281-13.097656 3.625-.054688.019531-.089844.054688-.144531.070312-7.65625 2.226563-15.261719 4.625-22.8125 7.1875-.042969.019532-.097657 0-.140626.019532-.785156.265625-1.539062.578125-2.324218.84375-5.859375 2.023437-11.691406 4.148437-17.480469 6.378906-.96875.371094-1.964844.691406-2.9375 1.078125-.105469.042969-.175781.132813-.273437.175781-7.382813 2.894532-14.730469 5.902344-21.988282 9.117188-.023437.011718-.0625.011718-.085937.019531-.152344.070313-.292969.140625-.445313.203125-5.671875 2.519531-11.308594 5.128906-16.890625 7.855469 3.089844-11.78125 13.753907-27.257813 30.675781-39.304688 1.457032-1.035156 2.847657-2.144531 4.363282-3.109375 6.4375-4.070312 13.675781-7.621094 21.679687-10.292968 3.144531-1.050782 6.277344-1.867188 9.394531-2.582032 3.179688-.722656 6.410157-1.253906 9.652344-1.664062 4.1875-.523438 8.328125-.847656 12.332032-.847656 19.546874 0 36.457031 5.78125 45.742187 13.179687-9.433594 1.847656-18.808594 3.988281-28.140625 6.300781zm-158.960938-108.589844-.523437.757813c-.675781.953125-1.335937 1.933594-2.003906 2.894531l-.625.890625c-.605469.882813-1.183594 1.773438-1.789063 2.652344-6.835937 9.972656-13.320312 20.167969-19.464844 30.570313-.035156.050781-.085937.085937-.121093.140624-.292969.488282-.554688 1.015626-.839844 1.503907-4.003906 6.839843-7.898437 13.742187-11.59375 20.757812-.078125.160157-.175781.3125-.257813.46875 0 .011719 0 .019531-.007812.027344-3.992188 7.59375-7.765625 15.300781-11.390625 23.082031-.042969.085938-.132813.140625-.175781.242188-.417969.890625-.792969 1.851562-1.203125 2.75-2.769531 6.027344-5.433594 12.109375-7.980469 18.242187-.398438.972657-.851562 1.898438-1.253906 2.878907-.027344.078124-.027344.160156-.054688.230468-.273437.660156-.570312 1.308594-.835937 1.976563-.035157-.0625-.0625-.140625-.097657-.203125-.953124-1.878906-1.824218-3.964844-2.589843-6.269532-.019531-.0625-.046875-.117187-.0625-.179687-3.109375-9.535156-4.3125-22.4375-2.191407-36.507813.390626-2.574218.988282-5.117187 1.582032-7.65625.265625-1.15625.429687-2.289062.75-3.457031.59375-2.191406 1.414062-4.316406 2.15625-6.472656 1.894531-5.460937 4.140625-10.953125 7.210937-16.382813 1.871094-3.3125 3.925781-6.394531 6.074219-9.351562 1.710938-2.339844 3.585938-4.566406 5.492188-6.765625.800781-.925781 1.550781-1.949219 2.378906-2.832031l.4375-.472656c15.707031-16.5625 34.914062-25.417969 48.296875-26.25-3.171875 4.203124-6.25 8.460937-9.296875 12.753906zm-24.976562 445.308594c-131.339844 0-238.191406-106.851562-238.191406-238.191406s106.851562-238.191406 238.191406-238.191406c8.914062 0 17.710938.535156 26.375 1.496094-16.882812 3.054687-36.269531 13.394531-52.285156 29.867187-3.519532.433594-7.042969.890625-10.5 1.484375-4.84375.855469-8.078125 5.46875-7.238282 10.3125.425782 2.410156 1.894532 4.265625 3.746094 5.574219-1.386718 2.117187-2.730468 4.28125-3.996094 6.527343-2.609374 4.621094-4.835937 9.320313-6.734374 14.050782 0 .007812-.015626.015625-.015626.035156-.007812.027344-.015624.042969-.027343.070312-1.683594 4.210938-3.0625 8.441407-4.210938 12.664063-.0625.222656-.132812.445313-.1875.667969-1.175781 4.371094-2.058593 8.714844-2.699219 13.019531-.007812.085937-.042968.1875-.054687.273437 0 .027344.011719.046876 0 .070313-1.40625 9.679687-1.511719 19.019531-.507813 27.625.011719.0625-.015624.105469-.007812.167969.027344.195312.070312.382812.097656.585937.277344 2.238281.632813 4.417969 1.058594 6.535157.054688.277343.089844.5625.140625.828124.492187 2.296876 1.070313 4.507813 1.71875 6.644532.195313.648437.4375 1.261718.652344 1.90625.488281 1.46875 1.011719 2.890625 1.582031 4.265625.285156.703125.589844 1.378906.898438 2.046875.625 1.351562 1.285156 2.644531 1.980468 3.890625.195313.347656.355469.75.550782 1.085937.050781.089844.125.140625.175781.230469 1.042969 1.746094 2.128906 3.414063 3.3125 4.898437 2.851562 3.609376 7.203125 5.683594 11.710937 5.683594.71875 0 1.449219-.054687 2.171875-.171875 5.289063-.78125 9.597657-4.238281 11.546875-9.222656 1.390625-3.5625 2.886719-7.085937 4.355469-10.613281 2.492187-5.984375 5.074219-11.921875 7.746094-17.71875 4.1875-9.089844 8.636719-18.050782 13.339843-26.875 3.25-6.082032 6.625-12.152344 10.105469-18.09375 4.558594-7.796875 9.277344-15.507813 14.246094-23.0625.019531-.027344.046875-.042969.066406-.070313.316407-.488281.648438-.96875.96875-1.460937 1.070313-1.609375 2.171875-3.203125 3.257813-4.804688 2.371094.425782 4.71875.878906 7.0625 1.386719 4.78125 1.050781 9.546875-2.011719 10.585937-6.820313 1.015625-4.675781-1.878906-9.222656-6.464843-10.433593 1.347656-1.835938 2.644531-3.695313 4.019531-5.511719l4.679687-6.21875c2.789063-3.703125 3.5-8.511719 1.890625-12.855469-.5625-1.507812-1.441406-2.816406-2.441406-4 60.792969 13.785157 112.808594 50.835938 146.167969 101.316407-11.980469-3.730469-25.886719-5.476563-40.429688-4.496094-2-2.34375-3.976562-4.710938-6.078125-6.964844-3.367187-3.578125-8.996093-3.746094-12.589843-.417969-2.96875 2.777344-3.597657 7.105469-1.828126 10.5625-2.855468.710938-5.714843 1.523438-8.574218 2.472657-4.96875 1.667968-9.714844 3.636718-14.238282 5.835937-.007812 0-.027343 0-.035156.007813-.027344.007812-.042968.027343-.070312.035156-3.695313 1.800781-7.203125 3.792968-10.578125 5.894531-.359375.222656-.714844.4375-1.070313.660156-3.480468 2.21875-6.785156 4.570313-9.902344 7.035157-.035156.035156-.089843.054687-.125.089843-.015624.007813-.015624.027344-.035156.042969-9.101562 7.246094-16.597656 15.441406-22.171875 23.808594-.382812.574218-.703125 1.140625-1.070312 1.71875-.800781 1.265625-1.59375 2.539062-2.316407 3.804687-.453124.808594-.851562 1.609375-1.28125 2.417969-.523437 1.027344-1.050781 2.042969-1.523437 3.058594-.441406.949218-.835937 1.886718-1.21875 2.839844-.355469.871093-.703125 1.734374-1.015625 2.597656-.167969.472656-.398438.953125-.558594 1.425781-.046875.132813-.011718.265625-.054687.398437-1.371094 4.195313-2.269531 8.300782-2.511719 12.175782-.339844 5.332031 2.199219 10.46875 6.625 13.40625 2.476562 1.640625 5.28125 2.46875 8.101562 2.46875 2.253907 0 4.515626-.535156 6.632813-1.59375.820313-.410156 1.648437-.773438 2.46875-1.183594 5.628906-2.789062 11.308594-5.449219 17.027344-8.023438 8.574219-3.855468 17.253906-7.480468 26.015625-10.863281 6.589844-2.546875 13.226562-4.996093 19.910156-7.277343 9.21875-3.132813 18.539062-5.9375 27.917969-8.554688.726562 1.636719 1.441406 3.277344 2.117187 4.941406 1.414063 3.433594 4.738282 5.511719 8.234375 5.511719 1.132813 0 2.28125-.214844 3.394531-.667969 4.550782-1.871094 6.714844-7.078125 4.84375-11.628906-.375-.910156-.828124-1.773438-1.210937-2.679688 7.917969-1.914062 15.859375-3.703124 23.875-5.246093l5.597656-1.085938c10.980469 27.355469 17.078125 57.167969 17.078125 88.394531 0 131.332032-106.851562 238.183594-238.191406 238.183594zm0 0"/><path d="m187.988281 432.609375c4.730469-2.457031 7.820313-7.285156 8.039063-12.589844.144531-3.296875-.890625-6.359375-2.6875-8.941406-.125-.1875-.140625-.398437-.285156-.585937-.105469-.132813-.265626-.207032-.375-.339844-.96875-1.183594-2.074219-2.269532-3.417969-3.132813-.035157-.019531-.054688-.054687-.082031-.082031-.097657-.0625-.203126-.132812-.300782-.195312-28.894531-18.304688-55.804687-39.480469-80.503906-63.03125-1.863281-1.773438-3.714844-3.546876-5.546875-5.351563-7.621094-7.492187-15.101563-15.140625-22.261719-23.097656l-5.199218-5.789063c-.042969-.046875-.097657-.070312-.140626-.117187-.867187-.933594-1.855468-1.699219-2.914062-2.347657-.050781-.039062-.097656-.089843-.148438-.125-.714843-2.582031-1.375-5.183593-1.980468-7.800781-1.109375-4.789062-5.875-7.738281-10.683594-6.667969-4.789062 1.113282-7.773438 5.894532-6.667969 10.683594.550781 2.359375 1.246094 4.667969 1.867188 7-.738281.933594-1.378907 1.949219-1.867188 3.082032-10.257812 23.730468 1.691407 68.703124 35.867188 97.816406 20.710937 17.636718 45.171875 26.125 66.203125 27.296875 3.363281 1.871093 6.757812 3.707031 10.230468 5.398437 1.265626.605469 2.582032.898438 3.890626.898438 3.304687 0 6.484374-1.84375 8.015624-5.011719.515626-1.058594.738282-2.171875.808594-3.277344 3.667969-.949219 7.132813-2.132812 10.140625-3.691406zm-120.636719-105.390625c.054688.0625.117188.113281.179688.1875l.808594.898438c.054687.054687.125.070312.179687.125 5.199219 5.746093 10.648438 11.230468 16.089844 16.730468.25.332032.371094.722656.667969 1.015625 1.371094 1.382813 2.8125 2.691407 4.203125 4.050781 1.949219 1.925782 3.925781 3.804688 5.902343 5.691407 2.554688 2.449219 5.050782 4.976562 7.648438 7.382812.417969.382813.925781.570313 1.386719.863281 5.550781 5.066407 11.078125 10.140626 16.824219 14.96875.148437.140626.214843.339844.371093.472657 6.304688 5.285156 12.734375 10.425781 19.28125 15.421875.238281.1875.53125.257812.78125.417968 5.921875 4.503907 12.03125 8.761719 18.140625 13.027344.355469.355469.613282.78125 1.039063 1.078125 3.527343 2.441407 7.160156 4.761719 10.757812 7.125 1.042969.683594 2.03125 1.457031 3.074219 2.136719-1.808594.535156-3.875.898438-5.996094 1.210938-1.058594.148437-2.171875.230468-3.285156.320312-1.113281.097656-2.261719.160156-3.433594.1875-1.28125.035156-2.566406.0625-3.894531.023438-17.023437-.480469-38.902344-7.007813-57.824219-23.105469-25.4375-21.667969-35.222656-52.441407-32.902344-70.230469zm0 0"/><path d="m199.253906 250.84375c1.621094 4.363281 5.289063 7.5625 9.828125 8.558594 2.75.605468 5.699219.910156 8.789063.910156 3.363281 0 6.925781-.402344 10.59375-1.097656.519531-.015625 1.042968-.054688 1.570312-.160156 8.796875-1.84375 18.164063-5.644532 27.085938-10.988282.382812-.230468.613281-.589844.945312-.863281 7.140625-4.382813 14.101563-9.832031 20.59375-16.25.277344-.214844.617188-.320313.863282-.578125.375-.375.679687-.8125 1.042968-1.195312.933594-.960938 1.78125-2.066407 2.691406-3.070313 2.207032-2.457031 4.40625-4.914063 6.390626-7.550781 1.113281-1.460938 2.085937-3.082032 3.136718-4.613282 1.386719-2.039062 2.902344-3.996093 4.164063-6.125.109375-.179687.109375-.375.199219-.5625.34375-.59375.773437-1.113281 1.109374-1.710937 4.382813-7.761719 7.6875-15.742187 10.097657-23.695313.011719-.042968.046875-.070312.054687-.113281.042969-.152343.0625-.3125.109375-.464843 1.351563-4.53125 2.429688-9.039063 3.195313-13.5 0-.007813 0-.023438.007812-.035157 2.691406-15.527343 1.976563-30.363281-1.289062-42.695312-.019532-.089844.007812-.1875-.019532-.277344-.085937-.328125-.203124-.621094-.292968-.941406-.273438-.972657-.578125-1.90625-.878906-2.84375-.339844-1.03125-.667969-2.066407-1.042969-3.054688-.257813-.695312-.550781-1.34375-.835938-2.011719-.453125-1.085937-.910156-2.179687-1.410156-3.207031-.316406-.667969-.683594-1.261719-1.03125-1.90625-.488281-.90625-.96875-1.839843-1.496094-2.695312-.917969-1.480469-1.878906-2.867188-2.902343-4.160157-.863282-1.085937-1.871094-2.011718-2.964844-2.804687-.417969-.300781-.890625-.480469-1.328125-.738281-.710938-.410156-1.414063-.835938-2.179688-1.121094-.589843-.214844-1.203125-.3125-1.808593-.457031-.703126-.167969-1.390626-.34375-2.121094-.417969-.605469-.050781-1.203125 0-1.816406.019531-.558594.015625-1.121094-.0625-1.691407.015625-.238281.039063-.453125.152344-.683593.195313-.195313.039062-.402344.011719-.597657.054687-.246093.0625-.433593.230469-.683593.3125-4.335938 1.28125-7.863282 4.335938-9.554688 8.664063-2.949219 7.558593-6.136719 15.019531-9.429688 22.421875-2.527343 5.652344-5.15625 11.289062-7.863281 16.847656-4.601562 9.429688-9.472656 18.726562-14.636719 27.851562-3.410156 6.027344-6.984374 11.996094-10.625 17.863282-5.109374 8.238281-10.398437 16.367187-15.972656 24.316406-3.492187 4.996094-7.082031 9.929688-10.75 14.792969l-4.691406 6.214843c-.007812.007813-.007812.015626-.007812.015626-.117188.144531-.359376.480468-.445313.617187-.117187.167969-.125.371094-.222656.542969-2.121094 3.527344-2.648438 7.773437-1.195313 11.691406zm31.929688-23.667969c.011718-.015625.011718-.042969.027344-.0625 5.011718-7.160156 9.8125-14.460937 14.46875-21.851562.105468-.160157.257812-.273438.367187-.433594.453125-.722656.863281-1.488281 1.316406-2.21875 4.140625-6.660156 8.175781-13.382813 12.019531-20.222656.125-.214844.261719-.421875.375-.632813.027344-.042968.015626-.097656.042969-.140625 4.265625-7.613281 8.316407-15.351562 12.210938-23.167969.078125-.152343.203125-.261718.285156-.410156.355469-.714844.667969-1.460937 1.015625-2.183594 3.425781-6.960937 6.730469-13.996093 9.847656-21.109374.152344-.347657.328125-.6875.480469-1.035157.035156-.070312.015625-.152343.042969-.222656 1.976562-4.539063 3.929687-9.089844 5.78125-13.683594.1875.347657.382812.648438.558594 1.015625.589843 1.21875 1.125 2.546875 1.632812 3.941406.300781.839844.605469 1.675782.878906 2.566407 2.34375 7.683593 3.4375 17.390625 2.679688 28.082031-.214844 2.886719-.46875 5.769531-.945313 8.648438-.230469 1.40625-.628906 2.867187-.921875 4.292968-.507812 2.410156-1.015625 4.824219-1.710937 7.210938-2.039063 7.035156-4.898438 14.1875-8.871094 21.230468-1.332031 2.359376-2.855469 4.476563-4.335937 6.667969-.96875 1.433594-1.878907 2.910157-2.925782 4.300781-1.375 1.816407-2.84375 3.453126-4.292968 5.117188-1.105469 1.273438-2.15625 2.582031-3.324219 3.804688-15.617188 16.230468-34.546875 24.964843-47.804688 25.785156 3.71875-4.929688 7.335938-9.925782 10.890625-14.976563.058594-.105469.140625-.214843.210938-.3125zm0 0"/><path d="m191.363281 277.292969c.195313 3.871093 1.128907 7.957031 2.597657 12.132812.054687.195313.019531.394531.082031.582031.25.691407.605469 1.394532.890625 2.097657.132812.332031.277344.660156.417968 1 3.136719 7.441406 7.996094 15.03125 14.417969 22.125.222657.25.53125.347656.78125.5625 5.796875 6.304687 12.71875 12.28125 20.640625 17.507812.167969.132813.265625.320313.453125.441407.855469.554687 1.789063.972656 2.65625 1.496093 2.625 1.613281 5.332031 3.152344 8.136719 4.597657 1.101562.558593 2.21875 1.101562 3.339844 1.628906 3.210937 1.511718 6.542968 2.882812 9.960937 4.121094.519531.1875 1 .445312 1.507813.625.105468.035156.222656.015624.328125.050781 3.035156 1.042969 6.117187 2.003906 9.296875 2.804687 5.929687 1.488282 11.789062 2.34375 17.59375 2.894532.230468.035156.417968.179687.660156.195312 3.390625.292969 6.820312.519531 10.007812.453125.1875 0 .382813.039063.570313.039063.820313 0 1.59375-.097657 2.414063-.117188 2.535156-.054688 5.066406-.160156 7.601562-.371094 1.550781-.136718 3.046875-.339844 4.558594-.535156 1.105468-.144531 2.226562-.214844 3.324218-.382812.175782-.027344.300782-.144532.46875-.179688 9.75-1.574219 18.726563-4.300781 26.582032-7.914062.175781-.074219.371094-.039063.550781-.125 1.175781-.554688 2.21875-1.175782 3.339844-1.761719.933593-.492188 1.878906-.953125 2.777343-1.472657 1.796876-1.023437 3.453126-2.117187 5.082032-3.238281.6875-.472656 1.414062-.917969 2.074218-1.410156 1.605469-1.191406 3.035157-2.445313 4.445313-3.71875.550781-.5 1.175781-.972656 1.699219-1.488281 1.550781-1.523438 2.902344-3.117188 4.167968-4.746094.195313-.257812.480469-.496094.667969-.765625.011719-.011719.011719-.027344.019531-.042969.015626-.019531.035157-.039062.042969-.054687l.132813-.1875c.109375-.152344.117187-.320313.214844-.472657 2.726562-4.195312 3.257812-9.492187 1.230468-14.078124-2.15625-4.886719-6.617187-8.136719-11.949218-8.707032-5.121094-.546875-10.234376-1.183594-15.335938-1.878906-7.488281-1.015625-15.046875-2.210938-22.542969-3.554688-9.734375-1.753906-19.410156-3.792968-29.027343-6.097656-7.375-1.761718-14.792969-3.695312-22.128907-5.804687-9.5-2.726563-18.921875-5.753907-28.269531-9.019531-6.894531-2.421876-13.75-4.925782-20.5625-7.632813-.042969-.015625-.085938-.027344-.132812-.042969l-7.222657-2.878906c-4.289062-1.71875-9.117187-1.148438-12.910156 1.566406-3.773437 2.71875-5.882813 7.109375-5.652344 11.757813zm69.800781 51.296875c-1.714843-.632813-3.382812-1.371094-5.058593-2.09375-2.039063-.878906-4.085938-1.761719-6.019531-2.757813-1.441407-.738281-2.820313-1.578125-4.226563-2.386719-18.511719-10.730468-31.128906-25.867187-35.253906-37.921874 6.953125 2.769531 13.988281 5.332031 21.050781 7.808593.988281.34375 1.949219.746094 2.9375 1.09375.140625.042969.277344.019531.417969.054688 8.328125 2.847656 16.6875 5.566406 25.140625 7.996093.015625.007813.035156.027344.050781.027344.089844.027344.1875.042969.277344.070313 7.496093 2.164062 15.054687 4.105469 22.644531 5.941406 1.003906.238281 2.019531.558594 3.027344.792969.230468.050781.453125.042968.683594.078125 16.242187 3.800781 32.652343 6.855469 49.1875 9.136719.964843.132812 1.933593.328124 2.894531.453124.367187.046876.730469.070313 1.085937.070313 2.449219.320313 4.890625.695313 7.347656.980469-.125.113281-.285156.230468-.410156.347656-1.441406 1.300781-3.074218 2.574219-4.90625 3.800781-.195312.132813-.402344.265625-.605468.402344-8.210938 5.339844-19.945313 9.746094-33.605469 11.496094-.847657.105469-1.683594.210937-2.53125.292969-3.152344.320312-6.375.523437-9.703125.523437-.277344.007813-.535156-.015625-.8125-.007813-7.550782-.054687-15.476563-.953124-23.578125-3.003906-3.464844-.863281-6.785157-1.996094-10.035157-3.195312zm0 0"/><path d="m318.652344 75.839844c7.246094 2.519531 14.40625 5.511718 21.296875 8.886718 1.265625.621094 2.601562.917969 3.910156.917969 3.292969 0 6.464844-1.828125 7.996094-4.988281 2.164062-4.417969.347656-9.75-4.070313-11.914062-7.542968-3.695313-15.367187-6.960938-23.273437-9.722657-4.660157-1.613281-9.726563.847657-11.335938 5.476563-1.621093 4.644531.835938 9.722656 5.476563 11.34375zm0 0"/><path d="m360.011719 96.132812c6.421875 4.183594 12.664062 8.804688 18.546875 13.746094 1.675781 1.398438 3.695312 2.085938 5.71875 2.085938 2.546875 0 5.066406-1.078125 6.832031-3.179688 3.160156-3.765625 2.671875-9.386718-1.097656-12.539062-6.429688-5.394532-13.242188-10.453125-20.246094-15.03125-4.117187-2.660156-9.625-1.53125-12.335937 2.59375-2.695313 4.113281-1.53125 9.632812 2.582031 12.324218zm0 0"/><path d="m130.671875 107.546875c-.160156.285156-.347656.542969-.507813.828125-.179687.3125-.179687.648438-.3125.972656-4.105468 7.496094-7.53125 15.957032-9.9375 25.117188-.070312.203125-.214843.355468-.273437.570312-.242187.960938-.339844 1.960938-.554687 2.929688-.710938 3.097656-1.324219 6.25-1.796876 9.472656-.160156 1.113281-.292968 2.226562-.417968 3.347656-.410156 3.554688-.648438 7.167969-.730469 10.835938-.007813.546875-.105469 1.085937-.105469 1.640625 0 .097656.050782.1875.050782.285156-.015626 3.230469.054687 6.492187.320312 9.773437.5 6.253907 1.535156 12.28125 2.921875 18.085938.011719.0625-.007813.117188.011719.167969.0625.242187.160156.464843.210937.703125 1.105469 4.453125 2.414063 8.773437 3.957031 12.902344.023438.066406.042969.117187.070313.179687 5.429687 14.488281 13.347656 26.855469 22.234375 36.195313.0625.074218.078125.164062.140625.234374.320313.328126.648437.59375.96875.925782 1.292969 1.308594 2.601563 2.546875 3.929687 3.71875.605469.546875 1.203126 1.105468 1.816407 1.621094 1.671875 1.398437 3.375 2.699218 5.082031 3.882812.828125.570312 1.648438 1.050781 2.476562 1.566406 1.011719.632813 2.027344 1.238282 3.042969 1.789063.863281.464843 1.71875.910156 2.574219 1.300781 1.433594.667969 2.859375 1.246094 4.273438 1.746094.257812.085937.523437.242187.773437.320312.070313.027344.179687.042969.257813.078125.066406.019531.125.054688.1875.074219.039062.007812.074218 0 .109374.015625.3125.097656.621094.203125.871094.257813.644532.140624 1.292969.207031 1.917969.207031.042969 0 .078125-.019531.125-.019531.496094.054687.988281.230468 1.484375.230468 3.695312 0 7.3125-1.351562 10.097656-3.90625 3.917969-3.609375 5.566406-8.871094 4.390625-14.085937-1.121093-4.996094-2.136719-10.007813-3.117187-15.03125-1.449219-7.445313-2.730469-14.976563-3.855469-22.476563-1.476563-9.890625-2.652344-19.820312-3.5625-29.773437-.675781-7.464844-1.210937-14.960938-1.558594-22.359375-.472656-10.0625-.632812-20.132813-.515625-30.214844.078125-7.265625.25-14.558594.640625-21.71875 0-.007812 0-.027344 0-.042969l.417969-7.800781c.179688-3.5625-1.050781-6.953125-3.339844-9.570312.910156-.097657 1.828125-.1875 2.707032-.582032 7.054687-3.175781 14.398437-5.957031 21.835937-8.242187 4.691406-1.453125 7.328125-6.4375 5.882813-11.140625-1.449219-4.695313-6.417969-7.320313-11.136719-5.886719-8.132813 2.511719-16.171875 5.546875-23.910157 9.027344-4.476562 2.03125-6.480468 7.292969-4.460937 11.78125.082031.167969.207031.292969.292969.453125-2.144532-.230469-4.351563.027344-6.4375.855468-.320313.125-.640625.320313-.953125.453126-2.820313-3.019532-7.34375-3.890626-11.015625-1.664063-7.238282 4.398437-14.28125 9.296875-20.957032 14.558594-3.867187 3.046875-4.527343 8.648437-1.480468 12.503906 1.265625 1.597656 3.019531 2.441406 4.863281 2.90625zm40.515625 131.757813c-1.648438-.933594-3.339844-2.039063-5.050781-3.347657-.25-.1875-.507813-.390625-.757813-.585937-7.476562-5.921875-15.144531-15.300782-21.082031-27.195313-1.015625-2.050781-1.925781-4.160156-2.796875-6.277343-.597656-1.441407-1.203125-2.859376-1.738281-4.363282-.773438-2.15625-1.398438-4.363281-2.019531-6.574218-1.691407-6.007813-3.035157-12.304688-3.582032-19.0625-.285156-3.597657-.285156-7.105469-.1875-10.578126.054688-1.835937.214844-3.652343.367188-5.484374.1875-2.191407.355468-4.390626.675781-6.511719.230469-1.582031.589844-3.160157.902344-4.734375 3.472656-17.277344 11.019531-31.753906 19.265625-40.660156.027344-.023438.046875-.050782.074218-.078126 1.753907-1.890624 3.535157-3.527343 5.296876-4.890624 0 .074218 0 .144531-.011719.214843-.390625 7.417969-.570313 14.835938-.648438 22.261719-.007812 1.042969-.085937 2.085938-.085937 3.125 0 .144531.070312.265625.078125.402344-.035157 8.789062.082031 17.578125.472656 26.347656 0 .027344-.011719.054688-.011719.078125.011719.117187.019532.242187.027344.359375.355469 7.878906.953125 15.742188 1.65625 23.585938.089844.945312.109375 1.890624.195312 2.832031.011719.132812.089844.242187.109376.375 1.601562 16.695312 3.96875 33.320312 7.132812 49.828125.1875.960937.300781 1.941406.496094 2.894531.027344.132813.117187.238281.144531.371094.523437 2.644531.996094 5.300781 1.558594 7.933593-.152344-.058593-.320313-.175781-.480469-.265624zm0 0"/><path d="m99.210938 143.261719c2.878906 0 5.707031-1.386719 7.417968-3.960938 3.480469-5.21875 5.867188-8.613281 5.824219-8.613281 2.695313-3.105469 5.5-6.117188 8.394531-9.027344 3.472656-3.488281 3.457032-9.117187-.035156-12.589844-3.492188-3.472656-9.117188-3.445312-12.589844.035157-3.207031 3.214843-6.304687 6.554687-9.8125 10.652343 0 0-2.625 3.683594-6.605468 9.660157-2.734376 4.09375-1.621094 9.625 2.464843 12.347656 1.53125 1.007813 3.242188 1.496094 4.941407 1.496094zm0 0"/><path d="m57.78125 288.730469c.34375 0 .703125-.015625 1.066406-.0625 4.882813-.578125 8.363282-5.011719 7.785156-9.902344-.820312-6.785156-1.277343-13.683594-1.347656-20.53125-.0625-4.890625-4.03125-8.796875-8.902344-8.796875-.039062 0-.070312 0-.109374 0-4.921876.0625-8.859376 4.09375-8.796876 9.011719.089844 7.476562.578126 15.027343 1.46875 22.445312.542969 4.515625 4.382813 7.835938 8.835938 7.835938zm0 0"/><path d="m56.460938 245.6875c.304687.027344.605468.046875.910156.046875 2.054687 0 3.925781-.773437 5.457031-1.988281.230469.785156.519531 1.578125.765625 2.359375.160156.507812.25 1.042969.417969 1.5625.054687.167969.167969.285156.234375.441406 1.191406 3.589844 2.5 7.167969 4.085937 10.714844 2.082031 4.648437 4.433594 9.046875 6.980469 13.222656.019531.035156.019531.070313.035156.105469.046875.066406.089844.125.136719.1875 2.226563 3.625 4.628906 7.035156 7.132813 10.285156.265624.339844.515624.6875.78125 1.023438 2.621093 3.332031 5.371093 6.4375 8.21875 9.351562.125.132812.234374.285156.367187.417969.035156.035156.089844.042969.125.089843 6.652344 6.722657 13.792969 12.285157 21.03125 16.621094.070313.046875.109375.117188.179687.164063.320313.1875.640626.335937.953126.515625 1.421874.828125 2.847656 1.59375 4.273437 2.324218.683594.355469 1.359375.722657 2.046875 1.050782 1.65625.792968 3.3125 1.503906 4.949219 2.171875.757812.304687 1.507812.589843 2.261719.863281 1.585937.578125 3.160156 1.113281 4.722656 1.558594.871094.25 1.714844.4375 2.574218.640625 1.128907.277343 2.242188.535156 3.355469.730469.402344.070312.820313.207031 1.210938.269531.339843.050781.660156.0625.988281.078125 2.261719.320312 4.476562.542968 6.605469.542968.472656 0 .945312-.007812 1.410156-.027343 5.332031-.1875 10.195313-3.203125 12.679687-7.90625 2.492188-4.707031 2.289063-10.222657-.5625-14.742188-1.558593-2.476562-3.035156-5.007812-4.550781-7.507812-2.976562-4.898438-5.859375-9.839844-8.671875-14.835938-4.960937-8.8125-9.6875-17.746093-14.125-26.816406-2.855468-5.851563-5.644531-11.882813-8.332031-17.96875-3.847656-8.710937-7.480469-17.515625-10.84375-26.421875-2.566406-6.773438-5.042969-13.753906-7.355469-20.800781-1.65625-5.011719-3.257812-10.035157-4.753906-15.101563l-2.210938-7.460937c-.695312-2.324219-1.984374-4.34375-3.675781-5.957031-.035156-.035157-.042969-.089844-.089843-.113282-.363282-.339844-.746094-.660156-1.148438-.953125-.195312-2.789062-1.71875-5.449219-4.300781-7-4.21875-2.5-9.6875-1.140625-12.214844 3.074219-2.191406 3.660156-4.410156 7.476562-6.554687 11.378906-3.429688 4.683594-6.339844 10.355469-8.582032 16.820313l-.082031-.027344c-2.171875 4.648437-4.007813 9.03125-5.464844 13.019531-1.007812 2.742188-.445312 5.582032 1.03125 7.851563-.265625 2.484375-.4375 5.015625-.535156 7.578125-3.070313.882812-5.628906 3.285156-6.339844 6.632812-1.566406 7.417969-2.742187 14.898438-3.480469 22.21875-.503906 4.855469 3.054688 9.21875 7.953126 9.714844zm22.859374-58.5c1.53125-5.136719 3.480469-9.652344 5.761719-13.179688 1.40625 4.730469 2.910157 9.429688 4.441407 14.113282.019531.054687 0 .117187.019531.167968.097656.296876.214843.574219.300781.875 2.359375 7.160157 4.871094 14.257813 7.523438 21.300782.222656.585937.410156 1.21875.644531 1.804687.042969.125.140625.222657.195312.347657 2.929688 7.695312 6.035157 15.316406 9.320313 22.867187.046875.105469.027344.222656.070312.328125.277344.632812.582032 1.222656.867188 1.851562 2.980468 6.785157 6.097656 13.519532 9.367187 20.179688.160157.335938.3125.695312.480469 1.03125.042969.089844.125.160156.167969.25 3.652343 7.398438 7.496093 14.699219 11.496093 21.921875.0625.113281.054688.242187.113282.355469.4375.792968.925781 1.550781 1.375 2.34375 3.59375 6.425781 7.28125 12.8125 11.144531 19.097656-2.125-.335938-4.398437-.917969-6.757813-1.691406-.105468-.035156-.21875-.078125-.328124-.105469-9.605469-3.222656-20.808594-10-30.933594-20.230469-3.550782-3.597656-6.722656-7.570312-9.695313-11.683594-3.832031-5.296874-7.394531-11.058593-10.296875-17.566406-1.566406-3.507812-2.839844-7.042968-3.953125-10.5625-.496093-1.574218-.851562-3.1875-1.28125-4.789062-.570312-2.199219-1.175781-4.398438-1.582031-6.574219-.285156-1.484375-.445312-2.980469-.660156-4.476563-1.710938-11.976562-1.140625-23.238281.972656-32.777343.363281-1.769531.726562-3.535157 1.226562-5.199219zm0 0"/><path d="m227.125 444.550781c-9.351562-1.417969-18.683594-3.5625-27.730469-6.394531-4.707031-1.425781-9.6875 1.167969-11.15625 5.847656-1.460937 4.695313 1.15625 9.691406 5.851563 11.160156 9.910156 3.089844 20.132812 5.429688 30.371094 6.980469.453124.070313.898437.105469 1.335937.105469 4.328125 0 8.128906-3.160156 8.789063-7.574219.746093-4.855469-2.601563-9.394531-7.460938-10.125zm0 0"/><path d="m287.566406 444.121094c.042969-.425782.085938-.863282.132813-1.300782.019531-.195312-.070313-.363281-.0625-.558593.605469-8.308594-.492188-17.71875-3.25-27.453125-.0625-.347656.007812-.675782-.089844-1.023438-.300781-1.015625-.773437-2.003906-1.113281-3.011718-.824219-2.519532-1.753906-5.054688-2.800782-7.59375-.722656-1.734376-1.496093-3.433594-2.316406-5.144532-1.308594-2.761718-2.71875-5.511718-4.285156-8.238281-.300781-.523437-.523438-1.085937-.835938-1.609375-.132812-.214844-.347656-.339844-.488281-.535156-4.488281-7.417969-9.957031-14.601563-16.421875-21.21875-.078125-.089844-.097656-.195313-.1875-.277344-.214844-.214844-.453125-.410156-.667968-.621094-2.164063-2.164062-4.40625-4.28125-6.785157-6.304687-2.191406-1.859375-4.414062-3.613281-6.675781-5.28125-.574219-.417969-1.175781-.800781-1.757812-1.210938-1.8125-1.28125-3.640626-2.527343-5.492188-3.691406-.132812-.082031-.257812-.1875-.390625-.269531-.046875-.023438-.089844-.023438-.136719-.050782-17.414062-10.785156-36.167968-16.179687-52.6875-16.9375-.035156 0-.070312-.007812-.097656-.007812-.023438 0-.042969.007812-.070312.007812-10.988282-.480468-20.941407 1.097657-28.867188 4.453126-.109375.035156-.214844.015624-.320312.0625-.945313.410156-1.871094.851562-2.761719 1.308593-1.199219.621094-2.296875 1.398438-3.265625 2.296875-.515625.480469-.910156 1.058594-1.34375 1.601563-.382813.472656-.828125.898437-1.148438 1.414062-.367187.582031-.589844 1.230469-.875 1.855469-.265625.578125-.578125 1.136719-.765625 1.753906-.167969.558594-.207031 1.148438-.3125 1.71875-.117187.648438-.320312 1.273438-.347656 1.929688 0 .117187.035156.234375.027344.347656 0 .097656-.035157.1875-.035157.285156 0 .5625.140626 1.097656.203126 1.648438.070312.632812.089843 1.261718.242187 1.867187.132813.574219.390625 1.085938.59375 1.621094.242187.632813.417969 1.28125.742187 1.871094.292969.535156.695313.996093 1.050782 1.484375.367187.507812.675781 1.0625 1.113281 1.523437.863281.917969 1.84375 1.746094 2.9375 2.441407.054687.035156.105469.070312.160156.097656 28.574219 18.09375 55.191407 39.011718 79.660157 62.242187 1.867187 1.769531 3.785156 3.496094 5.617187 5.285157 5.832031 5.710937 11.425781 11.65625 16.988281 17.632812-2.109375 1.621094-3.488281 4.148438-3.488281 7.070312 0 4.40625 3.410156 7.890626 7.648437 8.609376l-1.355468 1.496093 14.125-1.34375c1.441406.507813 2.945312.84375 4.496094.84375.730468 0 1.460937-.0625 2.199218-.1875 1.53125-.246093 2.9375-.824219 4.253906-1.539062l13.125-.828125-1.203124-1.023438c4.667968-.953125 7.820312-5.378906 7.027343-10.117187-.78125-4.628907-5.0625-7.957031-9.640625-7.390625zm-39-23.140625c-.152344-.167969-.207031-.382813-.367187-.542969-.535157-.535156-1.121094-1.035156-1.664063-1.566406-1.835937-1.800782-3.742187-3.511719-5.601562-5.273438-3.9375-3.746094-7.808594-7.542968-11.84375-11.15625-.328125-.292968-.746094-.410156-1.101563-.648437-5.894531-5.261719-11.886719-10.382813-18.003906-15.378907-.304687-.339843-.492187-.738281-.855469-1.035156-4.480468-3.632812-9.234375-7.191406-13.925781-10.753906-1.667969-1.265625-3.285156-2.59375-4.96875-3.839844-.644531-.472656-1.230469-.976562-1.871094-1.453125-.195312-.140625-.417969-.167969-.621093-.285156-6.652344-4.878906-13.449219-9.570313-20.320313-14.136719-.234375-.1875-.367187-.445312-.617187-.617187-1.433594-.949219-2.875-1.886719-4.316407-2.820313-.027343-.019531-.046875-.039062-.074219-.054687 5.636719-1.65625 13-2.164063 21.148438-1.453125 1.808594.160156 3.625.367187 5.476562.660156 1.605469.25 3.234376.542969 4.882813.898438 2.097656.457031 4.191406 1.015624 6.285156 1.621093 8.316407 2.398438 16.925781 6.054688 25.324219 11.378907 3.960938 2.523437 7.796875 5.253906 11.316406 8.253906 9.296875 7.925781 16.457032 17.070312 21.742188 26.347656.632812 1.097656 1.160156 2.226562 1.738281 3.339844 7.710937 14.84375 10.6875 29.679687 9.421875 40.160156-.019531.113281-.039062.210938-.046875.328125l-3.265625-3.5625c-.1875-.207031-.445312-.285156-.640625-.472656-5.613281-6.121094-11.347656-12.105469-17.230469-17.9375zm0 0"/><path d="m329.703125 431.933594c-6.832031 2.867187-13.890625 5.359375-20.980469 7.390625-4.730468 1.355469-7.460937 6.285156-6.109375 11.003906 1.113281 3.910156 4.675781 6.457031 8.558594 6.457031.8125 0 1.636719-.117187 2.449219-.347656 7.773437-2.226562 15.503906-4.949219 22.980468-8.085938 4.535157-1.902343 6.660157-7.121093 4.757813-11.664062-1.898437-4.53125-7.125-6.625-11.65625-4.753906zm0 0"/><path d="m447.035156 353.519531c1.949219-5.144531 3.117188-10.167969 3.410156-14.871093.117188-1.878907-.230468-3.695313-.792968-5.4375 1.195312-2.976563 2.40625-5.941407 3.445312-8.996094 1.605469-4.636719-.871094-9.714844-5.519531-11.316406-4.609375-1.585938-9.714844.863281-11.316406 5.519531-.515625 1.480469-1.042969 2.957031-1.59375 4.425781-.292969.015625-.589844.105469-.890625.140625-.507813.070313-1.007813.125-1.503906.25-1.097657.257813-2.175782.605469-3.214844 1.128906-9.546875 4.78125-19.242188 9.21875-29.046875 13.394531-6.632813 2.839844-13.324219 5.566407-20.054688 8.109376-8.617187 3.261718-17.34375 6.21875-26.125 9.003906-5.121093 1.628906-10.265625 3.171875-15.429687 4.640625-14.480469 4.113281-29.117188 7.671875-43.925782 10.515625l-7.632812 1.476562c-4.566406.882813-8.316406 3.972656-10.035156 8.300782-1.714844 4.308593-1.128906 9.144531 1.578125 12.910156 2.929687 4.097656 7.070312 7.855468 12.011719 11.195312.222656.175782.355468.433594.597656.59375 6.910156 4.597656 15.554687 8.289063 25 10.695313.722656.1875 1.453125.265625 2.164062.273437 7.242188 1.691406 14.988282 2.71875 23.089844 2.894532.277344.039062.515625.179687.800781.1875l1.316407.011718c1.507812 0 3.011718-.1875 4.515624-.242187 1.996094-.070313 3.992188-.140625 6-.320313 1.027344-.089844 2.042969-.160156 3.054688-.277344-2.402344 1.507813-4.816406 3.011719-7.261719 4.402344-4.273437 2.414063-5.789062 7.851563-3.367187 12.128906 1.636718 2.890626 4.648437 4.523438 7.753906 4.523438 1.488281 0 2.992188-.375 4.375-1.15625 7.035156-3.972656 13.917969-8.417969 20.460938-13.207031 3.839843-2.8125 4.691406-8.101563 2.109374-12.046875 2.148438-.722656 4.242188-1.523438 6.304688-2.351563 1.355469.757813 2.796875 1.28125 4.3125 1.28125 2.164062 0 4.335938-.78125 6.050781-2.367187 3.074219-2.839844 6.03125-5.816406 8.914063-8.835938 17.210937-10.941406 30.035156-25.339844 37.238281-39.5zm-50.648437 31.941407c-3.390625 2.136718-6.953125 4.078124-10.578125 5.789062-3.429688 1.609375-7 3.097656-10.773438 4.363281-3.777344 1.261719-7.535156 2.226563-11.273437 3-1.085938.222657-2.191407.339844-3.285157.535157-2.699218.464843-5.386718.890624-8.023437 1.121093-1.121094.097657-2.253906.117188-3.375.179688-21.796875 1.183593-41.015625-4.855469-51.15625-12.9375 5.769531-1.113281 11.523437-2.324219 17.257813-3.617188.007812 0 .007812-.007812.015624-.007812 7.871094-1.78125 15.671876-3.800781 23.445313-5.941407.167969-.035156.347656-.015624.515625-.070312 1.175781-.328125 2.332031-.722656 3.507812-1.050781 5.523438-1.558594 11.015626-3.214844 16.472657-4.949219 1.230469-.394531 2.476562-.714844 3.707031-1.113281.078125-.027344.132812-.089844.214844-.125 7.683594-2.511719 15.3125-5.191407 22.882812-8.042969.070313-.023438.140625-.007812.214844-.035156.988281-.375 1.949219-.800782 2.929688-1.183594 5.722656-2.199219 11.414062-4.496094 17.070312-6.890625.96875-.417969 1.976562-.773437 2.945312-1.195313.097657-.042968.160157-.132812.261719-.175781 7.515625-3.25 14.984375-6.601562 22.355469-10.1875.011719 0 .019531 0 .027344-.007812l.027344-.011719c-3.292969 12.539062-15.058594 29.339844-33.941407 41.648438zm0 0"/><path d="m455.832031 255.867188c-5.019531-.132813-9.074219 3.597656-9.285156 8.503906-.402344 9.179687-1.472656 18.398437-3.164063 27.40625-.914062 4.835937 2.265626 9.484375 7.097657 10.402344.5625.105468 1.113281.160156 1.664062.160156 4.203125 0 7.933594-2.972656 8.738281-7.246094 1.859376-9.832031 3.027344-19.902344 3.460938-29.929688.214844-4.914062-3.597656-9.074218-8.511719-9.296874zm0 0"/><path d="m445.769531 236.8125c.464844 4.59375 4.328125 8.011719 8.851563 8.011719.292968 0 .59375-.015625.898437-.042969 4.898438-.496094 8.460938-4.859375 7.980469-9.75-1-9.972656-2.746094-19.964844-5.164062-29.695312-1.203126-4.765626-6.046876-7.632813-10.800782-6.492188-4.773437 1.195312-7.667968 6.027344-6.492187 10.800781 2.214843 8.902344 3.8125 18.039063 4.726562 27.167969zm0 0"/><path d="m273.878906 245.253906c-.125.027344-.238281.097656-.363281.125-1.097656.238282-2.148437.605469-3.128906 1.09375-.328125.167969-.613281.394532-.921875.589844-.742188.453125-1.453125.933594-2.09375 1.511719-.113282.105469-.257813.160156-.375.265625-.140625.132812-.1875.320312-.308594.464844-1.160156 1.230468-2.171875 2.609374-2.824219 4.238281-1.71875 4.300781-1.140625 9.136719 1.566407 12.917969 3.996093 5.601562 10.089843 10.625 17.683593 14.722656.1875.113281.304688.300781.5.40625 7.949219 4.242187 17.511719 7.394531 27.65625 9.117187.515625.089844 1.015625.136719 1.511719.136719.125 0 .234375-.0625.355469-.0625 5.664062.878906 11.523437 1.449219 17.605469 1.449219 2.671874 0 5.378906-.125 8.113281-.3125.078125 0 .148437.046875.230469.046875.230468 0 .472656-.011719.710937-.027344.757813-.0625 1.488281-.242188 2.238281-.3125 3.25-.3125 6.515625-.785156 9.8125-1.382812 1.300782-.238282 2.582032-.488282 3.871094-.773438 3.722656-.808594 7.453125-1.761719 11.175781-2.980469.175781-.0625.382813-.089843.558594-.152343l.261719-.082032v-.007812c9.375-3.132813 17.941406-7.355469 25.671875-12.242188.097656-.0625.214843-.082031.3125-.144531.175781-.105469.316406-.246094.496093-.363281 3.792969-2.441406 7.363282-5.050782 10.714844-7.792969.257813-.214844.523438-.425781.78125-.640625 3.464844-2.886719 6.660156-5.894531 9.609375-9.011719.132813-.132812.285157-.25.410157-.382812.035156-.042969.042968-.097657.085937-.140625 7.078125-7.589844 12.589844-15.664063 16.285156-23.597656.046875-.097657.125-.167969.179688-.265626.5625-1.222656 1.03125-2.421874 1.503906-3.632812.089844-.242188.207031-.480469.296875-.722656.59375-1.578125 1.109375-3.144532 1.558594-4.695313.035156-.132812.085937-.265625.125-.398437.425781-1.539063.773437-3.054688 1.050781-4.550782.027344-.152343.078125-.3125.105469-.464843.257812-1.484375.425781-2.9375.535156-4.378907.007812-.140624.042969-.292968.054688-.4375v-.019531l.035156-.96875c0-2.210937-.535156-4.300781-1.414063-6.199219-.164062-.347656-.347656-.660156-.527343-.988281-.382813-.6875-.808594-1.316406-1.289063-1.933593-.261719-.339844-.507813-.675782-.792969-.988282-.742187-.792968-1.542968-1.511718-2.433594-2.128906-.070312-.050781-.121093-.121094-.195312-.167969-.222656-.148437-.480469-.214843-.710938-.34375-.722656-.429687-1.46875-.800781-2.261718-1.105469-.367188-.140624-.730469-.265624-1.097656-.375-.800782-.238281-1.628907-.390624-2.472657-.480468-.3125-.035156-.625-.105469-.933593-.125-.089844 0-.179688-.035156-.277344-.035156-.1875 0-.347656.089843-.523438.089843-2.191406.027344-4.402344.445313-6.464844 1.484375-7.898437 3.964844-15.921874 7.640625-24 11.183594-5.867187 2.582031-11.851562 5.078125-17.886718 7.453125-9.769532 3.855469-19.652344 7.425781-29.636719 10.6875-6.472656 2.117187-13.070313 4.113281-19.695313 5.992187-14.289062 4.042969-28.75 7.550782-43.371093 10.363282zm88.171875 24.113282c-3.953125 1.316406-7.90625 2.359374-11.816406 3.152343-.523437.105469-1.066406.125-1.59375.222657-26.808594 4.921874-51.652344-1.878907-63.691406-11.472657 5.28125-1.011719 10.542969-2.109375 15.804687-3.292969.035156-.007812.0625-.035156.097656-.042968 8.550782-1.917969 17.027344-4.078125 25.457032-6.402344.152344-.039062.304687-.019531.445312-.066406.875-.238282 1.726563-.542969 2.609375-.792969 7.683594-2.171875 15.332031-4.449219 22.917969-6.960937.054688-.015626.109375-.027344.164062-.042969h.007813c8.359375-2.769531 16.644531-5.804688 24.863281-8.984375.132813-.046875.265625-.027344.390625-.074219.960938-.371094 1.890625-.808594 2.859375-1.191406 7.34375-2.894531 14.65625-5.902344 21.867188-9.117188.019531-.011719.027344-.011719.046875-.019531 5.4375-2.429688 10.851562-4.949219 16.222656-7.566406-.054687.222656-.097656.433594-.160156.667968-2.308594 8.148438-8.058594 17.949219-16.953125 27.175782-1.507813 1.558594-3.136719 3.007812-4.753906 4.460937-1.140626 1.023438-2.183594 2.082031-3.402344 3.082031-2.371094 1.929688-4.90625 3.710938-7.480469 5.449219-7.011719 4.675781-14.925781 8.8125-23.902344 11.816407zm0 0"/></svg>