<svg height="512pt" viewBox="-76 0 512 512" width="512pt" xmlns="http://www.w3.org/2000/svg"><path d="m64.117188 437.5h17.859374v17.859375h-17.859374zm0 0"/><path d="m90.902344 437.5h17.855468v17.859375h-17.855468zm0 0"/><path d="m117.6875 437.5h17.859375v17.859375h-17.859375zm0 0"/><path d="m144.472656 437.5h17.859375v17.859375h-17.859375zm0 0"/><path d="m171.261719 437.5h17.855469v17.859375h-17.855469zm0 0"/><path d="m198.042969 437.5h17.859375v17.859375h-17.859375zm0 0"/><path d="m224.832031 437.5h17.855469v17.859375h-17.855469zm0 0"/><path d="m251.617188 437.5h17.855468v17.859375h-17.855468zm0 0"/><path d="m278.402344 437.5h17.859375v17.859375h-17.859375zm0 0"/><path d="m340.902344 444.714844v-444.714844h-196.429688v62.5h-62.5v62.5h-62.5v319.714844l-19.472656 48.6875 4.417969 4.167968c10.0625 9.492188 28.5 14.429688 46.609375 14.429688 14.339844 0 28.472656-3.109375 38.070312-9.492188 18.152344 12.535157 42.582032 12.527344 60.734375.011719 18.140625 12.515625 42.5625 12.523438 60.710938 0 18.164062 12.523438 42.589843 12.523438 60.734375-.011719 9.488281 6.3125 23.4375 9.410157 37.625 9.472657 18.246094.082031 36.902344-4.847657 47.050781-14.417969l4.417969-4.171875zm-23.5-344.855469-71.679688 262.800781-206.617187-90.917968 49.109375-30.332032zm-47.929688-19.5v28.105469l-26.785156 16.546875v-.011719h-17.859375v-44.640625zm-44.640625-17.859375v-44.640625h44.640625v44.640625zm62.5 17.859375h27.652344l-27.652344 17.078125zm-80.359375 44.640625h-44.640625v-44.640625h44.640625zm0 17.855469v4.214843l-44.640625 27.570313v-31.785156zm-62.5 42.816406-2.953125 1.828125h-41.6875v-44.644531h44.640625zm-31.863281 19.683594-12.777344 7.894531v-7.894531zm-30.636719 18.921875-44.640625 27.570312v-46.492187h44.640625zm241.074219-161.777344h-35.714844v-44.640625h35.714844zm-160.714844-44.640625h44.640625v44.640625h-44.640625zm-62.5 62.5h44.640625v44.640625h-44.640625zm-17.859375 62.496094v44.644531h-44.640625v-44.644531zm119.484375 344.21875c-12.332031 9.1875-30.222656 9.1875-42.535156 0-5.359375-4.011719-12.832031-4.011719-18.191406 0-6.160157 4.597656-13.714844 6.890625-21.265625 6.890625-7.554688 0-15.109375-2.300782-21.269532-6.902344-5.367187-4-12.839843-4-18.179687.011719-1.4375 1.070312-3.179687 1.988281-5.070313 2.808593-.234374.097657-.4375.214844-.671874.304688-1.839844.75-3.855469 1.386719-5.988282 1.910156-.367187.089844-.734375.1875-1.101562.269532-2.140625.480468-4.390625.863281-6.710938 1.140624-.394531.046876-.789062.082032-1.1875.117188-2.394531.242188-4.839844.398438-7.324218.425781-.257813 0-.523438-.007812-.785157-.007812-2.480469 0-4.972656-.089844-7.4375-.304688-.175781-.015625-.363281-.015625-.550781-.035156-2.480469-.222656-4.902344-.582031-7.261719-1.027344-.375-.070312-.757812-.132812-1.125-.207031-2.257812-.464844-4.410156-1.027344-6.445312-1.675781-.367188-.117188-.722657-.242188-1.089844-.367188-2-.699219-3.875-1.484375-5.554687-2.367187-.105469-.0625-.203126-.125-.3125-.179688l15.894531-39.730468v-157.679688l210.6875 92.707031c1.179687.5 2.410156.75 3.632812.75 1.3125 0 2.625-.285156 3.851563-.875 2.347656-1.117187 4.085937-3.195312 4.765625-5.714843l62.8125-230.324219v301.117187l15.894531 39.742188c-.097656.054687-.1875.113281-.292969.167968-1.699219.902344-3.589843 1.695313-5.617187 2.394532-.320313.113281-.652344.222656-.980469.328125-2.074219.671875-4.269531 1.242187-6.574219 1.714843-.3125.066407-.644531.117188-.964844.179688-2.402343.457031-4.882812.820312-7.417968 1.046875-.117188.007813-.242188.007813-.359375.015625-2.535157.222656-5.105469.320312-7.667969.3125-.222656 0-.4375.011719-.660156.011719-2.492188-.027344-4.945313-.179688-7.359375-.429688-.390625-.042969-.792969-.082031-1.183594-.125-2.3125-.277343-4.554687-.652343-6.6875-1.132812-.386719-.089844-.761719-.1875-1.144531-.277344-2.117188-.527344-4.125-1.152344-5.945313-1.894531-.25-.105469-.472656-.222656-.714843-.328125-1.875-.824219-3.605469-1.734375-5.046876-2.804688-2.679687-2-5.890624-3-9.097656-3-1.605468 0-3.203125.25-4.742187.75-1.535157.5-3.007813 1.25-4.335938 2.257813-6.164062 4.597656-13.714843 6.890625-21.269531 6.890625s-15.109375-2.300781-21.269531-6.902344c-5.335938-3.984375-12.808594-3.984375-18.148438.027344zm0 0"/></svg>