<svg height="512pt" viewBox="0 -124 512.00066 512" width="512pt" xmlns="http://www.w3.org/2000/svg"><path d="m508.414062 192.511719c-12.234374-32.820313-32.5625-63.46875-58.796874-89.023438 2.277343-19.4375-6.65625-38.105469-26.207032-52.308593-28.28125-20.53125-66.539062-33.304688-93.972656-31.832032-.792969-1.15625-1.617188-2.292968-2.527344-3.371094-5.691406-6.804687-13.195312-11.605468-21.492187-14.070312 0 0-10.777344-1.90625-12.710938-1.90625 0 0-84.464843.113281-85.101562.160156l-9.242188 1.578125c-8.53125 2.410157-16.257812 7.265625-22.09375 14.238281-.882812 1.0625-1.683593 2.164063-2.460937 3.292969-27.300782-.988281-65.136719 11.828125-92.789063 31.917969-21.75 15.792969-30.417969 37.109375-25.078125 58.867188-23.402344 24.445312-41.046875 52.125-52.355468 82.464843-7.378907 19.789063-3.195313 41.523438 10.921874 56.703125 9.460938 10.167969 21.84375 15.605469 34.726563 15.605469 4.394531 0 8.851563-.625 13.265625-1.921875l93.714844-27.425781c17.222656 13.382812 34.125 21.832031 49.511718 21.832031 3.742188 0 7.398438-.496094 10.945313-1.527344 2.898437-.300781 5.71875-1 8.5-1.945312 6.859375 6.824218 16.226563 10.992187 26.402344 10.992187 10.347656 0 19.878906-4.289062 26.773437-11.324219 3.046875 1.121094 6.164063 1.941407 9.375 2.277344 3.546875 1.03125 7.195313 1.527344 10.9375 1.527344 16.003906 0 33.65625-9.074219 51.601563-23.429688l99.214843 29.023438c4.414063 1.289062 8.871094 1.921875 13.269532 1.921875 12.878906 0 25.261718-5.425781 34.726562-15.605469 14.136719-15.191406 18.320313-36.914062 10.941406-56.710937zm-226.078124-174.847657-11.574219 43.710938c-2.300781 8.695312-10.183594 14.769531-19.179688 14.769531-8.996093 0-16.878906-6.074219-19.179687-14.769531l-11.574219-43.710938zm-142.160157 204.109376-82.617187 24.175781c-10.984375 3.210937-21.945313.027343-30.121094-8.757813-7.476562-8.03125-13.320312-22.375-7.308594-38.503906 9.613282-25.792969 24.160156-49.582031 43.304688-70.871094.820312 1.359375 1.695312 2.726563 2.632812 4.066406 2.363282 3.425782 4.855469 6.992188 7.464844 10.65625 16.941406 23.816407 36.015625 48.082032 55.488281 68.1875.546875.566407 1.085938 1.113282 1.632813 1.667969 2.515625 2.570313 5.039062 5.058594 7.566406 7.46875.660156.609375 1.304688 1.289063 1.957031 1.910157zm74.113281 16.488281-2.023437.394531c-11.234375 3.65625-26.789063-2.425781-45.328125-16.992188l-3.316406-2.734374c-15.175782-12.492188-30.53125-28.988282-44.734375-46.140626-.488281-.589843-.980469-1.207031-1.476563-1.800781-2.921875-3.554687-5.789062-7.128906-8.585937-10.707031-.902344-1.15625-1.820313-2.339844-2.71875-3.511719-2.339844-3.027343-4.652344-6.046875-6.886719-9.03125-1.457031-1.941406-2.921875-3.945312-4.386719-5.949219-1.667969-2.277343-3.355469-4.554687-4.941406-6.769531-3.078125-4.289062-6.171875-8.652343-9.292969-13.179687-1.625-2.355469-2.949218-4.703125-4.097656-7.050782-.335938-.691406-.589844-1.378906-.890625-2.066406-7.523437-17.398437-2.136719-34.242187 15.789063-47.25 22.15625-16.101562 52.382812-27.355468 75.171874-28.671875-.035156.230469-.015624.46875-.050781.699219-.335937 2.125-.503906 4.289062-.53125 6.488281-.007812.652344.019531 1.304688.035157 1.957031.070312 2.382813.257812 4.777344.691406 7.195313v.035156l48.625 183.734375c.109375.398438.222656.796875.335937 1.195313-.460937.066406-.917969.121093-1.386719.15625zm20.882813.191406-.113281-.164063c-.601563-.917968-1.128906-1.863281-1.570313-2.84375-.433593-.972656-.804687-1.988281-1.085937-3.046874l-48.476563-183.035157c-.316406-1.773437-.398437-3.550781-.355469-5.316406.011719-.519531.0625-1.03125.109376-1.550781.09375-1.265625.296874-2.507813.570312-3.734375.132812-.566407.242188-1.128907.398438-1.6875.40625-1.386719.9375-2.734375 1.570312-4.050781.113281-.230469.175781-.476563.289062-.707032l.160157-.300781c.875-1.65625 1.90625-3.238281 3.132812-4.703125 3.460938-4.132812 8.050781-6.949219 13.089844-8.429688l12.449219 47.003907c4.351562 16.425781 19.25 27.902343 36.242187 27.902343 16.992188 0 31.902344-11.476562 36.242188-27.902343l12.4375-47.015625c5.039062 1.484375 9.640625 4.300781 13.101562 8.4375 1.171875 1.40625 2.144531 2.933594 3.007813 4.496094l.335937.660156c.34375.679687.582031 1.386718.867188 2.082031.300781.734375.636719 1.449219.863281 2.199219.265625.839844.433594 1.6875.617188 2.535156.179687.855469.335937 1.710938.433593 2.574219.082031.707031.152344 1.40625.167969 2.09375.035156 1.578125 0 3.167969-.265625 4.695312l-48.625 183.742188c-.496094 1.855469-1.308594 3.691406-2.4375 5.472656l-.539063.847656c-3.636718 5.164063-9.613281 8.449219-16.207031 8.449219-6.699219.011719-12.789062-3.378906-16.410156-8.703125zm56.980469.203125-2.03125-.394531c-.855469-.070313-1.710938-.1875-2.558594-.363281.097656-.328126.1875-.652344.273438-.980469l48.789062-184.449219c0-.007812 0-.015625 0-.027344.414062-2.339844.582031-4.667968.625-7 .007812-.484375.027344-.960937.015625-1.4375-.023437-2.332031-.226563-4.644531-.617187-6.929687-.007813-.070313-.007813-.152344-.015626-.222657 21.042969 1.023438 51.859376 10.804688 76.40625 28.628907 15.589844 11.324219 21.730469 25.535156 18.140626 40.488281-.109376.414062-.222657.839844-.335938 1.253906-.601562 2.1875-1.386719 4.378906-2.402344 6.59375-.160156.335938-.34375.671875-.511718 1.007813-1.148438 2.335937-2.464844 4.675781-4.078126 7.023437-3.105468 4.503906-6.1875 8.84375-9.25 13.117188-1.421874 1.976562-2.921874 4.015625-4.40625 6.046875-1.632812 2.230469-3.265624 4.457031-4.882812 6.621093-1.921875 2.566407-3.902344 5.152344-5.894531 7.757813-1.21875 1.578125-2.4375 3.160156-3.636719 4.695313-2.285156 2.921874-4.617188 5.835937-6.980469 8.746093-.980469 1.210938-1.96875 2.425781-2.949219 3.609375-2.613281 3.160156-5.269531 6.285156-7.953124 9.386719-.777344.890625-1.554688 1.816406-2.324219 2.691406-3.398438 3.863281-6.839844 7.679688-10.320313 11.351563-.007812.015625-.023437.023437-.042968.042968-3.652344 3.863282-7.34375 7.589844-11.050782 11.140626-.203125.191406-.386718.359374-.589844.554687-3.328124 3.179687-6.664062 6.179687-10 9.03125-21.238281 18.097656-38.972656 26.042969-51.417968 22.015625zm192.402344-1.464844c-8.15625 8.773438-19.109376 11.976563-30.109376 8.757813l-88.402343-25.863281c.65625-.625 1.296875-1.316407 1.953125-1.960938 2.054687-1.996094 4.105468-4.058594 6.152344-6.160156.941406-.96875 1.898437-1.914063 2.839843-2.902344 18.988281-19.84375 37.535157-43.535156 54.039063-66.761719 2.558594-3.589843 5.003906-7.078125 7.320312-10.433593 2-2.894532 3.671875-5.824219 5.152344-8.753907.089844-.179687.222656-.34375.308594-.523437 21.257812 22.363281 37.746094 48.425781 48.054687 76.082031 6.03125 16.144531.175781 30.488281-7.308593 38.519531zm0 0"/></svg>