<svg height="511pt" viewBox="0 0 511 511.99896" width="511pt" xmlns="http://www.w3.org/2000/svg"><path d="m502.539062 124.421875c-3.863281-3.078125-8.421874-4.332031-13.011718-3.667969-1.128906-.101562-3.269532-2.242187-3.378906-3.203125l.890624-6.230469c.824219-5.703124-1.5-11.925781-6.203124-16.621093-4.707032-4.703125-10.917969-7.050781-16.621094-6.210938l-6.074219.882813c-1.125-.101563-3.265625-2.234375-3.378906-3.203125l.894531-6.230469c.820312-5.703125-1.5-11.925781-6.207031-16.621094-4.703125-4.710937-10.910157-7.078125-16.617188-6.210937l-6.074219.882812c-1.125-.105469-3.265624-2.234375-3.378906-3.207031l.890625-6.230469c.824219-5.699219-1.496093-11.921875-6.203125-16.617187-4.703125-4.710938-10.933594-7.042969-16.617187-6.210938l-6.074219.882813c-1.125-.105469-3.269531-2.234375-3.378906-3.207031l.15625-1.089844c.667968-4.628906-.554688-9.070313-3.542969-12.832032-4.820313-6.074218-13.066406-8.824218-19.175781-9.359374-7.867188-.703126-15.15625 1.765624-21.109375 7.132812-6.722657 6.054688-10.5625 15.003906-11.964844 20.082031-4.140625 7.277344-26.84375 49.71875-36.132813 117.371094l-13.820312-13.820313c-15.152344-15.144531-38.773438-16.582031-55.6875-4.554687l-.441406-.589844-5.136719 5.144531-93.867187 93.882813c-16.886719 16.886719-16.886719 44.371094 0 61.257813l9.828124 9.828124c-26.339843 2.824219-74.449218 11.738282-114.417968 40.03125-17.519532 6.351563-27.257813 18.210938-26.089844 31.867188.546875 6.316406 3.363281 14.839844 9.636719 19.832031 3.855469 3.066407 8.402343 4.339844 13.015625 3.664063 1.125.105468 3.265625 2.234375 3.378906 3.207031l-.894531 6.230469c-.8125 5.710937 1.507812 11.921875 6.214843 16.628906 4.695313 4.703125 10.917969 6.957031 16.625 6.203125l6.046876-.894531c1.128906.105468 3.277343 2.246094 3.390624 3.214844l-.894531 6.222656c-.8125 5.703125 1.5 11.914062 6.207031 16.617187 4.695313 4.714844 10.933594 6.984375 16.636719 6.222657l6.046875-.894532c1.125.105469 3.273438 2.246094 3.386719 3.21875l-.890625 6.21875c-.824219 5.703125 1.496094 11.914063 6.195312 16.617188 4.703126 4.707031 10.917969 7.019531 16.636719 6.222656l6.0625-.890625c1.128907.101563 3.269531 2.234375 3.378907 3.203125l-.15625 1.09375c-.664063 4.636719.566406 9.082031 3.546874 12.839844 4.816407 6.066406 13.054688 8.8125 19.164063 9.351562.875.078125 1.734375.121094 2.589844.121094 6.785156 0 13.074219-2.417969 18.324219-7.070312 7.070312-6.273438 10.796874-15.3125 12.15625-20.257813 4.132812-7.269531 26.835937-49.71875 36.125-117.390625l12.617187 12.617188c8.449219 8.449218 19.539063 12.667968 30.628906 12.667968 11.097657 0 22.191407-4.21875 30.636719-12.667968l76.042969-76.042969 17.832031-17.828125c16.886719-16.890625 16.886719-44.375 0-61.261719l-8.625-8.621094c26.332031-2.824219 74.449219-11.738281 114.425781-40.03125 17.53125-6.324219 27.261719-18.1875 26.089844-31.859375-.53125-6.316406-3.347656-14.84375-9.632813-19.832031zm-214.03125 228.882813-111.28125-149.984376 40.289063-40.296874 10.824219-10.832032 111.28125 149.992188zm-127.589843 123.542968-1.144531 1.933594-.042969 1.265625c-.855469 2.9375-5.101563 15.207031-14.867188 14.589844-3.605469-.320313-6.6875-2.085938-7.089843-2.476563l.160156-1.09375c.820312-5.699218-1.5-11.921875-6.207032-16.617187-4.082031-4.089844-9.296874-6.367188-14.339843-6.367188-.769531 0-1.535157.058594-2.296875.164063l-6.054688.890625c-1.128906-.101563-3.269531-2.242188-3.390625-3.214844l.894531-6.222656c.8125-5.699219-1.5-11.910157-6.207031-16.617188-4.703125-4.703125-10.925781-7.007812-16.636719-6.21875l-6.046874.890625c-1.125-.105468-3.273438-2.242187-3.386719-3.214844l.890625-6.222656c.816406-5.699218-1.496094-11.914062-6.203125-16.617187s-10.910157-6.992188-16.636719-6.222657l-6.058594.894532c-1.125-.105469-3.265625-2.242188-3.378906-3.207032l.894531-6.230468c.824219-5.699219-1.5-11.914063-6.207031-16.617188-4.695312-4.722656-10.90625-7.027344-16.394531-6.179687-.96875-.464844-2.972657-3.804688-3.316407-7.859375-.722656-8.328125 12.71875-13.402344 15.421876-14.339844l1.492187-.519531 1.011719-.734375c45.90625-32.980469 106.324218-37.960938 121.4375-38.699219l9.589844 9.59375c-.976563.507813-1.886719 1.195313-2.640626 2.09375-11.039062 13.058594-18.492187 13.320313-33.316406 13.832031-5.292968.179688-11.300781.398438-18.230468 1.265625-4.75.585938-8.121094 4.921875-7.519532 9.667969.542969 4.382812 4.28125 7.589844 8.585938 7.589844.363281 0 .71875-.027344 1.082031-.070313 6.160156-.769531 11.507813-.953125 16.679687-1.132812 6.699219-.234375 13.015626-.539063 19.261719-2.082031-15.113281 20.128906-22.910156 47.363281-19.617187 73.675781.546875 4.386719 4.28125 7.589843 8.585937 7.589843.363281 0 .71875-.023437 1.082031-.066406 4.75-.589844 8.121094-4.925781 7.523438-9.671875-3.917969-31.296875 11.679688-65.277343 36.257812-79.03125 1.292969-.726562 2.230469-1.785156 2.972657-2.953125l9.480469 9.480469c-8.007813 77.105469-35.785157 124.597656-36.074219 125.082031zm113.238281-109.199218c-10.136719 10.125-26.625 10.136718-36.761719 0l-22.371093-22.375-50.777344-50.773438-20.726563-20.726562c-10.125-10.136719-10.125-26.617188 0-36.753907l21.308594-21.316406 111.289063 149.984375zm93.875-93.875-16.019531 16.023437-110.996094-149.605469c4.425781-3.066406 9.582031-4.652344 14.773437-4.652344 6.652344 0 13.308594 2.53125 18.375 7.597657l93.875 93.875c4.878907 4.878906 7.574219 11.402343 7.574219 18.378906 0 6.972656-2.695312 13.503906-7.582031 18.382813zm111.445312-113.707032-2.488281 1.25c-45.90625 32.992188-106.339843 37.964844-121.441406 38.703125l-9.410156-9.410156c1.125-.511719 2.164062-1.273437 3.023437-2.289063 11.039063-13.0625 18.480469-13.316406 33.304688-13.828124 5.304687-.183594 11.308594-.390626 18.238281-1.265626 4.75-.589843 8.121094-4.921874 7.523437-9.667968-.597656-4.75-4.992187-8.058594-9.671874-7.523438-6.160157.773438-11.515626.953125-16.6875 1.136719-6.699219.226563-13.007813.527344-19.253907 2.078125 15.113281-20.125 22.910157-47.359375 19.617188-73.664062-.589844-4.757813-5-8.078126-9.667969-7.519532-4.75.585938-8.121094 4.921875-7.523438 9.667969 3.910157 31.296875-11.679687 65.269531-36.261718 79.03125-1.425782.804687-2.40625 2.007813-3.160156 3.335937l-9.84375-9.859374c8.015624-77.109376 35.792968-124.597657 36.082031-125.085938l1.175781-1.984375.015625-1.246094c.902344-2.988281 5.3125-15.328125 14.851563-14.558593 3.597656.320312 6.691406 2.089843 7.089843 2.480468l-.15625 1.09375c-.824219 5.699219 1.496094 11.921875 6.203125 16.617188 4.699219 4.703125 10.898438 7.007812 16.617188 6.210937l6.074218-.882812c1.128907.105469 3.269532 2.234375 3.378907 3.207031l-.882813 6.238281c-.824218 5.699219 1.5 11.921875 6.207032 16.617188 4.703124 4.714843 10.917968 7.035156 16.617187 6.210937l6.074219-.882812c1.125.105468 3.265625 2.234375 3.378906 3.207031l-.894531 6.230469c-.824219 5.699218 1.5 11.921875 6.207031 16.617187 4.703125 4.703125 10.90625 7.050781 16.617188 6.210938l6.074218-.882813c1.125.105469 3.265625 2.234375 3.378906 3.207032l-.894531 6.230468c-.8125 5.710938 1.507813 11.921875 6.214844 16.625 4.703125 4.699219 10.941406 7.003906 16.394531 6.152344.96875.46875 2.972656 3.796875 3.308594 7.859375.722656 8.34375-12.726562 13.40625-15.429688 14.332031zm0 0"/></svg>