<svg height="512pt" viewBox="-6 0 512 512" width="512pt" xmlns="http://www.w3.org/2000/svg"><path d="m487.902344 379.992188c-3.894532-.210938-7.230469-.90625-10.199219-2.101563-7.9375-3.199219-14.144531-9.289063-17.488281-17.140625-3.347656-7.863281-3.4375-16.566406-.238282-24.488281 3.007813-7.460938 8.765626-13.496094 16.207032-16.949219l15.59375-7.25-14.734375-8.867188c-12.085938-7.273437-17.058594-22.003906-11.808594-35.039062 1.023437-2.546875 2.613281-5.082031 4.84375-7.703125l10.730469-12.652344-16.425782-2.324219c-3.601562-.507812-6.835937-1.351562-9.910156-2.59375-21.617187-8.710937-32.128906-33.382812-23.425781-55.011718 1.863281-4.644532 4.578125-8.933594 8.070313-12.742188l6.609374-7.214844-7.640624-6.105468c-10.496094-8.363282-21.882813-15.683594-33.851563-21.746094-23.949219-12.148438-49.582031-19.058594-75.589844-20.8125-22.640625-70.507812-87.378906-119.25-159.945312-119.25-93.019531 0-168.699219 77.910156-168.699219 173.683594 0 76.90625 49.207031 144.175781 120.355469 166.070312 1.570312 12.347656 4.265625 24.644532 8.226562 36.738282 16.324219 49.890624 51.097657 90.441406 97.929688 114.171874 27.953125 14.179688 58.199219 21.335938 88.660156 21.335938 15.199219 0 30.457031-1.808594 45.503906-5.402344.238281.019532.464844.082032.703125.082032 1.886719 0 3.683594-.636719 5.230469-1.707032 3.308594-.898437 6.617187-1.738281 9.898437-2.816406 49.894532-16.328125 90.445313-51.109375 114.183594-97.941406 1.546875-3.042969 2.863282-6.152344 4.167969-9.25l6.097656-14.269532zm-469.621094-206.308594c0-5.273438.265625-10.484375.769531-15.625 7.953125 5.128906 22.679688 12.71875 43.722657 15.550781.410156.046875.820312.074219 1.226562.074219 4.503906 0 8.425781-3.328125 9.046875-7.917969.675781-5.007813-2.84375-9.605469-7.84375-10.28125-1.390625-.195313-2.613281-.484375-3.941406-.722656 7.25-6.683594 11.867187-16.171875 11.867187-26.785157 0-5.054687-4.097656-9.140624-9.140625-9.140624-5.046875 0-9.144531 4.085937-9.144531 9.140624 0 10.085938-8.199219 18.285157-18.28125 18.285157-.347656 0-.640625.164062-.976562.191406-7.167969-3.621094-11.050782-6.875-11.253907-7.046875-.59375-.523438-1.289062-.796875-1.964843-1.144531 15.574218-68.648438 75.195312-119.976563 146.332031-119.976563 28.207031 0 55.085937 8.34375 78.136719 22.925782-.136719 4.699218-.894532 12.832031-3.902344 20.960937-31.042969-10.257813-34.609375-7.890625-37.753906-5.789063-4.195313 2.808594-5.328126 8.476563-2.53125 12.679688 2.203124 3.300781 6.179687 4.707031 9.828124 3.804688 3.136719.28125 11.308594 2.503906 20 5.199218-2.027343 1.785156-4.296874 3.382813-6.9375 4.664063-9.878906 2.4375-25.082031 10.613281-24.414062 27.332031.179688 4.917969 4.230469 8.773438 9.113281 8.773438.117188 0 .246094 0 .375-.007813 5.046875-.191406 8.96875-4.453125 8.765625-9.496094-.246094-6.164062 10.988282-8.960937 11.042969-8.96875l1.875-.613281c21.800781-9.871094 29.214844-30.769531 31.671875-45.980469 20.039062 16.992188 35.9375 39.289063 45.378906 65.167969-6.269531.199219-12.550781.695312-18.8125 1.507812-2.597656.328126-5.109375.886719-7.679687 1.316407-3.601563.613281-7.203125 1.132812-10.785157 1.957031-4.140624.929688-8.164062 2.148438-12.195312 3.335938-1.875.558593-3.777344.933593-5.640625 1.546874-.210937.0625-.402344.164063-.601563.226563-3.695312 1.226563-7.257812 2.707031-10.84375 4.140625-2.496093.988281-5.054687 1.863281-7.496093 2.945312-1.105469.492188-2.140625 1.105469-3.238281 1.617188-26.214844 12.222656-49.105469 29.910156-67.441407 51.949219-7.625-9.679688-19.296875-15.796875-32.066406-15.796875-22.679687 0-41.136719 18.457031-41.136719 41.136718 0 21.21875 16.207032 38.53125 36.855469 40.707032-.472656 1.46875-.949219 2.941406-1.390625 4.421875-1.148438 3.886719-2.066406 7.808593-2.96875 11.746093-.484375 2.125-1.03125 4.214844-1.453125 6.371094-.925781 4.726563-1.574219 9.480469-2.140625 14.253906-.171875 1.46875-.417969 2.914063-.558594 4.394532-.511718 5.324218-.730468 10.660156-.792968 16.007812-.011719.898438-.128907 1.757813-.128907 2.652344 0 .464844.019531.949219.019531 1.417969.007813 1.113281-.054687 2.21875-.027343 3.335937-59.789063-21.648437-100.542969-80.078125-100.542969-146.445312zm134.714844 31.261718c-.144532.222657-.308594.429688-.464844.660157-.476562.691406-.996094 1.351562-1.453125 2.054687-2.175781 3.328125-4.132813 6.8125-6.117187 10.285156-.308594.539063-.648438 1.058594-.949219 1.601563-.300781.53125-.636719 1.042969-.929688 1.570313-.660156 1.199218-1.328125 2.378906-1.957031 3.585937-.320312.621094-.714844 1.1875-1.035156 1.808594-1.160156 2.285156-2.046875 4.644531-3.105469 6.957031-.230469.492188-.476563.96875-.695313 1.46875-.394531.859375-.878906 1.691406-1.253906 2.550781-.859375.117188-1.671875.183594-2.46875.183594-12.59375 0-22.851562-10.246094-22.851562-22.851563 0-12.609374 10.257812-22.855468 22.851562-22.855468 8.777344 0 16.703125 5.167968 20.460938 12.964844-.03125 0-.03125.007812-.03125.015624zm218.859375 279.449219c-2.511719-14.726562-15.265625-30.269531-34.710938-40.121093-4.507812-2.304688-10.007812-.484376-12.285156 4.011718s-.484375 10 4.023437 12.285156c15.847657 8.042969 25.054688 20.523438 25.109376 28.832032-40.230469 8.992187-81.96875 3.835937-119.21875-15.03125-6.246094-3.160156-12.175782-6.753906-17.925782-10.566406 13.820313-4.167969 24.742188-15.292969 30.292969-23.960938 9.433594-17.6875 30.8125-15.582031 31.855469-15.429688 4.875.558594 9.527344-2.960937 10.148437-7.960937.609375-5.007813-2.953125-9.570313-7.964843-10.183594-1.425782-.191406-34.742188-3.914062-49.789063 24.335938-.667969 1.03125-16.609375 25.273437-36.765625 13.179687-1.289062-.769531-2.691406-1.078125-4.089844-1.167968-20.191406-19.773438-35.539062-44.179688-44.578125-71.8125-3.609375-11.042969-6.089843-22.277344-7.507812-33.550782l-.355469-3.785156c-.382812-3.71875-.648438-7.449219-.792969-11.179688-.089843-2.027343-.144531-4.003906-.15625-5.914062-.007812-1.105469.074219-2.203125.089844-3.308594.066406-4.992187.285156-9.945312.75-14.828125.136719-1.371093.355469-2.742187.519531-4.113281.523438-4.367188 1.152344-8.703125 1.984375-12.960938.394531-1.972656.886719-3.921874 1.34375-5.886718.832031-3.59375 1.710938-7.167969 2.75-10.667969.167969-.550781.378907-1.078125.539063-1.617187 7.746094 1.632812 15.789062 1.40625 23.519531-1.125 2.808594-.925782 5.484375-2.09375 8.007813-3.492188 2.863281 9.039062 9.207031 16.964844 18.3125 21.582031 1.324218.675781 2.730468.988281 4.121093.988281 3.335938 0 6.554688-1.832031 8.164063-5.011718 2.285156-4.496094.484375-10.007813-4.023438-12.285156-8.992187-4.5625-12.59375-15.585938-8.042968-24.570313 2.285156-4.5.484374-10.011719-4.019532-12.289063-4.507812-2.304687-10.011718-.480468-12.289062 4.015626-3.308594 6.546874-8.964844 11.386718-15.921875 13.664062-3.746094 1.234375-7.625 1.566406-11.4375 1.152344.722656-1.679688 1.472656-3.34375 2.242187-5.015625.941406-2.019531 1.882813-4.03125 2.898438-6.007813.59375-1.152344 1.160156-2.3125 1.773437-3.453125.929688-1.738281 1.929688-3.410156 2.90625-5.109375 1.363281-2.351562 2.757813-4.671875 4.222657-6.949218 1.371093-2.128907 2.796874-4.242188 4.257812-6.316407 2.542969-3.59375 5.101562-7.15625 7.890625-10.546875.191406-.238281.410156-.46875.601563-.695312 14.328124-17.222656 31.824218-31.703125 51.59375-42.542969 1.335937-.734375 2.734374-1.34375 4.097656-2.039063 3.582031-1.847656 7.183594-3.660156 10.894531-5.257812 2.769531-1.1875 5.640625-2.183594 8.484375-3.234375 2.578125-.960937 5.117188-2.003906 7.75-2.84375 1.707031-.550781 3.4375-.96875 5.144531-1.464844 3.585938-1.023437 7.1875-1.992187 10.863281-2.796875 1.699219-.375 3.398438-.695312 5.097657-1.023437 4.242187-.804688 8.53125-1.472657 12.871093-1.976563 1.007813-.117187 2.011719-.265625 3.027344-.355468 5.703125-.546876 11.4375-.875 17.242188-.875 1.078125 0 2.136718.082031 3.207031.152343 1.027344.074219 2.058594.148438 3.089844.175781l8.675781.28125c3.070312.257813 6.144531.59375 9.195312 1.015626-5.253906 20.328124 4.058594 42.339843 23.53125 52.207031 1.324219.675781 2.734376.984375 4.121094.984375 3.339844 0 6.554688-1.828125 8.164063-5.007813 2.285156-4.496093.484375-10.007812-4.019531-12.285156-12.058594-6.117187-17.589844-19.984375-13.75-32.5 13.132812 3.226563 26.007812 7.964844 38.375 14.226563 8.191406 4.148437 16.070312 8.949218 23.539062 14.304687-2.148438 3.273437-3.957031 6.738281-5.421875 10.367187-12.46875 30.96875 2.578125 66.316407 33.546875 78.796876.355469.144531.722656.28125 1.082031.421874-.15625.355469-.300781.703126-.449219 1.058594-6.855468 17.019532-3.117187 35.804688 8.675782 48.785156-6.105469 5.195313-10.886719 11.785157-13.933594 19.308594-5.015625 12.457032-4.882812 26.125.375 38.484375 5.265625 12.359375 15.019531 21.910157 27.480469 26.9375 1.125.457031 2.277343.859375 3.445312 1.226563-21.355469 42.097656-57.71875 73.378906-102.445312 88.335937zm0 0"/><path d="m340.226562 256.226562c4.964844-9.796874 5.824219-20.941406 2.40625-31.390624-3.421874-10.449219-10.695312-18.929688-20.496093-23.894532-20.230469-10.265625-45.03125-2.128906-55.285157 18.089844-10.257812 20.230469-2.140624 45.039062 18.089844 55.289062 5.847656 2.96875 12.183594 4.46875 18.566406 4.46875 4.296876 0 8.621094-.6875 12.824219-2.066406 10.4375-3.410156 18.929688-10.6875 23.894531-20.496094zm-16.308593-8.261718c-2.757813 5.449218-7.464844 9.488281-13.269531 11.390625-5.804688 1.890625-11.996094 1.417969-17.441407-1.335938-11.234375-5.695312-15.742187-19.480469-10.046875-30.714843 4.019532-7.933594 12.074219-12.511719 20.421875-12.511719 3.464844 0 6.992188.792969 10.292969 2.464843 5.449219 2.773438 9.488281 7.480469 11.390625 13.285157 1.886719 5.792969 1.414063 11.972656-1.347656 17.421875zm0 0"/><path d="m141.6875 127.976562c22.679688 0 41.136719-18.457031 41.136719-41.136718 0-22.679688-18.457031-41.132813-41.136719-41.132813s-41.132812 18.453125-41.132812 41.132813c0 22.679687 18.453124 41.136718 41.132812 41.136718zm0-63.988281c12.597656 0 22.855469 10.246094 22.855469 22.851563 0 12.609375-10.257813 22.855468-22.855469 22.855468-12.59375 0-22.851562-10.246093-22.851562-22.855468 0-12.605469 10.257812-22.851563 22.851562-22.851563zm0 0"/><path d="m264.273438 315.097656c-9.792969-4.972656-20.941407-5.8125-31.390626-2.414062-10.449218 3.421875-18.933593 10.695312-23.90625 20.496094-4.972656 9.800781-5.820312 20.941406-2.402343 31.390624 3.417969 10.449219 10.691406 18.933594 20.492187 23.894532 5.941406 3.019531 12.277344 4.445312 18.53125 4.445312 15.019532 0 29.515625-8.246094 36.753906-22.535156 10.269532-20.21875 2.152344-45.03125-18.078124-55.277344zm1.78125 47.015625c-5.695313 11.230469-19.472657 15.730469-30.714844 10.054688-5.449219-2.769531-9.488282-7.476563-11.390625-13.28125-1.898438-5.804688-1.425781-11.996094 1.335937-17.433594 2.761719-5.449219 7.46875-9.488281 13.273438-11.390625 2.339844-.757812 4.746094-1.140625 7.128906-1.140625 3.546875 0 7.058594.839844 10.3125 2.476563 11.242188 5.695312 15.75 19.476562 10.054688 30.714843zm0 0"/><path d="m382.667969 344.367188c-9.789063-4.972657-20.949219-5.820313-31.390625-2.414063-10.449219 3.421875-18.929688 10.695313-23.902344 20.496094s-5.824219 20.941406-2.40625 31.390625c3.421875 10.449218 10.695312 18.933594 20.496094 23.894531 5.941406 3.019531 12.277344 4.441406 18.527344 4.441406 15.019531 0 29.519531-8.242187 36.757812-22.53125 10.265625-20.21875 2.148438-45.027343-18.082031-55.277343zm1.785156 47.011718c-5.707031 11.234375-19.472656 15.742188-30.714844 10.058594-5.449219-2.769531-9.488281-7.480469-11.390625-13.285156-1.902344-5.804688-1.425781-11.992188 1.335938-17.429688 2.761718-5.449218 7.46875-9.488281 13.273437-11.390625 2.339844-.757812 4.742188-1.140625 7.128907-1.140625 3.546874 0 7.058593.839844 10.3125 2.476563 11.242187 5.703125 15.757812 19.480469 10.054687 30.710937zm0 0"/></svg>