<svg height="512pt" viewBox="-34 0 511 512" width="512pt" xmlns="http://www.w3.org/2000/svg"><path d="m442.359375 157.40625c-4.070313-15-13.789063-27.53125-27.351563-35.308594-13.566406-7.777344-29.308593-9.816406-44.292968-5.742187l-1.492188.414062-56.308594 38.90625c5.621094-7.554687 10.292969-18.71875 10.292969-39.515625 0-96.011718-50.121093-116.160156-92.167969-116.160156-86.332031 0-96.320312 66.640625-96.320312 116.773438 0 20.585937 8.292969 33.761718 13.949219 41.558593l-72.011719-45.691406-2.460938-1.078125c-31.027343-8.433594-63.199218 9.96875-71.644531 41.039062-8.390625 30.847657 9.71875 62.753907 40.394531 71.464844l52.800782 22.851563c18.007812 11.183593 45.351562 35.886719 32.019531 77.886719l-41.902344 73.144531c-27.980469 8.765625-45.371093 37.207031-39.972656 66.507812 5.078125 27.546875 29.914063 47.542969 59.070313 47.542969h16.285156c.628906 0 1.257812-.035156 1.878906-.082031l1.148438-.0625c.734374-.027344 1.453124-.0625 2.164062-.125 2.902344-.261719 5.867188-.773438 9.289062-1.625l1.695313-.449219c2.722656-.789062 5.480469-1.832031 8.167969-3.082031.851562-.386719 1.671875-.773438 2.515625-1.214844 2.398437-1.257813 4.695312-2.683594 6.871093-4.230469.980469-.691406 1.9375-1.390625 2.8125-2.109375 2.027344-1.632812 3.914063-3.40625 5.691407-5.273437.816406-.859375 1.625-1.714844 2.398437-2.632813 1.777344-2.117187 3.433594-4.425781 4.824219-6.707031l50.75-71.878906c3.53125-5.003906 11.625-5.003906 15.136719 0l49.644531 70.269531c.339844.574219.707031 1.097656.898437 1.265625 1.617188 2.621094 3.261719 4.929688 5.046876 7.050781.773437.917969 1.582031 1.769531 2.398437 2.621094 1.777344 1.878906 3.667969 3.648437 5.640625 5.238281.933594.761719 1.886719 1.464844 2.839844 2.136719 2.191406 1.5625 4.5 2.992187 6.917968 4.257813.832032.429687 1.648438.816406 2.449219 1.1875 2.730469 1.265624 5.488281 2.308593 8.167969 3.082031l2.214844.574219c2.949218.738281 5.914062 1.25 8.796875 1.507812.734375.066406 1.453125.101562 2.191406.128906l1.148437.0625c.628907.054688 1.246094.089844 1.886719.089844h16.285157c29.15625 0 54-19.996094 59.058593-47.542969 5.398438-29.308593-11.992187-57.75-39.972656-66.507812l-41.902344-73.144531c-13.140625-41.425782 13.480469-66.058594 31.007813-77.238282l40.742187-18.730468c14.671875-4.183594 26.921875-13.796876 34.566407-27.132813 7.773437-13.574219 9.820312-29.304687 5.742187-44.296875zm-418.476563 30.5625c-5.386718-9.40625-6.808593-20.292969-3.988281-30.660156 2.8125-10.355469 9.550781-19.03125 18.945313-24.421875 9.035156-5.183594 19.421875-6.699219 29.398437-4.304688l1.421875.910157-29.632812 74.078124c-6.667969-3.550781-12.269532-8.847656-16.144532-15.601562zm86.699219 202.984375 76.980469 38.488281-7.09375 10.050782-75.9375-37.96875zm46.035157 82.332031-.976563 1.382813c-1.0625 1.707031-2.203125 3.363281-3.503906 4.898437-.53125.628906-1.089844 1.210938-1.664063 1.8125-1.238281 1.304688-2.542968 2.523438-3.988281 3.695313-.609375.5-1.238281.949219-1.894531 1.417969-1.527344 1.089843-3.117188 2.074218-4.769532 2.9375-.558593.289062-1.105468.554687-1.714843.835937-1.824219.84375-3.710938 1.570313-5.714844 2.144531l-1.5.386719c-1.964844.496094-3.96875.855469-6.070313 1.035156l-19.863281.207031c-20.15625 0-37.960937-14.113281-41.390625-32.824218-3.765625-20.417969 8.503906-40.089844 28.042969-46.054688l78.382813 39.191406zm117.851562-38.246094 73.179688-43.90625 6.367187 11.15625-72.121094 43.265626zm120.050781 26.175782c-3.441406 18.710937-21.246093 32.820312-41.402343 32.820312l-16.949219-.035156-2.9375-.164062c-2.066407-.1875-4.078125-.546876-6.574219-1.164063l-1.007812-.269531c-1.957032-.566406-3.84375-1.292969-5.714844-2.148438-.5625-.261718-1.121094-.527344-1.660156-.808594-1.679688-.871093-3.261719-1.855468-4.816407-2.960937-.625-.449219-1.257812-.910156-1.921875-1.445313-1.390625-1.125-2.703125-2.355468-3.933594-3.65625-.566406-.59375-1.132812-1.175781-1.660156-1.804687-1.304687-1.539063-2.433594-3.179687-3.53125-4.941406-.289062-.476563-.609375-.917969-1.078125-1.535157l-9.054687-12.820312 74.835937-44.894531c19.160157 6.195312 31.125 25.632812 27.40625 45.828125zm-41.257812-229.71875-1.035157.566406c-17.765624 11.191406-57.082031 43.257812-38.722656 99.203125l25.242188 44.253906-74.671875 44.796875-12.808594-18.144531c-5.085937-7.210937-13.402344-11.523437-22.242187-11.523437-8.839844 0-17.148438 4.3125-22.25 11.535156l-8.757813 12.414062-78.507813-39.253906 24.308594-42.414062.746094-1.664063c18.621094-56.714844-21.746094-88.820313-39.964844-99.984375l-47.972656-20.855469 28.457031-71.148437 60.925781 38.660156 1.25.65625c5.773438 2.476562 12.378907 1.578125 17.253907-2.390625 4.851562-3.960937 7.058593-10.25 5.765625-16.375-.734375-3.503906-2.808594-6.304687-5.449219-9.855469-4.832031-6.503906-12.144531-16.3125-12.144531-33.207031 0-48.855469 9.304687-98.808594 78.351562-98.808594 49.933594 0 74.207032 32.121094 74.207032 98.195313 0 22.636718-6.261719 28.851562-10.835938 33.398437-2.613281 2.59375-5.585938 5.539063-6.589844 10.246094-1.347656 6.28125.914063 12.667969 5.898438 16.664063 4.957031 3.972656 11.632812 4.796874 17.417968 2.109374l47.992188-33.046874 33.910156 67.820312zm67.773437-38.722656c-2.980468 5.207031-7.042968 9.484374-11.777344 12.835937l-35.183593-70.371094 2.765625-1.902343c9.917968-2.308594 20.246094-.800782 29.238281 4.347656 9.402344 5.386718 16.132813 14.054687 18.945313 24.421875 2.820312 10.375 1.394531 21.261719-3.988282 30.667969zm0 0"/><path d="m229.042969 296.421875c-17.335938 0-31.4375 14.101563-31.4375 31.4375s14.101562 31.4375 31.4375 31.4375c17.335937 0 31.4375-14.101563 31.4375-31.4375s-14.109375-31.4375-31.4375-31.4375zm0 44.910156c-7.429688 0-13.472657-6.042969-13.472657-13.472656 0-7.425781 6.046876-13.472656 13.472657-13.472656 7.429687 0 13.472656 6.046875 13.472656 13.472656 0 7.429687-6.042969 13.472656-13.472656 13.472656zm0 0"/><path d="m229.042969 215.578125c-17.335938 0-31.4375 14.101563-31.4375 31.4375s14.101562 31.441406 31.4375 31.441406c17.335937 0 31.4375-14.105469 31.4375-31.441406s-14.109375-31.4375-31.4375-31.4375zm0 44.914063c-7.429688 0-13.472657-6.046876-13.472657-13.476563 0-7.425781 6.046876-13.472656 13.472657-13.472656 7.429687 0 13.472656 6.046875 13.472656 13.472656.003906 7.429687-6.042969 13.476563-13.472656 13.476563zm0 0"/><path d="m278.445312 71.859375c0 9.921875-8.042968 17.964844-17.964843 17.964844s-17.964844-8.042969-17.964844-17.964844 8.042969-17.964844 17.964844-17.964844 17.964843 8.042969 17.964843 17.964844zm0 0"/><path d="m215.570312 71.859375c0 9.921875-8.042968 17.964844-17.964843 17.964844s-17.964844-8.042969-17.964844-17.964844 8.042969-17.964844 17.964844-17.964844 17.964843 8.042969 17.964843 17.964844zm0 0"/><path d="m269.464844 107.789062c-4.96875 0-8.984375 4.015626-8.984375 8.984376 0 10.757812-15.566407 21.332031-31.339844 21.332031-16.210937-.171875-31.535156-10.535157-31.535156-21.332031 0-4.96875-4.015625-8.984376-8.984375-8.984376s-8.980469 4.015626-8.980469 8.984376c0 23.199218 25.5 39.054687 49.402344 39.296874 23.371093 0 49.402343-16.140624 49.402343-39.296874 0-4.96875-4.023437-8.984376-8.980468-8.984376zm0 0"/></svg>