<svg height="512pt" viewBox="-95 0 512 512.00475" width="512pt" xmlns="http://www.w3.org/2000/svg"><path d="m313.042969 172.265625c.695312-.875 1.457031-1.6875 2.074219-2.628906.824218-1.242188 1.449218-2.601563 2.136718-3.921875.480469-.949219 1.0625-1.832032 1.472656-2.816406.644532-1.546876 1.058594-3.191407 1.503907-4.828126.242187-.882812.597656-1.707031.785156-2.609374.519531-2.574219.804687-5.234376.804687-7.960938 0-2.566406-.292968-5.0625-.761718-7.492188-.140625-.769531-.382813-1.484374-.570313-2.234374-.414062-1.644532-.894531-3.265626-1.503906-4.828126-.320313-.824218-.675781-1.609374-1.054687-2.40625-.660157-1.402343-1.394532-2.742187-2.207032-4.058593-.484375-.785157-.957031-1.5625-1.492187-2.3125-.851563-1.183594-1.796875-2.273438-2.761719-3.355469-.660156-.742188-1.269531-1.507812-1.984375-2.199219-.804687-.777343-1.714844-1.429687-2.59375-2.136719-2.429687-1.984374-5.050781-3.707031-7.902344-5.085937-.132812-.0625-.25-.140625-.375-.203125-1.792969-.851562-3.679687-1.492188-5.613281-2.066406-.175781-.054688-.339844-.140625-.527344-.1875-11.898437-62.546875-67.355468-108.933594-131.558594-108.933594-64.199218 0-119.65625 46.386719-131.574218 108.933594-.179688.054687-.339844.140625-.527344.1875-1.929688.574218-3.816406 1.226562-5.613281 2.066406-.132813.0625-.25.140625-.375.203125-2.851563 1.386719-5.480469 3.113281-7.910157 5.097656-.867187.707031-1.777343 1.359375-2.585937 2.125-.714844.691407-1.320313 1.457031-1.984375 2.199219-.972656 1.085938-1.910156 2.175781-2.757812 3.355469-.539063.75-1.011719 1.527343-1.496094 2.3125-.8125 1.304687-1.542969 2.65625-2.199219 4.058593-.375.796876-.730469 1.582032-1.054687 2.414063-.605469 1.566406-1.089844 3.171875-1.5 4.820313-.1875.75-.421876 1.472656-.574219 2.242187-.464844 2.429687-.75781275 4.925781-.75781275 7.492187 0 2.726563.28515575 5.390626.80078175 7.964844.191406.910156.546874 1.742188.796874 2.628906.445313 1.625.851563 3.261719 1.492188 4.796876.414062.996093.992188 1.878906 1.484375 2.835937.679687 1.324219 1.304687 2.683594 2.128906 3.914063.617188.941406 1.386719 1.753906 2.074219 2.628906.875 1.117187 1.714844 2.261718 2.699219 3.273437.796875.8125 1.707031 1.5 2.574219 2.242188 1.054687.910156 2.074218 1.859375 3.21875 2.65625.949218.660156 1.984374 1.179687 2.984374 1.761719 1.210938.695312 2.386719 1.421874 3.675782 1.992187 1.0625.472656 2.191406.796875 3.308594 1.179687 1.339843.464844 2.65625.941407 4.058593 1.261719 1.160157.265625 2.359375.375 3.558594.535157 1.089844.152343 2.144531.429687 3.261719.492187 17.527344 40.082031 53.886718 68.921875 95.980468 77.671875v219.84375c0 14.785156 12.03125 26.816406 26.816407 26.816406 14.789062 0 26.820312-12.03125 26.820312-26.816406v-219.835938c42.101563-8.753906 78.449219-37.597656 95.980469-77.675781 1.117188-.0625 2.171875-.339843 3.261719-.492187 1.199219-.160156 2.398437-.277344 3.558593-.535156 1.394532-.320313 2.71875-.804688 4.058594-1.257813 1.109375-.386719 2.234375-.707031 3.296875-1.183594 1.289063-.570312 2.46875-1.292969 3.675781-1.992187 1.003907-.582032 2.039063-1.089844 2.976563-1.753906 1.144531-.800782 2.164063-1.742188 3.21875-2.652344.867187-.753906 1.777344-1.433594 2.574219-2.246094.996094-1.035156 1.828125-2.179688 2.703125-3.296875zm-143.1875 253.113281-17.878907 17.878906v-19.414062l17.878907-17.878906zm0-44.695312-17.878907 17.878906v-19.417969l17.878907-17.878906zm0-44.695313-17.878907 17.878907v-19.417969l17.878907-17.878907zm-8.941407 158.132813c-4.933593 0-8.9375-4.003906-8.9375-8.9375v-16.644532l17.878907-17.878906v34.523438c0 4.933594-4.003907 8.9375-8.941407 8.9375zm8.941407-202.828125-17.878907 17.878906v-41.335937c2.964844.195312 5.941407.339843 8.9375.339843 2.996094 0 5.972657-.132812 8.941407-.339843zm9.949219-42.613281-2.273438.320312c-3.011719.4375-5.828125.757812-8.554688.976562-2.671874.195313-5.355468.320313-8.0625.320313-2.707031 0-5.390624-.125-8.0625-.3125-2.726562-.21875-5.539062-.546875-8.554687-.976563l-2.269531-.320312c-35.703125-6-67.082032-28.675781-83.984375-60.957031h13.480469c4.941406 0 8.9375-3.996094 8.9375-8.9375 0-4.945313-3.996094-8.941407-8.9375-8.941407h-31.285157c-12.328125 0-22.347656-10.019531-22.347656-22.347656 0-1.484375.160156-2.933594.4375-4.324218.113281-.582032.332031-1.117188.492187-1.683594.222657-.785156.417969-1.570313.722657-2.324219.304687-.742187.699219-1.4375 1.082031-2.136719.261719-.480468.492188-.980468.789062-1.445312.546876-.851563 1.179688-1.644532 1.832032-2.414063.1875-.222656.367187-.464843.5625-.6875.851562-.914062 1.761718-1.761719 2.761718-2.523437.027344-.015625.054688-.042969.070313-.0625 3.199219-2.429688 7.097656-4.03125 11.398437-4.46875l2.671876-.285156h21.875c4.945312 0 8.941406-3.996094 8.941406-8.941407 0-4.941406-3.996094-8.9375-8.941406-8.9375h-14.617188c12.25-51.652343 59.046875-89.390625 112.949219-89.390625 53.902343 0 100.699219 37.738282 112.945312 89.390625h-5.675781c-4.945312 0-8.941406 3.996094-8.941406 8.9375 0 4.945313 3.996094 8.941407 8.941406 8.941407h12.933594l2.671875.265624c4.300781.4375 8.199219 2.039063 11.398437 4.46875.027344.019532.054688.046876.070313.0625.992187.761719 1.914062 1.609376 2.761719 2.523438.195312.214844.375.453125.5625.6875.664062.769531 1.289062 1.566406 1.835937 2.414062.292969.464844.523437.964844.785156 1.445313.382813.699219.777344 1.394531 1.082031 2.136719.304688.742187.5 1.539062.726563 2.324218.160156.566407.375 1.109376.492187 1.683594.273438 1.402344.4375 2.839844.4375 4.324219 0 12.328125-10.019531 22.347656-22.347656 22.347656h-40.226562c-4.945313 0-8.941406 3.996094-8.941406 8.941407 0 4.941406 3.996093 8.9375 8.941406 8.9375h22.417968c-16.90625 32.292968-48.28125 54.96875-83.984374 60.96875zm0 0"/></svg>