<svg height="512pt" viewBox="-108 0 512 512" width="512pt" xmlns="http://www.w3.org/2000/svg"><path d="m295.050781 147.523438c0-36.386719-13.3125-69.683594-35.234375-95.4375-.554687-.808594-1.160156-1.554688-1.910156-2.101563-27.046875-30.574219-66.445312-49.984375-110.382812-49.984375-81.34375 0-147.523438 66.179688-147.523438 147.523438 0 72.453124 52.535156 132.738281 121.492188 145.089843v193.351563c0 14.355468 11.679687 26.035156 26.035156 26.035156 14.355468 0 26.035156-11.679688 26.035156-26.035156v-193.351563c68.949219-12.351562 121.488281-72.636719 121.488281-145.089843zm-138.847656 280.386718-17.355469 17.355469v-18.847656l17.355469-17.355469zm0-43.390625-17.355469 17.355469v-18.847656l17.355469-17.355469zm0-43.390625-17.355469 17.359375v-18.847656l17.355469-17.359375zm0-46.382812v2.996094l-17.355469 17.355468v-20.351562c6.03125.40625 11.324219.40625 17.355469 0zm-8.679687 199.898437c-4.789063 0-8.675782-3.890625-8.675782-8.679687v-16.15625l17.355469-17.359375v33.515625c0 4.789062-3.886719 8.679687-8.679687 8.679687zm16.453124-218.101562-.171874.015625c-2.230469.277344-4.175782.441406-6.164063.625-3.347656.257812-6.699219.511718-10.117187.511718-3.417969 0-6.769532-.253906-10.121094-.511718-1.976563-.183594-3.929688-.347656-6.160156-.625l-.171876-.015625c-64.027343-8.132813-113.71875-62.820313-113.71875-129.015625 0-71.777344 58.394532-130.171875 130.171876-130.171875 39.257812 0 74.421874 17.539062 98.3125 45.109375 32.179687 57.429687 11.421874 135.671875-44.933594 168.09375-21.546875 12.398437-46.636719 15.679687-70.648438 9.195312-24.011718-6.460937-44.050781-21.890625-56.449218-43.449218-9.695313-16.835938-12.246094-36.4375-7.195313-55.191407 5.058594-18.761719 17.121094-34.425781 33.957031-44.121093 13.0625-7.503907 28.28125-9.492188 42.835938-5.578126 14.5625 3.921876 26.71875 13.277344 34.242187 26.355469 5.777344 10.046875 7.304688 21.757813 4.289063 32.957031-3.023438 11.195313-10.214844 20.550782-20.273438 26.339844-7.636718 4.390625-16.523437 5.542969-25.046875 3.253906-8.511719-2.300781-15.628906-7.769531-20.027343-15.40625-3.28125-5.710937-4.15625-12.355468-2.429688-18.71875 1.707031-6.359374 5.804688-11.679687 11.515625-14.960937 8.570313-4.964844 19.621094-1.988281 24.574219 6.628906 1.683594 2.933594 2.128906 6.335938 1.25 9.601563-.886719 3.269531-2.976563 5.988281-5.917969 7.6875-1.953125 1.109375-4.238281 1.386718-6.363281.824218-2.167969-.574218-3.972656-1.96875-5.085938-3.90625-2.382812-4.15625-7.6875-5.585937-11.84375-3.199218-4.15625 2.386718-5.597656 7.699218-3.203125 11.84375 3.4375 5.972656 8.972657 10.242187 15.621094 12.027344 6.648437 1.796874 13.582031.894531 19.535156-2.539063 6.960938-4.003906 11.933594-10.46875 14.023438-18.207031 2.082031-7.75 1.03125-15.839844-2.96875-22.789063-9.710938-16.886719-31.359375-22.726562-48.273438-13.015625-9.730469 5.605469-16.695312 14.648438-19.621093 25.496094-2.917969 10.835938-1.441407 22.171875 4.15625 31.898438 6.699218 11.652343 17.546874 20.003906 30.546874 23.507812 13 3.480469 26.5625 1.71875 38.21875-4.972656 14.066407-8.105469 24.140626-21.183594 28.375-36.863282 4.21875-15.679687 2.085938-32.054687-6.003906-46.132812-9.839844-17.085938-25.738281-29.320312-44.769531-34.449219-19.011719-5.121093-38.917969-2.535156-56.007813 7.289063-20.851562 12.011718-35.789062 31.40625-42.050781 54.644531-6.265625 23.242187-3.101562 47.519531 8.894531 68.375 20.417969 35.464844 57.65625 55.339844 95.90625 55.328125 18.667969 0 37.585938-4.730469 54.898438-14.683594 30.9375-17.8125 54.195312-49.238281 63.808594-86.222656 1.875-7.21875 3.039062-14.519531 3.816406-21.816406.253906 3.296875.503906 6.59375.503906 9.953125.003906 66.179687-49.6875 120.867187-113.714844 129zm0 0"/></svg>