<svg height="512pt" viewBox="-3 0 512 512.00152" width="512pt" xmlns="http://www.w3.org/2000/svg"><path d="m220.410156 328.078125c4.519532-6.5 7.703125-14.039063 9.019532-22.292969l8.53125-30.886718-30.886719 8.53125c-8.246094 1.308593-15.769531 4.492187-22.265625 9.003906-1.113282-8.738282-4.3125-17.285156-9.78125-24.824219l-15.800782-27.871094-15.804687 27.871094c-13.738281 18.925781-13.746094 44.136719 0 63.066406l12.324219 21.734375 4.683594 4.699219 21.785156 12.351563c9.46875 6.871093 20.507812 10.296874 31.53125 10.296874 11.035156 0 22.070312-3.425781 31.539062-10.296874l27.863282-15.800782-27.863282-15.8125c-7.554687-5.46875-16.113281-8.660156-24.875-9.769531zm-10.253906-27.699219 3.125-.800781-.796875 3.125c-2.378906 15.992187-14.730469 28.351563-30.722656 30.730469l-3.132813.796875.800782-3.132813c2.375-15.992187 14.726562-28.335937 30.726562-30.71875zm-52.582031-22.957031 1.644531-2.78125 1.644531 2.78125c9.628907 12.996094 9.628907 30.453125 0 43.449219l-1.644531 2.78125-1.644531-2.78125c-9.632813-12.988282-9.632813-30.453125 0-43.449219zm77.90625 77.898437c-13.015625 9.625-30.488281 9.605469-43.46875 0l-2.78125-1.644531 2.78125-1.652343c12.988281-9.613282 30.460937-9.613282 43.46875 0l2.78125 1.652343zm-58.246094-93.601562c1.679687 1.679688 3.882813 2.523438 6.085937 2.523438 2.203126 0 4.40625-.84375 6.085938-2.523438l30.203125-30.203125c3.367187-3.367187 3.367187-8.808594 0-12.171875-3.363281-3.367188-8.804687-3.367188-12.167969 0l-30.207031 30.207031c-3.367187 3.363281-3.367187 8.8125 0 12.167969zm28.792969 7.730469c1.679687 1.679687 3.882812 2.523437 6.085937 2.523437s4.40625-.84375 6.085938-2.523437l37.753906-37.761719c3.367187-3.367188 3.367187-8.804688 0-12.167969-3.367187-3.367187-8.808594-3.367187-12.171875 0l-37.753906 37.757813c-3.359375 3.355468-3.359375 8.804687 0 12.171875zm77.21875-16.363281-37.761719 37.761718c-3.363281 3.367188-3.363281 8.804688 0 12.171875 1.679687 1.679688 3.882813 2.519531 6.085937 2.519531 2.203126 0 4.40625-.84375 6.085938-2.519531l37.761719-37.761719c3.367187-3.367187 3.367187-8.808593 0-12.171874-3.363281-3.363282-8.804688-3.355469-12.171875 0zm-37.210938 12.722656c1.679688 1.679687 3.882813 2.519531 6.085938 2.519531s4.40625-.84375 6.085937-2.519531l33.984375-33.976563c3.367188-3.363281 3.367188-8.804687 0-12.167969-3.367187-3.367187-8.804687-3.367187-12.171875 0l-33.984375 33.972657c-3.367187 3.359375-3.367187 8.808593 0 12.171875zm34.441406 26.582031-30.207031 30.203125c-3.367187 3.367188-3.367187 8.808594 0 12.171875 1.679688 1.679687 3.882813 2.519531 6.085938 2.519531s4.40625-.84375 6.085937-2.519531l30.207032-30.207031c3.363281-3.363282 3.363281-8.804688 0-12.167969-3.367188-3.367187-8.816407-3.367187-12.171876 0zm-211.804687 53.546875 12.167969-12.171875 12.171875 12.171875-12.171875 12.171875zm18.273437 18.277344 12.171876-12.183594 12.179687 12.171875-12.171875 12.179687zm18.242188 18.238281 12.167969-12.171875 12.171875 12.171875-12.171875 12.171875zm18.253906 18.265625 12.171875-12.171875 12.171875 12.171875-12.171875 12.171875zm18.265625 18.257812 12.171875-12.171874 12.171875 12.171874-12.171875 12.167969zm30.429688 30.4375-12.171875-12.171874 12.171875-12.171876 12.171875 12.171876zm38.246093-321.933593c-10.546874 21.070312-24.335937 40.214843-40.992187 56.863281l-120.90625 120.921875-47.695313 21.71875-.574218 4.800781c-1.273438 10.667969 3.210937 22.65625 12.316406 32.898438 7.867188 8.851562 17.707031 14.636718 27.078125 16.089844.894531 8.109374 4.277344 15.40625 9.761719 20.890624 5.449218 5.441407 12.695312 8.808594 20.753906 9.71875.902344 8.074219 4.277344 15.3125 9.734375 20.761719 5.449219 5.457031 12.699219 8.824219 20.761719 9.738281.90625 8.074219 4.277344 15.3125 9.726562 20.769532 5.484375 5.476562 12.765625 8.847656 20.882813 9.746094 1.445312 9.363281 7.242187 19.195312 16.089843 27.078124 9.097657 8.074219 19.566407 12.523438 29.265626 12.523438 1.230468 0 2.4375-.066406 3.632812-.207031l4.820312-.574219 21.460938-47.445312 121.160156-121.164063c16.664063-16.664063 35.792969-30.445313 56.863282-40.980469l26.367187-13.179687-187.339844-187.34375zm17.894532 2.695312 153.535156 153.535157-5 2.503906c-22.734375 11.363281-43.367188 26.238281-61.339844 44.210937l-118.984375 118.984375-6.085937-6.085937-12.171875 12.171875 9.019531 9.019531-13.566406 29.992187c-4.765625-.851562-10.15625-3.660156-14.933594-7.910156-6.5-5.769531-10.683594-13.136718-10.675781-18.75.019531-3.246094-1.316407-6.445312-3.664063-8.785156-2.332031-2.324219-5.492187-3.652344-8.695312-3.652344-.050782-.007812-.101563-.007812-.144532 0-5.3125 0-9.832031-1.703125-13.058593-4.929687-3.253907-3.253907-4.957031-7.800781-4.941407-13.152344.019532-3.394531-1.253906-6.527344-3.570312-8.839844-2.296875-2.296875-5.414062-3.566406-8.78125-3.566406-.050781-.007813-.101562-.007813-.144531 0-5.3125 0-9.832031-1.703125-13.066407-4.9375-3.253906-3.253906-4.960937-7.800781-4.941406-13.152344.015625-3.382812-1.257812-6.515625-3.5625-8.824219-2.308594-2.308593-5.425781-3.570312-8.789062-3.570312-.015625 0-.035156 0-.050782 0-5.484374.28125-9.882812-1.6875-13.144531-4.933594-3.253906-3.253906-4.960937-7.800781-4.941406-13.152344.015625-3.21875-1.316406-6.40625-3.648437-8.746093-2.339844-2.339844-5.371094-3.570313-8.78125-3.664063 0 0-.007813 0-.015626 0-5.621093 0-12.980468-4.183594-18.75-10.675781-4.257812-4.792969-7.066406-10.183594-7.910156-14.941406l40.964844-18.664063-8.03125 8.015625 12.171875 12.167969 12.179687-12.167969-12.167968-12.171875-.371094.371094 119.34375-119.355469c17.964844-17.964843 32.839844-38.597656 44.21875-61.339843zm118.632812-120.25 11.992188 12.359375-102.632813 99.558594-11.988281-12.359375zm55.710938 257.75-12.492188-11.851562 94.246094-99.335938 12.492188 11.855469zm-.191406-255.503906-127.824219 127.824219-12.171875-12.171875 127.824218-127.824219zm36.53125 0-146.074219 146.074219-12.171875-12.171875 146.066406-146.074219zm24.335937 12.171875-152.160156 152.167969-12.171875-12.171875 152.160156-152.167969zm18.265625 18.257812-152.164062 152.167969-12.167969-12.171875 152.160156-152.167968zm-133.902344 170.433594-12.171875-12.171875 146.074219-146.074219 12.171875 12.171876zm18.253906 18.265625-12.167968-12.171875 139.988281-139.988281 12.167969 12.171875zm18.386719 18.195313-12.324219-12.023438 121.101563-124.132812 12.328125 12.023437zm0 0"/></svg>