<svg height="512pt" viewBox="-6 0 512 512.00024" width="512pt" xmlns="http://www.w3.org/2000/svg"><path d="m495.675781 12.039062c-14.628906-11.273437-33.640625-14.785156-53.566406-9.875-16.8125 4.140626-32.578125 13.917969-45.089844 27.839844-1.804687-1.445312-3.601562-2.890625-5.53125-4.269531-42.238281-30.148437-89.605469-25.890625-132.648437 11.421875l-141.460938 101.03125c-32.96875 23.554688-59.261718 51.035156-78.148437 81.679688-52.238281 84.816406-60.289063 202.671874 25.386719 263.828124 27.640624 19.71875 57.664062 28.304688 87.8125 28.304688 63.328124 0 127.109374-37.902344 169.949218-90.050781 22.835938-27.8125 40.289063-61.613281 51.851563-100.453125l49.269531-165.769532c17.710938-44.019531 13.210938-82.96875-12.253906-112.199218 9.972656-11.234375 22.300781-19.285156 35.496094-22.535156 14.085937-3.453126 27.25-1.191407 37.09375 6.402343 4.242187 3.269531 10.320312 2.472657 13.601562-1.765625 3.261719-4.230468 2.476562-10.320312-1.761719-13.589844zm-90.472656 137.304688-49.5625 166.625c-10.824219 36.347656-27.054687 67.863281-48.25 93.667969-57.527344 70.03125-155.484375 112.519531-231.488281 58.265625-75.996094-54.238282-67.664063-160.707032-20.140625-237.859375 17.519531-28.433594 42.042969-54.03125 72.902343-76.070313l142.15625-101.597656c16.148438-13.980469 37.871094-27.046875 62.695313-27.046875 14.667969 0 30.402344 4.570313 46.691406 16.191406 43.875 31.324219 37.976563 75.460938 24.996094 107.824219zm0 0"/><path d="m368.933594 57.3125c-30.742188-21.945312-55.578125-8.179688-75.8125 8.160156-22.738282 18.382813-46.886719 34.320313-67.507813 47.496094l-77.285156 49.414062c-26.777344 20.828126-48.5625 44.46875-64.773437 70.28125-45.226563 71.992188-57.363282 168.875 6.945312 214.777344 18.597656 13.269532 39.144531 19.109375 60.253906 19.109375 51.898438 0 107.183594-35.320312 145.125-82.351562 19.140625-23.726563 34.417969-52.023438 45.660156-84.949219l27.910157-114.632812c3.929687-16.164063 9.101562-32.75 15.8125-50.726563 9.941406-26.640625 14.839843-54.335937-16.328125-76.578125zm-1.84375 69.777344c-6.984375 18.691406-12.367188 36.011718-16.492188 52.929687l-27.667968 113.777344c-10.261719 29.9375-24.445313 56.246094-42.160157 78.210937-47.667969 59.097657-124.460937 98.570313-178.996093 59.628907-54.539063-38.929688-42.191407-124.375-1.796876-188.664063 15.007813-23.882812 35.28125-45.855468 59.523438-64.769531l76.550781-48.890625c21.078125-13.457031 45.789063-29.773438 69.273438-48.746094 22.03125-17.78125 35.222656-19.675781 52.34375-7.460937 17.453125 12.464843 19.832031 26.085937 9.421875 53.984375zm0 0"/><path d="m258.410156 212.320312c-40.265625-28.714843-118.6875 26.757813-146.257812 65.367188-30.539063 42.800781-25.785156 98.734375 10.601562 124.703125 12.273438 8.761719 26.765625 13.242187 42.140625 13.242187 7.0625 0 14.308594-.941406 21.605469-2.851562 22.5625-5.90625 43.03125-20.429688 57.621094-40.898438 14.765625-20.683593 27.433594-53.230468 32.292968-82.933593 6.019532-36.835938-.375-64.046875-18.003906-76.628907zm-1.140625 73.503907c-4.40625 26.988281-15.765625 56.351562-28.917969 74.785156h-.011718c-11.960938 16.773437-28.570313 28.636719-46.75 33.398437-17.539063 4.570313-34.425782 1.960938-47.542969-7.410156-27.6875-19.75-30.410156-63.550781-6.089844-97.640625 21.234375-29.753906 72.765625-65.09375 103.835938-65.09375 6.003906 0 11.242187 1.320313 15.355469 4.25 10.960937 7.832031 14.746093 29.40625 10.121093 57.710938zm0 0"/><path d="m152.265625 339.964844c0 8.035156-6.515625 14.550781-14.550781 14.550781-8.039063 0-14.550782-6.515625-14.550782-14.550781s6.511719-14.550782 14.550782-14.550782c8.035156 0 14.550781 6.515626 14.550781 14.550782zm0 0"/><path d="m191.320312 308.84375c0 8.039062-6.515624 14.550781-14.550781 14.550781-8.035156 0-14.550781-6.511719-14.550781-14.550781 0-8.035156 6.515625-14.550781 14.550781-14.550781 8.035157 0 14.550781 6.515625 14.550781 14.550781zm0 0"/><path d="m195.335938 362.269531c0 8.035157-6.515626 14.550781-14.550782 14.550781s-14.550781-6.515624-14.550781-14.550781c0-8.039062 6.515625-14.550781 14.550781-14.550781s14.550782 6.511719 14.550782 14.550781zm0 0"/></svg>