<svg height="511pt" viewBox="-42 1 511 511.99849" width="511pt" xmlns="http://www.w3.org/2000/svg"><path d="m426.472656 471.046875c-3.132812-15.820313-17.671875-27.3125-34.578125-27.3125l-23.109375-153.6875c14.355469-.964844 26.914063-10.246094 31.0625-23.226563 3.421875-10.734374 1.648438-21.992187-4.847656-30.898437-6.433594-8.796875-16.742188-14.054687-27.578125-14.054687h-8.960937c-4.128907-68.875-57.546876-121.019532-129.757813-127.335938 2.484375-.433594 5.847656-.664062 10.71875-.664062h115.199219c23.980468 0 36.070312-.070313 38.066406-19.320313 15.035156-5.214844 25.933594-19.363281 25.933594-36.148437 0-21.167969-17.230469-38.398438-38.398438-38.398438-21.171875 0-38.402344 17.230469-38.402344 38.398438 0 18.878906 13.714844 34.527343 31.691407 37.71875-4.207031.675781-12.464844.683593-18.890625.683593h-115.199219c-23.65625 0-31.199219 7.652344-33.351563 17.410157-75.757812 3.429687-132.632812 56.558593-136.890624 127.65625h-7.832032c-16.992187 0-31.550781 11.574218-34.621094 27.523437-2.011718 10.417969.519532 20.855469 6.9375 28.636719 5.933594 7.195312 14.773438 11.519531 25.183594 12.046875l-23.039062 153.660156h-.0625c-16.894532 0-31.445313 11.492187-34.574219 27.304687-2.015625 10.136719.550781 20.503907 7.0625 28.433594 6.539063 7.960938 16.152344 12.527344 26.386719 12.527344h358.398437c10.230469 0 19.847657-4.566406 26.382813-12.527344 6.507812-7.917968 9.082031-18.285156 7.070312-28.425781zm-67.585937-432.648437c0-11.765626 9.566406-21.332032 21.335937-21.332032 11.765625 0 21.332032 9.566406 21.332032 21.332032 0 11.769531-9.566407 21.335937-21.332032 21.335937-11.769531 0-21.335937-9.566406-21.335937-21.335937zm-145.066407 72.535156c69.890626 0 123.316407 47.113281 127.710938 110.933594h-255.421875c4.394531-63.820313 57.824219-110.933594 127.710937-110.933594zm192.390626 377.71875c-3.285157 3.984375-8.078126 6.28125-13.191407 6.28125h-358.398437c-5.113282 0-9.90625-2.296875-13.191406-6.28125-3.304688-4.027344-4.550782-9.089844-3.523438-14.285156 1.535156-7.730469 9.207031-13.570313 17.84375-13.570313h14.753906l25.546875-170.332031c.648438-4.371094-.621093-8.789063-3.507812-12.136719-2.882813-3.34375-7.054688-5.261719-12.320313-5.261719-5.496094 0-10.242187-2.101562-13.378906-5.90625-3.226562-3.890625-4.414062-9.0625-3.355469-14.550781 1.503907-7.796875 9.175781-13.675781 17.859375-13.675781h306.074219c5.410156 0 10.558594 2.644531 13.792969 7.054687 3.308594 4.523438 4.144531 10.089844 2.363281 15.652344-2.132813 6.722656-9.242187 11.425781-17.28125 11.425781-4.351563 0-8.472656 1.894532-11.308594 5.1875-2.832031 3.292969-4.085937 7.648438-3.4375 11.929688l25.59375 170.617187h14.753907c8.636718 0 16.308593 5.835938 17.84375 13.574219 1.019531 5.179688-.226563 10.25-3.53125 14.277344zm0 0"/><path d="m95.351562 307.199219-19.199218 153.597656h275.335937l-19.199219-153.597656zm221.867188 17.066406 6.402344 51.199219h-219.597656l6.398437-51.199219zm-221.730469 119.46875 6.402344-51.203125h223.863281l6.398438 51.203125zm0 0"/><path d="m188.222656 358.398438h42.664063c4.71875 0 8.535156-3.8125 8.535156-8.53125 0-4.722657-3.816406-8.535157-8.535156-8.535157h-42.664063c-4.722656 0-8.535156 3.8125-8.535156 8.535157 0 4.71875 3.8125 8.53125 8.535156 8.53125zm0 0"/><path d="m230.886719 409.597656h-42.664063c-4.722656 0-8.535156 3.816406-8.535156 8.535156s3.8125 8.53125 8.535156 8.53125h42.664063c4.71875 0 8.535156-3.8125 8.535156-8.53125s-3.816406-8.535156-8.535156-8.535156zm0 0"/><path d="m141.859375 146.679688c-9.414063 6.835937-16.527344 15.480468-21.152344 25.726562-1.945312 4.300781-.035156 9.351562 4.257813 11.289062 1.144531.523438 2.328125.761719 3.507812.761719 3.25 0 6.355469-1.871093 7.78125-5.019531 3.390625-7.507812 8.652344-13.875 15.636719-18.945312 3.804687-2.761719 4.65625-8.105469 1.890625-11.917969-2.765625-3.804688-8.082031-4.675781-11.921875-1.894531zm0 0"/><path d="m213.820312 128c-9.46875 0-18.507812.621094-26.84375 1.859375-4.660156.691406-7.886718 5.027344-7.195312 9.695313.625 4.230468 4.265625 7.285156 8.433594 7.285156.417968 0 .835937-.035156 1.253906-.09375 7.515625-1.117188 15.710938-1.679688 24.351562-1.679688 4.71875 0 8.535157-3.816406 8.535157-8.535156 0-4.714844-3.816407-8.53125-8.535157-8.53125zm0 0"/><path d="m222.355469 290.132812h51.199219c4.71875 0 8.53125-3.8125 8.53125-8.53125 0-4.722656-3.8125-8.535156-8.53125-8.535156h-51.199219c-4.722657 0-8.535157 3.8125-8.535157 8.535156 0 4.71875 3.816407 8.53125 8.535157 8.53125zm0 0"/><path d="m307.6875 290.132812h17.066406c4.71875 0 8.535156-3.8125 8.535156-8.53125 0-4.722656-3.816406-8.535156-8.535156-8.535156h-17.066406c-4.71875 0-8.535156 3.8125-8.535156 8.535156 0 4.71875 3.816406 8.53125 8.535156 8.53125zm0 0"/></svg>