<svg height="512pt" viewBox="0 -81 512.00048 512" width="512pt" xmlns="http://www.w3.org/2000/svg"><path d="m510.066406 278.875c-2.980468-5.804688-8.882812-9.398438-15.40625-9.398438h-9.835937c-4.164063-109.542968-84.09375-199.949218-188.785157-220.253906.152344-1.445312.386719-2.882812.386719-4.308594 0-24.765624-20.148437-44.914062-44.914062-44.914062s-44.914063 20.148438-44.914063 44.914062c0 1.425782.226563 2.875.386719 4.308594-104.703125 20.292969-184.628906 110.714844-188.796875 220.253906h-.851562c-6.523438 0-12.421876 3.59375-15.40625 9.398438-2.980469 5.800781-2.480469 12.691406 1.3125 18l20.300781 28.421875c11.191406 15.671875 29.371093 25.023437 48.621093 25.023437h367.675782c19.25 0 37.429687-9.347656 48.621094-25.023437l20.3125-28.421875c3.78125-5.308594 4.273437-12.207031 1.292968-18zm-285.449218-232.417969c-.035157-.519531-.054688-1.039062-.054688-1.542969 0-14.859374 12.089844-26.949218 26.949219-26.949218 14.855469 0 26.949219 12.089844 26.949219 26.949218 0 .511719-.019532 1.023438-.054688 1.542969-.421875-.042969-.84375-.0625-1.257812-.105469-3.089844-.34375-6.199219-.585937-9.324219-.800781-1.148438-.082031-2.289063-.199219-3.441407-.261719-4.273437-.242187-8.558593-.375-12.871093-.375s-8.605469.132813-12.863281.367188c-1.148438.0625-2.289063.179688-3.441407.261719-3.125.214843-6.230469.46875-9.320312.800781-.425781.050781-.847657.0625-1.269531.113281zm-5.386719 18.839844c4.804687-.71875 9.65625-1.242187 14.503906-1.636719.988281-.082031 1.976563-.152344 2.964844-.214844 9.863281-.664062 19.769531-.664062 29.636719 0 .984374.070313 1.976562.140626 2.960937.214844 4.851563.398438 9.691406.917969 14.507813 1.636719 100.703124 15.1875 178.824218 100.316406 183.101562 204.183594h-430.796875c4.285156-103.867188 82.398437-188.996094 183.121094-204.183594zm254.609375 249.554687c-7.832032 10.957032-20.542969 17.507813-34.007813 17.507813h-367.667969c-13.464843 0-26.175781-6.550781-34.007812-17.5l-19.582031-27.414063h474.847656zm0 0"/><path d="m251.386719 80.84375c-14.761719 0-29.445313 1.625-43.65625 4.824219-4.84375 1.085937-7.878907 5.890625-6.792969 10.734375.945312 4.175781 4.652344 7.003906 8.757812 7.003906.65625 0 1.320313-.070312 1.988282-.214844 12.914062-2.910156 26.273437-4.382812 39.703125-4.382812h.113281c4.960938 0 8.984375-4.015625 8.984375-8.976563.007813-5-3.980469-9.160156-9.097656-8.988281zm0 0"/><path d="m154.050781 106.886719c-46.746093 27.691406-80.769531 77.796875-91.027343 134.027343-.890626 4.886719 2.34375 9.554688 7.230468 10.445313.539063.109375 1.078125.152344 1.617188.152344 4.257812 0 8.039062-3.035157 8.828125-7.363281 9.332031-51.183594 40.179687-96.726563 82.515625-121.804688 4.265625-2.523438 5.675781-8.039062 3.152344-12.304688-2.542969-4.269531-8.042969-5.679687-12.316407-3.152343zm0 0"/></svg>