<svg height="511pt" viewBox="0 1 511 511.99847" width="511pt" xmlns="http://www.w3.org/2000/svg"><path d="m58.417969 418.46875c-3.445313-3.292969-8.925781-3.179688-12.21875.285156-7.363281 7.714844-16.9375 27.679688-.472657 48.066406 1.707032 2.109376 4.207032 3.207032 6.722657 3.207032 1.910156 0 3.828125-.625 5.425781-1.917969 3.714844-3.007813 4.292969-8.453125 1.289062-12.160156-10.5-12.996094-2.230468-23.332031-.425781-25.3125 3.257813-3.449219 3.121094-8.882813-.320312-12.167969zm0 0"/><path d="m419.78125 45.230469c-3.714844 3.007812-4.292969 8.445312-1.289062 12.152343 1.703124 2.117188 4.210937 3.214844 6.726562 3.214844 1.90625 0 3.828125-.625 5.425781-1.917968 13.023438-10.511719 23.359375-2.222657 25.320313-.425782 3.449218 3.234375 8.894531 3.09375 12.167968-.335937 3.292969-3.449219 3.171876-8.917969-.285156-12.21875-7.707031-7.34375-27.679687-16.914063-48.066406-.46875zm0 0"/><path d="m174.671875 367.1875c-4.769531 0-8.644531 3.863281-8.644531 8.644531v12.21875c0 4.777344 3.875 8.640625 8.644531 8.640625s8.640625-3.863281 8.640625-8.640625v-12.21875c0-4.773437-3.871094-8.644531-8.640625-8.644531zm0 0"/><path d="m150.222656 416.074219c-4.769531 0-8.644531 3.863281-8.644531 8.644531v12.21875c0 4.777344 3.875 8.640625 8.644531 8.640625 4.769532 0 8.640625-3.863281 8.640625-8.640625v-12.21875c0-4.773438-3.871093-8.644531-8.640625-8.644531zm0 0"/><path d="m199.109375 416.074219c-4.769531 0-8.640625 3.863281-8.640625 8.644531v12.21875c0 4.777344 3.871094 8.640625 8.640625 8.640625s8.644531-3.863281 8.644531-8.640625v-12.21875c0-4.773438-3.875-8.644531-8.644531-8.644531zm0 0"/><path d="m211.328125 354.96875c-4.769531 0-8.640625 3.863281-8.640625 8.640625v12.21875c0 4.78125 3.871094 8.644531 8.640625 8.644531s8.644531-3.863281 8.644531-8.644531v-12.21875c0-4.777344-3.863281-8.640625-8.644531-8.640625zm0 0"/><path d="m250.527344 333.058594v-12.226563c0-4.78125-3.871094-8.640625-8.640625-8.640625s-8.640625 3.859375-8.640625 8.640625v12.226563c0 4.78125 3.871094 8.644531 8.640625 8.644531s8.640625-3.863281 8.640625-8.644531zm0 0"/><path d="m254.105469 373.296875c-4.769531 0-8.640625 3.863281-8.640625 8.640625v12.21875c0 4.78125 3.871094 8.644531 8.640625 8.644531 4.773437 0 8.644531-3.863281 8.644531-8.644531v-12.21875c0-4.769531-3.871094-8.640625-8.644531-8.640625zm0 0"/><path d="m278.554688 324.417969c-4.769532 0-8.640626 3.863281-8.640626 8.644531v12.21875c0 4.777344 3.871094 8.640625 8.640626 8.640625 4.769531 0 8.644531-3.863281 8.644531-8.640625v-12.21875c-.003907-4.78125-3.875-8.644531-8.644531-8.644531zm0 0"/><path d="m290.773438 275.53125c-4.769532 0-8.640626 3.863281-8.640626 8.640625v12.21875c0 4.78125 3.871094 8.644531 8.640626 8.644531 4.773437 0 8.644531-3.863281 8.644531-8.644531v-12.21875c0-4.777344-3.871094-8.640625-8.644531-8.640625zm0 0"/><path d="m327.433594 312.191406c-4.769532 0-8.640625 3.859375-8.640625 8.640625v12.226563c0 4.78125 3.871093 8.644531 8.640625 8.644531 4.769531 0 8.640625-3.863281 8.640625-8.644531v-12.226563c0-4.78125-3.863281-8.640625-8.640625-8.640625zm0 0"/><path d="m437.4375 177.757812c-4.769531 0-8.644531 3.859376-8.644531 8.640626v12.21875c0 4.78125 3.875 8.640624 8.644531 8.640624s8.640625-3.859374 8.640625-8.640624v-12.21875c0-4.769532-3.871094-8.640626-8.640625-8.640626zm0 0"/><path d="m433.851562 149.730469v-12.21875c0-4.78125-3.871093-8.640625-8.644531-8.640625-4.769531 0-8.640625 3.859375-8.640625 8.640625v12.21875c0 4.78125 3.871094 8.640625 8.640625 8.640625 4.773438 0 8.644531-3.859375 8.644531-8.640625zm0 0"/><path d="m512.449219 66.542969c0-16.195313-6.273438-31.386719-17.65625-42.769531l-6.109375-6.109376c-11.390625-11.382812-26.582032-17.664062-42.777344-17.664062s-31.386719 6.28125-42.777344 17.664062c-.242187.242188-.476562.507813-.691406.777344l-15.867188 20.238282c-4.527343 5.78125-9.265624 11.382812-13.851562 17.113281-25.632812-10.871094-55.820312-5.503907-75.84375 14.5-8.761719 8.78125-15 19.757812-18.042969 31.757812-1.027343 4.0625-4.191406 7.21875-8.253906 8.246094-12.003906 3.042969-22.988281 9.28125-31.75 18.050781-8.765625 8.773438-15.011719 19.75-18.046875 31.753906-1.027344 4.070313-4.191406 7.222657-8.261719 8.253907-11.992187 3.039062-22.96875 9.28125-31.75 18.050781-8.761719 8.761719-15 19.738281-18.042969 31.75-1.027343 4.0625-4.191406 7.222656-8.253906 8.253906-12.011718 3.042969-22.996094 9.28125-31.75 18.050782-8.773437 8.765624-15.011718 19.738281-18.046875 31.742187-1.035156 4.070313-4.191406 7.234375-8.261719 8.261719-12.003906 3.050781-22.976562 9.28125-31.738281 18.046875-19.722656 19.71875-25.253906 49.601562-14.855469 75.046875-10.242187 8.148437-20.40625 16.382812-30.800781 24.34375-.300781.222656-.585937.484375-.863281.75-11.382812 11.382812-17.65625 26.574218-17.65625 42.769531s6.273438 31.386719 17.644531 42.769531l6.121094 6.117188c11.796875 11.789062 27.28125 17.691406 42.777344 17.691406 15.304687 0 30.609375-5.757812 42.351562-17.265625 7.113281-5.445313 14.15625-10.976563 21.183594-16.515625 11.535156 10.601562 26.183594 15.96875 40.875 15.96875 15.296875 0 30.582031-5.746094 42.320313-17.238281 97.765624-73.390625 184.832031-159.945313 258.808593-257.28125l4.839844-6.359375c11.113281-11.339844 17.222656-26.351563 17.222656-42.339844 0-15.382812-5.710937-29.816406-16.03125-40.980469l16.566407-21.03125c11.132812-11.363281 17.269531-26.390625 17.269531-42.414062zm-435.554688 248.179687c6.558594-6.558594 14.789063-11.234375 23.765625-13.507812 10.226563-2.582032 18.183594-10.535156 20.777344-20.765625 2.273438-8.976563 6.949219-17.195313 13.515625-23.765625 6.558594-6.566406 14.777344-11.242188 23.765625-13.507813 10.222656-2.589843 18.179688-10.558593 20.757812-20.765625 2.28125-8.988281 6.957032-17.207031 13.515626-23.773437 6.578124-6.566407 14.796874-11.242188 23.773437-13.507813 10.226563-2.59375 18.175781-10.550781 20.765625-20.765625 2.273438-8.988281 6.949219-17.207031 13.519531-23.773437 6.566407-6.566406 14.785157-11.242188 23.773438-13.507813 10.222656-2.601562 18.179687-10.550781 20.757812-20.757812 2.28125-8.988281 6.957031-17.207031 13.515625-23.785157 9.9375-9.929687 23.246094-15.113281 36.683594-15.113281 5.238281 0 10.5.804688 15.582031 2.410157-2.773437 3.40625-5.496093 6.863281-8.296875 10.25-5.167968 6.25-10.378906 12.464843-15.621094 18.648437-7.71875 9.121094-15.539062 18.140625-23.421874 27.121094-5.375 6.125-10.722657 12.269531-16.175782 18.328125-8.609375 9.574218-17.378906 19.011718-26.167968 28.433594-4.78125 5.113281-9.464844 10.316406-14.304688 15.390624-12.761719 13.394532-25.726562 26.582032-38.847656 39.625-6.359375 6.316407-12.855469 12.503907-19.304688 18.742188-7.640625 7.398438-15.289062 14.785156-23.046875 22.0625-7.035156 6.601562-14.148437 13.128906-21.277343 19.625-7.449219 6.792969-14.949219 13.535156-22.503907 20.222656-7.257812 6.429688-14.535156 12.851563-21.890625 19.175782-7.90625 6.804687-15.917968 13.492187-23.929687 20.171874-7.097657 5.917969-14.148438 11.90625-21.320313 17.730469-.433594.355469-.882812.691407-1.3125 1.039063-5.367187-18.011719-.648437-38.078125 12.953125-51.679688zm387.867188-113.21875c-.277344.277344-.535157.570313-.769531.890625l-5.175782 6.808594c-73.121094 96.21875-159.21875 181.765625-255.886718 254.273437-.328126.242188-.640626.519532-.925782.800782-16.84375 16.84375-44.261718 16.84375-61.105468 0l-6.023438-6.019532-12.316406-12.324218c-2.039063-2.03125-3.863282-4.289063-5.453125-6.679688-1.371094-2.078125-2.515625-4.296875-3.5-6.570312-.300781-.707032-.542969-1.433594-.8125-2.152344-.636719-1.71875-1.175781-3.472656-1.589844-5.269531-.171875-.753907-.359375-1.496094-.492187-2.25-.441407-2.496094-.742188-5.03125-.742188-7.621094 0-11.382813 4.320312-22.0625 12.183594-30.136719 6.121094-4.59375 12.410156-9.425781 18.925781-14.542968 10.035156-7.828126 19.972656-15.8125 29.796875-23.957032 4.382812-3.628906 8.851562-7.386718 13.441406-11.304687 20.558594-17.488281 40.605469-35.671875 60.128906-54.46875.890626-.855469 1.78125-1.675781 2.671876-2.542969.359374-.34375.714843-.707031 1.070312-1.050781 10.792969-10.476563 21.421875-21.148438 31.871094-31.992188 2.773437-2.871093 5.632812-5.800781 8.28125-8.59375 1.8125-1.917969 3.621094-3.835937 5.417968-5.761719.1875-.199218.378907-.390624.558594-.597656v7.222656c0 16.679688 13.570313 30.25 30.25 30.25 16.675782 0 30.246094-13.570312 30.246094-30.25v-6.550781c4.113281 1.46875 8.476562 2.230469 12.960938 2.230469 21.441406 0 38.890624-17.449219 38.890624-38.890625v-83.734375c1.113282-.238281 2.246094-.378906 3.371094-.535156.527344-.078125 1.050782-.1875 1.582032-.25 11.519531-1.148438 23.261718 2.375 32.628906 10.25.625.449218 1.316406 1.027344 2.179687 1.894531l14.605469 14.605469s.007812 0 .007812.007812l3.71875 3.714844c8.113282 8.125 12.589844 18.96875 12.589844 30.558594.007813 11.570312-4.460937 22.425781-12.585937 30.539062zm17.8125-104.402344c-.242188.242188-.476563.507813-.691407.777344l-15.460937 19.726563-7.777344-7.777344c-1.710937-1.703125-3.09375-2.824219-3.785156-3.292969-.078125-.058594-.164063-.109375-.242187-.179687-1.839844-1.53125-3.742188-2.921875-5.730469-4.210938-.34375-.222656-.679688-.4375-1.035157-.65625-1.859374-1.140625-3.761718-2.183593-5.722656-3.117187-.570312-.269532-1.140625-.519532-1.71875-.769532-1.808594-.789062-3.628906-1.515624-5.496094-2.117187-.824218-.269531-1.652343-.484375-2.492187-.71875-1.691406-.464844-3.386719-.917969-5.125-1.234375-1.078125-.210938-2.175781-.332031-3.273437-.46875-1.539063-.199219-3.078126-.414062-4.632813-.5-1.355469-.078125-2.714844-.027344-4.078125-.019531-1.339844.019531-2.671875-.015625-4.019531.085937-1.703125.132813-3.386719.425782-5.074219.703125-1.027344.164063-2.054688.25-3.085938.472657-2.71875.589843-5.425781 1.347656-8.085937 2.316406-3.40625 1.253906-5.671875 4.496094-5.671875 8.117187v90.203125c0 11.917969-9.695312 21.605469-21.605469 21.605469-5.804687 0-11.277343-2.34375-15.417969-6.578125-2.460937-2.519531-6.1875-3.300781-9.445312-1.96875-3.257812 1.320312-5.382812 4.492188-5.382812 8.003906v22.148438c0 7.148437-5.816407 12.960937-12.960938 12.960937-7.148438 0-12.964844-5.816406-12.964844-12.960937v-29.40625c0-3.578125-2.203125-6.785156-5.539062-8.074219-3.328125-1.261719-7.121094-.378906-9.511719 2.28125-6.863281 7.597656-13.820313 15.117187-20.855469 22.546875-1.304687 1.375-2.746094 2.84375-4.085937 4.234375-4.199219 4.398437-8.445313 8.746094-12.707031 13.085937-4.085938 4.144532-8.242188 8.339844-12.703126 12.753907-3.820312 3.785156-7.640624 7.5625-11.5 11.304687-4.019531 3.878906-8.039062 7.683594-12.058593 11.476563-2.4375 2.300781-4.882813 4.589843-7.328125 6.863281-4.035156 3.75-8.070313 7.492188-12.0625 11.09375-3.578125 3.242188-7.199219 6.4375-10.8125 9.644531-4.984375 4.417969-9.78125 8.601563-14.449219 12.636719-4.726563 4.0625-9.460937 8.105469-14.242187 12.097656-1.988282 1.660156-3.984376 3.328125-5.9375 4.941406-2.132813 1.765626-4.300782 3.464844-6.445313 5.222657-6.808594 5.539062-13.300781 10.722656-19.558594 15.648437-6.808593 5.324219-13.636719 10.628906-20.539062 15.808594-.328125.242188-.640625.515625-.925781.800781-11.382813 11.375-17.65625 26.566407-17.65625 42.769531 0 2.679688.234374 5.316407.570312 7.933594.078125.613282.175781 1.226563.269531 1.832032.847657 5.28125 2.375 10.378906 4.554688 15.195312.207031.449219.414062.898438.628906 1.339844 1.140625 2.367187 2.394531 4.683594 3.847656 6.894531.023438.035156.035157.078125.058594.105469.011719.007812.019531.015625.027344.035156.976562 1.476562 2.039062 2.894531 3.144531 4.285156.164062.210938.3125.441406.484375.648438 1.28125 1.558594 2.628906 3.0625 4.070313 4.503906l7.855468 7.855469c-6.550781 5.152343-13.117187 10.257812-19.746094 15.304687-.300781.234375-.585937.492188-.863281.761719-16.851562 16.84375-44.265625 16.84375-61.109375 0l-6.117187-6.117187c-8.113281-8.117188-12.589844-18.96875-12.589844-30.550782 0-11.398437 4.328125-22.089844 12.210937-30.160156 9.359376-7.164062 18.496094-14.605469 27.722657-21.925781l.105469.199219 8.042968-6.445313c2.03125-1.625 4-3.328125 6.023438-4.960937 8.246094-6.652344 16.386718-13.410157 24.519531-20.1875 7.421875-6.1875 14.8125-12.402344 22.148437-18.683594 8.027344-6.878906 16.011719-13.820313 23.929688-20.820313 7.277344-6.4375 14.492188-12.953125 21.671875-19.484375 7.753906-7.046875 15.496094-14.089844 23.136719-21.253906 7.363281-6.902344 14.613281-13.9375 21.871094-20.945312 7.234374-6.984376 14.519531-13.90625 21.65625-21.003907 9.359374-9.304687 18.539062-18.792969 27.714843-28.273437 9.152344-9.457032 18.210938-18.988282 27.171875-28.613282 8.953125-9.601562 17.898438-19.203124 26.660156-28.976562 5.808594-6.472656 11.46875-13.066406 17.191407-19.617188 7.714843-8.824218 15.417969-17.65625 22.96875-26.609374 5.800781-6.871094 11.511719-13.820313 17.222656-20.769532 4.113281-4.992187 8.332031-9.910156 12.402344-14.949218l6.402343-7.941407-.179687-.101562c3.898437-4.875 7.933594-9.636719 11.785156-14.554688l15.53125-19.808593c8.105469-7.886719 18.8125-12.234376 30.230469-12.234376 11.578125 0 22.433594 4.484376 30.558594 12.597657l6.109375 6.109375c8.113281 8.117187 12.589843 18.96875 12.589843 30.550781 0 11.585937-4.472656 22.429687-12.589843 30.554687zm0 0"/><path d="m365.535156 124.011719-8.640625 10.078125c-3.101562 3.628906-2.6875 9.082031.933594 12.183594 1.625 1.402343 3.628906 2.082031 5.617187 2.082031 2.4375 0 4.855469-1.019531 6.566407-3.015625l8.644531-10.074219c3.101562-3.632813 2.6875-9.085937-.933594-12.1875-3.613281-3.101563-9.074218-2.679687-12.1875.933594zm0 0"/><path d="m339.246094 154.691406-25.5625 29.8125c-3.101563 3.625-2.6875 9.074219.933594 12.179688 1.625 1.398437 3.628906 2.082031 5.617187 2.082031 2.4375 0 4.859375-1.023437 6.570313-3.027344l25.5625-29.8125c3.101562-3.621093 2.6875-9.074219-.933594-12.179687-3.621094-3.097656-9.074219-2.695313-12.1875.945312zm0 0"/></svg>