<svg height="512pt" viewBox="-43 0 512 512" width="512pt" xmlns="http://www.w3.org/2000/svg"><path d="m424.273438 154.015625c-.382813-.890625-1.003907-1.582031-1.59375-2.277344-6.953126-31.070312-27.878907-48.71875-43.953126-62.234375-2.394531-2.007812-4.714843-3.960937-6.917968-5.894531l-.183594-.164063c-3.273438-2.964843-3.824219-6.605468-3.699219-9.128906.214844-4.75 2.792969-9.425781 6.890625-12.5.339844-.25.578125-.589844.898438-.859375 1.175781-.976562 2.289062-2.011719 3.304687-3.152343.425781-.480469.828125-.976563 1.222657-1.484376.9375-1.199218 1.75-2.472656 2.492187-3.808593.28125-.503907.582031-.996094.824219-1.515625.703125-1.480469 1.246094-3.023438 1.6875-4.628906.125-.453126.320312-.890626.425781-1.351563.457031-2.058594.757813-4.183594.757813-6.375v-9.664063c-.003907-15.972656-13.007813-28.976562-28.984376-28.976562h-106.265624c-15.976563 0-28.980469 13.003906-28.980469 28.980469v9.660156c0 2.222656.308593 4.367187.78125 6.445313.117187.484374.300781.9375.445312 1.417968.464844 1.625 1.035157 3.199219 1.757813 4.695313.234375.476562.492187.917969.753906 1.382812.832031 1.488281 1.769531 2.886719 2.832031 4.203125.289063.347656.5625.703125.859375 1.042969 1.382813 1.542969 2.890625 2.957031 4.570313 4.183594.039062.027343.066406.066406.105469.09375 4.019531 2.890625 6.847656 7.371093 7.382812 11.707031.375 3.113281-.40625 5.835938-2.320312 8.097656-.53125.617188-1.128907 1.226563-1.746094 1.765625-2.136719 1.828125-4.378906 3.703125-6.6875 5.605469-5.765625 4.78125-12.0625 10.046875-18.132813 16.113281-5.929687-6.03125-12.054687-11.214843-17.601562-15.882812-2.394531-2.011719-4.722657-3.972657-6.925781-5.902344l-.191407-.164063c-3.265625-2.964843-3.816406-6.597656-3.699219-9.128906.210938-4.742187 2.792969-9.429687 6.886719-12.5.339844-.253906.582031-.589844.898438-.863281 1.179687-.976563 2.289062-2.007813 3.304687-3.148437.425782-.480469.832032-.976563 1.226563-1.488282.9375-1.195312 1.746093-2.472656 2.492187-3.804687.28125-.503907.578125-.996094.820313-1.519531.703125-1.476563 1.246093-3.023438 1.691406-4.625.125-.453126.316406-.890626.425781-1.355469.453125-2.054688.753906-4.183594.753906-6.375v-9.660157c-.003906-15.972656-13.007812-28.976562-28.984374-28.976562h-106.265626c-15.976562 0-28.980468 13.003906-28.980468 28.980469v9.660156c0 2.222656.308594 4.367187.78125 6.445313.117187.484374.300781.9375.445312 1.417968.453125 1.636719 1.023438 3.199219 1.75 4.695313.230469.476562.492188.917969.753906 1.382812.820313 1.488281 1.765626 2.886719 2.828126 4.203125.289062.347656.5625.703125.863281 1.042969 1.378906 1.542969 2.886719 2.957031 4.566406 4.183594.039063.027343.070313.066406.105469.09375 4.019531 2.890625 6.851562 7.371093 7.382812 11.707031.375 3.113281-.40625 5.835938-2.320312 8.097656-.53125.617188-1.128906 1.226563-1.746094 1.765625-2.203125 1.875-4.511719 3.789063-6.890625 5.761719-19.898437 16.449219-47.1601562 38.996094-47.1601562 84.449219v59.730469c-.0195313.296874-.0117188.589843 0 .890624v231.316407c0 25.464843 20.7226562 46.175781 46.1835932 46.175781h149.140626c6.152343 0 12.007812-1.253906 17.375-3.457031 5.527343 2.277343 11.226562 3.457031 17.023437 3.457031h149.144531c25.464844 0 46.175782-20.722656 46.175782-46.1875v-291.925781c0-4.335938-.308594-8.394531-.773438-12.328125.980469-2.335938 1.066406-5.03125-.007812-7.542969zm-18.613282 97.152344h-28.980468c-5.332032 0-9.660157 4.320312-9.660157 9.664062 0 5.339844 4.328125 9.660157 9.660157 9.660157h28.980468v48.300781h-48.300781c-5.332031 0-9.660156 4.316406-9.660156 9.660156s4.328125 9.660156 9.660156 9.660156h48.300781v19.320313h-28.980468c-5.332032 0-9.660157 4.320312-9.660157 9.660156 0 5.34375 4.328125 9.664062 9.660157 9.664062h28.980468v19.320313h-86.945312v-164.226563h86.945312zm-164.140625-222.1875c0-5.332031 4.335938-9.660157 9.660157-9.660157h106.265624c5.324219 0 9.660157 4.328126 9.660157 9.660157v9.660156c0 1.429687-.367188 2.804687-.957031 4.058594-.152344.328125-.414063.589843-.609376.910156-.539062.867187-1.175781 1.679687-1.988281 2.367187-1.691406 1.382813-3.769531 2.328126-6.105469 2.328126h-106.265624c-2.367188 0-4.453126-.949219-6.132813-2.367188-.339844-.28125-.675781-.5625-.964844-.878906-.660156-.726563-1.21875-1.519532-1.636719-2.414063-.09375-.214843-.164062-.445312-.25-.667969-.386718-1.042968-.675781-2.15625-.675781-3.335937zm-16.277343 91.222656c5.730468-5.882813 11.953124-11.039063 18.007812-16.054687 2.40625-1.988282 4.742188-3.921876 6.984375-5.851563 1.398437-1.21875 2.675781-2.503906 3.835937-3.867187 5.40625-6.367188 7.8125-14.519532 6.78125-22.960938-.164062-1.304688-.609374-2.558594-.929687-3.84375h89.640625c-.425781 1.910156-.859375 3.835938-.949219 5.804688-.425781 9.398437 3.09375 18 10.183594 24.460937l.261719.242187c2.296875 2.019532 4.734375 4.058594 7.226562 6.164063 14.414063 12.121094 30.195313 25.625 36.515625 48.203125-26.335937 9.980469-49.335937 12.027344-71.671875 6.347656-10.074218-2.570312-19.964844-6.222656-29.53125-9.75-20.816406-7.660156-42.378906-15.484375-67.730468-13.4375-.441407-1.023437-.894532-2.046875-1.378907-3.042968-.050781-.105469-.097656-.222657-.15625-.328126-2.105469-4.296874-4.472656-8.277343-7.042969-11.976562-.015624-.042969-.027343-.070312-.046874-.109375zm-167.269532-91.222656c0-5.332031 4.335938-9.660157 9.660156-9.660157h106.265626c5.324218 0 9.660156 4.328126 9.660156 9.660157v9.660156c0 1.429687-.367188 2.804687-.957032 4.058594-.152343.328125-.414062.589843-.609374.910156-.539063.867187-1.175782 1.679687-1.988282 2.367187-1.691406 1.382813-3.769531 2.328126-6.105468 2.328126h-106.265626c-2.367187 0-4.453124-.949219-6.132812-2.367188-.339844-.28125-.675781-.5625-.964844-.878906-.660156-.726563-1.21875-1.519532-1.636718-2.414063-.09375-.214843-.164063-.445312-.25-.667969-.386719-1.042968-.675782-2.15625-.675782-3.335937zm1.515625 75.34375c2.476563-2.050781 4.890625-4.039063 7.199219-6.03125 1.398438-1.214844 2.675781-2.5 3.835938-3.863281 5.40625-6.367188 7.8125-14.519532 6.78125-22.960938-.164063-1.304688-.609376-2.5625-.929688-3.847656h89.640625c-.433594 1.925781-.859375 3.847656-.949219 5.816406-.425781 9.410156 3.101563 18.007812 10.183594 24.460938l.261719.234374c2.296875 2.019532 4.734375 4.066407 7.234375 6.171876 9.21875 7.746093 19.042968 16.019531 26.578125 26.867187.105469.152344.191406.308594.296875.460937 1.625 2.378907 3.113281 4.898438 4.492187 7.535157.242188.453125.484375.917969.714844 1.371093 1.390625 2.820313 2.640625 5.796876 3.671875 8.976563.089844.28125.164062.558594.253906.839844 1.050782 3.339843 1.910156 6.867187 2.492188 10.664062.007812.078125.015625.164063.027344.242188.589843 3.949219.925781 8.140625.925781 12.636719v44.6875c-39.652344-13.214844-70.722657-6.480469-106.4375 8.742187-34.96875 14.925781-59.3125 15.03125-96.429688.210937v-53.652343c0-36.363281 21.328125-54 40.15625-69.5625zm-40.15625 361.5v-217.601563c17.757813 6.480469 33.347657 9.863282 48.59375 9.863282 17.714844 0 35.125-4.347657 55.410157-13.003907 40.003906-17.058593 65.894531-18.652343 98.863281-5.921875v226.644532c0 2.269531-.355469 4.480468-.925781 6.625-.09375.398437-.242188.761718-.355469 1.148437-.640625 2.019531-1.441407 3.992187-2.53125 5.808594-.011719.019531-.019531.039062-.03125.046875-2.460938 4.054687-6.027344 7.496094-10.414063 9.871094l-2.488281 1.355468c-3.132813 1.285156-6.542969 2.019532-10.117187 2.019532h-149.148438c-14.808594 0-26.855469-12.046876-26.855469-26.855469zm359.550781 26.855469h-146.132812c.964844-1.34375 1.777344-2.792969 2.597656-4.242188.550782-.957031 1.101563-1.902344 1.574219-2.898438.589844-1.246093 1.113281-2.511718 1.59375-3.808593.550781-1.457031.996094-2.945313 1.390625-4.453125.269531-1.050782.582031-2.085938.773438-3.167969.503906-2.703125.832031-5.449219.832031-8.25 0-.007813 0-.027344 0-.039063v-233.257812c0-.007812 0-.019531 0-.039062v-58.636719c0-4.886719-.367188-9.46875-.949219-13.851563-.054688-.417968-.085938-.851562-.144531-1.265625-.203125-1.390625-.460938-2.726562-.722657-4.066406 19.398438-.542969 36.851563 5.746094 55.207032 12.519531 10.027344 3.699219 20.394531 7.515625 31.445312 10.328125 9.890625 2.519531 19.8125 3.796875 29.945313 3.796875 15.699219 0 31.964843-3.1875 49.296875-9.351562.011718.65625.136718 1.214844.136718 1.882812v38.640625h-106.332031v202.867188h106.347657v50.417969c.003906 14.816406-12.050782 26.875-26.859376 26.875zm0 0"/></svg>