<svg height="512pt" viewBox="0 -66 512.00017 512" width="512pt" xmlns="http://www.w3.org/2000/svg"><path d="m510.875 325.414062c-1.878906-3.890624-5.734375-6.304687-10.058594-6.304687h-4.613281l-29.824219-163.996094c-1.136718-6.285156-1.957031-12.617187-2.769531-18.949219-.179687-1.421874-.378906-2.84375-.566406-4.269531l.015625-.230469c.042968-.761718.078125-1.519531.078125-2.296874 0-71.332032-92.859375-129.367188-206.988281-129.367188-114.128907 0-206.984376 58.035156-206.984376 129.371094 0 .773437.035157 1.53125.078126 2.292968l.015624.234376c-.191406 1.421874-.386718 2.84375-.570312 4.269531-.820312 6.328125-1.628906 12.667969-2.765625 18.949219l-29.835937 163.992187h-4.90625c-4.335938 0-8.203126 2.429687-10.074219 6.347656-1.871094 3.914063-1.335938 8.441407 1.371093 11.804688l22.664063 28.210937c7.160156 8.890625 17.8125 13.996094 29.230469 13.996094h403.46875c11.480468 0 22.175781-5.15625 29.324218-14.132812l22.398438-28.132813c2.691406-3.371094 3.191406-7.902344 1.3125-11.789063zm-32.203125-6.304687h-59.671875l-23.269531-186.160156c2.371093-17.792969 8.390625-25.046875 15.003906-27.824219 3.070313-1.285156 6.261719-1.621094 9.273437-1.621094 17.894532 0 23.632813 14.058594 25.296876 25.847656l.542968 4.082032c.222656 1.65625.449219 3.300781.664063 4.957031.863281 6.632813 1.714843 13.25 2.914062 19.820313zm-343.332031-197.296875.066406-1.066406c0-19.027344 15.472656-34.5 34.5-34.5 1.457031 0 2.835938.097656 4.136719.277344 15.5 2.128906 20.078125 16.308593 21.3125 26.933593l-8.203125 196.664063c-.050782 1.21875.164062 2.382812.578125 3.453125l-.234375 5.535156h-76.828125zm77.679687-1.066406v-17.25c0-18.578125 23.707031-34.5 43.121094-34.5 1.214844 0 2.441406.0625 3.683594.183594 18.558593 1.8125 39.34375 16.859374 39.4375 34.566406v17h.035156c0 .128906-.023437.234375-.023437.363281l8.253906 198h-102.761719zm111.773438 198.363281-.234375-5.539063c.414062-1.070312.628906-2.234374.578125-3.449218l-8.203125-196.640625c1.328125-11.523438 6.597656-27.234375 25.460937-27.234375 19.023438 0 34.496094 15.46875 34.496094 34.496094l10.230469 82.464843.007812-.050781v.015625l.027344-.179687 14.480469 116.109374h-76.84375zm-68.652344-301.859375c79.847656 0 148.332031 29.289062 176.285156 70.652344-.890625-.25-1.847656-.371094-2.761719-.570313-.722656-.15625-1.4375-.335937-2.191406-.449219-2.40625-.378906-4.878906-.636718-7.476562-.636718-2.511719 0-5.113282.179687-7.746094.628906-7.890625 1.34375-16.007812 5.0625-22.40625 13.253906-.035156-.085937-.09375-.160156-.136719-.257812-.855469-1.929688-1.855469-3.777344-2.925781-5.570313-.28125-.480469-.574219-.957031-.878906-1.433593-1.179688-1.835938-2.429688-3.621094-3.828125-5.285157-.0625-.070312-.128907-.136719-.199219-.207031-1.355469-1.605469-2.828125-3.089844-4.363281-4.511719-.414063-.386719-.828125-.757812-1.257813-1.128906-1.640625-1.433594-3.339844-2.785156-5.148437-4-.070313-.042969-.140625-.078125-.210938-.121094-1.757812-1.167969-3.621093-2.199219-5.527343-3.148437-.515626-.257813-1.023438-.5-1.550782-.742188-2.011718-.914062-4.054687-1.757812-6.195312-2.425781-.035156-.007813-.078125-.015625-.109375-.023437-2.105469-.648438-4.277344-1.113282-6.484375-1.484376-.570313-.09375-1.140625-.183593-1.71875-.257812-2.277344-.308594-4.585938-.527344-6.941406-.527344-13.109376 0-23.890626 5.078125-31.394532 14.101563-.007812-.015625-.023437-.042969-.042968-.0625-1.15625-2.050781-2.507813-4-3.957032-5.898438-.371094-.492187-.75-.964843-1.140625-1.4375-1.515625-1.855469-3.121093-3.667969-4.878906-5.347656-.035156-.035156-.070313-.0625-.105469-.097656-1.75-1.664063-3.640625-3.199219-5.585937-4.671875-.511719-.390625-1.019531-.761719-1.539063-1.132813-2.007812-1.429687-4.078125-2.800781-6.242187-4.015625-.027344-.019531-.0625-.027344-.085938-.042968-2.148437-1.207032-4.382812-2.25-6.632812-3.226563-.578125-.25-1.15625-.492187-1.742188-.726563-2.292969-.914062-4.621093-1.757812-6.96875-2.414062-.015625 0-.035156-.007812-.050781-.007812-2.34375-.65625-4.699219-1.121094-7.054688-1.492188-.597656-.09375-1.183593-.183594-1.777343-.257812-2.371094-.304688-4.734375-.519532-7.0625-.519532s-4.703125.214844-7.074219.519532c-.585938.078124-1.171875.164062-1.765625.257812-4.777344.757812-9.546875 2.101562-14.1875 3.957031-.507813.199219-1 .40625-1.511719.621094-4.75 2.035156-9.296875 4.597656-13.476562 7.609375-.261719.179688-.511719.371094-.761719.558594-4.355469 3.234375-8.253906 6.941406-11.523437 11.058594-.03125.039062-.066407.082031-.101563.128906-1.664063 2.101562-3.207031 4.285156-4.503906 6.578125-1.457031-1.742188-3.121094-3.207031-4.820313-4.636719-.484375-.40625-.871094-.933594-1.371094-1.320312-.570312-.429688-1.242187-.699219-1.835937-1.105469-6.503906-4.433594-14.308594-6.984375-23.320313-6.984375-2.363281 0-4.675781.214844-6.953124.527344-.574219.074218-1.136719.160156-1.707032.257812-2.222656.378906-4.414062.84375-6.535156 1.5-.027344.007812-.042969.007812-.070312.015625-2.136719.664063-4.191407 1.511719-6.207032 2.421875-.519531.242188-1.027344.484375-1.527344.734375-1.933593.964844-3.820312 2-5.609374 3.191406-.039063.027344-.082032.050781-.128907.078125-1.820312 1.214844-3.519531 2.585938-5.164062 4.019532-.425781.371093-.839844.742187-1.253907 1.128906-1.550781 1.4375-3.050781 2.949218-4.414062 4.578125-.042969.054687-.09375.097656-.136719.15625-1.398437 1.675781-2.648437 3.457031-3.828125 5.304687-.304687.476563-.597656.941406-.878906 1.421875-1.097656 1.839844-2.125 3.726563-2.984375 5.703125-.027344.050782-.050781.09375-.078125.144532-8.53125-10.960938-20.101562-13.925782-30.132812-13.925782-2.597657 0-5.074219.25-7.480469.636719-.75.121094-1.457031.300781-2.191407.449219-.914062.199218-1.871093.316406-2.757812.570312 27.996094-41.371094 96.492188-70.660156 176.328125-70.660156zm-193.273437 140.949219c1.199218-6.570313 2.050781-13.183594 2.914062-19.816407.214844-1.65625.441406-3.304687.664062-4.960937l.542969-4.078125c1.65625-11.789062 7.390625-25.847656 25.296875-25.847656 9.496094 0 20.785156 3.425781 24.261719 29.574218l-23.253906 186.039063h-59.671875zm410.808593 196.398437c-3.863281 4.855469-9.632812 7.632813-15.832031 7.632813h-403.472656c-6.164063 0-11.917969-2.75-15.78125-7.554688l-14.714844-18.320312h464.335938zm0 0"/><path d="m80.261719 164.332031c-4.699219-.757812-9.125 2.46875-9.867188 7.167969l-11.425781 72.410156c-.75 4.710938 2.464844 9.125 7.164062 9.867188.457032.078125.90625.109375 1.355469.109375 4.164063 0 7.839844-3.035157 8.503907-7.277344l11.429687-72.414063c.757813-4.710937-2.460937-9.128906-7.160156-9.863281zm0 0"/><path d="m94.285156 132.179688c.769532-4.707032-2.421875-9.140626-7.125-9.902344-4.777344-.757813-9.140625 2.441406-9.898437 7.125l-3.113281 19.128906c-.769532 4.710938 2.421874 9.144531 7.121093 9.902344.476563.078125.941407.109375 1.398438.109375 4.148437 0 7.8125-3.007813 8.503906-7.234375zm0 0"/><path d="m154.5625 143.847656c.386719.054688.765625.078125 1.144531.078125 4.261719 0 7.960938-3.148437 8.539063-7.484375l2.5625-19.214844c.628906-4.71875-2.691406-9.054687-7.410156-9.6875-4.769532-.648437-9.054688 2.691407-9.683594 7.410157l-2.5625 19.214843c-.628906 4.71875 2.683594 9.054688 7.410156 9.683594zm0 0"/><path d="m238.847656 130.1875c-4.757812-.34375-8.777344 3.5-8.960937 8.269531l-1.679688 41.667969c-.191406 4.757812 3.507813 8.769531 8.269531 8.960938.121094.007812.234376.007812.355469.007812 4.59375 0 8.425781-3.640625 8.605469-8.28125l1.683594-41.664062c.1875-4.75-3.519532-8.761719-8.273438-8.960938zm0 0"/><path d="m240.175781 87.609375c-.09375-.007813-.179687-.007813-.28125-.007813-4.632812 0-8.453125 3.679688-8.609375 8.347657l-.628906 19.371093c-.164062 4.757813 3.570312 8.742188 8.339844 8.890626.09375.007812.179687.007812.285156.007812 4.628906 0 8.449219-3.679688 8.605469-8.347656l.628906-19.371094c.15625-4.757812-3.570313-8.734375-8.339844-8.890625zm0 0"/><path d="m422.742188 117.121094c-4.734376.570312-8.097657 4.863281-7.539063 9.59375l2.320313 19.238281c.535156 4.382813 4.253906 7.601563 8.558593 7.601563.34375 0 .6875-.019532 1.035157-.0625 4.734374-.570313 8.097656-4.863282 7.535156-9.589844l-2.320313-19.242188c-.570312-4.734375-4.941406-8.125-9.589843-7.539062zm0 0"/></svg>