<svg height="512pt" viewBox="0 -26 512 512" width="512pt" xmlns="http://www.w3.org/2000/svg"><path d="m495.863281 240.429688c10.5625-15.140626 16.136719-32.632813 16.136719-50.585938 0-39.441406-26.9375-76.015625-68.632812-93.167969-15.386719-6.332031-27.238282-18.570312-31.710938-32.722656-11.382812-36.097656-37.273438-56.621094-79.15625-62.746094-34.839844-5.09375-67.558594 6.183594-85.375 29.445313-7.039062 9.199218-23.144531 12.894531-39.074219 9.003906-12.613281-3.070312-25.738281-4.703125-39.015625-4.8125-.476562 0-.9375-.007812-1.417968-.007812-58.914063 0-107.5625 31.503906-115.949219 75.28125-2.917969 15.222656-1.125 30.429687 5.339843 45.199218 7.648438 17.503906.703126 36.371094-18.609374 50.464844-24.753907 18.082031-38.398438 42.019531-38.398438 67.398438 0 33.671874 48.820312 57.640624 89.769531 71.816406 25.234375 8.71875 41.824219 25.554687 45.507813 46.039062l.214844 1.183594c7.839843 40.300781 50.253906 68.582031 101.835937 68.582031 1.730469 0 3.472656-.035156 5.230469-.101562 39.152344-1.433594 76.65625-17.996094 100.351562-44.304688 7.296875-8.097656 19.054688-12.613281 29.339844-11.113281 17.816406 2.542969 35.976562 1.1875 54.015625-4.101562 41.777344-12.230469 73.640625-45.644532 79.304687-83.160157 2.902344-19.214843-.738281-38.039062-10.535156-54.433593-4.359375-7.304688-4.046875-16.179688.828125-23.15625zm-7.167969 75.039062c-4.683593 31.078125-31.699218 58.929688-67.226562 69.324219-15.660156 4.589843-31.429688 5.8125-46.777344 3.59375h-.011718c-15.855469-2.28125-33.3125 4.238281-44.441407 16.585937-20.660156 22.9375-53.664062 37.402344-88.300781 38.675782-45.203125 1.765624-83.191406-21.335938-89.832031-55.503907-4.828125-26.871093-25.511719-48.484375-56.746094-59.289062-49.023437-16.953125-78.292969-37.773438-78.292969-55.679688 0-19.777343 11.152344-38.824219 31.402344-53.605469 25.839844-18.875 35.097656-46.113281 24.175781-71.089843-5.058593-11.546875-6.476562-23.367188-4.207031-35.140625 6.835938-35.738282 48.4375-61.433594 99.15625-61.433594.4375 0 .863281.007812 1.289062.007812 11.964844.113282 23.78125 1.570313 35.125 4.335938 22.664063 5.53125 45.449219-.578125 56.667969-15.195312 14.046875-18.347657 40.585938-27.121094 69.359375-22.949219 35.246094 5.15625 56.003906 21.359375 65.339844 50.996093 5.972656 18.933594 21.496094 35.140626 41.5 43.375 35.265625 14.503907 58.058594 44.882813 58.058594 77.378907 0 14.445312-4.511719 28.5625-13.0625 40.816406-8.765625 12.578125-9.335938 28.542969-1.484375 41.675781 7.734375 12.9375 10.613281 27.855469 8.308593 43.121094zm0 0"/><path d="m320 119.46875c-63.523438 0-115.199219 51.667969-115.199219 115.199219 0 63.527343 51.675781 115.199219 115.199219 115.199219s115.199219-51.679688 115.199219-115.199219c0-63.523438-51.675781-115.199219-115.199219-115.199219zm0 213.332031c-54.109375 0-98.132812-44.023437-98.132812-98.132812 0-54.113281 44.023437-98.136719 98.132812-98.136719s98.132812 44.023438 98.132812 98.136719c0 54.109375-44.023437 98.132812-98.132812 98.132812zm0 0"/><path d="m320 153.601562c-8.125 0-16.152344 1.203126-23.84375 3.566407-4.503906 1.390625-7.03125 6.167969-5.648438 10.667969 1.136719 3.667968 4.507813 6.023437 8.15625 6.023437.828126 0 1.671876-.121094 2.511719-.375 6.066407-1.871094 12.398438-2.816406 18.824219-2.816406 4.71875 0 8.53125-3.816407 8.53125-8.535157s-3.8125-8.53125-8.53125-8.53125zm0 0"/><path d="m267.765625 172.671875c-18.328125 15.453125-28.832031 38.042969-28.832031 61.996094 0 4.71875 3.8125 8.535156 8.535156 8.535156 4.71875 0 8.53125-3.816406 8.53125-8.535156 0-18.910157 8.304688-36.746094 22.765625-48.9375 3.601563-3.039063 4.0625-8.421875 1.027344-12.023438-3.039063-3.609375-8.414063-4.070312-12.027344-1.035156zm0 0"/><path d="m141.578125 81.859375c-1.921875-4.300781-6.949219-6.226563-11.265625-4.332031-17.996094 8.011718-32.664062 20.546875-43.578125 37.273437-2.585937 3.949219-1.46875 9.230469 2.472656 11.808594 1.433594.9375 3.054688 1.390625 4.652344 1.390625 2.78125 0 5.511719-1.355469 7.152344-3.863281 9.085937-13.929688 21.28125-24.355469 36.230469-31.011719 4.308593-1.921875 6.238281-6.972656 4.335937-11.265625zm0 0"/><path d="m167.6875 85.292969c11-1.050781 18.679688-.0625 18.867188-.042969.402343.058594.792968.085938 1.1875.085938 4.179687 0 7.839843-3.074219 8.4375-7.339844.660156-4.667969-2.59375-8.984375-7.261719-9.644532-.390625-.050781-9.648438-1.3125-22.882813-.039062-4.695312.449219-8.125 4.625-7.664062 9.316406.449218 4.683594 4.574218 8.105469 9.316406 7.664063zm0 0"/><path d="m220.808594 400.410156-1.273438.144532c-19.882812 2.175781-38.015625-11.382813-41.394531-30.933594-.804687-4.652344-5.222656-7.722656-9.855469-6.953125-4.652344.800781-7.757812 5.210937-6.957031 9.855469 4.558594 26.402343 27.640625 45.328124 54.050781 45.328124 2.03125 0 4.089844-.109374 6.160156-.339843l1.390626-.164063c4.679687-.578125 7.996093-4.847656 7.410156-9.523437-.589844-4.675781-4.804688-8.003907-9.53125-7.414063zm0 0"/><path d="m166.238281 357.136719c4.019531-2.457031 5.28125-7.703125 2.816407-11.730469-8.375-13.691406-19.082032-20.335938-19.542969-20.609375-4-2.492187-9.269531-1.195313-11.726563 2.824219-2.464844 4.019531-1.203125 9.269531 2.824219 11.726562.078125.050782 7.734375 4.914063 13.894531 14.976563 1.613282 2.628906 4.410156 4.078125 7.285156 4.078125 1.523438 0 3.058594-.410156 4.449219-1.265625zm0 0"/></svg>