<svg height="512pt" viewBox="0 -5 512.00032 512" width="512pt" xmlns="http://www.w3.org/2000/svg"><path d="m102.855469 259.25c-15.492188 0-28.105469 12.609375-28.105469 28.105469 0 15.496093 12.609375 28.105469 28.105469 28.105469 15.496093 0 28.105469-12.609376 28.105469-28.105469 0-15.503907-12.609376-28.105469-28.105469-28.105469zm0 37.472656c-5.171875 0-9.367188-4.199218-9.367188-9.367187 0-5.171875 4.195313-9.371094 9.367188-9.371094s9.367187 4.199219 9.367187 9.371094c0 5.167969-4.195312 9.367187-9.367187 9.367187zm0 0"/><path d="m504.292969 54.046875c-5.847657-8.789063-14.203125-15.175781-24.160157-18.449219-1.835937-.597656-3.136718-1.898437-3.738281-3.753906-3.269531-9.949219-9.648437-18.296875-18.453125-24.152344-16.742187-11.101562-39.355468-10.097656-55.019531 2.4375-11.859375 9.507813-18.238281 23.617188-17.519531 38.71875.535156 11.15625-2.847656 20.972656-9.507813 27.632813l-57.640625 57.640625-10.339844.160156c-16.011718.234375-30.960937 6.492188-42.101562 17.628906-36.167969 36.179688-84.152344 58.503906-138.765625 64.554688-32.480469 3.609375-63.039063 18.398437-86.074219 41.652344-52.941406 53.460937-54.832031 142.15625-4.199218 197.699218 26.765624 29.371094 63.320312 46.042969 102.925781 46.964844 1.152343.027344 2.296875.046875 3.449219.046875 38.34375 0 74.269531-14.867187 101.472656-42.074219 20.84375-20.84375 34.597656-47.136718 39.777344-76.066406 9.171874-51.152344 35.101562-99.28125 75-139.171875 2.59375-2.59375 4.9375-5.5 7.382812-9.140625l9.769531-14.585938h-28.617187c2.847656-1.722656 5.582031-3.671874 8-6.089843l79.589844-79.582031c6.652343-6.660157 16.300781-9.964844 27.644531-9.507813 15.214843.589844 29.199219-5.660156 38.710937-17.527344 12.539063-15.671875 13.523438-38.296875 2.414063-55.035156zm-238.347657 327.3125c-4.496093 25.15625-16.460937 48.011719-34.578124 66.140625-24.375 24.367188-56.507813 37.273438-91.246094 36.542969-34.433594-.796875-66.222656-15.304688-89.511719-40.855469-44.019531-48.289062-42.378906-125.398438 3.664063-171.890625 20.3125-20.507813 46.183593-33.03125 74.8125-36.207031 58.890624-6.53125 110.738281-30.710938 149.953124-69.933594 4.460938-4.449219 9.820313-7.765625 15.699219-9.808594l-18.6875 62.28125 32.902344-10.960937v33.835937h29.21875c-38.109375 40.957032-63 89.425782-72.226563 140.855469zm221.296876-284.007813c-5.707032 7.128907-14.203126 11.027344-23.195313 10.523438-16.601563-.769531-31.363281 4.53125-41.789063 14.980469l-79.582031 79.578125c-4.027343 4.039062-9.339843 6.324218-14.988281 6.625v-28.386719l-23.308594 7.777344 5.988282-19.945313 78.773437-78.773437c10.4375-10.425781 15.765625-25.265625 14.980469-41.78125-.441406-9.042969 3.390625-17.492188 10.511718-23.207031 9.214844-7.390626 23.070313-8.007813 32.9375-1.441407 4.679688 3.109375 8.121094 7.429688 10.21875 12.476563-9.460937 2.277344-18.15625 7.347656-24.742187 14.691406-3.457031 3.847656-3.136719 9.777344.710937 13.226562 1.789063 1.609376 4.03125 2.398438 6.257813 2.398438 2.558594 0 5.125-1.050781 6.96875-3.109375 5.464844-6.089844 13.265625-9.679687 21.417969-9.835937 1.28125-.03125 2.5-.308594 3.605468-.808594.777344.347656 1.480469.789062 2.296876 1.058594 5.917968 1.9375 10.894531 5.75 14.386718 11.015624 6.550782 9.867188 5.933594 23.722657-1.449218 32.9375zm0 0"/><path d="m248.707031 345.6875c-5.199219-.972656-9.96875 2.492188-10.867187 7.578125-1.753906 9.820313-4.824219 19.390625-9.144532 28.488281-2.21875 4.675782-.222656 10.257813 4.449219 12.476563 1.304688.609375 2.660157.910156 4.011719.910156 3.503906 0 6.867188-1.976563 8.46875-5.347656 5.03125-10.597657 8.617188-21.773438 10.660156-33.226563.910156-5.109375-2.492187-9.96875-7.578125-10.878906zm0 0"/><path d="m212.75 406.785156c-19.960938 24.207032-49.207031 41.0625-80.234375 46.242188-5.105469.851562-8.554687 5.675781-7.699219 10.773437.757813 4.578125 4.730469 7.828125 9.226563 7.828125.515625 0 1.019531-.035156 1.546875-.128906 35.429687-5.910156 68.835937-25.164062 91.617187-52.808594 3.296875-3.988281 2.726563-9.890625-1.273437-13.179687-3.980469-3.296875-9.902344-2.714844-13.183594 1.273437zm0 0"/></svg>