<svg height="511pt" viewBox="-44 0 511 511.99622" fill = 'white' width="511pt" xmlns="http://www.w3.org/2000/svg"><path d="m332.554688 216.03125v-25.222656c34.210937-20.351563 50.820312-60.152344 43.539062-105.308594-7.203125-44.660156-43.773438-79.527344-88.90625-84.78125-12.210938-1.410156-24.296875-.7109375-36.03125 2.09375-25.722656 6.167969-52.949219 6.175781-78.695312 0-13.929688-3.34375-28.320313-3.703125-42.753907-1.097656-42.105469 7.625-75.109375 41.101562-82.105469 83.320312-7.035156 42.457032 9.925782 82.84375 43.394532 104.121094v26.847656c-50.609375 4.300782-90.496094 46.796875-90.496094 98.5v161.5625h17.964844c0 19.816406 16.113281 35.929688 35.925781 35.929688 19.816406 0 35.929687-16.113282 35.929687-35.929688h242.523438c0 19.816406 16.113281 35.929688 35.925781 35.929688 19.816407 0 35.929688-16.113282 35.929688-35.929688h17.964843v-161.5625c.003907-51.566406-39.683593-93.988281-90.109374-98.472656zm-267.230469-128.050781c5.675781-34.207031 33.46875-62.402344 67.574219-68.570313 11.980468-2.164062 23.882812-1.878906 35.371093.886719 28.492188 6.828125 58.582031 6.835937 87.074219 0 9.675781-2.324219 19.707031-2.90625 29.75-1.730469 37.210938 4.335938 67.332031 33.042969 73.257812 69.800782 6.351563 39.316406-8.558593 73.492187-38.902343 89.183593-2.980469 1.546875-4.859375 4.625-4.859375 7.984375v30.054688h-205.628906v-30.402344c0-3.898438-2.09375-7.507812-5.460938-9.441406-29.6875-17.101563-44.3125-50.730469-38.175781-87.765625zm-10.933594 406.0625c-9.90625 0-17.964844-8.058594-17.964844-17.964844h35.929688c0 9.898437-8.054688 17.964844-17.964844 17.964844zm314.382813 0c-9.910157 0-17.964844-8.058594-17.964844-17.964844h35.925781c0 9.898437-8.054687 17.964844-17.960937 17.964844zm35.929687-35.929688h-386.238281v-26.945312h386.238281zm-386.238281-44.910156v-98.695313c0-44.644531 36.3125-80.960937 80.957031-80.960937h224.339844c44.640625 0 80.957031 36.316406 80.957031 80.960937v98.6875h-386.253906zm0 0"/><path d="m117.269531 287.449219h-8.984375v-17.964844c0-4.964844-4.015625-8.980469-8.980468-8.980469-4.96875 0-8.984376 4.015625-8.984376 8.980469v17.964844h-8.984374c-14.855469 0-26.945313 12.089843-26.945313 26.949219 0 14.855468 12.089844 26.945312 26.945313 26.945312h8.984374v35.929688c0 4.96875 4.015626 8.984374 8.984376 8.984374 4.964843 0 8.980468-4.015624 8.980468-8.984374v-35.929688h8.984375c14.855469 0 26.945313-12.089844 26.945313-26.945312 0-14.859376-12.082032-26.949219-26.945313-26.949219zm0 35.929687h-35.929687c-4.957032 0-8.984375-4.023437-8.984375-8.984375 0-4.957031 4.027343-8.980469 8.984375-8.980469h35.929687c4.957031 0 8.980469 4.023438 8.980469 8.980469 0 4.960938-4.023438 8.984375-8.980469 8.984375zm0 0"/><path d="m114.636719 123.136719 58.382812-58.382813c3.511719-3.511718 3.511719-9.191406 0-12.699218-3.511719-3.515626-9.1875-3.515626-12.699219 0l-58.386718 58.382812c-3.511719 3.511719-3.511719 9.1875 0 12.699219 1.753906 1.75 4.050781 2.632812 6.351562 2.632812 2.300782 0 4.597656-.882812 6.351563-2.632812zm0 0"/><path d="m119.898438 177.03125c1.753906 1.753906 4.054687 2.632812 6.351562 2.632812 2.300781 0 4.597656-.882812 6.351562-2.632812l125.753907-125.753906c3.511719-3.511719 3.511719-9.1875 0-12.699219-3.515625-3.511719-9.191407-3.511719-12.703125 0l-125.75 125.753906c-3.503906 3.5-3.503906 9.1875-.003906 12.699219zm0 0"/><path d="m164.8125 203.976562c1.75 1.753907 4.050781 2.632813 6.347656 2.632813 2.300782 0 4.601563-.882813 6.351563-2.632813l134.734375-134.734374c3.515625-3.511719 3.515625-9.1875 0-12.699219-3.511719-3.511719-9.1875-3.511719-12.699219 0l-134.734375 134.734375c-3.503906 3.503906-3.503906 9.1875 0 12.699218zm0 0"/><path d="m304.035156 123.910156-67.367187 67.367188c-3.511719 3.511718-3.511719 9.1875 0 12.699218 1.753906 1.753907 4.054687 2.632813 6.351562 2.632813 2.300781 0 4.597657-.882813 6.351563-2.632813l67.367187-67.367187c3.511719-3.511719 3.511719-9.1875 0-12.699219-3.511719-3.511718-9.191406-3.511718-12.703125 0zm0 0"/></svg>