<svg height="511pt" viewBox="0 -18 511.99986 511" width="511pt" xmlns="http://www.w3.org/2000/svg"><path d="m158.007812 39.0625c-3.511718-3.515625-9.1875-3.515625-12.699218 0l-98.804688 98.800781c-3.511718 3.515625-3.511718 9.191407 0 12.703125 1.753906 1.75 4.050782 2.628906 6.351563 2.628906 2.296875 0 4.597656-.878906 6.351562-2.628906l98.800781-98.804687c3.511719-3.511719 3.511719-9.199219 0-12.699219zm0 0"/><path d="m216.394531 70.5c-3.515625-3.515625-9.191406-3.515625-12.703125 0l-134.730468 134.730469c-3.515626 3.515625-3.515626 9.191406 0 12.703125 1.75 1.75 4.050781 2.628906 6.347656 2.628906 2.300781 0 4.601562-.878906 6.351562-2.628906l134.734375-134.734375c3.511719-3.511719 3.511719-9.199219 0-12.699219zm0 0"/><path d="m364.597656 380.382812c-3.511718-3.511718-9.1875-3.511718-12.699218 0l-53.890626 53.894532c-3.515624 3.511718-3.515624 9.191406 0 12.699218 1.75 1.753907 4.050782 2.632813 6.347657 2.632813 2.300781 0 4.601562-.882813 6.351562-2.632813l53.894531-53.890624c3.507813-3.511719 3.507813-9.199219-.003906-12.703126zm0 0"/><path d="m364.597656 290.5625c-3.511718-3.511719-9.1875-3.511719-12.699218 0l-134.734376 134.734375c-3.511718 3.511719-3.511718 9.1875 0 12.699219 1.753907 1.75 4.054688 2.628906 6.351563 2.628906 2.300781 0 4.597656-.878906 6.351563-2.628906l134.734374-134.734375c3.507813-3.511719 3.507813-9.195313-.003906-12.699219zm0 0"/><path d="m108.605469 280.808594 224.554687-224.554688c3.515625-3.511718 3.515625-9.191406 0-12.699218-3.511718-3.515626-9.1875-3.515626-12.699218 0l-224.554688 224.550781c-3.515625 3.511719-3.515625 9.191406 0 12.699219 1.75 1.753906 4.050781 2.632812 6.351562 2.632812 2.296876.003906 4.597657-.878906 6.347657-2.628906zm0 0"/><path d="m400.527344 74.988281c-3.511719-3.511719-9.1875-3.511719-12.699219 0l-287.429687 287.429688c-3.515626 3.515625-3.515626 9.191406 0 12.703125 1.75 1.75 4.050781 2.628906 6.347656 2.628906 2.300781 0 4.601562-.878906 6.351562-2.628906l287.429688-287.429688c3.511718-3.511718 3.511718-9.199218 0-12.703125zm0 0"/><path d="m427.476562 137.863281c-3.515624-3.511719-9.191406-3.511719-12.703124 0l-287.429688 287.433594c-3.511719 3.511719-3.511719 9.1875 0 12.699219 1.75 1.75 4.050781 2.628906 6.351562 2.628906 2.296876 0 4.597657-.878906 6.347657-2.628906l287.433593-287.429688c3.507813-3.511718 3.507813-9.199218 0-12.703125zm0 0"/><path d="m510.050781 121.785156c-10.078125-62.578125-59.132812-110.695312-122.070312-119.75-13.042969-1.867187-26.363281-1.929687-39.601563-.25-18.441406-2.335937-36.738281-1.320312-54.417968 3.179688-36.933594 9.398437-75.96875 9.398437-112.90625-.007813-18.519532-4.707031-37.707032-5.695312-57.027344-2.921875-62.300782 8.949219-111.261719 56.464844-121.832032 118.234375-7.988281 46.660157 6.042969 92.722657 38.488282 126.371094 18.816406 19.519531 29.183594 44.308594 29.183594 69.800781v102.332032c0 31.769531 25.847656 57.621093 57.617187 57.621093h253.003906c31.777344 0 57.628907-25.851562 57.628907-57.621093v-98.355469c0-26.234375 11.074218-51.71875 31.175781-71.757813 33.507812-33.40625 48.363281-79.636718 40.757812-126.875zm-422.21875 296.980469v-102.328125c0-30.160156-12.15625-59.378906-34.214843-82.265625-28.4375-29.488281-40.726563-69.902344-33.710938-110.871094 9.253906-54.0625 52.117188-95.652343 106.675781-103.480469 6.296875-.917968 12.566407-1.359374 18.800781-1.359374 10.578126 0 21.027344 1.304687 31.238282 3.902343 39.816406 10.140625 81.925781 10.148438 121.761718.007813 15.863282-4.03125 32.300782-4.886719 48.910157-2.648438.015625 0 .027343.007813.042969.007813l1.113281.101562c55.117187 7.921875 98.070312 50.039063 106.890625 104.820313 6.683594 41.453125-6.332032 82.015625-35.707032 111.289062-5.871093 5.855469-11.089843 12.125-15.617187 18.71875-13.5625 19.78125-20.847656 42.476563-20.847656 65.757813v98.355469c0 21.871093-17.785157 39.65625-39.65625 39.65625h-216.023438c-21.871093-.007813-39.65625-17.792969-39.65625-39.664063zm368.78125-182.832031c-23.515625 23.433594-36.457031 53.433594-36.457031 84.476562v98.355469c0 20.136719-15.09375 36.816406-34.554688 39.332031.4375-.476562.832032-.996094 1.265626-1.480468.539062-.613282 1.078124-1.222657 1.589843-1.859376.617188-.78125 1.203125-1.589843 1.785157-2.398437.476562-.65625.960937-1.3125 1.402343-1.984375.554688-.84375 1.066407-1.726562 1.578125-2.605469.40625-.691406.820313-1.367187 1.195313-2.074219.484375-.917968.917969-1.867187 1.355469-2.8125.332031-.71875.683593-1.417968.988281-2.144531.40625-.980469.746093-1.996093 1.105469-3.003906.261718-.734375.539062-1.445313.761718-2.1875.324219-1.078125.585938-2.175781.847656-3.28125.167969-.707031.375-1.410156.519532-2.136719.25-1.246094.414062-2.523437.585937-3.796875.078125-.601562.203125-1.195312.257813-1.804687.191406-1.898438.296875-3.820313.296875-5.769532v-98.335937c0-16.402344 4.328125-32.507813 12.476562-47.175781 4.894531-8.804688 11.164063-17.085938 18.699219-24.601563 33.503906-33.394531 48.359375-79.636719 40.753906-126.867187-.71875-4.453125-1.6875-8.820313-2.792968-13.121094-.34375-1.328125-.757813-2.621094-1.132813-3.945312-.855469-2.988282-1.789063-5.9375-2.820313-8.828126-.511718-1.429687-1.042968-2.839843-1.597656-4.238281-1.125-2.847656-2.34375-5.640625-3.640625-8.398437-.566406-1.214844-1.105469-2.4375-1.703125-3.640625-1.824218-3.609375-3.765625-7.140625-5.875-10.570313-.144531-.234375-.261718-.476562-.40625-.710937-2.289062-3.683594-4.777344-7.222657-7.382812-10.671875-.699219-.925782-1.453125-1.796875-2.171875-2.703125-1.976563-2.476563-4.003907-4.902344-6.144531-7.238281-.933594-1.023438-1.886719-2.019532-2.847657-3.019532-2.136719-2.214844-4.347656-4.347656-6.621093-6.421875-.929688-.851562-1.847657-1.714843-2.800782-2.542969-2.964844-2.558593-6.027344-5.011718-9.195312-7.320312-.253906-.179688-.46875-.394531-.71875-.574219 40.339844 16.285157 69.945312 52.382813 77.09375 96.808594 6.683594 41.453125-6.332032 82.019531-35.695313 111.292969zm0 0"/></svg>