<svg height="511pt" viewBox="1 -76 511.99841 511" width="511pt" xmlns="http://www.w3.org/2000/svg"><path d="m431.15625.5h-350.3125c-44.574219 0-80.84375 36.261719-80.84375 80.84375v53.894531c0 21.574219 8.496094 41.902344 23.9375 57.214844 7.617188 7.5625 11.992188 18.875 11.992188 31.007813v64.226562c0 39.765625 32.34375 72.101562 72.101562 72.101562h303.777344c35.4375 0 64.261718-28.824218 64.261718-64.25v-70.027343c0-13.179688 4.832032-25.503907 13.605469-34.710938 14.390625-15.097656 22.324219-34.832031 22.324219-55.5625v-53.894531c0-44.582031-36.269531-80.84375-80.84375-80.84375zm-19.589844 17.964844c.582032 0 .988282.167968 1.097656.261718 9.84375 8.792969 11.972657 20.648438 6.5 36.261719-.113281.3125-.375 1.425781-1.867187 1.21875-1.445313-.054687-1.726563-1.039062-1.8125-1.363281-3.144531-11.390625-8.640625-22.601562-16.347656-33.335938-.449219-.628906-.503907-1.300781-.15625-1.984374.246093-.484376.757812-1.058594 1.761719-1.058594zm-84.363281 0c.582031 0 .988281.167968 1.097656.261718 9.84375 8.792969 11.972657 20.648438 6.492188 36.253907-.109375.3125-.261719 1.4375-1.867188 1.230469-1.445312-.054688-1.726562-1.042969-1.816406-1.367188-3.144531-11.390625-8.640625-22.597656-16.347656-33.335938-.449219-.625-.503907-1.300781-.152344-1.984374.242187-.484376.753906-1.058594 1.761719-1.058594zm-219.171875 323.367187c-29.847656 0-54.136719-24.289062-54.136719-54.136719v-64.226562c0-16.894531-6.304687-32.847656-17.300781-43.761719-12.019531-11.929687-18.628906-27.71875-18.628906-44.46875v-53.894531c0-34.664062 28.203125-62.878906 62.875-62.878906h132.601562c25.941406 0 47.050782 21.109375 47.050782 47.050781v69.722656c0 16.75-6.613282 32.542969-18.621094 44.460938-11.167969 11.078125-17.308594 25.125-17.308594 39.558593v73.683594c0 26.957032-21.925781 48.882813-48.882812 48.882813h-67.648438zm386.003906-206.59375c0 16.085938-6.171875 31.425781-17.371094 43.1875-11.964843 12.554688-18.558593 29.28125-18.558593 47.09375v70.027344c0 25.527344-20.769531 46.285156-46.296875 46.285156h-190.6875c13.132812-12.214843 21.40625-29.578125 21.40625-48.882812v-73.679688c0-9.613281 4.257812-19.132812 11.992187-26.804687 15.4375-15.324219 23.9375-35.652344 23.9375-57.226563v-69.722656c0-18.515625-7.816406-35.203125-20.273437-47.050781h38.515625c-.46875 4.714844.601562 9.511718 3.484375 13.515625 6.46875 9.011719 11.050781 18.308593 13.628906 27.640625 2.324219 8.40625 9.761719 14.246094 18.53125 14.542968.242188.007813.484375.007813.726562.007813 8.570313 0 15.863282-5.136719 18.703126-13.25 5.660156-16.140625 5.136718-30.523437-1.1875-42.46875h30.488281c-.46875 4.714844.597656 9.511719 3.484375 13.519531 6.464844 9.011719 11.046875 18.304688 13.625 27.636719 2.363281 8.535156 9.628906 14.246094 18.523437 14.542969.242188.011718.484375.011718.734375.011718 8.570313 0 15.863282-5.128906 18.710938-13.25v-.011718c5.625-16.058594 5.128906-30.359375-1.09375-42.261719 32.839844 2.03125 58.976562 29.335937 58.976562 62.699219zm0 0"/><path d="m422.175781 189.132812h-80.84375c-4.957031 0-8.980469 4.011719-8.980469 8.980469s4.023438 8.984375 8.980469 8.984375h80.84375c4.957031 0 8.984375-4.015625 8.984375-8.984375-.003906-4.96875-4.027344-8.980469-8.984375-8.980469zm0 0"/><path d="m305.402344 189.132812h-17.964844c-4.957031 0-8.980469 4.011719-8.980469 8.980469s4.023438 8.984375 8.980469 8.984375h17.964844c4.960937 0 8.984375-4.015625 8.984375-8.984375s-4.023438-8.980469-8.984375-8.980469zm0 0"/><path d="m100.667969 244.886719 13.472656-13.476563c3.511719-3.511718 3.511719-9.1875 0-12.699218-3.511719-3.511719-9.191406-3.511719-12.699219 0l-13.476562 13.472656c-3.511719 3.511718-3.511719 9.191406 0 12.703125 1.753906 1.75 4.054687 2.628906 6.351562 2.628906 2.300782 0 4.597656-.878906 6.351563-2.628906zm0 0"/><path d="m167.011719 183.679688c2.710937 0 5.386719-1.222657 7.148437-3.546876 3.007813-3.945312 2.246094-9.578124-1.699218-12.585937l-15.160157-11.542969c-3.953125-3.007812-9.585937-2.246094-12.585937 1.707032-3.007813 3.941406-2.246094 9.574218 1.699218 12.582031l15.160157 11.542969c1.628906 1.238281 3.542969 1.84375 5.4375 1.84375zm0 0"/><path d="m107.054688 287.210938c-3.953126-3.011719-9.585938-2.238282-12.585938 1.703124-3.007812 3.945313-2.246094 9.578126 1.699219 12.585938l15.160156 11.542969c1.625 1.242187 3.539063 1.832031 5.4375 1.832031 2.710937 0 5.386719-1.222656 7.148437-3.546875 3.007813-3.945313 2.246094-9.578125-1.699218-12.585937zm0 0"/><path d="m189.808594 261.492188c-1.410156-4.757813-6.414063-7.410157-11.171875-6.050782l-18.261719 5.425782c-4.753906 1.417968-7.464844 6.421874-6.046875 11.171874 1.160156 3.90625 4.734375 6.421876 8.605469 6.421876.84375 0 1.707031-.125 2.570312-.367188l18.261719-5.425781c4.75-1.421875 7.460937-6.421875 6.042969-11.175781zm0 0"/><path d="m63.183594 83.199219 13.472656-13.472657c3.511719-3.511718 3.511719-9.1875 0-12.699218-3.511719-3.511719-9.191406-3.511719-12.699219 0l-13.476562 13.472656c-3.511719 3.511719-3.511719 9.191406 0 12.699219 1.753906 1.753906 4.054687 2.632812 6.351562 2.632812 2.300781 0 4.597657-.878906 6.351563-2.632812zm0 0"/><path d="m84.730469 137.070312-15.160157-11.542968c-3.953124-3.011719-9.582031-2.238282-12.585937 1.703125-3.007813 3.945312-2.242187 9.578125 1.699219 12.585937l15.164062 11.542969c1.625 1.246094 3.539063 1.839844 5.433594 1.839844 2.710938 0 5.390625-1.21875 7.148438-3.546875 3.015624-3.941406 2.253906-9.574219-1.699219-12.582032zm0 0"/><path d="m224.730469 147.839844c.496093 0 .996093-.046875 1.5-.128906 4.886719-.824219 8.191406-5.457032 7.355469-10.34375l-3.167969-18.792969c-.828125-4.894531-5.417969-8.164063-10.347657-7.363281-4.886718.824218-8.195312 5.460937-7.355468 10.347656l3.167968 18.789062c.738282 4.390625 4.546876 7.492188 8.847657 7.492188zm0 0"/><path d="m152.324219 99.808594c-1.410157-4.75-6.414063-7.410156-11.171875-6.050782l-18.261719 5.425782c-4.753906 1.417968-7.464844 6.421875-6.046875 11.171875 1.160156 3.90625 4.734375 6.421875 8.605469 6.421875.84375 0 1.707031-.125 2.570312-.367188l18.261719-5.425781c4.75-1.421875 7.464844-6.421875 6.042969-11.175781zm0 0"/><path d="m176.398438 71.757812 17.765624 6.898438c1.070313.410156 2.164063.597656 3.253907.597656 3.589843 0 6.996093-2.171875 8.371093-5.730468 1.796876-4.632813-.496093-9.832032-5.121093-11.628907l-17.765625-6.898437c-4.625-1.789063-9.835938.5-11.625 5.117187-1.796875 4.636719.496094 9.839844 5.121094 11.644531zm0 0"/></svg>