<svg height="512pt" viewBox="-104 0 512 512" width="512pt" xmlns="http://www.w3.org/2000/svg"><path d="m303.714844 164.800781c-.011719-1-.324219-1.960937-.679688-2.90625-.101562-.28125-.078125-.589843-.207031-.859375l-.011719-.035156-59.832031-119.671875v-32.65625c0-2.617187-1.179687-5.09375-3.210937-6.734375-2.03125-1.648438-4.707032-2.289062-7.253907-1.75l-164.882812 34.710938c-4.015625.839843-6.890625 4.382812-6.890625 8.488281v31.976562l-59.175782 84.542969c-.050781.078125-.050781.183594-.101562.257812-.632812.972657-1.078125 2.046876-1.285156 3.195313-.035156.171875-.042969.328125-.0625.503906-.042969.335938-.121094.667969-.121094 1.015625v286.375c0 3.472656 2.066406 6.613282 5.257812 7.972656l121.492188 52.070313c.097656.042969.191406.027344.289062.0625 1.003907.382813 2.046876.640625 3.128907.640625.738281 0 1.476562-.09375 2.207031-.285156l164.882812-43.390625c3.816407-1.007813 6.472657-4.453125 6.472657-8.390625v-295.054688zm-121.476563-119.324219v-16.972656l17.355469-3.65625v16.976563zm-17.355469 3.652344-17.355468 3.65625v-16.976562l17.355468-3.652344zm-34.714843 7.308594-17.355469 3.652344v-16.703125c0-.085938-.050781-.164063-.050781-.253907l17.40625-3.667968zm-48.257813 27.898438 84.359375-17.761719 63.273438-13.320313 52.96875 105.949219-53.644531 14.121094-93.898438 24.703125-44.214844-94.746094zm204.464844 102.542968-147.527344 124.234375v-96.164062l147.527344-38.824219zm-269.019531-9.6875 104.136719 37.195313v102.21875l-104.136719-44.628907zm0 113.65625 104.136719 44.632813v111.285156l-104.136719-44.628906zm121.492187 42.949219 147.527344-124.226563v115.992188l-147.527344 116.457031zm86.78125-297.457031-8.679687 1.820312v-16.964844l8.679687-1.820312zm-147.527344 14.082031 17.355469-3.652344v16.972657l-17.355469 3.65625zm-10.1875 44.960937 22.804688 48.859376 22.796875 48.855468-91.203125-32.578125zm-50.558593 325.636719 104.136719 44.628907v24.507812l-104.136719-44.632812zm121.492187 71.046875v-27.925781l147.527344-116.46875v105.578125zm0 0"/><path d="m174.425781 155c4.027344 4.75 10.605469 9.695312 20.472657 9.695312 2.675781 0 5.589843-.355468 8.757812-1.1875 14.875-3.898437 19.804688-13.964843 21.320312-21.730468 1.683594-8.617188-.234374-17.679688-1.820312-23.738282-8.175781-31.230468-25.863281-33.597656-39.257812-30.101562-13.410157 3.503906-27.667969 14.246094-19.5 45.472656 1.570312 6.066406 4.335937 14.910156 10.027343 21.589844zm13.851563-50.261719c1.449218-.382812 2.90625-.675781 4.359375-.675781 4.945312 0 9.804687 3.398438 13.726562 18.371094 1.152344 4.425781 2.578125 10.890625 1.578125 16.019531-.640625 3.28125-2.132812 6.550781-8.675781 8.261719-6.535156 1.71875-9.445313-.40625-11.613281-2.949219-3.382813-3.992187-5.308594-10.320313-6.472656-14.738281-5.078126-19.367188.730468-22.621094 7.097656-24.289063zm0 0"/></svg>