<svg height="511pt" viewBox="0 -92 511.99915 511" width="511pt" xmlns="http://www.w3.org/2000/svg"><path d="m43.425781 130.320312v-12.28125c0-4.800781-3.890625-8.683593-8.683593-8.683593-4.796876 0-8.6875 3.882812-8.6875 8.683593v12.28125c0 4.804688 3.890624 8.6875 8.6875 8.6875 4.792968 0 8.683593-3.882812 8.683593-8.6875zm0 0"/><path d="m52.496094 178.34375c-3.789063-2.929688-9.242188-2.234375-12.1875 1.5625l-7.511719 9.71875c-2.933594 3.796875-2.230469 9.242188 1.554687 12.175781 1.582032 1.226563 3.449219 1.816407 5.308594 1.816407 2.59375 0 5.167969-1.164063 6.878906-3.378907l7.511719-9.71875c2.945313-3.789062 2.238281-9.242187-1.554687-12.175781zm0 0"/><path d="m62.613281 268.039062-7.511719 9.707032c-2.933593 3.804687-2.238281 9.25 1.554688 12.1875 1.582031 1.222656 3.449219 1.816406 5.304688 1.816406 2.597656 0 5.160156-1.164062 6.878906-3.371094l7.515625-9.710937c2.933593-3.804688 2.238281-9.25-1.554688-12.183594-3.789062-2.929687-9.242187-2.226563-12.1875 1.554687zm0 0"/><path d="m166.996094 287.484375-12.230469-1.109375c-4.785156-.386719-8.996094 3.089844-9.433594 7.859375-.433593 4.785156 3.082031 9.003906 7.871094 9.4375l12.230469 1.113281c.265625.027344.527344.035156.789062.035156 4.445313 0 8.234375-3.394531 8.640625-7.894531.4375-4.785156-3.089843-9.007812-7.867187-9.441406zm0 0"/><path d="m377.367188 281.828125c-2.441407-4.125-7.765626-5.496094-11.898438-3.054687-4.136719 2.433593-5.5 7.765624-3.058594 11.890624l2.035156 3.4375c1.621094 2.734376 4.515626 4.265626 7.484376 4.265626 1.503906 0 3.023437-.390626 4.414062-1.214844 4.132812-2.433594 5.496094-7.765625 3.054688-11.890625zm0 0"/><path d="m268.035156 287.328125c-2.449218-4.125-7.78125-5.488281-11.902344-3.050781-4.125 2.449218-5.488281 7.78125-3.046874 11.902344l2.03125 3.429687c1.625 2.734375 4.515624 4.253906 7.480468 4.253906 1.5 0 3.03125-.390625 4.417969-1.214843 4.128906-2.449219 5.492187-7.78125 3.050781-11.898438zm0 0"/><path d="m259.347656 87.5625c-2.449218-4.136719-7.78125-5.488281-11.898437-3.050781-4.125 2.449219-5.488281 7.78125-3.050781 11.902343l2.035156 3.429688c1.621094 2.734375 4.515625 4.253906 7.476562 4.253906 1.503906 0 3.03125-.390625 4.421875-1.214844 4.125-2.449218 5.488281-7.78125 3.046875-11.898437zm0 0"/><path d="m192.296875 44.300781c1.621094 2.734375 4.515625 4.253907 7.476563 4.253907 1.503906 0 3.03125-.390626 4.421874-1.214844 4.125-2.449219 5.488282-7.78125 3.050782-11.898438l-2.035156-3.429687c-2.449219-4.136719-7.78125-5.492188-11.898438-3.050781-4.125 2.449218-5.488281 7.78125-3.050781 11.898437zm0 0"/><path d="m97.816406 56.066406c1.378906.808594 2.890625 1.191406 4.375 1.191406 2.988282 0 5.890625-1.539062 7.507813-4.296874l2.015625-3.441407c2.421875-4.140625 1.023437-9.460937-3.109375-11.882812-4.152344-2.421875-9.460938-1.03125-11.882813 3.109375l-2.015625 3.441406c-2.421875 4.132812-1.027343 9.449219 3.109375 11.878906zm0 0"/><path d="m172.492188 165.730469c-2.4375-4.125-7.78125-5.488281-11.898438-3.046875-4.125 2.449218-5.488281 7.78125-3.046875 11.898437l2.03125 3.429688c1.625 2.734375 4.515625 4.253906 7.480469 4.253906 1.5 0 3.027344-.390625 4.417968-1.214844 4.125-2.449219 5.488282-7.78125 3.050782-11.898437zm0 0"/><path d="m114.726562 218.949219c-4.628906-1.296875-9.40625 1.441406-10.671874 6.070312l-1.0625 3.839844c-1.265626 4.621094 1.453124 9.40625 6.074218 10.671875.773438.210938 1.542969.3125 2.308594.3125 3.816406 0 7.316406-2.527344 8.375-6.382812l1.058594-3.839844c1.265625-4.628906-1.460938-9.414063-6.082032-10.671875zm0 0"/><path d="m210.753906 123.199219c-4.636718-1.285157-9.40625 1.441406-10.675781 6.070312l-1.058594 3.839844c-1.269531 4.621094 1.449219 9.40625 6.074219 10.675781.769531.207032 1.542969.308594 2.308594.308594 3.8125 0 7.3125-2.527344 8.371094-6.382812l1.0625-3.839844c1.265624-4.625-1.460938-9.402344-6.082032-10.671875zm0 0"/><path d="m316.039062 127.046875c-4.621093-1.269531-9.40625 1.441406-10.675781 6.070313l-1.058593 3.839843c-1.269532 4.621094 1.449218 9.40625 6.070312 10.671875.773438.210938 1.546875.3125 2.304688.3125 3.8125 0 7.3125-2.527344 8.371093-6.382812l1.058594-3.839844c1.269531-4.628906-1.449219-9.414062-6.070313-10.671875zm0 0"/><path d="m370.003906 185.882812-3.371094 2.128907c-4.058593 2.558593-5.273437 7.925781-2.710937 11.984375 1.652344 2.613281 4.472656 4.046875 7.359375 4.046875 1.589844 0 3.1875-.433594 4.628906-1.339844l3.371094-2.125c4.054688-2.5625 5.269531-7.929687 2.707031-11.988281-2.5625-4.046875-7.929687-5.261719-11.984375-2.707032zm0 0"/><path d="m435.941406 246.453125-3.976562-.09375c-5.003906-.3125-8.773438 3.691406-8.886719 8.484375-.109375 4.796875 3.683594 8.773438 8.476563 8.886719l3.980468.09375h.207032c4.707031 0 8.566406-3.757813 8.675781-8.484375.113281-4.796875-3.679688-8.773438-8.476563-8.886719zm0 0"/><path d="m476.851562 172.15625c-2.824218-3.855469-8.261718-4.722656-12.132812-1.890625-3.875 2.824219-4.726562 8.257813-1.894531 12.132813l2.347656 3.214843c1.691406 2.324219 4.339844 3.558594 7.023437 3.558594 1.773438 0 3.570313-.546875 5.109376-1.667969 3.875-2.824218 4.726562-8.257812 1.902343-12.132812zm0 0"/><path d="m461.992188 119.921875 2.34375 3.222656c1.703124 2.347657 4.339843 3.578125 7.035156 3.578125 1.769531 0 3.5625-.546875 5.097656-1.65625 3.882812-2.824218 4.734375-8.25 1.914062-12.125l-2.347656-3.222656c-2.820312-3.882812-8.25-4.734375-12.132812-1.921875-3.875 2.824219-4.726563 8.253906-1.910156 12.125zm0 0"/><path d="m421.089844 39.964844-3.976563-.09375c-4.761719-.183594-8.773437 3.679687-8.886719 8.484375-.113281 4.792969 3.683594 8.773437 8.476563 8.886719l3.976563.09375h.210937c4.707031 0 8.5625-3.761719 8.675781-8.484376.113282-4.789062-3.683594-8.765624-8.476562-8.886718zm0 0"/><path d="m332.003906 22.722656c-4.691406-1.082031-9.339844 1.835938-10.414062 6.515625l-.894532 3.882813c-1.078124 4.671875 1.839844 9.339844 6.511719 10.414062.660157.15625 1.3125.21875 1.964844.21875 3.953125 0 7.53125-2.71875 8.460937-6.734375l.894532-3.882812c1.066406-4.671875-1.851563-9.335938-6.523438-10.414063zm0 0"/><path d="m484.070312 68.6875c-23.964843-34.652344-60.070312-58.390625-96.574218-63.472656-1.953125-.269532-4.144532-.617188-6.53125-.992188-25.691406-4.019531-73.558594-11.523437-109.167969 20.820313l-12.058594 12.054687-6.425781-4.792968c-21.957031-16.40625-46.945312-26.75-72.253906-29.921876-19.046875-2.3710932-35.855469-.554687-55.222656 2.882813-74.085938 13.203125-125.835938 73.863281-125.835938 147.515625 0 38.832031 13.183594 76.597656 37.269531 107.1875l-11.550781 11.585938c-9.488281 9.667968-11.839844 23.789062-6.878906 35.792968 1.648437 4.003906 4.117187 7.765625 7.40625 11.058594 6.15625 6.167969 14.339844 9.554688 23.023437 9.554688h.160157c5.6875-.027344 11.070312-1.644532 15.867187-4.378907 2.578125-1.476562 5.046875-3.179687 7.171875-5.351562l2.902344-2.890625 12.058594-12.011719c26.359374 15.183594 56.035156 23.171875 86.269531 23.171875h157.277343c34.75 0 68.390626-9.761719 97.851563-28.082031l19.792969 19.804687.0625.0625c6.375 6.261719 14.6875 9.414063 23.050781 9.414063 8.546875 0 17.148437-3.300781 23.789063-9.945313 6.203124-6.203125 9.597656-14.445312 9.5625-23.199218-.042969-8.746094-3.523438-16.953126-9.742188-23.050782l-17.574219-17.570312c14.886719-19.699219 25.191407-41.675782 30.566407-65.457032 9.328124-41.140624.703124-83.671874-24.265626-119.789062zm-466.699218 84.09375c0-65.089844 45.851562-118.722656 111.503906-130.421875 21.636719-3.855469 35.183594-4.59375 50.019531-2.742187 22.332031 2.796874 44.472657 11.992187 64.023438 26.601562l4.429687 3.300781-22.097656 22.140625c-32.839844-25.832031-76.351562-30.410156-114.359375-11.699218-37.816406 18.609374-60.296875 56.011718-58.679687 97.632812.121093 3.074219.355468 6.175781.710937 9.277344 2.285156 20.105468 9.753906 39.207031 21.6875 55.699218l-24.859375 24.910157c-20.863281-27.230469-32.378906-60.46875-32.378906-94.699219zm69.535156 57.140625c-9.164062-13.496094-14.902344-28.878906-16.726562-45.007813-.304688-2.691406-.515626-5.367187-.617188-8.007812-1.339844-34.644531 17.429688-65.824219 49.003906-81.355469 13.089844-6.445312 26.957032-9.605469 40.664063-9.605469 19.03125 0 37.746093 6.105469 53.640625 18.019532zm244.082031 99.199219h-157.277343c-25.621094 0-50.800782-6.410156-73.480469-18.578125l26.207031-26.144531c.867188.484374 1.734375.910156 2.621094 1.421874 13.53125 7.6875 30.363281 17.242188 70.707031 17.242188h112.914063c40.707031 0 62.96875-12.34375 79.191406-21.617188l24.417968 24.421876c-25.878906 15.246093-55.15625 23.253906-85.300781 23.253906zm-18.3125-43.429688h-112.910156c-34.203125 0-48.507813-7.285156-60.511719-14.058594l5.847656-5.847656 115.492188-115.628906 118.53125 118.539062c-15.140625 8.476563-33.320312 16.996094-66.449219 16.996094zm175.050781 28.941406c.015626 4.082032-1.574218 7.929688-4.9375 11.300782-5.964843 5.972656-15.769531 5.957031-21.894531-.035156l-66.054687-66.054688-121.976563-121.980469 22.136719-22.164062 123.597656 123.59375 48.238282 48.242187 16.300781 16.300782c2.9375 2.882812 4.570312 6.722656 4.589843 10.796874zm-180.304687-211.074218c20.976563-19.40625 49.699219-24.414063 78.507813-12.933594 29.496093 11.761719 58.550781 42.933594 56.953124 86.101562-.097656 2.71875-.304687 5.445313-.617187 8.199219-1.582031 13.972657-6.367187 27.507813-13.695313 39.785157zm183.984375 101.082031c-4.65625 20.585937-13.382812 39.683594-25.996094 56.90625l-24.109375-24.109375c9.9375-15.347656 16.207031-32.675781 18.230469-50.542969.363281-3.203125.601562-6.375.722656-9.527343 1.910156-51.617188-32.71875-88.863282-67.878906-102.882813-35.132812-13.984375-71.664062-7.46875-97.355469 16.660156l-.007812-.007812-46.71875 46.71875.023437.015625-122.097656 122.222656-66.0625 65.898438c-2.882812 2.933593-6.722656 4.566406-10.804688 4.585937-4.082031-.070313-7.921874-1.5625-11.289062-4.933594-5.96875-5.976562-5.941406-15.800781.007812-21.878906l4.59375-4.613281 232.734376-233.152344 8.382812-8.390625c29.148438-26.472656 71.65625-19.808594 94.496094-16.230469 2.503906.390625 4.789062.753906 6.828125 1.03125 31.78125 4.429688 63.4375 25.421875 84.683593 56.152344 22.164063 32.066406 29.84375 69.746094 21.617188 106.078125zm0 0"/></svg>