<svg height="512pt" viewBox="0 -31 512.00052 512" width="512pt" xmlns="http://www.w3.org/2000/svg"><path d="m506.417969 214.03125c-3.863281-4.132812-9.3125-6.5-14.949219-6.5h-1.679688c7.601563-13.085938 11.734376-27.9375 11.734376-43.238281 0-34.492188-20.632813-65.542969-51.953126-79.1875-.734374-47.042969-39.179687-85.105469-86.390624-85.105469-47.207032 0-85.640626 38.039062-86.402344 85.0625-1.761719-.414062-3.582032-.65625-5.429688-.65625-7.6875 0-14.925781 3.753906-19.34375 10.03125l-2.152344 3.0625c-1.773437 2.503906-5.101562 3.414062-7.886718 2.117188l-3.390625-1.574219c-6.976563-3.25-15.113281-2.871094-21.78125.96875-6.664063 3.839843-11.050781 10.714843-11.742188 18.367187l-.335937 3.726563c-.121094 1.332031-.710938 3.191406-1.480469 5.179687-1.980469-.941406-3.398437-2.878906-3.605469-5.1875l-.335937-3.707031c-.65625-7.265625-4.539063-13.285156-10.101563-17.097656l27.214844-38.617188c5.300781-7.53125 7.355469-16.707031 5.765625-25.820312-1.582031-9.132813-6.597656-17.078125-14.121094-22.378907-15.597656-10.980468-37.214843-7.246093-48.199219 8.355469l-49.804687 70.683594c-1.664063 2.359375-2.890625 4.917969-3.902344 7.546875-.804687.035156-1.660156-.042969-2.542969-.449219l-3.386718-1.574219c-6.980469-3.234374-15.132813-2.863281-21.78125.976563-6.660156 3.839844-11.042969 10.707031-11.734375 18.359375l-.335938 3.726562c-.277343 3.070313-2.707031 5.5-5.777343 5.777344l-3.71875.335938c-7.652344.691406-14.527344 5.085937-18.367188 11.734375-3.847656 6.664062-4.210938 14.804687-.976562 21.796875l1.566406 3.375c1.296875 2.800781.40625 6.121094-2.117188 7.894531l-3.054687 2.152344c-6.285157 4.4375-10.039063 11.675781-10.039063 19.363281 0 5.125 1.800782 9.96875 4.773438 13.988281h-8.128906c-5.636719 0-11.085938 2.371094-14.949219 6.503907-3.902344 4.167968-5.914063 9.839843-5.527344 15.539062 5.121094 75.636719 53.230469 113.613281 123.902344 147.363281 7.886719 3.769531 14.398437 10.03125 18.351562 17.660157 3.855469 7.453124 3.242188 17.066406-1.679687 25.25-3.707032 6.15625-3.8125 13.566406-.277344 19.828124 3.539062 6.257813 9.9375 9.984376 17.125 9.984376h197.066406c7.183594 0 13.582032-3.734376 17.121094-9.984376 3.535156-6.261718 3.433594-13.671874-.363281-19.984374-4.835938-8.035157-5.4375-17.640626-1.589844-25.085938 3.941406-7.625 10.453125-13.898438 18.347656-17.667969 70.65625-33.75 118.777344-71.71875 123.90625-147.355469.375-5.707031-1.648437-11.371093-5.539062-15.539062zm-22.179688-49.738281c0 15.738281-5.402343 30.949219-15.285156 43.238281h-45.242187v-34.589844c0-4.78125-3.867188-8.648437-8.648438-8.648437s-8.648438 3.867187-8.648438 8.648437v34.589844h-30.53125c.699219-.953125 1.304688-1.957031 1.851563-2.992188.023437-.042968.058594-.085937.085937-.132812.757813-1.46875 1.304688-3.042969 1.746094-4.640625.109375-.398437.207032-.796875.292969-1.210937.355469-1.644532.605469-3.3125.605469-5.023438 0-7.695312-3.753906-14.925781-10.03125-19.335938l-1.988282-1.410156c.691407-.042968 1.355469-.15625 2.039063-.207031 1.039063-.085937 2.078125-.191406 3.105469-.320313 1.703125-.210937 3.386718-.46875 5.058594-.769531.984374-.183593 1.980468-.347656 2.957031-.5625 1.800781-.390625 3.570312-.875 5.328125-1.375.785156-.226562 1.582031-.40625 2.359375-.65625 2.464843-.789062 4.878906-1.664062 7.238281-2.65625.65625-.277343 1.28125-.605469 1.917969-.898437 1.710937-.769532 3.417969-1.5625 5.066406-2.445313.925781-.496093 1.828125-1.03125 2.726563-1.558593 1.320312-.769532 2.636718-1.546876 3.914062-2.386719.953125-.621094 1.886719-1.261719 2.8125-1.917969 1.167969-.832031 2.316406-1.695312 3.441406-2.578125.925782-.726563 1.839844-1.441406 2.730469-2.203125 1.066406-.910156 2.078125-1.859375 3.097656-2.8125.871094-.8125 1.753907-1.617188 2.59375-2.464844.960938-.976562 1.851563-2.011718 2.757813-3.035156 1.722656-1.925781 3.347656-3.925781 4.894531-6.007812.542969-.734376 1.125-1.445313 1.652344-2.207032.941406-1.355468 1.808593-2.765625 2.671875-4.167968.429687-.707032.878906-1.410157 1.296875-2.132813.871093-1.515625 1.675781-3.0625 2.453125-4.628906.304687-.621094.605468-1.234375.898437-1.867188.804688-1.71875 1.558594-3.457031 2.25-5.238281.144531-.382812.285157-.777344.421875-1.160156 1.566406-4.210938 2.898438-8.53125 3.796875-13.011719 22.089844 11.941406 36.3125 35.175781 36.3125 60.777344zm-121.058593-147c38.140624 0 69.175781 31.035156 69.175781 69.179687 0 1.304688-.109375 2.585938-.1875 3.875 0 0-.027344.050782-.027344.085938-.507813 9.085937-2.773437 17.671875-6.441406 25.464844-.035157.078124-.070313.15625-.105469.234374-.847656 1.789063-1.78125 3.519532-2.773438 5.222657-.121093.207031-.234374.414062-.355468.621093-.925782 1.550782-1.929688 3.054688-2.972656 4.515626-.226563.320312-.441407.640624-.667969.949218-.976563 1.332032-2.023438 2.613282-3.09375 3.867188-.335938.398437-.667969.804687-1.011719 1.195312-1.011719 1.140625-2.085938 2.222656-3.175781 3.292969-.449219.449219-.890625.898437-1.355469 1.339844-1.039062.96875-2.128906 1.878906-3.226562 2.785156-.5625.46875-1.117188.941406-1.695313 1.382813-1.0625.8125-2.160156 1.574218-3.265625 2.335937-.667969.457031-1.324219.925781-2.015625 1.355469-1.082031.683594-2.195313 1.296875-3.3125 1.921875-.757813.421875-1.519531.863281-2.300781 1.261719-1.089844.554687-2.210938 1.046874-3.328125 1.539062-.855469.382812-1.703125.777344-2.578125 1.117188-1.09375.429687-2.222656.800781-3.34375 1.175781-.945313.320312-1.867188.648437-2.828125.921875-1.089844.320312-2.214844.5625-3.328125.824218-1.03125.242188-2.050782.5-3.097656.699219-1.078126.199219-2.179688.332031-3.265626.484375-1.117187.15625-2.222656.320313-3.347656.425782-.214844.015624-.441406.015624-.664062.035156v-.011719c.015625-.109375.015625-.214844.035156-.328125.28125-1.5625.378906-3.148438.34375-4.730469-.007812-.507812-.066406-1.003906-.109375-1.511719-.105469-1.246093-.3125-2.464843-.605469-3.675781-.121094-.484375-.214844-.96875-.371094-1.445312-.511718-1.625-1.144531-3.226563-2.015624-4.730469-3.847657-6.65625-10.714844-11.042969-18.367188-11.730469l-3.726562-.339843c-2.292969-.207032-4.230469-1.617188-5.179688-3.605469l18.476562-18.46875c3.382813-3.382813 3.382813-8.847657 0-12.226563-3.378906-3.382812-8.84375-3.382812-12.222656 0l-12.339844 12.339844c-1.824218-2.308594-3.96875-4.386719-6.582031-5.898438-1.746093-1.011718-3.605469-1.746093-5.507812-2.277343-.640625-.179688-1.289063-.199219-1.9375-.316407-1.296875-.253906-2.574219-.484374-3.890625-.511718-.164063 0-.328125-.070313-.492188-.070313-.996094 0-1.972656.191407-2.957031.320313-.613281.078125-1.226563.078125-1.835937.199218-1.761719.363282-3.492188.898438-5.160157 1.667969l-3.371093 1.566407c-.867188.398437-1.785157.554687-2.707032.519531-.054687 0-.097656-.011719-.148437-.011719-.90625-.058594-1.816407-.308594-2.644531-.769531-.839844-4.375-1.265626-8.699219-1.265626-12.882813-.003906-38.144531 31.023438-69.179687 69.171876-69.179687zm-141.242188 105.375.339844-3.726563c.179687-2.09375 1.339844-3.902344 3.164062-4.945312 1.8125-1.046875 3.957032-1.160156 5.859375-.257813l3.410157 1.582031c10.367187 4.789063 22.699218 1.476563 29.277343-7.851562l2.15625-3.0625c2.425781-3.449219 8.011719-3.425781 10.425781-.007812l2.15625 3.058593c4.410157 6.253907 11.394532 9.71875 18.652344 9.9375h.25c1.046875.015625 2.101563 0 3.148438-.121093.492187-.050782.976562-.164063 1.46875-.25.707031-.128907 1.410156-.226563 2.109375-.414063 1.246093-.335937 2.472656-.761719 3.667969-1.316406l3.378906-1.574219c1.910156-.878906 4.054687-.785156 5.863281.257812 1.816406 1.054688 2.976563 2.855469 3.15625 4.957032l.335937 3.707031c1.039063 11.398437 10.058594 20.425781 21.445313 21.445313l3.71875.339843c2.101563.179688 3.910156 1.339844 4.957031 3.164063 1.054688 1.8125 1.148438 3.957031.265625 5.851562l-1.589843 3.425782c-.070313.15625-.09375.292968-.15625.449218-3.078126 7.054688-2.4375 14.898438 1.210937 21.246094.050781.085938.105469.179688.15625.265625.464844.789063.960937 1.539063 1.519531 2.277344.304688.40625.640625.777343.972656 1.167969.421876.484374.828126.984374 1.292969 1.433593.882813.875 1.828125 1.695313 2.863281 2.421875l3.070313 2.171875c1.710937 1.226563 2.695313 3.128907 2.695313 5.230469s-.984376 3.996094-2.695313 5.207031l-3.078125 2.160157c-.027344.019531-.042969.042968-.078125.070312-1.125.804688-2.152344 1.710938-3.113281 2.699219-.382813.386719-.710938.828125-1.066406 1.242187-.515626.613282-1.027344 1.238282-1.476563 1.902344-.171875.253906-.398437.46875-.5625.726562h-113.578125c.699219-.949218 1.304688-1.960937 1.859375-3 .023437-.042968.050781-.078124.078125-.121093.757812-1.476563 1.3125-3.050781 1.753906-4.660157.113282-.398437.199219-.785156.285156-1.183593.363282-1.636719.605469-3.304688.613282-5.007813v-.015625c0-1.109375-.242188-2.164062-.386719-3.242187-.113281-.796875-.097656-1.617188-.296875-2.398438-.628906-2.574218-1.832031-4.933594-3.265625-7.148437-1.625-2.5-3.589844-4.792969-6.089844-6.558594l-3.058593-2.160156c-2.519532-1.773438-3.398438-5.085938-2.109376-7.867188l1.582032-3.398437c.769531-1.660156 1.296875-3.398438 1.660156-5.160156.113281-.53125.113281-1.054688.183594-1.585938.171875-1.242188.300781-2.480469.273437-3.726562-.015625-.648438-.117187-1.289063-.1875-1.9375-.121093-1.113282-.269531-2.222657-.546875-3.308594-.179687-.710938-.421875-1.386719-.664062-2.078125-.207032-.570313-.3125-1.167969-.554688-1.726563-.148437-.339844-.40625-.589844-.570312-.910156-.214844-.441406-.328125-.917969-.570313-1.347656-.457031-.789063-1.082031-1.4375-1.625-2.160156-.453125-.605469-.851562-1.238282-1.351562-1.800782-1.046875-1.167968-2.238281-2.160156-3.484375-3.085937-.371094-.277344-.648438-.667969-1.035156-.917969.894531-2.628906 1.65625-5.519531 1.914062-8.363281zm-47.9375-90.871094c5.492188-7.800781 16.308594-9.667969 24.097656-4.175781 3.753906 2.644531 6.261719 6.621094 7.046875 11.1875.789063 4.574218-.222656 9.167968-2.867187 12.910156l-33.734375 47.871094s-.007813 0-.007813.011718l-16.074218 22.800782c-2.648438 3.761718-6.613282 6.269531-11.179688 7.054687-4.558594.761719-9.160156-.222656-12.914062-2.878906-.015626-.007813-.023438-.027344-.042969-.035156-1.234375-.875-2.273438-1.9375-3.214844-3.0625-.242187-.285157-.464844-.585938-.691406-.890625-.820313-1.132813-1.53125-2.332032-2.058594-3.621094-.035156-.085938-.085937-.15625-.121094-.242188-.527343-1.367187-.820312-2.8125-.992187-4.28125-.042969-.371093-.0625-.742187-.085938-1.117187-.078125-1.46875-.035156-2.964844.277344-4.460937.476562-2.265626 1.382812-4.4375 2.746094-6.371094zm-127.070312 169.09375-3.0625-2.15625c-1.71875-1.210937-2.703126-3.101563-2.703126-5.210937 0-2.109376.984376-4.003907 2.703126-5.222657l3.042968-2.148437c9.367188-6.578125 12.671875-18.898438 7.863282-29.3125l-1.566407-3.371094c-.890625-1.910156-.785156-4.054688.257813-5.878906 1.054687-1.816406 2.855468-2.976563 4.957031-3.160156l3.710937-.335938c11.394532-1.019531 20.414063-10.039062 21.453126-21.433594l.335937-3.726562c.183594-2.09375 1.339844-3.894532 3.15625-4.949219 1.808594-1.046875 3.960937-1.140625 5.863281-.257813l3.40625 1.582032c2.472656 1.144531 5.09375 1.808594 7.757813 2.015625.023437.183593.101562.363281.136719.546875.027343.15625.007812.308594.035156.457031.171875.984375.535156 1.894531.789062 2.851563.292969 1.117187.515625 2.25.914063 3.339843.476562 1.277344 1.132812 2.460938 1.746093 3.671875.417969.816406.734376 1.652344 1.21875 2.429688.847657 1.375 1.886719 2.621094 2.921876 3.867187.441406.527344.789062 1.105469 1.253906 1.609375 1.59375 1.6875 3.347656 3.242188 5.285156 4.597656 1.703125 1.203126 3.519531 2.1875 5.367188 3.054688.589843.265625 1.1875.484375 1.792968.714844 1.320313.53125 2.660156.980468 4.035156 1.332031.691407.183594 1.375.355469 2.085938.484375 1.460938.285156 2.9375.449219 4.433594.546875.5625.035156 1.109375.121094 1.667968.128906.148438 0 .285157.035157.433594.035157 1.996094 0 4.003906-.171876 6.007813-.519532 9.125-1.589844 17.070312-6.605468 22.371093-14.128906l12.71875-18.054688c1.445313.960938 2.5625 2.515626 2.75 4.644532l.335938 3.707031c1.039062 11.398437 10.058594 20.417969 21.445312 21.445313l3.71875.335937c.8125.070313 1.523438.40625 2.214844.746094.335938.171875.675782.328125.976563.558593.464843.347657.847656.796876 1.199219 1.265626.226562.292968.476562.5625.652343.898437.414063.8125.707031 1.667969.75 2.550781 0 .035156-.007812.085938-.007812.121094.035156.96875-.148438 1.953125-.570313 2.867188l-1.585937 3.398437c-1.804688 3.902344-2.464844 8.066406-2.089844 12.105469.007813.054687.023437.105468.023437.164062.132813 1.289063.347657 2.558594.683594 3.8125 1.390625 5.207032 4.558594 9.929688 9.226563 13.214844l2.101562 1.476562.960938.675782c1.726562 1.253906 2.714843 3.148437 2.714843 5.25 0 1.054687-.242187 2.046875-.710937 2.941406-.128906.257812-.40625.414062-.578125.65625-.414062.585938-.8125 1.183594-1.425781 1.617188l-.113281.074218-2.957032 2.078125c-1.183594.839844-2.273437 1.808594-3.277344 2.84375-.308593.320313-.558593.683594-.847656 1.011719-.65625.761719-1.289062 1.539062-1.851562 2.378906-.09375.136719-.222656.257813-.308594.394532h-159.515625c-1.652344-2.585938-3.789063-4.863282-6.304687-6.632813zm333.664062 160.429687c-11.265625 5.378907-20.585938 14.371094-26.261719 25.324219-6.597656 12.746094-5.773437 28.820313 2.222657 42.101563.589843.988281.347656 1.851562.027343 2.398437-.308593.542969-.917969 1.210938-2.066406 1.210938h-197.050781c-1.140625 0-1.753906-.65625-2.066406-1.210938-.308594-.546875-.5625-1.410156.121093-2.550781 7.914063-13.136719 8.734375-29.210938 2.136719-41.964844-5.664062-10.957031-14.996094-19.949218-26.253906-25.320312-67.058594-32.011719-109.53125-65.414063-114.097656-132.90625-.085938-1.289063.535156-2.160156.910156-2.566406.429687-.46875 1.183594-1.011719 2.316406-1.011719h470.941406c1.125 0 1.878906.542969 2.320313 1.011719.371093.40625.992187 1.269531.898437 2.566406-4.570312 67.492187-47.046875 100.894531-114.097656 132.917968zm0 0"/><path d="m319.945312 371.824219h-75.289062c-4.773438 0-8.648438 3.867187-8.648438 8.648437s3.875 8.648438 8.648438 8.648438h75.289062c4.773438 0 8.648438-3.867188 8.648438-8.648438s-3.875-8.648437-8.648438-8.648437zm0 0"/><path d="m190.238281 389.121094h29.277344c4.773437 0 8.648437-3.867188 8.648437-8.648438s-3.875-8.648437-8.648437-8.648437h-29.277344c-4.773437 0-8.648437 3.867187-8.648437 8.648437.003906 4.78125 3.867187 8.648438 8.648437 8.648438zm0 0"/><path d="m319.945312 397.765625h-129.707031c-4.773437 0-8.648437 3.867187-8.648437 8.648437s3.875 8.648438 8.648437 8.648438h129.707031c4.773438 0 8.648438-3.867188 8.648438-8.648438s-3.875-8.648437-8.648438-8.648437zm0 0"/><path d="m344.839844 80.359375c1.6875 1.6875 3.898437 2.53125 6.113281 2.53125s4.425781-.847656 6.113281-2.53125c3.382813-3.382813 3.382813-8.847656 0-12.226563l-24.460937-24.453124c-3.382813-3.382813-8.847657-3.382813-12.226563 0-3.382812 3.378906-3.382812 8.84375 0 12.222656zm0 0"/><path d="m393.746094 129.265625c1.6875 1.6875 3.902344 2.535156 6.117187 2.535156 2.210938 0 4.425781-.847656 6.113281-2.535156 3.378907-3.382813 3.371094-8.847656 0-12.226563l-24.464843-24.453124c-3.378907-3.382813-8.84375-3.382813-12.226563 0-3.378906 3.378906-3.378906 8.84375 0 12.226562zm0 0"/><path d="m375.40625 82.890625c2.214844 0 4.429688-.847656 6.117188-2.53125l24.460937-24.457031c3.371094-3.378906 3.382813-8.84375 0-12.222656-3.382813-3.382813-8.847656-3.382813-12.226563 0l-24.460937 24.453124c-3.382813 3.378907-3.382813 8.84375 0 12.226563 1.683594 1.683594 3.898437 2.53125 6.109375 2.53125zm0 0"/><path d="m423.710938 155.648438c0 4.78125 3.863281 8.644531 8.644531 8.644531h34.589843c4.78125 0 8.648438-3.863281 8.648438-8.644531s-3.867188-8.648438-8.648438-8.648438h-34.589843c-4.78125 0-8.644531 3.867188-8.644531 8.648438zm0 0"/><path d="m263.738281 159.972656c2.214844 0 4.429688-.847656 6.113281-2.535156l12.972657-12.96875c3.382812-3.382812 3.382812-8.847656 0-12.226562-3.382813-3.382813-8.847657-3.382813-12.226563 0l-12.96875 12.96875c-3.382812 3.382812-3.382812 8.847656 0 12.226562 1.683594 1.6875 3.894532 2.535156 6.109375 2.535156zm0 0"/><path d="m305.183594 179.054688c1.6875 1.6875 3.902344 2.535156 6.113281 2.535156 2.214844 0 4.425781-.847656 6.113281-2.535156 3.382813-3.378907 3.382813-8.84375 0-12.226563l-8.644531-8.644531c-3.382813-3.382813-8.847656-3.382813-12.226563 0-3.382812 3.378906-3.382812 8.84375 0 12.226562zm0 0"/><path d="m270.597656 175.476562-8.648437 8.644532c-3.382813 3.382812-3.382813 8.847656 0 12.226562 1.6875 1.6875 3.898437 2.535156 6.113281 2.535156s4.425781-.847656 6.113281-2.535156l8.648438-8.644531c3.382812-3.382813 3.382812-8.847656 0-12.226563-3.382813-3.382812-8.855469-3.382812-12.226563 0zm0 0"/></svg>