<svg height="512pt" viewBox="-87 0 512 512.00304" width="512pt" xmlns="http://www.w3.org/2000/svg"><path d="m204.511719 346.257812c0 4.738282-3.839844 8.578126-8.574219 8.578126-4.738281 0-8.574219-3.839844-8.574219-8.578126 0-4.734374 3.835938-8.574218 8.574219-8.574218 4.734375 0 8.574219 3.839844 8.574219 8.574218zm0 0"/><path d="m230.238281 389.136719c0 4.734375-3.839843 8.574219-8.574219 8.574219-4.738281 0-8.578124-3.839844-8.578124-8.574219 0-4.738281 3.839843-8.578125 8.578124-8.578125 4.734376 0 8.574219 3.839844 8.574219 8.578125zm0 0"/><path d="m221.664062 294.808594c0 4.734375-3.839843 8.574218-8.578124 8.574218-4.734376 0-8.574219-3.839843-8.574219-8.574218 0-4.738282 3.839843-8.574219 8.574219-8.574219 4.738281 0 8.578124 3.835937 8.578124 8.574219zm0 0"/><path d="m108.96875 365.871094 18.796875-17.5625c5.007813-4.675782 7.898437-11.046875 8.117187-17.929688.234376-6.878906-2.210937-13.421875-6.894531-18.429687l-17.5625-18.796875c-9.6875-10.375-26-10.90625-36.359375-1.234375l-18.792968 17.5625c-10.367188 9.683593-10.917969 25.992187-1.234376 36.359375l17.5625 18.796875c5.058594 5.417969 11.925782 8.144531 18.796876 8.144531 6.308593.007812 12.621093-2.28125 17.570312-6.910156zm-23.832031-12.941406-17.5625-18.796876c-3.222657-3.453124-3.035157-8.890624.414062-12.125l18.792969-17.5625c1.648438-1.542968 3.757812-2.304687 5.859375-2.304687 2.296875 0 4.578125.90625 6.265625 2.707031l17.5625 18.796875c1.554688 1.65625 2.359375 3.84375 2.289062 6.148438-.085937 2.308593-1.035156 4.433593-2.691406 5.976562l-18.796875 17.5625c-3.472656 3.242188-8.890625 3.054688-12.132812-.402343zm0 0"/><path d="m73.390625 263.300781c.289063.019531.589844.019531.890625.019531 6.550781 0 12.742188-2.429687 17.535156-6.914062l18.796875-17.5625c10.367188-9.679688 10.917969-25.992188 1.234375-36.355469l-17.5625-18.796875c-9.683594-10.378906-26-10.910156-36.359375-1.234375l-18.796875 17.5625c-10.367187 9.679688-10.914062 25.992188-1.234375 36.355469l17.5625 18.796875c4.671875 5.015625 11.046875 7.90625 17.933594 8.128906zm-22.554687-50.753906 18.796874-17.5625c1.648438-1.546875 3.753907-2.308594 5.855469-2.308594 2.300781 0 4.578125.910157 6.269531 2.710938l17.5625 18.792969c3.222657 3.457031 3.035157 8.894531-.414062 12.125l-18.796875 17.5625c-1.652344 1.554687-3.839844 2.332031-6.144531 2.289062-2.308594-.082031-4.433594-1.035156-5.976563-2.691406l-17.5625-18.792969c-3.226562-3.457031-3.046875-8.894531.410157-12.125zm0 0"/><path d="m93.035156 415.660156c0 4.734375-3.839844 8.574219-8.574218 8.574219-4.738282 0-8.578126-3.839844-8.578126-8.574219 0-4.738281 3.839844-8.578125 8.578126-8.578125 4.734374 0 8.574218 3.839844 8.574218 8.578125zm0 0"/><path d="m279.476562 145.214844c.359376-9.144532-1.691406-18.148438-6.089843-26.464844-3.0625-5.777344-6.5-11.285156-10.230469-16.523438l9.382812-24.492187-16.007812-6.128906-5.882812 15.367187c-27.167969-28.890625-65.300782-45.851562-106.164063-45.851562-54.132813 0-103.527344 29.746094-128.902344 77.632812-4.398437 8.316406-6.457031 17.320313-6.085937 26.460938-2.273438.925781-4.332032 2.339844-5.945313 4.269531-2.898437 3.472656-4.105469 8.019531-3.308593 12.375l53.828124 316.367187c3.515626 19.574219 20.511719 33.777344 40.386719 33.777344h100.058594c19.875 0 36.871094-14.199218 40.398437-33.855468l53.808594-316.203126c.804688-4.449218-.402344-8.988281-3.300781-12.460937-1.613281-1.929687-3.671875-3.34375-5.945313-4.269531zm-21.25-18.445313c2.871094 5.425781 4.261719 11.292969 4.117188 17.25h-15.195312l8.394531-21.917969c.910156 1.546876 1.84375 3.070313 2.683593 4.667969zm-227.492187 0c22.382813-42.253906 65.972656-68.5 113.75-68.5 38.933594 0 75.085937 17.441407 99.242187 46.757813l-14.929687 38.992187h-202.175781c-.148438-5.949219 1.242187-11.816406 4.113281-17.25zm187.285156 348.417969c-2.042969 11.386719-11.9375 19.664062-23.503906 19.664062h-100.058594c-11.574219 0-21.460937-8.277343-23.496093-19.585937l-53.441407-314.09375h204.71875l-36.085937 94.207031c-1.105469-3.621094-2.941406-7.066406-5.695313-10.015625l-17.558593-18.796875c-9.691407-10.375-26.011719-10.90625-36.359376-1.234375l-18.796874 17.5625c-10.367188 9.679688-10.917969 25.992188-1.234376 36.359375l17.5625 18.796875c4.671876 5.007813 11.042969 7.898438 17.929688 8.117188.292969.019531.59375.019531.890625.019531 6.554687 0 12.742187-2.429688 17.539063-6.914062l13.875-12.957032-27.167969 70.925782c-1.621094 1.5625-39.6875 103.632812-39.6875 103.632812-1.535157-1.441406-3.566407-2.355469-5.832031-2.355469-4.730469 0-8.574219 3.839844-8.574219 8.574219s3.84375 8.574219 8.574219 8.574219c.765624 0 1.460937-.25 2.164062-.4375l14.414062 5.523437 10.273438-26.824218c1.027344 1.902343 2.210938 3.75 3.765625 5.394531l17.5625 18.796875c4.671875 5.007812 11.042969 7.898437 17.929687 8.117187.292969.019531.59375.019531.890626.019531 6.554687 0 12.742187-2.429687 17.539062-6.914062l18.792969-17.5625c10.367187-9.679688 10.917969-25.992188 1.234375-36.355469l-17.5625-18.796875c-9.679688-10.378906-25.996094-10.910156-36.355469-1.234375l-8.113281 7.570313s42.96875-111.03125 42.789062-111.71875l53.65625-140.089844h30.871094zm-50.507812-205.984375-18.796875 17.5625c-1.664063 1.550781-3.800782 2.296875-6.148438 2.289063-2.308594-.085938-4.433594-1.039063-5.976562-2.695313l-17.5625-18.8125c-3.226563-3.457031-3.035156-8.894531.410156-12.125l18.796875-17.5625c1.648437-1.542969 3.753906-2.308594 5.855469-2.308594 2.300781 0 4.578125.910157 6.269531 2.710938l17.5625 18.796875c3.222656 3.472656 3.042969 8.910156-.410156 12.144531zm-22.347657 166.296875 18.796876-17.5625c1.644531-1.542969 3.753906-2.304688 5.855468-2.304688 2.296875 0 4.578125.90625 6.265625 2.707032l17.5625 18.796875c3.226563 3.457031 3.039063 8.894531-.410156 12.125l-18.796875 17.5625c-1.664062 1.550781-3.804688 2.332031-6.148438 2.289062-2.304687-.085937-4.429687-1.039062-5.976562-2.691406l-17.5625-18.792969c-3.222656-3.457031-3.042969-8.894531.414062-12.128906zm0 0"/><path d="m270.59375 51.441406 17.148438 17.152344-12.121094 12.125-17.152344-17.152344zm22.183594 12.144532-17.152344-17.152344 12.125-12.125 17.152344 17.152344zm17.148437-17.152344-17.148437-17.152344 12.125-12.121094 17.148437 17.148438zm-.007812-34.308594 12.125-12.125 17.152343 17.152344-12.125 12.125zm0 0"/></svg>