<svg height="512pt" viewBox="-6 0 512 512.00198" width="512pt" xmlns="http://www.w3.org/2000/svg"><path d="m471.726562 77.960938c-5.882812-10.054688-12.84375-19.726563-21.253906-29.546876l-27.675781-44.152343c-1.308594-2.070313-3.378906-3.53125-5.777344-4.050781-2.378906-.527344-4.878906-.054688-6.929687 1.289062l-19.921875 13.132812c-3.886719 2.5625-5.203125 7.648438-3.050781 11.78125l23.472656 45.089844c.378906 1.199219.796875 2.417969 1.214844 3.636719 1.484374 4.339844 3.015624 8.816406 3.035156 12.125.546875 86.316406-66.496094 183.453125-183.941406 266.507813-44.390626 31.390624-79.261719 53.898437-115.921876 69.132812-16.285156 6.765625-32.796874 12.035156-50.492187 16.09375-12.171875 2.796875-20.589844-4.613281-29.484375-13.878906-4.804688-5.003906-8.609375-8.957032-14.269531-9.109375-13.570313-.492188-20.046875 18.710937-20.7187502 31.636719-.1249998 2.480468.7656252 4.902343 2.4726562 6.703124 36.3125 38.441407 82.117187 57.652344 136.027344 57.652344 57.132812 0 123.339843-21.585937 196.941406-64.703125 144.757813-84.828125 205.898437-250.503906 136.273437-369.339843zm-349.773437 361.71875c38.214844-15.875 74.027344-38.964844 119.425781-71.074219 118.453125-83.765625 187.484375-182.542969 191.265625-272.53125 16.730469 74.691406-14.5625 152.714843-60.820312 203.84375-106.367188 117.5625-206.644531 147.902343-269.734375 147.191406 6.683594-2.277344 13.304687-4.703125 19.863281-7.429687zm204.308594-8.054688c-93.011719 54.488281-221.402344 100.585938-307.710938 13.214844.519531-3.226563 1.398438-6.148438 2.28125-8.25.371094.382812.734375.757812 1.070313 1.109375 5.542968 5.777343 14.445312 14.761719 26.769531 18.382812l-.046875.109375c2.246094.882813 23.054688 8.613282 57.324219 8.613282 60.523437 0 163.007812-24.125 279.335937-152.707032 54.515625-60.257812 89.503906-155.441406 58.449219-243.109375 4.613281 6.015625 8.71875 12.007813 12.308594 18.148438 64.570312 110.195312 6.335937 264.738281-129.78125 344.488281zm0 0"/></svg>