<svg height="512pt" viewBox="0 -22 512 512" width="512pt" xmlns="http://www.w3.org/2000/svg"><path d="m202.035156 164.597656c0 10.847656 4.230469 21.0625 11.917969 28.742188 1.722656 1.722656 3.984375 2.589844 6.242187 2.589844 2.261719 0 4.519532-.867188 6.242188-2.589844 3.453125-3.449219 3.453125-9.027344 0-12.480469-4.34375-4.34375-6.746094-10.117187-6.746094-16.257813 0-6.144531 2.394532-11.917968 6.746094-16.261718 15.84375-15.847656 15.84375-41.640625 0-57.484375-3.453125-3.453125-9.03125-3.453125-12.480469 0-3.453125 3.453125-3.453125 9.03125 0 12.480469 8.960938 8.96875 8.960938 23.550781 0 32.519531-7.691406 7.691406-11.921875 17.894531-11.921875 28.742187zm0 0"/><path d="m105.929688 164.597656c0 10.847656 4.230468 21.0625 11.917968 28.742188 1.722656 1.722656 3.980469 2.589844 6.242188 2.589844 2.257812 0 4.519531-.867188 6.242187-2.589844 3.453125-3.449219 3.453125-9.027344 0-12.480469-4.351562-4.34375-6.746093-10.117187-6.746093-16.257813 0-6.144531 2.394531-11.917968 6.746093-16.261718 15.84375-15.847656 15.84375-41.640625 0-57.484375-3.453125-3.453125-9.03125-3.453125-12.480469 0-3.453124 3.453125-3.453124 9.03125 0 12.480469 8.957032 8.96875 8.957032 23.550781 0 32.519531-7.691406 7.691406-11.921874 17.894531-11.921874 28.742187zm0 0"/><path d="m157.898438 138.117188c0 10.847656 4.230468 21.0625 11.917968 28.742187 1.722656 1.722656 3.980469 2.585937 6.242188 2.585937 2.257812 0 4.519531-.863281 6.242187-2.585937 3.449219-3.453125 3.449219-9.03125 0-12.480469-4.34375-4.34375-6.746093-10.117187-6.746093-16.261718 0-6.140626 2.394531-11.917969 6.746093-16.257813 15.84375-15.847656 15.84375-41.640625 0-57.484375-3.453125-3.453125-9.03125-3.453125-12.484375 0-3.449218 3.449219-3.449218 9.027344 0 12.480469 8.960938 8.96875 8.960938 23.550781 0 32.519531-7.6875 7.6875-11.917968 17.890625-11.917968 28.742188zm0 0"/><path d="m123.585938 317.792969c-19.800782 0-35.308594 11.625-35.308594 26.484375 0 14.855468 15.507812 26.480468 35.308594 26.480468 19.800781 0 35.308593-11.625 35.308593-26.480468 0-14.859375-15.507812-26.484375-35.308593-26.484375zm0 35.3125c-10.777344 0-17.65625-5.226563-17.65625-8.828125 0-3.601563 6.878906-8.828125 17.65625-8.828125 10.777343 0 17.65625 5.226562 17.65625 8.828125 0 3.601562-6.878907 8.828125-17.65625 8.828125zm0 0"/><path d="m150.070312 247.171875c-19.800781 0-35.3125 11.628906-35.3125 26.484375s15.511719 26.484375 35.3125 26.484375c19.796876 0 35.308594-11.628906 35.308594-26.484375 0-14.859375-15.507812-26.484375-35.308594-26.484375zm0 35.3125c-10.78125 0-17.65625-5.226563-17.65625-8.828125s6.875-8.828125 17.65625-8.828125c10.777344 0 17.652344 5.226563 17.652344 8.828125s-6.875 8.828125-17.652344 8.828125zm0 0"/><path d="m238.34375 282.484375c19.800781 0 35.3125-11.628906 35.3125-26.484375 0-14.859375-15.511719-26.484375-35.3125-26.484375-19.796875 0-35.308594 11.625-35.308594 26.484375 0 14.855469 15.507813 26.484375 35.308594 26.484375zm0-35.3125c10.78125 0 17.65625 5.226563 17.65625 8.828125s-6.875 8.828125-17.65625 8.828125c-10.777344 0-17.652344-5.226563-17.652344-8.828125s6.875-8.828125 17.652344-8.828125zm0 0"/><path d="m326.621094 291.308594c19.800781 0 35.308594-11.625 35.308594-26.480469 0-14.859375-15.507813-26.484375-35.308594-26.484375-19.800782 0-35.3125 11.625-35.3125 26.484375 0 14.855469 15.511718 26.480469 35.3125 26.480469zm0-35.308594c10.777344 0 17.65625 5.226562 17.65625 8.828125s-6.878906 8.828125-17.65625 8.828125-17.65625-5.226562-17.65625-8.828125 6.878906-8.828125 17.65625-8.828125zm0 0"/><path d="m441.378906 300.136719c0-14.855469-15.511718-26.480469-35.308594-26.480469-19.800781 0-35.3125 11.625-35.3125 26.480469 0 14.859375 15.511719 26.484375 35.3125 26.484375 19.796876 0 35.308594-11.625 35.308594-26.484375zm-35.308594 8.828125c-10.777343 0-17.65625-5.222656-17.65625-8.828125 0-3.601563 6.875-8.828125 17.65625-8.828125 10.777344 0 17.65625 5.226562 17.65625 8.828125 0 3.605469-6.878906 8.828125-17.65625 8.828125zm0 0"/><path d="m353.105469 326.621094c-19.800781 0-35.3125 11.625-35.3125 26.484375 0 14.855469 15.511719 26.480469 35.3125 26.480469 19.796875 0 35.308593-11.625 35.308593-26.480469 0-14.859375-15.511718-26.484375-35.308593-26.484375zm0 35.308594c-10.78125 0-17.65625-5.222657-17.65625-8.824219 0-3.605469 6.875-8.828125 17.65625-8.828125 10.777343 0 17.652343 5.222656 17.652343 8.828125 0 3.601562-6.875 8.824219-17.652343 8.824219zm0 0"/><path d="m256 344.277344c-19.800781 0-35.308594 11.625-35.308594 26.480468 0 14.859376 15.507813 26.484376 35.308594 26.484376s35.308594-11.625 35.308594-26.484376c0-14.855468-15.507813-26.480468-35.308594-26.480468zm0 35.308594c-10.777344 0-17.65625-5.226563-17.65625-8.828126 0-3.601562 6.875-8.828124 17.65625-8.828124 10.777344 0 17.65625 5.226562 17.65625 8.828124 0 3.601563-6.878906 8.828126-17.65625 8.828126zm0 0"/><path d="m213.679688 320.160156c-3.566407-.769531-7.078126.757813-9.046876 3.574219-5.171874.097656-9.894531 3.117187-12.164062 7.75-6.179688.246094-11.652344 4.652344-12.984375 10.972656-1.007813 4.777344 2.046875 9.457031 6.824219 10.460938.609375.132812 1.21875.1875 1.828125.1875 2.902343 0 5.59375-1.4375 7.21875-3.769531 5.171875-.097657 9.894531-3.117188 12.164062-7.75 6.179688-.246094 11.652344-4.652344 12.984375-10.972657 1-4.777343-2.058594-9.457031-6.824218-10.453125zm0 0"/><path d="m298.988281 322.640625c-2.566406-4.484375-7.476562-6.867187-12.628906-6.957031-1.273437-2.117188-3.089844-3.867188-5.332031-5.066406-3.265625-1.753907-7.019532-2.144532-10.550782-1.050782-4.667968 1.414063-7.308593 6.339844-5.886718 11 1.050781 3.496094 4.070312 5.84375 7.476562 6.222656 1.269532 2.234376 3.152344 4.078126 5.472656 5.324219 2.234376 1.199219 4.722657 1.667969 7.160157 1.640625 1.269531 2.121094 3.089843 3.867188 5.320312 5.066406 2.042969 1.09375 4.273438 1.660157 6.523438 1.660157 1.351562 0 2.703125-.195313 4.027343-.601563 4.667969-1.410156 7.308594-6.335937 5.886719-10.996094-1.050781-3.515624-4.066406-5.863281-7.46875-6.242187zm0 0"/><path d="m239.316406 296.15625c-2.570312-4.484375-7.398437-6.949219-12.632812-6.957031-1.269532-2.117188-3.089844-3.863281-5.332032-5.066407-3.265624-1.746093-7.019531-2.132812-10.546874-1.046874-4.671876 1.410156-7.308594 6.335937-5.890626 10.996093 1.050782 3.496094 4.070313 5.84375 7.480469 6.222657 1.269531 2.234374 3.152344 4.078124 5.472657 5.324218 2.230468 1.199219 4.730468 1.667969 7.15625 1.640625 1.273437 2.121094 3.089843 3.867188 5.324218 5.066407 2.039063 1.09375 4.273438 1.660156 6.523438 1.660156 1.347656 0 2.699218-.191406 4.023437-.597656 4.671875-1.414063 7.308594-6.339844 5.890625-11-1.042968-3.511719-4.0625-5.863282-7.46875-6.242188zm0 0"/><path d="m510.640625 393.648438c.113281-1.402344.097656-2.816407-.238281-4.230469l-68.449219-176.304688 43.308594-175.695312c.070312-.296875-.027344-.597657.015625-.898438.054687-.40625.238281-.777343.238281-1.210937v-26.480469c0-4.882813-3.945313-8.828125-8.828125-8.828125h-441.378906c-4.871094 0-8.828125 3.945312-8.828125 8.828125v26.484375c0 4.878906 3.957031 8.828125 8.828125 8.828125h1.316406l37.050781 163.007813c-1.539062 1.554687-2.828125 3.375-3.480469 5.582031l-68.234374 175.523437-.363282 1.175782c-.390625 1.648437-.390625 3.300781-.167968 4.925781-.828126 1.542969-1.429688 3.238281-1.429688 5.117187v54.363282c0 7.730468 6.292969 14.027343 14.027344 14.027343h483.945312c7.734375 0 14.027344-6.296875 14.027344-14.027343v-55.464844c0-1.738282-.566406-3.292969-1.359375-4.722656zm-206.714844-5.234376h-.273437c-6.339844 0-11.777344 4.421876-13.242188 10.769532-.265625 1.148437-.707031 2.214844-1.113281 3.308594-.230469.628906-.378906 1.289062-.652344 1.898437-.390625.859375-.917969 1.636719-1.386719 2.449219-.433593.75-.800781 1.542968-1.304687 2.257812-.363281.511719-.820313.953125-1.210937 1.4375-.75.929688-1.464844 1.890625-2.320313 2.738282-.214844.203124-.460937.371093-.679687.574218-5.148438 4.828125-11.988282 8.226563-19.632813 9.410156-1.988281.308594-4.035156.46875-6.109375.46875s-4.125-.160156-6.109375-.46875c-7.734375-1.191406-14.664063-4.652343-19.820313-9.570312-.148437-.148438-.335937-.261719-.484374-.414062-.898438-.898438-1.667969-1.898438-2.453126-2.886719-.351562-.441407-.765624-.839844-1.085937-1.296875-.566406-.804688-.980469-1.675782-1.457031-2.523438-.40625-.726562-.890625-1.414062-1.234375-2.175781-.34375-.75-.539063-1.570313-.8125-2.347656-.335938-.953125-.742188-1.878907-.964844-2.867188-1.457031-6.339843-6.894531-10.761719-13.234375-10.761719h-113.246094c-26.417968-17.089843-42.132812-48.976562-42.132812-70.621093 0-52.640625 92.980468-97.101563 203.035156-97.101563 110.050781 0 203.035156 44.460938 203.035156 97.101563 0 21.644531-15.714844 53.53125-42.132812 70.621093zm-217.882812-167.722656h50.855469c-25.007813 8.191406-46.46875 18.933594-63.136719 31.589844zm352.191406 31.582032c-16.664063-12.65625-38.125-23.390626-63.132813-31.582032h50.855469zm34.542969 88.859374 18.378906 47.28125h-46.800781c13.875-14.125 23.507812-31.230468 28.421875-47.28125zm-428.640625-323.476562h423.722656v8.828125h-177.167969c-2.761718 0-5.367187 1.289063-7.042968 3.496094-1.671876 2.207031-2.207032 5.066406-1.457032 7.730469.191406.691406.289063 1.34375.289063 2.011718 0 6.269532-9.066407 13.242188-22.066407 13.242188-13.003906 0-22.070312-6.972656-22.070312-13.242188 0-.667968.097656-1.320312.289062-2.011718.75-2.664063.214844-5.523438-1.453124-7.730469-1.671876-2.207031-4.273438-3.496094-7.046876-3.496094h-185.996093zm176.933593 26.480469c2.675782 15.167969 18.996094 26.484375 39.34375 26.484375 20.347657 0 36.660157-11.316406 39.34375-26.484375h165.667969l-39.167969 158.898437h-335.402343l-36.125-158.898437zm-181.847656 296.988281c4.914063 16.054688 14.546875 33.164062 28.433594 47.289062h-46.8125zm455.121094 109.082031h-476.6875v-44.136719h187.5c6.257812 20.921876 26.761719 35.308594 50.855469 35.308594 24.089843 0 44.59375-14.390625 50.855469-35.308594h187.480468v44.136719zm0 0"/></svg>