<svg height="512pt" viewBox="0 -13 512 512" width="512pt" xmlns="http://www.w3.org/2000/svg"><path d="m407.003906 106.425781c21.285156-28.207031 34.375-65.464843 34.375-106.425781h-17.652344c0 75.925781-48.96875 137.878906-110.0625 140.949219-6.921874-4.070313-14.683593-6.8125-22.972656-7.925781-4.03125-30.191407-29.886718-53.574219-61.171875-53.574219-19.253906 0-36.96875 9.027343-48.515625 23.742187-11.320312-14.421875-28.867187-23.742187-48.589844-23.742187-34.074218 0-61.792968 27.714843-61.792968 61.792969 0 13.601562 4.46875 26.472656 12.378906 36.996093-27.289062 6.40625-47.691406 30.894531-47.691406 60.105469 0 19.347656 8.953125 36.632812 22.917968 47.96875-23.632812 8.6875-40.574218 31.355469-40.574218 57.960938 0 10.523437 2.660156 20.605468 7.671875 29.679687-15.324219 11.253906-25.324219 29.34375-25.324219 49.769531 0 34.074219 27.71875 61.792969 61.792969 61.792969 22.113281 0 41.492187-11.714844 52.417969-29.21875 10.417968 7.433594 22.96875 11.5625 35.867187 11.5625 24.742187 0 46.070313-14.652344 55.929687-35.699219 9.660157 5.976563 20.773438 9.21875 32.335938 9.21875 27.480469 0 50.8125-18.042968 58.8125-42.902344 8.992188 4.914063 19.074219 7.589844 29.464844 7.589844 34.074218 0 61.792968-27.71875 61.792968-61.792968 0-13.417969-4.351562-25.820313-11.644531-35.960938 17.851563-11.132812 29.300781-30.816406 29.300781-52.3125 0-34.074219-27.425781-61.996094-61.792968-61.722656 0-.027344 0-.042969 0-.070313 0-14.222656-4.871094-27.296875-12.976563-37.746093 21.433594-4.398438 41.082031-14.964844 57.703125-30.164063 5.800782 57.882813 54.777344 103.21875 114.167969 103.21875h8.828125v-8.824219c0-59.988281-46.273438-109.289062-104.996094-114.265625zm-81.144531 95.839844c-.007813.027344-.023437.050781-.023437.078125-.160157.867188-.46875 1.675781-.679688 2.527344-.382812 1.507812-.761719 3.019531-1.28125 4.457031-.425781 1.167969-.972656 2.269531-1.492188 3.382813-.496093 1.058593-.988281 2.109374-1.5625 3.125-.652343 1.148437-1.371093 2.257812-2.121093 3.34375-.597657.867187-1.234375 1.707031-1.894531 2.527343-.847657 1.050781-1.703126 2.09375-2.648438 3.0625-.761719.785157-1.582031 1.492188-2.394531 2.214844-.953125.859375-1.878907 1.742187-2.902344 2.507813-1.835937 1.367187-3.753906 2.621093-5.792969 3.699218-.554687.300782-1.171875.492188-1.738281.765625-1.722656.8125-3.480469 1.5625-5.316406 2.15625-.679688.21875-1.386719.367188-2.074219.554688-2.179688.582031-4.378906 1.105469-6.679688 1.351562-.222656-.125-.449218-.214843-.671874-.335937-4.246094-2.429688-8.800782-4.363282-13.601563-5.738282-.644531-.1875-1.296875-.335937-1.953125-.503906-1.800781-.449218-3.636719-.820312-5.496094-1.113281-.679687-.105469-1.359375-.230469-2.050781-.316406-2.398437-.292969-4.839844-.488281-7.308594-.496094-.042969 0-.085937-.007813-.132812-.007813-4.042969-3.027343-7.457031-6.683593-10.203125-10.761718l-.566406-.882813c-3.488282-5.453125-5.675782-11.484375-6.507813-17.917969l-.148437-1.035156c-.167969-1.542968-.273438-3.113281-.273438-4.703125 0-24.339843 19.800781-44.136719 44.136719-44.136719 24.339843 0 44.136719 19.796876 44.136719 44.136719.003906 2.753907-.269532 5.445313-.757813 8.058594zm-31.34375 110.292969c-.796875 1.457031-1.703125 2.839844-2.65625 4.191406-.300781.421875-.59375.855469-.910156 1.28125-.847657 1.121094-1.785157 2.179688-2.746094 3.210938-.496094.53125-.972656 1.078124-1.492187 1.582031-.894532.871093-1.847657 1.667969-2.808594 2.472656-.652344.539063-1.296875 1.09375-1.984375 1.59375-.945313.699219-1.960938 1.308594-2.96875 1.933594-.773438.476562-1.535157.980469-2.335938 1.40625-.242187.121093-.503906.21875-.742187.335937-.132813-.097656-.28125-.167968-.414063-.265625-4.980469-3.761719-10.523437-6.773437-16.507812-8.898437-.390625-.140625-.761719-.289063-1.148438-.421875-2.796875-.929688-5.675781-1.652344-8.632812-2.179688-.558594-.097656-1.113281-.179687-1.679688-.257812-2.980469-.441407-6.027343-.75-9.144531-.75-3.230469 0-6.449219.253906-9.628906.757812.042968-.289062.027344-.582031.070312-.871093.433594-2.886719.730469-5.792969.730469-8.714844 0-2.410156-.175781-4.773438-.4375-7.113282-.089844-.792968-.242187-1.582031-.363281-2.375-.238282-1.546874-.519532-3.074218-.875-4.582031-.203125-.882812-.433594-1.765625-.679688-2.640625-.414062-1.492187-.898437-2.9375-1.429687-4.386718-.273438-.742188-.519531-1.5-.820313-2.234376-.882812-2.160156-1.863281-4.261718-2.976562-6.292968-.007813-.015625-.015625-.035156-.023438-.054688.457032-.335937.84375-.765625 1.296875-1.117187 1.921875-1.492188 3.769531-3.046875 5.480469-4.734375.421875-.421875.8125-.871094 1.226562-1.304688 1.773438-1.855468 3.441407-3.789062 4.960938-5.835937.265625-.363281.511719-.722657.769531-1.085938 1.605469-2.25 3.042969-4.597656 4.332031-7.054687.125-.238282.257813-.484375.382813-.722656 1.367187-2.699219 2.550781-5.480469 3.511719-8.375.007812-.039063.027344-.0625.042968-.097657 4.042969-1.183593 8.085938-1.785156 12.085938-1.785156 2.707031 0 5.332031.328125 7.90625.804687.769531.140626 1.527344.328126 2.289062.503907 1.898438.449219 3.75 1.03125 5.542969 1.722656.667969.253906 1.359375.476563 2.019531.765625 2.394532 1.058594 4.707032 2.277344 6.851563 3.726562l.0625.042969c1.941406 1.316407 3.699219 2.867188 5.410156 4.464844 1.652344 1.554687 3.109375 3.257813 4.492188 5.015625.453125.574219.964843 1.078125 1.378906 1.675781 1.464844 2.074219 2.691406 4.292969 3.785156 6.570313.1875.394531.449219.75.628907 1.144531 1.136718 2.578125 1.984374 5.261719 2.613281 8.015625.042969.195312.132812.371094.175781.566406.597656 2.824219.890625 5.730469.917969 8.652344l-.1875 3.097656c-.378907 6.382813-2.152344 12.457032-5.015625 17.902344-.101563.238281-.222656.472656-.355469.714844zm-122.960937 35.644531c-1.863282-.695313-3.757813-1.296875-5.703126-1.808594-.519531-.140625-1.03125-.273437-1.5625-.398437-1.796874-.421875-3.628906-.757813-5.480468-1.023438-.554688-.078125-1.09375-.1875-1.648438-.257812-2.332031-.261719-4.691406-.4375-7.089844-.4375-2.515624 0-5.128906.183594-7.902343.570312-.308594-.21875-.617188-.4375-.925781-.667968 0-2.003907-.105469-4-.308594-5.976563-.132813-1.332031-.363282-2.640625-.582032-3.957031-.109374-.617188-.160156-1.242188-.285156-1.851563-.316406-1.625-.730468-3.214843-1.171875-4.792969-.082031-.28125-.132812-.574218-.222656-.855468-.492187-1.675782-1.085937-3.3125-1.710937-4.925782-.070313-.1875-.132813-.378906-.203126-.566406-.652343-1.617187-1.386718-3.1875-2.171874-4.730468-.097657-.195313-.1875-.390626-.285157-.585938-.765625-1.492188-1.613281-2.929688-2.503906-4.339844-.160156-.257812-.300781-.523437-.46875-.769531-.867187-1.339844-1.800781-2.621094-2.761719-3.890625-.238281-.3125-.460937-.628906-.699218-.9375-.953126-1.199219-1.957032-2.347656-3-3.476562-.222657-.242188-.414063-.503907-.644532-.746094.519532-3.175782 1.394532-6.285156 2.601563-9.285156 2.457031-1.351563 4.777343-2.914063 7.019531-4.582032.203125-.148437.40625-.300781.609375-.449218 4.441406-3.382813 8.394531-7.335938 11.777344-11.777344.160156-.203125.308593-.40625.460937-.617188 1.640625-2.207031 3.175782-4.503906 4.519532-6.921875.210937-.085937.414062-.175781.625-.265625 2.304687-.898437 4.652343-1.613281 7.035156-2.109375.398437-.078125.804687-.132812 1.210937-.203125 2.515625-.449218 5.058594-.738281 7.644531-.738281 2.804688 0 5.535157.324219 8.199219.828125.34375.0625.699219.105469 1.035157.175781 2.523437.539063 4.96875 1.324219 7.316406 2.277344.398437.160156.785156.328125 1.175781.496094 2.300781 1.015625 4.519531 2.207031 6.601563 3.582031.316406.210938.625.460938.941406.679688 1.863281 1.304687 3.613281 2.761718 5.246094 4.335937.289062.28125.597656.519531.882812.8125 1.542969 1.570313 2.902344 3.308594 4.199219 5.09375.71875.976563 1.351562 2 1.980469 3.027344.800781 1.316406 1.542968 2.664062 2.203124 4.070312.453126.941407.882813 1.898438 1.265626 2.878907.652343 1.683593 1.171874 3.421874 1.613281 5.199218.214843.828125.46875 1.640625.628906 2.476563.519531 2.667969.847656 5.394531.847656 8.203125 0 2.65625-.3125 5.316406-.832031 7.953125-.238281 1.199219-.679688 2.394531-1.023438 3.585937-.476562 1.648438-.875 3.300782-1.554687 4.933594-10.0625 5.535156-18.289063 13.921875-23.9375 24.144531-1.882813.8125-3.683594 1.464844-5.414063 1.96875-2.117187-1.128906-4.324218-2.109375-6.574218-2.992187-.316406-.125-.644532-.230469-.972656-.355469zm-12.660157-109.859375c0-2.746094-.238281-5.429688-.589843-8.078125-.078126-.582031-.167969-1.15625-.261719-1.730469-.40625-2.53125-.9375-5.015625-1.644531-7.441406-.035157-.121094-.0625-.246094-.097657-.371094-.792969-2.675781-1.792969-5.261718-2.929687-7.777344-.167969-.363281-.351563-.714843-.519532-1.085937-1.058593-2.226563-2.242187-4.378906-3.550781-6.453125-.132812-.210938-.226562-.457031-.367187-.667969 1.289062-1.847656 2.753906-3.636719 4.378906-5.351562.484375-.175781.941406-.40625 1.429688-.597657 1.023437-.398437 2.039062-.820312 3.042968-1.273437.8125-.367187 1.617188-.757813 2.421875-1.164063 1.003907-.503906 1.984375-1.03125 2.957031-1.597656.773438-.441406 1.535157-.910156 2.285157-1.394531.917969-.582031 1.828125-1.191406 2.710937-1.820313.773438-.554687 1.535156-1.128906 2.292969-1.710937.792969-.628906 1.570313-1.261719 2.332031-1.917969.386719-.335937.8125-.636718 1.191406-.980468 5.773438-1.570313 11.5625-1.78125 17.144532-1.058594 1.835937.238281 3.660156.566406 5.4375 1.035156.679687.175781 1.347656.378906 2.011718.582031 1.96875.617188 3.894532 1.359375 5.757813 2.25.34375.160157.695313.308594 1.03125.476563 4.660156 2.382812 8.925781 5.589844 12.554687 9.550781l.554688.609375c1.070312 1.226562 2.144531 2.453125 3.074219 3.8125.132812.820312.34375 1.617188.511719 2.421875.34375 1.695313.75 3.363281 1.234374 5.003906.398438 1.359375.804688 2.71875 1.296876 4.050781.390624 1.042969.839843 2.050782 1.28125 3.0625.441406 1.015626.898437 2.015626 1.394531 3.011719.53125 1.058594 1.078125 2.101563 1.660156 3.125.132813.230469.238281.476563.378906.707031.132813 1.304688.222657 2.621094.222657 3.945313 0 2.964844-.363282 5.871094-.929688 8.703125l-.4375 1.800781c-2.253906 9.171875-7.371094 17.25-14.425781 23.207031-.230469.195313-.46875.382813-.695313.574219-.585937.46875-1.28125.804688-1.890625 1.246094-1.34375-1.324219-2.738281-2.605469-4.191406-3.804687-1.476563-1.21875-3.011719-2.359376-4.582031-3.425782-.039063-.027344-.070313-.054687-.109375-.082031-4.96875-3.371094-10.390625-5.976563-16.109375-7.757813-.015625-.007812-.042969-.015624-.0625-.027343-1.710938-.527344-3.449219-.960938-5.214844-1.339844-.257812-.054687-.496094-.132813-.75-.1875-1.617188-.328125-3.257812-.546875-4.898438-.75-.417968-.054687-.820312-.140625-1.238281-.1875-2.066406-.210937-4.15625-.316406-6.257812-.316406-2.886719 0-5.738281.273437-8.554688.664062-.335937.042969-.6875.027344-1.023437.078125.042968-.289062.027344-.582031.070312-.875.390625-2.839844.671875-5.734375.671875-8.691406zm31.703125-117.890625c7.632813-14.292969 22.554688-23.351563 38.917969-23.351563 21.578125 0 39.582031 15.566407 43.398437 36.054688-.316406.050781-.617187.164062-.9375.21875-2.734374.46875-5.4375 1.070312-8.03125 1.890625-.167968.050781-.335937.132813-.503906.183594-2.460937.804687-4.835937 1.785156-7.15625 2.878906-.574218.265625-1.140625.539063-1.703125.820313-2.394531 1.21875-4.714843 2.554687-6.921875 4.054687-.25.164063-.46875.359375-.71875.527344-1.992187 1.40625-3.882812 2.941406-5.691406 4.574219-.460938.40625-.910156.8125-1.359375 1.234374-1.917969 1.828126-3.734375 3.761719-5.414063 5.820313-.246093.300781-.457031.625-.695312.933594-1.457031 1.875-2.800781 3.824219-4.035156 5.855469-.308594.5-.628906.996093-.917969 1.515624-1.324219 2.3125-2.507813 4.707032-3.53125 7.1875-.175781.441407-.316406.890626-.496094 1.332032-.84375 2.207031-1.550781 4.464844-2.144531 6.78125-.097656.367187-.253906.703125-.34375 1.074218-4.617188-3.460937-9.699219-6.160156-15.058594-8.199218-.503906-.195313-1.015625-.363282-1.535156-.539063-2.507812-.882812-5.066406-1.597656-7.691406-2.148437-.503906-.105469-.988282-.238282-1.492188-.324219-.546875-.097656-1.074218-.273437-1.632812-.363281-1.667969-2.082032-3.117188-4.246094-4.324219-6.460938.070313-.203125.097656-.425781.167969-.628906 1.003906-2.910156 1.816406-5.914062 2.382812-9.011719.09375-.511719.148438-1.023437.238282-1.535156.511718-3.125.839843-6.3125.839843-9.585937 0-3.277344-.328125-6.464844-.820312-9.597657-.082031-.519531-.140625-1.03125-.242188-1.542969-.5625-3.101562-1.375-6.101562-2.390625-9.023437-.070312-.210937-.085937-.421875-.15625-.625zm-58.183594-23.351563c18.140626 0 33.75 11.027344 40.519532 26.714844 1.058594 2.46875 1.824218 5.011719 2.425781 7.589844.070313.300781.210937.574219.273437.882812.609376 2.929688.917969 5.921876.917969 8.953126 0 3.027343-.308593 6.019531-.917969 8.949218-.0625.308594-.203124.574219-.273437.882813-.589844 2.578125-1.359375 5.121093-2.425781 7.59375-3.25 7.511719-8.546875 13.910156-15.15625 18.582031-.460938.324219-.929688.652344-1.398438.953125-2.027344 1.324219-4.164062 2.503906-6.40625 3.484375-.398437.167969-.804687.300781-1.203125.46875-5.074219 2.03125-10.574219 3.222656-16.355469 3.222656-1.324218 0-2.621093-.082031-3.910156-.214844-.210937-.121093-.441406-.226562-.664062-.351562-1.09375-.636719-2.214844-1.21875-3.351563-1.78125-.601562-.300781-1.203125-.59375-1.800781-.875-1.167969-.53125-2.339844-1.015625-3.539062-1.472656-.585938-.222656-1.175782-.441406-1.765626-.644532-1.292968-.449218-2.589843-.855468-3.910156-1.21875-.488281-.132812-.964844-.257812-1.449218-.371093-1.457032-.363281-2.921876-.679688-4.421876-.9375-.132812-.023438-.257812-.0625-.390624-.078125-11.890626-8.28125-18.933594-21.679688-18.933594-36.191406-.003906-24.339844 19.800781-44.140626 44.136718-44.140626zm-79.449218 141.242188c0-24.339844 19.800781-44.136719 44.136718-44.136719 2.605469 0 5.121094.335938 7.601563.765625.714844.125 1.429687.238282 2.136719.398438 2.25.511718 4.433594 1.191406 6.53125 2.027344.601562.242187 1.195312.496093 1.785156.761718 2.242188 1.015625 4.421875 2.144532 6.445312 3.503906l.246094.160157c4.191406 2.851562 7.777344 6.480469 10.777344 10.558593.664062.898438 1.28125 1.824219 1.871094 2.761719.882812 1.421875 1.6875 2.902344 2.402344 4.421875.414062.875.839843 1.75 1.199218 2.648438.695313 1.773437 1.238282 3.621094 1.703125 5.492187.195313.777344.449219 1.535157.601563 2.324219.511718 2.699219.839844 5.472656.839844 8.3125 0 2.726562-.328126 5.378906-.804688 7.972656-.085938.460938-.132812.917969-.238281 1.367188-.476563 2.199218-1.191407 4.308594-1.988281 6.375-.335938.875-.679688 1.738281-1.074219 2.59375-.539063 1.175781-1.203125 2.269531-1.835938 3.390625-.691406 1.199219-1.316406 2.4375-2.113281 3.566406-.722656 1.035156-1.585938 1.941406-2.398438 2.902344-1.675781 2.003906-3.523437 3.851562-5.527343 5.527343-.960938.804688-1.859375 1.667969-2.894531 2.382813-1.136719.804687-2.382813 1.441406-3.601563 2.128906-6.417969 3.671875-13.753906 5.929688-21.660156 5.929688-24.339844 0-44.140625-19.800781-44.140625-44.136719zm-12.128906 127.257812c-3.628907-6.503906-5.523438-13.769531-5.523438-21.328124 0-24.335938 19.796875-44.136719 44.136719-44.136719 11.652343 0 22.203125 4.625 30.09375 12.039062 1.648437 1.546875 3.105469 3.25 4.484375 5.007813.449218.574218.96875 1.085937 1.394531 1.6875 1.457031 2.054687 2.675781 4.261718 3.761719 6.53125.191406.40625.464844.777344.644531 1.191406 1.128906 2.558594 1.976563 5.242188 2.601563 7.972656.042968.203125.140624.394532.1875.597656.636718 2.976563.96875 6.03125.96875 9.113282 0 2.039062-.175782 4.121094-.519532 6.300781-4.464844 2.191406-8.5625 5.023437-12.386718 8.210937-.742188.609376-1.523438 1.164063-2.230469 1.816407-1.199219 1.09375-2.277344 2.3125-3.390625 3.507812-.960938 1.023438-1.949219 2.019531-2.84375 3.105469-.898438 1.113281-1.703125 2.296875-2.523438 3.46875-.652344.925781-1.402344 1.78125-2.003906 2.746094-.195312-.140625-.414062-.238282-.617188-.371094-2.152343-1.5-4.40625-2.867188-6.746093-4.09375-.6875-.363281-1.394531-.679688-2.089844-1.015625-2.058594-.980469-4.167969-1.855469-6.339844-2.605469-.503906-.175781-.980469-.390625-1.492187-.546875-2.570313-.8125-5.226563-1.414062-7.929688-1.890625-.695312-.121094-1.402344-.21875-2.097656-.316406-2.828125-.390625-5.667969-.664062-8.582031-.664062-3.300781 0-6.523438.339843-9.683594.839843-.519531.082031-1.042969.140625-1.554687.242188-3.113282.570312-6.132813 1.402343-9.074219 2.425781-.210938.066406-.433594.085938-.644531.164062zm20.957031 102.257813c-24.335938 0-44.136719-19.796875-44.136719-44.136719 0-17.636718 10.46875-32.785156 25.46875-39.839844 1.136719-.527343 2.292969-1.003906 3.457031-1.429687 1.210938-.449219 2.445313-.8125 3.699219-1.15625 1.414062-.367187 2.828125-.75 4.257812-.976563.84375-.140624 1.738282-.167968 2.601563-.265624 5.933594-.589844 11.910156-.035157 17.566406 1.6875.539063.164062 1.078125.316406 1.605469.5 1.644531.566406 3.25 1.246093 4.820312 2.003906.910157.453125 1.792969.9375 2.65625 1.449218 1.21875.695313 2.4375 1.394532 3.585938 2.207032 1.332031.953125 2.558594 2.019531 3.769531 3.113281.679688.609375 1.429688 1.140625 2.070313 1.800781.875.882813 1.582031 1.917969 2.378906 2.878906 1.117188 1.351563 2.257812 2.683594 3.203125 4.140626.652344 1.015624 1.15625 2.117187 1.730469 3.1875.742187 1.367187 1.527344 2.71875 2.117187 4.15625.574219 1.414062.945313 2.921874 1.378907 4.414062.34375 1.199219.800781 2.375 1.050781 3.601562.539062 2.753907.855469 5.605469.855469 8.527344 0 2.800782-.328126 5.519532-.832032 8.175782-.28125 1.445312-.757812 2.867187-1.191406 4.296874-.449219 1.527344-.800781 3.089844-1.410156 4.546876l-.070313.203124c-6.714843 15.800782-22.402343 26.914063-40.632812 26.914063zm88.277343-17.652344c-10.640624 0-20.625-3.726562-28.601562-10.585937.042969-.167969.0625-.34375.105469-.519532.539062-2.101562.96875-4.238281 1.289062-6.410156.078125-.503906.167969-1.007812.230469-1.507812.289062-2.445313.492188-4.925782.492188-7.460938 0-3.117187-.308594-6.160156-.757813-9.152344-.089844-.566406-.160156-1.121093-.257813-1.6875-.519531-2.949218-1.242187-5.824218-2.171874-8.617187-.132813-.394531-.289063-.785156-.433594-1.171875-2.125-5.976562-5.136719-11.511719-8.886719-16.488281-.0625-.082031-.109375-.179688-.167969-.257813.503906-.988281.917969-2.039062 1.492188-2.984375.28125-.464843.539062-.941406.839844-1.394531 1.542968-2.339844 3.273437-4.546875 5.234374-6.550781.140626-.148438.300782-.273438.441407-.414063 2.074219-2.058594 4.324219-3.945312 6.789062-5.570312.007813-.007813.015625-.015625.023438-.027344 2.578125-1.703125 5.351562-3.152344 8.28125-4.296875l.65625-.257813c2.417969-.917968 4.914062-1.621093 7.484375-2.097656 1.128906-.214844 2.179687-.355468 3.195312-.476562 1.570313-.179688 3.132813-.347656 4.722656-.347656 2.65625 0 5.226563.339843 7.75.789062.792969.140625 1.589844.308594 2.375.503906 1.890626.449219 3.726563 1.03125 5.507813 1.710938.636719.246094 1.300781.414062 1.925781.695312 4.933594 2.15625 9.390625 5.183594 13.195313 8.890625 1.5625 1.519531 2.878906 3.203125 4.175781 4.898438.488281.636719 1.070312 1.175781 1.519531 1.835937 1.007813 1.464844 1.75 3.074219 2.570313 4.636719 3.160156 6.070313 5.121094 12.871094 5.121094 20.179687 0 2.675782-.335938 5.261719-.789063 7.804688-.097656.539062-.160156 1.066406-.273437 1.605469-4.335938 19.824219-21.980469 34.726562-43.078126 34.726562zm88.273438-26.484375c-9.886719 0-19.332031-3.28125-27.0625-9.320312.027344-.175782.015625-.355469.035156-.53125.328125-2.558594.546875-5.15625.546875-7.804688 0-2.027344-.113281-4.042968-.308593-6.039062-.054688-.527344-.152344-1.039063-.214844-1.570313-.175782-1.472656-.386719-2.9375-.667969-4.386719-.105469-.527343-.238281-1.046874-.363281-1.578124-.316406-1.429688-.671875-2.84375-1.09375-4.238282-.152344-.484375-.308594-.960937-.46875-1.4375-.457032-1.402344-.960938-2.78125-1.519532-4.148437-.183593-.460938-.386718-.917969-.589843-1.378907-.574219-1.3125-1.199219-2.601562-1.871094-3.882812-.257813-.492188-.519531-.980469-.792969-1.457031-.65625-1.15625-1.34375-2.285157-2.066406-3.398438-.371094-.566406-.734375-1.136719-1.121094-1.695312-.652344-.933594-1.351562-1.84375-2.058594-2.753907-.527343-.667968-1.046874-1.347656-1.605468-2.003906-.191406-.226562-.363282-.464844-.554688-.6875.371094-1.101562.898438-2.117187 1.347656-3.179687l1-2.027344c4.28125-8.707031 11.421876-15.855469 20.117188-20.128906l2.3125-1.136719c.644531-.265625 1.269531-.566406 1.933594-.796875 1.394531-.511719 2.816406-.882813 4.238281-1.234375.730469-.1875 1.453125-.378906 2.203125-.53125 1.289062-.253906 2.589844-.421875 3.886719-.554688.855469-.085937 1.710937-.160156 2.578125-.203124 1.234375-.054688 2.460937-.0625 3.699218-.015626 1.695313.0625 3.355469.253907 4.996094.5 1.738282.265626 3.441406.636719 5.136719 1.105469 1.269531.351563 2.542969.714844 3.769531 1.171875 1.164063.433594 2.304688.925782 3.425782 1.457032 1.296874.617187 2.550781 1.316406 3.777343 2.058593.839844.5 1.714844.953125 2.527344 1.507813 1.78125 1.242187 3.425781 2.648437 5.003906 4.132812 1.667969 1.570313 3.117188 3.292969 4.503907 5.046875.476562.609375 1.023437 1.148438 1.472656 1.785157 1.148437 1.632812 2.046875 3.390624 2.957031 5.144531.457031.902343 1.042969 1.722656 1.445313 2.65625.722656 1.660156 1.167968 3.433593 1.671874 5.183593.316407 1.09375.773438 2.125 1.015626 3.257813.570312 2.921875.898437 5.921875.898437 8.976563 0 24.335937-19.800781 44.136718-44.140625 44.136718zm88.277344-35.3125c-9.578125 0-18.839844-3.132812-26.484375-8.894531 0-.046875-.007813-.082031-.007813-.117187-.011718-2.921876-.285156-5.78125-.691406-8.597657-.078125-.511719-.148438-1.023437-.238281-1.535156-1.03125-6.074219-2.941407-11.847656-5.605469-17.1875-.042969-.085937-.085938-.175781-.132812-.261719-1.421876-2.800781-3.035157-5.472656-4.847657-8.015625-.007812-.019531-.015625-.039062-.023437-.054687 4.21875-2.628906 8.023437-5.792969 11.449218-9.3125.589844-.609375 1.15625-1.238282 1.722657-1.863282 1.324219-1.472656 2.558593-3.011718 3.730469-4.601562.523437-.703125 1.078124-1.375 1.5625-2.097656 1.351562-2.003906 2.578124-4.085938 3.683593-6.234375.652344-1.253907 1.199219-2.558594 1.765625-3.855469.433594-1.007812.855469-2.023438 1.238282-3.058594.589843-1.585937 1.144531-3.175781 1.613281-4.816406.070312-.257812.113281-.515625.1875-.769531.464843-1.746094.933593-3.496094 1.253906-5.289063 3.300781-.84375 7.421875-1.710937 9.824219-1.710937 2.921875 0 5.773437.316406 8.535156.867187 1.21875.238282 2.375.6875 3.554688 1.03125 1.5.433594 3.03125.804688 4.460937 1.386719 1.402344.574219 2.726563 1.351563 4.070313 2.074219 1.101562.589844 2.242187 1.101562 3.28125 1.78125 1.421874.929687 2.726562 2.039062 4.050781 3.132812 9.800781 8.097656 16.183593 20.191406 16.183593 33.863282 0 24.339843-19.800781 44.136718-44.136718 44.136718zm61.792968-132.410156c0 16.628906-9.542968 31.859375-24.179687 39.308594-.160156-.125-.335937-.203125-.492187-.316406-4.980469-3.761719-10.523438-6.773438-16.507813-8.898438-.390625-.140625-.757813-.292969-1.148437-.425781-2.796876-.925781-5.675782-1.648438-8.632813-2.179688-.554687-.097656-1.113281-.175781-1.675781-.253906-2.992188-.441406-6.039063-.75-9.15625-.75-.210938 0-1.003906.070313-2.019532.175781-2.464843.078125-4.917968.261719-7.355468.644532-.027344-.1875-.085938-.371094-.113282-.558594-.328124-2.328125-.785156-4.609375-1.359374-6.839844-.105469-.398438-.195313-.792969-.308594-1.195312-1.492188-5.339844-3.683594-10.371094-6.472656-15.023438-.148438-.253906-.300782-.5-.457032-.75-1.457031-2.347656-3.011718-4.632812-4.761718-6.761719.25-.085937.46875-.21875.707031-.308593 1.890625-.714844 3.726562-1.527344 5.519531-2.410157.273438-.140625.539062-.28125.8125-.421875 1.941406-1.007812 3.820312-2.101562 5.640625-3.292968.035156-.027344.070313-.042969.105469-.070313 11.933594-7.890625 20.957031-19.746094 25.132812-33.714844 25.269532-1.585937 46.722656 18.847657 46.722656 44.042969zm18.097657-131.972656c46.15625 4.386718 83.003906 41.234375 87.390625 87.394531-46.160156-4.390625-83.003906-41.238281-87.390625-87.394531zm0 0"/></svg>