<svg height="512pt" viewBox="0 -51 512.0004 512" width="512pt" xmlns="http://www.w3.org/2000/svg"><path d="m418.316406 0h-258.746094c-50.328124 0-92.929687 33.53125-106.761718 79.410156l-27.167969-20.378906c-5.59375-4.210938-12.921875-4.328125-18.683594-.375-5.757812 3.953125-8.234375 10.859375-6.316406 17.574219l11.109375 38.875-8.226562 16.453125c-2.960938 5.925781-2.019532 12.929687 2.417968 17.863281 3.113282 3.453125 7.421875 5.308594 11.855469 5.308594 1.894531 0 3.8125-.339844 5.667969-1.027344l29.121094-10.921875c13.554687 46.316406 56.34375 80.28125 106.984374 80.28125h258.746094c56.914063 0 93.683594-43.769531 93.683594-111.527344 0-67.757812-36.769531-111.535156-93.683594-111.535156zm-369.398437 125.089844-27.335938 10.253906 6.457031-12.902344c1.792969-3.585937 2.171876-7.691406 1.074219-11.554687l-9.808593-34.3125 29.535156 22.148437c-.484375 4.203125-.796875 8.460938-.796875 12.796875 0 4.449219.332031 8.8125.839843 13.121094.027344.15625.019532.296875.035157.449219zm110.652343 80.121094c-44.8125 0-82.332031-31.644532-91.496093-73.75l-.445313-2.273438c-.570312-2.957031-1.007812-5.910156-1.292968-8.832031-.277344-2.910157-.445313-5.855469-.445313-8.835938 0-2.578125.179687-5.109375.382813-7.644531.234374-2.425781.546874-4.941406.992187-7.609375l.722656-4.347656c9.035157-42.273438 46.652344-74.082031 91.582031-74.082031h203.597657c-3.453125 2.675781-6.644531 5.703124-9.671875 8.921874h-87.132813c-4.933593 0-8.921875 3.988282-8.921875 8.921876 0 4.933593 3.988282 8.921874 8.921875 8.921874h74.027344c-1.613281 2.855469-3.105469 5.828126-4.488281 8.925782h-158.761719c-4.9375 0-8.925781 3.988281-8.925781 8.921875 0 4.933593 3.988281 8.921875 8.925781 8.921875h152.535156c-3.25 12.167968-5.042969 25.5625-5.042969 40.148437 0 14.589844 1.800782 27.980469 5.042969 40.152344h-87.777343c-4.933594 0-8.921876 3.988281-8.921876 8.921875s3.988282 8.921875 8.921876 8.921875h93.996093c1.375 3.097656 2.875 6.066406 4.488281 8.921875h-73.058593c-4.933594 0-8.921875 3.988281-8.921875 8.925781 0 4.933594 3.988281 8.921875 8.921875 8.921875h86.164062c3.035157 3.21875 6.21875 6.242188 9.671875 8.921875h-203.589844zm258.746094 0c-55.914062 0-75.839844-48.394532-75.839844-93.683594 0-45.289063 19.925782-93.683594 75.839844-93.683594 55.914063 0 75.839844 48.394531 75.839844 93.683594 0 45.289062-19.921875 93.683594-75.839844 93.683594zm0 0"/><path d="m441.488281 115.105469c-3.847656.070312-7.003906 3.730469-7.003906 8.171875 0 4.445312 3.167969 7.871094 7.003906 7.65625 3.773438-.203125 6.78125-3.863282 6.78125-8.164063 0-4.308593-3.007812-7.734375-6.78125-7.664062zm0 0"/><path d="m387.089844 133.960938c-4.890625.265624-8.921875 4.558593-8.921875 9.582031 0 5.023437 4.03125 8.714843 8.921875 8.261719 4.789062-.445313 8.597656-4.71875 8.597656-9.566407 0-4.84375-3.808594-8.546875-8.597656-8.277343zm0 0"/><path d="m387.089844 71.503906c4.789062.355469 8.597656-3.285156 8.597656-8.128906 0-4.835938-3.808594-9.1875-8.597656-9.714844-4.890625-.546875-8.921875 3.078125-8.921875 8.089844 0 5.015625 4.039062 9.386719 8.921875 9.753906zm0 0"/><path d="m454.84375 153.195312c-3.601562.402344-6.574219 4.222657-6.574219 8.523438s2.972657 7.351562 6.574219 6.816406c3.542969-.527344 6.371094-4.328125 6.371094-8.496094 0-4.175781-2.828125-7.238281-6.371094-6.84375zm0 0"/><path d="m419.753906 148.777344c-8.566406.796875-15.757812 9.171875-15.757812 18.683594 0 9.511718 7.191406 16.015624 15.757812 14.589843 8.253906-1.375 14.722656-9.65625 14.722656-18.542969.007813-8.894531-6.46875-15.496093-14.722656-14.730468zm0 0"/><path d="m427.238281 66.292969c7.988281.742187 14.25-5.765625 14.25-14.507813 0-8.742187-6.261719-16.871094-14.25-18.203125-8.277343-1.382812-15.230469 5.035157-15.230469 14.382813.011719 9.34375 6.953126 17.558594 15.230469 18.328125zm0 0"/><path d="m387.089844 107.191406c0 9.851563 7.714844 17.558594 16.90625 17.21875 8.84375-.328125 15.757812-8.027344 15.757812-17.21875 0-9.1875-6.925781-16.890625-15.757812-17.21875-9.179688-.339844-16.90625 7.359375-16.90625 17.21875zm0 0"/><path d="m458.054688 69.148438c-5.34375-.492188-9.777344 4.328124-9.777344 10.777343 0 6.453125 4.433594 11.851563 9.777344 12.046875 5.210937.195313 9.34375-4.648437 9.34375-10.804687s-4.132813-11.539063-9.34375-12.019531zm0 0"/><path d="m264.917969 294.15625c-13.945313-29.449219-49.3125-46.339844-97.046875-46.339844-47.726563 0-83.09375 16.898438-97.046875 46.339844-7.90625 16.6875-7.15625 30.148438-3.703125 40.195312-4.476563 15.320313-2.40625 29.792969 6.246094 42.015626 15.320312 21.644531 49.761718 34.046874 94.503906 34.046874 44.746094 0 79.183594-12.417968 94.515625-34.054687 8.644531-12.226563 10.722656-26.695313 6.242187-42.015625 3.445313-10.046875 4.183594-23.511719-3.710937-40.1875zm-177.980469 7.648438c15.453125-32.621094 61.742188-36.144532 80.925781-36.144532 19.179688 0 65.480469 3.523438 80.921875 36.136719 5.085938 10.75 5.792969 20.414063 2.160156 28.820313-.421874.960937-.917968 1.890624-1.445312 2.816406-.152344.269531-.277344.546875-.4375.8125-.195312.320312-.445312.625-.652344.9375-1.292968 1.953125-2.765625 3.835937-4.53125 5.601562-.097656.097656-.207031.1875-.304687.277344-1.738281 1.714844-3.738281 3.328125-5.90625 4.855469-.304688.214843-.570313.4375-.882813.648437-2.132812 1.445313-4.496094 2.765625-6.984375 4.03125-.574219.289063-1.117187.582032-1.695312.867188-2.453125 1.160156-5.085938 2.230468-7.84375 3.21875-.757813.277344-1.515625.546875-2.300781.804687-2.808594.9375-5.753907 1.773438-8.832032 2.53125-.839844.207031-1.679687.402344-2.535156.589844-3.230469.722656-6.574219 1.367187-10.0625 1.902344-.742188.105469-1.5.203125-2.25.3125-3.738281.507812-7.585938.9375-11.582031 1.222656-.472657.035156-.972657.050781-1.453125.078125-4.34375.277344-8.789063.445312-13.402344.445312-4.605469 0-9.054688-.167968-13.390625-.445312-.484375-.027344-.980469-.042969-1.464844-.078125-3.996093-.285156-7.824219-.714844-11.5625-1.222656-.757812-.109375-1.527343-.195313-2.273437-.3125-3.472656-.527344-6.800782-1.171875-10.019532-1.882813-.875-.195312-1.742187-.394531-2.597656-.609375-3.050781-.75-5.980468-1.585937-8.761718-2.515625-.8125-.265625-1.597657-.550781-2.382813-.835937-2.722656-.980469-5.324219-2.035157-7.753906-3.1875-.625-.292969-1.195313-.605469-1.800781-.910157-2.453126-1.25-4.785157-2.550781-6.890626-3.96875-.347656-.234374-.648437-.492187-.988281-.734374-2.097656-1.488282-4.03125-3.050782-5.738281-4.710938-.160156-.160156-.328125-.300781-.488281-.464844-1.695313-1.710937-3.132813-3.53125-4.382813-5.425781-.242187-.363281-.527344-.703125-.742187-1.070313-.085938-.152343-.152344-.300781-.242188-.453124-.605469-1.035157-1.15625-2.097657-1.632812-3.175782-3.578125-8.402344-2.863281-18.054687 2.207031-28.761718zm160.875 64.25c-11.75 16.601562-41.640625 26.523437-79.941406 26.523437-38.304688 0-68.183594-9.914063-79.9375-26.515625-1.933594-2.738281-3.34375-5.628906-4.21875-8.679688.375.3125.839844.570313 1.222656.875 1.292969 1.015626 2.675781 1.96875 4.078125 2.925782 1.417969.953125 2.890625 1.875 4.414063 2.765625 1.609374.9375 3.203124 1.855469 4.925781 2.722656 1.605469.800781 3.339843 1.523437 5.042969 2.253906 2.78125 1.207031 5.683593 2.320313 8.726562 3.339844 2.375.792969 4.738281 1.597656 7.253906 2.273437 1.890625.507813 3.882813.917969 5.855469 1.363282 2.390625.546875 4.796875 1.0625 7.296875 1.511718 1.9375.339844 3.898438.648438 5.898438.925782 2.933593.417968 5.949218.75 9.019531 1.042968 1.722656.160157 3.410156.347657 5.167969.464844 4.941406.339844 9.992187.554688 15.238281.554688 5.246093 0 10.304687-.214844 15.246093-.554688 1.75-.113281 3.417969-.304687 5.121094-.464844 3.097656-.285156 6.140625-.621093 9.101563-1.050781 1.972656-.277343 3.917969-.582031 5.828125-.921875 2.550781-.453125 5.003906-.980468 7.429687-1.535156 1.921875-.4375 3.875-.839844 5.71875-1.335938 2.707031-.734374 5.257813-1.582031 7.78125-2.445312 2.820313-.953125 5.496094-2.007812 8.09375-3.125 1.765625-.757812 3.550781-1.507812 5.21875-2.335938 1.695313-.847656 3.285157-1.765624 4.863281-2.683593 1.546876-.902344 3.035157-1.832031 4.472657-2.792969 1.398437-.949219 2.773437-1.902344 4.066406-2.917969.394531-.304687.851563-.574219 1.234375-.882812-.878906 3.074219-2.292969 5.957031-4.21875 8.699219zm0 0"/><path d="m143.074219 319.898438c-.375 3.648437 3.175781 6.699218 7.941406 6.699218 4.761719 0 8.699219-3.050781 8.769531-6.699218.070313-3.523438-3.496094-6.28125-7.964844-6.28125-4.472656 0-8.390624 2.757812-8.746093 6.28125zm0 0"/><path d="m139.425781 287.242188c3.875 0 7.21875-2.023438 7.46875-4.453126.242188-2.351562-2.542969-4.21875-6.21875-4.21875s-6.996093 1.867188-7.433593 4.21875c-.453126 2.4375 2.3125 4.453126 6.183593 4.453126zm0 0"/><path d="m202.523438 287.242188c3.871093 0 6.46875-2.015626 5.816406-4.441407-.632813-2.355469-4.101563-4.222656-7.78125-4.222656-3.675782 0-6.308594 1.867187-5.871094 4.222656.457031 2.425781 3.964844 4.441407 7.835938 4.441407zm0 0"/><path d="m118.796875 326.652344c-4.761719 0-9.597656 3.148437-10.839844 7.15625-1.28125 4.164062 1.765625 7.664062 6.878907 7.664062 5.113281 0 10.039062-3.5 10.984374-7.664062.898438-4.007813-2.25-7.15625-7.023437-7.15625zm0 0"/><path d="m111.328125 313.617188c8.941406 0 17.175781-5.308594 18.316406-11.472657 1.070313-5.78125-4.558593-10.207031-12.515625-10.207031-7.960937 0-15.960937 4.425781-17.976562 10.207031-2.160156 6.164063 3.238281 11.472657 12.175781 11.472657zm0 0"/><path d="m207.164062 307.703125c1.480469 6.546875 10.242188 12.195313 19.476563 12.195313s14.507813-5.648438 11.945313-12.195313c-2.398438-6.132813-10.867188-10.804687-19.046876-10.804687-8.183593 0-13.757812 4.683593-12.375 10.804687zm0 0"/><path d="m167.78125 302.140625c8.421875 0 14.765625-4.710937 14.195312-10.203125-.535156-5.167969-7.058593-9.136719-14.597656-9.136719-7.539062 0-13.902344 3.96875-14.222656 9.136719-.335938 5.496094 6.203125 10.203125 14.625 10.203125zm0 0"/><path d="m202.289062 349.644531c7.941407 0 13.109376-5.585937 11.625-12.125-1.398437-6.164062-8.269531-10.921875-15.425781-10.921875-7.152343 0-12.453125 4.757813-11.820312 10.921875.679687 6.539063 7.683593 12.125 15.621093 12.125zm0 0"/></svg>