<svg height="512pt" fill='black'  viewBox="-89 0 512 512" width="512pt" xmlns="http://www.w3.org/2000/svg"><path d="m333.054688 193.882812-.027344-4.007812c0-.257812-.0625-.496094-.070313-.753906-.042969-.929688-.089843-1.847656-.257812-2.761719-.242188-1.359375-.621094-2.671875-1.121094-3.933594-.210937-.53125-.46875-1.019531-.726563-1.535156-.746093-1.519531-1.617187-2.964844-2.726562-4.246094l-148.566406-169.699219c-3.878906-4.421874-9.441406-6.945312-15.292969-6.945312-.054687 0-.105469 0-.160156 0-5.914063.0429688-11.5 2.65625-15.328125 7.167969l-144 169.671875c-1.121094 1.316406-1.980469 2.789062-2.707032 4.335937-.1875.390625-.382812.761719-.550781 1.164063-.523437 1.324218-.914062 2.707031-1.15625 4.144531-.140625.792969-.175781 1.574219-.230469 2.382813-.015624.28125-.0781245.558593-.0781245.84375l-.0546875 4.03125.523438.46875c.328124 1.539062.703124 3.066406 1.394531 4.519531l144.03125 301.707031c3.375 7.085938 10.351562 11.507812 18.203125 11.5625h.125c7.785156 0 14.765625-4.335938 18.203125-11.332031l148.546875-301.660157c.738281-1.492187 1.136718-3.074218 1.492187-4.644531zm-168.796876-176.121093c.445313 0 1.261719.113281 1.910157.871093l147.5625 168.554688c-4.464844 3.6875-9.242188 7.183594-14.289063 10.480469-3-2.160157-6.359375-3.660157-9.953125-4.21875-1.234375-11.785157-9.9375-21.222657-20.96875-22.882813-1.242187-11.777344-9.933593-21.207031-20.964843-22.867187-1.242188-11.773438-9.9375-21.207031-20.957032-22.867188-1.242187-11.773437-9.9375-21.207031-20.964844-22.867187-1.039062-9.945313-7.363281-18.285156-16.207031-21.578125-5.585937-8.101563-14.457031-12.992188-23.96875-12.992188s-18.382812 4.894531-23.964843 12.992188c-8.847657 3.292969-15.167969 11.632812-16.207032 21.578125-11.03125 1.667968-19.722656 11.089844-20.96875 22.867187-11.027344 1.667969-19.722656 11.089844-20.957031 22.867188-11.027344 1.667969-19.722656 11.089843-20.964844 22.867187-11.03125 1.667969-19.730469 11.097656-20.964843 22.882813-3.144532.480469-6.136719 1.660156-8.863282 3.367187-4.628906-3.082031-9.066406-6.304687-13.195312-9.722656l42.496094-50.089844 100.453124-118.335937c.675782-.800781 1.660157-1.101563 1.9375-.90625zm85.367188 203.1875c-.949219.300781-1.910156.59375-2.871094.898437-1.164062.355469-2.378906.628906-3.558594.96875 5.601563-10.933594 3.957032-24.644531-5.1875-33.789062l-21.660156-21.660156c-.683594-.683594-1.457031-1.191407-2.183594-1.785157 1.828126-9.324219-.914062-19.082031-7.867187-26.027343l-21.660156-21.660157c-11.34375-11.339843-29.792969-11.339843-41.132813 0l-21.660156 21.660157c-7.105469 7.09375-9.785156 17.34375-7.65625 26.878906-.363281.328125-.78125.578125-1.136719.921875l-21.660156 21.660156c-8.796875 8.800781-10.683594 21.828125-5.832031 32.546875-.675782-.214844-1.351563-.417969-2.015625-.640625-5.710938-1.847656-11.292969-3.855469-16.683594-6.0625-.207031-.089844-.410156-.152344-.613281-.242187-4.699219-1.945313-9.175782-4.121094-13.597656-6.332032 3.765624-2.707031 6.402343-7.203125 6.402343-11.972656 0-4.5625 3.074219-8.273438 6.847657-8.273438 7.398437 0 14.121093-6.953124 14.121093-14.601562 0-4.566406 3.074219-8.277344 6.84375-8.277344 7.398438 0 14.121094-6.953125 14.121094-14.597656 0-4.566406 3.074219-8.277344 6.847656-8.277344 7.386719 0 14.121094-6.953125 14.121094-14.601562 0-4.5625 3.070313-8.277344 6.84375-8.277344 7.398437 0 14.121094-6.953125 14.121094-14.597656 0-4.058594 2.53125-7.558594 5.898437-8.132813l4.339844-.753906 2.023438-3.917969c2.242187-4.316406 6.09375-6.898437 10.304687-6.898437 4.207031 0 8.0625 2.582031 10.300781 6.898437l2.023438 3.917969 4.34375.753906c3.355468.574219 5.894531 4.074219 5.894531 8.132813 0 7.636718 6.734375 14.597656 14.121094 14.597656 3.773437 0 6.847656 3.714844 6.847656 8.277344 0 7.636718 6.730469 14.601562 14.121094 14.601562 3.773437 0 6.84375 3.710938 6.84375 8.277344 0 7.636719 6.730469 14.597656 14.121093 14.597656 3.773438 0 6.847657 3.710938 6.847657 8.277344 0 7.636719 6.730469 14.601562 14.117187 14.601562 3.777344 0 6.847656 3.710938 6.847656 8.273438 0 5.160156 3.082032 9.992188 7.351563 12.601562-9.359375 4.59375-19.214844 8.667969-29.640625 12.035157zm-145.671875-3.347657c-4.414063-4.414062-4.414063-11.605468 0-16.019531l21.65625-21.660156c.945313-.941406 2.0625-1.582031 3.199219-2.132813.71875-.339843 1.476562-.507812 2.230468-.683593.542969-.132813 1.082032-.273438 1.632813-.320313.664063-.0625 1.324219-.035156 1.972656.019532.726563.070312 1.4375.210937 2.148438.417968.503906.140625 1.019531.273438 1.5.488282 1.191406.550781 2.34375 1.226562 3.328125 2.210937l10.558594 10.566406c-.515626.585938-.886719 1.246094-1.339844 1.859375-.089844.121094-.195313.230469-.285156.355469l-.027344-.019531c-.042969.0625-.070313.132812-.113282.1875-.3125.4375-.621093.871094-.898437 1.3125-.433594.695312-.796875 1.414062-1.164063 2.132812-.007812.011719-.015624.027344-.027343.035156-.140625.277344-.257813.550782-.390625.820313-.300782.640625-.648438 1.242187-.898438 1.898437-.441406 1.136719-.734375 2.308594-1.027344 3.492188-.140624.566406-.347656 1.117188-.453124 1.695312-.328126 1.757813-.507813 3.542969-.507813 5.335938v.011719c0 1.78125.1875 3.558593.507813 5.320312.105468.585938.320312 1.144531.460937 1.722657.292969 1.160156.585937 2.324218 1.023437 3.453124.257813.664063.613282 1.296876.921876 1.945313.46875.992187.949218 1.980469 1.535156 2.929687.417968.664063.914062 1.285157 1.386718 1.917969.441407.59375.796876 1.226563 1.296876 1.792969l-4.308594 4.296875c-.222656-.015625-.460938-.007813-.683594-.027344-.265625-.015625-.53125-.042969-.789062-.0625-2.070313-.140625-4.121094-.390625-6.191407-.574219-4.359375-.410156-8.691406-.863281-12.972656-1.464843-2.035156-.285157-4.039063-.605469-6.058594-.933594-2.050781-.339844-4.039062-.78125-6.074219-1.15625zm27.242187-58.59375c.234376-2.554687 1.316407-5.015624 3.199219-6.898437l21.660157-21.660156c4.410156-4.421875 11.605468-4.421875 16.019531 0l21.660156 21.660156c1.855469 1.863281 2.949219 4.253906 3.199219 6.757813-.222656-.007813-.4375.042968-.648438.035156-.949218-.015625-1.882812.097656-2.824218.179687-1.003907.078125-2.007813.105469-2.984376.285157-.753906.140624-1.472656.40625-2.21875.601562-1.121093.304688-2.257812.550781-3.328124.988281-.660157.265625-1.261719.65625-1.894532.976563-1.082031.53125-2.191406 1.011718-3.214844 1.683594-1.625 1.066406-3.167968 2.320312-4.597656 3.75l-10.515625 10.511718-3.703125-3.703125-6.800781-6.8125c-1.394531-1.394531-2.90625-2.609375-4.503906-3.667969-5.148438-3.417968-11.152344-4.945312-17.101563-4.730468-.476562.011718-.9375.011718-1.402344.042968zm94.257813 58.59375-12.070313 12.058594c-.921874.160156-1.820312.371094-2.753906.523438-1.820312.285156-3.648437.507812-5.476562.765625-4.574219.628906-9.183594 1.152343-13.835938 1.5625-1.933594.167969-3.871094.34375-5.800781.46875-1.277344.089843-2.574219.082031-3.859375.140625l-4.390625-4.386719-11.144531-11.144531c-4.410156-4.414063-4.410156-11.605469 0-16.019532l11.144531-11.144531 10.515625-10.523437c1.003906-1.003906 2.175781-1.707032 3.390625-2.257813.339844-.148437.683594-.246093 1.03125-.363281.941406-.3125 1.910156-.496094 2.886719-.558594.371094-.019531.746094-.0625 1.125-.054687 1.078125.042969 2.125.265625 3.152344.613281.257812.089844.535156.097656.792968.203125 1.3125.550781 2.566406 1.34375 3.628906 2.414063l21.660157 21.660156c4.414062 4.4375 4.414062 11.628906.003906 16.042968zm-58.886719 275.207032c-.578125 1.164062-1.554687 1.414062-2.273437 1.414062 0 0-.007813 0-.015625 0-.730469 0-1.714844-.257812-2.285156-1.449218l-132.066407-276.636719c.410157.246093.859375.460937 1.269531.710937 3.25 1.945313 6.570313 3.808594 9.972657 5.601563 1.820312.949219 3.6875 1.855469 5.542969 2.769531 3.886718 1.910156 7.796874 3.78125 11.871093 5.488281.675781.285157 1.386719.523438 2.070313.800781 9.207031 3.761719 18.824218 7.003907 28.8125 9.722657 1.175781.316406 2.300781.699219 3.472656 1 3.925781 1.015625 7.949219 1.859375 11.980469 2.710937.550781.113282 1.082031.257813 1.632812.371094l.117188.117188 2.652343.523437c.046876.007813.089844.007813.125.015625 1.429688.273438 2.886719.488281 4.324219.746094 3.480469.621094 6.972657 1.171875 10.515625 1.671875 1.855469.265625 3.683594.574219 5.550782.804687.078124.011719.167968.011719.257812.027344 2.132812.257812 4.296875.390625 6.445312.605469 2.808594.273437 5.578126.59375 8.410157.789062 1.722656.125 3.4375.230469 5.160156.320313.246094.007812.488281.054687.726563.0625l3.941406.195312.117187-.113281c3.886719.148437 7.769531.363281 11.695313.363281 2.683594 0 5.328125-.179687 8-.25l.160156.160156 3.882812-.160156c.996094-.035156 1.988282-.167968 2.984376-.21875 2.148437-.109375 4.296874-.214844 6.4375-.367187 2.441406-.167969 4.847656-.417969 7.265624-.648438 1.855469-.175781 3.703126-.328125 5.550782-.539062 2.539062-.292969 5.050781-.640625 7.566406-.996094 3.273438-.453125 6.535156-.921875 9.757812-1.484375.273438-.050781.570313-.070312.84375-.121094l2.65625-.472656c1.875-.355469 3.695313-.824219 5.550782-1.214844 15.246094-3.152344 29.777344-7.476562 43.433594-12.921875.902343-.363281 1.828124-.683593 2.722656-1.054687 4.210937-1.742188 8.277344-3.625 12.300781-5.570313 1.671875-.808593 3.3125-1.625 4.957031-2.46875 3.613282-1.863281 7.164063-3.78125 10.601563-5.824219.425781-.25.890625-.464843 1.304687-.722656zm0 0"/></svg>