<svg height="512pt" viewBox="-4 0 512 512.00148" width="512pt" xmlns="http://www.w3.org/2000/svg"><path d="m34.382812 397.242188h100.527344c12.527344 0 23.703125-6.433594 29.875-17.222657 6.070313-10.601562 6.011719-23.222656-.167968-33.765625l-50.265626-85.773437c-6.214843-10.601563-17.320312-16.933594-29.710937-16.933594-12.386719 0-23.5 6.332031-29.707031 16.933594l-50.253906 85.773437c-6.179688 10.542969-6.242188 23.164063-.167969 33.765625 6.167969 10.789063 17.335937 17.222657 29.871093 17.222657zm-14.476562-42.050782 50.261719-85.777344c3.011719-5.140624 8.421875-8.210937 14.480469-8.210937 6.054687 0 11.464843 3.074219 14.476562 8.210937l50.261719 85.777344c2.984375 5.082032 3.011719 10.9375.082031 16.054688-2.992188 5.226562-8.441406 8.34375-14.558594 8.34375h-100.527344c-6.117187 0-11.5625-3.125-14.554687-8.34375-2.933594-5.117188-2.90625-10.972656.078125-16.054688zm0 0"/><path d="m8.835938 467.863281h35.308593v44.136719h52.964844v-44.136719h317.792969v44.136719h52.964844v-44.136719h35.308593v-61.792969h-494.339843zm70.621093 26.484375h-17.65625v-26.484375h17.65625zm370.753907 0h-17.65625v-26.484375h17.65625zm-423.71875-70.621094h459.03125v26.484376h-459.03125c0-.003907 0-26.484376 0-26.484376zm0 0"/><path d="m176.558594 308.96875v8.828125c0 43.8125 35.644531 79.449219 79.449218 79.449219 43.800782 0 79.449219-35.636719 79.449219-79.449219v-8.828125c0-43.808594-35.648437-79.449219-79.449219-79.449219-43.804687 0-79.449218 35.640625-79.449218 79.449219zm141.238281 0v8.828125c0 34.066406-27.714844 61.792969-61.792969 61.792969-34.074218 0-61.789062-27.726563-61.789062-61.792969v-8.828125c0-34.066406 27.714844-61.792969 61.789062-61.792969 34.078125 0 61.792969 27.726563 61.792969 61.792969zm0 0"/><path d="m476.695312 229.519531h-105.933593c-14.597657 0-26.480469 11.882813-26.480469 26.484375v114.757813c0 14.601562 11.878906 26.484375 26.480469 26.484375h105.929687c14.601563 0 26.484375-11.882813 26.484375-26.484375v-114.757813c0-14.601562-11.878906-26.484375-26.480469-26.484375zm8.824219 141.242188c0 4.871093-3.960937 8.828125-8.828125 8.828125h-105.929687c-4.863281 0-8.828125-3.957032-8.828125-8.828125v-114.757813c0-4.871094 3.964844-8.828125 8.828125-8.828125h105.929687c4.867188 0 8.828125 3.957031 8.828125 8.828125zm0 0"/><path d="m69.5 361.933594h30.296875c5.921875 0 11.421875-3.167969 14.351563-8.289063 2.808593-4.898437 2.914062-10.679687.316406-15.640625l-14.933594-38.1875-.601562-1.253906c-2.992188-5.101562-8.324219-8.148438-14.273438-8.148438s-11.28125 3.046876-14.265625 8.15625l-15.546875 39.433594c-2.59375 4.960938-2.488281 10.75.316406 15.640625 2.914063 5.121094 8.414063 8.289063 14.339844 8.289063zm15.148438-51.695313 13.320312 34.039063h-26.644531zm0 0"/><path d="m211.867188 313.382812c0 26.765626 19.800781 48.550782 44.136718 48.550782 24.339844 0 44.140625-21.785156 44.140625-48.550782 0-26.765624-19.800781-48.550781-44.140625-48.550781-24.335937 0-44.136718 21.785157-44.136718 48.550781zm70.621093 0c0 17.035157-11.878906 30.894532-26.484375 30.894532-14.597656 0-26.480468-13.859375-26.480468-30.894532 0-17.035156 11.878906-30.898437 26.480468-30.898437 14.605469 0 26.484375 13.871094 26.484375 30.898437zm0 0"/><path d="m273.660156 313.382812c0-7.3125-7.902344-13.242187-17.65625-13.242187-9.75 0-17.652344 5.929687-17.652344 13.242187s7.902344 13.242188 17.652344 13.242188c9.753906 0 17.65625-5.929688 17.65625-13.242188zm0 0"/><path d="m459.039062 256.003906h-70.621093c-9.738281 0-17.65625 7.917969-17.65625 17.65625v79.449219c0 9.734375 7.917969 17.65625 17.65625 17.65625h70.621093c9.738282 0 17.65625-7.921875 17.65625-17.65625v-79.449219c0-9.730468-7.921874-17.65625-17.65625-17.65625zm-.027343 97.101563h-70.59375v-79.445313h70.621093zm0 0"/><path d="m406.074219 308.96875c2.257812 0 4.519531-.863281 6.242187-2.585938l8.828125-8.828124c3.449219-3.453126 3.449219-9.03125 0-12.480469-3.453125-3.453125-9.03125-3.453125-12.484375 0l-8.824218 8.828125c-3.453126 3.453125-3.453126 9.03125 0 12.480468 1.71875 1.730469 3.980468 2.585938 6.238281 2.585938zm0 0"/><path d="m408.660156 341.691406c1.722656 1.730469 3.980469 2.585938 6.242188 2.585938 2.257812 0 4.519531-.863282 6.242187-2.585938 3.449219-3.449218 3.449219-9.03125 0-12.480468l-8.828125-8.828126c-3.453125-3.453124-9.03125-3.453124-12.480468 0-3.453126 3.453126-3.453126 9.03125 0 12.480469zm0 0"/><path d="m426.316406 324.039062c1.722656 1.726563 3.980469 2.585938 6.242188 2.585938 2.257812 0 4.519531-.867188 6.242187-2.585938l8.824219-8.828124c3.453125-3.453126 3.453125-9.03125 0-12.484376-3.449219-3.449218-9.027344-3.449218-12.480469 0l-8.828125 8.828126c-3.453125 3.453124-3.453125 9.039062 0 12.484374zm0 0"/><path d="m120.195312 203.039062c.855469 0 1.722657-.121093 2.578126-.386718l38.335937-11.699219-33.589844 22.394531c-4.050781 2.710938-5.144531 8.183594-2.445312 12.246094 1.703125 2.550781 4.503906 3.925781 7.355469 3.925781 1.675781 0 3.378906-.484375 4.886718-1.480469l82.460938-54.96875 268.320312-81.832031c4.660156-1.421875 7.289063-6.355469 5.867188-11.015625-1.417969-4.664062-6.371094-7.308594-11.015625-5.863281l-212.167969 64.707031 184.324219-122.890625c4.050781-2.707031 5.144531-8.179687 2.445312-12.242187-2.710937-4.058594-8.183593-5.15625-12.242187-2.445313l-233.191406 155.472657-94.492188 28.820312c-4.660156 1.421875-7.289062 6.355469-5.867188 11.015625 1.15625 3.796875 4.652344 6.242187 8.4375 6.242187zm0 0"/></svg>