<svg height="512pt" viewBox="-12 0 512 512.0016" width="512pt" xmlns="http://www.w3.org/2000/svg"><path d="m217.101562 234.4375c-87.265624 0-217.101562 15.777344-217.101562 59.246094v1.21875c0 119.710937 97.386719 217.097656 217.101562 217.097656 119.710938 0 217.105469-97.394531 217.105469-217.097656v-1.21875c0-43.46875-129.84375-59.246094-217.105469-59.246094zm0 18.039062c14.222657 0 27.574219.371094 40.3125.957032-4.382812 2.082031-8.398437 5.167968-11.78125 9.253906l13.882813 11.519531c6.160156-7.433593 16.039063-7.433593 22.199219 0l13.886718-11.519531c-2.535156-3.058594-5.496093-5.402344-8.625-7.351562 85.019532 7.261718 129.191407 26.808593 129.191407 38.355468 0 14.390625-68.367188 41.207032-199.066407 41.207032-74.335937 0-128.441406-8.6875-161.339843-18.816407 5.945312-3.867187 13.449219-2.851562 18.480469 3.230469l13.882812-11.519531c-6.566406-7.921875-15.433594-12.277344-24.984375-12.277344-9.554687 0-18.421875 4.355469-24.988281 12.277344l4.457031 3.695312c-16.171875-6.339843-24.570313-12.808593-24.570313-17.796875-.007812-14.386718 68.363282-41.214844 199.0625-41.214844zm0 241.492188c-101.222656 0-184.988281-75.964844-197.40625-173.863281 39.589844 23.644531 130.851563 32.84375 197.40625 32.84375 66.5625 0 157.820313-9.203125 197.414063-32.84375-12.429687 97.898437-96.195313 173.863281-197.414063 173.863281zm0 0"/><path d="m263.671875 316.8125 13.882813 11.519531c6.164062-7.433593 16.039062-7.433593 22.203124 0l13.882813-11.519531c-6.566406-7.921875-15.433594-12.277344-24.988281-12.277344-9.550782 0-18.414063 4.355469-24.980469 12.277344zm0 0"/><path d="m317.796875 307.792969 13.882813 11.519531c6.160156-7.433594 16.039062-7.433594 22.199218 0l13.882813-11.519531c-6.566407-7.921875-15.433594-12.277344-24.984375-12.277344-9.554688 0-18.414063 4.355469-24.980469 12.277344zm0 0"/><path d="m389.960938 301.269531 13.882812-11.519531c-6.566406-7.921875-15.433594-12.277344-24.984375-12.277344-9.554687 0-18.421875 4.355469-24.988281 12.277344l13.882812 11.519531c6.160156-7.433593 16.046875-7.433593 22.207032 0zm0 0"/><path d="m335.835938 292.25 13.882812-11.519531c-6.566406-7.921875-15.433594-12.277344-24.984375-12.277344-9.554687 0-18.421875 4.355469-24.988281 12.277344l13.882812 11.519531c6.160156-7.433594 16.046875-7.433594 22.207032 0zm0 0"/><path d="m281.714844 301.269531 13.882812-11.519531c-6.566406-7.921875-15.433594-12.277344-24.988281-12.277344-9.550781 0-18.417969 4.355469-24.984375 12.277344l13.882812 11.519531c6.15625-7.433593 16.042969-7.433593 22.207032 0zm0 0"/><path d="m227.589844 292.25 13.882812-11.519531c-6.566406-7.921875-15.433594-12.277344-24.984375-12.277344-9.554687 0-18.421875 4.355469-24.988281 12.277344l13.882812 11.519531c6.160157-7.433594 16.046876-7.433594 22.207032 0zm0 0"/><path d="m200.527344 316.8125 13.886718 11.519531c6.160157-7.433593 16.039063-7.433593 22.199219 0l13.882813-11.519531c-6.566406-7.921875-15.433594-12.277344-24.988282-12.277344-9.554687 0-18.414062 4.355469-24.980468 12.277344zm0 0"/><path d="m146.40625 316.8125 13.882812 11.519531c6.160157-7.433593 16.039063-7.433593 22.199219 0l13.882813-11.519531c-6.566406-7.921875-15.433594-12.277344-24.984375-12.277344-9.554688 0-18.414063 4.355469-24.980469 12.277344zm0 0"/><path d="m115.183594 319.3125c6.160156-7.433594 16.039062-7.433594 22.199218 0l13.886719-11.519531c-6.566406-7.921875-15.4375-12.277344-24.988281-12.277344s-18.421875 4.355469-24.988281 12.277344zm0 0"/><path d="m164.445312 292.25 13.882813-11.519531c-6.566406-7.921875-15.433594-12.277344-24.984375-12.277344-9.554688 0-18.421875 4.355469-24.988281 12.277344l13.882812 11.519531c6.160157-7.433594 16.046875-7.433594 22.207031 0zm0 0"/><path d="m92.28125 292.25 13.882812-11.519531c-6.566406-7.921875-15.433593-12.277344-24.984374-12.277344-9.554688 0-18.421876 4.355469-24.988282 12.277344l13.882813 11.519531c6.160156-7.433594 16.046875-7.433594 22.207031 0zm0 0"/><path d="m277.222656 69.59375c-2.046875-5.042969-5.277344-9.679688-9.871094-13.484375-2.046874-1.695313-3.527343-3.671875-4.5-5.773437l216.574219-32.484376-2.679687-17.851562-211.242188 31.6875-9.671875-11.664062c-4.953125 4.097656-8.316406 9.15625-10.292969 14.660156l-17.355468 2.597656c.859375-1.191406 1.832031-2.347656 3.078125-3.375l-11.511719-13.882812c-6.59375 5.464843-10.546875 12.566406-11.746094 20.285156l-18.335937 2.757812c.542969-3.375 2.402343-6.566406 5.511719-9.15625l-11.511719-13.886718c-7.917969 6.566406-12.285157 15.433593-12.285157 24.988281 0 .269531.082032.523437.089844.785156l-17.601562 2.632813c-.324219-1.117188-.53125-2.265626-.53125-3.429688 0-4.078125 2.046875-8.019531 5.757812-11.09375l-11.511718-13.882812c-7.921876 6.566406-12.285157 15.433593-12.285157 24.984374 0 2.074219.296875 4.105469.703125 6.105469l-20.078125 3.011719 1.332031 8.921875-.875 8.972656 35.597657 3.472657c.863281 1.785156 1.359375 3.671874 1.359375 5.59375 0 4.078124-2.046875 8.019531-5.753906 11.09375-7.921876 6.566406-12.285157 15.433593-12.285157 24.988281 0 9.550781 4.355469 18.417969 12.285157 24.984375 3.714843 3.085937 5.753906 7.019531 5.753906 11.097656 0 4.074219-2.046875 8.019531-5.753906 11.09375-7.921876 6.566406-12.285157 15.433594-12.285157 24.988281 0 9.550781 4.355469 18.417969 12.285157 24.984375l11.511718-13.882812c-3.71875-3.085938-5.757812-7.019532-5.757812-11.09375 0-4.078125 2.046875-8.019532 5.757812-11.097656 7.917969-6.566407 12.285156-15.433594 12.285156-24.984376 0-9.554687-4.355468-18.421874-12.285156-24.988281-3.71875-3.085937-5.757812-7.019531-5.757812-11.09375 0-4.078125 2.046875-8.019531 5.757812-11.097656 7.917969-6.566406 12.285156-15.433594 12.285156-24.984375 0-1.273438-.28125-2.5-.433593-3.742188l18.222656 1.777344c.109375.648438.246094 1.296875.246094 1.964844 0 4.078125-2.050781 8.019531-5.757813 11.09375-7.917968 6.566406-12.285156 15.433594-12.285156 24.988281 0 9.550781 4.355469 18.417969 12.285156 24.984375 3.714844 3.085938 5.757813 7.019532 5.757813 11.097656 0 4.074219-2.050781 8.019532-5.757813 11.09375-7.917968 6.566407-12.285156 15.433594-12.285156 24.988282 0 9.550781 4.355469 18.417968 12.285156 24.984375l11.511719-13.882813c-3.714844-3.085937-5.753906-7.019531-5.753906-11.09375 0-4.078125 2.046875-8.019531 5.753906-11.097656 7.921875-6.566406 12.285156-15.433594 12.285156-24.984375 0-9.554687-4.355469-18.421875-12.285156-24.988281-3.714844-3.085938-5.753906-7.015625-5.753906-11.09375s2.046875-8.019532 5.753906-11.097656c7.921875-6.566407 12.285156-15.433594 12.285156-24.984376 0-.0625-.015625-.117187-.015625-.179687l17.867188 1.738281c-.449219 3.507813-2.324219 6.855469-5.5625 9.535156-7.921875 6.566407-12.289063 15.433594-12.289063 24.988282 0 9.550781 4.355469 18.417968 12.289063 24.984375 3.714844 3.085937 5.753906 7.019531 5.753906 11.097656 0 4.074219-2.046875 8.019531-5.753906 11.09375-7.921875 6.566406-12.289063 15.433594-12.289063 24.988281 0 9.550782 4.355469 18.417969 12.289063 24.984375l11.507812-13.882812c-3.714844-3.085938-5.753906-7.019531-5.753906-11.09375 0-4.078125 2.046875-8.019531 5.753906-11.097657 7.921875-6.566406 12.289063-15.433593 12.289063-24.984374 0-9.554688-4.359375-18.421876-12.289063-24.988282-3.714844-3.085937-5.753906-7.015625-5.753906-11.09375s2.046875-8.019531 5.753906-11.09375c6.992188-5.792968 11.007813-13.414062 11.90625-21.679687l17.292969 1.6875c-.957031 2.226562-2.472656 4.320312-4.628906 6.105469-7.917969 6.566406-12.285157 15.433593-12.285157 24.988281 0 9.550781 4.355469 18.421875 12.285157 24.988281 3.71875 3.082031 5.757812 7.015625 5.757812 11.09375s-2.046875 8.019531-5.757812 11.09375c-7.917969 6.566406-12.285157 15.433594-12.285157 24.988281 0 9.550781 4.355469 18.417969 12.285157 24.984375l11.511719-13.882812c-3.714844-3.085938-5.753907-7.015625-5.753907-11.09375s2.046875-8.019532 5.753907-11.097656c7.921874-6.566407 12.285156-15.433594 12.285156-24.984376 0-9.554687-4.355469-18.421874-12.285156-24.988281-3.714844-3.082031-5.753907-7.015625-5.753907-11.09375s2.046875-8.019531 5.753907-11.09375c6.007812-4.980469 9.941406-11.277343 11.5-18.195312l207.375 20.238281 1.75-17.949219zm-24.101562-2.355469-13.75-1.34375c-2.027344-3.589843-4.664063-6.945312-8.109375-9.796875-.34375-.28125-.585938-.605468-.902344-.902344l14.363281-2.15625c1.433594 5.261719 4.328125 10.050782 8.398438 14.199219zm-54.171875-7.316406 11.539062-1.730469c.863281 1.820313 1.972657 3.535156 3.191407 5.203125l-12.78125-1.246093c-.585938-.78125-1.28125-1.492188-1.949219-2.226563zm0 0"/></svg>