<svg height="511pt" viewBox="-6 1 511 511.99498" width="511pt" xmlns="http://www.w3.org/2000/svg"><path d="m497.105469 101.359375c-3.417969-3.414063-8.9375-3.414063-12.351563 0l-30.878906 30.882813-9.265625-9.265626c-11.496094-11.511718-31.730469-11.511718-43.222656 0-5.757813 5.746094-8.925781 13.425782-8.925781 21.617188 0 8.183594 3.167968 15.851562 8.925781 21.617188l2.652343 2.652343h-44.289062c-9.632812 0-17.464844 7.835938-17.464844 17.46875v38.804688c-5.722656-2.105469-11.808594-3.257813-18.089844-3.257813-14 0-27.152343 5.449219-37.058593 15.355469-13.222657 13.222656-17.746094 31.78125-13.851563 48.792969-11.738281-7.632813-28.539062-6.402344-38.636718 3.703125-5.753907 5.746093-8.925782 13.425781-8.925782 21.617187 0 8.183594 3.171875 15.851563 8.925782 21.617188l2.65625 2.652344h-44.296876c-9.636718 0-17.46875 7.835937-17.46875 17.46875v38.882812c-11.929687-11.851562-31.265624-11.832031-43.171874.054688-11.910157 11.921874-11.910157 31.308593 0 43.222656l9.265624 9.265625-26.367187 26.367187c-.8125.804688-1.449219 1.773438-1.894531 2.847656-.445313 1.0625-.671875 2.199219-.671875 3.335938 0 9.632812-7.835938 17.46875-17.46875 17.46875-9.632813 0-17.46875-7.835938-17.46875-17.46875s7.835937-17.46875 17.46875-17.46875c4.832031 0 8.734375-3.902344 8.734375-8.734375 0-4.828125-3.902344-8.734375-8.734375-8.734375-19.265625 0-34.933594 15.667969-34.933594 34.9375 0 19.265625 15.667969 34.933594 34.933594 34.933594 17.886719 0 32.507812-13.554688 34.523437-30.910156l24.230469-24.226563 9.265625 9.265625c5.957031 5.957031 13.78125 8.933594 21.605469 8.933594s15.660156-2.984375 21.625-8.933594c11.902343-11.894531 11.914062-31.257812.054687-43.171875h38.882813c9.632812 0 17.464843-7.832031 17.464843-17.464844v-44.300781l2.65625 2.65625c5.964844 5.964844 13.792969 8.933594 21.617188 8.933594s15.65625-2.976563 21.625-8.933594c10.480469-10.480469 11.71875-26.742188 3.753906-38.621094 3.851563.875 7.75 1.449219 11.679688 1.449219 13.414062 0 26.839844-5.097656 37.046875-15.316406 9.90625-9.90625 15.355469-23.066407 15.355469-37.058594 0-6.28125-1.15625-12.355469-3.257813-18.078125h38.8125c9.632813 0 17.464844-7.832031 17.464844-17.46875v-44.285156l2.648437 2.644531c5.964844 5.964844 13.789063 8.933594 21.617188 8.933594 7.824218 0 15.65625-2.976563 21.625-8.933594 11.914062-11.914063 11.914062-31.300781 0-43.222656l-9.265625-9.265625 30.882812-30.882813c3.367188-3.433593 3.367188-8.960937-.039062-12.378906zm-303 352.40625c-5.109375 5.101563-13.433594 5.085937-18.523438 0l-30.882812-30.878906c-5.101563-5.113281-5.101563-13.417969 0-18.527344 2.546875-2.546875 5.910156-3.824219 9.273437-3.824219 3.355469 0 6.71875 1.277344 9.265625 3.824219l30.875 30.875c2.453125 2.453125 3.816407 5.746094 3.816407 9.277344-.007813 3.507812-1.371094 6.800781-3.824219 9.253906zm51.285156-48.289063-52.402344-.027343v-52.375h52.402344zm51.003906-54c-4.917969 4.917969-13.632812 4.910157-18.53125 0l-30.875-30.875c-2.453125-2.453124-3.816406-5.746093-3.816406-9.265624 0-3.519532 1.351563-6.800782 3.816406-9.265626 2.460938-2.460937 5.746094-3.816406 9.265625-3.816406 3.519532 0 6.800782 1.355469 9.265625 3.816406l30.882813 30.875c5.09375 5.117188 5.09375 13.421876-.007813 18.53125zm52.488281-52.488281c-13.632812 13.617188-35.78125 13.617188-49.40625 0-13.625-13.625-13.625-35.792969 0-49.40625 6.601563-6.605469 15.378907-10.234375 24.707032-10.234375 6.996094 0 13.679687 2.042969 19.363281 5.839844 1.773437 4.429688 5.300781 7.957031 9.730469 9.730469 3.796875 5.6875 5.839844 12.367187 5.839844 19.355469.003906 9.34375-3.628907 18.121093-10.234376 24.714843zm63.261719-60.253906-49.574219-.027344c-.453124-.488281-.863281-1.003906-1.34375-1.476562-.484374-.480469-.996093-.898438-1.496093-1.351563v-49.546875h52.402343v52.402344zm50.992188-54c-4.914063 4.914063-13.625 4.914063-18.53125 0l-30.875-30.875c-2.453125-2.453125-3.816407-5.746094-3.816407-9.265625s1.355469-6.804688 3.816407-9.265625c2.464843-2.464844 5.746093-3.816406 9.265625-3.816406 3.519531 0 6.804687 1.351562 9.265625 3.816406l30.882812 30.875c5.09375 5.113281 5.09375 13.421875-.007812 18.53125zm0 0"/><path d="m65.441406 347.746094 30.242188-30.242188 18.527344 18.53125c3.402343 3.40625 7.875 5.109375 12.347656 5.109375 4.46875 0 8.941406-1.703125 12.347656-5.109375l18.535156-18.523437c3.292969-3.292969 5.097656-7.675781 5.097656-12.347657 0-3.425781-.984374-6.675781-2.792968-9.46875 13.125-.566406 25.398437-5.886718 34.742187-15.238281 9.351563-9.347656 14.671875-21.617187 15.238281-34.742187 2.875 1.851562 6.167969 2.785156 9.460938 2.785156 4.480469 0 8.941406-1.695312 12.355469-5.101562l18.535156-18.53125c5.894531-5.914063 6.65625-15.050782 2.296875-21.808594 13.128906-.566406 25.398438-5.886719 34.742188-15.242188 9.355468-9.34375 14.671874-21.613281 15.242187-34.742187 2.871094 1.851562 6.164063 2.796875 9.457031 2.796875 4.480469 0 8.945313-1.695313 12.359375-5.101563l18.523438-18.53125c5.949219-5.941406 6.699219-15.15625 2.246093-21.941406 12.652344-.539063 25.160157-5.464844 34.804688-15.109375 9.902344-9.894531 15.351562-23.054688 15.351562-37.046875 0-11.03125-3.429687-21.519531-9.71875-30.332031l12.898438-12.898438c3.414062-3.414062 3.414062-8.933594 0-12.347656-3.414062-3.417969-8.933594-3.417969-12.347656 0l-12.980469 12.976562c-20.445313-14.53125-48.984375-12.777343-67.300781 5.546876-9.363282 9.363281-14.679688 21.648437-15.238282 34.792968-6.699218-4.191406-16.125-3.441406-21.816406 2.261719l-18.527344 18.527344c-3.292968 3.292969-5.097656 7.675781-5.097656 12.347656 0 3.46875 1.003906 6.769531 2.863282 9.589844-12.664063.539062-25.171876 5.464843-34.820313 15.105469-9.640625 9.644531-14.566406 22.160156-15.109375 34.8125-6.777344-4.453126-15.992188-3.703126-21.949219 2.246093l-18.523437 18.523438c-5.921875 5.914062-6.683594 15.058593-2.316406 21.816406-13.125.570313-25.398438 5.886719-34.742188 15.242187-9.652344 9.648438-14.578125 22.171876-15.109375 34.847657-6.707031-4.269531-16.199219-3.539063-21.9375 2.199219l-18.515625 18.519531c-3.300781 3.292969-5.121094 7.683593-5.121094 12.355469 0 4.671874 1.820313 9.066406 5.113282 12.351562l18.523437 18.523438-35.40625 35.398437c-.042969.042969-.105469.058594-.148437.105469-3.414063 3.40625-3.414063 8.933594 0 12.347656 6.800781 6.8125 6.800781 17.894531 0 24.707031-6.796876 6.796875-17.894532 6.8125-24.707032 0s-6.8125-17.894531 0-24.707031c3.414063-3.414062 3.414063-8.9375 0-12.347656-3.417968-3.414063-8.9375-3.417969-12.351562 0-13.625 13.621094-13.625 35.789062 0 49.40625 6.8125 6.800781 15.757812 10.207031 24.699218 10.207031 8.945313 0 17.90625-3.40625 24.710938-10.207031 11.453125-11.453125 13.148438-28.921875 5.316406-42.3125zm252.566406-314.316406c6.804688-6.804688 15.757813-10.21875 24.699219-10.21875 8.945313 0 17.894531 3.414062 24.699219 10.21875 6.605469 6.601562 10.238281 15.378906 10.238281 24.707031s-3.636719 18.097656-10.238281 24.699219c-13.617188 13.617187-35.789062 13.617187-49.398438 0-6.601562-6.601563-10.234374-15.371094-10.234374-24.699219s3.632812-18.105469 10.234374-24.707031zm-37.054687 37.058593 49.40625 49.398438-18.539063 18.515625-49.390624-49.390625zm-55.589844 55.578125c6.8125-6.800781 15.765625-10.207031 24.707031-10.207031 8.945313 0 17.894532 3.40625 24.699219 10.207031 6.605469 6.605469 10.238281 15.382813 10.238281 24.710938s-3.636718 18.09375-10.238281 24.699218c-13.195312 13.195313-36.183593 13.195313-49.386719.015626l-.042968-.042969c-13.59375-13.625-13.582032-35.773438.023437-49.382813zm-37.050781 37.058594 49.410156 49.40625-18.550781 18.507812-49.382813-49.390624zm-55.578125 55.582031c6.601563-6.601562 15.378906-10.234375 24.707031-10.234375s18.09375 3.632813 24.699219 10.234375c6.601563 6.605469 10.234375 15.371094 10.234375 24.699219s-3.632812 18.097656-10.234375 24.699219c-13.207031 13.207031-36.210937 13.207031-49.40625 0-13.625-13.617188-13.625-35.773438 0-49.398438zm-37.050781 37.046875 49.410156 49.410156-18.550781 18.503907-49.382813-49.386719zm0 0"/></svg>