<svg height="512pt" viewBox="-162 0 512 512" width="512pt" xmlns="http://www.w3.org/2000/svg"><path d="m184.75 371.804688.054688-.011719-.910157-11.285157c-1.542969-19.039062-6.566406-39.035156-15.789062-62.910156-2.605469-6.742187-4.058594-14.355468-4.644531-22.042968-1.296876-16.980469 2.050781-34.429688 9.683593-44.296876 1.488281-1.929687 2.722657-4.082031 3.945313-6.246093 5.121094-9.039063 7.980468-19.867188 7.9375-31.351563v-.019531c-.011719-.910156-.046875-1.75-.101563-2.59375l-.386719-13.035156-.25.066406c-5.683593-66.496094-44.808593-84.089844-57.710937-88.203125-1.113281-1.941406-2.648437-5.71875-3.6875-12.710938-.074219-.523437-.257813-.992187-.367187-1.5 9.960937-3.320312 17.1875-8.875 17.1875-17.417968v-36.789063c0-15.839843-24.765626-21.457031-45.984376-21.457031s-45.988281 5.617188-45.988281 21.457031v36.789063c0 8.546875 7.230469 14.089844 17.179688 17.410156-.117188.496094-.292969.976562-.367188 1.492188-1.039062 7.027343-2.574219 10.796874-4.027343 12.929687-12.589844 3.917969-51.699219 21.503906-57.371094 88.011719l-.332032-.09375-.300781 13.171875c-.046875.808593-.085937 1.617187-.09375 2.492187-.082031 14.238282 4.140625 27.59375 11.882813 37.617188 6.925781 8.957031 10.429687 24.179687 10.035156 39.621094-.15625 6.183593-.9375 12.390624-2.363281 18.25-.71875 2.921874-1.589844 5.765624-2.640625 8.46875-2.308594 5.96875-4.351563 11.691406-6.144532 17.21875-5.378906 16.582031-8.488281 31.398437-9.648437 45.691406-2.792969 34.589844-5.371094 82.585937-1.8125 115.242187.332031 16.667969 15.941406 36.230469 87.386719 36.230469 59.976562 0 95.984375-13.527344 96.574218-36.21875 3.203126-29.292969 1.464844-70.785156-.945312-103.976562zm-161.640625-19.351563c.246094-1.691406.457031-3.375.773437-5.105469.484376-2.730468 1.128907-5.554687 1.78125-8.378906.386719-1.691406.71875-3.347656 1.160157-5.078125.808593-3.144531 1.8125-6.429687 2.824219-9.71875.46875-1.535156.855468-3.007813 1.371093-4.582031 1.617188-4.929688 3.429688-10.023438 5.488281-15.359375 7.460938-19.316407 7.976563-42.960938 2.652344-62.175781-2.347656-8.441407-5.695312-16.113282-10.285156-22.042969-.054688-.074219-.097656-.167969-.15625-.242188-1.101562-1.453125-2.066406-3.042969-2.949219-4.699219-.277343-.523437-.527343-1.066406-.773437-1.601562-.652344-1.378906-1.222656-2.820312-1.730469-4.3125-.175781-.515625-.367187-1.019531-.523437-1.542969-.550782-1.878906-.976563-3.835937-1.289063-5.839843 20.722656 4.347656 45.867187 6.710937 72.28125 6.710937s51.550781-2.363281 72.273437-6.703125c-.3125 2.015625-.746093 3.964844-1.292968 5.839844-.160156.523437-.351563 1.03125-.527344 1.546875-.496094 1.488281-1.074219 2.914062-1.71875 4.292969-.257812.542968-.503906 1.09375-.78125 1.621093-.929688 1.746094-1.929688 3.417969-3.101562 4.9375-9.386719 12.148438-14.21875 31.152344-13.894532 50.484375.195313 11.597656 2.234375 23.316406 6.261719 33.734375 2.070313 5.355469 3.882813 10.449219 5.5 15.390625.507813 1.535156.875 2.960938 1.335937 4.460938 1.019532 3.328125 2.03125 6.640625 2.851563 9.8125.449219 1.757812.78125 3.429687 1.175781 5.148437.636719 2.789063 1.269532 5.566407 1.757813 8.261719.328125 1.820312.550781 3.585938.808593 5.371094.257813 1.746094.46875 3.496094.664063 5.214844-19.960937 4.496093-44.921875 6.933593-71.308594 6.933593s-51.347656-2.445312-71.304687-6.933593c.1875-1.804688.40625-3.617188.675781-5.445313zm43.03125-328.992187c2.90625-1.8125 12.058594-5.066407 27.59375-5.066407s24.6875 3.253907 27.59375 5.066407v32.78125c-2.371094 1.46875-8.984375 3.898437-19.773437 4.746093-5.085938.367188-10.570313.367188-15.636719 0-10.777344-.847656-17.402344-3.277343-19.773438-4.746093v-32.78125zm-.136719 84.183593c4.636719-1.441406 8.480469-4.515625 10.824219-8.625 2.761719-4.804687 4.757813-11.257812 6.511719-19.746093.242187.015624.515625.007812.765625.027343 3.226562.265625 6.464843.402344 9.628906.402344 3.605469 0 7.070313-.15625 10.960937.128906 1.167969 7.902344 3.164063 14.359375 5.925782 19.167969 2.351562 4.128906 6.207031 7.191406 10.851562 8.636719 9.914063 3.078125 40.964844 17.429687 44.765625 75.214843-20.132812 4.664063-45.507812 7.21875-72.496093 7.21875-26.972657 0-52.351563-2.554687-72.492188-7.226562 3.78125-57.777344 34.839844-72.117188 44.753906-75.199219zm101.375 366.542969-.054687 1.011719c0 4.71875-19.25 18.394531-78.1875 18.394531-54.578125 0-69-12.039062-69-18.394531l-.054688-1.011719c-3.007812-27.019531-1.5-65.859375.746094-97.839844 20.867187 4.441406 46.253906 6.878906 72.90625 6.878906s52.039063-2.4375 72.90625-6.878906c2.234375 31.960938 3.746094 70.785156.738281 97.839844zm0 0"/><path d="m92.003906 44.792969c5.085938 0 9.199219-4.113281 9.199219-9.199219s-4.113281-9.199219-9.199219-9.199219h-9.195312c-5.089844 0-9.199219 4.113281-9.199219 9.199219s4.109375 9.199219 9.199219 9.199219zm0 0"/><path d="m79.578125 456.722656c-17.34375.679688-23.589844-3.375-25.457031-5.175781-1.617188-1.554687-1.785156-3.007813-1.828125-3.007813 0 0 0 .007813-.011719.027344l.066406-10.152344c0-5.089843-4.113281-9.199218-9.199218-9.199218-5.085938 0-9.195313 4.109375-9.195313 9.199218v8.71875c-.285156 4.339844 1.195313 11.015626 6.351563 16.597657 7.066406 7.617187 18.984374 11.460937 35.503906 11.460937 1.453125 0 2.953125-.027344 4.480468-.089844 5.074219-.195312 9.023438-4.46875 8.828126-9.546874-.191407-5.089844-4.855469-9.042969-9.539063-8.832032zm0 0"/><path d="m43.148438 420.015625c5.085937 0 9.199218-4.109375 9.199218-9.195313v-9.289062c0-5.085938-4.113281-9.199219-9.199218-9.199219-5.085938 0-9.195313 4.113281-9.195313 9.199219v9.289062c0 5.085938 4.109375 9.195313 9.195313 9.195313zm0 0"/><path d="m50.71875 171.539062c.5625.101563 1.09375.148438 1.636719.148438 4.378906 0 8.238281-3.128906 9.039062-7.570312 3.671875-20.535157 21.808594-29.761719 22.582031-30.148438 4.542969-2.226562 6.4375-7.707031 4.238282-12.269531-2.207032-4.550781-7.667969-6.464844-12.285156-4.277344-1.105469.542969-27.28125 13.503906-32.644532 43.449219-.890625 4.992187 2.4375 9.777344 7.433594 10.667968zm0 0"/></svg>