<svg height="512pt" viewBox="0 0 512 512.00181" width="512pt" xmlns="http://www.w3.org/2000/svg"><path d="m317.476562 80.589844c0 6.410156-5.199218 11.605468-11.609374 11.605468-6.410157 0-11.605469-5.195312-11.605469-11.605468 0-6.414063 5.195312-11.609375 11.605469-11.609375 6.410156 0 11.609374 5.195312 11.609374 11.609375zm0 0"/><path d="m247.859375 80.589844c0 6.410156-5.195313 11.605468-11.609375 11.605468-6.410156 0-11.605469-5.195312-11.605469-11.605468 0-6.414063 5.195313-11.609375 11.605469-11.609375 6.414062 0 11.609375 5.195312 11.609375 11.609375zm0 0"/><path d="m282.671875 57.382812c0 6.410157-5.195313 11.609376-11.605469 11.609376s-11.609375-5.199219-11.609375-11.609376c0-6.410156 5.199219-11.609374 11.609375-11.609374s11.605469 5.199218 11.605469 11.609374zm0 0"/><path d="m359.691406 313.195312h-25.507812c-10.75 0-20.875 2.671876-29.808594 7.308594 4.464844-20.832031-1.332031-43.433594-17.484375-59.585937l-18.035156-18.035157c-4-4.003906-10.472657-4.003906-14.472657 0l-18.035156 18.035157c-16.132812 16.132812-21.933594 38.703125-17.503906 59.503906-8.894531-4.585937-18.96875-7.238281-29.644531-7.238281h-25.5c-5.660157 0-10.238281 4.578125-10.238281 10.238281v25.496094c0 35.796875 29.121093 64.917969 64.90625 64.917969h25.511718c5.660156 0 10.234375-4.574219 10.234375-10.234376v-25.5c0-2.78125-.234375-5.507812-.574219-8.207031l.851563.847657c1.996094 1.996093 4.617187 3 7.238281 3s5.238282-1.003907 7.238282-3l1.023437-1.023438c-.359375 2.753906-.605469 5.539062-.605469 8.382812v25.5c0 5.660157 4.578125 10.234376 10.238282 10.234376h25.496093c35.796875 0 64.917969-29.121094 64.917969-64.917969v-25.496094c-.011719-5.652344-4.585938-10.226563-10.246094-10.226563zm-126.058594 80.179688h-15.273437c-24.503906 0-44.4375-19.929688-44.4375-44.445312v-15.261719h15.261719c24.515625 0 44.445312 19.929687 44.445312 44.445312v15.261719zm27.984376-44.332031-10.800782-10.800781c-17.320312-17.320313-17.320312-45.519532 0-62.851563l10.800782-10.796875 10.800781 10.796875c17.320312 17.320313 17.320312 45.519531 0 62.851563zm87.835937-.113281c0 24.515624-19.929687 44.445312-44.445313 44.445312h-15.261718v-15.261719c0-24.515625 19.929687-44.445312 44.4375-44.445312h15.273437c-.003906 0-.003906 15.261719-.003906 15.261719zm0 0"/><path d="m504.570312 457.757812-28.785156-28.785156c-.019531-.910156-.082031-1.839844-.183594-2.792968l-27.675781-228.152344c12.433594-3.152344 21.25-12.046875 21.25-22.917969v-2.039063c0-28.210937-28.101562-53.382812-63.117187-59.152343-11.332032-19.6875-64.210938-102.957031-153.890625-113.777344l-1.226563-.140625-1.230468.144531c-89.320313 10.777344-142.136719 93.421875-153.765626 113.539063-35.855468 5.1875-64.957031 30.6875-64.957031 59.390625v2.035156c0 12.570313 11.730469 22.5 27.277344 23.945313l-22.179687 227.730468c-.09375.820313-.144532 1.636719-.164063 2.445313l-28.507813 28.527343c-7.757812 7.769532-9.601562 19.113282-4.699218 28.929688 4.914062 9.796875 15.078125 15.035156 25.957031 13.59375l53.230469-7.617188c.519531.175782 1.054687.316407 1.59375.441407 56.699218 12.589843 113.816406 18.894531 170.984375 18.894531 54.253906 0 108.542969-5.679688 162.46875-17.03125l10.574219-2.230469c.367187-.082031.726562-.175781 1.09375-.265625l54.679687 7.820313c10.914063 1.625 21.058594-3.789063 25.949219-13.605469 4.925781-9.816406 3.085937-21.15625-4.675782-28.929688zm-253.628906-437.132812c66.453125 8.640625 111.695313 64.671875 130.109375 92.042969h-260.25c18.351563-27.371094 63.492188-83.390625 130.140625-92.042969zm-199.480468 154.484375v-2.035156c0-18.46875 25.230468-39.933594 57.761718-39.933594h281.71875c32.527344 0 57.761719 21.476563 57.761719 39.933594l.019531 1.871093c-.238281.6875-2.007812 2.027344-4.800781 2.960938l-85.6875 12.589844c-26.082031 3.828125-68.671875 5.691406-111.183594 5.609375s-84.949219-2.097657-110.746093-6.027344l-76.023438-11.597656-.019531.203125c-5.238281-.492188-8.472657-2.753906-8.800781-3.574219zm439.496093 302.40625c-.5625 1.105469-1.882812 2.84375-4.746093 2.488281l-59.074219-8.433594-2.003907.53125c-.605468.164063-1.179687.359376-1.800781.605469l-10.585937 2.230469c-107.878906 22.722656-217.148438 22.097656-325.210938-1.96875-.605468-.214844-1.199218-.429688-1.820312-.613281l-2.109375-.613281-57.816407 8.269531c-2.84375.367187-4.195312-1.382813-4.757812-2.476563-.554688-1.105468-1.167969-3.253906.859375-5.304687l34.515625-34.515625-.019531-5.804688c-.011719-.941406-.050781-1.882812.074219-2.988281l22.097656-226.941406 54.683594 8.332031c3.4375.519531 7.15625 1.011719 11.09375 1.484375.09375.007813.195312.019531.285156.027344 3.859375.453125 7.933594.859375 12.203125 1.25.082031.011719.160156.011719.234375.019531 26.152344 2.355469 59.328125 3.53125 92.414062 3.53125h.203125c.390625 0 .777344 0 1.167969-.007812 4.851562 0 9.683594-.03125 14.503906-.082032.582032 0 1.164063-.019531 1.75-.03125 4.6875-.0625 9.34375-.132812 13.949219-.246094.6875-.019531 1.363281-.042968 2.050781-.0625 4.472656-.113281 8.90625-.234374 13.253906-.398437.929688-.03125 1.820313-.082031 2.742188-.113281 4.054688-.152344 8.089844-.316406 11.996094-.519532 1.269531-.0625 2.457031-.144531 3.695312-.21875 3.5-.191406 7.003906-.386718 10.359375-.613281 1.609375-.101562 3.082031-.234375 4.648438-.347656 2.867187-.214844 5.773437-.421875 8.503906-.65625 2.152344-.183594 4.125-.410156 6.171875-.613281 1.976562-.195313 4.042969-.378906 5.917969-.585938 3.839843-.429687 7.460937-.898437 10.839843-1.390625l66.445313-9.753906 27.605469 227.558594c.125 1.011719.074218 1.996093.0625 2.988281l-.019532 5.90625 34.78125 34.78125c2.023438 2.042969 1.410157 4.199219.855469 5.296875zm0 0"/></svg>