<svg height="512pt" viewBox="-95 0 512 512.00178" width="512pt" xmlns="http://www.w3.org/2000/svg"><path d="m93.816406 196.265625c-.320312.292969-.601562.625-.910156.914063-2.007812 1.839843-3.925781 3.746093-5.773438 5.742187-.542968.582031-1.074218 1.164063-1.605468 1.765625-1.789063 2.019531-3.484375 4.105469-5.101563 6.265625-.441406.59375-.894531 1.164063-1.328125 1.765625-1.636718 2.289062-3.171875 4.648438-4.617187 7.078125-.296875.5-.621094.984375-.902344 1.496094-1.503906 2.613281-2.871094 5.3125-4.132813 8.0625-.160156.351562-.351562.691406-.511718 1.054687-1.304688 2.929688-2.472656 5.929688-3.496094 9.003906-.070312.210938-.160156.414063-.230469.621094-1.023437 3.132813-1.886719 6.316406-2.601562 9.566406-.039063.183594-.097657.34375-.128907.523438-.671874 3.132812-1.175781 6.324219-1.546874 9.566406-.027344.28125-.097657.5625-.128907.84375-.359375 3.445313-.5625 6.964844-.5625 10.519532 0 55.359374 45.039063 100.390624 100.394531 100.390624 3.242188 0 6.464844-.179687 9.667969-.492187 1.414063-.140625 2.800781-.390625 4.195313-.582031 1.714844-.242188 3.441406-.449219 5.140625-.78125 1.746093-.332032 3.453125-.785156 5.167969-1.207032 1.296874-.320312 2.589843-.621093 3.875-.992187 1.875-.542969 3.703124-1.1875 5.53125-1.839844 1.074218-.378906 2.148437-.753906 3.203124-1.171875 1.90625-.753906 3.773438-1.589844 5.621094-2.460937.933594-.433594 1.859375-.871094 2.78125-1.34375 1.898438-.964844 3.746094-1.988281 5.570313-3.0625.824219-.484375 1.636719-.976563 2.449219-1.488281 1.859374-1.164063 3.664062-2.378907 5.433593-3.664063.722657-.523437 1.433594-1.0625 2.148438-1.605469 1.785156-1.367187 3.523437-2.78125 5.21875-4.257812.273437-.230469.554687-.429688.824219-.671875.097656-.089844.160156-.21875.269531-.320313 20.378906-18.371094 33.292969-44.90625 33.292969-74.453125 0-55.355469-45.039063-100.390625-100.390626-100.390625-25.5625 0-48.84375 9.675782-66.59375 25.46875-.058593.066406-.160156.078125-.222656.136719zm-13.5 74.792969c0-2.691406.140625-5.339844.402344-7.96875 1.847656-18.304688 10.007812-35.539063 23.121094-48.679688 26.941406 5.148438 46.75 28.761719 46.75 56.648438 0 31.714844 18.996094 59.3125 46.746094 71.347656-.140626.070312-.28125.128906-.414063.203125-2.441406 1.242187-4.949219 2.347656-7.5 3.332031-.582031.21875-1.183594.441406-1.777344.652344-2.207031.792969-4.457031 1.472656-6.726562 2.078125-.742188.199219-1.484375.398437-2.238281.570313-2.242188.523437-4.507813.914062-6.789063 1.234374-.742187.101563-1.464844.25-2.21875.34375-2.988281.351563-6 .550782-9.042969.550782-44.28125.003906-80.3125-36.027344-80.3125-80.3125zm160.628906 0c0 21.988281-8.898437 41.933594-23.273437 56.449218-27.035156-5.078124-47.003906-28.5-47.003906-56.449218 0-31.722656-19.035157-59.289063-46.800781-71.316406 11.03125-5.710938 23.511718-8.996094 36.761718-8.996094 44.285156 0 80.316406 36.03125 80.316406 80.3125zm0 0"/><path d="m293.921875 29.074219c-6.71875-2.671875-12.820313-11.707031-12.820313-19.035157 0-5.550781-4.488281-10.039062-10.042968-10.039062h-220.859375c-5.554688 0-10.039063 4.597656-10.039063 10.148438 0 7.230468-6.105468 16.253906-12.820312 18.9375-16.617188 6.644531-27.339844 22.484374-27.339844 40.367187v373.097656c0 17.878907 10.722656 33.71875 27.339844 40.367188 6.714844 2.679687 12.820312 11.714843 12.820312 19.042969 0 5.554687 4.484375 10.039062 10.039063 10.039062h220.863281c5.550781 0 10.039062-4.597656 10.039062-10.148438 0-7.226562 6.101563-16.253906 12.820313-18.933593 16.605469-6.648438 27.335937-22.488281 27.335937-40.367188v-373.097656c0-17.882813-10.722656-33.722656-27.335937-40.378906zm7.257813 413.472656c0 9.628906-5.773438 18.164063-14.710938 21.726563-11.191406 4.46875-20.480469 15.589843-23.972656 27.648437h-203.722656c-3.484376-12.019531-12.78125-23.171875-23.996094-27.648437-8.933594-3.5625-14.707032-12.097657-14.707032-21.726563v-373.09375c0-9.628906 5.769532-18.164063 14.707032-21.726563 11.203125-4.46875 20.488281-15.589843 23.984375-27.648437h203.726562c3.480469 12.019531 12.777344 23.171875 23.992188 27.648437 8.933593 3.5625 14.707031 12.097657 14.707031 21.726563v373.097656h-.007812zm0 0"/><path d="m50.199219 80.3125h50.195312c5.550781 0 10.039063-4.484375 10.039063-10.039062 0-5.550782-4.488282-10.039063-10.039063-10.039063h-50.195312c-5.554688 0-10.039063 4.488281-10.039063 10.039063 0 5.554687 4.484375 10.039062 10.039063 10.039062zm0 0"/><path d="m271.0625 60.234375h-130.511719c-5.550781 0-10.039062 4.488281-10.039062 10.039063 0 5.554687 4.488281 10.039062 10.039062 10.039062h130.511719c5.550781 0 10.039062-4.484375 10.039062-10.039062 0-5.550782-4.488281-10.039063-10.039062-10.039063zm0 0"/><path d="m100.394531 441.726562h-50.195312c-5.554688 0-10.039063 4.484376-10.039063 10.039063 0 5.550781 4.484375 10.039063 10.039063 10.039063h50.195312c5.550781 0 10.039063-4.488282 10.039063-10.039063 0-5.554687-4.488282-10.039063-10.039063-10.039063zm0 0"/><path d="m271.0625 441.726562h-130.511719c-5.550781 0-10.039062 4.484376-10.039062 10.039063 0 5.550781 4.488281 10.039063 10.039062 10.039063h130.511719c5.550781 0 10.039062-4.488282 10.039062-10.039063 0-5.554687-4.488281-10.039063-10.039062-10.039063zm0 0"/></svg>