<svg height="511pt" viewBox="-1 0 511 511.99827" width="511pt" xmlns="http://www.w3.org/2000/svg"><path d="m427.238281 82.632812c-107.054687-107.054687-231.644531-110.261718-333.277343-8.609374-104.023438 104.023437-116.710938 345.601562-60.308594 402.011718 22.261718 22.820313 67 35.59375 126.019531 35.964844h2.488281c88.816406 0 207.160156-29.570312 273.683594-96.09375 101.644531-101.652344 98.433594-226.242188-8.605469-333.273438zm-6.367187 318.300782c-62.234375 62.234375-174.246094 89.898437-258.65625 89.886718-.804688 0-1.613282 0-2.414063 0-51.765625-.328124-93.265625-11.382812-111.089843-29.660156-22.914063-22.929687-32.753907-91.613281-23.898438-167.058594 10.070312-85.820312 41.511719-162.5 84.113281-205.105468 45.402344-45.398438 94.769531-68.050782 144.890625-68.050782 53.269532 0 107.382813 25.597657 158.445313 76.660157 99.121093 99.121093 102.257812 209.679687 8.609375 303.328125zm0 0"/><path d="m127.085938 127.183594c-3.703126 5.453125-90.320313 135.464844-53.179688 300.773437 1.101562 4.925781 5.484375 8.269531 10.324219 8.269531.765625 0 1.546875-.082031 2.332031-.253906 5.707031-1.28125 9.296875-6.945312 8.015625-12.652344-35.074219-156.105468 49.199219-282.972656 50.046875-284.234374 3.28125-4.839844 2.011719-11.425782-2.820312-14.707032-4.859376-3.285156-11.425782-2.035156-14.71875 2.804688zm0 0"/><path d="m310.929688 102.507812c0 13.441407-10.898438 24.335938-24.335938 24.335938-13.441406 0-24.335938-10.894531-24.335938-24.335938 0-13.4375 10.894532-24.335937 24.335938-24.335937 13.4375 0 24.335938 10.898437 24.335938 24.335937zm0 0"/><path d="m383.859375 115.925781c0 13.441407-10.894531 24.335938-24.335937 24.335938-13.4375 0-24.335938-10.894531-24.335938-24.335938 0-13.441406 10.898438-24.335937 24.335938-24.335937 13.441406 0 24.335937 10.894531 24.335937 24.335937zm0 0"/><path d="m332.246094 167.554688c0 13.4375-10.894532 24.335937-24.335938 24.335937s-24.335937-10.898437-24.335937-24.335937c0-13.441407 10.894531-24.335938 24.335937-24.335938s24.335938 10.894531 24.335938 24.335938zm0 0"/></svg>