<svg height="512pt" viewBox="-4 0 512 512.00196" width="512pt" xmlns="http://www.w3.org/2000/svg"><path d="m483.65625 56.542969-.554688-1.246094c-.011718-.019531-.03125-.042969-.042968-.0625-.964844-2.121094-2.292969-4.023437-3.828125-5.792969-.316407-.371094-.605469-.75-.945313-1.101562-1.542968-1.605469-3.335937-3.054688-5.375-4.351563-.378906-.238281-.789062-.453125-1.191406-.679687-.84375-.484375-1.628906-1.007813-2.542969-1.449219l-.101562.226563c-34.066407-16.179688-112.375 6.390624-152.121094 19.777343-2.789063-1.285156-5.558594-2.59375-8.378906-3.855469-89.125-40.183593-229.019531-83.757812-249.046875-39.289062l-.019532.050781c0 .011719-.011718.023438-.011718.023438l-.523438 1.171875c-27.273437 60.527344-28.035156 129.085937-4.148437 189.53125-5.699219 6.578125-9.980469 12.792968-12.851563 18.648437-27.75 10.746094-41.972656 23.929688-41.972656 39.296875v1.359375c0 134.097657 109.101562 243.203125 243.191406 243.203125 134.101563 0 243.203125-109.101562 243.203125-243.203125v-1.359375c0-3.839844-1.007812-7.578125-2.820312-11.21875 28.191406-62.820312 28.890625-135.75.082031-199.679687zm-179.453125 254.808593c-19.660156 1.320313-40.160156 2.019532-60.988281 2.019532-6.761719 0-13.484375-.082032-20.164063-.21875-1.585937-.03125-3.128906-.101563-4.703125-.132813-5.144531-.132812-10.28125-.285156-15.367187-.503906-1.65625-.074219-3.292969-.164063-4.9375-.246094-4.910157-.238281-9.808594-.496093-14.625-.8125-1.75-.113281-3.46875-.25-5.207031-.371093-4.609376-.332032-9.179688-.679688-13.6875-1.082032-1.90625-.164062-3.789063-.347656-5.660157-.523437-4.167969-.402344-8.296875-.824219-12.359375-1.273438-2.121094-.238281-4.242187-.488281-6.332031-.742187-3.664063-.445313-7.253906-.917969-10.816406-1.410156-2.316407-.320313-4.628907-.640626-6.894531-.980469-3.304688-.492188-6.535157-1.027344-9.738282-1.5625-2.253906-.382813-4.527344-.742188-6.738281-1.144531-3.140625-.566407-6.167969-1.171876-9.191406-1.78125-1.738281-.347657-3.53125-.6875-5.226563-1.058594-3.410156-4.042969-6.648437-8.203125-9.746094-12.453125-1.09375-1.503907-2.070312-3.078125-3.128906-4.601563-1.957031-2.820312-3.921875-5.640625-5.730468-8.542968-.15625-.246094-.289063-.503907-.445313-.75 9.425781 1.019531 20.398437.75 32.410156-.535157l.523438.1875 2.390625-.28125c42.894531-5.0625 101.042968-22.589843 161.84375-48.453125 6.527344-2.757812 12.929687-5.515625 19.039062-8.261718 4.960938-2.234376 10.058594-4.613282 15.210938-7.0625 3.398437-1.605469 6.753906-3.21875 10.109375-4.847657l.058593.019531 3.996094-1.953124c1.6875-.835938 3.332032-1.679688 5.011719-2.523438 2.378906-1.183594 4.742187-2.367188 7.089844-3.5625 3.964843-2.027344 7.863281-4.054688 11.742187-6.101562 1.648438-.875 3.324219-1.730469 4.960938-2.601563 5.621094-3.015625 11.136718-6.042969 16.527344-9.101563.425781-.234374.824218-.480468 1.257812-.71875 4.929688-2.796874 9.753906-5.617187 14.46875-8.4375 1.441406-.855468 2.828125-1.71875 4.25-2.585937 3.664062-2.222656 7.253906-4.445313 10.777344-6.667969 1.582031-1.007812 3.15625-2.007812 4.710937-3.015625 3.375-2.171875 6.648438-4.34375 9.871094-6.523437 1.390625-.9375 2.808594-1.871094 4.167969-2.808594 4.425781-3.046875 8.738281-6.082031 12.84375-9.097656l11.847656-8.726563-.464844-.308593c16.066406-12.734376 29.34375-25.421876 37.792969-37.414063.03125.113281.082031.21875.113281.332031.214844.710938.378906 1.441406.585938 2.152344 1.058594 3.671875 2.058594 7.359375 2.921875 11.0625.351562 1.503906.636719 3.027344.957031 4.527344.628906 2.945312 1.222656 5.875 1.730469 8.832031.296875 1.71875.535156 3.457031.78125 5.1875.398437 2.777344.769531 5.554687 1.066406 8.34375.195313 1.792969.363281 3.582031.507813 5.375.222656 2.757813.398437 5.515625.523437 8.285156.082031 1.777344.164063 3.558594.207031 5.339844.058594 2.839844.039063 5.679687 0 8.523437-.03125 1.683594-.03125 3.363282-.09375 5.042969-.125 3.167969-.351562 6.328125-.605468 9.476563-.113282 1.328125-.164063 2.667968-.300782 3.996094-.441406 4.484374-1.007812 8.960937-1.730468 13.417968-.070313.453125-.183594.90625-.253907 1.359375-.671875 3.984375-1.429687 7.964844-2.316406 11.910157-.332031 1.460937-.71875 2.902343-1.082031 4.363281-.71875 2.933593-1.449219 5.855469-2.292969 8.765625-.484375 1.679687-1.019531 3.335937-1.542969 5.003906-.835937 2.664062-1.699218 5.320312-2.636718 7.957031-.605469 1.714844-1.253907 3.4375-1.914063 5.144531-.988281 2.570313-2.015625 5.125-3.097656 7.65625-.71875 1.679688-1.441407 3.355469-2.191407 5.023438-.742187 1.625-1.554687 3.222656-2.328124 4.824219-2.285157 4.714843-4.722657 9.304687-7.285157 13.78125-.347656.609375-.679687 1.214843-1.027343 1.824219-.164063.277343-.320313.566406-.484376.84375-2.976562 5.042968-6.082031 9.949218-9.378906 14.632812-29.339844 13.082031-80.625 22.621094-139.582031 26.570312zm-236.472656-256.15625c29.804687 42.351563 118.4375 93.539063 186.21875 124.074219 11.183593 5.042969 22.457031 9.777344 33.714843 14.347657-2.5 1.152343-4.855468 2.304687-7.410156 3.457031-16.136718 7.277343-32.160156 13.964843-47.816406 20.015625-.214844.082031-.421875.15625-.636719.238281-7.222656 2.777344-14.355469 5.414063-21.398437 7.914063-3.796875 1.335937-7.40625 2.523437-11.082032 3.757812-3.097656 1.039062-6.21875 2.121094-9.261718 3.109375-5.703125 1.820313-11.230469 3.507813-16.601563 5.082031-.660156.195313-1.328125.402344-1.976562.585938-25.289063 7.289062-46.777344 11.703125-64.085938 13.894531-3.089843-1.152344-5.960937-2.292969-8.523437-3.425781-4.117188-5.847656-7.925782-12.019532-11.515625-18.390625-.398438-.710938-.804688-1.410157-1.203125-2.121094-3.582032-6.523437-6.925782-13.265625-9.910156-20.242187l-.175782-.402344c-20.335937-47.898438-23.496094-101.808594-8.335937-151.894532zm232.394531 21.570313c6.125 2.757813 12.074219 5.628906 18.050781 8.46875 4.910157 2.335937 9.808594 4.683594 14.613281 7.082031 3.460938 1.71875 6.84375 3.46875 10.242188 5.207032 4.714844 2.417968 9.425781 4.824218 13.996094 7.285156 3.726562 1.996094 7.316406 4.023437 10.949218 6.042968 3.984376 2.210938 8.039063 4.425782 11.886719 6.648438 7.328125 4.238281 14.480469 8.511719 21.304688 12.800781-5.558594 3.851563-11.394531 7.769531-17.691407 11.785157-1.007812.636718-2.015624 1.273437-3.035156 1.914062-1.246094.78125-2.605468 1.585938-3.882812 2.378906-4.804688 2.964844-9.652344 5.925782-14.714844 8.878906-1.597656.9375-3.304688 1.886719-4.941406 2.820313-5.492188 3.152344-11.113282 6.289063-16.867188 9.398437-1.6875.914063-3.382812 1.820313-5.09375 2.738282-.101562.050781-.203125.113281-.308594.164062-5.96875 3.167969-12.070312 6.316406-18.265624 9.425782-1.144532.574218-2.285157 1.140624-3.4375 1.71875-16.785157-6.414063-33.769532-13.472657-50.535157-21.027344-131.328125-59.164063-190.507812-119.105469-184.105469-133.316406 6.421876-14.203126 90.503907-9.582032 221.835938 49.585937zm-241.707031 165.964844c.144531-.730469.308593-1.472657.597656-2.304688.882813-2.59375 2.46875-5.816406 5.296875-9.871093.113281.21875.25.421874.363281.648437 2.4375 4.757813 5.042969 9.4375 7.808594 14.050781.453125.75.867187 1.53125 1.328125 2.285156 1.183594 1.921876 2.460938 3.804688 3.707031 5.699219-10.949219-.628906-17.484375-2.996093-19.101562-6.566406l-.011719-.011719c-.277344-.636718-.328125-1.53125-.246094-2.539062.019532-.402344.164063-.929688.257813-1.390625zm402.496093-181.949219c.398438.207031.792969.453125 1.191407.722656.269531.183594.515625.367188.742187.554688.554688.460937 1.050782.988281 1.378906 1.59375.03125.0625.101563.113281.125.175781 3.25 7.515625-11.671874 27.601563-45.347656 53.488281-3.4375-2.222656-6.933594-4.445312-10.503906-6.660156-1.21875-.75-2.441406-1.503906-3.675781-2.253906-12.226563-7.472656-25.175781-14.863282-38.71875-22.117188-.175781-.09375-.347657-.183594-.511719-.277344-7.09375-3.789062-14.316406-7.535156-21.695312-11.230468 70.363281-21.457032 106.105468-19.789063 117.015624-13.996094zm-422.421874 191.1875c.304687 1.070312.699218 2.121094 1.160156 3.152344h-.011719c.011719.019531.019531.050781.03125.070312l.011719.023438.515625 1.128906c2.582031 5.734375 5.433593 11.34375 8.457031 16.859375 1 1.808594 2.121094 3.558594 3.160156 5.351563 2.128906 3.652343 4.292969 7.285156 6.617188 10.828124.378906.574219.6875 1.183594 1.070312 1.757813-21.222656-6.882813-31.628906-13.699219-36.0625-18.503906-.050781-.0625-.125-.125-.175781-.195313-.566406-.628906-1.011719-1.214844-1.390625-1.769531-.269531-.425781-.546875-.84375-.71875-1.21875-.101562-.214844-.175781-.410156-.25-.617187-.183594-.511719-.328125-1.015626-.328125-1.410157.015625-2.816406 4.121094-8.671875 17.914063-15.457031zm426.28125 38.554688c-10.949219 112.589843-106.140626 200.894531-221.570313 200.894531-112.992187 0-206.582031-84.609375-220.757813-193.792969.648438.390625 1.492188.738281 2.171876 1.121094 2.214843 1.234375 4.539062 2.429687 6.96875 3.582031 1.421874.667969 2.890624 1.328125 4.414062 1.984375 2.964844 1.289062 6.03125 2.511719 9.191406 3.675781 1.128906.421875 2.28125.824219 3.457032 1.234375 4.199218 1.460938 8.519531 2.832032 12.9375 4.109375.421874.121094.824218.234375 1.246093.359375 5.785157 1.644532 11.679688 3.160156 17.589844 4.519532l.019531.019531 2.757813.605469.542969.125c5.085937 1.121093 10.375 2.191406 15.859374 3.210937.03125.007813.074219.007813.101563.019531.074219.007813.136719.03125.207031.039063.164063.03125.339844.050781.503906.082031 1.09375.207031 2.253907.382812 3.367188.578125 4.539062.800781 9.128906 1.574219 13.84375 2.292969 1.769531.269531 3.601562.515625 5.402344.773437 4.28125.617188 8.601562 1.214844 13.019531 1.761719 1.769531.214844 3.582031.421875 5.371094.628906 4.601562.535156 9.242187 1.039063 13.964843 1.492188 1.730469.164062 3.460938.328125 5.199219.484375 4.886719.441406 9.828125.84375 14.832031 1.203125 1.707032.125 3.414063.246094 5.144532.359375 5.074218.339843 10.207031.628906 15.386718.875 1.746094.09375 3.476563.1875 5.234376.257812 5.238281.226563 10.519531.402344 15.839843.535157 1.730469.050781 3.441407.113281 5.179688.15625 6.945312.144531 13.941406.234374 20.992187.234374 89.210938 0 170.339844-12.113281 211.722656-31.605468l2.398438-1.121094 1.550781-2.152344c.074219-.09375.132813-.195312.195313-.296875 1.96875-2.6875 3.863281-5.4375 5.714844-8.246093zm0 0"/></svg>