<svg height="512pt" viewBox="-9 0 512 512.00168" width="512pt" xmlns="http://www.w3.org/2000/svg"><path d="m199.457031 239.617188c5.242188 0 9.5-4.246094 9.5-9.5v-34.742188c0-1.417969-.117187-2.8125-.210937-4.199219l2.925781 2.925781c1.855469 1.851563 4.285156 2.78125 6.714844 2.78125 2.433593 0 4.863281-.929687 6.71875-2.78125l3.074219-3.078124c-.101563 1.445312-.21875 2.886718-.21875 4.359374v34.746094c0 5.25 4.257812 9.496094 9.5 9.496094h34.742187c33.214844 0 60.238281-27.019531 60.238281-60.226562v-34.753907c0-5.253906-4.257812-9.5-9.5-9.5h-34.742187c-7.863281 0-15.359375 1.558594-22.253907 4.316407 4.066407-19.273438-1.328124-40.167969-16.269531-55.109376l-24.570312-24.574218c-3.714844-3.710938-9.71875-3.710938-13.429688 0l-24.582031 24.5625c-14.921875 14.921875-20.324219 35.789062-16.277344 55.042968-6.851562-2.71875-14.285156-4.257812-22.09375-4.257812h-34.746094c-5.242187 0-9.5 4.246094-9.5 9.5v34.753906c0 33.203125 27.023438 60.226563 60.238282 60.226563h34.742187zm113.976563-85.484376v25.253907c0 22.738281-18.503906 41.230469-41.238282 41.230469h-25.246093v-25.246094c0-22.746094 18.5-41.238282 41.238281-41.238282zm-112.910156-56.359374 17.855468-17.859376 17.855469 17.859376c16.070313 16.070312 16.070313 42.234374 0 58.316406l-17.855469 17.855468-17.855468-17.855468c-16.074219-16.078125-16.074219-42.246094 0-58.316406zm-77.046876 81.617187v-25.257813h25.246094c22.734375 0 41.238282 18.492188 41.238282 41.242188v25.246094h-25.246094c-22.738282-.003906-41.238282-18.503906-41.238282-41.230469zm0 0"/><path d="m246.949219 313.433594c-15.710938 0-28.496094 12.785156-28.496094 28.496094h18.996094c0-5.242188 4.265625-9.5 9.5-9.5 5.230469 0 9.496093 4.257812 9.496093 9.5h18.996094c0-15.710938-12.78125-28.496094-28.492187-28.496094zm0 0"/><path d="m322.933594 322.933594c-15.710938 0-28.496094 12.78125-28.496094 28.492187h18.996094c0-5.242187 4.265625-9.496093 9.5-9.496093 5.230468 0 9.496094 4.253906 9.496094 9.496093h18.996093c0-15.710937-12.785156-28.492187-28.492187-28.492187zm0 0"/><path d="m394.308594 286.820312 32.777344-122.902343c.210937-.800781.324218-1.625.324218-2.449219 0-10.476562-8.519531-19-18.996094-19h-18.996093c-3.46875 0-6.695313.988281-9.5 2.613281v-135.582031c0-5.253906-4.253907-9.5-9.5-9.5h-294.378907c-.046874 0-.09375.0273438-.140624.0273438-.046876 0-.09375-.0273438-.140626-.0273438h-66.261718c-5.242188 0-9.496094 4.246094-9.496094 9.5v436.90625c0 3.789062 2.261719 7.230469 5.746094 8.730469l66.257812 28.492187c1.207032.511719 2.480469.769532 3.753906.769532.054688 0 .113282-.015626.171876-.015626.035156 0 .074218.015626.113281.015626h145.453125c27.523437 17.382812 60.003906 27.601562 94.902344 27.601562 98.378906 0 178.429687-80.039062 178.429687-178.417969v-.988281c0-28.351562-58.640625-40.625-100.519531-45.773438zm-4.890625-125.355468h18.664062l-34.960937 131.121094v.015624c0 .019532-.011719.03125-.011719.03125l-5.660156 21.738282c-1.320313 5.074218 1.71875 10.257812 6.800781 11.589844.796875.199218 1.605469.304687 2.394531.304687 4.214844 0 8.070313-2.832031 9.183594-7.105469l3.582031-13.753906c64.832032 7.644531 86.421875 22.652344 86.421875 27.195312 0 9.34375-54.242187 31.277344-159.433593 31.277344-105.1875 0-159.429688-21.929687-159.429688-31.277344 0-9.355468 54.242188-31.285156 159.429688-31.285156 5.625 0 11.007812.21875 16.480468.359375l-1.777344 7.066407c-1.28125 5.09375 1.804688 10.25 6.898438 11.53125.777344.199218 1.554688.285156 2.324219.285156 4.246093 0 8.113281-2.878906 9.207031-7.179688l4.652344-18.484375 34.925781-130.980469c.203125-.796874.308594-1.621093.308594-2.449218zm-323.160157 299.007812-47.261718-20.324218v-421.152344h47.261718zm130.007813 4.929688h-110.726563v-446.40625h275.386719v176.84375l-23.15625 86.839844c-7-.21875-14.113281-.363282-21.371093-.363282-61.71875 0-178.429688 10.507813-178.429688 50.285156v.984376c0 6.269531.339844 12.460937.976562 18.5625.191407 1.8125.582032 3.578124.828126 5.382812.570312 4.257812 1.140624 8.511719 2.015624 12.664062.492188 2.363282 1.214844 4.640626 1.792969 6.980469.882813 3.496094 1.710938 7 2.792969 10.410157.863281 2.714843 1.949219 5.335937 2.933594 7.996093 1.074218 2.886719 2.089844 5.8125 3.308594 8.621094 1.242187 2.878906 2.6875 5.664063 4.082031 8.472656 1.226562 2.472657 2.402343 4.96875 3.742187 7.371094 1.585938 2.859375 3.34375 5.605469 5.082032 8.367187 1.40625 2.234376 2.792968 4.484376 4.292968 6.648438 1.84375 2.652344 3.808594 5.195312 5.792969 7.75 1.691406 2.175781 3.382813 4.34375 5.167969 6.429688 1.964844 2.300781 4.027344 4.523437 6.117187 6.734374 2.109375 2.230469 4.246094 4.40625 6.46875 6.527344 1.011719.933594 1.886719 1.976563 2.902344 2.898438zm120.140625 27.601562c-32.464844 0-62.65625-9.804687-87.875-26.527344-1.207031-.796874-2.367188-1.652343-3.542969-2.480468-2.71875-1.90625-5.386719-3.894532-7.976562-5.960938-.941407-.75-1.910157-1.484375-2.832031-2.261718-3.382813-2.828126-6.648438-5.792969-9.773438-8.890626-.582031-.578124-1.140625-1.167968-1.710938-1.753906-3.085937-3.144531-6.070312-6.382812-8.878906-9.777344-.171875-.199218-.351562-.398437-.515625-.597656-3.039062-3.695312-5.898437-7.53125-8.59375-11.492187-.324219-.472657-.644531-.960938-.960937-1.445313-5.269532-7.902344-9.839844-16.296875-13.65625-25.101562-.3125-.730469-.636719-1.464844-.941406-2.195313-1.785157-4.285156-3.410157-8.660156-4.816407-13.125-.179687-.5625-.320312-1.140625-.492187-1.699219-1.234375-4.058593-2.289063-8.199218-3.191406-12.386718-.179688-.835938-.390626-1.664063-.5625-2.507813-.4375-2.175781-.664063-4.40625-1.015626-6.609375 36.476563 18.9375 111.832032 24.664063 157.324219 24.664063 45.507813 0 120.855469-5.726563 157.324219-24.664063-11.886719 76.238282-77.792969 134.8125-157.3125 134.8125zm0 0"/></svg>