<svg height="511pt" viewBox="0 -4 511.99976 511" width="511pt" xmlns="http://www.w3.org/2000/svg"><path d="m446.839844 438.03125c0 5.140625-4.167969 9.308594-9.308594 9.308594-5.144531 0-9.3125-4.167969-9.3125-9.308594 0-5.144531 4.167969-9.3125 9.3125-9.3125 5.140625 0 9.308594 4.167969 9.308594 9.3125zm0 0"/><path d="m428.21875 410.101562c0 5.144532-4.167969 9.3125-9.308594 9.3125s-9.308594-4.167968-9.308594-9.3125c0-5.140624 4.167969-9.308593 9.308594-9.308593s9.308594 4.167969 9.308594 9.308593zm0 0"/><path d="m409.601562 382.175781c0 5.140625-4.167968 9.308594-9.308593 9.308594s-9.308594-4.167969-9.308594-9.308594 4.167969-9.308593 9.308594-9.308593 9.308593 4.167968 9.308593 9.308593zm0 0"/><path d="m446.839844 382.175781c0 5.140625-4.167969 9.308594-9.308594 9.308594-5.144531 0-9.3125-4.167969-9.3125-9.308594s4.167969-9.308593 9.3125-9.308593c5.140625 0 9.308594 4.167968 9.308594 9.308593zm0 0"/><path d="m390.984375 354.25c0 5.140625-4.167969 9.308594-9.308594 9.308594s-9.308593-4.167969-9.308593-9.308594c0-5.144531 4.167968-9.3125 9.308593-9.3125s9.308594 4.167969 9.308594 9.3125zm0 0"/><path d="m428.21875 354.25c0 5.140625-4.167969 9.308594-9.308594 9.308594s-9.308594-4.167969-9.308594-9.308594c0-5.144531 4.167969-9.3125 9.308594-9.3125s9.308594 4.167969 9.308594 9.3125zm0 0"/><path d="m372.367188 326.320312c0 5.140626-4.167969 9.308594-9.3125 9.308594-5.140626 0-9.308594-4.167968-9.308594-9.308594 0-5.140624 4.167968-9.308593 9.308594-9.308593 5.144531 0 9.3125 4.167969 9.3125 9.308593zm0 0"/><path d="m409.601562 326.320312c0 5.140626-4.167968 9.308594-9.308593 9.308594s-9.308594-4.167968-9.308594-9.308594c0-5.140624 4.167969-9.308593 9.308594-9.308593s9.308593 4.167969 9.308593 9.308593zm0 0"/><path d="m465.457031 465.957031c0 5.140625-4.167969 9.308594-9.308593 9.308594-5.144532 0-9.3125-4.167969-9.3125-9.308594s4.167968-9.308593 9.3125-9.308593c5.140624 0 9.308593 4.167968 9.308593 9.308593zm0 0"/><path d="m428.21875 465.957031c0 5.140625-4.167969 9.308594-9.308594 9.308594s-9.308594-4.167969-9.308594-9.308594 4.167969-9.308593 9.308594-9.308593 9.308594 4.167968 9.308594 9.308593zm0 0"/><path d="m409.601562 438.03125c0 5.140625-4.167968 9.308594-9.308593 9.308594s-9.308594-4.167969-9.308594-9.308594c0-5.144531 4.167969-9.3125 9.308594-9.3125s9.308593 4.167969 9.308593 9.3125zm0 0"/><path d="m390.984375 410.101562c0 5.144532-4.167969 9.3125-9.308594 9.3125s-9.308593-4.167968-9.308593-9.3125c0-5.140624 4.167968-9.308593 9.308593-9.308593s9.308594 4.167969 9.308594 9.308593zm0 0"/><path d="m372.367188 382.175781c0 5.140625-4.167969 9.308594-9.3125 9.308594-5.140626 0-9.308594-4.167969-9.308594-9.308594s4.167968-9.308593 9.308594-9.308593c5.144531 0 9.3125 4.167968 9.3125 9.308593zm0 0"/><path d="m353.746094 354.25c0 5.140625-4.167969 9.308594-9.308594 9.308594s-9.308594-4.167969-9.308594-9.308594c0-5.144531 4.167969-9.3125 9.308594-9.3125s9.308594 4.167969 9.308594 9.3125zm0 0"/><path d="m372.367188 438.03125c0 5.140625-4.167969 9.308594-9.3125 9.308594-5.140626 0-9.308594-4.167969-9.308594-9.308594 0-5.144531 4.167968-9.3125 9.308594-9.3125 5.144531 0 9.3125 4.167969 9.3125 9.3125zm0 0"/><path d="m353.746094 410.101562c0 5.144532-4.167969 9.3125-9.308594 9.3125s-9.308594-4.167968-9.308594-9.3125c0-5.140624 4.167969-9.308593 9.308594-9.308593s9.308594 4.167969 9.308594 9.308593zm0 0"/><path d="m335.128906 382.175781c0 5.140625-4.167968 9.308594-9.308594 9.308594-5.140624 0-9.308593-4.167969-9.308593-9.308594s4.167969-9.308593 9.308593-9.308593c5.140626 0 9.308594 4.167968 9.308594 9.308593zm0 0"/><path d="m390.984375 465.957031c0 5.140625-4.167969 9.308594-9.308594 9.308594s-9.308593-4.167969-9.308593-9.308594 4.167968-9.308593 9.308593-9.308593 9.308594 4.167968 9.308594 9.308593zm0 0"/><path d="m353.746094 465.957031c0 5.140625-4.167969 9.308594-9.308594 9.308594s-9.308594-4.167969-9.308594-9.308594 4.167969-9.308593 9.308594-9.308593 9.308594 4.167968 9.308594 9.308593zm0 0"/><path d="m335.128906 438.03125c0 5.140625-4.167968 9.308594-9.308594 9.308594-5.140624 0-9.308593-4.167969-9.308593-9.308594 0-5.144531 4.167969-9.3125 9.308593-9.3125 5.140626 0 9.308594 4.167969 9.308594 9.3125zm0 0"/><path d="m316.511719 410.101562c0 5.144532-4.167969 9.3125-9.308594 9.3125-5.144531 0-9.3125-4.167968-9.3125-9.3125 0-5.140624 4.167969-9.308593 9.3125-9.308593 5.140625 0 9.308594 4.167969 9.308594 9.308593zm0 0"/><path d="m297.890625 438.03125c0 5.140625-4.167969 9.308594-9.308594 9.308594s-9.308593-4.167969-9.308593-9.308594c0-5.144531 4.167968-9.3125 9.308593-9.3125s9.308594 4.167969 9.308594 9.3125zm0 0"/><path d="m316.511719 465.957031c0 5.140625-4.167969 9.308594-9.308594 9.308594-5.144531 0-9.3125-4.167969-9.3125-9.308594s4.167969-9.308593 9.3125-9.308593c5.140625 0 9.308594 4.167968 9.308594 9.308593zm0 0"/><path d="m279.273438 465.957031c0 5.140625-4.167969 9.308594-9.308594 9.308594s-9.308594-4.167969-9.308594-9.308594 4.167969-9.308593 9.308594-9.308593 9.308594 4.167968 9.308594 9.308593zm0 0"/><path d="m496.863281 421.144531c-9.449219-11.695312-22.675781-33.226562-35.457031-54.058593-13.394531-21.839844-26.066406-42.46875-35.8125-54.507813-15.171875-18.71875-33.800781-30.152344-53.238281-32.375v-270.394531c0-5.148438-4.171875-9.308594-9.308594-9.308594h-288.515625c-.046875 0-.09375.027344-.140625.027344s-.09375-.027344-.140625-.027344h-64.941406c-5.136719 0-9.308594 4.164062-9.308594 9.308594v428.222656c0 3.714844 2.214844 7.082031 5.632812 8.554688l64.941407 27.925781c1.179687.503906 2.425781.753906 3.675781.753906.054688 0 .113281-.015625.167969-.015625.046875 0 .074219.015625.121093.015625h143.945313c.539063 2.421875 1.265625 4.789063 2.394531 7.003906 4.867188 9.539063 17.320313 20.925781 48.976563 20.925781h169.050781c35.132812 0 60.492188-10.882812 69.550781-29.855468 7.324219-15.351563 3.210938-33.886719-11.59375-52.195313zm-431.921875 30.671875-46.324218-19.914062v-412.785156h46.324218zm18.894532-432.699218h269.910156v261.585937c-2.496094.429687-4.960938 1.015625-7.410156 1.742187-.660157.195313-1.308594.472657-1.960938.6875-1.890625.625-3.78125 1.285157-5.632812 2.085938-.933594.398438-1.835938.875-2.746094 1.3125-1.566406.753906-3.117188 1.523438-4.648438 2.398438-.964844.550781-1.917968 1.15625-2.867187 1.75-1.449219.914062-2.875 1.871093-4.289063 2.898437-.941406.675781-1.882812 1.375-2.800781 2.113281-1.40625 1.105469-2.773437 2.277344-4.132813 3.488282-.867187.773437-1.742187 1.527343-2.589843 2.347656-1.453125 1.394531-2.847657 2.886718-4.246094 4.402344-.695313.761718-1.414063 1.472656-2.09375 2.261718-2.039063 2.367188-4.03125 4.839844-5.929687 7.476563-8.359376 11.582031-18.570313 29.128906-29.5 48.40625-2.242188 3.957031-4.503907 7.949219-6.804688 12.027343-4.207031 7.457032-8.453125 14.960938-12.605469 22.195313-8.582031 14.929687-16.785156 28.632813-23.355469 37.699219-.121093.167968-.203124.328125-.328124.496094-1.308594 1.832031-2.503907 3.648437-3.609376 5.445312-.328124.539062-.617187 1.078125-.921874 1.621094-.847657 1.46875-1.640626 2.929687-2.347657 4.382812-.269531.550782-.511719 1.101563-.761719 1.648438-.652343 1.445312-1.230468 2.875-1.742187 4.292968-.183594.511719-.382813 1.03125-.546875 1.542969-.132812.402344-.308594.820313-.429688 1.222657h-135.609374zm186.019531 465.457031c-17.09375 0-28.898438-3.929688-32.386719-10.761719 0-.007812 0-.015625 0-.015625 2.679688-1.640625 4.570312-4.460937 4.570312-7.839844 0-2.929687-1.445312-5.445312-3.574218-7.148437.148437-.355469.230468-.6875.390625-1.050782.113281-.261718.253906-.53125.371093-.800781.597657-1.292969 1.292969-2.625 2.078126-3.976562.203124-.351563.390624-.707031.613281-1.058594.976562-1.632813 2.058593-3.289063 3.277343-4.980469.304688-.429687.640626-.941406.957032-1.378906 1.507812 1.023438 3.230468 1.777344 5.195312 1.777344 5.140625 0 9.308594-4.171875 9.308594-9.308594 0-3.332031-1.851562-6.125-4.484375-7.773438 2.550781-4.132812 5.183594-8.519531 7.890625-13.117187 1.613281 1.359375 3.621094 2.273437 5.902344 2.273437 5.140625 0 9.308594-4.171874 9.308594-9.3125 0-4.019531-2.578126-7.363281-6.140626-8.664062.742188-1.3125 1.496094-2.625 2.242188-3.949219 1.90625-3.359375 3.804688-6.71875 5.707031-10.082031 1.683594 2.402344 4.347657 4.078125 7.503907 4.078125 5.136718 0 9.308593-4.171875 9.308593-9.308594 0-4.917969-3.835937-8.824219-8.65625-9.179687 3.109375-5.484375 6.1875-10.863282 9.207031-16.039063 1.171876 3.789063 4.578126 6.597657 8.757813 6.597657 5.140625 0 9.3125-4.167969 9.3125-9.308594 0-5.136719-4.171875-9.308594-9.3125-9.308594-.660156 0-1.246094.242188-1.867187.382812 4.140624-6.84375 8.003906-12.875 11.4375-17.722656.644531 4.503906 4.359374 8.03125 9.050781 8.03125 5.136719 0 9.308593-4.171875 9.308593-9.308594 0-5.136718-4.171874-9.308593-9.308593-9.308593-.121094 0-.226563.066406-.34375.066406 2.492187-2.582031 5.035156-5.007813 7.699219-7.074219 1.710937-1.332031 3.453124-2.523437 5.222656-3.632812.167968-.101563.324218-.242188.492187-.34375 7.761719-4.765625 16.027344-7.382813 24.425781-7.617188.019532 0 .03125-.007812.039063-.007812.410156-.011719.820313-.019532 1.230469-.019532 16.484375 0 32.972656 9.160157 46.542968 25.917969 8.996094 11.085938 21.914063 32.152344 34.417969 52.523438 5.390625 8.785156 10.84375 17.648437 16.125 25.96875-1.566406-1.171875-3.410156-2-5.523437-2-5.136719 0-9.308594 4.171875-9.308594 9.308593 0 5.136719 4.171875 9.308594 9.308594 9.308594 5.140625 0 9.3125-4.171875 9.3125-9.308594 0-.707031-.253906-1.320312-.402344-1.984374 5.84375 9.058593 11.347656 17.101562 16.207031 23.273437-1.683593-1.648437-3.964843-2.671875-6.496093-2.671875-5.140626 0-9.308594 4.171875-9.308594 9.3125 0 5.136719 4.167968 9.308594 9.308594 9.308594 5.136718 0 9.308593-4.171875 9.308593-9.308594 0-2.382812-.960937-4.496094-2.429687-6.144531.242187.304687.511718.679687.753906.964843 6.964844 8.613282 10.59375 16.777344 10.863281 23.824219-5.082031.074219-9.1875 4.1875-9.1875 9.28125 0 2.308594.933594 4.347657 2.320313 5.976563-8.882813 7.988281-25.703125 12.640625-47.488282 12.640625zm0 0"/><path d="m195.492188 235.34375c5.136718 0 9.308593-4.164062 9.308593-9.3125v-34.050781c0-1.386719-.109375-2.753907-.203125-4.113281l2.867188 2.867187c1.816406 1.816406 4.199218 2.726563 6.582031 2.726563s4.765625-.914063 6.582031-2.726563l3.015625-3.015625c-.113281 1.414062-.222656 2.820312-.222656 4.261719v34.050781c0 5.148438 4.167969 9.3125 9.308594 9.3125h34.050781c32.554688 0 59.039062-26.484375 59.039062-59.03125v-34.0625c0-5.148438-4.171874-9.308594-9.308593-9.308594h-34.050781c-7.710938 0-15.054688 1.523438-21.8125 4.226563 3.984374-18.890625-1.304688-39.367188-15.945313-54.011719l-24.085937-24.085938c-3.640626-3.636718-9.523438-3.636718-13.160157 0l-24.082031 24.09375c-14.625 14.625-19.925781 35.078126-15.957031 53.945313-6.710938-2.664063-14-4.171875-21.652344-4.171875h-34.054687c-5.140626 0-9.3125 4.164062-9.3125 9.3125v34.058594c0 32.546875 26.484374 59.03125 59.039062 59.03125h34.054688zm111.710937-83.785156v24.753906c0 22.285156-18.136719 40.410156-40.421875 40.410156h-24.742188v-24.742187c0-22.296875 18.132813-40.421875 40.417969-40.421875zm-110.667969-55.230469 17.5-17.5 17.5 17.5c15.753906 15.753906 15.753906 41.398437 0 57.160156l-17.5 17.5-17.5-17.5c-15.75-15.761719-15.75-41.40625 0-57.160156zm-75.515625 79.992187v-24.75h24.742188c22.285156 0 40.421875 18.125 40.421875 40.417969v24.746094h-24.746094c-22.285156-.011719-40.417969-18.136719-40.417969-40.414063zm0 0"/><path d="m297.890625 298.390625c0-5.148437-4.167969-9.308594-9.308594-9.308594h-139.636719c-5.136718 0-9.308593 4.160157-9.308593 9.308594s4.171875 9.3125 9.308593 9.3125h139.636719c5.140625 0 9.308594-4.164063 9.308594-9.3125zm0 0"/><path d="m176.875 261.15625c-5.140625 0-9.3125 4.160156-9.3125 9.308594 0 5.148437 4.171875 9.308594 9.3125 9.308594h93.089844c5.136718 0 9.308594-4.160157 9.308594-9.308594 0-5.148438-4.171876-9.308594-9.308594-9.308594zm0 0"/><path d="m279.273438 326.320312c0-5.148437-4.171876-9.308593-9.308594-9.308593h-93.089844c-5.140625 0-9.3125 4.160156-9.3125 9.308593 0 5.148438 4.171875 9.308594 9.3125 9.308594h93.089844c5.140625 0 9.308594-4.160156 9.308594-9.308594zm0 0"/></svg>