<svg height="511pt" viewBox="-51 0 511 511.99925" width="511pt" xmlns="http://www.w3.org/2000/svg"><path d="m398.027344 303.203125c-3.789063-3.828125-8.605469-5.855469-13.910156-5.855469-3.296876 0-6.78125.882813-10.363282 2.472656l-.160156-.542968c-13.953125 2.851562-28.539062 6.441406-42.644531 9.910156-36.085938 8.886719-73.183594 17.957031-96.914063 13.847656.316406-13.050781-13.597656-30.574218-30.433594-44.363281-10.269531-8.402344-21.128906-15.023437-30.582031-18.636719-8.25-3.144531-14.234375-3.519531-18.621093-2.570312-37.425782-66.75-36.257813-169.449219-23.265626-239.078125 1.3125-7.054688-2.042968-13.855469-8.371093-16.921875-5.984375-2.894532-12.980469-1.4140628-17.394531 3.667968-29.621094 34.1875-55.128907 85.140626-69.21875 137.453126l-5.648438-.558594c-5.683594-.542969-13.96875 1.984375-20.882812 17.46875-4.128907 9.238281-7.117188 21.601562-8.410157 34.816406-2.679687 27.199219 2.007813 55.367188 18.523438 56.988281l4.421875.4375c1.3125 21.527344 5.015625 42.035157 11.035156 61.214844l-18.433594 13.761719c-13.289062 9.925781-2.75 36.472656 13.589844 58.371094h.007812c13.136719 17.601562 30.222657 32.445312 43.324219 32.445312 3.203125 0 6.164063-.882812 8.773438-2.824219l11.222656-8.386719c19.203125 17.808594 42.230469 32.804688 68.621094 44.679688l-3.757813 11.5625c-1.863281 5.730469-1.03125 14.8125 13.503906 25.542969 8.851563 6.542969 21.300782 12.613281 35.054688 17.078125 12.894531 4.1875 26.347656 6.816406 37.671875 6.816406 13.351563 0 23.722656-3.65625 26.667969-12.714844l5.808594-17.875c25.292968 3.167969 52.484374 4.839844 81.230468 4.839844 1.664063 0 3.355469-.007812 5.039063-.015625 22.503906-.035156 46.523437-20.800781 46.523437-79.019531 0-6.25.0625-12.570313.128906-18.84375.378907-38.746094.707032-72.203125-12.136718-85.167969zm-205.304688-11.238281c16.628906 13.625 23.796875 25.929687 24.210938 29.980468l-15.042969 18.363282c-3.96875.371094-17.515625-4.195313-34.160156-17.832032-16.640625-13.625-23.808594-25.929687-24.214844-29.980468l15.042969-18.355469c4.300781-.445313 17.542968 4.207031 34.164062 17.824219zm-174.429687-95.96875c2.101562-21.40625 8.371093-34.195313 11.511719-36.773438l23.617187 2.328125c2.585937 3.140625 6.226563 16.921875 4.113281 38.324219-2.101562 21.394531-8.371094 34.195312-11.511718 36.773438l-22.734376-2.242188-.886718-.085938c-2.574219-3.140624-6.214844-16.914062-4.109375-38.324218zm54.6875 204.351562c-4.027344-.574218-15.996094-8.300781-28.871094-25.542968-12.863281-17.238282-16.863281-30.914063-16.28125-34.933594l18.898437-14.105469c2.910157.429687 9.96875 4.429687 18.683594 13.34375.210938.222656.410156.394531.625.625 1.097656 1.148437 2.25 2.457031 3.390625 3.757813.480469.542968.9375 1.023437 1.425781 1.597656.910157 1.074218 1.847657 2.320312 2.773438 3.496094.695312.890624 1.382812 1.699218 2.09375 2.644531 12.871094 17.230469 16.871094 30.90625 16.277344 34.925781l-10.808594 8.050781.007812.011719zm139.4375 88.496094c-23.886719-7.761719-35.785157-18.121094-37.3125-21.695312l8.25-25.367188c1.253906-.757812 4.25-1.417969 8.757812-1.546875 6.019531-.171875 14.722657.617187 25.609375 3.425781 2.722656.703125 5.582032 1.527344 8.558594 2.5 23.886719 7.761719 35.785156 18.125 37.3125 21.695313l-8.25 25.367187c-3.332031 2.011719-19.035156 3.390625-42.925781-4.378906zm68.105469-24.242188c-.1875-.867187-.496094-1.777343-.855469-2.703124-.078125-.207032-.15625-.40625-.25-.609376-.414063-.964843-.910157-1.941406-1.546875-2.964843-.085938-.136719-.1875-.273438-.273438-.410157-.621094-.960937-1.347656-1.941406-2.183594-2.945312-.136718-.171875-.265624-.335938-.410156-.507812-.9375-1.082032-2.015625-2.1875-3.230468-3.3125-.238282-.222657-.496094-.445313-.746094-.675782-1.3125-1.167968-2.71875-2.355468-4.367188-3.574218-8.851562-6.539063-21.300781-12.609376-35.054687-17.078126-1.742188-.566406-3.496094-1.097656-5.246094-1.613281-.359375-.101562-.730469-.1875-1.097656-.292969-1.398438-.394531-2.800781-.777343-4.199219-1.132812-.351562-.085938-.695312-.160156-1.039062-.238281-1.414063-.34375-2.824219-.679688-4.222657-.980469-.359375-.078125-.714843-.136719-1.0625-.207031-1.390625-.28125-2.777343-.558594-4.140625-.789063-.371094-.0625-.730468-.109375-1.089844-.171875-1.347656-.222656-2.6875-.429687-4.007812-.601562-.386719-.050781-.765625-.082031-1.152344-.128907-1.277344-.144531-2.550781-.289062-3.800781-.386718-.40625-.035156-.800781-.039063-1.203125-.066406-1.210938-.078126-2.40625-.144532-3.582031-.179688-.421875-.011719-.824219 0-1.234375 0-1.117188-.011719-2.234375-.011719-3.304688.035156-.449218.015625-.871094.058594-1.308594.082032-1.003906.0625-2.007812.128906-2.96875.242187-.464843.050781-.910156.136719-1.363281.195313-.886719.128906-1.769531.265624-2.609375.4375-.472656.105468-.910156.226562-1.375.34375-.773437.191406-1.546875.386718-2.265625.628906-.464843.152344-.886719.332031-1.332031.496094-.660156.25-1.324219.507812-1.933594.800781-.4375.210937-.839844.453125-1.261718.683593-.539063.308594-1.085938.621094-1.585938.964844-.40625.28125-.773438.597656-1.140625.898438-.4375.363281-.867187.714844-1.253906 1.117187-.355469.359375-.652344.746094-.972657 1.132813-.332031.414062-.660156.824218-.941406 1.273437-.277344.4375-.507812.898438-.746094 1.371094-.15625.308594-.351562.574219-.488281.894531-23.320312-10.679687-43.726562-23.921875-60.863281-39.503906.082031-.144531.128906-.351562.210938-.503906.441406-.808594.816406-1.710938 1.144531-2.695313.101562-.308593.214843-.59375.300781-.929687.34375-1.304688.574219-2.761719.644531-4.394532.015625-.335937-.019531-.710937-.019531-1.054687.011719-1.390625-.101562-2.910156-.332031-4.550781-.078125-.566406-.164063-1.144532-.277344-1.746094-.394531-2.136719-.917969-4.394531-1.757813-6.953125-2.011718-6.070313-5.289062-12.75-9.359374-19.523437-2.378907-3.957032-4.953126-7.941407-7.882813-11.863282-1.207031-1.617187-2.453125-3.203125-3.714844-4.757812-.34375-.421875-.6875-.832032-1.039062-1.246094-.980469-1.183594-1.976563-2.339844-2.988281-3.476562-.414063-.460938-.824219-.925782-1.246094-1.390626-1.074219-1.175781-2.15625-2.316406-3.253906-3.425781-.644532-.652343-1.289063-1.285156-1.941407-1.921875-.941406-.910156-1.878906-1.800781-2.832031-2.660156-.796875-.722656-1.597656-1.402344-2.40625-2.078125-.515625-.4375-1.027344-.859375-1.542969-1.269531-2.9375-2.363282-5.890625-4.398438-8.835937-6.027344-.488282-.277344-.980469-.542969-1.46875-.789062-.816406-.414063-1.621094-.808594-2.4375-1.160157-1.152344-.492187-2.285156-.910156-3.410156-1.246093-.171876-.050782-.359376-.144532-.53125-.199219-5.605469-17.441407-9.132813-36.175781-10.550782-55.855469l4.027344.394531c.460938.042969.925781.070313 1.414062.070313.148438 0 .308594-.035156.464844-.035156.292969-.007813.59375-.042969.902344-.070313.472656-.039063.941406-.109375 1.441406-.210937.335938-.070313.660156-.15625 1.003906-.25.480469-.136719.953126-.300782 1.441407-.5.371093-.144532.746093-.300782 1.125-.488282.472656-.234375.945312-.515625 1.425781-.808594.402344-.25.800781-.496093 1.210938-.789062.472656-.351562.953124-.765625 1.433593-1.1875.402344-.359375.816407-.695312 1.21875-1.105469.5-.507812.996094-1.109375 1.492188-1.699219.386719-.457031.773437-.875 1.152343-1.390624.566407-.757813 1.117188-1.648438 1.675782-2.53125.308594-.5.625-.917969.933594-1.460938.871093-1.503906 1.71875-3.160156 2.542968-5.023438 4.128906-9.238281 7.117188-21.609374 8.414063-34.8125 1.296875-13.207031.78125-25.910156-1.460938-35.777343-.472656-2.058594-.992187-3.929688-1.578125-5.632813-4.050781-11.863281-10.492187-15.09375-15.488281-15.582031l-2.746094-.277344c12.679688-45.671875 34.367188-89.878906 59.554688-121.351562-6.445313 38.917969-21.367188 161.449219 27.929687 245.742187l-2.222656 2.710938-9.015625 10.996094c-.539063.664062-1.03125 1.433593-1.484375 2.277343-.144531.265625-.257812.539063-.386719.816407-.257812.550781-.472656 1.125-.667969 1.742187-.105468.328125-.191406.660156-.269531.996094-.144531.609375-.246093 1.253906-.316406 1.929687-.035156.308594-.058594.621094-.066406.929688-.042969.738281-.027344 1.519531.035156 2.34375.015625.230468.039063.460937.066406.695312.09375.890625.25 1.820313.480469 2.808594.015625.074219.042969.152344.0625.222656.652344 2.703125 1.863281 5.757813 3.742188 9.195313.335937.609375.671874 1.21875 1.03125 1.828125.253906.4375.4375.832031.722656 1.277344.160156.269531.394531.542968.566406.800781 1.132812 1.75 2.378906 3.511719 3.734375 5.269531.28125.359375.566406.722656.855469 1.089844 1.554687 1.957031 3.203125 3.90625 4.980468 5.839844.199219.210937.40625.425781.601563.644531 1.929687 2.066406 3.949219 4.109375 6.078125 6.109375.136719.128906.273438.25.410156.378906 2.277344 2.121094 4.636719 4.199219 7.066406 6.183594 10.257813 8.402344 21.128907 15.03125 30.582032 18.636718 1.777344.679688 3.414062 1.195313 4.996094 1.632813.464843.128906.902343.238281 1.347656.34375 1.160156.28125 2.257812.503906 3.308594.667969.359374.0625.746093.132812 1.085937.183594 1.222656.144531 2.386719.238281 3.460937.238281.050782 0 .09375-.015625.144532-.015625 1.519531-.007813 2.886718-.164063 4.132812-.421875.308594-.066407.574219-.160157.875-.238281.898438-.242188 1.734375-.515626 2.496094-.851563.320312-.144531.628906-.292969.917969-.453125.671875-.359375 1.28125-.746094 1.839843-1.160156.222657-.164063.453126-.316406.660157-.488282.703125-.59375 1.332031-1.210937 1.855469-1.847656l10.792968-13.167968c27.625 7.273437 67.582032-2.550782 109.710938-12.921876 4.089844-1.003906 8.207031-2.015624 12.347656-3.03125-16.792969 21.679688-30.503906 53.984376-30.503906 84.371094 0 7.289063.378906 13.984375 1.082031 20.132813 2.101563 18.433593 7.152344 31.894531 13.777344 41.253906-17.816407-.648437-34.945313-1.984375-51.207031-3.976563zm112.480468-76.402343c-.070312 6.328125-.128906 12.707031-.128906 19.015625 0 38.144531-11.273438 61.851562-29.414062 61.851562-18.132813 0-29.40625-23.707031-29.40625-61.851562 0-26.46875 14.859374-57.09375 28.261718-75.472656 8.457032-10.65625 16.792969-17.214844 21.800782-17.214844.644531 0 1.0625.121094 1.707031.765625 7.796875 7.871093 7.453125 43.9375 7.179687 72.90625zm0 0"/><path d="m251.171875 470.007812c-16.054687-10.34375-36.480469-16.433593-60.699219-18.097656-4.695312-.25-8.816406 3.246094-9.152344 7.984375-.320312 4.730469 3.253907 8.824219 7.984376 9.152344 21.289062 1.457031 38.984374 6.636719 52.585937 15.402344 1.429687.917969 3.039063 1.363281 4.632813 1.363281 2.824218 0 5.582031-1.390625 7.230468-3.941406 2.558594-3.980469 1.410156-9.296875-2.582031-11.863282zm0 0"/><path d="m83.386719 380.738281c-7.582031-16.492187-16.957031-30.503906-27.851563-41.640625-3.324218-3.390625-8.757812-3.441406-12.140625-.136718-3.390625 3.324218-3.441406 8.757812-.136719 12.140624 9.523438 9.726563 17.773438 22.105469 24.53125 36.804688 1.441407 3.140625 4.546876 5 7.800782 5 1.203125 0 2.414062-.25 3.582031-.792969 4.316406-1.964843 6.207031-7.066406 4.214844-11.375zm0 0"/><path d="m155.445312 284.992188c-3.660156 3.023437-4.171874 8.421874-1.160156 12.089843 10.25 12.421875 21.445313 22.707031 33.265625 30.546875 1.460938.96875 3.109375 1.433594 4.742188 1.433594 2.78125 0 5.511719-1.347656 7.15625-3.835938 2.628906-3.949218 1.546875-9.28125-2.402344-11.902343-10.414063-6.910157-20.339844-16.042969-29.515625-27.171875-3.023438-3.648438-8.421875-4.171875-12.085938-1.160156zm0 0"/><path d="m33.179688 230.878906c.824218.238282 1.65625.359375 2.472656.359375 3.691406 0 7.101562-2.394531 8.222656-6.113281 5.4375-18.054688 7.695312-34.925781 6.742188-50.136719-.292969-4.75-4.722657-8.261719-9.109376-8.035156-4.738281.300781-8.335937 4.378906-8.035156 9.105469.832032 13.179687-1.210937 28.023437-6.054687 44.121094-1.367188 4.542968 1.210937 9.332031 5.761719 10.699218zm0 0"/></svg>