<svg height="512pt" viewBox="-28 0 512 512.00469" width="512pt" xmlns="http://www.w3.org/2000/svg"><path d="m455.542969 185.492188c-9.039063-66.753907-55.121094-127-126.4375-165.3125-3.328125-1.785157-6.699219-3.460938-10.117188-4.996094-21.945312-9.941406-96.960937-14.355469-115.84375-14.980469l-.953125-.070313c-.824218-.070312-1.632812-.132812-2.4375-.132812-.476562 0-.960937.0429688-1.4375.0546875-1.527344-.0390625-2.949218-.0546875-4.132812-.0546875l-12.003906.1875.28125.90625c-.554688.070312-1.121094.140625-1.667969.214844-5.15625.714844-10.320313 1.730468-15.46875 3-.15625.046875-.324219.054687-.492188.097656-5.316406 1.332031-10.601562 2.957031-15.835937 4.867188-43.792969 15.964843-80.351563 42.640624-106.3125 75.683593l-.0625.027344-1.472656 1.914063c-1.070313 1.375-1.996094 2.824218-3.019532 4.230468-1.605468 2.203125-3.238281 4.394532-4.757812 6.652344-1.652344 2.453125-3.167969 4.964844-4.707032 7.460938-1.058593 1.722656-2.152343 3.425781-3.152343 5.171874-1.695313 2.957032-3.238281 5.976563-4.765625 8.996094-.722656 1.417969-1.492188 2.824219-2.179688 4.261719-1.550781 3.265625-2.949218 6.585937-4.316406 9.90625-.539062 1.304687-1.128906 2.585937-1.632812 3.902344-1.316407 3.40625-2.453126 6.867187-3.566407 10.328125-.421875 1.304687-.910156 2.601562-1.304687 3.917968-1.023438 3.453126-1.871094 6.9375-2.695313 10.433594-.324219 1.386719-.730469 2.761719-1.03125 4.160156-.757812 3.566407-1.316406 7.167969-1.863281 10.769532-.203125 1.351562-.492188 2.683594-.667969 4.042968-.628906 4.84375-1.0625 9.71875-1.296875 14.617188-.011718.113281-.027344.230469-.027344.34375-.2148432 4.582031-.2031245 9.1875-.039062 13.808594l.230469 11.449218.515625-.257812c2.574218 25.699219 10.839844 51.578125 24.421875 76.023438 8.539062 15.371093 16.121093 29.855468 22.742187 43.34375l2.894532 6.039062c12.324218 25.703125 20.710937 47.121094 24.921874 63.628906l.925782 3.628906c1.6875 7.457032 2.4375 13.753907 2.066406 18.609376-.644531 8.535156-.082031 15.738281 1.738281 22.015624 1.183594 4.085938 2.585938 7.980469 4.160157 11.695313.085937.203125.15625.425781.246093.636719 1.527344 3.558594 3.25 6.902344 5.09375 10.089844.183594.3125.34375.644531.527344.953124 1.828125 3.0625 3.824219 5.917969 5.933594 8.609376.273437.34375.527343.707031.800781 1.042968 2.101562 2.585938 4.34375 4.96875 6.695312 7.183594.351563.328125.6875.671875 1.039063.988281 2.359375 2.128907 4.820313 4.054688 7.390625 5.792969.40625.273438.8125.554688 1.226562.820312 2.585938 1.667969 5.269532 3.125 8.042969 4.378907.4375.203125.890625.398437 1.339844.582031 2.808594 1.191406 5.6875 2.171875 8.652344 2.921875.460937.117187.917969.222656 1.386719.320313 3.007812.6875 6.089843 1.171874 9.242187 1.394531.175781.007812.34375.070312.527344.078125h1.316406c.867187.054687 1.714844.132812 2.585937.132812.316407 0 .617188-.097656.945313-.105468l38.3125.105468c14.21875 0 25.792969-11.574218 25.792969-25.792968v-70.011719c0-7.566407 1.675781-14.449219 4.863281-19.878907 9.316406-15.925781 7.683594-29.75 5.792969-45.765624-1.164063-9.894532-2.488282-21.125-1.457032-35.15625.460938-6.207032 6.074219-6.613282 7.1875-6.628907 1.410157-.179687 5.375.519531 6.292969 5.003907.238281 2.011718.519531 4 .546875 6.082031l-9.058594 61.820312-8.429687 57.492188-2.804687 19.15625c-.453126 2.746093-.609376 5.492187-.628907 8.230469 0 .476562-.015625.953124-.007812 1.429687.050781 2.691406.308593 5.347656.765625 7.96875.035156.214844.089844.417969.125.617187 1.542968 8.253907 5.003906 15.96875 10.246094 22.140626 7.285156 8.570312 17.03125 13.292968 27.445312 13.292968 3.082031 0 6.082031-.28125 9.050781-.722656l47.171875.722656c29.835938 0 52.199219-20.453125 62.960938-57.609375 1.480468-5.144531 2.054687-10.804687 1.746094-17.273437-.980469-21.257813 20.082031-71.195313 57.804687-137.015625 20.664063-36.046875 29.21875-76.742188 24.089844-114.613281zm-107.964844 133.863281c-33.367187 21.972656-67.34375 37.023437-101.179687 44.84375l4.757812-32.449219c34.832031-4.582031 69.84375-13.65625 104.476562-27.074219-2.683593 4.820313-5.367187 9.710938-8.054687 14.679688zm-88.34375 174.378906-10.820313-.132813c-2.816406-.777343-5.386718-2.277343-7.621093-4.316406-.988281-.898437-1.878907-1.941406-2.726563-3.035156-.609375-.785156-1.121094-1.652344-1.640625-2.507812-.441406-.722657-.917969-1.394532-1.296875-2.171876 20.390625-3.503906 40.878906-9.523437 61.226563-17.894531-8.40625 17.03125-21.46875 27.738281-37.121094 30.058594zm43.8125-55.796875c.0625 1.242188-.027344 2.292969-.0625 3.433594-23.570313 11.023437-47.363281 18.542968-70.957031 22.605468.078125-.988281.027344-1.949218.1875-2.9375l3.617187-24.734374c23.578125-4.105469 47.167969-11.453126 70.425781-21.910157-2.285156 8.957031-3.511718 16.984375-3.210937 23.542969zm10.644531-46.636719c-24.761718 12.703125-49.984375 21.636719-75.160156 26.613281l5.128906-34.984374c29.582032-6.0625 59.207032-17.292969 88.4375-33.507813-7.046875 14.40625-13.429687 28.671875-18.40625 41.878906zm-88.179687-125.429687c-.785157-.523438-1.597657-.980469-2.410157-1.457032-.757812-.441406-1.5-.902343-2.277343-1.296874-.941407-.488282-1.914063-.894532-2.886719-1.316407-.695312-.300781-1.375-.636719-2.082031-.902343-1.058594-.394532-2.152344-.714844-3.238281-1.03125-.664063-.195313-1.316407-.441407-1.988282-.601563-1.066406-.261719-2.160156-.429687-3.246094-.617187-.726562-.121094-1.441406-.300782-2.171874-.386719-.867188-.109375-1.75-.109375-2.632813-.167969-.941406-.0625-1.886719-.175781-2.839844-.175781s-1.898437.113281-2.84375.175781c-.875.050781-1.765625.0625-2.628906.167969-.734375.085937-1.441406.261719-2.164063.386719-1.09375.1875-2.191406.355468-3.265624.617187-.664063.167969-1.296876.398437-1.949219.59375-1.105469.324219-2.199219.632813-3.277344 1.039063-.6875.257812-1.351563.585937-2.023437.875-.988282.421874-1.984376.847656-2.949219 1.34375-.75.378906-1.464844.828124-2.195313 1.253906-.839844.484375-1.6875.96875-2.5 1.507812-.792968.53125-1.5625 1.101563-2.339844 1.675782-.695312.519531-1.386718 1.023437-2.054687 1.582031-.824219.667969-1.609375 1.386719-2.394531 2.117187-.582032.539063-1.15625 1.070313-1.710938 1.632813-.796875.804687-1.5625 1.632812-2.324218 2.492187-.503907.570313-.996094 1.144532-1.484376 1.746094-.378906.464844-.792968.890625-1.164062 1.367188-3.179688-5.550782-4.871094-11.730469-4.871094-18.085938 0-21.902344 19.796875-39.722656 44.136719-39.722656 24.335937 0 44.136719 17.820312 44.136719 39.722656 0 6.355469-1.6875 12.527344-4.871094 18.085938-.371094-.484376-.796875-.910157-1.175781-1.375-.476563-.582032-.960938-1.15625-1.457031-1.714844-.765626-.871094-1.550782-1.722656-2.363282-2.542969-.539062-.539063-1.085937-1.046875-1.644531-1.5625-.8125-.75-1.621094-1.480469-2.460937-2.179687-.644532-.527344-1.308594-1.015626-1.96875-1.507813-.785157-.59375-1.585938-1.191406-2.417969-1.738281zm-76.703125 228.113281c-.546875.070313-1.066406.167969-2.023438.363281-15.796875 0-29.421875-8.273437-39.042968-22.671875 18.140624 6.074219 36.6875 9.949219 55.402343 11.988281-.75 1.246094-1.449219 2.527344-2.382812 3.621094-2.753907 3.238282-6.074219 5.390625-9.613281 6.390625zm-97.121094-185.203125c31.1875 11.792969 63.640625 19.726562 96.847656 23.691406l5.128906 35.132813c-37.375-5.933594-67.785156-19.667969-87.949218-31.214844-4.527344-9.328125-9.269532-18.605469-14.027344-27.609375zm104.597656 77.179688 5.121094 34.9375c-23.648438-2.9375-46.980469-9.410157-69.570312-19.296876 0 0-.011719-.035156-.019532-.050781-3.359375-12.023437-8.304687-25.300781-14.183594-39.046875 25.21875 11.804688 51.933594 19.792969 78.652344 23.457032zm7.777344 52.945312 3.25 22.28125c.28125 1.746094.289062 3.480469.316406 5.21875-23.851562-2.339844-47.402344-8.160156-70.199218-17.515625-1.09375-4.121094-1.453126-9.058594-.996094-15.191406.257812-3.425781.070312-7.265625-.378906-11.324219 22.175781 8.5625 44.960937 14.105469 68.007812 16.53125zm-127.566406-311.578125c1.402344-2.769531 2.851562-5.523437 4.40625-8.234375.847656-1.472656 1.746094-2.921875 2.636718-4.378906 1.40625-2.296875 2.835938-4.582032 4.335938-6.824219 1.191406-1.785156 2.4375-3.539063 3.699219-5.296875.742187-1.03125 1.519531-2.046875 2.285156-3.070312 49.375-19.371094 95.367187-27.445313 137.070313-28.574219v27.035156c-47.574219 1.246094-100.585938 11.40625-157.566407 35.902344.460938-.996094.847657-2.019531 1.324219-3.007813.566406-1.191406 1.207031-2.367187 1.808594-3.550781zm172.085937-11.644531c74.070313 1.484375 132.96875 24.800781 170.335938 44.96875.203125.644531.433593 1.289062.628906 1.941406.238281.789062.519531 1.5625.75 2.351562.792969 2.796876 1.445313 5.628907 2.089844 8.464844.222656.980469.515625 1.941406.71875 2.921875.792969 3.8125 1.453125 7.652344 1.984375 11.519531 0 0 0 .042969.007812.0625.371094 2.773438.539063 5.589844.75 8.394532-36.648437-19.507813-98.53125-44.367188-177.257812-45.910156v-34.714844zm0-17.714844v-27.101562c55.15625 1.113281 101.949219 14.214843 137.535157 29.085937 9.1875 11.539063 16.746093 23.535156 22.835937 35.886719-39.027344-18.484375-93.917969-36.589844-160.371094-37.871094zm-189.882812 88.8125c.175781-1.640625.308593-3.289062.539062-4.925781.460938-3.335938 1.070313-6.636719 1.730469-9.929688.203125-.996093.335938-2.011719.554688-3.007812.867187-3.9375 1.910156-7.832031 3.046874-11.699219 60.496094-28.59375 116.550782-40.15625 166.367188-41.515625v34.816406c-51.730469 1.296875-109.996094 12.824219-172.765625 42.292969.132813-2.011719.308594-4.027344.527344-6.03125zm350.359375 93.300781c-38.570313 16.929688-77.746094 28.222657-116.65625 33.695313-.015625-.191406-.054688-.371094-.070313-.566406-.015625-.210938-.007812-.433594-.035156-.644532-.027344-.253906-.113281-.492187-.152344-.742187-.660156-5.621094-1.914062-11.023438-3.769531-16.074219 8.519531-10.082031 13.164062-22.414062 13.164062-35.335938 0-28.847656-23.078124-52.726562-52.964843-56.726562v-35.609375c81.566406 1.660156 144.046875 29.476563 177.414062 48.492187-1.296875 21.378907-7.015625 43.046876-16.929687 63.511719zm-160.476563-226.921875v-34.96875c16.375 1.210938 33.507813 5.535156 50.167969 13.074219 3.054688 1.378906 6.070312 2.871094 9.054688 4.476563 19.191406 10.3125 36.34375 22.324218 51.324218 35.621093-31.53125-9.976562-68.714844-17.390625-110.546875-18.203125zm-53.539062-27.304687c9.292969-3.390625 18.765625-5.753907 28.140625-7.054688h.011718c.035157 0 .078126-.007812.113282-.007812 2.53125-.335938 5.074218-.46875 7.609375-.644531v35.109374c-34.859375.898438-72.617188 6.582032-112.730469 19.136719 21.230469-19.703125 47.238281-35.742187 76.855469-46.539062zm-137.066407 186.703125c62.992188-30.886719 121.398438-43.035156 172.941407-44.394532v35.523438c-29.890625 4-52.964844 27.878906-52.964844 56.726562 0 12.921876 4.640625 25.253907 13.160156 35.328126-2.136719 5.851562-3.550781 12.152343-4.078125 18.757812-37.457031-4.800781-73.878906-14.902344-108.457031-30.101562-12.234375-23.289063-19.234375-47.765626-20.601563-71.839844zm185.457032 101.542968c-1.164063 15.722657.328125 28.363282 1.527344 38.527344 1.703124 14.429688 2.824218 23.957032-3.496094 34.769532-4.757813 8.132812-7.273438 18.085937-7.273438 28.796874v70.011719c0 4.492188-3.648437 8.140625-8.140625 8.140625h-8.578125c6.652344-10.164062 9.363282-23.21875 7.289063-35.867187l-2.636719-18.015625-10.328125-70.480469-5.210937-35.53125h.019531l-2.15625-14.609375c.097656-8.527344 2.15625-16.421875 5.511719-23.171875.519531-1.042969 1.058593-2.050781 1.640624-3.03125.601563-1.023437 1.261719-1.976563 1.933594-2.929687 1.007813-1.429688 2.074219-2.769532 3.203125-4.015626.769531-.847656 1.546875-1.695312 2.367188-2.460937.792969-.734375 1.617187-1.40625 2.445312-2.058594.953125-.730469 1.933594-1.394531 2.941407-2.011719.855468-.53125 1.710937-1.058593 2.601562-1.5 1.535156-.75 3.117188-1.378906 4.742188-1.863281.589843-.175781 1.179687-.316406 1.773437-.460937 2-.449219 4.035156-.785156 6.144531-.785156 2.097656 0 4.136719.335937 6.144532.785156.589843.132812 1.171874.273437 1.753906.453125 1.652344.484375 3.257812 1.109375 4.820312 1.886719.839844.425781 1.652344.917968 2.472656 1.429687 1.050782.644531 2.066407 1.324219 3.054688 2.09375.800781.625 1.605469 1.28125 2.375 1.984375.898438.832031 1.746094 1.75 2.574219 2.675781 1.027343 1.148438 1.996093 2.367188 2.925781 3.664063.164062.238281.316406.492187.484375.734375-10.875.878906-21.882813 8.691406-22.925781 22.839843zm212.703125-22.785156c-28.25 49.285156-61.609375 114.726563-60.136719 146.621094.214844 4.519531-.140625 8.289062-1.074219 11.535156-5.914062 20.472656-18.707031 44.871094-45.867187 44.871094l-13.164063-.160156c10.25-9.824219 18.273438-23.347656 23.039063-39.804688 1.484375-5.144531 2.058594-10.804687 1.75-17.265625-.40625-8.730469 3.160156-22.785156 10.089844-40.828125.777343-2.019531 1.605468-4.113281 2.472656-6.230468 1.242187-3.074219 2.585937-6.25 4.007812-9.515626 1.164063-2.667968 2.355469-5.375 3.636719-8.175781.871094-1.90625 1.722656-3.792969 2.640625-5.765625 2.242188-4.773437 4.648438-9.726562 7.199219-14.855468.523437-1.042969 1.035156-2.09375 1.574219-3.140626 2.949218-5.847656 6.070312-11.882812 9.410156-18.140624 5.183594-9.730469 10.75-19.835938 16.773437-30.351563 13.335938-23.269531 21.546875-48.472656 24.371094-73.601563l.636719.367188.300781-11.535156c.050781-1.0625.050781-2.109375.085937-3.160156l.011719-.316407c.007813-.328125-.019531-.617187-.011719-.945312.089844-4.148438.089844-8.28125-.132812-12.394531-.210938-4.464844-.601562-8.792969-1.164062-13.019532-.585938-4.273437-1.324219-8.519531-2.199219-12.738281-.308594-1.484375-.722657-2.941406-1.070313-4.414063-.644531-2.734374-1.261718-5.472656-2.03125-8.183593-.421875-1.480469-.933594-2.945313-1.402344-4.429688-.847656-2.738281-1.695312-5.464843-2.664062-8.164062-.398438-1.09375-.855469-2.179688-1.28125-3.269531-1.210938-3.167969-2.460938-6.320313-3.839844-9.433594-.21875-.496094-.464844-.980469-.6875-1.476563-19.394531-42.882812-54.890625-80.65625-102.65625-108.304687 12.15625 1.84375 22 3.945312 26.960938 6.1875 3.0625 1.386718 6.082031 2.886718 9.054687 4.476562 66.261719 35.59375 109.015625 91.039063 117.277344 152.105469 4.605469 34.039063-3.179687 70.777344-21.910156 103.457031zm0 0"/></svg>