<svg height="512pt" viewBox="-7 0 512 512.00482" width="512pt" xmlns="http://www.w3.org/2000/svg"><path d="m223.113281 57.359375c.632813-10.503906-7.101562-19.617187-17.25-20.324219-4.902343-.441406-9.542969 1.253906-13.25 4.492188-3.8125 3.355468-6.191406 8.230468-6.515625 13.417968-.632812 10.5 7.101563 19.613282 17.25 20.324219.429688.039063.859375.046875 1.28125.046875 4.398438 0 8.605469-1.59375 11.980469-4.5625 3.832031-3.351562 6.199219-8.230468 6.503906-13.394531zm-19.171875-.96875.457032-.171875 9.152343.554688zm0 0"/><path d="m494.550781 261.082031-30.855469-60.617187 12.753907-8.386719 1.753906-1.476563c7.722656-8.308593 11.480469-19.652343 10.320313-31.09375-1.109376-10.933593-6.660157-20.738281-15.234376-26.949218l-55.226562-43.867188c.355469-1.503906.617188-2.703125.769531-3.441406 4.121094-11.566406 3.132813-24.28125-2.730469-35.023438-5.617187-10.265624-15.160156-17.488281-26.191406-19.835937l-107.988281-17.015625c-4.179687-.882812-8.480469-.96875-12.820313-.308594-.183593-.132812-.335937-.285156-.519531-.410156-33.164062-23.277344-87.527343-7.457031-89.824219-6.757812l-120.394531 58.140624c-24.523437-12.277343-40.285156-30.65625-39.125-49.714843.316407-5.269531-3.699219-9.824219-8.988281-10.136719-5.089844-.078125-9.824219 3.707031-10.148438 8.976562-1.457031 24.035157 13.394532 46.257813 38.253907 61.953126-2.445313 2.664062-4.09375 6.046874-4.410157 9.867187-.515624 6.027344 2.070313 11.691406 6.917969 15.140625 25.757813 18.34375 90.996094 59.316406 159.378907 59.316406 3.59375 0 7.195312-.117187 10.796874-.34375 2.128907-.132812 4.140626-.414062 6.191407-.640625l.75.792969c.746093.796875 1.492187 1.574219 2.308593 2.308594l31.667969 38.726562c-6.230469 4.378906-13.78125 7.003906-21.960937 7.003906-5.300782 0-9.585938 4.28125-9.585938 9.582032 0 5.296875 4.285156 9.582031 9.585938 9.582031 14.027344 0 26.878906-5.058594 36.871094-13.433594 8.339843 4.886719 17.804687 7.570313 27.378906 7.570313.804687 0 1.621094-.097656 2.425781-.136719-10.359375 15.179687-27.792969 25.164063-47.511719 25.164063-5.300781 0-9.582031 4.285156-9.582031 9.585937 0 5.296875 4.28125 9.582031 9.582031 9.582031 27.042969 0 50.804688-14.105468 64.453125-35.3125l5.449219 17.851563.652344 1.621093c1.792968 3.449219 4.167968 6.351563 6.777344 8.988282l-3.816407 15.945312-.238281 1.699219c-.601562 10.894531 3.910156 21.308594 12.09375 27.875 2.394531 1.921875 5.03125 3.363281 7.769531 4.484375l-6.484375 7.519531-.988281 1.390625c-4.898437 8.257813-5.644531 18.324219-2.003906 26.898438.164062.371094.414062.667968.585937 1.035156-16.617187 4.742188-33.40625 8-45.46875 8.679688-12.859375.699218-24.425781 9.871093-28.117187 22.289062-2.824219 9.476562.011719 18.734375 7.398437 24.160156 8.25 6.042969 21.820313 4.933594 43.1875 2.363282 8.003906-.957032 16.25-2.019532 20.96875-1.625 1.371094.09375 2.414063.515624 2.742188 1.109374.324218.59375.324218 1.984376-.738282 3.929688-1.449218 2.664062-3.414062 5.96875-5.644531 9.746094-13.492187 22.796875-33.894531 57.253906-26.660156 81.480468 2.585937 8.640626 10.109375 14.410157 19.65625 15.03125.621094.039063 1.242187.058594 1.867187.058594 12.140626 0 23.863282-7.625 28.976563-19.066406 9.988281-22.347656 38.667969-56.242188 69.027344-92.117188l6.273437-7.425781c.691406-.816406 2.636719-2.894531 5.222656-5.65625 2.148438-2.300781 4.734376-5.089843 7.398438-7.972656.046875 0 .097656.019531.136719.019531 5.996093 0 11.988281-1.917968 17.074219-5.578125 7.261718-5.214843 11.890624-13.28125 12.726562-22.136719l.058594-.632812-1.699219-43.042969 1.851563-.019531 2.5-.355469c9.304687-2.605469 17.121093-9.257812 21.472656-18.234375 4.394531-9.132812 4.742187-19.578125.929687-28.703125zm-33.015625-113.371093.402344.296874c4.199219 3 6.949219 7.898438 7.503906 13.4375.574219 5.605469-1.09375 11.125-4.589844 15.320313l-99.464843 65.449219-1.753907 1.476562c-1.296874 1.390625-2.773437 2.433594-4.304687 3.316406-.363281.207032-.738281.402344-1.109375.582032-1.476562.699218-3 1.238281-4.574219 1.476562-.09375.011719-.191406.058594-.296875.078125-1.753906.230469-3.535156.132813-5.269531-.238281-.203125-.039062-.402344-.105469-.601563-.152344-1.726562-.441406-3.421874-1.113281-4.996093-2.167968l-.554688-.375c-1.90625-1.398438-3.574219-3.207032-4.839843-5.414063l-8.882813-29.101563c1.113281-.5 2.136719-1.082031 3.21875-1.609374 47.4375-22.863282 70.75-71.820313 80.839844-101.5zm-406.289062-60.886719 3.046875-1.476563c15.851562 6.59375 34.117187 10.992188 53.914062 12.382813.21875.007812.449219.015625.667969.015625 4.992188 0 9.199219-3.859375 9.554688-8.917969.363281-5.28125-3.621094-9.851563-8.902344-10.226563-10.683594-.746093-20.929688-2.578124-30.523438-5.210937l101.929688-49.339844c13.828125-3.949219 51.726562-10.371093 72.617187 4.28125 1.699219 1.1875 3.058594 2.664063 4.484375 4.082031 1.035156 1.035157 2.0625 2.070313 2.953125 3.21875.890625 1.160157 1.648438 2.453126 2.40625 3.738282.679688 1.160156 1.40625 2.28125 1.984375 3.546875.753906 1.695312 1.328125 3.589843 1.886719 5.480469.324219 1.101562.757813 2.105468 1.015625 3.277343.710938 3.199219 1.207031 6.609375 1.429688 10.328125l.121093 1.074219c0 .019531.03125.164063.058594.402344.019531.113281.039063.304687.058594.46875.019531.164062.039062.308593.066406.519531.152344 1.292969.367187 3.417969.472656 6.167969v.011719c.027344.902343.054688 1.871093.054688 2.894531v.058593c0 1.015626-.007813 2.058594-.039063 3.140626 0 .085937 0 .164062-.007812.25-.039063 1.0625-.097656 2.175781-.175782 3.324218-.007812.117188-.007812.222656-.015624.335938-.085938 1.132812-.191407 2.292968-.328126 3.480468-.015624.152344-.027343.296876-.046874.449219-.144532 1.167969-.316407 2.367188-.507813 3.585938-.027344.179687-.054687.363281-.085937.554687-.203126 1.199219-.441407 2.40625-.71875 3.632813-.046876.230469-.09375.460937-.152344.691406-.277344 1.195313-.59375 2.394531-.941406 3.613281-.074219.265625-.152344.535156-.238282.804688-.355468 1.175781-.746094 2.363281-1.167968 3.542968-.117188.316407-.230469.625-.34375.941407-.433594 1.140625-.902344 2.277343-1.410157 3.421875-.160156.363281-.335937.71875-.496093 1.082031-.507813 1.082031-1.054688 2.164063-1.648438 3.230469-.234375.410156-.472656.8125-.710938 1.226562-.585937 1.003906-1.207031 2.011719-1.871093 2.996094-.726563 1.09375-1.464844 2.175781-2.296875 3.230469-10.753906 13.636719-28.105469 21.324219-51.574219 22.847656-63.214844 4.316406-127.007813-34.070313-154.519531-53.160156zm224.261718 111.214843c5.039063-8.546874 7.980469-18.464843 7.980469-29.082031 0-5.300781-4.28125-9.582031-9.582031-9.582031s-9.582031 4.28125-9.582031 9.582031c0 5.894531-1.449219 11.402344-3.824219 16.394531l-22.691406-27.730468c17.011718-6.335938 29.648437-17.34375 37.660156-32.859375.039062-.058594.066406-.117188.105469-.183594.917969-1.371094 1.753906-2.757813 2.566406-4.148437.195313-.324219.402344-.652344.585937-.988282.785157-1.40625 1.503907-2.824218 2.1875-4.253906.152344-.324219.324219-.640625.46875-.96875.667969-1.4375 1.273438-2.875 1.839844-4.320312.125-.308594.25-.625.375-.929688.554688-1.457031 1.050782-2.894531 1.511719-4.34375.097656-.296875.195313-.59375.289063-.890625.449218-1.457031.851562-2.890625 1.214843-4.339844.070313-.265625.144531-.546875.210938-.8125.355469-1.457031.671875-2.886719.949219-4.304687.046874-.238282.09375-.476563.144531-.71875.265625-1.4375.507812-2.84375.707031-4.234375.03125-.210938.058594-.414063.085938-.613281.191406-1.402344.355468-2.78125.488281-4.121094.019531-.171875.03125-.34375.050781-.519532.121094-1.359374.230469-2.683593.296875-3.964843.007813-.136719.007813-.261719.015625-.394531.070312-1.292969.117188-2.539063.136719-3.746094 0-.117188 0-.230469 0-.347656.015625-1.207032.015625-2.363282 0-3.46875v-.132813c-.019531-1.140625-.046875-2.214844-.105469-3.21875v-.09375c-.203125-4.101563-.585938-7.0625-.765625-8.289063-.011719-.230468-.058594-.429687-.070313-.660156-.164062-2.347656-.394531-4.648437-.71875-6.863281-.230468-1.519531-.566406-2.96875-.871093-4.433594-.183594-.84375-.308594-1.726562-.507813-2.550781-.46875-1.90625-1.046875-3.726562-1.65625-5.519531-.105468-.316407-.183594-.652344-.296875-.957031-.699219-1.976563-1.515625-3.863282-2.398437-5.703126-.046875-.09375-.074219-.191406-.113282-.285156l99.953126 15.761719c5.550781 1.246094 10.195312 4.867187 13.128906 10.222656 3.324218 6.074219 3.804687 13.3125 1.34375 19.847657l-.453125 1.582031c-.054688.335937-2.335938 11.59375-8.152344 27.136719-.316406.851562-.632813 1.695312-.976563 2.585937-.308593.796875-.632812 1.601563-.960937 2.417969-.660156 1.636718-1.347656 3.3125-2.097656 5.03125-.09375.210937-.179688.421875-.277344.640625-10.042969 23.007812-27.503906 52.117187-55.867187 69.484375-.105469.066406-.21875.132812-.335938.199218-1.878906 1.140626-3.882812 2.15625-5.855469 3.191407.046875-1.140625.175781-2.261719.175781-3.410157 0-5.300781-4.285156-9.582031-9.585937-9.582031-5.296875 0-9.582031 4.28125-9.582031 9.582031 0 3.898438-.402344 7.710938-1.140625 11.402344-1.339844.363282-2.660157.765625-4.042969 1.082032-7.378906 1.675781-15.109375.632812-21.960938-2.578126zm132.738282 182.960938-6.277344 7.414062c-31.257812 36.941407-60.789062 71.851563-71.886719 96.679688-2.3125 5.164062-7.878906 8.15625-12.113281 7.714844-2.167969-.144532-2.394531-.929688-2.539062-1.402344-4.832032-16.195312 14.441406-48.746094 24.789062-66.234375 2.367188-3.984375 4.4375-7.492187 5.980469-10.308594 4.109375-7.53125 4.371093-15.679687.71875-22.335937-3.546875-6.460938-10.195313-10.476563-18.242188-11.019532-1.046875-.070312-2.148437-.105468-3.296875-.105468-6.027344 0-13.453125.898437-21.253906 1.828125-9.027344 1.074219-25.835938 3.117187-29.570312 1.210937-.269532-.203125-1.09375-.808594-.367188-3.25 1.1875-4.015625 5.558594-8.335937 10.792969-8.625 16.632812-.917968 40.042969-5.882812 61.804687-13.082031.289063.089844.59375.175781.902344.230469l65.792969 15.574218c-2.582031 2.777344-4.515625 4.855469-5.234375 5.710938zm38.050781-30.1875c-.441406 3.117188-2.15625 5.941406-4.753906 7.8125-1.378907.988281-4.226563 2.5-7.675781 1.773438l-.285157-.058594-81.386719-19.242188c-.316406-.105468-.601562-.238281-1.445312-.605468l-1.09375-.457032c-1.792969-1.132812-2.75-2.742187-3.199219-3.785156-1.199219-2.835938-1.007812-6.074219.496094-9.007812l15.378906-17.84375 82.296875-.824219zm26.074219-69.40625c-1.789063 3.691406-4.789063 6.480469-8.34375 7.792969l-3.367188.027343-62.839844.632813-41.886718.414063h-.027344l-2.40625.015624-.316406.375c-3.824219.996094-7.605469.25-10.644532-2.175781-3.230468-2.597656-5.023437-6.609375-4.984374-11.105469l2.332031-9.765624c.527343.117187 1.050781.15625 1.578125.242187.394531.066406.738281.238281 1.132812.296875.515625.066406 1.023438.054688 1.542969.105469.105469.007812.199219.007812.304687.015625.980469.089844 1.957032.203125 2.914063.203125.363281 0 .71875-.09375 1.082031-.105469 1.582032-.058594 3.164063-.210938 4.726563-.476562 1.042969-.175782 2.050781-.441407 3.066406-.710938.929687-.238281 1.839844-.535156 2.75-.859375 1.0625-.375 2.117187-.757813 3.140625-1.246094 1.449219-.671875 2.855469-1.449219 4.226562-2.320312.574219-.371094 1.132813-.757813 1.695313-1.160157 1.667969-1.1875 3.277344-2.480468 4.761719-3.976562l70.789062-46.570312 29.386719 57.699218c1.570313 4 1.351563 8.601563-.613281 12.652344zm0 0"/></svg>