<svg height="512pt" viewBox="-1 0 512 512" width="512pt" xmlns="http://www.w3.org/2000/svg"><path d="m468.078125 385.003906 3.511719-9.574218c2.96875-8.097657 3.867187-18.121094 2.847656-31.566407-.269531-3.566406-.691406-6.992187-1.097656-10.277343-1.488282-11.992188-2.085938-19.128907 3.027344-26.601563 1.636718-2.398437 5.0625-6.480469 8.683593-10.796875 14.636719-17.429688 24.992188-30.582031 24.992188-41.160156 0-10.589844-10.371094-23.757813-25.027344-41.203125-3.613281-4.300781-7.03125-8.367188-8.660156-10.753907-5.101563-7.464843-4.503907-14.613281-3.015625-26.59375.40625-3.304687.828125-6.710937 1.097656-10.277343 2.921875-38.417969-8.78125-44.984375-28.410156-51.222657-9.585938-3.054687-20.460938-6.503906-32.457032-18.503906-11.988281-12-15.449218-22.863281-18.496093-32.449218-6.238281-19.636719-12.800781-31.273438-51.222657-28.410157-3.5625.269531-6.972656.691407-10.265624 1.109375-11.984376 1.476563-19.136719 2.074219-26.613282-3.019531-2.375-1.628906-6.433594-5.035156-10.726562-8.644531-17.453125-14.675782-30.632813-25.058594-41.226563-25.058594-10.597656 0-23.773437 10.382812-41.230469 25.054688-4.289062 3.605468-8.347656 7.011718-10.726562 8.640624-7.464844 5.085938-14.613281 4.488282-26.601562 3.019532-3.296876-.417969-6.710938-.839844-10.277344-1.109375-38.375-2.941407-44.976563 8.773437-51.210938 28.402343-3.054687 9.582032-6.507812 20.457032-18.507812 32.464844-11.996094 11.988282-22.863282 15.441406-32.449219 18.496094-19.636719 6.226562-31.339844 12.792969-28.414063 51.210938.273438 3.566406.699219 6.984374 1.105469 10.277343 1.496094 11.992188 2.09375 19.136719-3.011719 26.59375-1.625 2.378907-5.023437 6.429688-8.632812 10.710938-14.671875 17.472656-25.0625 30.648437-25.0625 41.253906 0 10.589844 10.371094 23.746094 25.011719 41.1875 3.613281 4.308594 7.039062 8.382813 8.675781 10.777344 5.105469 7.464843 4.507812 14.613281 3.019531 26.601562-.40625 3.304688-.832031 6.710938-1.109375 10.277344-2.921875 38.410156 8.789063 44.976563 28.417969 51.210937 9.585937 3.054688 20.460937 6.496094 32.449219 18.496094 11.988281 12 15.449218 22.875 18.503906 32.457032 6.238281 19.636718 12.796875 31.28125 51.214844 28.410156 3.570312-.269532 6.988281-.691406 10.292968-1.105469 11.972657-1.507813 19.117188-2.09375 26.585938 3.015625 2.386719 1.636719 6.453125 5.054688 10.757812 8.660156 17.449219 14.65625 30.617188 25.027344 41.199219 25.039063 10.585938 0 23.746094-10.363281 41.183594-25.019531 4.316406-3.617188 8.382813-7.03125 10.777344-8.675782 7.503906-5.132812 14.671875-4.515625 26.691406-3.027344 2.871094.363282 5.828125.722657 8.890625.992188l13.746094 1.214844-74.566406-196.128906zm-170.859375 77.054688c-3.097656 2.121094-7.292969 5.640625-12.148438 9.714844-7.375 6.195312-24.652343 20.703124-30.035156 20.960937-5.429687-.257813-22.714844-14.773437-30.09375-20.976563-4.84375-4.066406-9.023437-7.578124-12.113281-9.691406-8.128906-5.570312-16.117187-7.109375-23.953125-7.109375-4.90625 0-9.75.605469-14.542969 1.210938-3.035156.371093-6.183593.769531-9.472656 1.023437-27.527344 2.082032-28.890625-2.191406-33.410156-16.402344-3.277344-10.332031-7.773438-24.476562-22.75-39.457031-14.972657-14.964843-29.117188-19.464843-39.449219-22.75-14.203125-4.507812-18.492188-5.882812-16.398438-33.402343.25-3.277344.648438-6.417969 1.019532-9.453126 1.546875-12.429687 3.148437-25.277343-5.902344-38.515624-2.117188-3.097657-5.636719-7.292969-9.714844-12.136719-6.191406-7.378907-20.699218-24.652344-20.960937-30.035157.261719-5.449218 14.804687-22.761718 21.015625-30.140624 4.046875-4.828126 7.550781-8.988282 9.660156-12.078126 9.042969-13.234374 7.441406-26.089843 5.894531-38.503906-.375-3.035156-.773437-6.175781-1.023437-9.453125-2.09375-27.546875 2.199218-28.902343 16.402344-33.410156 10.328124-3.289063 24.472656-7.777344 39.449218-22.75 14.972656-14.976563 19.472656-29.128906 22.757813-39.46875 4.507812-14.203125 5.875-18.503906 33.402343-16.390625 3.277344.25 6.425782.636719 9.453126 1.019531 12.433593 1.546875 25.269531 3.148438 38.507812-5.90625 3.085938-2.113281 7.257812-5.617187 12.082031-9.671875 7.40625-6.1875 24.707031-20.71875 30.105469-20.976562 5.441406.257812 22.734375 14.792968 30.113281 20.992187 4.835938 4.058594 9.007813 7.5625 12.09375 9.683594 13.238281 9.039063 26.082031 7.421875 38.515625 5.898437 3.027344-.378906 6.167969-.769531 9.449219-1.019531 27.535156-2.070312 28.902344 2.195313 33.40625 16.402344 3.28125 10.328125 7.777344 24.472656 22.753906 39.445313 14.972657 14.976562 29.117188 19.476562 39.445313 22.753906 14.214844 4.515625 18.496094 5.878906 16.402344 33.414062-.25 3.289063-.640626 6.429688-1.019532 9.464844-1.539062 12.425781-3.140625 25.261719 5.90625 38.496094 2.121094 3.089844 5.632813 7.277344 9.699219 12.109375 6.195313 7.390625 20.707031 24.664062 20.96875 30.054687-.257813 5.433594-14.757813 22.683594-20.945313 30.0625-4.082031 4.863282-7.601562 9.066406-9.730468 12.164063-9.039063 13.234375-7.449219 26.070312-5.910156 38.484375.382812 3.046875.773437 6.1875 1.023437 9.472656.398437 5.277344.464844 9.890625.171875 13.878906l-29.984375-16.992187c.589844-.621094 1.175781-1.246094 1.566406-2.050781 12.628907-26.011719 19.039063-53.953126 19.039063-83.082032 0-104.96875-85.398438-190.367187-190.359375-190.367187-104.96875 0-190.371094 85.398437-190.371094 190.367187s85.402344 190.371094 190.371094 190.371094c22.402343 0 44.195312-4.058594 65.019531-11.636719l7.542969 19.835938c-10.675781-1.160157-21.679688-1.160157-32.949219 6.546875zm19.28125-42.570313c-18.859375 6.835938-38.589844 10.492188-58.878906 10.492188-95.425782 0-173.066406-77.640625-173.066406-173.070313 0-95.425781 77.640624-173.066406 173.066406-173.066406 95.429687 0 173.0625 77.640625 173.0625 173.070312 0 26.488282-5.824219 51.894532-17.304688 75.511719-.234375.476563-.242187.976563-.378906 1.472657l-164.488281-93.230469zm0 0"/><path d="m261.429688 197.480469c2.214843 0 4.425781-.847657 6.113281-2.535157 23.574219-23.582031 23.585937-61.9375 0-85.527343-3.382813-3.382813-8.847657-3.382813-12.230469 0-11.425781 11.425781-17.722656 26.617187-17.722656 42.757812 0 16.152344 6.296875 31.335938 17.722656 42.761719 1.6875 1.695312 3.902344 2.542969 6.117188 2.542969zm0-67.933594c8.535156 13.847656 8.535156 31.425781 0 45.269531-4.1875-6.757812-6.542969-14.5-6.542969-22.640625.003906-8.128906 2.347656-15.875 6.542969-22.628906zm0 0"/><path d="m255.3125 408.710938c1.6875 1.6875 3.902344 2.53125 6.117188 2.53125 2.214843 0 4.429687-.847657 6.117187-2.53125 23.582031-23.585938 23.582031-61.933594 0-85.515626-3.382813-3.382812-8.851563-3.382812-12.230469 0-11.429687 11.429688-17.726562 26.609376-17.726562 42.753907-.003906 16.140625 6.285156 31.332031 17.722656 42.761719zm6.117188-65.382813c8.535156 13.839844 8.535156 31.417969 0 45.25-4.1875-6.746094-6.542969-14.488281-6.542969-22.628906.003906-8.140625 2.347656-15.875 6.542969-22.621094zm0 0"/><path d="m325.550781 252.941406c-3.382812 3.382813-3.382812 8.851563 0 12.234375 11.425781 11.425781 26.609375 17.730469 42.757813 17.730469 16.144531 0 31.335937-6.304688 42.761718-17.730469 3.382813-3.382812 3.382813-8.851562 0-12.234375-23.582031-23.566406-61.949218-23.566406-85.519531 0zm20.128907 6.125c13.839843-8.539062 31.417968-8.546875 45.269531 0-6.757813 4.195313-14.5 6.546875-22.640625 6.546875-8.128906-.007812-15.875-2.359375-22.628906-6.546875zm0 0"/><path d="m197.308594 265.175781c3.382812-3.382812 3.382812-8.851562 0-12.234375-23.582032-23.574218-61.941406-23.5625-85.515625 0-3.382813 3.382813-3.382813 8.851563 0 12.234375 11.429687 11.425781 26.613281 17.730469 42.753906 17.730469 16.144531 0 31.335937-6.296875 42.761719-17.730469zm-20.121094-6.117187c-6.757812 4.195312-14.5 6.546875-22.640625 6.546875-8.132813 0-15.875-2.351563-22.628906-6.539063 13.839843-8.546875 31.417969-8.546875 45.269531-.007812zm0 0"/><path d="m311.09375 218.042969c33.339844-.007813 60.46875-27.136719 60.46875-60.46875 0-4.78125-3.878906-8.648438-8.652344-8.648438-33.339844 0-60.46875 27.128907-60.46875 60.46875 0 4.78125 3.875 8.648438 8.652344 8.648438zm41.914062-50.5625c-3.746093 15.824219-16.179687 28.246093-32 32 3.746094-15.824219 16.175782-28.253907 32-32zm0 0"/><path d="m211.765625 297.320312c-.011719 0-.011719 0-.019531 0-16.148438 0-31.339844 7.664063-42.742188 19.082032-11.417968 11.410156-17.707031 27.988281-17.703125 44.144531 0 4.785156 3.878907 8.652344 8.652344 8.652344 33.339844 0 60.46875-27.128907 60.46875-60.460938 0-.492187-.199219-.90625-.277344-1.382812.078125-.46875.277344-.890625.277344-1.386719-.007813-4.773438-3.882813-8.648438-8.65625-8.648438zm-42.183594 53.402344c1.714844-8.289062 5.667969-16.109375 11.652344-22.085937 5.894531-5.894531 13.203125-10.554688 21.152344-12.699219-2.921875 17.1875-15.953125 30.910156-32.804688 34.785156zm0 0"/><path d="m202.714844 166.632812c-11.410156-11.417968-26.601563-17.707031-42.757813-17.707031-4.777343 0-8.652343 3.867188-8.652343 8.648438 0 0 .035156.113281.035156.183593 0 0-.035156.113282-.035156.183594 0 16.160156 6.289062 31.703125 17.699218 43.132813 11.410156 11.398437 26.59375 18.398437 42.746094 18.398437h.015625c4.773437 0 8.652344-3.875 8.652344-8.652344 0-.25-.121094-.464843-.148438-.714843.015625-.253907.148438-.460938.148438-.71875.007812-16.160157-6.292969-31.34375-17.703125-42.753907zm-32.933594.820313c7.769531 1.800781 14.933594 5.632813 20.703125 11.402344 6.117187 6.117187 10.164063 13.738281 11.808594 22.042969-7.90625-1.957032-15.191407-6.1875-21.054688-12.042969-5.824219-5.804688-9.675781-13.367188-11.457031-21.402344zm0 0"/><path d="m397.75 512 7.238281-2.171875c2.347657-.699219 57.902344-18 83.550781-83.4375l2.648438-6.746094-187.351562-114.703125zm-54.875-162.878906 90.9375 55.675781c-.007812.121094-.066406.226563-.066406.347656 0 26.730469-18.652344 48.703125-42.328125 50.988281zm64.105469 141.335937-8.152344-17.964843c26.714844-5.261719 47.609375-28.480469 51.492187-57.582032l19.300782 11.816406c-17.976563 39.675782-48.878906 57.488282-62.640625 63.730469zm0 0"/></svg>