<svg height="511pt" viewBox="0 0 511.99867 511" width="511pt" xmlns="http://www.w3.org/2000/svg"><path d="m440.085938 72.257812c-27.40625-27.398437-57.289063-49.214843-84.164063-61.429687-29.542969-13.425781-52.824219-13.777344-65.621094-.96875-.011719.015625-.027343.023437-.042969.042969-38.351562 38.367187-77.742187 101.128906-100.351562 159.910156-20.378906 52.980469-25.347656 96.617188-14.9375 126.714844l-56.546875 56.546875c-18.800781 18.800781-44.820313 28.675781-71.5625 26.972656-4.296875-.261719-8.664063.105469-13 1.09375-16.152344 3.691406-28.976563 16.488281-32.683594 32.605469-3.089843 13.441406-.027343 27.234375 8.410157 37.816406 6.558593 8.246094 15.632812 13.753906 25.710937 15.78125-.230469 9.144531 2.949219 20.082031 15.542969 32.488281 8.234375 8.105469 18.429687 12.515625 28.835937 12.515625.371094 0 .738281 0 1.101563-.007812 23.992187-.734375 42.769531-20.105469 42.769531-44.617188-.324219-28.621094 9.269531-54.15625 27-71.886718l60.425781-60.425782c11.261719 4.785156 24.597656 7.238282 39.875 7.238282 25.65625 0 56.625-6.742188 91.675782-20.21875 58.789062-22.621094 121.550781-61.992188 159.917968-100.351563.011719-.011719.027344-.027344.042969-.042969 28.386719-28.367187-10.96875-98.339844-62.398437-149.777344zm-244.835938 253.925782-57.171875 57.183594c-21.121094 21.121093-32.542969 51.144531-32.171875 84.863281 0 14.402343-11.273438 26.027343-25.65625 26.460937-5.765625.394532-11.96875-2.464844-17.027344-7.441406-11.765625-11.582031-11.03125-19.054688-9.277344-25.726562l2.976563-11.308594-11.6875.230468c-.582031.015626-1.15625.078126-1.109375.132813-8.113281 0-15.667969-3.644531-20.726562-10-5.144532-6.449219-6.917969-14.582031-5.011719-22.875 2.171875-9.417969 9.964843-17.195313 19.410156-19.359375 2.691406-.609375 5.375-.835938 7.984375-.679688 31.625 1.976563 62.746094-9.722656 85.136719-32.105468l52.375-52.375c.175781.265625.414062.460937.589843.722656 2.003907 2.84375 4.148438 5.550781 6.574219 7.988281 1.492188 1.5 3.101563 2.929688 4.792969 4.289063zm140.945312-20.222656c-54.476562 20.964843-98.242187 24.644531-123.214843 10.882812-1.59375-.890625-3.085938-1.851562-4.515625-2.867188-.265625-.1875-.566406-.351562-.832032-.546874-1.597656-1.183594-3.070312-2.453126-4.429687-3.785157-.089844-.089843-.1875-.152343-.273437-.238281-.027344-.027344-.042969-.054688-.070313-.082031-1.722656-1.730469-3.285156-3.707031-4.738281-5.824219-.308594-.441406-.589844-.898438-.882813-1.351562-1.359375-2.125-2.628906-4.394532-3.734375-6.867188-.0625-.132812-.132812-.253906-.191406-.386719l-.398438-.902343c-10.59375-25.613282-6.054687-67.085938 13.476563-117.851563 17.652344-45.894531 45.816406-94.210937 75.410156-130.441406.40625 2.597656 1.007813 5.316406 1.714844 8.085937.203125.785156.449219 1.597656.667969 2.398438.628906 2.25 1.351562 4.546875 2.171875 6.894531.316406.910156.628906 1.808594.972656 2.734375 1.171875 3.144531 2.453125 6.339844 3.953125 9.648438 12.214844 26.867187 34.035156 56.761718 61.429688 84.15625 27.394531 27.40625 57.289062 49.222656 84.164062 61.4375 3.378906 1.535156 6.65625 2.84375 9.867188 4.035156.898437.335937 1.773437.636718 2.664062.945312 2.515625.871094 4.980469 1.640625 7.378906 2.292969.6875.1875 1.386719.40625 2.066406.582031 2.664063.671875 5.277344 1.238282 7.792969 1.632813-36.242187 29.601562-84.554687 57.757812-130.449219 75.417969zm107.996094-100.960938c-24.996094-11.359375-53.046875-31.90625-78.992187-57.855469-25.941407-25.9375-46.488281-53.988281-57.847657-78.984375-9.859374-21.691406-11.570312-38.816406-4.5625-45.824218 2.859376-2.851563 7.386719-4.261719 13.230469-4.261719 8.492188 0 19.742188 2.984375 32.605469 8.828125 24.996094 11.355468 53.042969 31.894531 78.980469 57.84375 53.574219 53.585937 77.140625 110.097656 62.410156 124.828125-7.007813 6.988281-24.128906 5.285156-45.824219-4.574219zm0 0"/><path d="m415.125 97.226562c-24.101562-24.105468-45.417969-38.640624-59.035156-46.578124-7.292969-4.253907-16.199219-3.113282-22.136719 2.835937-5.949219 5.945313-7.085937 14.851563-2.84375 22.144531 7.9375 13.625 22.464844 34.921875 46.578125 59.035156 24.113281 24.113282 45.417969 38.640626 59.035156 46.574219 2.941406 1.714844 6.144532 2.554688 9.304688 2.554688 4.6875 0 9.292968-1.835938 12.839844-5.394531 5.949218-5.949219 7.089843-14.84375 2.832031-22.144532-7.941407-13.617187-22.46875-34.925781-46.574219-59.027344zm30.476562 68.761719c-12.71875-7.410156-32.664062-21.023437-55.445312-43.800781-22.78125-22.78125-36.390625-42.726562-43.796875-55.4375l.839844-.847656c12.726562 7.414062 32.675781 21.035156 55.445312 43.804687 22.773438 22.773438 36.390625 42.71875 43.804688 55.445313zm0 0"/><path d="m327.675781 164.066406c-7.730469-7.742187-14.765625-16.125-20.316406-24.265625-7.125-10.421875-18.863281-16.363281-31.640625-15.753906-12.71875.546875-24.027344 7.457031-30.230469 18.492187-5.972656 10.589844-11.144531 21.324219-15.375 31.886719-1.816406 4.527344.378907 9.664063 4.910157 11.484375 4.535156 1.796875 9.664062-.398437 11.472656-4.917968 3.945312-9.847657 8.78125-19.875 14.367187-29.804688 3.195313-5.675781 9.03125-9.222656 15.621094-9.507812 6.621094-.316407 12.65625 2.738281 16.3125 8.085937 6.246094 9.144531 13.792969 18.164063 22.417969 26.777344 8.621094 8.617187 17.632812 16.160156 26.777344 22.410156 1.527343 1.042969 3.257812 1.546875 4.96875 1.546875 2.816406 0 5.585937-1.34375 7.300781-3.851562 2.75-4.023438 1.71875-9.511719-2.304688-12.265626-8.269531-5.640624-16.425781-12.472656-24.28125-20.316406zm0 0"/><path d="m331.046875 260.320312c-43.730469 24.617188-83.996094 32.109376-97.886719 18.210938-4.636718-4.625-6.972656-12.066406-6.957031-22.109375.011719-4.882813-3.933594-8.835937-8.816406-8.84375h-.007813c-4.871094 0-8.816406 3.9375-8.828125 8.816406-.015625 14.898438 4.054688 26.550781 12.128907 34.617188 8.554687 8.550781 20.609374 12.101562 34.472656 12.089843 25.703125 0 57.566406-12.203124 84.566406-27.394531 4.242188-2.390625 5.742188-7.777343 3.359375-12.011719-2.390625-4.257812-7.765625-5.773437-12.03125-3.375zm0 0"/></svg>