<svg height="512pt" viewBox="0 0 512 512.00151" width="512pt" xmlns="http://www.w3.org/2000/svg"><path d="m392.535156 145.066406c0-23.527344-19.140625-42.667968-42.667968-42.667968h-153.601563v-9.742188c14.679687-3.816406 25.601563-17.058594 25.601563-32.921875s-10.921876-29.109375-25.601563-32.921875v-18.277344c0-4.722656-3.824219-8.535156-8.53125-8.535156-4.710937 0-8.535156 3.8125-8.535156 8.535156v18.277344c-14.675781 3.8125-25.601563 17.058594-25.601563 32.921875s10.925782 29.105469 25.601563 32.921875v9.742188h-136.53125c-23.527344 0-42.667969 19.140624-42.667969 42.667968 0 20.8125 14.976562 38.195313 34.722656 41.925782-5.707031 7.261718-9.121094 16.410156-9.121094 26.339843 0 20.8125 14.976563 38.195313 34.71875 41.925781-5.707031 7.261719-9.121093 16.410157-9.121093 26.34375 0 20.8125 14.976562 38.191407 34.722656 41.921876-5.710937 7.261718-9.125 16.410156-9.125 26.34375 0 23.527343 19.140625 42.664062 42.667969 42.664062h.015625c-5.359375 7.136719-8.550781 16.003906-8.550781 25.601562 0 9.644532 3.339843 18.449219 8.757812 25.601563h-77.019531v8.535156c0 23.523438 19.140625 42.664063 42.664062 42.664063h93.867188v8.535156c0 4.71875 3.824219 8.53125 8.535156 8.53125 4.707031 0 8.53125-3.8125 8.53125-8.53125v-8.535156h93.867187c23.527344 0 42.667969-19.140625 42.667969-42.664063v-8.535156h-68.492187c5.421875-7.152344 8.757812-15.957031 8.757812-25.601563 0-9.597656-3.191406-18.464843-8.550781-25.601562h.015625c23.527344 0 42.667969-19.136719 42.667969-42.664062 0-9.933594-3.414063-19.082032-9.125-26.34375 19.746093-3.730469 34.722656-21.109376 34.722656-41.921876 0-9.933593-3.414063-19.082031-9.121094-26.34375 19.746094-3.730468 34.722657-21.113281 34.722657-41.925781 0-9.597656-3.195313-18.464843-8.550782-25.601562h.015625c23.53125.003906 42.671875-19.136719 42.671875-42.664063zm-221.867187-85.332031c0-9.414063 7.652343-17.066406 17.066406-17.066406s17.066406 7.652343 17.066406 17.066406c0 9.410156-7.652343 17.066406-17.066406 17.066406s-17.066406-7.65625-17.066406-17.066406zm119.464843 418.132813h-204.800781c-11.125 0-20.617187-7.132813-24.140625-17.070313h253.082032c-3.523438 9.9375-13.011719 17.070313-24.140626 17.070313zm34.132813-307.199219h-42.664063c-4.710937 0-8.535156 3.8125-8.535156 8.53125s3.824219 8.535156 8.535156 8.535156h34.132813c14.113281 0 25.601563 11.484375 25.601563 25.601563 0 14.113281-11.488282 25.597656-25.601563 25.597656h-153.601563c-4.710937 0-8.535156 3.816406-8.535156 8.535156s3.824219 8.535156 8.535156 8.535156h128c14.113282 0 25.601563 11.484375 25.601563 25.597656 0 14.117188-11.484375 25.601563-25.601563 25.601563h-42.667968c-4.710938 0-8.535156 3.816406-8.535156 8.535156s3.824218 8.53125 8.535156 8.53125h17.066406c14.113281 0 25.601562 11.488281 25.601562 25.601563 0 14.117187-11.484374 25.601562-25.601562 25.601562h-76.800781c-4.710938 0-8.53125 3.8125-8.53125 8.53125 0 4.722656 3.820312 8.535156 8.53125 8.535156h42.667969c14.113281 0 25.601562 11.484376 25.601562 25.601563 0 14.113281-11.488281 25.601563-25.601562 25.601563h-76.800782c-14.113281 0-25.601562-11.488282-25.601562-25.601563s11.484375-25.601563 25.601562-25.601563c4.710938 0 8.53125-3.8125 8.53125-8.535156 0-4.71875-3.820312-8.53125-8.53125-8.53125h-34.128906c-14.113281 0-25.601562-11.484375-25.601562-25.601562 0-14.113282 11.484374-25.601563 25.601562-25.601563h93.863281c4.710938 0 8.535157-3.8125 8.535157-8.53125s-3.824219-8.535156-8.535157-8.535156h-119.464843c-14.113282 0-25.601563-11.484375-25.601563-25.601563 0-14.113281 11.484375-25.597656 25.601563-25.597656h34.132812c4.710938 0 8.53125-3.816406 8.53125-8.535156s-3.820312-8.535156-8.53125-8.535156h-59.730469c-14.117187 0-25.601562-11.484375-25.601562-25.597656 0-14.117188 11.484375-25.601563 25.601562-25.601563h153.597657c4.710937 0 8.535156-3.816406 8.535156-8.535156s-3.824219-8.53125-8.535156-8.53125h-179.199219c-14.113281 0-25.601563-11.488281-25.601563-25.601563 0-14.117187 11.484375-25.601562 25.601563-25.601562h307.199219c14.113281 0 25.601562 11.484375 25.601562 25.601562 0 14.113282-11.488281 25.601563-25.601562 25.601563zm0 0"/><path d="m503.46875 392.53125h-8.535156v-332.796875c0-23.527344-19.140625-42.667969-42.667969-42.667969-23.523437 0-42.664063 19.140625-42.664063 42.667969v332.796875h-8.535156c-4.710937 0-8.53125 3.816406-8.53125 8.535156s3.820313 8.535156 8.53125 8.535156h25.601563v60.167969c-9.726563 1.980469-17.066407 10.597657-17.066407 20.898438 0 11.765625 9.574219 21.332031 21.332032 21.332031h42.667968c11.757813 0 21.332032-9.566406 21.332032-21.332031 0-10.308594-7.339844-18.917969-17.066406-20.898438v-60.167969h25.601562c4.707031 0 8.53125-3.816406 8.53125-8.535156s-3.824219-8.535156-8.53125-8.535156zm-29.867188 102.402344h-42.667968c-2.355469 0-4.265625-1.921875-4.265625-4.265625 0-2.347657 1.910156-4.265625 4.265625-4.265625h42.667968c2.355469 0 4.265626 1.917968 4.265626 4.265625 0 2.34375-1.910157 4.265625-4.265626 4.265625zm-12.800781-25.601563h-17.066406v-59.734375h17.066406zm-34.132812-76.800781v-332.796875c0-14.113281 11.484375-25.601563 25.597656-25.601563 14.117187 0 25.601563 11.484376 25.601563 25.601563v332.796875zm0 0"/><path d="m452.265625 51.199219c-4.707031 0-8.53125 3.816406-8.53125 8.535156v119.464844c0 4.71875 3.824219 8.535156 8.53125 8.535156 4.710937 0 8.535156-3.816406 8.535156-8.535156v-119.464844c0-4.71875-3.824219-8.535156-8.535156-8.535156zm0 0"/></svg>