<svg height="512pt" viewBox="-27 0 512 512" width="512pt" xmlns="http://www.w3.org/2000/svg"><path d="m393.144531 64h-22.128906l6.089844-27.429688h-94.601563c-4.25-20.835937-22.71875-36.570312-44.789062-36.570312h-73.144532c-22.070312 0-40.539062 15.734375-44.792968 36.570312h-91.097656c-15.816407 0-28.679688 12.863282-28.679688 28.679688 0 12.964844 8.921875 24.375 21.703125 27.75 58.761719 15.515625 63.671875 148.917969 60.601563 199.011719l-.59375 9.699219h37.144531v18.285156h-34.003907l-44.214843 131.457031c-2.285157 8.707031-2.054688 17.617187.414062 25.949219.027344.082031.035157.152344.0625.234375.769531 2.550781 1.773438 5.03125 2.972657 7.445312.273437.558594.566406 1.085938.867187 1.636719 1.054687 1.917969 2.214844 3.792969 3.53125 5.582031.429687.578125.859375 1.144531 1.308594 1.703125 1.324219 1.644532 2.757812 3.179688 4.257812 4.617188.578125.546875 1.144531 1.085937 1.746094 1.609375 1.835937 1.601562 3.757813 3.070312 5.796875 4.363281.339844.207031.695312.382812 1.042969.585938 1.992187 1.1875 4.066406 2.21875 6.207031 3.105468.4375.183594.859375.386719 1.308594.558594 2.40625.917969 4.890625 1.621094 7.433594 2.132812.511718.097657 1.023437.183594 1.535156.265626 2.679687.445312 5.402344.757812 8.191406.757812h227.65625c2.78125 0 5.507812-.3125 8.183594-.757812.523437-.09375 1.035156-.167969 1.546875-.265626 2.542969-.523437 5.027343-1.226562 7.425781-2.132812.445312-.171875.875-.375 1.324219-.558594 2.128906-.875 4.1875-1.898437 6.171875-3.078125.355468-.210937.730468-.394531 1.085937-.613281 2.019531-1.28125 3.933594-2.742188 5.761719-4.335938.621094-.53125 1.207031-1.085937 1.792969-1.644531 1.453125-1.398437 2.84375-2.890625 4.132812-4.480469.507813-.632812.996094-1.261718 1.480469-1.917968 1.261719-1.730469 2.382812-3.53125 3.398438-5.378906.328124-.601563.660156-1.207032.960937-1.828126 1.140625-2.324218 2.113281-4.699218 2.859375-7.160156.085938-.273437.140625-.546875.210938-.820312.722656-2.550782 1.246093-5.15625 1.527343-7.808594.019531-.199219.089844-.375.109375-.574219.011719-.046875-.015625-.09375-.015625-.140625.539063-5.75.089844-11.683594-1.472656-17.617187l-44.023437-130.890625h-34v-18.285156h34.761718l36.570313-164.570313h22.460937c3.742188 0 6.777344 3.035156 6.777344 6.773437v84.65625c0 20.167969 16.402344 36.570313 36.570312 36.570313 20.167969 0 36.570313-16.402344 36.570313-36.570313v-100.570312c.003906-35.28125-28.714844-64-63.996094-64zm-228.574219-45.714844h73.144532c11.921875 0 22.089844 7.644532 25.867187 18.289063h-124.875c3.773438-10.644531 13.941407-18.289063 25.863281-18.289063zm-77.257812 475.429688c-2.082031 0-4.101562-.28125-6.097656-.695313-.484375-.097656-.96875-.199219-1.445313-.328125-1.917969-.492187-3.804687-1.125-5.566406-1.984375-.175781-.089843-.328125-.199219-.503906-.292969-1.664063-.847656-3.226563-1.875-4.710938-3.035156-.308593-.246094-.636719-.472656-.941406-.738281-1.542969-1.308594-2.980469-2.761719-4.257813-4.390625-.195312-.238281-.347656-.503906-.53125-.75-1.070312-1.445312-1.976562-2.96875-2.753906-4.550781-.207031-.421875-.445312-.824219-.636718-1.253907-.039063-.089843-.054688-.191406-.089844-.273437h282.742187c-.046875.109375-.066406.238281-.113281.347656-.152344.367188-.363281.695313-.539062 1.054688-.800782 1.644531-1.746094 3.234375-2.859376 4.742187-.164062.222656-.300781.449219-.464843.667969-1.289063 1.648437-2.746094 3.117187-4.300781 4.433594-.289063.238281-.59375.46875-.886719.695312-1.496094 1.171875-3.097657 2.214844-4.78125 3.074219-.152344.082031-.300781.179688-.453125.265625-1.777344.859375-3.667969 1.488281-5.585938 1.992187-.476562.117188-.953125.226563-1.4375.328126-2.011718.410156-4.039062.695312-6.125.695312h-227.660156zm216.980469-155.429688 39.660156 117.832032c.089844.339843.074219.6875.144531 1.027343h-286.003906c.035156-.148437.015625-.292969.0625-.441406l39.847656-118.417969zm-39.152344-18.285156h-128v-18.285156h128zm38.382813-36.570312h-202.550782c1.226563-40.074219.585938-188.253907-74.605468-208.109376-4.835938-1.273437-8.085938-5.324218-8.085938-10.066406 0-5.734375 4.664062-10.398437 10.398438-10.398437h325.632812l-2.03125 9.144531h-23.140625c-20.167969 0-36.570313 16.402344-36.570313 36.570312 0 20.167969 16.402344 36.570313 36.570313 36.570313h6.886719zm135.332031-54.859376c0 10.085938-8.199219 18.289063-18.285157 18.289063-10.085937 0-18.285156-8.203125-18.285156-18.289063v-84.652343c0-13.824219-11.238281-25.0625-25.0625-25.0625h-48.082031c-10.085937 0-18.285156-8.199219-18.285156-18.285157 0-10.085937 8.199219-18.285156 18.285156-18.285156h64c25.207031 0 45.714844 20.507813 45.714844 45.714844zm0 0"/><path d="m109.039062 362.796875-24.613281 73.144531c-1.609375 4.78125.957031 9.976563 5.75 11.59375.96875.3125 1.957031.464844 2.914063.464844 3.816406 0 7.382812-2.410156 8.667968-6.226562l24.613282-73.140626c1.609375-4.78125-.957032-9.976562-5.75-11.59375-4.828125-1.59375-9.976563.976563-11.582032 5.757813zm0 0"/><path d="m300.515625 441.726562c1.289063 3.816407 4.847656 6.226563 8.667969 6.226563.957031 0 1.945312-.152344 2.914062-.472656 4.78125-1.621094 7.359375-6.804688 5.753906-11.59375l-24.59375-73.101563c-1.609374-4.761718-6.785156-7.332031-11.585937-5.75-4.78125 1.621094-7.359375 6.804688-5.75 11.59375zm0 0"/><path d="m303.816406 155.636719c-4.925781-1.058594-9.808594 2.03125-10.90625 6.949219l-20.324218 91.429687c-1.097657 4.925781 2.011718 9.808594 6.9375 10.90625.679687.144531 1.34375.21875 2.003906.21875 4.1875 0 7.972656-2.898437 8.914062-7.15625l20.324219-91.429687c1.097656-4.925782-2.011719-9.808594-6.949219-10.917969zm0 0"/><path d="m108.1875 73.269531c-4.984375.851563-8.332031 5.570313-7.488281 10.542969l29.464843 173.714844c.75 4.460937 4.628907 7.613281 9.007813 7.613281.503906 0 1.023437-.042969 1.535156-.125 4.984375-.851563 8.328125-5.570313 7.488281-10.542969l-29.46875-173.714844c-.839843-4.972656-5.574218-8.253906-10.539062-7.488281zm0 0"/><path d="m173.714844 448.019531c5.046875 0 9.144531-4.085937 9.144531-9.144531v-73.160156c0-5.054688-4.097656-9.144532-9.144531-9.144532s-9.144532 4.089844-9.144532 9.144532v73.160156c0 5.058594 4.097657 9.144531 9.144532 9.144531zm0 0"/><path d="m237.714844 448.019531c5.042968 0 9.140625-4.085937 9.140625-9.144531v-73.160156c0-5.054688-4.097657-9.144532-9.140625-9.144532-5.046875 0-9.144532 4.089844-9.144532 9.144532v73.160156c0 5.058594 4.097657 9.144531 9.144532 9.144531zm0 0"/><path d="m182.855469 73.144531c-5.046875 0-9.144531 4.085938-9.144531 9.140625v173.714844c0 5.058594 4.097656 9.144531 9.144531 9.144531s9.144531-4.085937 9.144531-9.144531v-173.714844c0-5.054687-4.097656-9.140625-9.144531-9.140625zm0 0"/><path d="m237.714844 73.144531c-5.046875 0-9.144532 4.085938-9.144532 9.140625v173.714844c0 5.058594 4.097657 9.144531 9.144532 9.144531 5.042968 0 9.140625-4.085937 9.140625-9.144531v-173.714844c0-5.054687-4.09375-9.140625-9.140625-9.140625zm0 0"/></svg>