<svg height="511pt" viewBox="-136 1 511 511.99849" width="511pt" xmlns="http://www.w3.org/2000/svg"><path d="m217.066406 93.867188h-40.226562l-39.378906-93.867188h-34.988282l-39.378906 93.867188h-40.226562c-12.332032 0-22.367188 10.035156-22.367188 22.367187v369.046875c0 14.738281 11.980469 26.71875 26.71875 26.71875h185.496094c14.738281 0 26.71875-11.980469 26.71875-26.71875v-369.046875c0-12.332031-10.035156-22.367187-22.367188-22.367187zm5.300782 22.367187v28.832031h-25.601563v-34.132812h20.300781c2.925782 0 5.300782 2.371094 5.300782 5.300781zm-162.132813-5.300781h25.597656v34.132812h-25.597656zm42.667969 0h25.597656v34.132812h-25.597656zm42.664062 0h34.132813v34.132812h-34.132813zm-31.742187-93.867188h12.277343l32.222657 76.800782h-76.730469zm-90.957031 93.867188h20.300781v34.132812h-25.601563v-28.832031c0-2.929687 2.375-5.300781 5.300782-5.300781zm189.847656 384h-185.496094c-5.324219 0-9.652344-4.328125-9.652344-9.652344v-323.148438h204.800782v323.148438c0 5.324219-4.328126 9.652344-9.652344 9.652344zm0 0"/><path d="m22.566406 324.265625 97.398438 97.398437 97.402344-97.398437-97.402344-97.398437zm97.398438 73.269531-73.265625-73.269531 73.265625-73.265625 73.269531 73.265625zm0 0"/></svg>