<svg height="511pt" viewBox="1 -10 511.99889 511" width="511pt" xmlns="http://www.w3.org/2000/svg"><path d="m501.171875 246.175781c-5.226563 0-9.457031 4.226563-9.457031 9.457031v37.824219c0 5.230469 4.230468 9.457031 9.457031 9.457031 5.230469 0 9.457031-4.226562 9.457031-9.457031v-37.824219c0-5.21875-4.226562-9.457031-9.457031-9.457031zm0 0"/><path d="m501.171875 321.828125c-5.226563 0-9.457031 4.226563-9.457031 9.453125v18.914062c0 5.230469 4.230468 9.457032 9.457031 9.457032 5.230469 0 9.457031-4.226563 9.457031-9.457032v-18.914062c0-5.21875-4.226562-9.453125-9.457031-9.453125zm0 0"/><path d="m501.171875 378.5625c-5.226563 0-9.457031 4.226562-9.457031 9.457031v9.457031c0 5.230469 4.230468 9.457032 9.457031 9.457032 5.230469 0 9.457031-4.226563 9.457031-9.457032v-9.457031c0-5.222656-4.226562-9.457031-9.457031-9.457031zm0 0"/><path d="m494.457031 428.640625c-1.792969 1.710937-2.742187 4.160156-2.742187 6.621094 0 2.457031.949218 4.925781 2.742187 6.714843 1.789063 1.796876 4.257813 2.742188 6.714844 2.742188 2.460937 0 4.917969-.945312 6.714844-2.742188 1.703125-1.789062 2.742187-4.152343 2.742187-6.714843 0-2.460938-1.039062-4.917969-2.742187-6.621094-3.5-3.488281-9.75-3.582031-13.429688 0zm0 0"/><path d="m194.386719 390.675781c-31.335938 31.328125-82.324219 31.347657-113.671875 0-3.699219-3.699219-9.675782-3.699219-13.371094 0-3.699219 3.699219-3.699219 9.675781 0 13.371094 18.753906 18.75 43.6875 29.078125 70.210938 29.078125 26.515624 0 51.441406-10.328125 70.203124-29.078125 3.699219-3.699219 3.699219-9.675781 0-13.371094-3.695312-3.695312-9.671874-3.699219-13.371093 0zm0 0"/><path d="m353.675781 35.097656c-42.164062-42.164062-110.050781-46.335937-154.550781-9.511718-25.023438 20.707031-39.621094 49.910156-41.144531 82.230468-1.496094 31.882813 10.554687 63.089844 33.058593 85.59375l1.71875 1.722656c-54.636718-15.960937-114.332031.046876-154.125 43.980469-51.617187 57.019531-51.496093 146.246094.285157 203.117188 28.1875 30.96875 66.703125 48.566406 108.433593 49.539062 1.226563.03125 2.457032.039063 3.675782.039063 40.386718 0 78.214844-15.648438 106.882812-44.320313 46.175782-46.171875 57.230469-117.207031 27.992188-175.089843l52.738281-52.738282c36.328125-36.339844 95.382813-36.832031 132.15625-.59375l7.707031 7.820313 33.496094-33.496094zm124.699219 165.207032c-43.925781-38.089844-111.148438-35.960938-153.097656 6.003906l-62.789063 62.789062 3.546875 6.261719c29.25 51.589844 20.40625 116.878906-21.484375 158.777344-25.835937 25.84375-60.007812 39.707031-96.738281 38.742187-36.507812-.863281-70.21875-16.253906-94.890625-43.359375-45.304687-49.765625-45.410156-127.828125-.246094-177.707031 25.984375-28.691406 61.664063-43.78125 97.976563-43.78125 22.277344 0 44.800781 5.691406 65.464844 17.398438l6.25 3.546874 15.519531-15.480468-33.449219-33.445313c-18.742188-18.753906-28.78125-44.746093-27.535156-71.339843 1.269531-26.941407 13.449218-51.28125 34.308594-68.546876 37.066406-30.683593 93.777343-27.003906 129.113281 8.3125l144.953125 144.941407zm0 0"/><path d="m326.40625 61.320312c-27.765625-27.773437-71.242188-31.273437-101.144531-8.179687-17.324219 13.371094-28.054688 33.492187-29.4375 55.195313-1.390625 21.730468 6.621093 42.996093 21.976562 58.34375l36.066407 36.082031c2.960937 2.941406 6.847656 4.417969 10.730468 4.417969 3.886719 0 7.765625-1.476563 10.734375-4.417969l85.5-85.507813c2.875-2.875 4.464844-6.6875 4.464844-10.753906 0-4.074219-1.589844-7.886719-4.453125-10.742188zm-61.808594 125.414063-33.425781-33.4375c-11.519531-11.507813-17.523437-27.457031-16.472656-43.769531 1.050781-16.511719 8.90625-31.234375 22.125-41.4375 9.828125-7.59375 21.636719-11.296875 33.597656-11.296875 15.28125 0 30.800781 6.078125 42.621094 17.898437l31.789062 31.800782zm0 0"/></svg>