<svg height="512pt" viewBox="0 -5 512 512" width="512pt" xmlns="http://www.w3.org/2000/svg"><path d="m512 128v-85.332031h-51.199219v-8.535157c0-18.824218-15.308593-34.132812-34.132812-34.132812s-34.132813 15.308594-34.132813 34.132812v8.535157h-102.398437v-8.535157c0-18.824218-15.308594-34.132812-34.132813-34.132812-18.824218 0-34.132812 15.308594-34.132812 34.132812v8.535157h-110.9375v-8.535157c0-18.824218-15.308594-34.132812-34.132813-34.132812s-34.132812 15.308594-34.132812 34.132812v8.535157h-42.667969v85.332031h42.667969v25.597656h-17.066407v298.667969h123.332032c11.980468 0 21.734375-9.753906 21.734375-21.734375v-255.207031c0-11.96875-9.753907-21.726563-21.734375-21.726563h-38v-25.597656h110.933594v301.660156l44.902343 56.121094 5.605469-13.089844c35.15625-82.027344 51.890625-147.171875 51.890625-295.472656v-15.097656h-34.132813v-34.128906h102.398438v25.601562h-8.53125v187.730469c0 49.820312 15.300781 97.570312 44.261719 138.105469l15.472656 21.664062v-26.621094c0-150.257812 15.128906-213.554687 25.144531-255.445312 5.019532-20.976563 8.988282-37.554688 8.988282-56.894532v-8.53125h-17.070313v-25.601562zm-17.066406-68.265625v51.199219h-34.132813v-51.199219zm-477.867188 51.199219v-51.199219h25.601563v51.199219zm136.53125 64.390625v255.207031c0 2.578125-2.089844 4.667969-4.664062 4.667969h-12.402344v-264.535157h12.402344c2.574218 0 4.664062 2.09375 4.664062 4.660157zm-34.128906-4.660157v264.535157h-76.800781v-264.535157zm-25.601562-17.066406h-34.132813v-119.464844c0-9.414062 7.652344-17.066406 17.066406-17.066406 9.414063 0 17.066407 7.652344 17.066407 17.066406zm17.066406-42.664062v-51.199219h110.933594v51.199219zm196.265625 68.265625c-.144531 135.902343-14.675781 199.960937-44.96875 273.59375l-23.296875-29.125v-244.46875zm-34.132813-17.066407h-34.132812v-128c0-9.414062 7.65625-17.066406 17.066406-17.066406 9.414062 0 17.066406 7.652344 17.066406 17.066406zm17.066406-51.199218v-51.199219h102.398438v51.199219zm162.152344 104.128906c-9.507812 39.792969-23.570312 98.570312-25.421875 229.847656-16.949219-31.769531-25.796875-67.082031-25.796875-103.578125v-170.667969h59.445313c-.949219 13.953126-4.113281 27.179688-8.226563 44.398438zm-8.550781-61.464844h-34.132813v-119.464844c0-9.414062 7.652344-17.066406 17.066407-17.066406 9.414062 0 17.066406 7.652344 17.066406 17.066406zm0 0"/><path d="m256 247.464844c4.71875 0 8.53125-3.8125 8.53125-8.53125v-42.667969c0-4.71875-3.8125-8.535156-8.53125-8.535156s-8.535156 3.816406-8.535156 8.535156v42.667969c0 4.707031 3.816406 8.53125 8.535156 8.53125zm0 0"/><path d="m418.132812 247.464844c4.71875 0 8.53125-3.8125 8.53125-8.53125v-42.667969c0-4.71875-3.8125-8.535156-8.53125-8.535156s-8.535156 3.816406-8.535156 8.535156v42.667969c0 4.707031 3.816406 8.53125 8.535156 8.53125zm0 0"/><path d="m59.734375 247.464844c4.71875 0 8.53125-3.8125 8.53125-8.53125v-42.667969c0-4.71875-3.8125-8.535156-8.53125-8.535156s-8.535156 3.816406-8.535156 8.535156v42.667969c0 4.707031 3.816406 8.53125 8.535156 8.53125zm0 0"/></svg>