<svg height="512pt" viewBox="-34 0 512 512.00151" width="512pt" xmlns="http://www.w3.org/2000/svg"><path d="m106.667969 0c-58.820313 0-106.667969 47.847656-106.667969 106.667969v298.667969c0 58.820312 47.847656 106.664062 106.667969 106.664062 58.820312 0 106.667969-47.84375 106.667969-106.664062v-298.667969c-.003907-58.820313-47.847657-106.667969-106.667969-106.667969zm0 494.933594c-49.410157 0-89.601563-40.191406-89.601563-89.601563 0-49.40625 40.191406-89.597656 89.601563-89.597656 18.59375 0 35.875 5.699219 50.210937 15.425781 29.949219 30.917969 29.566406 84.351563-1.117187 115.039063-23.929688 23.917969-62.847657 23.933593-86.792969 0-8.953125-8.953125-13.882812-20.847657-13.882812-33.511719s4.929687-24.558594 13.882812-33.511719c6.84375-6.839843 15.921875-10.605469 25.601562-10.605469 9.667969 0 18.753907 3.761719 25.601563 10.605469 10.621094 10.625 10.621094 27.914063 0 38.554688-7.835937 7.816406-20.59375 7.835937-28.425781 0-2.714844-2.714844-4.207032-6.324219-4.207032-10.164063s1.492188-7.449218 4.207032-10.164062c3.335937-3.335938 3.335937-8.730469 0-12.0625-3.335938-3.339844-8.730469-3.339844-12.066406 0-5.9375 5.9375-9.207032 13.832031-9.207032 22.226562 0 8.398438 3.269532 16.292969 9.207032 22.230469 14.5 14.480469 38.078124 14.480469 52.558593 0 17.269531-17.289063 17.269531-45.40625 0-62.6875-10.070312-10.070313-23.441406-15.605469-37.667969-15.605469-14.234374 0-27.605468 5.535156-37.664062 15.605469-12.179688 12.167969-18.886719 28.359375-18.886719 45.578125s6.707031 33.398438 18.886719 45.574219c15.289062 15.292969 35.378906 22.9375 55.464844 22.9375 20.085937 0 40.164062-7.644531 55.457031-22.9375 16.214844-16.214844 26.113281-38.742188 27.886719-62.660157.351562 3.199219.554687 6.445313.554687 9.730469 0 49.410157-40.191406 89.601563-89.601562 89.601563zm89.601562-147.269532c-7.355469-11.390624-16.8125-21.265624-27.828125-29.132812-.09375-.09375-.179687-.203125-.273437-.296875-.351563-.351563-.785157-.503906-1.167969-.777344-17.179688-11.828125-37.949219-18.792969-60.332031-18.792969-37.5625 0-70.585938 19.570313-89.601563 49v-240.996093c0-49.410157 40.191406-89.601563 89.601563-89.601563 49.410156 0 89.601562 40.191406 89.601562 89.601563zm0 0"/><path d="m63.257812 86.085938c-4.292968 1.9375-6.21875 6.980468-4.285156 11.28125 1.929688 4.289062 6.949219 6.203124 11.28125 4.285156 11.503906-5.164063 23.757813-7.785156 36.414063-7.785156 29.371093 0 56.96875 14.558593 73.789062 38.945312 1.65625 2.398438 4.324219 3.6875 7.03125 3.6875 1.664063 0 3.363281-.496094 4.839844-1.511719 3.875-2.671875 4.847656-7.996093 2.175781-11.878906-20.011718-28.996094-52.851562-46.308594-87.835937-46.308594-15.097657 0-29.6875 3.121094-43.410157 9.285157zm0 0"/><path d="m106.667969 128c-15.097657 0-29.6875 3.121094-43.410157 9.285156-4.292968 1.9375-6.21875 6.980469-4.285156 11.28125 1.929688 4.285156 6.949219 6.210938 11.28125 4.285156 11.503906-5.164062 23.757813-7.785156 36.414063-7.785156 29.371093 0 56.96875 14.558594 73.789062 38.945313 1.65625 2.398437 4.324219 3.6875 7.03125 3.6875 1.664063 0 3.363281-.496094 4.839844-1.511719 3.875-2.667969 4.847656-7.996094 2.175781-11.878906-20.011718-28.996094-52.851562-46.308594-87.835937-46.308594zm0 0"/><path d="m106.667969 179.199219c-15.097657 0-29.6875 3.125-43.410157 9.285156-4.292968 1.9375-6.21875 6.980469-4.285156 11.28125 1.929688 4.285156 6.949219 6.195313 11.28125 4.285156 11.503906-5.164062 23.757813-7.785156 36.414063-7.785156 29.371093 0 56.96875 14.558594 73.789062 38.949219 1.65625 2.394531 4.324219 3.683594 7.03125 3.683594 1.664063 0 3.363281-.496094 4.839844-1.511719 3.875-2.667969 4.847656-7.996094 2.175781-11.875-20.011718-29-52.851562-46.3125-87.835937-46.3125zm0 0"/><path d="m443.476562 383.734375c.503907-8.285156-.636718-16.648437-3.710937-24.6875-11.664063-30.480469-48.628906-51.761719-89.898437-51.761719-13.941407 0-27.367188 2.484375-39.519532 6.878906-.757812.152344-1.523437.273438-2.25.648438-.28125.144531-.539062.332031-.8125.476562-22.355468 8.855469-39.917968 24.449219-47.308594 43.757813-2.636718 6.894531-3.921874 14.046875-3.917968 21.171875l-.015625.015625v38.535156c2.511719 33.605469 35.550781 67.628907 93.824219 67.628907 58.273437 0 91.316406-34.023438 93.867187-68.269532v-30.734375zm-19.640624-18.585937c2.113281 5.539062 2.976562 11.214843 2.738281 16.847656l-.566407 3.976562c-1.039062 7.378906-4.222656 14.941406-9.539062 21.851563-.035156.042969-.074219.085937-.109375.136719-1.59375 2.054687-3.429687 4.027343-5.410156 5.949218-1.050781.996094-2.097657 2.003906-3.242188 2.933594-.613281.519531-1.253906 1.035156-1.902343 1.535156-11.46875 8.714844-26.769532 14.363282-44.125 16.121094-.410157.042969-.8125.09375-1.230469.128906-3.457031.304688-6.980469.496094-10.582031.496094-3.566407 0-7.066407-.179688-10.496094-.488281-.519532-.042969-1.015625-.109375-1.527344-.160157-17.371094-1.792968-32.699219-7.46875-44.140625-16.246093-.667969-.511719-1.273437-1.058594-1.902344-1.589844-1.171875-.972656-2.261719-1.988281-3.339843-3.019531-9.15625-8.984375-14.308594-19.816406-15.042969-30.609375l-.308594-3.429688c.070313-3.902343.726563-7.808593 1.921875-11.667969.851562 11.847657 6.167969 23.1875 15.582031 32.710938 13.492188 13.644531 33.273438 20.460938 53.195313 20.460938 19.851562 0 39.84375-6.773438 53.871094-20.332032 9.285156-8.980468 13.664062-20.292968 12.304687-31.863281-1.472656-12.664063-9.648437-24.289063-22.421875-31.867187-17.023438-10.128907-41.148438-10.085938-57.34375.113281-8.210938 5.152343-13.203125 12.941406-13.695312 21.339843-.488282 8.261719 3.285156 16.058594 10.613281 21.980469 12.800781 10.335938 33.605469 10.328125 46.398437-.007812 3.660156-2.96875 4.222656-8.347657 1.25-11.996094-2.976562-3.660156-8.34375-4.234375-11.996094-1.265625-6.417968 5.171875-18.515624 5.164062-24.933593-.007812-2.066407-1.664063-4.488281-4.359376-4.292969-7.6875.171875-2.832032 2.261719-5.710938 5.746094-7.902344 10.734375-6.742188 28.089844-6.683594 39.542968.109375 8.164063 4.847656 13.335938 11.84375 14.191407 19.183593.734375 6.246094-1.765625 12.339844-7.230469 17.613282-21.46875 20.753906-62.625 20.8125-83.070312.136718-8.449219-8.542968-12.058594-18.503906-10.457032-28.792968 1.792969-11.433594 10.003906-22.101563 22.035156-28.910156 10.8125-4.179688 22.988282-6.554688 35.539063-6.554688 33.816406-.023438 64.921875 17.136719 73.976563 40.773438zm-73.96875 104.183593c-44.621094 0-71.097657-22.65625-76.046876-46.0625 1.765626 1.902344 3.753907 3.617188 5.722657 5.351563.222656.195312.421875.410156.648437.605468 1.734375 1.484376 3.585938 2.859376 5.472656 4.214844.9375.683594 1.867188 1.359375 2.847657 2.003906 1.675781 1.101563 3.398437 2.144532 5.164062 3.140626 1.445313.820312 2.9375 1.589843 4.457031 2.339843 1.5625.769531 3.113282 1.527344 4.734376 2.21875 2.003906.863281 4.113281 1.621094 6.246093 2.382813 1.339844.46875 2.65625.980468 4.027344 1.398437 2.628906.800781 5.394531 1.476563 8.203125 2.105469 1.054688.238281 2.0625.539062 3.140625.742188 3.207031.621093 6.5625 1.082031 9.980469 1.46875.789062.085937 1.539062.246093 2.332031.316406 4.207031.390625 8.558594.621094 13.074219.621094 4.578125 0 8.976562-.230469 13.214844-.621094.324218-.035156.625-.09375.949218-.128906 3.992188-.410157 7.839844-.972657 11.535156-1.699219.523438-.101563 1.007813-.253907 1.527344-.367188 3.429688-.722656 6.75-1.5625 9.90625-2.539062.949219-.292969 1.84375-.660157 2.785156-.976563 2.574219-.886718 5.101563-1.808594 7.5-2.847656 1.363282-.589844 2.660157-1.238281 3.976563-1.878906 1.746094-.863282 3.460937-1.738282 5.109375-2.6875 1.65625-.9375 3.261719-1.929688 4.832031-2.960938 1.023438-.683594 1.996094-1.382812 2.96875-2.089844 1.882813-1.367187 3.738281-2.757812 5.480469-4.25.023438-.027343.050781-.050781.082031-.078124 2.101563-1.808594 4.183594-3.632813 6.050781-5.640626-5.308593 23.679688-31.710937 45.917969-75.921874 45.917969zm0 0"/></svg>