<svg height="512pt" viewBox="-36 0 512 512" width="512pt" xmlns="http://www.w3.org/2000/svg"><path d="m334.203125 107.394531c-20.34375 0-39.914063 5.910157-57.039063 17.039063-16.519531-10.730469-36.179687-17.039063-57.304687-17.039063s-40.785156 6.308594-57.304687 17.039063c-17.117188-11.136719-36.695313-17.039063-57.039063-17.039063-58.203125 0-105.5507812 47.347657-105.515625 106.34375l17.554688 192.714844c0 64.117187 34.523437 105.546875 87.957031 105.546875 20.347656 0 39.914062-5.910156 57.042969-17.039062 16.519531 10.734374 36.175781 17.039062 57.304687 17.039062 21.125 0 40.785156-6.304688 57.300781-17.039062 17.125 11.128906 36.699219 17.039062 57.042969 17.039062 53.433594 0 87.957031-41.429688 87.921875-104.757812l17.625-194.296876c.003906-58.203124-47.34375-105.550781-105.546875-105.550781zm-228.6875 387.011719c-51.878906 0-70.367187-45.4375-70.402344-88.746094l-17.554687-192.714844c0-48.5 39.457031-87.957031 87.957031-87.957031 14.898437 0 29.324219 3.789063 42.304687 11.03125-20.5625 19.269531-33.511718 46.582031-33.511718 76.925781v193.507813c0 30.347656 12.949218 57.65625 33.511718 76.925781-12.980468 7.238282-27.40625 11.027344-42.304687 11.027344zm66.179687-14.449219-3.785156-2.789062c-16.78125-12.386719-28.503906-30.203125-33.414062-49.90625-.0625-.246094-.132813-.484375-.183594-.722657-.6875-2.839843-1.179688-5.734374-1.574219-8.644531-.070312-.511719-.175781-1.003906-.230469-1.515625-.386718-3.28125-.597656-6.597656-.597656-9.929687v-193.503907c0-3.335937.21875-6.652343.597656-9.933593.0625-.507813.167969-1 .230469-1.511719.394531-2.914062.886719-5.804688 1.574219-8.648438.050781-.246093.132812-.484374.183594-.71875 4.910156-19.695312 16.632812-37.515624 33.414062-49.898437l3.820313-2.816406c13.84375-9.09375 30.371093-14.425781 48.136719-14.425781 17.777343 0 34.324218 5.339843 48.167968 14.453124l3.78125 2.789063c16.792969 12.390625 28.515625 30.214844 33.425782 49.914063.0625.238281.121093.464843.183593.703124.6875 2.851563 1.179688 5.746094 1.574219 8.65625.070312.5.175781.992188.230469 1.503907.386719 3.28125.597656 6.597656.597656 9.929687v193.507813c0 3.335937-.222656 6.652343-.597656 9.929687-.054688.511719-.167969.996094-.230469 1.507813-.394531 2.910156-.890625 5.8125-1.574219 8.652343-.054687.238282-.121093.464844-.183593.703126-4.910157 19.703124-16.632813 37.53125-33.425782 49.917968l-3.78125 2.789063c-13.855468 9.101562-30.390625 14.449219-48.167968 14.449219-17.773438 0-34.328126-5.328126-48.171876-14.441407zm232.875-73.503906c0 42.515625-18.488281 87.953125-70.367187 87.953125-14.898437 0-29.332031-3.789062-42.308594-11.027344 20.574219-19.273437 33.511719-46.59375 33.511719-76.929687v-193.503907c0-30.347656-12.945312-57.65625-33.511719-76.929687 12.984375-7.238281 27.410157-11.03125 42.308594-11.03125 48.5 0 87.957031 39.460937 87.992187 87.167969zm0 0"/><path d="m244.691406 96.859375h6.269532l2.042968-5.929687c2.640625-7.6875 6.480469-14.441407 11.425782-20.097657 8.960937-10.246093 22.105468-17.574219 39.054687-21.796875l6.507813-1.617187.15625-6.703125c.238281-9.851563.371093-20.371094-.226563-30.582032l-.601563-10.132812-9.9375 2.023438c-29.886718 6.085937-53.515624 18.847656-70.21875 37.933593-11.425781 13.0625-19.382812 28.738281-23.65625 46.582031l-2.710937 11.332032 11.636719-.492188c10.464844-.441406 21.171875-.511718 30.257812-.519531zm-2.296875-45.308594c12.21875-13.957031 29.113281-23.976562 50.332031-29.859375.050782 4.035156.035157 8.089844-.027343 12.085938-17.425781 5.339844-31.367188 13.886718-41.5 25.472656-5.125 5.855469-9.332031 12.578125-12.542969 20.035156-4.042969.015625-8.308594.0625-12.664062.148438 3.824218-10.449219 9.320312-19.789063 16.402343-27.882813zm0 0"/></svg>