<svg height="511pt" viewBox="0 0 511.99974 511" width="511pt" xmlns="http://www.w3.org/2000/svg"><path d="m511.109375 157.160156c-2.132813-4.441406-7.476563-6.308594-11.925781-4.164062-1.582032.761718-157.664063 76.847656-266.675782 192.335937l-7.949218-7.949219c108.796875-108.253906 263.269531-224.8125 264.921875-226.0625 3.941406-2.964843 4.726562-8.566406 1.761719-12.507812-2.957032-3.929688-8.539063-4.734375-12.507813-1.765625-1.660156 1.25-157.039063 118.496094-266.808594 227.695313l-24.105469-24.105469c109.761719-108.949219 232.414063-258.679688 233.71875-260.289063 3.128907-3.824218 2.558594-9.449218-1.265624-12.566406-3.816407-3.128906-9.445313-2.558594-12.570313 1.265625-1.304687 1.589844-123.449219 150.714844-232.519531 258.957031l-8.015625-8.015625c115.042969-108.972656 191.558593-265.082031 192.316406-266.65625 2.152344-4.4375.304687-9.78125-4.132813-11.933593-4.433593-2.152344-9.785156-.304688-11.9375 4.136718-.75 1.554688-76.179687 155.339844-189.101562 262.035156-3.484375-2.421874-8.230469-2.242187-11.335938.859376-2.664062 2.660156-3.261718 6.566406-1.867187 9.828124-3.523437 2.339844-7.253906 4.546876-11.292969 6.527344-.089844.046875-.207031.097656-.292968.136719-2.003907.1875-3.96875.925781-5.496094 2.453125-.035156.039062-.042969.082031-.070313.117188-5.546875 2.457031-12.464843 5.296874-20.183593 8.460937-34.410157 14.097656-81.539063 33.402344-96.457032 55.636719-13.980468 20.851562-7.738281 43.589844 17.144532 62.378906.007812.007812.023437.007812.035156.015625-5.378906 8.628906-7.621094 17.046875-6.269532 25.058594 1.5 8.863281 7.1875 16.789062 16.464844 22.925781 3.144532 2.074219 6.082032 4.464844 8.71875 7.085938 2.605469 2.617187 5.011719 5.554687 7.101563 8.726562 6.136719 9.273438 14.0625 14.964844 22.925781 16.464844 1.605469.269531 3.214844.402344 4.859375.402344 6.832031 0 13.945313-2.519532 21.191406-7.238282 12.167969 16.027344 25.96875 24.265625 39.84375 24.265625 7.523438 0 15.0625-2.421875 22.359375-7.316406 22.238282-14.910156 41.535156-62.046875 55.640625-96.460937 3.332031-8.144532 6.324219-15.425782 8.871094-21.117188.457031-.726562.824219-1.449219 1.046875-2.242188.421875-.902343.867188-1.894531 1.257812-2.691406 1.824219-3.707031 3.878907-7.089844 5.996094-10.371094 1.035156.402344 2.132813.625 3.234375.625 2.285157 0 4.570313-.875 6.316407-2.617187 3.097656-3.097656 3.285156-7.835937.875-11.320313 106.714843-113.339843 260.472656-188.332031 262.019531-189.082031 4.4375-2.140625 6.304687-7.484375 4.160156-11.921875zm-294.878906 209.792969-10.449219-10.453125c2.054688-2.132812 4.117188-4.269531 6.21875-6.421875l9.121094 9.117187c-1.71875 2.488282-3.34375 5.066407-4.890625 7.757813zm-47.597657-47.589844c2.136719-2.054687 4.28125-4.109375 6.433594-6.210937l24.28125 24.28125c-2.097656 2.144531-4.164062 4.289062-6.21875 6.425781zm-22.890624-22.898437c2.671874-1.574219 5.21875-3.234375 7.675781-4.96875l9.015625 9.015625c-2.152344 2.089843-4.296875 4.152343-6.433594 6.207031zm-123.597657 65.09375c11.890625-17.71875 57.925781-36.578125 88.410157-49.058594 6.824218-2.796875 12.972656-5.332031 18.304687-7.644531l13.589844 13.585937c-3.398438 2.566406-6.933594 5.050782-10.695313 7.390625-21.558594 13.398438-71.390625 48.125-96.207031 74.25-.125-.109375-.1875-.261719-.324219-.359375-25.667968-19.386718-16.1875-33.519531-13.078125-38.164062zm54.265625 115.082031c-4.878906-.820313-8.675781-5.191406-11-8.710937-2.757812-4.152344-5.90625-8.011719-9.378906-11.507813-3.5-3.484375-7.363281-6.625-11.480469-9.34375-5.109375-3.386719-8.039062-7.085937-8.710937-11-.75-4.445313 1.285156-9.871094 6.046875-16.132813 17.636719-23.140624 73.375-62.839843 99.300781-78.949218 4.949219-3.070313 9.585938-6.378906 13.988281-9.828125l26.144531 26.140625c-3.441406 4.40625-6.746093 9.050781-9.828124 14-16.117188 25.925781-55.820313 81.675781-78.941407 99.292968-6.253906 4.753907-11.621093 6.808594-16.140625 6.039063zm75.335938 12.894531c-4.644532 3.125-18.789063 12.585938-38.164063-13.070312-.089843-.117188-.234375-.167969-.320312-.285156 4.464843-4.308594 9.171875-9.335938 13.980469-14.796876-2.921876 3.511719-2.851563 8.675782.4375 11.972657l8.933593 8.933593c1.742188 1.742188 4.03125 2.617188 6.316407 2.617188 2.289062 0 4.574218-.875 6.316406-2.617188 3.492187-3.492187 3.492187-9.140624 0-12.632812l-8.933594-8.933594c-3.394531-3.394531-8.800781-3.421875-12.3125-.214844 22.945312-26.265624 47.808594-62.285156 58.671875-79.761718 2.328125-3.761719 4.8125-7.296875 7.378906-10.695313l13.902344 13.902344c-2.191406 5.085937-4.558594 10.847656-7.15625 17.199219-12.472656 30.453125-31.332031 76.5-49.050781 88.382812zm0 0"/><path d="m211.667969 300.824219c1.742187 1.742187 4.027343 2.617187 6.316406 2.617187 2.285156 0 4.574219-.875 6.316406-2.617187l234.539063-234.539063c3.492187-3.492187 3.492187-9.140625 0-12.632812-3.496094-3.492188-9.140625-3.492188-12.632813 0l-234.539062 234.539062c-3.484375 3.484375-3.484375 9.140625 0 12.632813zm0 0"/><path d="m59.90625 424.976562c-3.492188-3.492187-9.136719-3.492187-12.628906 0-3.496094 3.496094-3.496094 9.140626 0 12.632813l26.800781 26.800781c1.742187 1.746094 4.03125 2.617188 6.316406 2.617188 2.285157 0 4.574219-.875 6.316407-2.617188 3.492187-3.492187 3.492187-9.136718 0-12.628906zm0 0"/><path d="m38.339844 384.007812c1.746094 1.742188 4.03125 2.617188 6.320312 2.617188 2.285156 0 4.570313-.878906 6.316406-2.617188 3.492188-3.496093 3.492188-9.140624 0-12.632812l-8.9375-8.933594c-3.492187-3.496094-9.136718-3.496094-12.628906 0-3.496094 3.492188-3.496094 9.140625 0 12.632813zm0 0"/></svg>