<svg height="512pt" viewBox="0 -33 512 512" width="512pt" xmlns="http://www.w3.org/2000/svg"><path d="m236.5625 339.789062c-3.019531-8.5625-4.554688-17.542968-4.554688-26.679687 0-5.109375-4.140624-9.257813-9.257812-9.257813-5.121094 0-9.257812 4.148438-9.257812 9.257813 0 11.246094 1.886718 22.289063 5.617187 32.84375 1.34375 3.804687 4.90625 6.175781 8.722656 6.175781 1.015625 0 2.0625-.175781 3.082031-.539062 4.824219-1.695313 7.347657-6.988282 5.648438-11.800782zm0 0"/><path d="m311.832031 392.933594s-.011719 0-.019531 0c-23.078125 0-45.039062-10.007813-60.238281-27.457032-3.351563-3.867187-9.21875-4.25-13.0625-.898437-3.851563 3.351563-4.257813 9.203125-.898438 13.0625 18.710938 21.488281 45.75 33.808594 74.199219 33.808594h.015625c5.121094 0 9.257813-4.144531 9.257813-9.257813 0-5.113281-4.152344-9.257812-9.253907-9.257812zm0 0"/><path d="m512 135.367188c0-74.640626-60.726562-135.367188-135.367188-135.367188-72.394531 0-131.519531 57.15625-135.027343 128.6875-25.003907-31.71875-63.679688-51.925781-106.226563-51.925781-74.652344 0-135.378906 60.726562-135.378906 135.367187 0 74.644532 60.726562 135.371094 135.367188 135.371094 14.925781 0 29.457031-2.527344 43.40625-7.269531 13.480468 60.535156 67.523437 105.960937 132.058593 105.960937 74.640625 0 135.367188-60.726562 135.367188-135.367187 0-19.023438-3.980469-37.113281-11.097657-53.554688 46.421876-22.328125 76.898438-69.910156 76.898438-121.902343zm-376.632812 193.617187c-64.429688 0-116.851563-52.414063-116.851563-116.855469 0-64.4375 52.421875-116.851562 116.851563-116.851562 55.574218 0 103.589843 39.851562 114.421874 93.773437-46.507812 22.597657-76.175781 69.617188-76.175781 121.773438 0 3.675781.191407 7.449219.582031 11.550781-12.445312 4.394531-25.476562 6.609375-38.828124 6.609375zm175.464843 98.699219c-64.433593 0-116.855469-52.421875-116.855469-116.851563 0-64.179687 52.023438-116.410156 116.105469-116.820312 1.582031.019531 3.164063.085937 4.738281.167969 1.019532.039062 2.039063.09375 3.046876.15625 40.34375 3.046874 76.203124 26.652343 94.996093 63.164062l3.777344 7.339844s11.042969 29.46875 11.042969 45.992187c.003906 64.429688-52.421875 116.851563-116.851563 116.851563zm115.667969-186.820313c-22.367188-36.835937-61.710938-62.125-107.152344-64.976562-1.710937-.128907-3.433594-.195313-5.15625-.257813-1.128906-.027344-2.222656-.167968-3.359375-.167968-.242187 0-.484375.039062-.722656.039062-.382813 0-.753906-.039062-1.128906-.039062-13.378907 0-26.679688 2.027343-39.652344 6.035156-6.347656-14.632813-9.550781-30.121094-9.550781-46.128906 0-64.429688 52.421875-116.851563 116.851562-116.851563 64.429688 0 116.855469 52.421875 116.855469 116.851563.003906 45.085937-26.585937 86.34375-66.984375 105.496093zm0 0"/><path d="m178.738281 154.59375c0-16.089844-16.265625-28.695312-37.027343-28.695312-20.761719 0-37.027344 12.609374-37.027344 28.695312 0 16.089844 16.265625 28.699219 37.027344 28.699219 5.121093 0 9.257812-4.148438 9.257812-9.257813s-4.136719-9.257812-9.257812-9.257812c-10.601563 0-18.515626-5.378906-18.515626-10.183594s7.914063-10.183594 18.515626-10.183594c10.601562 0 18.515624 5.378906 18.515624 10.183594 0 5.109375 4.136719 9.257812 9.257813 9.257812 5.117187 0 9.253906-4.144531 9.253906-9.257812zm0 0"/><path d="m382.398438 38.878906c-20.765626 0-37.027344 12.609375-37.027344 28.699219 0 16.085937 16.261718 28.695313 37.027344 28.695313 5.121093 0 9.257812-4.148438 9.257812-9.257813s-4.136719-9.257813-9.257812-9.257813c-10.601563 0-18.515626-5.378906-18.515626-10.183593 0-4.8125 7.914063-10.183594 18.515626-10.183594 10.597656 0 18.515624 5.378906 18.515624 10.183594 0 5.109375 4.136719 9.257812 9.257813 9.257812 5.117187 0 9.257813-4.148437 9.257813-9.257812 0-16.085938-16.265626-28.695313-37.03125-28.695313zm0 0"/><path d="m317.597656 214.769531c-20.761718 0-37.027344 12.605469-37.027344 28.695313s16.265626 28.695312 37.027344 28.695312c5.121094 0 9.257813-4.144531 9.257813-9.257812 0-5.109375-4.136719-9.253906-9.257813-9.253906-10.597656 0-18.515625-5.378907-18.515625-10.183594 0-4.816406 7.917969-10.183594 18.515625-10.183594 10.601563 0 18.515625 5.378906 18.515625 10.183594 0 5.109375 4.136719 9.257812 9.257813 9.257812s9.257812-4.148437 9.257812-9.257812c0-16.089844-16.265625-28.695313-37.03125-28.695313zm0 0"/></svg>