<svg height="512pt" viewBox="0 -13 512 512" width="512pt" xmlns="http://www.w3.org/2000/svg"><path d="m394.851562 34.699219c-2.707031 0-5.519531.105469-8.503906.3125-12.269531-16.59375-31.421875-26.347657-52.238281-26.347657-11.890625 0-23.285156 3.167969-33.347656 9.226563l-.488281-.453125c-1.136719-1.066406-2.308594-2.109375-3.546876-3.113281-.554687-.441407-1.128906-.859375-1.980468-1.484375-1.125-.84375-2.261719-1.65625-3.425782-2.40625-.773437-.503906-1.570312-.96875-2.308593-1.394532-1.152344-.683593-2.324219-1.335937-3.523438-1.953124-.824219-.414063-1.65625-.824219-2.550781-1.230469-1.230469-.558594-2.464844-1.070313-3.941406-1.632813-.789063-.304687-1.585938-.597656-2.382813-.867187-1.320312-.441407-2.675781-.824219-4.679687-1.347657-.652344-.179687-1.300782-.34375-1.960938-.484374-1.511718-.335938-3.046875-.574219-5.164062-.894532l-1.726563-.25c-4.667969-.503906-9.441406-.503906-14.214843 0-.5625.058594-1.125.15625-2.246094.335938-1.542969.226562-3.089844.46875-4.5625.789062-.671875.148438-1.320313.324219-2.621094.667969-1.363281.359375-2.71875.738281-4.011719 1.175781-.746093.242188-1.472656.519532-2.65625.960938-1.257812.484375-2.507812 1-3.714843 1.542968-.867188.390626-1.699219.800782-2.539063 1.222657-1.199219.609375-2.355469 1.257812-3.507813 1.9375-.78125.457031-1.5625.917969-2.300781 1.394531-1.195312.773438-2.351562 1.597656-3.730469 2.632812-.5625.414063-1.136718.832032-1.726562 1.300782-1.207031.972656-2.359375 2.003906-3.878906 3.410156l-.136719.128906c-10.066406-6.054687-21.453125-9.222656-33.339844-9.222656-20.808593 0-39.960937 9.75-52.242187 26.34375-2.992188-.207031-5.804688-.3125-8.503906-.3125-64.597657.003906-117.148438 46.714844-117.148438 104.132812 0 31.65625 16.558594 61.875 44.480469 81.5625 5.804687 32.921876 34.496093 57.28125 68.328125 57.28125 9.277344 0 18.492187-1.898437 27.015625-5.492187l55.71875 160.207031c1.742187 4.996094 2.941406 10.230469 4.207031 15.765625l.992188 4.3125c4.652343 19.707031 22.015624 33.460938 42.234374 33.460938h34.710938c20.21875 0 37.582031-13.761719 42.222656-33.453125.589844-2.496094 1.148438-5.003906 1.695313-7.523438 1.125-5.199218 2.191406-10.097656 3.660156-14.882812l47.933594-157.503906c8.226562 3.324218 17.070312 5.109374 25.972656 5.109374 33.835937 0 62.523437-24.351562 68.328125-57.28125 27.941406-19.683593 44.5-49.898437 44.5-81.554687 0-57.417969-52.550781-104.128906-117.148438-104.128906zm-86.167968 390.3125c-1.667969 5.457031-2.863282 10.941406-4.019532 16.253906-.527343 2.402344-1.046874 4.816406-1.628906 7.226563-2.742187 11.644531-13.398437 20.089843-25.339844 20.089843h-34.710937c-11.941406 0-22.597656-8.453125-25.339844-20.097656l-.972656-4.199219c-1.308594-5.765625-2.679687-11.714844-4.738281-17.609375l-49.851563-143.339843c9.128907 2.796874 18.519531 3.84375 28.78125 2.386718l43.9375 124.992188c1.394531 3.957031 5.398438 6.363281 9.5625 5.695312 4.148438-.660156 7.21875-4.191406 7.304688-8.390625l2.328125-113.269531c2.097656.191406 4.214844.285156 6.351562.285156.164063 0 .320313-.035156.476563-.042968 2.75-.015626 5.484375-.164063 8.199219-.511719v78.644531c0 3.96875 2.691406 7.429688 6.535156 8.410156 3.820312.980469 7.855468-.773437 9.761718-4.253906l49.707032-91.121094c5.832031-.433594 11.515625-1.597656 16.964844-3.445312zm-100.957032-143.703125c2.464844-.960938 4.910157-1.960938 7.253907-3.21875 6.480469 5.640625 13.839843 9.9375 21.746093 12.800781l-1.414062 68.898437zm94.742188-.605469c4.375 1.875 8.9375 3.113281 13.5625 4.027344l-29.652344 54.363281v-49.382812c5.683594-2.328126 11.152344-5.21875 16.089844-9.007813zm152.257812-72.597656-3.398437 2.21875-.46875 4.027343c-3.0625 26.207032-25.277344 45.964844-51.675781 45.964844-8.53125 0-17.015625-2.125-24.515625-6.140625l-5.398438-2.890625-4.53125 4.121094c-1.648437 1.492188-3.425781 2.785156-5.222656 4.035156-.910156.640625-1.867187 1.214844-2.8125 1.796875-1.605469.972657-3.226563 1.910157-4.929687 2.699219-.363282.171875-.746094.3125-1.109376.476562-14.34375 6.230469-31.246093 5.96875-45.375-1.59375l-5.417968-2.902343-4.527344 4.140625c-6.863281 6.257812-15.179688 10.402344-24.054688 12.332031-.644531.136719-1.277343.328125-1.917968.441406-2.769532.492188-5.589844.753907-8.4375.789063-4.335938.035156-8.753906-.441406-13.265625-1.589844-.035157-.007812-.070313.011719-.113281 0-9.46875-2.394531-18.121094-7.390625-25.0625-14.75l-5.066407-5.378906-6.117187 4.144531c-14.484375 9.824219-33.355469 11.1875-49.230469 4.671875-.121094-.054688-.25-.105469-.371094-.160156-2.003906-.839844-3.90625-1.898438-5.796875-2.992188-.917968-.546875-1.855468-1.066406-2.742187-1.675781-2.046875-1.359375-4.050781-2.800781-5.890625-4.476563l-4.53125-4.121093-5.398438 2.890625c-7.5 4.015625-15.984375 6.140625-24.515625 6.140625-26.398437 0-48.621093-19.757813-51.675781-45.964844l-.46875-4.027344-3.398438-2.230469c-25.367187-16.617187-39.917968-41.871093-39.917968-69.273437 0-47.847656 44.765625-86.777344 99.792968-86.777344 3.617188 0 7.523438.21875 11.921876.679688l5.40625.554687 2.863281-4.617187c8.808593-14.1875 23.960937-22.65625 40.550781-22.65625 10.65625 0 20.765625 3.480469 29.226562 10.058593l6.683594 5.1875 5.351563-6.542968c1.035156-1.265625 2.152343-2.460938 3.699219-3.957032l.691406-.625c.851562-.78125 1.703125-1.5625 2.570312-2.253906l1.527344-1.136718c.804688-.601563 1.621094-1.191407 2.5-1.753907l1.65625-1.015625c.867188-.511718 1.734375-.988281 2.628906-1.449218.582032-.304688 1.191406-.589844 1.816406-.878907.898438-.40625 1.8125-.777343 3.121094-1.28125l1.519532-.546875c.964843-.320312 1.964843-.589844 3.699218-1.058594l1.171875-.277343c1.101563-.246094 2.230469-.410157 3.375-.574219l1.628907-.261719c3.4375-.363281 6.300781-.484375 11.160156.113281l.9375.15625c1.136718.164063 2.265625.332032 3.402344.582032l1.890624.484375c.988282.261719 1.988282.539062 2.949219.859375l1.917969.703125c.925781.355469 1.847656.730469 2.714844 1.121093l1.832031.882813c.882813.453125 1.742187.929687 2.65625 1.46875.554687.320313 1.101563.640625 1.65625 1 .867187.554687 1.675781 1.152344 2.925781 2.070313l1.042969.773437c.894531.722656 1.734375 1.484375 2.621094 2.308594l1.050781.949219c1.179688 1.152343 2.289062 2.359374 3.339844 3.632812l5.363281 6.511719 6.65625-5.171875c8.453125-6.585938 18.5625-10.070313 29.21875-10.070313 16.589844 0 31.742187 8.472657 40.550781 22.660157l2.863282 4.613281 5.40625-.554688c4.398437-.457031 8.304687-.675781 11.921874-.675781 55.023438 0 99.792969 38.925781 99.792969 86.773438 0 27.398437-14.550781 52.652343-39.917969 69.269531zm0 0"/><path d="m142 146.980469c2.152344-4.289063.425781-9.503907-3.851562-11.65625-4.304688-2.152344-9.511719-.414063-11.652344 3.855469-8.601563 17.101562-29.488282 24.027343-46.597656 15.429687-17.105469-8.601563-24.03125-29.503906-15.429688-46.609375 2.152344-4.289062.425781-9.492188-3.855469-11.644531-4.308593-2.152344-9.5-.417969-11.652343 3.859375-12.878907 25.652344-2.5 57.003906 23.144531 69.898437 7.476562 3.757813 15.4375 5.539063 23.296875 5.539063 19.054687.007812 37.46875-10.5 46.597656-28.671875zm0 0"/><path d="m222.808594 172.371094c-4.710938.894531-7.800782 5.425781-6.917969 10.136718 3.542969 18.804688-8.867187 37-27.671875 40.550782-9.101562 1.707031-18.34375-.210938-25.996094-5.441406-7.664062-5.226563-12.828125-13.121094-14.542968-22.234376-.886719-4.703124-5.425782-7.773437-10.136719-6.914062-4.710938.894531-7.800781 5.425781-6.917969 10.136719 2.578125 13.667969 10.320312 25.503906 21.816406 33.347656 8.746094 5.96875 18.867188 9.074219 29.234375 9.074219 3.238281 0 6.511719-.300782 9.765625-.917969 28.207032-5.320313 46.824219-32.601563 41.503906-60.824219-.886718-4.691406-5.425781-7.792968-10.136718-6.914062zm0 0"/><path d="m326.203125 147.492188c6.96875 0 14.03125-1.40625 20.808594-4.375 12.738281-5.578126 22.546875-15.785157 27.605469-28.742188 5.058593-12.953125 4.78125-27.105469-.808594-39.835938-1.917969-4.382812-7.011719-6.390624-11.429688-4.46875-4.390625 1.925782-6.386718 7.042969-4.46875 11.425782 3.722656 8.496094 3.914063 17.921875.546875 26.5625-3.382812 8.636718-9.917969 15.4375-18.402343 19.164062-17.539063 7.6875-38.035157-.339844-45.722657-17.871094-1.917969-4.382812-7.023437-6.386718-11.429687-4.46875-4.390625 1.929688-6.390625 7.046876-4.46875 11.429688 8.546875 19.523438 27.707031 31.179688 47.769531 31.179688zm0 0"/><path d="m373.007812 202.089844c-4.390624-1.933594-9.519531.078125-11.417968 4.46875-3.722656 8.496094-10.519532 15.039062-19.152344 18.421875-8.636719 3.375-18.078125 3.195312-26.5625-.519531-8.496094-3.714844-15.03125-10.515626-18.414062-19.152344-3.382813-8.632813-3.195313-18.066406.519531-26.5625 1.925781-4.390625-.085938-9.507813-4.476563-11.429688-4.390625-1.941406-9.511718.082032-11.421875 4.46875-5.578125 12.75-5.847656 26.894532-.777343 39.847656 5.074218 12.949219 14.882812 23.144532 27.628906 28.714844 6.757812 2.960938 13.832031 4.363282 20.792968 4.363282 20.070313 0 39.230469-11.671876 47.777344-31.210938 1.910156-4.371094-.101562-9.492188-4.496094-11.410156zm0 0"/><path d="m229.59375 65.261719c-3.878906 2.820312-4.738281 8.242187-1.917969 12.121093 5.449219 7.5 7.652344 16.671876 6.207031 25.835938-1.449218 9.15625-6.371093 17.199219-13.878906 22.648438-15.488281 11.246093-37.226562 7.808593-48.492187-7.671876-2.808594-3.871093-8.234375-4.738281-12.113281-1.917968-3.867188 2.820312-4.738282 8.242187-1.917969 12.121094 10.171875 14 26.070312 21.441406 42.183593 21.433593 10.613282 0 21.320313-3.226562 30.546876-9.925781 11.253906-8.171875 18.640624-20.246094 20.808593-33.980469 2.175781-13.738281-1.136719-27.5-9.3125-38.746093-2.808593-3.878907-8.234375-4.738282-12.113281-1.917969zm0 0"/><path d="m443.566406 97.578125c-3.617187 3.140625-4 8.625-.851562 12.242187 6.085937 6.996094 9.097656 15.933594 8.453125 25.183594-.632813 9.25-4.839844 17.703125-11.828125 23.785156-14.445313 12.574219-36.410156 11.046876-48.984375-3.382812-3.152344-3.621094-8.660157-3.992188-12.234375-.84375-3.621094 3.140625-4 8.625-.851563 12.246094 10.28125 11.808594 24.757813 17.851562 39.300781 17.851562 12.121094 0 24.316407-4.203125 34.15625-12.773437 10.488282-9.132813 16.800782-21.808594 17.753907-35.675781.953125-13.875-3.539063-27.296876-12.675781-37.78125-3.152344-3.636719-8.636719-3.996094-12.238282-.851563zm0 0"/></svg>