<svg height="511pt" viewBox="1 -10 511.99846 511" width="511pt" xmlns="http://www.w3.org/2000/svg"><path d="m210.078125 130.625c1.046875.398438 2.117187.601562 3.171875.601562 3.476562 0 6.773438-2.109374 8.125-5.550781 1.75-4.480469-.472656-9.535156-4.941406-11.289062-12.988282-5.070313-19.429688-19.773438-14.347656-32.761719 5.074218-12.984375 19.769531-19.425781 32.761718-14.34375 4.503906 1.726562 9.542969-.460938 11.296875-4.949219 1.75-4.488281-.472656-9.535156-4.941406-11.289062-21.980469-8.566407-46.769531 2.3125-55.355469 24.246093-8.582031 21.9375 2.292969 46.765626 24.230469 55.335938zm0 0"/><path d="m464.144531 158.101562c-4.410156 1.9375-6.417969 7.078126-4.488281 11.480469 2.71875 6.1875 2.847656 13.066407.390625 19.347657-2.457031 6.292968-7.214844 11.253906-13.40625 13.960937-6.1875 2.710937-13.054687 2.851563-19.355469.390625-6.292968-2.457031-11.253906-7.222656-13.960937-13.410156-1.925781-4.402344-7.042969-6.40625-11.480469-4.488282-4.410156 1.933594-6.414062 7.066407-4.488281 11.476563 4.578125 10.449219 12.953125 18.496094 23.574219 22.652344 5.046874 1.96875 10.3125 2.953125 15.566406 2.953125 5.824218 0 11.636718-1.210938 17.136718-3.617188 10.449219-4.574218 18.496094-12.949218 22.652344-23.582031s3.910156-22.242187-.664062-32.691406c-1.925782-4.394531-7.042969-6.386719-11.476563-4.472657zm0 0"/><path d="m342.40625 133.902344c-4.183594 2.367187-5.667969 7.683594-3.296875 11.878906 3.320313 5.871094 4.160156 12.707031 2.355469 19.207031-1.8125 6.511719-6.050782 11.921875-11.933594 15.25-5.882812 3.332031-12.714844 4.152344-19.207031 2.355469-6.511719-1.8125-11.921875-6.050781-15.25-11.933594-2.363281-4.191406-7.699219-5.664062-11.871094-3.292968-4.183594 2.371093-5.667969 7.6875-3.296875 11.878906 7.84375 13.882812 22.347656 21.691406 37.261719 21.691406 7.109375 0 14.328125-1.777344 20.941406-5.515625 9.9375-5.613281 17.089844-14.753906 20.148437-25.753906 3.0625-11 1.640626-22.519531-3.972656-32.457031-2.371094-4.199219-7.695312-5.679688-11.878906-3.308594zm0 0"/><path d="m268.027344 149.632812c5.988281 2.890626 12.304687 4.261719 18.546875 4.261719 15.871093 0 31.148437-8.882812 38.523437-24.109375 2.089844-4.328125.277344-9.542968-4.054687-11.644531-4.355469-2.097656-9.550781-.269531-11.644531 4.054687-6.074219 12.558594-21.230469 17.804688-33.78125 11.75-12.546876-6.074218-17.820313-21.238281-11.746094-33.78125 2.089844-4.332031.277344-9.542968-4.054688-11.644531-4.347656-2.101562-9.542968-.269531-11.644531 4.050781-10.246094 21.199219-1.351563 46.792969 19.855469 57.0625zm0 0"/><path d="m203.21875 199.222656c5.480469 2.398438 11.285156 3.601563 17.101562 3.601563 5.261719 0 10.542969-.984375 15.589844-2.964844 10.632813-4.164063 19-12.210937 23.558594-22.667969 1.933594-4.410156-.085938-9.554687-4.496094-11.480468-4.445312-1.925782-9.554687.105468-11.472656 4.496093-2.707031 6.191407-7.660156 10.957031-13.953125 13.421875-6.28125 2.46875-13.148437 2.347656-19.355469-.375-12.777344-5.585937-18.625-20.523437-13.046875-33.300781 1.933594-4.410156-.085937-9.550781-4.496093-11.480469-4.457032-1.917968-9.554688.105469-11.472657 4.5-9.417969 21.570313.472657 46.8125 22.042969 56.25zm0 0"/><path d="m313.121094 107.519531c1.386718.128907 2.769531.191407 4.160156.191407 9.890625 0 19.390625-3.402344 27.113281-9.769532 18.164063-14.992187 20.75-41.976562 5.761719-60.136718-3.070312-3.707032-8.542969-4.253907-12.273438-1.179688-3.710937 3.066406-4.234374 8.558594-1.175781 12.273438 8.878907 10.753906 7.347657 26.730468-3.417969 35.601562-5.203124 4.296875-11.695312 6.34375-18.511718 5.667969-6.71875-.644531-12.792969-3.871094-17.089844-9.082031-3.066406-3.703126-8.542969-4.253907-12.273438-1.179688-3.710937 3.070312-4.234374 8.558594-1.175781 12.273438 7.257813 8.800781 17.519531 14.25 28.882813 15.339843zm0 0"/><path d="m134.488281 186.21875c1.8125-4.460938-.339843-9.542969-4.804687-11.355469-4.445313-1.792969-9.542969.332031-11.355469 4.804688-5.238281 12.917969-19.992187 19.171875-32.945313 13.925781-12.914062-5.246094-19.164062-20.015625-13.925781-32.945312 1.804688-4.460938-.339843-9.539063-4.804687-11.355469-4.46875-1.800781-9.550782.339843-11.355469 4.804687-8.851563 21.832032 1.703125 46.792969 23.523437 55.648438 5.25 2.125 10.667969 3.128906 16.011719 3.128906 16.890625-.003906 32.921875-10.070312 39.65625-26.65625zm0 0"/><path d="m499.195312 161.308594c5.160157-16.070313.925782-33.882813-11.433593-46.03125-8.828125-8.664063-20.699219-13.441406-32.976563-13.285156-2.046875-5.4375-5.265625-10.371094-9.5-14.527344-11.183594-10.984375-27.183594-14.136719-41.320312-9.839844.027344-.769531.191406-1.507812.191406-2.277344 0-33.980468-28.082031-61.625-62.585938-61.625-6.542968 0-12.949218.992188-19.140624 2.96875-9.847657-10.238281-23.652344-16.191406-38.085938-16.191406-16.0625 0-31.058594 7.25-40.925781 19.367188-8.175781-4.035157-17.152344-6.136719-26.390625-6.136719-32.648438 0-59.214844 26.164062-59.214844 58.324219v.339843c-9.140625 4.304688-16.75 10.855469-22.476562 18.726563-16.417969-6.109375-35.167969-2.640625-48.144532 9.578125-16.277344-5.105469-34.390625-1.011719-46.730468 11.113281-8.820313 8.664062-13.621094 20.375-13.589844 32.4375-5.507813 2.003906-10.511719 5.152344-14.730469 9.292969-7.828125 7.679687-12.140625 17.910156-12.140625 28.816406 0 10.902344 4.3125 21.132813 12.140625 28.828125 4.515625 4.429688 9.875 7.707031 15.792969 9.667969.070312 12.585937 5.144531 24.796875 14.308594 33.796875 9.109374 8.949218 21.1875 13.851562 33.730468 13.996094.671875 8.394531 4.332032 16.449218 10.519532 22.523437 7.050781 6.917969 16.308593 10.386719 25.578124 10.386719 3.503907 0 6.964844-.652344 10.347657-1.648438 35.835937 1.003906 84.617187 79.828125 91.03125 171.820313.792969 11.347656 10.355469 20.234375 21.753906 20.234375h43.578125c11.121094 0 20.472656-8.347656 21.726562-19.425782l.664063-6.117187c11.941406-110.617187 36.8125-167.40625 73.921875-169.105469 7.289062 3.933594 15.296875 6.109375 23.386719 6.109375 12.460937 0 24.925781-4.660156 34.417969-13.980469 3.273437-3.214843 6.027343-6.824218 8.242187-10.78125 10.757813-.0625 21.234375-4.261718 28.9375-11.824218 8.515625-8.359375 12.792969-19.835938 12.042969-31.402344 6.074218-2.25 11.601562-5.753906 16.273437-10.339844 8.773438-8.617187 13.605469-20.089844 13.605469-32.304687-.007812-11.828125-4.53125-22.957031-12.804688-31.484375zm-329.460937-74.96875c3.921875-1.324219 6.363281-5.226563 5.855469-9.332032-.199219-1.632812-.339844-3.277343-.339844-4.96875 0-22.546874 18.738281-40.894531 41.785156-40.894531 8.636719 0 16.941406 2.589844 24.042969 7.488281 2.015625 1.394532 4.542969 1.863282 6.921875 1.316407 2.386719-.550781 4.433594-2.085938 5.628906-4.230469 6.164063-10.980469 17.945313-17.804688 30.722656-17.804688 11.191407 0 21.804688 5.324219 28.394532 14.25 2.414062 3.277344 6.773437 4.433594 10.492187 2.816407 5.839844-2.546875 12.011719-3.835938 18.339844-3.835938 24.890625 0 45.152344 19.828125 45.152344 44.195313 0 5.972656-1.296875 11.785156-3.730469 17.320312-.007812.023438-.023438.035156-.035156.058594l-.660156 1.585938c-.019532.027343-.027344.0625-.035157.089843v.007813l-.019531.035156c-.15625.332031-.15625.679688-.269531 1.019531-.242188.734375-.53125 1.457031-.582031 2.203125-.007813.183594.0625.351563.0625.535156 0 .90625.050781 1.820313.332031 2.675782.085937.277344.296875.496094.40625.765625.316406.722656.621093 1.453125 1.117187 2.082031.6875.855469 1.542969 1.585938 2.5625 2.144531 4.75 2.625 7.582032 7.285157 7.582032 12.480469 0 5.222656-3.007813 10.039062-7.828126 12.601562-2.160156 1.144532-3.738281 3.140626-4.355468 5.5-.609375 2.363282-.210938 4.871094 1.105468 6.921876 2.84375 4.40625 4.347657 9.480468 4.347657 14.65625 0 11.113281-6.761719 21.109374-17.238281 25.46875-4.347657 1.8125-6.464844 6.753906-4.78125 11.164062 1.210937 3.164062 1.820312 6.421875 1.820312 9.671875 0 15.253906-12.699219 27.664063-28.316406 27.664063-1.601563 0-3.1875-.175782-4.777344-.453126-.332031-.054687-.652344-.132812-.976562-.191406-1.550782-.324218-3.101563-.742187-4.617188-1.335937h-.011719c-5.8125-2.265625-10.824219-6.359375-14.066406-11.808594-1.550781-2.589844-4.324219-4.191406-7.335937-4.253906-3.242188 0-5.847657 1.457031-7.46875 3.992187-4.71875 7.304688-11.351563 12.871094-19 16.402344-1.125.523438-2.257813 1.019531-3.410157 1.449219-.566406.207031-1.15625.375-1.734375.558593-1.089844.347657-2.175781.703126-3.292968.976563-.757813.183594-1.535157.285156-2.308594.433594-.976563.183593-1.945313.402343-2.929688.515625-1.699218.199218-3.425781.304687-5.167968.320312-1.300782.007813-2.605469-.085937-3.90625-.191406-.417969-.035156-.84375-.035156-1.261719-.078125-1.421875-.15625-2.84375-.410156-4.253907-.699219-.269531-.050781-.558593-.085937-.828124-.144531-1.535157-.351563-3.050782-.785156-4.550782-1.292969-.132812-.042968-.261718-.078125-.390625-.121094-1.625-.566406-3.226562-1.210937-4.796875-1.96875-6.742187-3.214843-12.695312-8.027343-17.160156-14.1875-1.378906-1.902343-3.460938-3.175781-5.785156-3.511718-.429688-.0625-.847656-.097656-1.273438-.097656-1.902344 0-3.765625.617187-5.292968 1.796874-2.246094 1.714844-4.695313 3.03125-7.222657 4.15625-.0625.027344-.125.019532-.183593.042969-2.285157 1.003907-4.585938 1.746094-6.894532 2.257813-.078125.019531-.15625.042968-.238281.0625-2.324219.507812-4.660156.765625-6.988281.765625-19.332032 0-35.042969-15.375-35.042969-34.277344 0-7.234375 2.316406-14.179687 6.699219-20.097656 1.421875-1.90625 2-4.3125 1.597656-6.660157-.390625-2.34375-1.734375-4.417968-3.703125-5.75-11.3125-7.660156-18.058594-20.238281-18.058594-33.644531 0-1.984375.183594-3.9375.46875-5.863281.070313-.496094.183594-.984375.269531-1.472656.28125-1.464844.628907-2.914063 1.0625-4.332032.160157-.496093.296876-.996093.472657-1.492187.539062-1.53125 1.167969-3.023437 1.882812-4.480469.136719-.285156.242188-.582031.398438-.871094 4.804687-9.226562 13.121093-16.566406 23.597656-20.105468zm124.378906 160.140625c4.445313-2.773438 8.585938-6.03125 12.234375-9.875 3.671875 3.519531 7.984375 6.257812 12.597656 8.390625.25.316406.496094.621094.835938.960937 1.4375 1.410157 2.988281 2.691407 4.636719 3.832031-10.78125 12.558594-20.421875 27.308594-28.386719 41.601563.53125-16.761719-.464844-32.023437-1.917969-44.910156zm-56.5625 91.710937c-14.503906-33.34375-32.902343-57.523437-47.308593-73.203125 2.769531-1.246093 5.359374-2.929687 7.589843-5.117187 4.820313-4.738282 7.496094-11.101563 7.660157-17.679688 1.988281-1.082031 3.984374-2.511718 5.980468-3.976562 1.238282-.546875 2.492188-1.0625 3.683594-1.707032 4.316406 4.53125 9.292969 8.355469 14.695312 11.398438 6.957032 27.140625 8.183594 62.492188 7.699219 90.285156zm-138.855469-59.449218c-4.707031-4.628907-6.511718-11.179688-4.820312-17.535157.773438-2.9375-.027344-6.074219-2.128906-8.269531-1.664063-1.734375-3.945313-2.683594-6.300782-2.683594-.617187 0-1.253906.070313-1.875.199219-10.648437 2.335937-21.507812-.742187-29.132812-8.226563-7.097656-6.972656-10.339844-16.953124-8.65625-26.695312.410156-2.355469-.171875-4.757812-1.59375-6.675781-1.421875-1.910157-3.566406-3.15625-5.9375-3.453125-5.34375-.652344-10.152344-2.953125-13.910156-6.648438-4.453125-4.394531-6.910156-10.214844-6.910156-16.394531s2.457031-12 6.929687-16.382813c3.5625-3.503906 8.121094-5.773437 13.175781-6.546874 2.335938-.359376 4.417969-1.648438 5.789063-3.574219 1.359375-1.925781 1.890625-4.320313 1.445312-6.640625-1.699219-9.097656 1.253907-18.433594 7.90625-24.96875 8.707031-8.558594 22.023438-10.730469 33.136719-5.402344 3.617188 1.734375 8.027344.75 10.570312-2.414062.714844-.898438 1.464844-1.777344 2.320313-2.617188 7.5625-7.441406 18.46875-9.988281 28.445313-7.121094-.085938.253906-.109376.523438-.191407.777344-.660156 2.054688-1.140625 4.175781-1.566406 6.308594-.15625.769531-.386719 1.519531-.507813 2.292968-.453124 2.914063-.722656 5.875-.722656 8.882813 0 16.402344 7.023438 31.90625 19.105469 42.878906-3.707031 7.191407-5.632813 15.097657-5.632813 23.261719 0 1.761719.097657 3.496094.269532 5.210938.0625.601562.183594 1.1875.273437 1.789062.144531 1.097656.285157 2.203125.511719 3.285156.140625.6875.347656 1.351563.515625 2.023438.234375.957031.453125 1.933594.75 2.867187.226563.714844.503906 1.394531.757813 2.089844.3125.871094.609374 1.753906.964843 2.597656.304688.714844.664063 1.386719.996094 2.082031.382813.804688.75 1.613282 1.175781 2.390626.375.6875.800782 1.332031 1.203125 2.003906.453125.75.886719 1.5 1.367188 2.222656.445312.652344.925781 1.269531 1.394531 1.898438.515625.6875 1.011719 1.382812 1.5625 2.054687.503906.621094 1.054688 1.195313 1.59375 1.789063.566406.625 1.125 1.261718 1.726562 1.863281.566407.566406 1.175782 1.097656 1.769532 1.648437.617187.566406 1.238281 1.152344 1.882812 1.683594.617188.511719 1.269532.992188 1.917969 1.480469.667969.503906 1.332031 1.019531 2.027344 1.5.671875.460937 1.371093.878906 2.066406 1.304687.714844.445313 1.429687.890625 2.171875 1.300782.714844.390624 1.445312.75 2.179688 1.113281.765624.375 1.53125.757812 2.316406 1.101562.75.320313 1.519531.609375 2.285156.894531.808594.308594 1.621094.621094 2.449219.882813.78125.253906 1.585937.46875 2.386719.6875.847656.226563 1.683593.453125 2.535156.644531.820312.183594 1.648437.324219 2.484375.460938.875.148437 1.746093.289062 2.632812.402344.847657.105468 1.703125.164062 2.554688.226562.558593.035156 1.097656.121094 1.65625.148438-.246094 1.75-1.0625 3.382812-2.371094 4.679687-2.285156 2.238281-5.671875 3.03125-8.855469 2.09375-2.316406-.683594-4.800781-.375-6.867187.835937-2.074219 1.210938-3.554688 3.230469-4.09375 5.574219-.386719 1.683594-1.003907 3.277344-1.832031 4.761719-.84375 1.515625-1.890626 2.902344-3.144532 4.121094-5.371094 5.28125-13.394531 6.875-20.492187 4.0625-4.296875-1.71875-9.195313.25-11.128907 4.453125-.929687 2.03125-2.214843 3.851562-3.78125 5.394531-1.851562 1.8125-4.113281 3.226562-6.722656 4.183594-.035156.007812-.050781.042968-.085937.050781-6.738281 2.449219-14.566407 1.0625-19.941407-4.210937zm185.132813 185.816406-.652344 6.019531c-.261719 2.257813-2.152343 3.957031-4.410156 3.957031h-43.578125c-2.292969 0-4.203125-1.769531-4.355469-4.015625-5.824219-83.511719-46.167969-163.078125-88.847656-183.242187.671875.101562 1.34375.121094 2.015625.183594.609375.058593 1.21875.136718 1.820312.164062.835938.035156 1.664063.007812 2.492188-.007812.59375-.019532 1.1875 0 1.769531-.046876.832031-.058593 1.648438-.191406 2.46875-.304687.582031-.078125 1.167969-.128906 1.75-.242187.8125-.15625 1.605469-.375 2.40625-.582032.574219-.148437 1.152344-.261718 1.71875-.445312.800781-.253906 1.574219-.578125 2.359375-.882813.535156-.207031 1.082032-.382812 1.605469-.617187.855469-.382813 1.664063-.835938 2.492187-1.28125.425782-.234375.871094-.425782 1.289063-.671875 1.019531-.601563 1.988281-1.289063 2.957031-1.996094.191406-.148437.410156-.261719.601563-.410156 1.148437-.886719 2.257812-1.839844 3.3125-2.875.851562-.835938 1.652343-1.707031 2.414062-2.625 17.046875 18.207031 46.058594 55.710937 60.003907 111.445312 1.019531 4.113281 4.882812 6.859375 9.089843 6.582031 4.230469-.3125 7.617188-3.617187 8.039063-7.835937.328125-3.335937 7.277344-75.511719-3.21875-129.839844.621094.109375 1.253906.136719 1.875.234375 1.394531.21875 2.789062.417969 4.210937.539063.949219.078125 1.898438.105469 2.847657.148437.835937.035156 1.65625.132813 2.496093.132813.484375 0 .957031-.0625 1.4375-.070313.984375-.027344 1.96875-.078125 2.953125-.148437 1.308594-.089844 2.617188-.210938 3.90625-.382813.921875-.125 1.828125-.261718 2.742188-.417968 1.414062-.253907 2.816406-.550782 4.203125-.898438.453125-.113281.925781-.167969 1.378906-.296875 2.386719 25.328125 2.445313 59.203125-7.035156 92.933594-1.273438 4.503906 1.253906 9.210937 5.707031 10.648437 4.457031 1.457032 9.246094-.894531 10.859375-5.28125.210937-.5625 19.21875-51.804687 46.777344-86.457031.085937.140625.226562.253906.320312.402344.96875 1.472656 2.066407 2.867187 3.347657 4.140625.035156.035156.050781.078125.085937.109375 1.160156 1.132812 2.421875 2.136719 3.75 3.027343.042969.023438.078125.066407.121094.101563.671875.445313 1.402343.742187 2.109375 1.125.75.402344 1.460937.875 2.246094 1.195313.402343.164062.828124.234374 1.230468.382812 1.140625.410156 2.273438.820312 3.464844 1.074219 1.613281.339843 3.253906.53125 4.90625.566406.941406 1.785156 2 3.503906 3.15625 5.140625-57.3125 21-70.152344 140.003906-74.640625 181.621094zm202.347656-251.894532c-4.203125 4.128907-9.550781 6.839844-15.445312 7.851563-2.449219.417969-4.601563 1.863281-5.925781 3.984375-1.324219 2.117188-1.664063 4.6875-.957032 7.078125 2.378906 8.113281.085938 16.855469-5.988281 22.824219-5.386719 5.273437-13.160156 7.6875-20.699219 6.535156-3.992187-.632812-7.964844 1.621094-9.464844 5.429688-1.578124 4.035156-3.933593 7.609374-7.027343 10.632812-10.621094 10.441406-27.035157 11.804688-39.191407 4.105469-.011718-.007813-.019531-.015625-.027343-.023438-1.996094-1.273437-3.695313-2.605469-5.203125-4.089843-3.304688-3.238282-5.761719-7.109376-7.328125-11.5-.367188-1.011719-.925781-1.875-1.578125-2.660157-.183594-.21875-.410156-.382812-.609375-.582031-.515625-.496094-1.046875-.933594-1.65625-1.292969-.296875-.171875-.59375-.3125-.90625-.441406-.601563-.261719-1.210938-.445313-1.863281-.566406-.351563-.070313-.679688-.140625-1.046876-.164063-.183593-.011718-.367187-.089844-.550781-.089844-.757812 0-1.523437.097657-2.28125.308594-.011719 0-.027343 0-.042969 0-.367187.101563-.742187.101563-1.105468.15625-2.347656.347656-4.65625-.191406-6.519532-1.515625-.359374-.261719-.742187-.480469-1.0625-.792969-.609374-.59375-1.089843-1.28125-1.484374-2.015624-.09375-.183594-.148438-.390626-.234376-.582032-.242187-.566406-.453124-1.160156-.566406-1.777344-.234375-1.28125-.210937-2.625.199219-3.964843.113281-.367188.203125-.742188.261719-1.117188 2.703125-.574219 5.308594-1.410156 7.808594-2.441406.714843-.296875 1.359374-.707031 2.058593-1.027344 1.820313-.855469 3.605469-1.761719 5.289063-2.832031.863281-.550781 1.636718-1.1875 2.457031-1.789062 1.402344-1.035157 2.765625-2.097657 4.035156-3.277344.792969-.738282 1.527344-1.515625 2.257813-2.308594 1.152344-1.226562 2.222656-2.5 3.222656-3.851562.65625-.871094 1.273438-1.75 1.859375-2.667969.914063-1.4375 1.714844-2.9375 2.464844-4.480469.460937-.949219.949219-1.875 1.34375-2.859375.695312-1.734375 1.210937-3.53125 1.691406-5.359375.234375-.890625.546875-1.734375.722656-2.648438.539063-2.773437.878907-5.613281.878907-8.542968 0-2.804688-.269532-5.59375-.808594-8.351563 12.960937-8.199219 21.003906-22.386719 21.003906-37.945312 0-5.761719-1.125-11.425781-3.285156-16.734375 4.730468-4.445313 8-10.195313 9.34375-16.496094.445312-2.101562.679687-4.261719.679687-6.460938 0-2.097656-.242187-4.164062-.652343-6.179687-.132813-.652344-.375-1.253906-.550782-1.898437-.367187-1.339844-.75-2.675782-1.28125-3.957032-.304687-.722656-.695312-1.394531-1.054687-2.09375-.574219-1.125-1.160157-2.230468-1.863281-3.277344-.472657-.695312-1.003907-1.339843-1.527344-2.003906-.460938-.582031-.835938-1.21875-1.34375-1.769531 9.308594-6.308594 22.207031-5.375 30.453125 2.738281 3.546875 3.476563 5.832031 7.90625 6.613281 12.796875.367188 2.316407 1.648438 4.382813 3.566406 5.742188 1.90625 1.351562 4.304688 1.875 6.589844 1.464843 9.394531-1.691406 19.007812 1.226563 25.707031 7.816407 8.621094 8.472656 10.816407 21.398437 5.484375 32.160156-1.855468 3.730469-.8125 8.246094 2.492188 10.78125.914062.707031 1.8125 1.449219 2.660156 2.277344 5.402344 5.316406 8.382812 12.367187 8.382812 19.859375-.007812 7.515625-2.992187 14.566406-8.394531 19.886718zm0 0"/></svg>