<svg height="511pt" viewBox="-62 0 511 511.99921" width="511pt" xmlns="http://www.w3.org/2000/svg"><path d="m232.058594 174.898438c.3125-1.980469.042968-4.0625-1.09375-5.902344-12.800782-20.671875-16.046875-65.015625-16.078125-65.457032-.339844-4.78125-4.464844-8.355468-9.261719-8.050781-4.78125.335938-8.382812 4.476563-8.050781 9.257813.128906 1.875 3.183593 43.648437 16.097656 68.839844-.140625.011718-.285156.019531-.425781.035156-17.667969.667968-130.515625 8.652344-137.164063 103.144531-3.695312 52.574219 8.148438 79.292969 50.703125 114.339844 51.84375 42.6875 74.96875 63.644531 80.054688 113.109375.460937 4.425781 4.183594 7.785156 8.636718 7.785156 4.453126 0 8.175782-3.367188 8.636719-7.792969 4.910157-47.765625 26.910157-69.945312 71.574219-107.035156 0 0 .007812 0 .007812-.007813l1.789063-1.476562.007813-.007812c1.832031-1.519532 3.628906-3.011719 5.539062-4.582032 42.554688-35.050781 54.410156-61.769531 50.703125-114.339844-5.558594-79.011718-85.351563-97.519531-121.675781-101.859374zm-16.699219 289.890624c-11.453125-29.023437-33.113281-49.964843-65.679687-77.230468 19.253906-25.984375 42.171874-40.34375 65.230468-40.34375 23.054688 0 46.007813 14.300781 65.273438 40.308594-32.175782 26.953124-53.53125 47.753906-64.824219 77.265624zm78.113281-88.339843c-22.527344-30.015625-50.105468-46.589844-78.5625-46.589844-28.453125 0-56.039062 16.574219-78.558594 46.597656-36.890624-30.746093-46.195312-52.25-42.949218-98.464843 2.507812-35.625 23.328125-61.058594 61.882812-75.570313 27.59375-10.386719 55.085938-11.394531 59.625-11.488281 4.539063.09375 32.03125 1.101562 59.625 11.488281 38.558594 14.519531 59.375 39.945313 61.882813 75.570313 3.246093 46.210937-6.054688 67.703124-42.945313 98.457031zm0 0"/><path d="m147.273438 158.332031 43.371093-9.070312c2.691407-.5625 4.957031-2.367188 6.109375-4.867188 1.15625-2.5 1.050782-5.398437-.277344-7.800781l-21.320312-38.851562c-24.515625-44.683594-74.507812-67.660157-124.378906-57.246094l-43.375 9.066406c-2.6875.566406-4.953125 2.371094-6.109375 4.871094-1.144531 2.5-1.050781 5.386718.277343 7.800781l21.324219 38.847656c20.585938 37.507813 59.113281 59.730469 100.457031 59.730469 7.902344 0 15.914063-.816406 23.921876-2.480469zm-109.167969-65.597656-15.679688-28.574219 31.898438-6.675781c42.386719-8.878906 84.792969 10.675781 105.621093 48.605469l15.679688 28.578125-31.898438 6.671875c-42.347656 8.878906-84.792968-10.671875-105.621093-48.605469zm0 0"/><path d="m385.925781 2.546875c-1.945312-1.953125-4.695312-2.863281-7.410156-2.4492188l-43.832031 6.5273438c-50.410156 7.507812-89.324219 46.417969-96.828125 96.820312l-6.527344 43.832032c-.398437 2.714844.503906 5.464844 2.449219 7.410156 1.640625 1.640625 3.851562 2.542969 6.132812 2.542969.425782 0 .851563-.027344 1.277344-.097657l43.832031-6.523437c50.410157-7.507813 89.3125-46.421875 96.816407-96.820313l6.527343-43.832031c.410157-2.714843-.492187-5.457031-2.4375-7.410156zm-21.253906 48.691406c-6.367187 42.796875-39.40625 75.835938-82.203125 82.214844l-32.238281 4.796875 4.800781-32.238281c6.367188-42.796875 39.414062-75.835938 82.210938-82.203125l32.238281-4.808594zm0 0"/></svg>