<svg height="512pt" viewBox="-53 0 512 512.00003" width="512pt" xmlns="http://www.w3.org/2000/svg"><path d="m226.140625 55.746094v-46.695313c0-3.136719-1.628906-6.039062-4.296875-7.695312-2.675781-1.65625-5.996094-1.800781-8.800781-.398438l-36.183594 18.089844c-3.066406 1.539063-4.992187 4.667969-4.992187 8.097656v29.714844c-100.320313 15.75-175.179688 105.519531-171.753907 207.910156 2.949219 88.675781 64.757813 164.425781 147.300781 188.460938l-4.179687.695312c-4.929687.824219-8.257813 5.480469-7.433594 10.410157.734375 4.425781 4.570313 7.554687 8.910157 7.554687.496093 0 .984374-.035156 1.492187-.125l35.484375-5.917969-18.035156 18.039063c-3.539063 3.539062-3.539063 9.253906 0 12.789062 1.765625 1.765625 4.078125 2.652344 6.394531 2.652344s4.632813-.886719 6.394531-2.652344l22.554688-22.550781v28.828125c0 4.992187 4.042968 9.046875 9.046875 9.046875 5 0 9.042969-4.054688 9.042969-9.046875v-28.820313l22.554687 22.554688c1.769531 1.769531 4.085937 2.648438 6.402344 2.648438 2.316406 0 4.632812-.886719 6.394531-2.648438 3.539062-3.539062 3.539062-9.253906 0-12.792969l-16.867188-16.867187 34.019532 6.800781c.597656.117187 1.203125.179687 1.78125.179687 4.226562 0 8.003906-2.972656 8.855468-7.273437.976563-4.902344-2.199218-9.660156-7.09375-10.644531l-13.132812-2.625c30.601562-8.78125 58.871094-24.765625 82.851562-47.289063 40.804688-38.328125 64.207032-92.40625 64.207032-148.363281 0-103.546875-78.808594-190.722656-180.917969-202.066406zm104.324219 337.246094c-18.359375 17.25-39.511719 30.230468-62.332032 38.707031 31.496094-24.3125 57.984376-58.226563 73.371094-95.96875 22.757813-55.78125 20.171875-115.460938-7.265625-168.035157-2.304687-4.429687-7.75-6.160156-12.210937-3.832031-4.421875 2.3125-6.144532 7.777344-3.835938 12.199219 31.957032 61.25 21.203125 116.917969 6.558594 152.839844-16.898438 41.4375-48.152344 77.832031-84.363281 100.109375 41.007812-61.628907 64.699219-183.519531 36.765625-277.785157-1.414063-4.785156-6.453125-7.519531-11.246094-6.105468-4.785156 1.417968-7.515625 6.449218-6.105469 11.242187 29.96875 101.152344-2.589843 225.558594-42.714843 273.835938v-312.597657c0-4.992187-4.042969-9.046874-9.046876-9.046874-5.003906 0-9.046874 4.054687-9.046874 9.046874v312.585938c-40.117188-48.265625-72.679688-172.683594-42.714844-273.835938 1.414062-4.792968-1.320313-9.824218-6.105469-11.242187-4.792969-1.402344-9.832031 1.320313-11.242187 6.105469-27.933594 94.265625-4.242188 216.167968 36.761718 277.785156-36.203125-22.277344-67.453125-58.667969-84.363281-100.109375-14.644531-35.921875-25.410156-91.589844 6.558594-152.835937 2.304687-4.425782.589843-9.886719-3.835938-12.203126-4.457031-2.316406-9.894531-.589843-12.210937 3.835938-27.4375 52.574219-30.015625 112.25-7.265625 168.035156 16.421875 40.261719 45.457031 76.199219 79.75 100.742188-76.164063-21.238282-133.417969-90.8125-136.140625-172.296875-3.1875-95.765625 68.734375-179.410157 163.769531-190.429688 4.558594-.523437 8.003906-4.394531 8.003906-8.980469v-32.023437l18.09375-9.046875v40.328125c0 4.75 3.671875 8.695313 8.421875 9.027344 96.726563 6.695312 172.496094 87.855469 172.496094 184.769531-.003906 51.734375-20.78125 99.738281-58.503906 135.179688zm0 0"/></svg>