<svg height="511pt" viewBox="-60 0 511 511.99852" width="511pt" xmlns="http://www.w3.org/2000/svg"><path d="m165.359375 285.777344c-.324219 4.789062 3.289063 8.921875 8.078125 9.242187.199219.007813.390625.015625.589844.015625 4.519531 0 8.339844-3.503906 8.652344-8.09375 5.359374-79.84375-40.246094-87.011718-42.191407-87.289062-4.703125-.589844-8.957031 2.609375-9.675781 7.289062-.71875 4.675782 2.515625 9.085938 7.183594 9.894532 1.285156.230468 31.578125 6.175781 27.363281 68.941406zm0 0"/><path d="m192.476562 459.988281c-36.898437-4.746093-36.046874-39.03125-35.832031-42.929687.296875-4.773438-3.332031-8.867188-8.101562-9.1875-4.714844-.164063-8.914063 3.3125-9.226563 8.101562-1.214844 18.753906 7.871094 55.695313 50.945313 61.238282.375.042968.746093.070312 1.121093.070312 4.292969 0 8.027344-3.195312 8.589844-7.566406.617188-4.765625-2.742187-9.113282-7.496094-9.726563zm0 0"/><path d="m245.226562 251.335938c-16.140624 15.957031-10.535156 44.265624-10.292968 45.453124.851562 4.105469 4.460937 6.925782 8.488281 6.925782.570313 0 1.152344-.0625 1.742187-.183594 4.6875-.945312 7.722657-5.527344 6.777344-10.222656-1.128906-5.628906-2.335937-21.945313 5.519532-29.667969 5.25-5.160156 14.527343-6.359375 27.515624-3.503906 4.703126 1.03125 9.304688-1.960938 10.328126-6.636719 1.023437-4.6875-1.953126-9.304688-6.632813-10.328125-19.140625-4.148437-33.753906-1.417969-43.445313 8.164063zm0 0"/><path d="m387.738281 244.707031c-2.578125-1.925781-48.699219-35.789062-103.21875-39.875l-.011719-14.34375c-4.285156-87.617187-17.15625-130.449219-17.703124-132.226562-.050782-.183594-.183594-.546875-.25-.722657-21.804688-57.304687-66.972657-57.644531-68.726563-57.5312495-1.890625-.0351563-47.058594.1835935-69.125 58.2343755-.390625 1.242187-9.15625 30.171874-14.683594 89.441406-52.28125-2.015625-105.074219 19.539062-108.171875 20.824218-3.816406 1.597657-5.988281 5.65625-5.179687 9.710938.804687 4.0625 4.363281 6.984375 8.503906 6.984375 27.933594 0 51.328125 10.5 69.53125 31.203125 16.714844 19.023438 25.921875 44.5 25.921875 71.746094v108.105468c0 48.046876 12.730469 81.664063 37.84375 99.921876 16.242188 11.800781 35.785156 15.820312 55.144531 15.820312 29.816407 0 59.1875-9.527344 75.390625-14.78125 5.464844-1.769531 8.988282-6.992188 8.570313-12.691406-.222657-3.082032-1.621094-5.796875-3.6875-7.863282-1.203125-26.847656-4.730469-164.820312 47.355469-207.367187 14.898437-12.167969 32.914062-15.175781 55.074218-9.25 3.984375 1.09375 8.238282-.851563 10.058594-4.589844 1.796875-3.757812.703125-8.269531-2.636719-10.75zm-247.859375-157.921875h16.808594v17.355469h-19.835938c1.039063-6.632813 2.066407-12.367187 3.027344-17.355469zm5.285156-23.074218c1.640626-4.304688 3.464844-8.097657 5.355469-11.636719h6.175781v17.355469h-13.039062c.929688-3.792969 1.507812-5.71875 1.507812-5.71875zm29.746094 101.535156c-.285156-.191406-.589844-.347656-.875-.539063v-8.503906h17.355469v17.355469h-5.988281c-1.085938-1.007813-2.300782-1.882813-3.445313-2.828125-.183593-.15625-.382812-.296875-.574219-.445313-2.105468-1.726562-4.164062-3.503906-6.472656-5.039062zm68.554688-43.753906h17.355468c.109376 0 .207032-.058594.328126-.066407.703124 5.429688 1.398437 11.203125 2.050781 17.421875h-19.734375zm-17.355469 17.355468h-17.355469v-17.355468h17.355469zm32.566406-34.710937h-15.210937v-17.351563h12.183594c.960937 4.980469 1.988281 10.730469 3.027343 17.351563zm-32.566406 0h-17.355469v-17.351563h17.355469zm-17.355469-34.707031v-17.355469h17.355469v17.355469zm-17.355468 0h-17.355469v-17.355469h17.355469zm0 17.355468v17.355469h-17.355469v-17.355469zm0 34.707032v17.355468h-17.355469v-17.355468zm22.890624 91.738281c-1.214843.558593-2.402343 1.15625-3.546874 1.816406-.640626-2.058594-1.414063-4-2.152344-5.96875.027344-.28125.164062-.523437.164062-.816406v-17.355469h17.355469v17.890625c-4.035156 1.234375-7.984375 2.699219-11.820313 4.433594zm-5.535156-39.671875v-17.355469h17.355469v17.355469zm34.710938-17.355469h21.371094c.46875 5.546875.921874 11.296875 1.320312 17.355469h-22.691406zm0-86.773437v-17.355469c.476562 0 .894531-.199219 1.351562-.269531 1.9375 3.582031 3.792969 7.410156 5.46875 11.785156.207032.691406.773438 2.652344 1.570313 5.847656h-8.390625zm-17.355469-34.710938h-17.355469v-15.246094c4.945313 1.585938 11.046875 4.363282 17.355469 9.316406zm-34.710937 0h-17.355469v-8.679688c0-.183593-.085938-.328124-.105469-.503906 6.769531-4.335937 13.042969-6.402344 17.460938-7.351562zm-34.710938 86.773438v17.355468h-24.363281c.65625-6.1875 1.34375-11.9375 2.046875-17.355468zm108.800781 83.226562c-7.566406-.5625-14.890625-.269531-22.023437.601562v-14.40625h23.707031v13.703126c-.5625.035156-1.121094.066406-1.683594.101562zm-112.824219 277.40625c-20.367187-14.804688-30.695312-43.691406-30.695312-85.875v-108.105469c0-31.464843-10.742188-61-30.238281-83.199219-13.0625-14.855468-28.351563-25.285156-45.703125-31.230468 20.917968-5.492188 48.757812-10.535156 74.945312-8.207032.183594.023438.355469.109376.546875.128907 10.484375.972656 19.835938 3.054687 28.175781 6.179687.304688.109375.609376.207032.902344.320313 3.742188 1.449219 7.210938 3.167969 10.515625 5.058593.660157.382813 1.320313.761719 1.972657 1.171876 2.574218 1.589843 4.945312 3.394531 7.25 5.265624.828124.679688 1.730468 1.269532 2.519531 1.980469 2.851562 2.566407 5.5 5.363281 7.902343 8.417969.46875.597656.851563 1.28125 1.300782 1.898438 1.917968 2.621093 3.722656 5.371093 5.339844 8.332031.519531.953125.972656 1.96875 1.464843 2.957031 1.46875 2.976562 2.8125 6.066406 3.984375 9.363281.304688.84375.597656 1.699219.882813 2.558594 1.304687 4 2.441406 8.183594 3.332031 12.644531 1.9375 9.542969 3.023438 19.976563 3.023438 31.515625v78.097657.132812l.015624 54.179688c-.035156.488281-.027343 1.042968-.054687 1.546874 0 .007813 0 .023438-.007813.035157v.15625c-.667968 16.0625 2.917969 39.90625 15.992188 59.632812.730469 1.117188 1.570312 2.203125 2.371094 3.296875.691406.945313 1.378906 1.890625 2.125 2.8125 1.136718 1.421875 2.367187 2.792969 3.636718 4.15625.519532.554688 1.058594 1.09375 1.59375 1.640625 1.433594 1.441407 2.90625 2.847657 4.496094 4.191407.390625.328124.824219.632812 1.234375.953124 2.75 2.21875 5.761719 4.269532 9.015625 6.160157 1.238282.730469 2.445313 1.476562 3.753906 2.144531 1.242188.625 2.570313 1.171875 3.878907 1.734375 1.136719.503906 2.195312 1.058594 3.386719 1.519531-27.972657 8.128906-70.945313 16.730469-98.859376-3.566406zm161.582032-226.277344c-54.917969 44.863282-55.40625 172.65625-54.007813 214.484375-2.644531-.894531-5.171875-1.894531-7.496093-3.039062-.574219-.277344-1.070313-.625-1.625-.921875-1.914063-1.023438-3.765626-2.089844-5.464844-3.269532-.644532-.441406-1.234375-.921874-1.847656-1.378906-1.539063-1.15625-3.003907-2.34375-4.367188-3.609375-.492188-.460937-.976562-.921875-1.445312-1.398437-1.441407-1.429688-2.796876-2.914063-4.042969-4.453125-.261719-.320313-.539063-.632813-.800781-.960938-12.46875-16.027343-15.195313-36.402343-15.6875-47.363281-.019532-.425781-.027344-.796875-.035157-1.195312-.027343-.707032-.042969-1.390626-.054687-1.988282-.007813-.765625-.007813-1.503906 0-2.101562 0 0 0-.007813 0-.015625l.042968-.164063c.191407-.730468.296876-1.484375.296876-2.238281v-132.933594c0-3.277343-.078126-6.464843-.242188-9.5625-.53125-10.300781 5.761719-19.742187 16.019531-24.082031 12.121094-5.109375 24.589844-7.355469 36.894531-7.675781.695313-.019531 1.398438-.0625 2.089844-.0625 27.960938-.242188 54.859375 9.414062 74.410156 18.898437-11.972656 2.042969-22.875 7.066406-32.636718 15.03125zm0 0"/></svg>