<svg height="511pt" viewBox="-138 1 511 511.99846" width="511pt" xmlns="http://www.w3.org/2000/svg"><path d="m213.199219 368.320312c-.894531-5.703124-1.738281-11.636718-2.5625-17.914062 5.296875-4 8.816406-9.769531 9.957031-16.339844 1.179688-6.847656-.375-13.753906-4.386719-19.429687-2.609375-3.707031-6.066406-6.605469-10.054687-8.496094-.390625-5.511719-.730469-11.03125-1-16.539063.199218-.140624.410156-.277343.605468-.417968 5.6875-4.007813 9.46875-9.988282 10.660157-16.84375 1.179687-6.847656-.375-13.753906-4.382813-19.429688-2.050781-2.90625-4.628906-5.300781-7.621094-7.125.050782-4.921875.148438-9.847656.304688-14.769531.910156-.492187 1.804688-1.03125 2.65625-1.632813 5.683594-4.007812 9.46875-9.988281 10.648438-16.839843 1.1875-6.847657-.375-13.753907-4.375-19.421875-1.683594-2.394532-3.75-4.480469-6.101563-6.152344.503906-5.363281 1.058594-10.71875 1.675781-16.074219 8.695313-4.304687 14.527344-13.304687 14.527344-23.34375 0-7.277343-3.082031-14.125-8.316406-18.984375.765625-4.347656 1.570312-8.695312 2.414062-13.035156 10.464844-3.402344 17.917969-13.183594 17.917969-24.691406 0-8.597656-4.164063-16.425782-10.984375-21.226563-.84375-18.257812-7.871094-34.9375-20.097656-47.414062-14.046875-14.320313-34.035156-22.199219-56.292969-22.199219-19.300781 0-38.652344 8.121094-57.585937 24.140625-2.902344-1.101563-5.972657-1.664063-9.121094-1.664063-14.355469 0-26.035156 11.679688-26.035156 26.03125 0 4.070313.953124 8.027344 2.757812 11.613282-2.5 3.472656-4.667969 6.683594-6.472656 9.441406-15.066406-1.640625-28.734375 10.628906-28.734375 25.894531 0 6.457031 2.359375 12.523438 6.535156 17.210938-1.125 3.042969-2.21875 6.167969-3.253906 9.378906-11.773438 2.488281-20.632813 12.964844-20.632813 25.476563 0 8.339843 3.886719 15.90625 10.308594 20.734374-.753906 5.464844-1.40625 11.113282-1.945312 16.902344-.925782.496094-1.828126 1.050782-2.699219 1.648438-11.722657 8.28125-14.535157 24.550781-6.261719 36.285156 1.933594 2.742188 4.347656 5.039062 7.140625 6.828125.015625 5.269531.121094 10.597656.292969 15.933594-.398438.242187-.789063.503906-1.171875.773437-11.722657 8.277344-14.535157 24.550782-6.261719 36.289063 2.714844 3.835937 6.324219 6.804687 10.5 8.6875.570312 5.699219 1.203125 11.332031 1.871094 16.859375-5.605469 4.011718-9.328125 9.945312-10.5 16.75-1.1875 6.847656.375 13.753906 4.375 19.429687 3.226562 4.574219 7.757812 7.894531 12.957031 9.613281.804687 4.585938 1.621094 9.019532 2.429687 13.296876-.617187.527343-1.207031 1.074218-1.761718 1.648437-9.953125 10.335937-9.640625 26.855469.703125 36.808594 3.039062 2.917969 6.691406 5.019531 10.675781 6.191406 2.472656 10.132813 4.355469 16.945313 4.753906 18.136719.011719.035156.019532.066406.035156.101562-7.011718 10.292969-5.789062 24.472656 3.472657 33.402344 4.113281 3.964844 9.390625 6.40625 15.015625 7.046875 17.570312 27.648437 41.132812 41.109375 71.902344 41.109375 44.109374 0 82.773437-32.839844 89.921874-76.394531 1.074219-6.550781 1.074219-13.527344-.027343-21.183594 1.234375-.882813 2.378906-1.875 3.4375-2.96875 4.824219-5.003906 7.402343-11.59375 7.273437-18.550781-.132812-6.953125-2.960937-13.433594-7.96875-18.25-3.1875-3.054688-6.988281-5.207032-11.117187-6.332032zm-.703125 31.101563c-.886719.910156-2.03125 1.628906-3.421875 2.105469l-7.089844 2.484375 1.71875 8.808593c1.472656 7.585938 1.734375 14.109376.761719 19.976563-5.789063 35.269531-37.089844 61.847656-72.789063 61.847656-25.945312 0-44.847656-11.679687-59.476562-36.742187l-2.839844-4.867188-5.597656.605469c-1.554688.164063-4.496094.085937-6.949219-2.300781-3.449219-3.3125-3.558594-8.824219-.644531-11.878906l5.105469-4.640626-2.371094-6.648437c-.390625-1.085937-.78125-2.167969-1.144532-3.246094-.226562-.71875-2.472656-8.660156-5.703124-22.347656l-1.550782-6.578125-6.753906-.109375c-2.230469-.035156-4.320312-.886719-5.875-2.378906-3.445312-3.316407-3.554688-8.824219-.242188-12.261719.695313-.722656 1.542969-1.3125 2.59375-1.816406l6.101563-2.886719-1.300781-6.621094c-1.492188-7.613281-3.011719-15.785156-4.476563-24.464843l-1.164062-6.90625-6.996094-.320313c-2.730469-.132813-5.179687-1.433594-6.707031-3.59375-2.757813-3.914063-1.816406-9.339844 2.101562-12.105469.511719-.355468 1.179688-.679687 2.109375-1.007812l6.601563-2.34375-.902344-6.949219c-1.171875-9.085937-2.230469-18.457031-3.113281-28.019531l-.617188-6.726563-6.671875-1.050781c-2.351562-.363281-4.402344-1.632812-5.753906-3.542969-2.757812-3.914062-1.824219-9.335937 2.097656-12.105469.652344-.457031 1.460938-.832031 2.5-1.136718l6.511719-1.917969-.285156-6.765625c-.375-8.859375-.546875-17.757812-.496094-26.433594l.035156-6.300781-5.980469-1.988281c-1.265624-.414063-3.046874-1.308594-4.363281-3.175782-2.757812-3.914062-1.820312-9.335937 2.082031-12.09375.851563-.601562 1.839844-1.042968 2.941407-1.300781l6.101562-1.496093.496094-6.257813c.738281-9.398437 1.792969-18.457031 3.125-26.933594l1.082031-6.90625-6.507812-2.527343c-3.375-1.308594-5.554688-4.476563-5.554688-8.0625 0-4.789063 3.898438-8.679688 8.140625-8.703126l8.082031.570313 1.949219-6.679687c1.996094-6.839844 4.253907-13.320313 6.710938-19.285157l2.785156-6.765625-6.207031-3.890625c-2.566406-1.613281-4.101563-4.347656-4.101563-7.324219 0-5.953124 6.558594-10.273437 12.035157-8.011718l6.847656 2.875 3.894531-6.328125c2.59375-4.214844 6.898437-10.847657 12.636719-18.445313l4.390625-5.824218-4.980469-5.328126c-1.101562-1.109374-2.394531-3.070312-2.394531-5.839843 0-4.789063 3.894531-8.679688 8.675781-8.679688 2.308594 0 4.070312.953125 5.148438 1.753907l5.761718 4.304687 5.292969-4.867187c17.121094-15.699219 34.113281-23.664063 50.503906-23.664063 17.566407 0 33.152344 6.019531 43.886719 16.972656 10.117188 10.308594 15.515625 24.601563 15.210938 40.238281l-.113282 5.988282 5.574219 2.238281c3.3125 1.320313 5.457031 4.480469 5.457031 8.027344 0 4.625-3.644531 8.410156-8.3125 8.609375l-6.777344.285156-1.355468 6.65625c-1.65625 8.160156-3.167969 16.332031-4.546875 24.527344l-1.03125 6.109375 5.429687 2.957031c2.820313 1.542969 4.574219 4.4375 4.574219 7.558594 0 4.097656-2.898437 7.671875-6.898437 8.496094l-6.089844 1.257812-.765625 6.179688c-1.144531 9.207031-2.082031 18.40625-2.878907 27.628906l-.566406 6.585937 6.195313 2.300781c1.660156.617188 3.066406 1.691407 4.082031 3.125 1.335938 1.898438 1.847656 4.191407 1.457031 6.484376-.390625 2.28125-1.648437 4.277343-3.542969 5.605468-.910156.640625-1.953124 1.101563-3.070312 1.351563l-6.457031 1.484375-.269531 6.621094c-.363282 8.878906-.519532 17.773437-.5625 26.660156l-.027344 6.515625 6.246094 1.847656c1.347656.398437 3.246093 1.273437 4.628906 3.238281 1.335937 1.898438 1.847656 4.1875 1.457031 6.480469-.390625 2.285156-1.648437 4.277344-3.53125 5.605469-.574219.402344-1.300781.746094-2.292969 1.078125l-6.179687 2.0625.261719 6.507812c.382812 9.539063.972656 19.066407 1.71875 28.59375l.527343 6.710938 6.632813 1.164062c2.28125.398438 4.261718 1.648438 5.597656 3.53125 1.335938 1.898438 1.847656 4.191407 1.457031 6.480469-.390625 2.285156-1.648437 4.28125-3.539062 5.605469-.46875.339843-1.070313.632812-1.859375.949219l-6.230469 2.480468.824219 6.65625c1.378906 11.125 2.832031 21.167969 4.417968 30.710938l1.257813 7.5 7.59375-.261719c2.402344.054687 4.617187.78125 6.308594 2.40625 1.667969 1.605469 2.613281 3.765625 2.65625 6.074219.007812 2.3125-.847657 4.507812-2.453125 6.175781zm0 0"/><path d="m134.792969 86.777344c4.789062 0 8.675781-3.878906 8.675781-8.675782 0-11.367187-9.242188-20.609374-20.609375-20.609374s-20.609375 9.242187-20.609375 20.609374c0 4.796876 3.886719 8.675782 8.675781 8.675782 4.792969 0 8.679688-3.878906 8.679688-8.675782 0-1.796874 1.457031-3.253906 3.253906-3.253906s3.253906 1.457032 3.253906 3.253906c0 4.796876 3.886719 8.675782 8.679688 8.675782zm0 0"/><path d="m156.625 112.8125c-11.367188 0-20.609375 9.242188-20.609375 20.609375 0 4.800781 3.886719 8.679687 8.679687 8.679687 4.789063 0 8.675782-3.878906 8.675782-8.679687 0-1.792969 1.460937-3.25 3.253906-3.25 1.796875 0 3.253906 1.457031 3.253906 3.25 0 4.800781 3.890625 8.679687 8.679688 8.679687 4.789062 0 8.675781-3.878906 8.675781-8.679687 0-11.367187-9.25-20.609375-20.609375-20.609375zm0 0"/><path d="m77.960938 280.574219c0 4.800781 3.886718 8.679687 8.675781 8.679687 4.792969 0 8.679687-3.878906 8.679687-8.679687 0-11.367188-9.242187-20.609375-20.609375-20.609375-11.367187 0-20.609375 9.242187-20.609375 20.609375 0 4.800781 3.886719 8.679687 8.675782 8.679687 4.789062 0 8.679687-3.878906 8.679687-8.679687 0-1.792969 1.457031-3.253907 3.253906-3.253907s3.253907 1.460938 3.253907 3.253907zm0 0"/><path d="m150.117188 416.542969c-11.367188 0-20.609376 9.242187-20.609376 20.609375 0 4.796875 3.886719 8.675781 8.675782 8.675781 4.792968 0 8.679687-3.878906 8.679687-8.675781 0-1.796875 1.457031-3.253906 3.253907-3.253906 1.796874 0 3.253906 1.457031 3.253906 3.253906 0 4.796875 3.886718 8.675781 8.679687 8.675781 4.789063 0 8.675781-3.878906 8.675781-8.675781 0-11.367188-9.25-20.609375-20.609374-20.609375zm0 0"/><path d="m136.015625 234.304688c4.789063 0 8.679687-3.878907 8.679687-8.675782 0-1.796875 1.457032-3.253906 3.253907-3.253906 1.792969 0 3.253906 1.457031 3.253906 3.253906 0 4.796875 3.886719 8.675782 8.675781 8.675782 4.789063 0 8.679688-3.878907 8.679688-8.675782 0-11.371094-9.242188-20.613281-20.609375-20.613281-11.371094 0-20.613281 9.242187-20.613281 20.613281 0 4.796875 3.878906 8.675782 8.679687 8.675782zm0 0"/><path d="m95.316406 361.230469c-11.367187 0-20.609375 9.242187-20.609375 20.609375 0 4.796875 3.886719 8.675781 8.675781 8.675781 4.792969 0 8.679688-3.878906 8.679688-8.675781 0-1.796875 1.457031-3.253906 3.253906-3.253906s3.253906 1.457031 3.253906 3.253906c0 4.796875 3.886719 8.675781 8.679688 8.675781 4.789062 0 8.675781-3.878906 8.675781-8.675781 0-11.367188-9.25-20.609375-20.609375-20.609375zm0 0"/><path d="m95.878906 156.203125c-11.367187 0-20.609375 9.242187-20.609375 20.609375 0 4.800781 3.886719 8.679688 8.679688 8.679688 4.789062 0 8.675781-3.878907 8.675781-8.679688 0-1.796875 1.460938-3.253906 3.253906-3.253906 1.796875 0 3.253906 1.457031 3.253906 3.253906 0 4.800781 3.890626 8.679688 8.679688 8.679688s8.679688-3.878907 8.679688-8.679688c0-11.367188-9.253907-20.609375-20.613282-20.609375zm0 0"/><path d="m150.117188 291.796875c-11.367188 0-20.609376 9.242187-20.609376 20.609375 0 4.800781 3.886719 8.679688 8.675782 8.679688 4.792968 0 8.679687-3.878907 8.679687-8.679688 0-1.796875 1.457031-3.253906 3.253907-3.253906 1.796874 0 3.253906 1.457031 3.253906 3.253906 0 4.800781 3.886718 8.679688 8.679687 8.679688 4.789063 0 8.675781-3.878907 8.675781-8.679688 0-11.367188-9.25-20.609375-20.609374-20.609375zm0 0"/></svg>