<svg height="512pt" viewBox="0 -10 512.00306 512" width="512pt" xmlns="http://www.w3.org/2000/svg"><path d="m438.605469 421.078125c75.160156-72.929687 95.019531-186.753906 48.292969-276.8125-3.285157-6.351563-4.203126-12.933594-2.574219-18.527344.972656-3.34375 2.816406-7.675781 6.0625-9.285156l8.367187-4.179687-4.496094-8.207032c-2.890624-5.285156-11.195312-14.632812-23.941406-16.148437-6.699218-.78125-13.625.648437-20.734375 4.179687-51.886719-55.136718-127.414062-82.625-204.664062-71.207031-.226563-.378906-.496094-.65625-.730469-1.027344-.785156-1.242187-1.632812-2.375-2.488281-3.503906-1.0625-1.402344-2.152344-2.699219-3.277344-3.886719-.601563-.640625-1.089844-1.453125-1.71875-2.046875-5.53125-5.203125-11.59375-7.996093-17.097656-9.355469-.324219-.082031-.621094-.117187-.933594-.191406-1.164063-.25-2.308594-.46875-3.398437-.601562-.664063-.082032-1.289063-.136719-1.925782-.1796878-.757812-.0546874-1.476562-.0820312-2.191406-.0898437-.574219 0-1.132812-.0195313-1.683594.0078125-1.179687.0546875-2.285156.152344-3.242187.308594-1.765625.0625-3.46875.347656-5.125.765625-.847657.207031-1.636719.519531-2.441407.808594-.757812.277343-1.511718.566406-2.234374.925781-.882813.433593-1.746094.914062-2.574219 1.460937-.621094.40625-1.207031.863282-1.800781 1.324219-.785157.609375-1.570313 1.214844-2.296876 1.9375-.082031.078125-.179687.132813-.253906.214844-.457031.46875-.828125 1.035156-1.261718 1.53125-1.25 1.460937-2.414063 3.070312-3.484376 4.871093-.511718.875-1.070312 1.710938-1.53125 2.628907-.511718 1.019531-.945312 2.144531-1.402343 3.253906-.398438.945313-.785157 1.871094-1.117188 2.828125-.386719 1.097656-.757812 2.222656-1.097656 3.402344-.515625 1.765625-.957031 3.523437-1.324219 5.25-.164062.785156-.324218 1.578125-.476562 2.386718-.53125 2.875-.929688 5.632813-1.179688 8.089844-22.589844 11.015625-43 25.554688-60.714844 42.871094-5.402343 4.773438-10.566406 9.863281-15.546874 15.148438-.546876.585937-1.078126 1.171874-1.628907 1.757812-3.125 3.375-6.152343 6.855469-9.085937 10.429688-.652344.792968-1.398438 1.539062-2.039063 2.332031-4.492187-.523438-8.734375-.875-12.78125-1.089844-.085937 0-.179687-.019531-.269531-.019531-3.871094-.207032-7.519531-.269532-11.003906-.214844-.261719 0-.542969 0-.800782 0-3.324218.0625-6.460937.242188-9.441406.511719-.34375.027343-.703125.054687-1.042968.089843-2.863282.28125-5.558594.65625-8.105469 1.109376-.378907.0625-.765625.125-1.136719.195312-2.457031.46875-4.773438 1-6.960938 1.613281-.378906.109375-.757812.207031-1.128906.316407-2.097656.613281-4.078125 1.289062-5.933594 2.007812-.371093.144531-.722656.289062-1.082031.433594-1.773437.730468-3.449219 1.503906-5.007812 2.3125-.34375.183594-.675781.363281-1.007813.550781-1.488281.820313-2.882812 1.65625-4.171875 2.539063-.316406.21875-.613281.433593-.917969.652343-1.214843.871094-2.378906 1.753907-3.421874 2.675781-.289063.25-.550782.503907-.832032.753907-.980468.902343-1.910156 1.792969-2.746094 2.710937-.261718.289063-.496093.578125-.746093.867188-.757813.882812-1.496094 1.753906-2.125 2.636718-.246094.332032-.449219.65625-.675781.992188-.570313.828125-1.117188 1.65625-1.585938 2.464844-.226562.378906-.398438.738281-.59375 1.117187-.398438.738281-.792969 1.476563-1.117188 2.191407-.207031.449218-.359374.871093-.542968 1.304687-.242188.601563-.511719 1.207031-.710938 1.773437-.195312.550782-.332031 1.042969-.484375 1.550782-.117187.398437-.269531.820312-.359375 1.1875-.226562.859375-.398437 1.640625-.53125 2.324218-.3867185 2.070313-.449218 4.242188-.191406 6.441407 2.917969 24.308593 19.859375 37.089843 29.6875 42.546875 1.144531.628906 1.414062 2.0625 1.179688 3.195312-20.554688 98.832032 23.949218 198.019532 113.394531 252.730469 5.117187 3.125 10.296875 6.0625 15.519531 8.789063 36.601562 19.140624 75.78125 28.621093 114.367188 28.621093 25.882812 0 51.507812-4.269531 75.898437-12.769531 24.390625-8.492188 47.554687-21.21875 68.542969-38.125.0625-.054688.113281-.136719.179687-.191406 1.292969-1.070313 2.457031-2.277344 3.4375-3.609375 3.191407-2.621094 11.546875-9.785157 16.023438-16.457031l.21875-.195313c-.007813.007813-.007813.007813 0 0zm29.433593-315.289063c2.117188.226563 3.9375.972657 5.414063 1.910157-2.757813 3.523437-4.925781 7.882812-6.414063 12.996093-2.9375 10.0625-1.558593 21.382813 3.875 31.855469 37.601563 72.488281 28.34375 161.753907-20.808593 228.125.875-2.957031 1.523437-5.722656 2.261719-8.558593.550781-2.097657 1.199218-4.285157 1.675781-6.320313.648437-2.765625 1.097656-5.34375 1.621093-7.988281.398438-2.019532.890626-4.125 1.226563-6.070313.421875-2.515625.683594-4.847656 1.007813-7.25.253906-1.902343.59375-3.902343.78125-5.738281.253906-2.429688.351562-4.691406.503906-7.007812.109375-1.628907.289062-3.347657.34375-4.925782.082031-2.34375.039062-4.511718.019531-6.730468-.011719-1.386719.054687-2.863282.007813-4.195313-.070313-2.117187-.261719-4.0625-.414063-6.050781-.097656-1.289063-.144531-2.65625-.269531-3.890625-.199219-1.890625-.496094-3.613281-.753906-5.386719-.183594-1.179688-.308594-2.449219-.515626-3.585938-.324218-1.78125-.71875-3.402343-1.089843-5.070312-.226563-.972656-.40625-2.027344-.640625-2.960938-.421875-1.675781-.910156-3.179687-1.386719-4.730468-.242187-.78125-.449219-1.636719-.703125-2.394532-.511719-1.542968-1.0625-2.917968-1.613281-4.324218-.242188-.621094-.46875-1.316406-.710938-1.898438-.539062-1.296875-1.089843-2.433594-1.636719-3.59375-.269531-.578125-.542968-1.226562-.8125-1.765625-.539062-1.082031-1.070312-2.019531-1.609374-2.984375-.28125-.492187-.558594-1.070312-.828126-1.527344-.40625-.695312-.785156-1.253906-1.179687-1.875-.390625-.613281-.785156-1.289062-1.15625-1.828124-.070313-.109376-.132813-.179688-.207031-.289063-2.125-3.109375-3.925782-5.140625-4.878906-6.132813-61.300782-82.007812-3.75-129.15625-1.289063-131.109374l1.125-1.046876c2.289063-2.519531 4.519531-4.734374 6.753906-6.734374.144531-.136719.289063-.269532.433594-.40625 2.269531-2.007813 4.53125-3.785157 6.808594-5.3125l2.054687-1.378907c4.851563-2.878906 9.265625-4.210937 13.003906-3.824219zm-33.34375-3.375c-.167968.140626-.339843.347657-.511718.503907-2.695313 2.414062-5.394532 5.007812-8.125 7.988281-4.007813 3.449219-23.453125 21.425781-30.476563 51.257812-.136719.585938-.246093 1.195313-.371093 1.792969-.253907 1.1875-.523438 2.367188-.738282 3.59375-.46875 2.683594-.792968 5.472657-1.035156 8.328125-.136719 1.558594-.234375 3.144532-.296875 4.757813-.109375 2.960937-.074219 6.015625.097656 9.152343.035157.574219.027344 1.125.070313 1.699219.28125 3.839844.832031 7.820313 1.605468 11.898438.089844.496093.152344.964843.25 1.46875.234376 1.171875.558594 2.378906.839844 3.578125.269532 1.140625.496094 2.277344.808594 3.441406 4.457031 16.625 13.25 35.042969 28.308594 55.074219l1 1.117187c.296875.289063 29.710937 30.089844 6.464844 108.367188 0 0 5.511718-50.429688-11.976563-79.339844-23.039063-38.0625-66.328125-44.25-68.957031-44.5625-.523438-.027344-52.597656-2.710938-81.851563-38.453125-17.394531-21.253906-23.355469-50.273437-17.726562-86.265625 5.996093-38.304688 5.910156-68.199219-.070313-89.625 68.875-8.738281 135.832032 15.703125 182.691406 64.226562zm-80.789062 291.15625c-4.089844-2.648437-7.636719-5.773437-10.65625-9.367187-3.457031-4.132813-6.023438-8.679687-7.90625-13.347656-8.152344-20.203125-3.46875-42.558594-3.414062-42.820313l.214843-1.882812v-.007813c.179688-21.839843-5.519531-38.117187-16.9375-48.375-.046875-.042969-.101562-.0625-.144531-.109375-2.019531-1.800781-4.179688-3.292968-6.386719-4.648437-.46875-.285157-.9375-.582031-1.414062-.855469-2.234375-1.25-4.53125-2.332031-6.898438-3.207031-.414062-.152344-.828125-.269531-1.246093-.414063-2.257813-.773437-4.566407-1.421875-6.90625-1.917968-.308594-.0625-.613282-.152344-.917969-.214844-2.539063-.503906-5.109375-.839844-7.691407-1.074219-.542968-.042969-1.074218-.085937-1.613281-.132813-2.46875-.179687-4.945312-.296874-7.402343-.296874-.070313 0-.144532.007812-.21875.007812-4.023438.011719-7.96875.246094-11.84375.558594-1.035157.082031-1.996094.164062-3.015626.261718-3.519531.332032-6.960937.703126-10.167968 1.070313-4.0625.46875-7.800782.910156-11.050782 1.109375-.675781.042969-1.34375.117188-2.019531.191406-.429687.042969-.863281.125-1.007812.152344-29.777344-6.195312-36.738281-30.308594-38.117188-37.0625-.195312-.964844-.277343-1.578125-.296875-1.730469l-.1875-1.082031c-1.296875-5.394531-2.773437-10.484375-4.351562-15.382812-.511719-1.601563-1.089844-3.078126-1.628906-4.628907-1.125-3.21875-2.269532-6.367187-3.503907-9.367187-.683593-1.675782-1.402343-3.261719-2.113281-4.875-1.199219-2.691406-2.433594-5.3125-3.703125-7.824219-.773437-1.523437-1.550781-3.019531-2.351563-4.476563-1.339843-2.449218-2.710937-4.792968-4.117187-7.0625-.78125-1.269531-1.546875-2.558593-2.347656-3.773437-1.601563-2.449219-3.253907-4.746094-4.917969-6.988281-.628906-.847656-1.242188-1.757813-1.875-2.578125-2.320312-2.988281-4.671875-5.820313-7.058594-8.441407-.316406-.339843-.625-.628906-.9375-.960937-2.082031-2.242187-4.160156-4.367187-6.25-6.347656-.800781-.757813-1.59375-1.441407-2.398437-2.164063-1.609375-1.457031-3.222657-2.871094-4.816407-4.1875-.882812-.722656-1.746093-1.398437-2.613281-2.070312-1.519531-1.179688-3.023437-2.308594-4.511719-3.371094-.847656-.601562-1.683593-1.195312-2.523437-1.757812-1.519531-1.027344-3.007813-1.980469-4.484375-2.882813-.730469-.449219-1.457031-.917969-2.167969-1.332031-1.703125-1-3.332031-1.898438-4.9375-2.738282-.414062-.214843-.847656-.46875-1.25-.675781-2.011719-1.027343-3.917969-1.9375-5.710937-2.738281-.351563-.152344-.640625-.269531-.980469-.414062-1.425781-.621094-2.777344-1.179688-4.039063-1.664063-.511718-.199219-.945312-.351563-1.429687-.53125-.539063-.199219-1.125-.433594-1.628906-.605469.972656-1.097656 1.800781-2.242187 2.800781-3.332031.269531-.296875.539062-.582031.820312-.882813 4.359376-4.691406 8.980469-9.3125 13.933594-13.851562.585938-.59375 1.234375-1.097656 1.828125-1.683594 18.167969-16.140625 38.792969-29.117187 61.082031-38.160156l5.664063-2.316406-.035156-6.117188c-.011719-.835937.027343-1.800781.0625-2.753906l.054687-1.066406c.296875-5.511719 1.289063-12.894532 3.277344-18.976563.066406-.179687.128906-.351562.191406-.53125.414063-1.207031.882813-2.339843 1.378906-3.402343.160157-.34375.320313-.667969.492188-.992188.480469-.910156.992188-1.71875 1.542969-2.457031.1875-.261719.386719-.53125.585937-.765625.691406-.808594 1.441406-1.496094 2.25-1.980469.054688-.039063.109375-.089844.164063-.117187.945312-.53125 1.960937-.828126 3.0625-.828126l1.789062-.179687c.011719 0 .054688-.011719.066407-.011719.144531-.027344.429687-.0625.738281-.089844.125-.007812.261719-.015624.414062-.027343.316407-.015625.730469-.007813 1.136719-.007813.265625 0 .5 0 .800781.015625.65625.046875 1.414063.136719 2.214844.289063.28125.054687.601563.152344.902344.226562.675781.160156 1.375.367188 2.105469.648438.261718.089844.523437.207031.785156.316406 4.367187 1.871094 9.476562 5.980469 13.492187 14.789062 6.1875 13.625 10.628907 39.933594 2.683594 90.722657-6.457031 41.257812.800781 75.0625 21.578125 100.453125 34.300781 41.898437 92.535156 44.925781 94.203125 44.960937.359375.042969 36.511719 5.207031 55.136719 35.972657 14.410156 23.8125 14.808594 56.722656 1.179687 97.902343-.503906-.019531-1-.019531-1.503906.007813-21.683594.789062-38.726563-2.8125-50.984375-10.738282zm-200.074219 46.0625c-65.945312-40.335937-128.199219-122.898437-105.160156-233.679687 1.898437-9.132813-2.144531-18.222656-10.078125-22.632813-8.34375-4.621093-18.683594-13.394531-20.546875-28.949218-.042969-.371094-.035156-.703125.011719-.960938.054687-.269531.117187-.585937.214844-.957031.082031-.316406.199218-.675781.324218-1.054687.019532-.0625.027344-.105469.054688-.160157 2.1875-6.289062 11.0625-20.085937 46.527344-20.085937 6.835937 0 14.65625.511718 23.609374 1.691406l4.070313.570312v-.011718c.378906.046875.78125.109375 1.167969.164062.957031.144532 1.847656.25 2.832031.414063 6.339844 1.484375 62.441406 16.816406 82.191406 98.128906.253907 1.945313.683594 4.125 1.316407 6.464844 4.429687 16.382812 18.742187 40.574219 51.222656 47.332031.152344.027344.269531.007812.421875.035156 2.515625.449219 4.71875.261719 6.332031.074219l1.089844-.117187c3.53125-.21875 7.601562-.683594 12.015625-1.199219 6.242187-.730469 13.339843-1.546875 20.4375-1.71875 11.824219-.28125 23.613281 1.277343 31.304687 8.1875 7.277344 6.539062 10.972656 17.96875 10.972656 33.980469-.894531 4.65625-3.910156 23.582031 1.539063 43.648437 2.476563 9.121094 6.699219 18.480469 13.664063 26.847656 3.953124 4.746094 8.519531 8.863281 13.679687 12.347657 15.492187 10.464843 36.414063 15.257812 62.535156 14.320312.457031-.007812 1.015625.117188 1.421875.316406l.289063.191406c.945312.675782 1.222656 1.628907 1.261719 2.160157.042968.585937-.046876 1.695312-1.082032 2.523437-71.707031 57.738282-171.265625 62.519532-253.640625 12.128906zm0 0"/></svg>