<svg height="511pt" viewBox="-13 0 511 511.99971" width="511pt" xmlns="http://www.w3.org/2000/svg"><path d="m481.28125 5.277344c-1.832031-4.375-6.875-6.453125-11.25-4.597656-4.375 1.839843-6.4375 6.875-4.597656 11.25 4.105468 9.796874 4.226562 17.722656.351562 23.550781-5.128906 7.726562-17.738281 12.617187-33.167968 13.082031-30.421876-19.613281-62.953126-18.214844-82.574219 3.214844-4.125-1.375-8.507813-1.773438-12.894531-1.109375-7.226563 1.097656-13.472657 4.941406-17.617188 10.835937-6.78125 9.667969-5.921875 22.40625 1.074219 31.578125-12.058594 9.652344-24.289063 21.203125-36.210938 34.386719-.675781.625-68.574219 63.246094-162.789062 80.429688-11.46875 2.078124-20.464844 4.648437-28.335938 8.070312-3.9375 1.71875-12.730469 6.28125-12.917969 6.382812-62.5625 34.621094-93.140624 106.945313-74.371093 175.871094 16.769531 61.574219 68.628906 105.914063 132.117187 112.976563 4.835938.542969 9.738282.800781 14.679688.800781 22.15625 0 45.136718-5.355469 67.277344-15.753906 60.164062-28.25 167.820312-103.4375 213.320312-289.726563 1.125-2.871093 5.851562-15.28125 10.039062-31.753906 8.136719-.164063 16.070313-4.09375 21.234376-11.449219 6.859374-9.789062 6.007812-22.757812-1.210938-31.964844 6.988281-13.003906 8.277344-27.148437 3.707031-41.3125-3.070312-9.523437-8.675781-18.53125-16.417969-26.667968 13.066407-3.242188 23.515626-9.578125 29.367188-18.375 5.003906-7.515625 9.257812-20.5 1.1875-39.71875zm-64.082031 195.398437-.378907 1.195313c-43.722656 179.746094-146.617187 251.839844-204.0625 278.808594-24.210937 11.371093-49.359374 16.046874-72.753906 13.433593-56.421875-6.265625-102.523437-45.671875-117.425781-100.402343-16.691406-61.261719 10.484375-125.542969 65.902344-156.207032.035156-.019531 8.054687-4.195312 11.652343-5.769531 6.714844-2.921875 14.285157-5.0625 24.546876-6.933594 99.140624-18.078125 168.542968-82.0625 171.945312-85.285156 12.996094-14.328125 25.90625-26.421875 38.417969-36.011719.042969.015625.078125.015625.109375.035156 4.1875 1.582032 8.414062 2.363282 12.386718 2.089844.042969.152344.136719.300782.179688.453125.078125.242188.15625.488281.242188.730469.136718.386719.359374.757812.515624 1.144531.421876 1.039063.84375 2.0625 1.390626 3.074219.285156.523438.636718 1.015625.957031 1.53125.582031.941406 1.160156 1.878906 1.863281 2.792969.488281.636719 1.066406 1.210937 1.605469 1.820312.648437.722657 1.238281 1.453125 1.953125 2.140625 1.332031 1.273438 2.765625 2.46875 4.3125 3.550782 1.523437 1.066406 3.105468 1.996093 4.71875 2.808593 1.1875.601563 2.382812 1.050781 3.574218 1.496094.40625.148437.792969.34375 1.195313.472656 1.367187.457031 2.71875.765625 4.082031 1.023438.292969.050781.585938.136719.878906.191406 1.21875.195313 2.414063.273437 3.609376.308594.359374.015625.730468.09375 1.089843.09375.378907.007812.722657-.019531 1.074219-.027344.148438-.007813.300781.027344.449219.015625.082031.292969.1875.59375.289062.886719.035157.09375.0625.199219.097657.292969.539062 1.546874 1.226562 3.058593 2.050781 4.527343 1.632812 2.933594 3.800781 5.691407 6.378906 8.125 1.289063 1.21875 2.679687 2.355469 4.167969 3.394531 5.878906 4.121094 12.667968 6.394532 19.148437 6.394532.527344.023437 1.007813-.027344 1.496094-.042969.027344.078125.070313.152344.09375.230469.105469.328125.207031.652344.320313.980468.160156.457032.421874.894532.601562 1.339844.359375.878906.71875 1.753906 1.175781 2.621094.335938.628906.738281 1.222656 1.117188 1.832031.5.796875.980469 1.597657 1.5625 2.371094.515625.6875 1.109375 1.324219 1.679687 1.976563.558594.636718 1.082032 1.289062 1.699219 1.898437.84375.835937 1.777344 1.589844 2.707031 2.347656.414063.335938.765625.714844 1.195313 1.03125-4.441407 17.828125-9.761719 31.074219-9.8125 31.21875zm28.285156-72.890625c-2.726563 3.886719-1.789063 9.242188 2.09375 11.972656 4.660156 3.269532 6 9.410157 3.007813 13.691407-3.082032 4.386719-8.386719 5.449219-12.726563 2.625l-.171875-.121094c-1.261719-.894531-2.320312-1.945313-3.285156-3.027344-.160156-.1875-.410156-.359375-.566406-.539062-.96875-1.195313-1.675782-2.476563-2.167969-3.75-.230469-.59375-.351563-1.132813-.4375-1.65625-.050781-.300781-.160157-.636719-.179688-.910157-.027343-.722656.09375-1.335937.378907-1.78125.015624-.035156.007812-.09375.035156-.121093 1.058594-1.503907 1.5625-3.222657 1.5625-4.921875 0-2.707032-1.269532-5.375-3.660156-7.039063-3.882813-2.734375-9.246094-1.789062-11.964844 2.097657h-.007813c0 .007812 0 .007812-.007812.007812-.183594.257812-.574219.410156-.902344.609375-.214844.121094-.328125.300781-.585937.394531-.671876.242188-1.503907.371094-2.433594.378906-3.144532.0625-6.359375-1.167968-9.359375-3.273437s-5.277344-4.90625-6.253907-7.691406c-.308593-.878907-.464843-1.703125-.476562-2.414063-.007812-.714844.140625-1.316406.441406-1.738281v-.007813c1.054688-1.503906 1.5625-3.222656 1.5625-4.925781 0-2.707031-1.273437-5.371093-3.660156-7.039062-3.882812-2.730469-9.246094-1.785157-11.964844 2.097656h-.007812c-.316406.464844-.9375.808594-1.703125 1.046875-.238281.078125-.554688.078125-.832031.128906-.574219.105469-1.203126.164063-1.90625.140625-1.074219-.042969-2.191407-.285156-3.335938-.621093-.34375-.101563-.644531-.101563-1.007812-.234376-1.53125-.558593-3.066407-1.332031-4.511719-2.34375-1.367188-.964843-2.476563-2.019531-3.414063-3.085937-.101562-.121094-.230468-.234375-.332031-.351563-.824219-.992187-1.429687-1.976562-1.898437-2.933593-.121094-.238281-.234376-.472657-.335938-.710938-.285156-.679687-.429688-1.300781-.53125-1.898437-.0625-.3125-.171875-.648438-.183594-.929688-.023437-.792968.078125-1.488281.398438-1.941406 1.054687-1.507812 1.554687-3.214844 1.554687-4.917969 0-2.707031-1.273437-5.371093-3.65625-7.039062-3.882812-2.742188-9.238281-1.777344-11.972656 2.097656l-.007813-.007813v.007813c-.035156.042969-.128906.0625-.164062.101563-.324219.386718-.832031.699218-1.492188.921874-.535156.160157-1.238281.207032-1.953124.230469-.265626.019531-.488282.070313-.773438.0625-.824219-.035156-1.769531-.222656-2.742188-.464843-.273437-.066407-.539062-.101563-.824218-.1875-.960938-.300782-1.976563-.773438-3.007813-1.308594-.78125-.402344-1.546875-.6875-2.328125-1.234375-.0625-.054688-.128906-.097657-.1875-.136719-4.652344-3.269531-5.992187-9.40625-2.992187-13.683594 1.417969-2.003906 3.585937-3.335937 6.128906-3.722656 2.664063-.414062 5.429687.265625 7.742187 1.890625 1.867188 1.316406 4.203126 1.832031 6.421876 1.433594 2.242187-.394531 4.246093-1.65625 5.550781-3.53125 17.140625-24.417969 46.679687-16.648438 66.757812-2.554688 12.289063 8.628907 21.019531 19.445313 24.570313 30.4375 3.664062 11.269531 1.882812 22.195313-5.292969 32.421875zm0 0"/><path d="m77.992188 318.390625c1.894531-4.351563-.101563-9.421875-4.449219-11.304687-4.347657-1.898438-9.421875.097656-11.3125 4.460937-16.707031 38.417969-14.359375 83.171875 6.109375 116.785156 1.617187 2.65625 4.453125 4.117188 7.351562 4.117188 1.519532 0 3.066406-.402344 4.46875-1.253907 4.046875-2.46875 5.335938-7.753906 2.859375-11.8125-17.617187-28.917968-19.542969-67.613281-5.027343-100.992187zm0 0"/><path d="m119.085938 254.136719c-14.558594 5.910156-27.8125 15.511719-38.339844 27.734375-3.105469 3.589844-2.699219 9.015625.890625 12.117187 1.625 1.394531 3.621093 2.082031 5.605469 2.082031 2.414062 0 4.8125-1.015624 6.515624-2.992187 8.765626-10.167969 19.757813-18.117187 31.808594-23.035156 4.398438-1.785157 6.503906-6.796875 4.714844-11.199219-1.792969-4.390625-6.804688-6.53125-11.195312-4.707031zm0 0"/></svg>