<svg height="512pt" viewBox="-2 0 512 512.00419" width="512pt" xmlns="http://www.w3.org/2000/svg"><path d="m506.742188 157.871094c.230468-1.835938.460937-3.648438.632812-5.492188.210938-2.335937.34375-4.574218.453125-6.789062.070313-1.441406.128906-2.871094.152344-4.3125.03125-2.246094 0-4.410156-.082031-6.523438-.050782-1.472656-.121094-2.921875-.230469-4.375-.152344-1.914062-.351563-3.746094-.59375-5.550781-.210938-1.632813-.445313-3.261719-.734375-4.863281-.273438-1.449219-.605469-2.820313-.9375-4.191406-.421875-1.800782-.855469-3.605469-1.398438-5.359376-.234375-.714843-.515625-1.359374-.757812-2.054687-.703125-2.023437-1.339844-4.066406-2.222656-6.003906-.363282-.785157-.898438-1.398438-1.289063-2.164063-1.261719-2.46875-2.621094-4.746094-4.082031-6.859375-1.007813-1.472656-2.074219-2.890625-3.203125-4.253906-1.703125-2.03125-3.476563-3.867187-5.320313-5.550781-1.207031-1.097656-2.445312-2.175782-3.753906-3.171875-2.742188-2.074219-5.523438-3.898438-8.320312-5.40625-.6875-.363281-1.402344-.6875-2.109376-1.027344-4.078124-1.996094-8.117187-3.515625-11.832031-4.5625-.835937-.375-2.265625-.980469-4.152343-1.714844 10.1875-13.769531 14.609374-28.382812 11.785156-40.574219-1.933594-8.371093-8.097656-19.761718-26.417969-26.460937-5.230469-1.894531-11.023437.773437-12.925781 6.003906-1.902344 5.238281.777344 11.019531 6.003906 12.921875 7.917969 2.890625 12.53125 6.949219 13.722656 12.078125 1.769532 7.675781-3.355468 19.238281-13.054687 29.792969-17.789063-3.886719-42.066407-5.476562-64.355469 5.351562-.042969.019532-.09375.039063-.140625.058594-.019531.011719-.050781.03125-.074219.042969-.964844.472656-1.953125.867187-2.910156 1.390625-1.417969.777344-2.710938 1.753906-4.070312 2.621094-.816407.511718-1.640626 1.015625-2.4375 1.5625-2.015626 1.378906-3.957032 2.878906-5.832032 4.460937-.726562.601563-1.441406 1.226563-2.144531 1.871094-1.863281 1.695313-3.667969 3.476563-5.390625 5.371094-.574219.632812-1.128906 1.300781-1.691406 1.964843-1.753906 2.054688-3.445313 4.171876-5.035156 6.445313-.382813.554687-.746094 1.148437-1.117188 1.710937-1.671875 2.511719-3.285156 5.078126-4.777344 7.839844-.109375.199219-.199218.421875-.300781.625-5.460937 10.304688-9.679687 22.277344-12.558594 36.027344l-2.390625 10.589844s-2.667968 12.378906-3.945312 17.980468c-34.113282 150.246094-158.855469 230.023438-306.191406 311.625-8.300782 4.582032-12.710938 15.238282-9.820313 23.730469 1.964844 5.78125 7 9.328125 12.890625 9.328125.746094 0 1.511719-.058594 2.289062-.171875 12.5-1.882812 27.851563-3.082031 45.628907-4.460937 110.519531-8.621094 316.25-24.667969 422.308593-273.238282.867188-1.804687 12.003907-25.503906 18.816407-54.542968l.089843-.082032.703126-3.171874c.042968-.191407.0625-.351563.101562-.542969.847656-3.917969 1.601562-7.917969 2.246094-11.96875.324218-2.058594.535156-3.980469.777344-5.953125zm-27.902344 15.085937c-1.945313-31.40625-23.582032-50.421875-24.660156-51.359375l-19.296876-16.601562 2.71875 25.316406c1.511719 14.152344-8.148437 21.574219-17.195312 25.394531 1.46875-25.789062-15.171875-42.8125-16.027344-43.667969l-8.5-8.511718-6.878906 9.871094c-3.203125 4.59375-15.835938 10.15625-41.601562 13.359374.109374-.34375.230468-.675781.351562-1.007812 2.46875-7 5.410156-13.257812 8.851562-18.71875.164063-.25.3125-.5.464844-.753906 1.160156-1.785156 2.367188-3.484375 3.636719-5.109375.171875-.21875.351563-.421875.523437-.632813 3.820313-4.753906 8.128907-8.722656 12.894532-11.917968.496094-.332032.988281-.664063 1.5-.976563 1.460937-.917969 2.964844-1.773437 4.503906-2.546875.394531-.191406.785156-.355469 1.191406-.535156 5.347656-2.507813 10.917969-4.078125 16.5-4.953125.582032-.09375 1.167969-.203125 1.742188-.273438 1.640625-.214843 3.28125-.375 4.914062-.472656.664063-.042969 1.320313-.074219 1.984375-.09375 1.59375-.058594 3.183594-.109375 4.746094-.089844 1.339844.019531 2.640625.109375 3.949219.183594 2.0625.121094 4.085937.292969 6.070312.53125 1.070313.132813 2.148438.261719 3.183594.414063 1.210938.183593 2.398438.375 3.554688.585937 1.179687.21875 2.308593.453125 3.4375.695313 1.480468.3125 2.898437.644531 4.269531.988281 1.21875.3125 2.425781.613281 3.546875.933593.816406.234376 1.578125.464844 2.335937.6875 1.039063.3125 2.035157.625 2.960938.933594.515625.171875 1.070312.34375 1.542969.515625 1.308593.453125 2.507812.886719 3.492187 1.269531.261719.097657.453125.179688.695313.273438.828124.320312 1.59375.632812 2.097656.847656.050781.019532.121094.046875.171875.070313.53125.230469.894531.390625.933593.402343l1.644532.605469c3.574218.964844 6.859375 2.234375 9.859375 3.785157.203125.101562.351562.242187.554687.34375 2.789063 1.5 5.359375 3.222656 7.636719 5.238281.121094.109375.21875.242187.351563.351562 2.195312 1.992188 4.140624 4.25 5.832031 6.738281.292969.433594.535156.917969.816406 1.363282 1.402344 2.234375 2.628906 4.652344 3.660156 7.261718.261719.683594.511719 1.390626.753907 2.09375.886718 2.589844 1.582031 5.351563 2.125 8.269532.132812.695312.3125 1.371094.425781 2.078125.554687 3.597656.863281 7.421875.914062 11.492187.011719.574219-.019531 1.167969-.019531 1.753906-.011719 4.058594-.210938 8.308594-.703125 12.832032-.019531.183594-.03125.363281-.050781.535156-.5625 5.035156-1.410156 10.351562-2.558594 15.953125-2.03125 1.617187-3.984375 3.027344-5.847656 4.253906zm-418.710938 314.328125c-9.730468.753906-18.757812 1.46875-27.066406 2.265625 146.136719-81.640625 268.535156-163.816406 303.496094-317.800781 1.242187-5.449219 2.539062-10.253906 3.871094-14.765625l.3125-1.480469c.371093-2.761718.882812-5.328125 1.359374-7.949218 29.3125-2.890626 44.976563-8.441407 53.4375-13.527344 3.753907 7.011718 7.269532 18.332031 2.304688 32.074218l-5.519531 15.277344 16.148437-1.851562c13.4375-1.53125 34.960938-8.945313 44.558594-26.289063 4.292969 8.652344 7.464844 20.417969 4.828125 34.589844l-3.03125 16.289063 15.84375-4.804688c.242187-.070312 2.660156-.835938 6.324219-2.457031-5.539063 16.609375-11.121094 28.515625-11.332032 28.96875-101.464843 237.730469-291.8125 252.585937-405.535156 261.460937zm0 0"/><path d="m407.148438 214.128906c-5.5-.929687-10.617188 3.011719-11.410157 8.519532-.214843 1.492187-24.285156 150.730468-242.425781 221.011718-5.296875 1.710938-8.199219 7.382813-6.5 12.679688 1.371094 4.269531 5.328125 6.980468 9.589844 6.980468 1.027344 0 2.066406-.160156 3.09375-.480468 229.976562-74.109375 255.21875-230.671875 256.183594-237.308594.785156-5.511719-3.019532-10.609375-8.53125-11.402344zm0 0"/></svg>