<svg height="512pt" viewBox="0 -9 512.00167 512" width="512pt" xmlns="http://www.w3.org/2000/svg"><path d="m387.273438 16.777344c-85.890626-22.390625-176.65625-22.417969-263.242188.214844-74.667969 25.796874-116.363281 67.972656-123.9453125 125.359374l-.0859375 1.234376c0 70.085937 57.019531 127.105468 127.113281 127.105468l1.613281-.140625c26.152344-4.546875 52.429688-7.519531 78.730469-9.246093-.5625 2.378906-.933593 4.8125-.828125 7.328124 1.179688 31.253907.414063 107.78125-32.085937 142.929688-.839844.867188-20.519531 21.316406-17.257813 45.1875 1.894532 13.898438 10.800782 25.546875 26.457032 34.632812 3.894531 2.253907 8.488281 3.449219 13.296874 3.449219h121.679688c4.792969 0 9.386719-1.195312 13.300781-3.449219 15.644531-9.085937 24.546875-20.730468 26.441407-34.625 3.171874-23.199218-15.316407-43.164062-17.136719-45.070312-32.621094-35.378906-33.386719-111.816406-32.207031-143.042969.09375-2.433593-.246094-4.792969-.765626-7.09375 25.042969 1.773438 50.042969 4.667969 74.941407 9l1.613281.140625c70.09375 0 127.113281-57.023437 127.09375-127.699218-4.027344-63.300782-44.789062-104.570313-124.726562-126.214844zm-99.273438 245.191406c1.539062 1.601562 2.339844 3.714844 2.253906 5.949219-1.582031 41.746093 1.152344 117.589843 37.265625 156.644531l.1875.199219c.140625.140625 14.050781 14.84375 12.050781 29.453125-1.0625 7.828125-6.863281 14.84375-17.210937 20.851562-1.015625.59375-2.386719.917969-3.835937.917969h-121.683594c-1.460938 0-2.820313-.324219-3.828125-.917969-10.335938-5.996094-16.128907-12.984375-17.222657-20.785156-2.054687-14.703125 11.929688-29.394531 12.234376-29.707031 36.109374-39.066407 38.847656-114.910157 37.261718-156.644531-.085937-2.234376.71875-4.359376 2.265625-5.960938.808594-.839844 1.773438-1.453125 2.828125-1.867188 18.277344-.628906 36.574219-.640624 54.851563.085938.949219.414062 1.835937 1.007812 2.582031 1.78125zm97.679688-10.140625c-32.339844-5.582031-64.859376-9.070313-97.425782-10.457031-1.980468-.453125-4.015625-.746094-6.109375-.746094h-48.5625c-1.988281 0-3.933593.246094-5.828125.660156-33.894531 1.261719-67.761718 4.734375-101.433594 10.542969-59.125-.433594-107.117187-48.488281-107.457031-107.628906 6.875-50.101563 43.296875-85.878907 110.628907-109.167969 82.765624-21.597656 170.277343-21.585938 252.914062-.027344 72.082031 19.511719 107.269531 54.203125 110.714844 108.582032.007812 59.417968-48.121094 107.808593-107.441406 108.242187zm0 0"/><path d="m240.691406 50.917969c-21.578125-.234375-42.390625 1.09375-61.980468 3.90625-5.15625.742187-8.742188 5.523437-8.007813 10.671875.679687 4.707031 4.714844 8.09375 9.328125 8.09375.445312 0 .898438-.027344 1.351562-.09375 18.652344-2.675782 38.488282-3.949219 59.132813-3.722656 5.007813-.125 9.457031-4.132813 9.523437-9.335938.058594-5.199219-4.128906-9.464844-9.347656-9.519531zm0 0"/><path d="m143.410156 62.113281c-58.339844 16.011719-92.011718 54-90.039062 101.621094.207031 5.070313 4.382812 9.042969 9.410156 9.042969.144531 0 .265625 0 .398438-.011719 5.203124-.207031 9.242187-4.601563 9.035156-9.808594-2.273438-55.105469 52.519531-76.164062 76.183594-82.671875 5.015624-1.378906 7.980468-6.566406 6.59375-11.589844-1.367188-5.027343-6.582032-7.988281-11.582032-6.582031zm0 0"/></svg>