<svg height="512pt" viewBox="-11 0 512 512.00584" width="512pt" xmlns="http://www.w3.org/2000/svg"><path d="m51.082031 123.238281c15.792969 21.097657 45.8125 25.390625 66.910157 9.613281l1.359374-1.222656c2.910157-3.089844 7.757813-7.15625 11.824219-10.34375 7.847657 11.386719 12.140625 21.96875 11.449219 28.585938-.289062 2.15625-1.328125 13.308594 6.320312 21.054687 2.910157 2.949219 7.925782 6.203125 15.828126 6.203125 1.160156 0 2.402343-.078125 3.6875-.226562 2.738281-.308594 5.40625-1.371094 7.773437-3.121094l30.847656-23.09375c2.265625-1.734375 4.015625-3.976562 5.066407-6.460938 4.007812-9.398437 2.09375-16.316406-.222657-20.46875-5.277343-9.515624-16.273437-11.671874-18.132812-11.949218-6.777344-1.242188-15.722657-8.308594-24.464844-19.058594 4.007813-2.835938 8.890625-6.035156 12.269531-7.753906l1.550782-.96875c10.1875-7.625 16.796874-18.800782 18.621093-31.464844 1.816407-12.660156-1.378906-25.246094-9.433593-35.957031-15.164063-17.800781-36.707032-21.296875-64.027344-10.460938l-.097656.042969c-27.183594 11.089844-51.199219 29.074219-69.960938 52.679688-15.742188 23.242187-18.417969 44.507812-7.945312 63.183593zm24.292969-51.785156c15.996094-20.085937 37.03125-35.839844 60.847656-45.558594 23.933594-9.5 33.929688-2.570312 39.558594 3.992188 4.226562 5.640625 5.992188 12.621093 4.980469 19.664062-.988281 6.828125-4.449219 12.851563-9.785157 17.058594-4.726562 2.601563-24.652343 14-26.574218 21.714844l-1.136719 4.703125 2.71875 3.941406c8.15625 11.824219 24.71875 32.199219 44.125 35.765625 1.265625.226563 3.230469 1.019531 3.113281.9375.011719.011719.019532.308594-.167968.984375l-28.375 21.238281c-.328126.011719-.542969.011719-.617188.042969-.296875-.699219-.476562-2.3125-.339844-3.589844 2.007813-19.460937-12.863281-41.089844-21.882812-52.210937l-3.09375-3.792969-4.820313-.191406c-.078125 0-.148437 0-.226562 0-7.976563 0-24.984375 16.15625-28.964844 20.078125-11.507813 8.210937-27.503906 5.882812-36.246094-5.195313-2.566406-4.714844-8.242187-17.1875 6.886719-39.582031zm0 0"/><path d="m249.046875 102.152344 1.71875.628906c4.824219 1.285156 11.804687 4.078125 17.136719 6.414062-7.097656 14.277344-15.277344 24.21875-22.457032 27.207032-1.316406.507812-12.9375 5.226562-16.339843 16.390625-1.453125 4.746093-1.890625 12.246093 4.25 20.96875 1.59375 2.324219 3.867187 4.21875 6.652343 5.535156l38.101563 17.570313c2.210937 1.007812 4.578125 1.527343 6.945313 1.527343.480468 0 .96875-.019531 1.457031-.0625 10.695312-1.011719 16.125-6.214843 18.800781-10.402343 6.269531-9.84375 2.316406-21.742188 1.945312-22.785157-2.433593-7.511719-.160156-20.449219 5.992188-34.988281 4.925781 2.410156 11.035156 5.640625 14.835938 8.261719l1.585937.914062c12.386719 5.695313 26.277344 6.214844 39.113281 1.496094 12.851563-4.734375 23.070313-14.167969 29.03125-27.160156 9.039063-23.347657 1.328125-45.484375-22.925781-65.765625l-.082031-.0625c-24.613282-20.183594-54.1875-33.835938-86.332032-39.539063-30.074218-2.984375-51.5625 5.332031-63.820312 24.738281l-.671875 1.222657c-5.703125 12.378906-6.234375 26.273437-1.496094 39.113281 4.761719 12.855469 14.191407 23.074219 26.558594 28.777344zm-6.023437-58.347656c7.785156-11.792969 21.988281-16.5 42.554687-14.46875 27.734375 4.960937 53.929687 17.027343 75.738281 34.90625 22 18.40625 20.480469 31.992187 16.964844 41.152343-3.324219 7.222657-9.304688 12.722657-16.828125 15.5-7.320313 2.683594-15.222656 2.472657-22.265625-.585937-4.832031-3.070313-25.898438-16.191406-33.855469-14.128906l-4.726562 1.222656-2.1875 4.289062c-7.035157 13.84375-17.859375 40.039063-11.28125 60.285156.347656 1 .6875 3.71875.328125 4.429688-.011719.011719-.4375.339844-1.6875.585938l-35.671875-16.441407c-.59375-1.042969-.671875-1.554687-.683594-1.554687.300781-.730469 2.199219-2.15625 3.878906-2.855469 19.398438-8.03125 32.285157-33.28125 38.253907-47.65625l1.816406-4.523437-2.148438-4.304688c-3.613281-7.285156-28.210937-15.304688-33.855468-17.058594-6.9375-3.367187-12.226563-9.230468-14.925782-16.5625-2.691406-7.316406-2.480468-15.179687.582032-22.230468zm0 0"/><path d="m489.914062 195.539062c-5.203124-22.796874-22.679687-35.886718-51.945312-38.902343l-.105469-.011719c-29.285156-2.707031-58.839843 2.113281-86.382812 14.363281-24.71875 13.320313-36.921875 30.933594-36.277344 52.347657l.136719 1.390624c4.25 26.015626 28.9375 43.765626 54.878906 39.472657l1.773438-.453125c4.003906-1.394532 10.1875-2.753906 15.253906-3.699219 1.699218 13.734375.605468 25.09375-3.058594 30.648437-1.253906 1.773438-7.320312 11.195313-4.132812 21.59375 1.390624 4.546876 5.058593 10.71875 14.628906 14.363282 1.761718.667968 3.652344 1.007812 5.574218 1.007812.882813 0 1.773438-.074218 2.667969-.210937l37.976563-6.203125c2.835937-.480469 5.449218-1.65625 7.53125-3.390625 7.894531-6.46875 9.402344-13.5 9.273437-18.25-.289062-10.875-9.039062-17.867188-10.546875-18.972657-5.4375-4.238281-10.125-14.679687-12.886718-28.222656 4.75-.660156 10.335937-1.289062 14.480468-1.191406l.914063.011719.902343-.148438c12.566407-2.050781 23.589844-8.902343 31.058594-19.28125 7.492188-10.40625 10.476563-23.046875 8.285156-36.261719zm-25.523437 23.835938c-4.027344 5.597656-9.902344 9.347656-16.59375 10.601562-5.449219.148438-28.339844 1.105469-33.535156 6.90625l-3.238281 3.664063.59375 4.792969c1.761718 14.257812 7.03125 39.984375 22.710937 52.210937.519531.371094 1.984375 1.976563 2.207031 2.175781 0 0-.125.277344-.605468.789063l-34.980469 5.703125c-.296875-.148438-.488281-.234375-.574219-.246094.066406-.753906.660156-2.273437 1.351562-3.324218 10.789063-16.304688 7.613282-42.375 4.765626-56.40625l-.984376-4.800782-4.207031-2.410156c-6.855469-3.917969-29.765625 2.632812-35.164062 4.277344-6.777344.914062-13.5-.753906-19.121094-4.777344-5.597656-4.027344-9.359375-9.910156-10.609375-16.59375-.117188-5.375.625-19.054688 24.398438-31.910156 23.464843-10.398438 49.363281-14.617188 75.007812-12.257813 25.632812 2.644531 31.292969 13.414063 33.238281 21.851563 1.160157 6.964844-.496093 13.976562-4.660156 19.753906zm0 0"/><path d="m173.785156 444.152344c-6.863281-.617188-16.445312-6.828125-26.132812-16.710938 3.738281-3.1875 8.296875-6.839844 11.515625-8.859375l1.453125-1.101562c19.546875-17.675781 21.066406-47.972657 2.933594-67.988281-16.765626-16.335938-38.527344-17.855469-64.746094-4.492188l-.085938.042969c-26.015625 13.535156-48.28125 33.664062-64.796875 58.90625-13.546875 24.601562-14.246093 46.015625-2.074219 63.660156l.863282 1.097656c8.539062 9.441407 20.265625 14.988281 33.046875 15.632813 12.851562.605468 25.015625-3.714844 34.460937-12.234375l1.242188-1.347657c2.601562-3.324218 7.054687-7.828124 10.816406-11.378906 8.878906 10.632813 14.105469 20.769532 14.042969 27.40625-.085938 2.179688-.085938 13.386719 8.242187 20.398438 2.8125 2.367187 7.296875 4.820312 13.820313 4.820312 1.910156 0 3.992187-.222656 6.253906-.6875 2.679687-.585937 5.207031-1.882812 7.351563-3.804687l28.53125-25.808594c2.101562-1.921875 3.664062-4.3125 4.515624-6.945313 3.113282-9.722656.574219-16.433593-2.101562-20.355468-6.132812-9.015625-17.285156-10.144532-19.152344-10.25zm1.371094 22.796875-26.304688 23.773437c-.328124.042969-.542968.0625-.617187.09375-.359375-.667968-.679687-2.25-.667969-3.523437.222656-19.535157-16.59375-39.71875-26.652344-50.035157l-3.441406-3.453124-4.800781.265624c-7.863281.445313-23.542969 18.378907-27.175781 22.679688-5.160156 4.453125-11.800782 6.820312-18.664063 6.351562-6.882812-.339843-13.222656-3.238281-17.910156-8.179687-3.003906-4.449219-9.824219-16.335937 3.1875-40.035156 14.097656-21.492188 33.589844-39.125 56.386719-50.988281 22.933594-11.707032 33.546875-5.703126 39.75.308593 4.726562 5.226563 7.140625 12.023438 6.789062 19.132813-.351562 6.882812-3.25 13.226562-8.191406 17.921875-4.503906 3.078125-23.242188 16.335937-24.429688 24.027343l-.722656 4.824219 3.09375 3.6875c9.21875 11.015625 27.605469 29.761719 47.386719 31.535157.648437.042968 2.75.585937 3.046875.648437.007812-.011719.0625.292969-.0625.964844zm0 0"/><path d="m335.386719 332.242188.753906-1.167969c10.476563-18.675781 7.796875-39.941407-8.433594-63.851563-18.300781-22.945312-42.320312-40.941406-69.472656-52.011718l-.09375-.042969c-27.3125-10.84375-48.867187-7.328125-64.460937 10.984375-7.625 10.199218-10.824219 22.785156-9.007813 35.449218 1.828125 12.652344 8.4375 23.835938 18.621094 31.464844l1.554687.964844c3.554688 1.816406 8.367188 4.980469 12.277344 7.746094-8.710938 10.738281-17.644531 17.8125-24.175781 19.011718-2.148438.328126-13.140625 2.476563-18.433594 12.003907-2.304687 4.152343-4.207031 11.070312-.210937 20.480469 1.09375 2.539062 2.867187 4.792968 5.140624 6.5l30.816407 23.074218c2.273437 1.679688 4.910156 2.75 7.667969 3.078125 1.296874.160157 2.527343.226563 3.707031.226563 7.957031 0 12.96875-3.261719 15.871093-6.207032 7.648438-7.753906 6.605469-18.894531 6.363282-20.753906-.710938-6.863281 3.570312-17.488281 11.417968-28.90625 4.058594 3.1875 8.902344 7.265625 11.816407 10.34375l1.359375 1.222656c10.195312 7.628907 22.792968 10.824219 35.445312 9.007813 12.664063-1.824219 23.851563-8.429687 31.476563-18.617187zm-17.410157-12.203126c-4.207031 5.339844-10.261718 8.816407-17.082031 9.804688-6.871093.921875-13.617187-.671875-19.164062-4.613281-4.015625-3.941407-21.339844-20.160157-29.148438-20.074219l-4.894531.199219-3.050781 3.761719c-9.039063 11.175781-23.898438 32.8125-21.859375 52.550781.085937.648437-.042969 2.804687-.042969 3.113281-.011719.011719-.289063.117188-.980469.128906l-28.382812-21.257812c-.105469-.316406-.160156-.507813-.210938-.585938.582032-.476562 2.082032-1.101562 3.335938-1.335937 19.246094-3.550781 35.808594-23.914063 43.957031-35.703125l2.761719-4.039063-1.167969-4.683593c-1.914063-7.554688-21.789063-19.003907-26.546875-21.660157-5.339844-4.207031-8.816406-10.25-9.804688-17.070312-1.007812-7.042969.753907-14.035157 4.570313-19.164063 6.042969-7.085937 16.101563-13.992187 39.980469-4.515625 23.773437 9.707031 44.816406 25.460938 60.359375 44.902344 15.601562 23.042969 9.941406 35.535156 7.371093 40.242187zm0 0"/><path d="m57.082031 284.101562 1.59375-.902343c1.996094-1.394531 5.089844-3.101563 8.019531-4.621094 3.496094 9.007813 4.75 16.699219 3.347657 21.023437-.648438 1.816407-3.601563 11.28125 1.632812 19.492188 2.316407 3.621094 6.960938 8.125 15.980469 8.964844.464844.054687.933594.078125 1.402344.078125 2.164062 0 4.332031-.492188 6.285156-1.40625l28.289062-13.042969c2.421876-1.128906 4.472657-2.847656 5.929688-4.929688 5.226562-7.425781 4.832031-13.882812 3.578125-17.984374-2.855469-9.324219-11.96875-13.222657-13.488281-13.796876-4.335938-1.796874-9.507813-7.894531-14.097656-16.359374 3.292968-1.371094 6.914062-2.75 9.582031-3.453126l1.730469-.625c20.363281-9.402343 29.289062-33.613281 19.90625-53.976562l-.667969-1.230469c-9.6875-15.328125-26.441407-21.957031-50.722657-19.492187-23.699218 4.238281-46.058593 14.550781-64.660156 29.804687l-.085937.078125c-18.972657 15.867188-24.972657 33.320313-17.539063 52.476563 9.410156 20.347656 33.640625 29.289062 53.984375 19.902343zm53.636719 12.152344-20.289062 9.359375c3.597656-12.261719-.40625-26.855469-5.546876-38.734375 5.660157 11.625 14.136719 24.09375 25.835938 29.375zm-88.0625-40.335937c-2.625-6.796875-3.304688-15.414063 11.578125-27.875 15.792969-12.949219 34.765625-21.691407 54.078125-25.175781 20.820312-2.09375 27.183594 5.746093 29.4375 9.179687 3.960938 9.398437-.066406 20.308594-9.15625 24.910156-4.769531 1.433594-23.316406 7.371094-26.609375 14.011719l-2.148437 4.386719-.445313.222656-4.695313-1.210937c-7.171874-1.890626-23.15625 8.125-27.152343 10.742187-9.59375 4-20.746094-.289063-24.886719-9.191406zm0 0"/><path d="m426.5625 374.457031c-19.515625-14.105469-42.457031-23.039062-66.351562-25.8125l-.09375-.011719c-24.59375-2.636718-41.324219 5.160157-49.9375 23.816407-3.929688 10.089843-3.6875 21.140625.691406 31.113281 4.386718 9.964844 12.351562 17.621094 22.457031 21.542969l1.75.519531c2.390625.480469 5.746094 1.507812 8.882813 2.5625-4.046876 8.699219-8.777344 15.050781-12.792969 17.015625-1.75.796875-10.601563 5.238281-12.882813 14.710937-1.011718 4.1875-1.011718 10.65625 4.683594 17.796876 1.636719 2.027343 3.8125 3.609374 6.246094 4.535156l28.90625 11.257812c1.804687.710938 3.703125 1.085938 5.542968 1.085938.753907 0 1.519532-.066406 2.242188-.191406 8.976562-1.394532 13.34375-6.164063 15.425781-9.921876 4.726563-8.519531 1.210938-17.785156.570313-19.28125-1.71875-4.367187-.933594-12.300781 1.988281-21.5 3.28125 1.410157 6.796875 3.070313 9.15625 4.503907l1.636719.796875c10.078125 3.929687 21.136718 3.675781 31.113281-.691406 9.964844-4.386719 17.621094-12.355469 21.542969-22.457032l.421875-1.328125c4.316406-17.652343-2.597657-34.320312-21.199219-50.0625zm-64.726562 97.675781-20.828126-8.105468c11.332032-5.945313 19.054688-18.941406 24.003907-30.878906-4.417969 12.152343-7.496094 26.90625-3.175781 38.984374zm65.46875-53.402343c-1.945313 4.527343-5.492188 8.09375-10.050782 10.105469-4.566406 1.996093-9.578125 2.195312-14.203125.59375-4.277343-2.421876-21.433593-11.75-28.660156-9.390626l-4.585937 1.519532-2.871094-4.441406c-3.632813-6.375-21.851563-10.964844-26.554688-12.066407-4.503906-1.945312-8.0625-5.484375-10.058594-10.03125-2.09375-4.777343-2.222656-10.046875-.617187-14.242187 3.058594-6.609375 8.804687-13.085938 28.109375-11.015625 20.265625 2.355469 39.726562 9.941406 55.648438 21.414062 15.980468 13.554688 14.746093 23.542969 13.84375 27.554688zm0 0"/></svg>