<svg height="511pt" viewBox="0 -25 511.99952 511" width="511pt" xmlns="http://www.w3.org/2000/svg"><path d="m476.71875 98.050781c-20.335938-29.085937-47.847656-42.351562-79.734375-38.410156-16.101563.105469-32.195313 4.410156-46.902344 12.507813-1.246093-.710938-2.5625-1.21875-3.835937-1.859376-2.015625-1.039062-4.035156-2.078124-6.117188-2.96875-1.164062-.488281-2.335937-.898437-3.519531-1.34375-2.703125-1.039062-5.441406-1.957031-8.234375-2.738281-.59375-.160156-1.183594-.328125-1.785156-.480469-6.484375-1.6875-13.160156-2.683593-19.964844-2.941406-.316406-.039062-.59375-.1875-.921875-.1875-.445313 0-.878906.0625-1.316406.070313-.445313-.011719-.878907-.070313-1.316407-.070313-.328124 0-.605468.148438-.925781.1875-2.710937.105469-5.40625.273438-8.082031.613282-4.1875.410156-8.359375 1.074218-12.484375 2.042968 2.625-19.550781 10.75-33.378906 15.996094-40.4375 2.882812-3.886718 2.996093-9.160156.277343-13.132812-2.773437-4.039063-7.808593-5.878906-12.546874-4.582032-15.75 4.289063-33.175782.605469-45.03125-3.253906-4.667969-1.535156-9.78125.117188-12.667969 4.101563-2.9375 4.0625-2.910157 9.523437.078125 13.605469 8.339844 11.355468 8.972656 30.898437 8.136718 44.839843-8.671874-2.550781-17.578124-3.984375-26.558593-3.984375-4.125 0-8.234375.285156-12.296875.835938-1.734375.230468-3.425782.695312-5.128906 1.023437-2.296876.445313-4.617188.792969-6.875 1.40625-2.109376.570313-4.144532 1.386719-6.207032 2.105469-1.796875.625-3.621094 1.128906-5.371094 1.867188-2.589843 1.078124-5.070312 2.402343-7.558593 3.710937-1.066407.558594-2.179688.976563-3.21875 1.574219-14.894531-8.207032-31.210938-12.511719-47.492188-12.511719l-1.171875.078125c-57.496094 7.648438-117.566406 60.257812-113.769531 184.96875 3.121094 102.261719 54.550781 211.496094 135.867187 217.296875 13.859376 0 27.519532-3.148437 39.796876-9.140625 1.210937.566406 2.472656.976562 3.699218 1.492188.167969.070312.339844.132812.507813.203124 2.464843 1.023438 4.945312 1.984376 7.46875 2.785157 1.9375.640625 3.929687 1.136719 5.914062 1.652343.851563.214844 1.6875.480469 2.542969.667969 6.578125 1.496094 13.34375 2.339844 20.265625 2.339844.371094 0 .691406-.167969 1.054687-.214844 13.488282-.148437 26.890626-3.09375 39.042969-8.925781 12.015625 5.769531 25.246094 8.6875 38.566407 8.898438.410156.054687.765624.242187 1.191406.242187.933594 0 1.839844-.113281 2.765625-.140625 1.191406.042969 2.367187.140625 3.574219.140625.792968 0 1.492187-.257813 2.222656-.445313 3.769531-.355468 7.484375-.941406 11.140625-1.742187 7.230469-1.492187 14.316406-3.769531 21.046875-6.953125 12.28125 5.992188 25.9375 9.140625 39.800781 9.140625 42.039063 0 77.417969-25.269531 102.335937-73.070313 44.929688-86.261718 43.855469-224.894531-2.257812-290.863281zm-223.578125-27.546875c1.28125-13.773437 1.46875-32.847656-4.152344-48.734375 8.117188 1.660157 17.226563 2.648438 26.480469 2.082031-5.753906 10.792969-11.398438 25.972657-12.421875 45.019532-1.464844.65625-2.765625 1.351562-4.117187 2.027344-.851563.441406-1.75.769531-2.59375 1.242187-.230469-.132813-.480469-.214844-.722657-.34375-.808593-.429687-1.617187-.867187-2.472656-1.292969zm210.042969 310.191406c-15.089844 28.980469-42.371094 63.515626-86.554688 63.515626-7.449218 0-14.597656-1.191407-21.472656-3.308594 22.308594-17.648438 37.558594-44.761719 39.265625-75.171875l5.167969-91.65625c.273437-4.90625-3.476563-9.101563-8.367188-9.378907-4.777344-.292968-9.105468 3.464844-9.382812 8.367188l-5.167969 91.65625c-2 35.46875-26.070313 65.566406-57.414063 75.765625-.265624.082031-.53125.167969-.800781.257813-1.8125.570312-3.671875 1.03125-5.53125 1.46875-1.917969.417968-3.859375.800781-5.804687 1.066406-.5625.082031-1.113282.195312-1.671875.265625-2.550781.304687-5.105469.425781-7.664063.472656-31.585937-1.9375-58.445312-23.4375-69.207031-55.972656-1.535156-4.660157-6.585937-7.238281-11.226563-5.65625-4.660156 1.535156-7.203124 6.5625-5.65625 11.230469 6.160157 18.644531 16.761719 34.292968 30.285157 45.914062-11.125 4.074219-23.011719 5.46875-34.730469 4.074219-.507812-.0625-.996094-.167969-1.503906-.242188-2.230469-.308593-4.445313-.726562-6.660156-1.234375-1.183594-.285156-2.355469-.59375-3.53125-.933594-1.351563-.382812-2.683594-.820312-4.019532-1.273437-1.632812-.566406-3.277344-1.144531-4.871094-1.820313-.472656-.195312-.925781-.4375-1.398437-.640624-27.464844-12.324219-47.792969-40.261719-49.632813-72.726563l-4.507812-80c-.265625-4.902344-4.417969-8.589844-9.382812-8.367187-4.898438.265624-8.652344 4.472656-8.367188 9.378906l4.507812 80c1.714844 30.464844 17.019532 57.613281 39.398438 75.261718-6.722656 2.054688-13.636719 3.21875-20.621094 3.238282-69.710937-5.015625-115.902344-107.769532-118.710937-200.101563-2.246094-73.8125 22.261719-156.265625 97.734375-166.730469 10.324218.078126 20.664062 2.398438 30.515625 6.605469-7.910157 6.917969-15.050781 15.007813-20.894531 24.445313-2.585938 4.167968-1.296876 9.648437 2.875 12.234375 1.457031.917969 3.074218 1.332031 4.667968 1.332031 2.976563 0 5.886719-1.492188 7.566406-4.214844 6.933594-11.183594 15.675782-20.140625 25.554688-26.851562l1.5625-1.015625c21.796875-14.171875 49.183594-16.03125 72.941406-5.742188.398438.175781.726563.355469 1.121094.53125-2.109375 1.894531-4.199219 3.839844-6.179688 5.941407-21.945312 23.214843-33.433593 55.964843-31.515624 89.839843l1.957031 34.6875c.257812 4.730469 4.1875 8.386719 8.867187 8.386719.167969 0 .335938-.011719.515625-.019531 4.898438-.265625 8.652344-4.46875 8.367188-9.378907l-1.957031-34.6875c-1.636719-29.015624 8.089843-56.933593 26.683593-76.613281 12.980469-13.734375 29.378907-22.226562 46.941407-24.664062 9.9375-1.039063 19.980468-.3125 29.582031 2.464843.070312.015626.140625.035157.203125.050782 3.203125.933594 6.332031 2.136718 9.402344 3.496094 1.207031.550781 2.382812 1.199218 3.5625 1.804687 1.539062.78125 3.058593 1.609375 4.554687 2.5 6.417969 3.859375 12.4375 8.613281 17.84375 14.332031 18.59375 19.679688 28.328125 47.605469 26.695313 76.621094-.277344 4.90625 3.476562 9.105469 8.367187 9.382812.175781.007813.335937.015626.515625.015626 4.675781 0 8.605469-3.65625 8.867188-8.386719 1.910156-33.886719-9.578126-66.625-31.523438-89.839844-2.222656-2.347656-4.535156-4.546875-6.910156-6.644531 10.042968-4.285156 20.601562-6.605469 31.132812-6.605469l1.15625-.082031c25.457032-3.277344 46.769532 7.085937 63.414063 30.902344 42.128906 60.25 42.632812 192.648437 1.046875 272.453124zm0 0"/></svg>