<svg height="511pt" viewBox="-11 0 511 511.99971" width="511pt" xmlns="http://www.w3.org/2000/svg"><path d="m484.640625 7.375c-13.914063-7.9375-31.652344-9.550781-48.667969-4.441406-13.082031 3.929687-24.546875 11.484375-32.734375 21.277344-4.609375-2.894532-9.988281-5.410157-16.5-6.875-28.304687-6.363282-63.234375 8.671874-103.878906 44.675781-3.226563 2.851562-4.078125 7.542969-2.050781 11.351562 1.675781 3.167969 4.976562 4.921875 8.449218 4.839844-74.289062 56.675781-150.53125 92.855469-202.929687 117.683594-40.085937 18.976562-66.554687 31.523437-76.402344 44.730469-18.925781 25.378906-4.664062 41.699218 2.351563 47.535156 7.414062 6.167968 17.066406 9.46875 27.550781 9.46875 1.363281 0 2.75-.058594 4.148437-.167969 17.332032-1.417969 37.039063-6.269531 58.863282-14.355469-25.21875 19.875-42.054688 34.460938-47.894532 47.109375-13.699218 29.621094 3.070313 43.488281 10.902344 48.078125 5.949219 3.480469 12.910156 5.261719 20.109375 5.261719 4.242188 0 8.578125-.617187 12.839844-1.875 54.75-16.144531 118.777344-71.328125 174.800781-130.164063-26.589844 51.074219-54.484375 88.015626-76.308594 116.921876-21.519531 28.484374-35.730468 47.292968-36.421874 64.289062-1.398438 34.378906 21.851562 39.636719 31.90625 40.300781.953124.066407 1.902343.089844 2.855468.089844 10.800782 0 21.816406-4.007813 31.300782-11.453125 79.003906-61.964844 142.433593-210.40625 174.324218-307.945312 1.203125 2.734374 3.589844 4.859374 6.679688 5.457031.597656.121093 1.191406.175781 1.78125.175781 3.824218 0 7.347656-2.367188 8.726562-6.0625 5.363282-14.359375 30.199219-85.710938 3.835938-108.933594-.980469-1.808594-2.695313-4.550781-5.074219-7.582031 13.609375-16.945313 40.011719-23.53125 58.199219-13.167969 4.464844 2.527344 10.164062.976563 12.71875-3.488281 2.554687-4.480469.988281-10.1875-3.480469-12.734375zm-442.183594 271.46875c-7.21875.589844-13.652343-1.203125-18.253906-5.035156-3.160156-2.628906-9.726563-8.105469.675781-22.046875 7.074219-9.488281 35.960938-23.167969 69.425782-39.023438 58.710937-27.8125 146.929687-69.605469 229.984374-138.527343-6.679687 8.75-13.441406 17.195312-20.238281 25.367187-.226562.269531-.449219.53125-.671875.804687-6.707031 8.046876-13.449218 15.816407-20.183594 23.296876-.046874.054687-.101562.121093-.148437.175781-6.378906 7.078125-12.738281 13.851562-19.0625 20.4375-1.714844 1.78125-3.433594 3.523437-5.15625 5.277343-4.058594 4.148438-8.078125 8.167969-12.078125 12.113282-2.601562 2.558594-5.195312 5.140625-7.789062 7.632812-2.414063 2.328125-4.773438 4.523438-7.164063 6.769532-6.871094 6.472656-13.699219 12.765624-20.441406 18.785156-.691407.613281-1.398438 1.257812-2.089844 1.871094-4.28125 3.808593-8.523437 7.519531-12.730469 11.136718-.457031.394532-.90625.777344-1.363281 1.167969-8.738281 7.515625-17.308594 14.660156-25.601563 21.429687-51.484374 29.40625-94.265624 45.683594-127.113281 48.367188zm51.074219 84.9375c-6.566406 1.921875-13.214844 1.351562-18.253906-1.605469-3.433594-2.003906-11.460938-6.707031-3.40625-24.144531 5.316406-11.492188 30.082031-30.722656 61.417968-55.054688 14.222657-11.042968 30.226563-23.476562 47.359376-37.445312.074218-.058594.148437-.09375.226562-.160156 23.175781-18.886719 52.0625-43.480469 82.625-73.929688.429688-.421875.847656-.859375 1.277344-1.289062 3.644531-3.648438 7.320312-7.386719 11.003906-11.203125 1.699219-1.75 3.386719-3.523438 5.085938-5.304688 2.285156-2.40625 4.570312-4.847656 6.863281-7.320312 2.359375-2.535157 4.71875-5.0625 7.070312-7.660157.839844-.921874 1.679688-1.890624 2.519531-2.824218 10.621094-11.789063 21.140626-24.164063 31.503907-37.148438.300781-.382812.605469-.753906.90625-1.128906 3.5625-4.476562 7.085937-9.027344 10.605469-13.652344.277343-.375.558593-.746094.835937-1.121094 2.539063-3.347656 5.09375-6.640624 7.59375-10.074218.167969.019531.355469.027344.519531.046875 1.203125.140625 2.332032.316406 3.453125.503906 2.058594.335937 4.074219.71875 5.960938 1.230469.230469.066406.5.105468.726562.167968-3.722656 13.320313-12.339843 33.894532-26.589843 37.417969-1.203126.300781-2.296876.824219-3.246094 1.511719-2.84375 2.070312-4.375 5.664062-3.667969 9.316406v.011719c.925781 4.71875 5.261719 7.863281 10 7.421875.160156-.015625.308594.046875.464844.027344h.011719c.082031-.007813.316406-.042969.652343-.101563 3.570313-.519531 10.761719-1.722656 19.277344-3.871093-.085937.105468-.160156.199218-.234375.300781-1.632812 2.070312-3.300781 4.195312-5.035156 6.378906-.046875.058594-.089844.113281-.128906.167969-9.214844 11.601562-19.855469 24.699218-31.570313 38.632812-.328125.390625-.664063.78125-.988281 1.171875-4.308594 5.113281-8.757813 10.324219-13.339844 15.625-.363281.417969-.707031.828125-1.070312 1.25-61.222657 70.722657-144.640626 154.449219-210.429688 173.855469zm121.878906 83.195312c-6.695312 5.25-14.234375 7.878907-21.40625 7.421876-7.582031-.503907-15.21875-3.375-14.511718-20.917969.457031-11.15625 14.671874-29.984375 32.671874-53.816407 27.753907-36.753906 69.605469-92.175781 103.542969-174.574218 30.722657-35.375 56.816407-68.644532 74.453125-91.960938.449219-.277344.804688-.578125 1.222656-.859375.679688-.457031 1.335938-.921875 1.988282-1.390625.597656-.4375 1.277344-.847656 1.835937-1.285156-24.976562 89.265625-93.03125 269.335938-179.796875 337.382812zm197.742188-344.664062c-.019532-.046875-.039063-.085938-.046875-.132812-.457031-1.296876-.914063-2.507813-1.378907-3.636719-.066406-.15625-.128906-.316407-.195312-.464844-.449219-1.0625-.886719-2.042969-1.335938-2.957031-.09375-.195313-.1875-.375-.269531-.558594-.410156-.832031-.820312-1.605469-1.210937-2.316406-.121094-.222656-.246094-.425782-.375-.640625-.363282-.617188-.707032-1.195313-1.046875-1.71875-.15625-.242188-.296875-.445313-.445313-.671875-.289062-.425782-.578125-.835938-.839844-1.203125-.175781-.242188-.324218-.429688-.492187-.644531-.214844-.269532-.421875-.539063-.605469-.761719-.199218-.234375-.347656-.402344-.515625-.578125-.109375-.132813-.242187-.269532-.335937-.375-.242188-.257813-.4375-.445313-.566406-.558594-.429688-.390625-.917969-.691406-1.398438-.988281-.179688-.113281-.335938-.269531-.523438-.375-1.875-1.003907-4.039062-1.285157-6.15625-.867188-.242187.046875-.484374.039063-.726562.105469-.011719 0-.011719.007812-.019531.007812h-.007813c-.234375.066407-.4375.195313-.664062.28125-.519532.195313-1.050782.371094-1.519532.652344-.148437.082032-.261718.214844-.402343.304688-.511719.335937-1.023438.691406-1.464844 1.128906-.117187.121094-.195313.273438-.304687.390625-.410157.460937-.820313.925781-1.136719 1.457031-.058594.09375-.074219.203125-.132813.296875-.328125.597657-.625 1.214844-.820312 1.875-.027344.09375-.121094.242188-.160156.34375-.128907.375-.304688.746094-.5 1.109375-1.019532 1.699219-3.292969 4.1875-8.441407 7.183594-3.339843 1.949219-7.15625 3.675781-11.136719 5.1875 8.347657-15.304688 11.351563-31.394531 11.566407-32.570312.71875-4.019532-1.25-8.03125-4.859375-9.914063-2.332032-1.210937-4.914063-2.230469-7.628906-3.132813-.878907-.289062-1.773438-.53125-2.675782-.792968-1.746094-.496094-3.554687-.945313-5.457031-1.324219-1.363281-.28125-2.714844-.542969-4.113281-.757813-1.109375-.167968-2.285156-.296874-3.453125-.429687-4.746094-.558594-9.578125-.902344-14.417969-.902344-4.597656 0-9.175781.214844-13.597656.570313 28.390625-19.007813 47.304687-21.023438 58.992187-18.476563 17.121094 3.691407 23.6875 17.992188 23.921875 18.523438.660156 1.554687 1.742188 2.898437 3.105469 3.890625 7.625 5.53125 7.4375 23.996094 3.792969 44.441406zm0 0"/><path d="m428.652344 381.429688c-16.722656 0-32.289063 7.460937-42.882813 20.253906-4.207031-1.015625-8.5625-1.601563-13.074219-1.601563-30.863281 0-55.960937 25.097657-55.960937 55.957031 0 30.863282 25.097656 55.960938 55.960937 55.960938 17.375 0 32.914063-7.957031 43.191407-20.414062 4.261719 1.042968 8.53125 1.761718 12.765625 1.761718 30.863281 0 55.960937-25.097656 55.960937-55.960937 0-30.859375-25.109375-55.957031-55.960937-55.957031zm-55.957032 111.917968c-20.574218 0-37.308593-16.730468-37.308593-37.304687s16.734375-37.308594 37.308593-37.308594c4.652344 0 9.054688.960937 13.167969 2.519531.035157.019532.066407.054688.101563.066406 1.707031.660157 3.347656 1.453126 4.914062 2.351563.121094.066406.242188.128906.363282.195313 1.558593.90625 3.042968 1.914062 4.441406 3.023437.082031.0625.15625.128906.242187.195313 4.039063 3.246093 7.320313 7.3125 9.71875 11.84375.214844.410156.457031.792968.652344 1.203124.539063 1.121094.976563 2.296876 1.40625 3.46875.363281 1.027344.703125 2.070313.96875 3.136719.246094.902344.488281 1.816407.652344 2.742188.382812 2.136719.664062 4.308593.664062 6.554687 0 2.171875-.28125 4.28125-.644531 6.351563-.167969.894531-.363281 1.792969-.585938 2.675781-.246093.96875-.570312 1.902344-.886718 2.835938-.953125 2.722656-2.15625 5.390624-3.742188 7.898437-.066406.105469-.054687.226563-.113281.328125-6.636719 10.339844-18.164063 17.222656-31.320313 17.222656zm52.75-18.800781c1.007813-2.855469 1.78125-5.804687 2.3125-8.84375.046876-.25.074219-.503906.113282-.753906.464844-2.910157.773437-5.867188.773437-8.898438 0-2.230469-.167969-4.414062-.417969-6.566406-.046874-.390625-.121093-.765625-.179687-1.15625-.269531-1.929687-.632813-3.832031-1.097656-5.699219-.039063-.15625-.085938-.316406-.121094-.472656-3.453125-13.429688-11.707031-24.949219-22.898437-32.515625 6.753906-6.089844 15.464843-9.558594 24.714843-9.558594 20.574219 0 37.304688 16.730469 37.304688 37.304688 0 21.636719-18.457031 39.136719-40.503907 37.160156zm0 0"/></svg>