<svg height="511pt" viewBox="-7 0 511 511.99547" width="511pt" xmlns="http://www.w3.org/2000/svg"><path d="m487.382812 26.839844c-.355468-1.34375-.679687-2.535156-.933593-3.535156 2.648437-9.058594-.679688-14.710938-3.003907-17.359376-6.839843-7.765624-18.113281-5.9531245-21.4375-5.25-.601562.144532-1.191406.324219-1.769531.554688-1.46875.601562-2.972656 1.269531-4.453125 1.890625-11.863281 4.039063-23.210937 10.160156-33.445312 15.777344l-.769532.425781c-15.777343-12.09375-35.417968-19.152344-56.3125-19.152344-51.128906 0-92.734374 41.59375-92.734374 92.730469 0 .082031.011718.144531.011718.222656-39.578125 8.828125-69.609375 42.996094-72.246094 84.542969-44.007812 5.152344-78.597656 41.195312-81.59375 85.824219-2.425781-.1875-4.851562-.367188-7.320312-.367188-51.128906 0-92.730469 41.59375-92.730469 92.730469 0 15.710938 4.113281 30.625 11.214844 43.839844-.847656 1.179687-1.734375 2.394531-2.539063 3.503906-.957031 1.335938-1.855468 2.59375-2.769531 3.875-1.28125 1.78125-2.492187 3.492188-3.628906 5.09375-.769531 1.082031-1.535156 2.171875-2.257813 3.207031-1.726562 2.457031-3.316406 4.75-4.699218 6.753907-.34375.5-.644532.945312-.964844 1.421874-1.445312 2.128907-2.707031 4.007813-3.785156 5.632813-.121094.175781-.277344.410156-.390625.585937-.011719.011719-.011719.023438-.011719.035157-1.65625 2.539062-2.925781 4.515625-3.816406 5.972656l-.890625.8125c-3.339844 3.050781-4.484375 7.835937-2.914063 12.074219 1.167969 3.148437 3.714844 6.699218 8.8125 12.261718 31.132813 33.957032 70.332032 51.0625 111.804688 51.050782 37.453125 0 76.753906-13.953125 113.617187-42.003906 123.777344-94.246094 229.894531-249.757813 231.160157-251.636719 50.417968-80.222657 28.121093-163.984375 20.796874-191.515625zm-43.039062 17.9375c-.476562-.777344-.957031-1.558594-1.457031-2.335938-1.113281-1.714844-2.300781-3.371094-3.527344-5.007812-.378906-.5-.703125-1.042969-1.089844-1.542969 4.082031-2.09375 8.054688-4.042969 11.972657-5.898437-1.792969 4.996093-3.828126 9.890624-5.898438 14.785156zm-79.089844-22.332032c18.59375 0 35.828125 7.410157 48.625 19.664063.8125.777344 1.558594 1.613281 2.335938 2.4375 1.535156 1.625 3.015625 3.304687 4.394531 5.074219.757813.964844 1.492187 1.945312 2.191406 2.949218 1.316407 1.867188 2.515625 3.816407 3.640625 5.816407.53125.957031 1.109375 1.882812 1.613282 2.859375 1.511718 3.003906 2.890624 6.109375 3.972656 9.371094-5.730469 10.980468-12.050782 21.863281-18.816406 32.378906-.035157.042968-.714844 1.089844-1.769532 2.679687-.234375.355469-.390625.589844-.679687 1.023438-.367188.546875-.890625 1.324219-1.324219 1.992187-.488281.746094-.957031 1.425782-1.546875 2.304688-.597656.902344-1.355469 2.011718-2.058594 3.046875-.621093.925781-1.210937 1.792969-1.914062 2.828125-.753907 1.101562-1.632813 2.378906-2.46875 3.605468-.824219 1.1875-1.625 2.359376-2.523438 3.65625-.9375 1.347657-1.992187 2.851563-3.003906 4.308594-.949219 1.355469-1.882813 2.691406-2.90625 4.136719-1.132813 1.613281-2.367187 3.351563-3.59375 5.074219-1.058594 1.492187-2.113281 2.984375-3.238281 4.550781-1.347656 1.871094-2.773438 3.847656-4.207032 5.820313-.777343 1.066406-1.558593 2.15625-2.359374 3.246093-.234376-.632812-.589844-1.210937-.84375-1.835937-.246094-.613282-.546876-1.1875-.800782-1.800782-.890625-2.105468-1.824218-4.171874-2.871094-6.199218-.757812-1.476563-1.503906-2.957032-2.335937-4.394532-.046875-.078124-.078125-.164062-.121094-.242187-.046875-.066406-.113281-.101563-.144531-.167969-.066406-.109375-.144531-.199218-.203125-.3125-.042969-.078125-.085937-.167968-.132813-.242187-.078124-.132813-.101562-.289063-.175781-.425781-.234375-.386719-.535156-.722657-.777343-1.113282-.65625-1.042968-1.371094-2.042968-2.070313-3.058594-1.371094-2-2.714844-3.992187-4.230469-5.875-.144531-.175781-.257812-.398437-.398437-.578124-.113281-.132813-.28125-.191407-.402344-.324219-.011719-.011719-.019531-.03125-.042969-.042969-.089844-.125-.113281-.269531-.203125-.378906-.011719-.054688-.019531-.046875-.042969-.054688-.378906-.457031-.847656-.835937-1.238281-1.28125-.722656-.835937-1.476562-1.648437-2.234375-2.457031-1.648437-1.761719-3.292968-3.496094-5.074218-5.117187-.910157-.835938-1.902344-1.582032-2.847657-2.382813-.035156-.035156-.066406-.054687-.101562-.089844-1.125-.945312-2.214844-1.9375-3.382813-2.824219-1.335937-1.027343-2.667968-2.015624-4.058594-2.960937-.246093-.179687-.457031-.402344-.710937-.570313-.035156-.019531-.058594-.03125-.089844-.054687-.101562-.066406-.210937-.066406-.3125-.121094-.175781-.132812-.3125-.300781-.5-.421875-.289062-.191406-.632812-.324218-.921875-.511718-1.148437-.738282-2.351562-1.359376-3.53125-2.039063-1.933594-1.113281-3.859375-2.214844-5.882812-3.183594-.402344-.1875-.746094-.457031-1.148438-.632812-.011718 0-.019531-.011719-.03125-.023438-.191406-.085937-.390625-.066406-.582031-.144531-.140625-.078125-.242187-.207031-.398437-.289062-.890626-.398438-1.726563-.699219-2.59375-1.066407-.65625-.277343-1.3125-.554687-1.988282-.824219-.925781-.367187-1.859375-.742187-2.773437-1.066406-.699219-.246094-1.410157-.46875-2.125-.703125-1.078125-.355469-2.179688-.765625-3.25-1.066406v.023437h-.011719c-.097656-.023437-.1875 0-.289062-.023437-2.625-.742187-5.296876-1.390625-8-1.902344-.800782-.144531-1.613282-.222656-2.425782-.355469-3.582031-.582031-7.21875-.9375-10.925781-1.082031-.535156-.019531-1.046875-.140625-1.578125-.152343 1.078125-37.929688 32.253906-68.453126 70.441406-68.453126zm-79.636718 91.042969c2.335937-.234375 4.707031-.367187 7.101562-.367187 7.988281 0 15.632812 1.523437 22.832031 4.027344 1.289063.457031 2.601563.902343 3.925781 1.460937 2.679688 1.109375 5.261719 2.402344 7.765626 3.824219.835937.46875 1.714843.902344 2.515624 1.390625 3.058594 1.914062 5.953126 4.050781 8.679688 6.386719.257812.222656.554688.402343.8125.636718 3.035156 2.679688 5.84375 5.628906 8.390625 8.800782.164063.210937.308594.464843.476563.679687 2.203124 2.8125 4.171874 5.808594 5.929687 8.945313.625 1.125 1.136719 2.300781 1.703125 3.460937 1.125 2.28125 2.148438 4.605469 3.027344 7.011719.523437 1.445312.976562 2.902344 1.410156 4.382812.648438 2.226563 1.125 4.507813 1.546875 6.820313.210937 1.15625.578125 2.261719.734375 3.449219-.144531.191406-.289062.390624-.433594.582031-1.269531 1.679687-2.625 3.402343-3.90625 5.09375-3.691406 4.828125-7.375 9.667969-11.09375 14.421875-2.011718 2.570312-4.039062 5.074218-6.050781 7.609375-3.207031 4.039062-6.410156 8.101562-9.625 12.074219-2.226563 2.746093-4.460937 5.417968-6.6875 8.121093-3.039063 3.695313-6.074219 7.398438-9.125 11.027344-2.257813 2.695313-4.527344 5.308594-6.789063 7.957031-2.390624 2.792969-4.769531 5.585938-7.164062 8.335938-1.046875-4.6875-2.457031-9.226563-4.183594-13.621094-.023437-.066406-.046875-.132812-.078125-.199219-1.703125-4.296875-3.707031-8.425781-6-12.386719-.175781-.300781-.367187-.585937-.546875-.890624-4.546875-7.644532-10.144531-14.5625-16.621094-20.59375-.492187-.457032-.96875-.890626-1.46875-1.335938-3.238281-2.894531-6.632812-5.609375-10.257812-8.023438-.035156-.019531-.054688-.03125-.089844-.054687-3.539062-2.347656-7.277344-4.394531-11.128906-6.253906-.65625-.3125-1.289062-.644531-1.945312-.945313-3.875-1.757812-7.867188-3.273437-11.996094-4.484375-.578125-.167969-1.167969-.289062-1.746094-.457031-3.839844-1.046875-7.753906-1.855469-11.773438-2.402344-.429687-.054687-.832031-.199218-1.265624-.257812 2.796874-33.773438 29.511718-60.84375 63.125-64.226563zm-144.960938 154.453125c.957031-38.042968 32.203125-68.6875 70.457031-68.6875.066407 0 .121094.011719.1875.011719h.011719c4.0625.011719 8.023438.421875 11.90625 1.101563.589844.101562 1.1875.15625 1.769531.269531 1.5.300781 2.960938.710937 4.425781 1.097656.722657.191406 1.46875.347656 2.179688.558594 1.425781.433593 2.792969.957031 4.171875 1.476562.714844.269531 1.449219.5 2.160156.792969 1.371094.566406 2.703125 1.222656 4.027344 1.867188.667969.324218 1.347656.621093 1.992187.96875 1.324219.699218 2.605469 1.476562 3.882813 2.269531.601563.363281 1.214844.710937 1.800781 1.097656 1.28125.847656 2.515625 1.761719 3.742188 2.683594.523437.398437 1.066406.765625 1.578125 1.179687 1.234375.988282 2.425781 2.035156 3.59375 3.105469.445312.398437.902343.789063 1.324219 1.199219 1.191406 1.148437 2.328124 2.347656 3.4375 3.570312.34375.378906.703124.757813 1.046874 1.148438 1.144532 1.324218 2.226563 2.691406 3.269532 4.09375.246094.332031.5.65625.734375.992187 1.082031 1.511719 2.105469 3.070313 3.0625 4.671875.152343.246094.308593.492188.457031.746094 1 1.714844 1.933594 3.484375 2.804688 5.285156.066406.144532.132812.289063.199218.421875.902344 1.925781 1.726563 3.894531 2.449219 5.910157.011719.023437.019531.054687.03125.078124 2.25 6.265626 3.640625 12.953126 4.03125 19.917969 0 .035157.019531.054688.019531.089844.066406 1.277344.203125 2.546875.203125 3.851563 0 .820312-.023437 1.632812-.054687 2.445312-23.402344 25.605469-46.511719 48.449219-68.777344 67.984375-2.472656.136719-4.917969-.019531-7.378906-.242187-.789063-.078126-1.578125-.132813-2.378906-.234376-.125-.011718-.257813-.054687-.378907-.066406-.023437-.136718-.078125-.257812-.101562-.390625-.722657-3.984375-1.660157-7.878906-2.882813-11.671875-.097656-.324218-.242187-.625-.34375-.945312-1.046875-3.140625-2.269531-6.1875-3.636718-9.171875-.535157-1.167969-1.09375-2.300781-1.667969-3.449219-1.09375-2.144531-2.269531-4.226562-3.53125-6.273438-.722657-1.191406-1.390625-2.402343-2.15625-3.550781-1.78125-2.648437-3.71875-5.183593-5.753907-7.632812-1.132812-1.355469-2.359374-2.636719-3.570312-3.925781-1.257812-1.335938-2.535156-2.648438-3.859375-3.917969-1.269531-1.203125-2.527344-2.382813-3.863281-3.503907-2.035156-1.726562-4.160156-3.347656-6.339844-4.894531-1.058594-.746093-2.113281-1.492187-3.207031-2.191406-2.671875-1.738281-5.429688-3.316406-8.277344-4.773437-.8125-.414063-1.625-.789063-2.449219-1.179688-3.273437-1.558594-6.621094-2.9375-10.082031-4.105469-.089844 0-.175781-.046875-.265625-.078125zm-29.285156 17.457032c5.472656 0 10.78125.6875 15.898437 1.882812.023438 0 .046875.019531.066407.019531 7.121093 1.648438 13.730468 4.394531 19.785156 7.945313.621094.367187 1.246094.742187 1.871094 1.132812 2.589843 1.636719 5.085937 3.40625 7.421874 5.339844.667969.554688 1.265626 1.167969 1.914063 1.738281 1.734375 1.554688 3.394531 3.191407 4.960937 4.917969.691407.742188 1.402344 1.476562 2.046876 2.257812 1.859374 2.214844 3.5625 4.550782 5.140624 6.976563.5.769531.957032 1.558594 1.425782 2.347656 1.578125 2.671875 3.070312 5.40625 4.292968 8.289063.011719.035156.035157.066406.046876.101562 1.347656 3.191406 2.421874 6.53125 3.292968 9.933594.085938.347656.175782.691406.265625 1.046875.835938 3.496094 1.445313 7.078125 1.75 10.75v.019531c.152344 1.917969.289063 3.839844.289063 5.800782 0 3.414062-.257813 6.851562-.746094 10.234374-10.648438 8.101563-21.464844 15.691407-32.269531 22.464844-2.089844 1.316406-4.195313 2.660156-6.261719 3.90625-2.335938 1.402344-4.675781 2.707032-7.011719 4.015625-2.234375 1.269531-4.496093 2.605469-6.707031 3.785157-.046875.023437-.101562.023437-.144531.046874-2.28125 1.210938-4.5625 2.335938-6.84375 3.460938-2.457031 1.222656-4.917969 2.449219-7.332031 3.558594-.011719.011718-.035157 0-.058594.011718h-.011719v.011719c-3.046875 1.390625-6.097656 2.738281-9.132813 3.976563-.046874.019531-.082031.054687-.136718.078125-1.710938.699219-3.378906 1.289062-5.074219 1.921875-2.859375 1.082031-5.707031 2.148437-8.554687 3.085937-1.492188.488281-2.960938.875-4.441407 1.3125h-.019531c-2.070312.621094-4.105469 1.191407-6.121094 1.714844-1.847656-.878906-3.539062-1.960937-5.285156-2.984375-1-.589844-2.058594-1.078125-3.027344-1.714844-1.15625-.765625-2.191406-1.691406-3.292968-2.511718-1.445313-1.082032-2.9375-2.09375-4.292969-3.285157-4.804688-4.226562-9.070313-9.132812-12.660157-14.628906-.191406-.277344-.433593-.5-.648437-.757813-6.976563-11.027343-10.882813-24.011718-10.882813-37.6875.011719-38.894531 31.621094-70.515624 70.488282-70.515624zm-67.929688 133.511718c.242188.257813.519532.480469.765625.734375 1.492188 1.582031 3.015625 3.140625 4.609375 4.597657-2.09375.269531-5.675781.644531-9.8125.910156 1.410156-1.988282 2.777344-3.925782 4.4375-6.242188zm404.53125-212.734375c-1.035156 1.535157-105.183594 154.097657-226.023437 246.09375-68.117188 51.886719-142.101563 49.992188-193.742188-4.582031.519531.011719 1.058594.042969 1.578125.042969 9.925782 0 19.21875-1.066407 21.699219-1.378907 9.554687-.277343 19.449219-1.625 29.941406-4.070312.390625-.046875.789063-.109375 1.167969-.199219h.011719c5.039062-1.183593 10.183593-2.683593 15.378906-4.375.066406-.019531.144531-.011719.210937-.03125 1.632813-.527343 3.28125-1.183593 4.917969-1.769531 3.414063-1.203125 6.855469-2.484375 10.335938-3.90625.101562-.035156.203125-.023438.300781-.054688 1.980469-.8125 3.949219-1.714843 5.933594-2.582031 3.046875-1.335937 6.117187-2.773437 9.210937-4.261719.089844-.046874.191407-.023437.289063-.066406 1.703125-.835937 3.40625-1.726562 5.097656-2.59375 1.589844-.8125 3.160156-1.566406 4.761719-2.414062.046875-.023438.101562-.046875.144531-.078125.019531-.011719.03125-.023438.046875-.035157 1.523437-.8125 3.070313-1.726562 4.605469-2.582031.144531-.078125.3125-.101562.457031-.175781.035156-.023438.078125-.046875.109375-.082031 1.582031-.867188 3.152344-1.8125 4.71875-2.703125 1.46875-.84375 2.914062-1.632813 4.382812-2.515625.367188-.222657.746094-.410157 1.113282-.632813.078125-.046875.113281-.136718.191406-.179687 1.101562-.667969 2.226562-1.390625 3.324219-2.078125.113281-.066406.246093-.089844.359375-.15625.53125-.332032 1.066406-.667969 1.589844-1 .679687-.425782 1.324218-.878906 2.003906-1.3125 3.425781-2.171875 6.875-4.421875 10.347656-6.769532 3.292969-2.191406 6.542969-4.4375 9.78125-6.707031.253906-.179687.511719-.367187.765625-.546875 78.96875-55.632812 143.449219-133.636718 196.769531-204.066406.789063-1.046875 1.613282-2.140625 2.402344-3.195312.246094-.324219.492188-.632813.734375-.957032.023437-.019531.023437-.046875.046875-.066406.96875-1.28125 1.949219-2.59375 2.925781-3.882812.011719-.011719.023438-.023438.035157-.046876.132812-.175781.242187-.332031.367187-.5 30.488281-40.378906 62.886719-85.097656 82.449219-135.992187 7.820312 32.3125 18.914062 99.285156-20.742188 162.410156zm0 0"/></svg>