<svg height="512pt" viewBox="0 0 512.00017 512" width="512pt" xmlns="http://www.w3.org/2000/svg"><path d="m504.359375 117.269531c-11.292969-2.917969-28.539063-3.191406-51.171875.746094 5.074219-15.664063 13.6875-35.765625 18.671875-46.582031 5.628906-12.222656 8.402344-28.597656-.6875-37.957032-7.605469-7.800781-20.226563-8.042968-37.523437-.660156-6.652344 2.832032-13.09375 5.847656-19.214844 8.703125-6.742188 3.140625-13.21875 6.140625-19.042969 8.449219 2.4375-18.140625 1.921875-32.363281-.648437-42.296875l-1.988282-7.671875-7.90625.40625c-18.285156.960938-120.382812 44.769531-146.71875 56.449219-49.574218 21.980469-93.445312 51.800781-130.398437 88.652343l-.726563.730469c-25.039062 25.007813-47.289062 51.808594-66.488281 80.210938-43.203125 74.09375-51.90625 158.097656-25.859375 249.671875.648438 2.300781 1.199219 4.210937 1.582031 5.695312l1.425781 5.527344 6.980469 6.984375 5.539063 1.425781c1.484375.390625 3.394531.933594 5.683594 1.582032 34.3125 9.769531 67.546874 14.648437 99.644531 14.648437 53.558593 0 103.902343-13.601563 150.582031-40.839844 27.839844-18.839843 54.644531-41.089843 79.71875-66.195312l.667969-.671875c36.84375-36.949219 66.671875-80.804688 88.65625-130.382813 11.675781-26.339843 55.484375-128.414062 56.445312-146.722656l.417969-7.914063zm-112.894531-45.445312c9.183594-2.445313 19.554687-7.296875 31.1875-12.726563 5.933594-2.765625 12.171875-5.6875 18.613281-8.429687 7.722656-3.300781 12.050781-3.882813 14.191406-3.882813 1.3125 0 1.765625.15625 1.765625.183594.953125 1.394531.765625 8.226562-2.976562 16.355469-1.902344 4.121093-17.238282 37.695312-22.59375 59.355469-.882813.222656-1.8125.523437-2.707032.757812-3.1875.84375-6.441406 1.746094-9.777343 2.734375-2 .59375-4.003907 1.203125-6.023438 1.835937-2.648437.835938-5.363281 1.734376-8.109375 2.660157-2.144531.726562-4.277344 1.414062-6.449218 2.179687-4.453126 1.582032-9.003907 3.269532-13.679688 5.085938-2.085938.8125-4.210938 1.707031-6.3125 2.558594-3.09375 1.253906-6.199219 2.523437-9.390625 3.882812-.851563.367188-1.675781.675781-2.53125 1.046875 4.539063-10.457031 8.4375-20.558594 11.980469-30.429687.046875-.136719.09375-.273438.144531-.398438 1.71875-4.792969 3.308594-9.519531 4.785156-14.164062.152344-.476563.289063-.941407.433594-1.40625 2.917969-9.351563 5.507813-18.488282 7.449219-27.199219zm-334.511719 164.957031c18.15625-26.832031 39.617187-52.675781 63.777344-76.800781l.71875-.726563c35.261719-35.164062 77.167969-63.644531 124.554687-84.65625 52.558594-23.300781 109.226563-45.929687 131.382813-52.75.632812 8.546875-.019531 20.214844-2.617188 34.785156l-1.007812 5.066407c-1.417969 7.109375-3.210938 14.480469-5.355469 22.085937-.136719.484375-.28125.96875-.417969 1.453125-.910156 3.171875-1.890625 6.394531-2.929687 9.644531-.347656 1.085938-.707032 2.191407-1.074219 3.296876-.941406 2.851562-1.921875 5.734374-2.949219 8.65625-.476562 1.347656-.980468 2.722656-1.484375 4.101562-1.058593 2.898438-2.144531 5.808594-3.300781 8.769531-.492188 1.261719-1.015625 2.558594-1.519531 3.839844-1.300781 3.261719-2.621094 6.53125-4.027344 9.847656-.328125.777344-.679687 1.570313-1.019531 2.359375-3.113282 7.253906-6.5 14.664063-10.117188 22.214844l-.019531.007812-1.464844 3.027344c-4.09375 8.417969-8.3125 16.703125-12.6875 24.910156-.019531.027344-.027343.058594-.046875.085938-4.375 8.207031-8.90625 16.316406-13.601562 24.40625-9.941406 14.6875-20.953125 29.035156-32.769532 43.011719-9.777343 11.554687-20.078124 22.875-31.023437 33.796875-.832031.835937-1.78125 1.777344-2.773437 2.746094-31.980469 31.140624-171.933594 157.246093-212.769532 177.539062-9.90625-35.167969-34.117187-130.078125 24.542969-230.71875zm380.492187 29.246094c-21.023437 47.394531-49.503906 89.300781-84.65625 124.554687l-.71875.71875c-24.144531 24.160157-49.984374 45.628907-76.257812 63.429688-97.535156 56.886719-189.285156 36.425781-227.273438 26.015625 11.019532-6.613282 25.433594-17.0625 41.53125-29.625 45.007813-34.515625 101.125-84.847656 136.699219-117.589844 17.75-16.21875 30.710938-28.402344 34.910157-32.609375 25.039062-25.011719 47.289062-51.8125 66.488281-80.214844 4.492187-7.710937 8.660156-15.199219 12.648437-22.574219.84375-1.570312 1.671875-3.164062 2.503906-4.734374 3.375-6.351563 6.574219-12.582032 9.59375-18.671876.359376-.71875.746094-1.417968 1.09375-2.144531 6.808594-3.257812 13.542969-6.371093 20.128907-9.234375.765625-.332031 1.535156-.671875 2.289062-.988281 23.476563-10.0625 45.507813-17.558594 65.691407-22.28125l4.773437-1.117187c20.585937-4.382813 34.792969-4.773438 43.253906-4.210938-6.855469 22.261719-29.4375 78.828125-52.699219 131.277344zm0 0"/><path d="m159.707031 187.328125c2.542969 0 5.085938-1 6.996094-2.980469 21.359375-22.195312 45.386719-40.613281 71.40625-54.71875 4.703125-2.550781 6.460937-8.4375 3.90625-13.144531-2.550781-4.703125-8.4375-6.441406-13.152344-3.898437-27.78125 15.054687-53.402343 34.679687-76.148437 58.320312-3.71875 3.859375-3.601563 10 .261718 13.714844 1.894532 1.804687 4.316407 2.707031 6.730469 2.707031zm0 0"/><path d="m284.625 103.738281c1.550781 0 3.121094-.371093 4.585938-1.15625l2.058593-1.113281c7.75-4.191406 15.085938-8.140625 22.609375-11.117188 4.988282-1.980468 7.421875-7.617187 5.445313-12.601562-1.980469-4.96875-7.625-7.414062-12.59375-5.441406-8.582031 3.414062-16.761719 7.828125-24.667969 12.085937l-2.035156 1.09375c-4.714844 2.550781-6.480469 8.429688-3.9375 13.144531 1.734375 3.253907 5.082031 5.105469 8.535156 5.105469zm0 0"/><path d="m45.195312 410.730469c1.84375 2.898437 4.988282 4.488281 8.195313 4.488281 1.785156 0 3.578125-.492188 5.199219-1.511719 4.519531-2.871093 5.859375-8.867187 2.980468-13.394531-6.308593-9.914062-3.039062-42.363281 1.289063-62.238281 1.144531-5.238281-2.171875-10.410157-7.414063-11.542969-5.207031-1.136719-10.398437 2.160156-11.542968 7.398438-2.035156 9.285156-11.523438 56.652343 1.292968 76.800781zm0 0"/></svg>