<svg height="512pt" viewBox="-37 0 511 512" width="512pt" xmlns="http://www.w3.org/2000/svg"><path d="m373.332031 275.484375c-1.253906-4.953125-6.234375-7.957031-11.273437-6.722656-4.960938 1.261719-7.976563 6.300781-6.722656 11.269531 7.160156 28.351562 7.03125 58.828125-.382813 88.144531-1.253906 4.960938 1.753906 10.007813 6.726563 11.269531.769531.195313 1.53125.277344 2.28125.277344 4.148437 0 7.921874-2.800781 8.992187-7.003906 8.152344-32.28125 8.28125-65.902344.378906-97.234375zm0 0"/><path d="m354.683594 229.074219c-5.082032-8.945313-10.945313-17.515625-17.421875-25.476563-3.238281-3.972656-9.082031-4.566406-13.054688-1.335937-3.96875 3.238281-4.574219 9.082031-1.335937 13.054687 5.828125 7.152344 11.105468 14.871094 15.679687 22.921875 1.71875 3.003907 4.84375 4.695313 8.082031 4.695313 1.546876 0 3.125-.390625 4.574219-1.21875 4.441407-2.519532 6-8.179688 3.476563-12.640625zm0 0"/><path d="m258.203125 127.609375c2.773437-17.785156 9.832031-33.984375 20.585937-46.5 12.753907-14.859375 29.007813-22.589844 46.078126-22.085937 5.335937.371093 9.425781-3.804688 9.613281-8.925782.183593-5.132812-3.816407-9.433594-8.9375-9.609375-22.644531-.875-44.304688 9.292969-60.828125 28.535157-6.585938 7.664062-11.976563 16.476562-16.1875 26.003906l-4.378906-29.34375c-4.65625-31.242188-28.777344-55.363282-60.023438-60.023438l-37.957031-5.660156 5.652343 37.960938c4.65625 31.246093 28.777344 55.378906 60.03125 60.035156l33.492188 4.980468c-2.496094 7.03125-4.316406 14.417969-5.492188 22.023438-18.082031-2.113281-33.675781-2.644531-44.53125-2.644531-101.667968 0-185.273437 78.320312-193.957031 177.769531-.574219 5.605469-.863281 11.300781-.863281 17.054688 0 5.75.296875 11.445312.863281 17.050781 8.683594 99.453125 92.289063 177.769531 193.957031 177.769531 112.300782 0 241.207032-22.144531 241.207032-194.820312 0-134.808594-102.644532-176.882813-178.324219-189.570313zm-43.625-47.972656c-23.117187-3.441407-40.964844-21.292969-44.410156-44.410157l-1.957031-13.171874 13.175781 1.964843c23.117187 3.441407 40.964843 21.292969 44.410156 44.402344l1.964844 13.183594zm-195.523437 237.53125c0-81.839844 66.589843-148.433594 148.433593-148.433594s148.4375 66.59375 148.4375 148.433594c0 81.84375-66.59375 148.4375-148.4375 148.4375s-148.433593-66.582031-148.433593-148.4375zm176.265624 176.269531c-25.410156 0-49.523437-5.511719-71.359374-15.234375 13.90625 3.765625 28.453124 5.957031 43.527343 5.957031 92.078125 0 166.988281-74.910156 166.988281-166.988281s-74.910156-166.992187-166.988281-166.992187c-15.074219 0-29.621093 2.1875-43.527343 5.957031 21.835937-9.722657 45.949218-15.234375 71.359374-15.234375 12.117188 0 27.152344.585937 43.628907 2.441406 1.28125 3.386719 4.492187 5.851562 8.339843 5.992188.121094.011718.230469.011718.34375.011718 3.015626 0 5.59375-1.550781 7.292969-3.816406 72.660157 11.617188 163.046875 50.402344 163.046875 171.636719 0 155.328125-112.550781 176.269531-222.652344 176.269531zm0 0"/><path d="m167.488281 253.371094c-5.121093 0-9.277343 4.144531-9.277343 9.277344v32.136718l-22.730469-22.730468c-3.628907-3.628907-9.492188-3.628907-13.117188 0-3.628906 3.628906-3.628906 9.492187 0 13.117187l22.71875 22.71875h-32.132812c-5.121094 0-9.277344 4.148437-9.277344 9.277344 0 5.132812 4.15625 9.28125 9.277344 9.28125h32.144531l-22.730469 22.726562c-3.628906 3.628907-3.628906 9.492188 0 13.117188 1.808594 1.8125 4.183594 2.71875 6.558594 2.71875s4.75-.910157 6.558594-2.71875l22.730469-22.726563v32.136719c0 5.128906 4.15625 9.277344 9.277343 9.277344 5.121094 0 9.277344-4.148438 9.277344-9.277344v-32.136719l22.730469 22.726563c1.808594 1.8125 4.183594 2.71875 6.558594 2.71875s4.75-.910157 6.5625-2.71875c3.625-3.625 3.625-9.488281 0-13.117188l-22.730469-22.726562h32.144531c5.121094 0 9.277344-4.148438 9.277344-9.28125 0-5.128907-4.15625-9.277344-9.277344-9.277344h-32.140625l22.722656-22.71875c3.625-3.628906 3.625-9.492187 0-13.117187-3.628906-3.628907-9.492187-3.628907-13.117187 0l-22.730469 22.730468v-32.136718c0-5.132813-4.15625-9.277344-9.277344-9.277344zm0 0"/><path d="m223.152344 215.128906c0 5.125-4.152344 9.277344-9.277344 9.277344s-9.277344-4.152344-9.277344-9.277344 4.152344-9.277344 9.277344-9.277344 9.277344 4.152344 9.277344 9.277344zm0 0"/><path d="m278.816406 270.792969c0 5.125-4.152344 9.277343-9.277344 9.277343s-9.277343-4.152343-9.277343-9.277343 4.152343-9.277344 9.277343-9.277344 9.277344 4.152344 9.277344 9.277344zm0 0"/><path d="m278.816406 363.566406c0 5.121094-4.152344 9.277344-9.277344 9.277344s-9.277343-4.15625-9.277343-9.277344c0-5.125 4.152343-9.277344 9.277343-9.277344s9.277344 4.152344 9.277344 9.277344zm0 0"/><path d="m223.152344 419.230469c0 5.121093-4.152344 9.277343-9.277344 9.277343s-9.277344-4.15625-9.277344-9.277343c0-5.125 4.152344-9.28125 9.277344-9.28125s9.277344 4.15625 9.277344 9.28125zm0 0"/><path d="m204.597656 382.117188c0 5.125-4.152344 9.277343-9.277344 9.277343s-9.277343-4.152343-9.277343-9.277343c0-5.121094 4.152343-9.277344 9.277343-9.277344s9.277344 4.15625 9.277344 9.277344zm0 0"/><path d="m241.707031 345.011719c0 5.121093-4.15625 9.277343-9.277343 9.277343-5.125 0-9.277344-4.15625-9.277344-9.277343 0-5.125 4.152344-9.277344 9.277344-9.277344 5.121093 0 9.277343 4.152344 9.277343 9.277344zm0 0"/><path d="m241.707031 289.347656c0 5.125-4.15625 9.277344-9.277343 9.277344-5.125 0-9.277344-4.152344-9.277344-9.277344s4.152344-9.277344 9.277344-9.277344c5.121093 0 9.277343 4.152344 9.277343 9.277344zm0 0"/><path d="m204.597656 252.238281c0 5.121094-4.152344 9.277344-9.277344 9.277344s-9.277343-4.15625-9.277343-9.277344c0-5.125 4.152343-9.277343 9.277343-9.277343s9.277344 4.152343 9.277344 9.277343zm0 0"/><path d="m148.933594 252.238281c0 5.121094-4.152344 9.277344-9.277344 9.277344-5.121094 0-9.277344-4.15625-9.277344-9.277344 0-5.125 4.15625-9.277343 9.277344-9.277343 5.125 0 9.277344 4.152343 9.277344 9.277343zm0 0"/><path d="m111.824219 289.347656c0 5.125-4.152344 9.277344-9.277344 9.277344s-9.277344-4.152344-9.277344-9.277344 4.152344-9.277344 9.277344-9.277344 9.277344 4.152344 9.277344 9.277344zm0 0"/><path d="m111.824219 345.011719c0 5.121093-4.152344 9.277343-9.277344 9.277343s-9.277344-4.15625-9.277344-9.277343c0-5.125 4.152344-9.277344 9.277344-9.277344s9.277344 4.152344 9.277344 9.277344zm0 0"/><path d="m148.933594 382.117188c0 5.125-4.152344 9.277343-9.277344 9.277343-5.121094 0-9.277344-4.152343-9.277344-9.277343 0-5.121094 4.15625-9.277344 9.277344-9.277344 5.125 0 9.277344 4.15625 9.277344 9.277344zm0 0"/><path d="m130.378906 419.230469c0 5.121093-4.152344 9.277343-9.277344 9.277343s-9.277343-4.15625-9.277343-9.277343c0-5.125 4.152343-9.28125 9.277343-9.28125s9.277344 4.15625 9.277344 9.28125zm0 0"/><path d="m74.714844 363.566406c0 5.121094-4.152344 9.277344-9.277344 9.277344-5.121094 0-9.277344-4.15625-9.277344-9.277344 0-5.125 4.15625-9.277344 9.277344-9.277344 5.125 0 9.277344 4.152344 9.277344 9.277344zm0 0"/><path d="m74.714844 270.792969c0 5.125-4.152344 9.277343-9.277344 9.277343-5.121094 0-9.277344-4.152343-9.277344-9.277343s4.15625-9.277344 9.277344-9.277344c5.125 0 9.277344 4.152344 9.277344 9.277344zm0 0"/><path d="m130.378906 215.128906c0 5.125-4.152344 9.277344-9.277344 9.277344s-9.277343-4.152344-9.277343-9.277344 4.152343-9.277344 9.277343-9.277344 9.277344 4.152344 9.277344 9.277344zm0 0"/><path d="m93.269531 233.683594c0 5.125-4.152343 9.277344-9.277343 9.277344-5.121094 0-9.277344-4.152344-9.277344-9.277344s4.15625-9.277344 9.277344-9.277344c5.125 0 9.277343 4.152344 9.277343 9.277344zm0 0"/><path d="m260.261719 233.683594c0 5.125-4.15625 9.277344-9.277344 9.277344-5.125 0-9.277344-4.152344-9.277344-9.277344s4.152344-9.277344 9.277344-9.277344c5.121094 0 9.277344 4.152344 9.277344 9.277344zm0 0"/><path d="m93.269531 400.671875c0 5.125-4.152343 9.277344-9.277343 9.277344-5.121094 0-9.277344-4.152344-9.277344-9.277344 0-5.121094 4.15625-9.277344 9.277344-9.277344 5.125 0 9.277343 4.15625 9.277343 9.277344zm0 0"/><path d="m250.984375 391.394531c0 5.125-4.15625 9.277344-9.277344 9.277344-5.125 0-9.277343-4.152344-9.277343-9.277344 0-5.121093 4.152343-9.277343 9.277343-9.277343 5.121094 0 9.277344 4.15625 9.277344 9.277343zm0 0"/><path d="m176.765625 428.503906c0 5.125-4.152344 9.277344-9.277344 9.277344s-9.277343-4.152344-9.277343-9.277344 4.152343-9.277344 9.277343-9.277344 9.277344 4.152344 9.277344 9.277344zm0 0"/><path d="m176.765625 205.851562c0 5.125-4.152344 9.277344-9.277344 9.277344s-9.277343-4.152344-9.277343-9.277344 4.152343-9.277343 9.277343-9.277343 9.277344 4.152343 9.277344 9.277343zm0 0"/><path d="m288.089844 317.179688c0 5.121093-4.152344 9.277343-9.277344 9.277343-5.121094 0-9.277344-4.15625-9.277344-9.277343 0-5.125 4.15625-9.277344 9.277344-9.277344 5.125 0 9.277344 4.152344 9.277344 9.277344zm0 0"/><path d="m65.4375 317.179688c0 5.121093-4.152344 9.277343-9.277344 9.277343-5.121094 0-9.277344-4.15625-9.277344-9.277343 0-5.125 4.15625-9.277344 9.277344-9.277344 5.125 0 9.277344 4.152344 9.277344 9.277344zm0 0"/></svg>