<svg height="512pt" viewBox="0 -1 512.00084 512" width="512pt" xmlns="http://www.w3.org/2000/svg"><path d="m369.726562 164.476562c25.503907-4.050781 45.183594-23.734374 49.238282-49.238281l9.410156-34.0625-34.054688 9.410157c-25.503906 4.050781-45.1875 23.734374-49.246093 49.238281l-4.117188 14.929687h-.011719l-338.167968 338.179688c-3.703125 3.699218-3.703125 9.683594 0 13.382812 1.847656 1.847656 4.269531 2.773438 6.691406 2.773438 2.425781 0 4.847656-.925782 6.695312-2.773438l337.363282-337.363281zm-6.023437-21.265624c2.632813-17.691407 16.292969-31.363282 33.988281-33.984376l3.539063-.910156-.90625 3.53125c-2.632813 17.695313-16.296875 31.367188-33.988281 33.988282l-3.542969.90625zm0 0"/><path d="m307.960938 180.152344 17.429687-30.71875c15.164063-20.902344 15.175781-48.746094 0-69.640625l-17.429687-30.738281-17.429688 30.738281c-15.175781 20.894531-15.175781 48.738281 0 69.640625zm-1.855469-89.574219 1.863281-3.144531 1.855469 3.144531c10.652343 14.371094 10.652343 33.691406 0 48.074219l-1.855469 3.132812-1.855469-3.132812c-10.660156-14.394532-10.660156-33.714844-.007812-48.074219zm0 0"/><path d="m359.660156 183.714844-30.730468 17.429687 30.730468 17.429688c10.453125 7.589843 22.636719 11.378906 34.820313 11.378906 12.183593 0 24.367187-3.789063 34.820312-11.378906l30.738281-17.429688-30.738281-17.429687c-20.882812-15.1875-48.726562-15.1875-69.640625 0zm58.859375 19.285156c-14.371093 10.648438-33.695312 10.648438-48.066406 0l-3.140625-1.855469 3.140625-1.855469c14.390625-10.667968 33.703125-10.667968 48.066406 0l3.140625 1.855469zm0 0"/><path d="m247.710938 240.414062 17.429687-30.742187c15.175781-20.902344 15.175781-48.726563 0-69.628906l-17.429687-30.742188-17.429688 30.742188c-15.167969 20.902343-15.167969 48.726562 0 69.628906zm-1.855469-89.589843 1.855469-3.140625 1.863281 3.140625c10.652343 14.371093 10.652343 33.695312 0 48.058593l-1.863281 3.140626-1.855469-3.140626c-10.652344-14.363281-10.652344-33.6875 0-48.058593zm0 0"/><path d="m299.421875 243.953125-30.730469 17.429687 30.730469 17.429688c10.449219 7.59375 22.632813 11.382812 34.828125 11.382812 12.183594 0 24.367188-3.789062 34.828125-11.382812l30.722656-17.429688-30.722656-17.429687c-20.917969-15.167969-48.753906-15.167969-69.65625 0zm58.855469 19.285156c-14.390625 10.667969-33.703125 10.648438-48.074219 0l-3.140625-1.855469 3.140625-1.855468c14.382813-10.640625 33.703125-10.652344 48.074219 0l3.144531 1.855468zm0 0"/><path d="m187.460938 300.660156 17.429687-30.738281c15.167969-20.894531 15.167969-48.730469 0-69.640625l-17.429687-30.722656-17.429688 30.722656c-15.175781 20.902344-15.175781 48.746094 0 69.640625zm-1.855469-89.605468 1.855469-3.132813 1.855468 3.132813c10.652344 14.390624 10.652344 33.714843 0 48.074218l-1.855468 3.144532-1.863282-3.144532c-10.652344-14.363281-10.652344-33.683594.007813-48.074218zm0 0"/><path d="m239.171875 304.203125-30.730469 17.429687 30.730469 17.429688c10.449219 7.585938 22.636719 11.378906 34.820313 11.378906 12.183593 0 24.367187-3.792968 34.816406-11.378906l30.730468-17.429688-30.730468-17.429687c-20.902344-15.15625-48.734375-15.15625-69.636719 0zm58.855469 19.285156c-14.371094 10.652344-33.683594 10.660157-48.074219 0l-3.140625-1.855469 3.140625-1.855468c14.382813-10.648438 33.703125-10.648438 48.074219 0l3.144531 1.855468zm0 0"/><path d="m127.210938 360.890625 17.433593-30.71875c15.175781-20.902344 15.175781-48.738281 0-69.640625l-17.433593-30.71875-17.429688 30.71875c-15.164062 20.902344-15.164062 48.738281 0 69.640625zm-1.851563-89.578125 1.851563-3.132812 1.855468 3.132812c10.652344 14.390625 10.652344 33.707031 0 48.085938l-1.855468 3.132812-1.851563-3.132812c-10.652344-14.390626-10.652344-33.703126 0-48.085938zm0 0"/><path d="m178.914062 364.453125-30.730468 17.429687 30.730468 17.429688c10.449219 7.589844 22.632813 11.378906 34.816407 11.378906 12.1875 0 24.371093-3.789062 34.820312-11.378906l30.730469-17.429688-30.730469-17.429687c-20.890625-15.175781-48.722656-15.175781-69.636719 0zm58.867188 19.292969c-14.382812 10.648437-33.703125 10.648437-48.074219 0l-3.144531-1.855469 3.144531-1.855469c14.378907-10.667968 33.703125-10.667968 48.074219 0l3.140625 1.855469zm0 0"/><path d="m66.964844 421.160156 17.429687-30.738281c15.175781-20.90625 15.175781-48.730469 0-69.632813l-17.429687-30.746093-17.429688 30.738281c-15.175781 20.90625-15.175781 48.730469 0 69.632812zm-1.867188-89.585937 1.867188-3.144531 1.863281 3.144531c10.652344 14.371093 10.652344 33.691406 0 48.054687l-1.863281 3.144532-1.867188-3.144532c-10.648437-14.371094-10.648437-33.695312 0-48.054687zm0 0"/><path d="m118.671875 424.699219-30.726563 17.429687 30.726563 17.429688c10.453125 7.59375 22.636719 11.382812 34.820313 11.382812 12.195312 0 24.371093-3.789062 34.832031-11.382812l30.730469-17.429688-30.730469-17.429687c-20.902344-15.164063-48.738281-15.164063-69.652344 0zm58.859375 19.285156c-14.382812 10.671875-33.703125 10.671875-48.074219 0l-3.144531-1.855469 3.144531-1.855468c14.382813-10.648438 33.691407-10.648438 48.074219 0l3.144531 1.855468zm0 0"/><path d="m341.863281 72.492188c2.421875 0 4.84375-.929688 6.691407-2.773438l53.558593-53.554688c3.703125-3.703124 3.703125-9.6875 0-13.386718-3.703125-3.703125-9.6875-3.703125-13.386719 0l-53.558593 53.554687c-3.703125 3.703125-3.703125 9.6875 0 13.386719 1.855469 1.847656 4.269531 2.773438 6.695312 2.773438zm0 0"/><path d="m375.335938 83.105469c1.847656 1.847656 4.273437 2.773437 6.695312 2.773437s4.847656-.925781 6.695312-2.773437l66.941407-66.941407c3.703125-3.703124 3.703125-9.683593 0-13.386718-3.703125-3.703125-9.6875-3.703125-13.386719 0l-66.941406 66.941406c-3.703125 3.691406-3.703125 9.6875-.003906 13.386719zm0 0"/><path d="m495.835938 56.332031-66.941407 66.945313c-3.703125 3.699218-3.703125 9.683594 0 13.382812 1.847657 1.847656 4.269531 2.773438 6.695313 2.773438 2.421875 0 4.84375-.925782 6.691406-2.773438l66.941406-66.941406c3.703125-3.703125 3.703125-9.683594 0-13.386719-3.699218-3.699219-9.683594-3.699219-13.386718 0zm0 0"/><path d="m435.589844 76.414062c1.84375 1.84375 4.269531 2.773438 6.691406 2.773438 2.425781 0 4.847656-.929688 6.695312-2.773438l60.246094-60.25c3.703125-3.703124 3.703125-9.683593 0-13.386718-3.699218-3.699219-9.683594-3.703125-13.382812 0l-60.25 60.25c-3.703125 3.691406-3.703125 9.683594 0 13.386718zm0 0"/><path d="m495.835938 109.886719-53.554688 53.546875c-3.703125 3.703125-3.703125 9.6875 0 13.386718 1.84375 1.847657 4.269531 2.773438 6.691406 2.773438 2.425782 0 4.847656-.929688 6.695313-2.773438l53.554687-53.546874c3.703125-3.703126 3.703125-9.683594 0-13.386719-3.699218-3.699219-9.683594-3.699219-13.386718 0zm0 0"/></svg>