<svg height="512pt" viewBox="-126 0 512 512" width="512pt" xmlns="http://www.w3.org/2000/svg"><path d="m62.128906 88.183594 20 20 12.335938-12.332032-32.335938-32.339843-32.335937 32.339843 12.332031 12.332032zm0 0"/><path d="m82.128906 151.800781 12.335938-12.332031-32.335938-32.339844-32.335937 32.339844 12.332031 12.332031 20.003906-20.003906zm0 0"/><path d="m239.15625 50.734375-37.421875-50.523437-17.460937 23.578124-17.464844-23.578124-17.621094 23.796874-17.789062-24.007812-17.191407 23.214844-17.203125-23.214844-17.421875 23.515625-17.417969-23.515625-33.53125 45.253906c-30.480468 41.167969-30.480468 96.472656 0 137.636719l7.867188 10.617187v123.519532l-21.609375-21.605469c-3.410156-3.414063-8.921875-3.414063-12.332031 0-3.410156 3.410156-3.410156 8.921875 0 12.332031l29.78125 29.78125-29.78125 29.789063c-3.410156 3.414062-3.410156 8.925781 0 12.335937 1.703125 1.699219 3.933594 2.554688 6.167968 2.554688 2.234376 0 4.464844-.855469 6.167969-2.554688l21.425781-21.433594v153.773438h191.910157v-148.078125l-.199219-8.921875h-.167969v-34.894531c0-.035157-.015625-.066407-.015625-.101563l.566406-.011718v-127.65625l10.738282-14.488282c28.15625-38.023437 28.15625-89.097656.003906-127.113281zm-72.347656-21.214844 23.402344 31.605469c23.5625 31.804688 23.5625 74.53125 0 106.328125l-14.164063 19.121094v116.078125h-17.449219v-110.3125l10.738282-14.492188c28.160156-38.015625 28.160156-89.097656 0-127.105468l-9.125-12.316407zm-35.410156-.21875 23.40625 31.605469c23.5625 31.804688 23.5625 74.53125 0 106.328125l-14.167969 19.121094v116.289062h-16.941407v-110.523437l10.742188-14.5c28.164062-38.003906 28.164062-89.089844 0-127.105469l-9.378906-12.648437zm-34.394532 0 6.351563 8.566407-.253907.339843 16.808594 22.707031c23.5625 31.804688 23.5625 74.53125 0 106.316407l-14.167968 19.132812v116.289063h-16.894532l.023438-110.558594 6.816406-9.203125c.191406-.261719.347656-.535156.539062-.792969l3.324219-4.484375c28.164063-38.007812 28.164063-89.09375 0-127.105469l-3.414062-4.597656c-.15625-.21875-.285157-.445312-.441407-.65625l-5.253906-7.082031zm-54.355468 26.34375 19.507812-26.34375 6.570312 8.871094-.019531.035156 13.417969 18.121094c25.226562 34.621094 25.246094 80.785156.0625 115.421875l-10.828125 14.621094v116.289062h-17.402344v-114.910156l-11.292969-15.242188c-25.894531-34.941406-25.894531-81.917968-.015624-116.863281zm28.710937 264.453125h139.070313v8.722656h-162.136719l-8.722657-8.722656zm-.140625 174.464844h-17.445312v-122.125h17.445312zm17.445312 0v-122.125h17.445313v122.125zm52.339844 0h-17.449218v-122.125h17.449218zm17.445313 0v-122.125h17.449219v122.125zm52.339843 0h-17.445312v-122.125h17.445312zm-17.445312-139.570312h-153.773438l8.722657-8.722657h162.128906v8.722657zm31.789062-187.542969-14.167968 19.121093v116.082032h-17.449219v-110.316406l10.738281-14.488282c28.160156-38.015625 28.160156-89.097656 0-127.105468l-9.125-12.316407 6.597656-8.90625 23.40625 31.605469c23.566407 31.792969 23.566407 74.53125 0 106.324219zm0 0"/></svg>