<svg height="511pt" viewBox="0 -7 511.99973 511" width="511pt" xmlns="http://www.w3.org/2000/svg"><path d="m498.976562 331.753906-11.59375-13.085937c-43.492187-49.195313-100.09375-78.609375-161.226562-84.421875-2.351562-65.828125-28.695312-125.519532-74.886719-168.925782-48.730469-45.789062-114.324219-68.640624-185.0625-64.296874l-17.457031 1.074218c-26.160156 1.601563-45.554688 20.996094-47.15625 47.164063l-1.078125 17.457031c-6.347656 103.230469 46.164063 194.164062 134.734375 236.207031-5.203125 5.023438-10.296875 10.226563-15.175781 15.742188l-11.582031 13.085937c-17.375 19.648438-17.375 47.074219 0 66.703125l11.582031 13.09375c48.789062 55.171875 114.011719 85.558594 183.65625 85.550781 69.644531 0 134.875-30.378906 183.644531-85.539062l11.59375-13.097656c17.375-19.648438 17.375-47.074219.007812-66.710938zm-26.789062.355469 11.597656 13.09375c4.167969 4.707031 6.613282 10.050781 7.492188 15.527344-50.574219 47.167969-130.035156 46.234375-179.3125-3.042969-47.101563-47.105469-117.800782-56.394531-174.339844-28.117188 6.714844-7.394531 13.753906-14.28125 21.085938-20.652343l1.460937-1.246094c38.789063-33.140625 85.863281-51.863281 134.449219-54.023437.152344-.011719.304687-.011719.457031-.011719 6.84375-.292969 13.722656-.265625 20.609375.113281l.578125.027344c59.027344 3.421875 114 30.910156 155.921875 78.332031zm-389.125-311.316406c58.964844 0 113.300781 20.761719 154.320312 59.304687 41.820313 39.296875 65.910157 93.308594 68.496094 153.042969-.425781-.011719-.851562-.011719-1.277344-.011719-.285156 0-.578124-.019531-.863281-.019531-6.480469 0-12.902343.355469-19.292969.875-.628906.050781-1.253906.101563-1.886718.152344-25.296875 2.269531-49.8125 8.589843-72.980469 18.683593-21.503906-23.007812-26.371094-52.046874-31.261719-82.769531-3.214844-20.15625-6.542968-41.007812-14.738281-61.136719-17.113281-41.960937-52.085937-73.757812-93.457031-87.726562 4.320312-.210938 8.640625-.394531 12.941406-.394531zm-62.300781 47.175781 1.066406-17.457031c.394531-6.472657 2.585937-12.121094 6.023437-16.6875 50.707032 1.890625 97.316407 34.609375 116.933594 82.75 7.3125 17.964843 10.445313 37.640625 13.480469 56.679687 4.886719 30.703125 9.957031 62.332032 32.191406 88.886719-13.519531 7.363281-26.464843 16.097656-38.714843 26.097656-85.75-36.707031-136.996094-122.488281-130.980469-220.269531zm282.96875 408.84375c-63.75.011719-123.585938-27.945312-168.460938-78.691406l-11.582031-13.105469c-4.28125-4.839844-6.726562-10.347656-7.535156-15.984375 50.417968-46.914062 132.4375-46 181.449218 3.011719 29.132813 29.140625 67.414063 43.707031 105.683594 43.707031 23.1875 0 46.34375-5.4375 67.503906-16.128906-44.699218 49.761718-103.949218 77.191406-167.058593 77.191406zm0 0"/></svg>