<svg height="511pt" viewBox="-57 1 511 511.99844" width="511pt" xmlns="http://www.w3.org/2000/svg"><path d="m120.074219 258.277344c15.574219-9.164063 27.835937-28.820313 20.136719-52.082032-1.527344-4.625-6.515626-7.140624-11.148438-5.605468-4.625 1.527344-7.140625 6.523437-5.605469 11.148437 4.917969 14.875-3.566406 26.164063-12.324219 31.320313-8.808593 5.171875-22.863281 7.125-33.507812-4.433594-3.308594-3.582031-8.890625-3.820312-12.472656-.519531-3.585938 3.300781-3.824219 8.890625-.523438 12.472656 9.339844 10.144531 20.746094 14.214844 31.71875 14.214844 8.570313.007812 16.878906-2.480469 23.726563-6.515625zm0 0"/><path d="m313.621094 309.417969c-4.625 1.523437-7.140625 6.519531-5.605469 11.148437 4.914063 14.871094-3.566406 26.171875-12.324219 31.328125-8.808594 5.183594-22.871094 7.125-33.507812-4.441406-3.3125-3.582031-8.882813-3.820313-12.476563-.519531-3.582031 3.300781-3.820312 8.890625-.519531 12.472656 9.339844 10.144531 20.746094 14.222656 31.71875 14.222656 8.578125 0 16.886719-2.488281 23.738281-6.523437 15.570313-9.160157 27.832031-28.820313 20.132813-52.082031-1.527344-4.628907-6.53125-7.160157-11.15625-5.605469zm0 0"/><path d="m171.160156 339.066406c-4.589844-1.632812-9.640625.792969-11.253906 5.386719-5.207031 14.769531-18.839844 18.539063-28.917969 17.230469-10.136719-1.289063-22.449219-8.351563-23.800781-24.019532-.414062-4.855468-4.695312-8.570312-9.550781-8.039062-4.855469.414062-8.457031 4.6875-8.042969 9.550781 2.101562 24.46875 21.179688 37.726563 39.152344 40.023438 1.933594.246093 3.910156.371093 5.90625.371093 16.542968 0 34.621094-8.632812 41.886718-29.246093 1.632813-4.59375-.777343-9.632813-5.378906-11.257813zm0 0"/><path d="m208.199219 296.773438c1.933593.246093 3.902343.371093 5.90625.371093 16.542969 0 34.625-8.625 41.886719-29.246093 1.625-4.601563-.785157-9.640626-5.382813-11.253907-4.589844-1.632812-9.640625.792969-11.253906 5.382813-5.210938 14.769531-18.8125 18.476562-28.921875 17.234375-10.132813-1.289063-22.449219-8.359375-23.796875-24.023438-.417969-4.855469-4.707031-8.5625-9.554688-8.039062-4.851562.414062-8.457031 4.6875-8.039062 9.550781 2.097656 24.46875 21.175781 37.738281 39.15625 40.023438zm0 0"/><path d="m236.644531 388.757812c-4.6875 1.351563-7.378906 6.25-6.039062 10.925782 4.34375 15.050781-4.574219 26.007812-13.523438 30.828125-8.996093 4.839843-23.117187 6.242187-33.316406-5.71875-3.160156-3.71875-8.738281-4.160157-12.445313-.996094-3.710937 3.15625-4.160156 8.730469-1 12.445313 9.402344 11.042968 21.355469 15.457031 32.859376 15.457031 7.96875 0 15.730468-2.125 22.253906-5.632813 15.914062-8.554687 28.925781-27.726562 22.128906-51.269531-1.339844-4.6875-6.230469-7.390625-10.917969-6.039063zm0 0"/><path d="m329.410156 220.875c-10.539062 11.589844-24.539062 9.746094-33.332031 4.644531-8.835937-5.128906-17.441406-16.421875-12.597656-31.382812 1.5-4.636719-1.039063-9.613281-5.675781-11.113281-4.613282-1.503907-9.621094 1.039062-11.113282 5.675781-7.574218 23.355469 4.855469 43 20.535156 52.089843 6.777344 3.929688 14.96875 6.347657 23.417969 6.347657 11.035157 0 22.5-4.121094 31.832031-14.390625 3.28125-3.609375 3.019532-9.1875-.589843-12.472656-3.609375-3.273438-9.191407-3-12.476563.601562zm0 0"/><path d="m397.738281 251.585938c0-19.824219-10.082031-37.921876-26.640625-48.410157-1.6875-22.828125-16.78125-42.398437-38.375-49.875-.636718-1.847656-1.5-3.558593-2.3125-5.296875 19.65625-16.09375 33.277344-35.203125 40.402344-56.972656 1.511719-4.601562-.960938-9.550781-5.542969-11.105469-60.070312-20.425781-94.199219-10.097656-111.136719.21875-9.765624-50.757812-42.816406-71.183593-55.976562-77.433593-1.617188-1.640626-3.777344-2.710938-6.214844-2.710938h-1.863281c-2.296875 0-4.253906.96875-5.746094 2.480469-12.808593 5.96875-46.558593 26.253906-56.445312 77.65625-16.949219-10.3125-51.09375-20.628907-111.136719-.21875-4.582031 1.550781-7.054688 6.503906-5.542969 11.101562 7.820313 23.898438 23.914063 45.15625 46.792969 62.023438-23.464844 7.503906-39.847656 29.148437-39.847656 54.40625 0 3.582031.34375 7.167969 1.015625 10.691406-11.785157 10.8125-18.667969 26.214844-18.667969 42.273437 0 15.414063 6.292969 30.152344 17.167969 40.863282-5.417969 8.921875-8.339844 19.226562-8.339844 29.757812 0 24.664063 15.367187 45.875 37.808594 53.90625-1.652344 5.414063-2.5 11.054688-2.5 16.710938 0 24.636718 15.605469 46.214844 38.53125 54.160156 7.945312 22.921875 29.519531 38.53125 54.160156 38.53125 8.578125 0 16.921875-1.890625 24.566406-5.527344 10.726563 14.488282 27.664063 23.183594 46.054688 23.183594 17.152343 0 33.101562-7.558594 43.941406-20.535156 5.765625 1.917968 11.742187 2.878906 17.851563 2.878906 27.125 0 50.527343-19.457031 56.089843-45.425781 25.96875-5.5625 45.425781-28.964844 45.425781-56.089844 0-4.222656-.476562-8.414063-1.417968-12.554687 17.167968-10.257813 27.902344-28.832032 27.902344-49.238282 0-14.910156-5.851563-29.132812-16.023438-39.726562 10.167969-10.589844 16.019531-24.8125 16.019531-39.722656zm-366.59375-157.75c72.394531-21.757813 95.964844 8.140624 96.132813 8.359374 2.15625 3.035157 5.96875 4.40625 9.542968 3.417969 3.582032-.980469 6.171876-4.097656 6.472657-7.796875 4.324219-53.097656 36.675781-73.496094 47.722656-78.953125 11.042969 5.457031 43.402344 25.855469 47.722656 78.953125.296875 3.65625 2.859375 6.691406 6.378907 7.707032 3.535156 1.023437 7.347656-.300782 9.554687-3.222657.246094-.316406 23.832031-30.21875 96.21875-8.457031-6.367187 14.644531-16.492187 27.832031-30.199219 39.378906-.363281-.390625-.761718-.722656-1.128906-1.105468-.65625-.667969-1.316406-1.320313-2.003906-1.96875-1.589844-1.480469-3.242188-2.878907-4.972656-4.164063-.378907-.285156-.75-.574219-1.136719-.839844-1.941407-1.367187-3.984375-2.570312-6.082031-3.683593-.644532-.34375-1.296876-.660157-1.949219-.976563-2.183594-1.050781-4.414063-2.003906-6.71875-2.773437-.160157-.054688-.3125-.125-.46875-.175782-2.472657-.804687-5.03125-1.371094-7.617188-1.828125-.652343-.113281-1.308593-.21875-1.976562-.308593-2.65625-.390626-5.34375-.644532-8.070313-.644532-19.578125 0-37.339844 9.867188-47.78125 25.609375-10.628906-10.585937-25.160156-16.78125-40.492187-16.78125-14.910157 0-29.132813 5.851563-39.726563 16.023438-10.59375-10.167969-24.8125-16.023438-39.722656-16.023438-2.296875 0-4.554688.175781-6.796875.441407-.726563.085937-1.441406.210937-2.15625.316406-1.507813.238281-3 .53125-4.472656.890625-.820313.195312-1.636719.390625-2.449219.617187-1.382812.398438-2.742188.882813-4.085938 1.386719-1.746093.644531-3.441406 1.398437-5.109374 2.207031-.699219.34375-1.414063.652344-2.101563 1.035156-1.351563.730469-2.648437 1.535157-3.9375 2.375-.335937.21875-.667969.4375-1.003906.667969-2.957031 2.003907-5.773438 4.210938-8.324219 6.761719-18.144531-12.933594-31.535156-28.773438-39.261719-46.445312zm332 204.695312c10.609375 7.453125 16.9375 19.605469 16.9375 32.503906 0 15.996094-9.515625 30.355469-24.246093 36.597656l-7.796876 3.304688 2.984376 7.925781c1.710937 4.554688 2.578124 9.25 2.578124 13.964844 0 20.425781-15.933593 37.800781-36.273437 39.546875l-7.40625.636719-.636719 7.40625c-1.746094 20.339843-19.121094 36.273437-39.546875 36.273437-5.914062 0-11.660156-1.316406-17.089843-3.921875l-7.046876-3.371093-4.210937 6.574218c-7.351563 11.503906-19.859375 18.371094-33.445313 18.371094-14.875 0-28.382812-8.226562-35.257812-21.476562l-4.609375-8.882813-8.234375 5.6875c-6.65625 4.589844-14.441406 7.015625-22.519531 7.015625-18.246094 0-34.074219-12.375-38.496094-30.109375l-1.28125-5.144531-5.144531-1.28125c-17.726563-4.414063-30.113282-20.242188-30.113282-38.496094 0-6.550781 1.554688-12.800781 4.628907-18.585938l5.808593-10.9375-12.234374-1.921874c-19.414063-3.054688-33.511719-19.527344-33.511719-39.175782 0-9.332031 3.308593-18.40625 9.332031-25.558594l6.125-7.28125-7.722656-5.5625c-10.367188-7.46875-16.5625-19.515624-16.5625-32.21875 0-12.675781 5.890625-24.300781 16.148437-31.902343l4.976563-3.691407-1.78125-5.929687c-1.121094-3.746094-1.6875-7.582031-1.6875-11.441406 0-19.375 13.859375-35.824219 32.953125-39.097657l4.441406-.761718 1.984375-4.042969c1.070312-2.179687 2.367188-4.175781 3.761719-6.082031.050781-.0625.121093-.085938.164062-.15625 3.664063-4.910156 8.257813-8.785156 13.410157-11.511719.300781-.160156.59375-.328125.902343-.476563.941407-.46875 1.914063-.867187 2.886719-1.253906.679688-.265625 1.359375-.519531 2.046875-.75.804687-.265625 1.605469-.519531 2.425781-.734375.980469-.253906 1.980469-.457031 2.976563-.636719.636719-.113281 1.261719-.253906 1.90625-.335937 1.714843-.226563 3.425781-.367187 5.171875-.367187 12.898437 0 25.046875 6.328124 32.503906 16.9375l7.222656 10.277343 7.222656-10.277343c7.457032-10.609376 19.605469-16.9375 32.5-16.9375 14.214844 0 27.429688 7.703124 34.507813 20.097656l9.84375 17.257812 6.203125-18.875c5.375-16.328125 20.535156-27.3125 37.71875-27.3125 2.050781 0 4.042969.203125 6.011719.511719.601562.089844 1.195312.222656 1.785156.335937 1.414063.285157 2.796875.644532 4.15625 1.070313.585937.1875 1.175781.355469 1.75.566406 1.792969.664063 3.53125 1.414063 5.199219 2.3125.324218.175781.617187.40625.941406.589844 1.335938.769531 2.613281 1.617187 3.851562 2.535156.625.464844 1.226563.980469 1.816407 1.480469.875.734375 1.703125 1.511719 2.507812 2.3125.601563.601562 1.199219 1.195312 1.765625 1.839844.839844.953125 1.605469 1.976562 2.347656 3.015625.363282.503906.769532.964843 1.105469 1.484375.007813.019531.035157.027344.042969.042968 2.339844 3.609376 4.132812 7.644532 5.214844 12.015626l1.28125 5.144531 5.144531 1.28125c17.726563 4.414062 30.113281 20.242187 30.070313 39.152343l-.160157 5.566407 4.96875 2.542969c13.390625 6.84375 21.714844 20.394531 21.714844 35.375 0 12.894531-6.328125 25.042968-16.9375 32.5l-10.277344 7.222656zm0 0"/></svg>