<svg height="512pt" viewBox="-1 0 512 512.00414" width="512pt" xmlns="http://www.w3.org/2000/svg"><path d="m419.75 90.019531c-83.441406-83.425781-178.578125-110.054687-267.980469-74.902343l-11.523437 4.539062 6.738281 10.40625c3.109375 4.804688 6.21875 9.242188 9.332031 13.507812-23.273437 11.761719-45.667968 28.300782-66.734375 49.359376-44.542969 44.542968-75.984375 120.425781-86.289062 208.21875-7.132813 60.746093-2.433594 115.109374 11.824219 149.621093 2.675781 9.34375 6.851562 17.074219 12.675781 22.757813.355469.34375.800781.484375 1.1875.769531.484375.566406.960937 1.125 1.457031 1.660156.121094.132813.214844.285157.332031.417969.09375.097656.113281.222656.214844.324219.050781.050781.113281.101562.171875.152343.03125.03125.042969.0625.074219.089844.027343.03125.070312.042969.097656.0625.050781.050782.113281.101563.171875.152344.132812.128906.253906.304688.386719.4375.839843.871094 1.9375 1.621094 2.847656 2.449219.183594.144531.34375.316406.527344.457031 22.210937 19.941406 63.402343 31.15625 117.214843 31.492188.792969.011718 1.582032.011718 2.375.011718 84.984376 0 198.21875-28.292968 261.871094-91.945312 21.664063-21.664063 38.566406-44.828125 50.421875-69.015625 4.46875 2.957031 9.121094 5.90625 14.085938 8.847656l10.394531 6.160156 4.257812-11.320312c33.210938-88.398438 6.179688-182.414063-76.132812-264.710938zm-17.367188 315.707031c-60.125 60.128907-169.085937 86.394532-249.785156 86-13.710937-.082031-26.566406-1.035156-38.503906-2.613281 55.535156-11.007812 124.46875-46.804687 156.277344-98.734375 2.929687-4.773437 1.429687-11.015625-3.34375-13.933594-4.792969-2.917968-11.011719-1.417968-13.929688 3.34375-30.53125 49.832032-104.167968 85.835938-157.71875 91.832032-23.246094 2.574218-41.148437-.605469-49.5-8.753906-.140625-.140626-.265625-.324219-.394531-.464844-5.808594-12.375 27.9375-86.03125 76.363281-121.960938 4.484375-3.332031 5.429688-9.675781 2.09375-14.164062-3.34375-4.5-9.683594-5.433594-14.164062-2.097656-33.113282 24.570312-64.019532 69.867187-77.628906 104.449218-.253907-5.960937-.058594-12.445312.730468-19.484375 6.007813-53.5625 42-127.210937 91.832032-157.730469 4.773437-2.917968 6.273437-9.160156 3.34375-13.933593-2.917969-4.769531-9.148438-6.261719-13.929688-3.339844-45.488281 27.855469-78.589844 84.191406-93.515625 135.070313-.75-20.449219.121094-42.742188 2.816406-65.691407 9.625-82.117187 39.71875-155.488281 80.484375-196.253906 20.640625-20.640625 42.539063-36.550781 65.164063-47.402344 32.019531 37.398438 62.386719 49.488281 81.84375 53.125-2.199219 3.082031-4.074219 6.109375-6.019531 9.164063-1.023438 1.601562-2.207032 3.21875-3.160157 4.8125-1.265625 2.105468-2.277343 4.171875-3.433593 6.269531-1.378907 2.496094-2.878907 5.015625-4.105469 7.480469-.566407 1.144531-.980469 2.25-1.507813 3.382812-1.582031 3.363282-3.164062 6.71875-4.46875 10.011719-.152344.386719-.253906.75-.394531 1.136719-22.089844 56.613281-5.644531 101.753906-1.027344 112.402344l1.59375 3.679687 3.679688 1.59375c9.886719 4.273437 49.519531 18.835937 100.488281 3.171875.019531 0 .027344-.011719.046875-.011719 3.679687-1.136719 7.4375-2.503906 11.230469-3.964843.585937-.230469 1.164062-.382813 1.75-.617188 2.878906-1.144531 5.828125-2.5625 8.765625-3.910156 1.550781-.71875 3.070312-1.296875 4.640625-2.078125 2.300781-1.144531 4.660156-2.554688 7-3.828125 2.25-1.238282 4.46875-2.332032 6.738281-3.699219 1.640625-.984375 3.324219-2.207031 4.976563-3.273437 2.988281-1.917969 5.96875-3.75 8.996093-5.90625 3.933594 21.175781 17.996094 55.253906 63.707031 90.324218-10.921874 23.230469-27.035156 45.605469-48.03125 66.597656zm78.511719-69.84375c-3.019531-1.945312-5.675781-3.882812-8.453125-5.816406l-3.527344-2.542968c-68.515624-49.5-63.542968-94.570313-63.207031-97.03125l4.582031-27.269532-.171874.144532-20.988282 17.832031c-66.875 56.804687-128.492187 40.632812-145.234375 34.59375-1.132812-3.140625-2.625-7.863281-3.921875-13.890625-1.730468-8.046875-3.121094-18.433594-2.867187-30.542969.566406-27.238281 9.421875-63.179687 41.382812-100.792969l17.804688-20.941406-26.273438 4.246094-.824219.121094c-.121093.019531-.421874.058593-.839843.089843-.132813.011719-.332031.019531-.503907.03125-.234374.019531-.507812.03125-.800781.050781-8.988281.34375-45.75-1.683593-87.113281-53.148437l-2.898438-3.59375c-1.945312-2.523437-3.890624-4.964844-5.847656-7.722656 77.953125-25.109375 160.625 1.074219 234.210938 74.667969 72.675781 72.632812 99.179687 154.375 75.492187 231.515624zm0 0"/></svg>