<svg height="511pt" viewBox="-195 1 511 511.99846" width="511pt" xmlns="http://www.w3.org/2000/svg"><path d="m69.921875 252.894531v-63.019531c29.800781-6.449219 52.070313-45.542969 52.070313-94.417969 0-53.527343-26.6875-95.457031-60.746094-95.457031-34.0625 0-60.746094 41.929688-60.746094 95.457031 0 48.875 22.265625 87.96875 52.066406 94.414063v63.019531c-14.925781 3.878906-26.035156 17.347656-26.035156 33.480469v190.917968c0 19.140626 15.570312 34.710938 34.710938 34.710938 19.144531 0 34.710937-15.570312 34.710937-34.710938v-190.917968c.003906-16.128906-11.105469-29.597656-26.03125-33.476563zm-52.066406-157.4375c0-42.339843 19.871093-78.101562 43.390625-78.101562 23.515625 0 43.386718 35.761719 43.386718 78.101562 0 42.339844-19.871093 78.101563-43.386718 78.101563-23.519532 0-43.390625-35.761719-43.390625-78.101563zm60.746093 381.832031c0 9.570313-7.785156 17.355469-17.355468 17.355469-9.574219 0-17.355469-7.785156-17.355469-17.355469v-190.917968c0-9.570313 7.78125-17.355469 17.355469-17.355469 9.570312 0 17.355468 7.785156 17.355468 17.355469zm0 0"/><path d="m69.921875 303.730469c0 4.792969-3.882813 8.675781-8.675781 8.675781-4.792969 0-8.679688-3.882812-8.679688-8.675781s3.886719-8.679688 8.679688-8.679688c4.792968 0 8.675781 3.886719 8.675781 8.679688zm0 0"/><path d="m69.921875 338.441406c0 4.792969-3.882813 8.675782-8.675781 8.675782-4.792969 0-8.679688-3.882813-8.679688-8.675782 0-4.792968 3.886719-8.679687 8.679688-8.679687 4.792968 0 8.675781 3.886719 8.675781 8.679687zm0 0"/></svg>