<svg height="511pt" viewBox="-216 1 511 511.99846" width="511pt" xmlns="http://www.w3.org/2000/svg"><path d="m43.890625 303.730469c0 4.792969-3.886719 8.675781-8.679687 8.675781-4.792969 0-8.675782-3.882812-8.675782-8.675781s3.882813-8.679688 8.675782-8.679688c4.792968 0 8.679687 3.886719 8.679687 8.679688zm0 0"/><path d="m43.890625 338.441406c0 4.792969-3.886719 8.675782-8.679687 8.675782-4.792969 0-8.675782-3.882813-8.675782-8.675782 0-4.792968 3.882813-8.679687 8.675782-8.679687 4.792968 0 8.679687 3.886719 8.679687 8.679687zm0 0"/><path d="m60.644531 14.597656c-9.769531-9.824218-23.765625-14.597656-42.789062-14.597656-4.789063 0-8.679688 3.878906-8.679688 8.679688v251.660156c0 .945312.261719 1.8125.539063 2.664062-5.667969 6.175782-9.214844 14.335938-9.214844 23.367188v190.917968c0 19.140626 15.566406 34.710938 34.710938 34.710938 19.144531 0 34.710937-15.570312 34.710937-34.710938v-190.917968c0-11.113282-5.347656-20.921875-13.503906-27.273438 22.148437-28.671875 22.199219-71.082031 22.179687-132.738281l.054688-19.140625c.21875-41.414062.390625-74.128906-18.007813-92.621094zm-8.078125 462.691406c0 9.570313-7.785156 17.355469-17.355468 17.355469-9.574219 0-17.355469-7.785156-17.355469-17.355469v-190.917968c0-9.570313 7.78125-17.355469 17.355469-17.355469 9.570312 0 17.355468 7.785156 17.355468 17.355469zm8.730469-370.160156-.050781 19.230469c.015625 61.042969-.042969 101.90625-21.617188 125.753906-1.457031-.191406-2.898437-.453125-4.417968-.453125-3.011719 0-5.882813.503906-8.675782 1.230469v-235.023437c9.625 1.074218 16.859375 3.992187 21.808594 8.964843 13.300781 13.382813 13.152344 42.914063 12.953125 80.296875zm0 0"/></svg>