<svg height="512pt" viewBox="-196 0 512 512" width="512pt" xmlns="http://www.w3.org/2000/svg"><path d="m68.265625 307.199219c0 4.710937-3.820313 8.535156-8.53125 8.535156-4.714844 0-8.535156-3.824219-8.535156-8.535156 0-4.714844 3.820312-8.535157 8.535156-8.535157 4.710937 0 8.53125 3.820313 8.53125 8.535157zm0 0"/><path d="m68.265625 341.332031c0 4.714844-3.820313 8.535157-8.53125 8.535157-4.714844 0-8.535156-3.820313-8.535156-8.535157 0-4.710937 3.820312-8.53125 8.535156-8.53125 4.710937 0 8.53125 3.820313 8.53125 8.53125zm0 0"/><path d="m59.734375 0c-32.941406 0-59.734375 26.804688-59.734375 59.734375v128c0 30.027344 22.296875 54.886719 51.199219 59.050781v10.425782c-14.675781 3.816406-25.601563 17.058593-25.601563 32.921874v187.734376c0 18.824218 15.308594 34.132812 34.132813 34.132812s34.132812-15.308594 34.132812-34.132812v-187.734376c0-15.863281-10.921875-29.105468-25.597656-32.921874v-10.425782c28.902344-4.164062 51.199219-29.023437 51.199219-59.050781v-128c.003906-32.929687-26.792969-59.734375-59.730469-59.734375zm17.066406 290.132812v187.734376c0 9.414062-7.65625 17.066406-17.066406 17.066406-9.414063 0-17.066406-7.652344-17.066406-17.066406v-187.734376c0-9.410156 7.652343-17.066406 17.066406-17.066406 9.410156 0 17.066406 7.65625 17.066406 17.066406zm25.601563-102.398437c0 23.527344-19.140625 42.664063-42.667969 42.664063s-42.664063-19.136719-42.664063-42.664063v-128c0-23.527344 19.136719-42.667969 42.664063-42.667969s42.667969 19.140625 42.667969 42.667969zm0 0"/></svg>