<svg height="512pt" viewBox="-163 0 512 512" width="512pt" xmlns="http://www.w3.org/2000/svg"><path d="m101.617188 303.730469c0 4.792969-3.886719 8.675781-8.679688 8.675781s-8.675781-3.882812-8.675781-8.675781 3.882812-8.679688 8.675781-8.679688 8.679688 3.886719 8.679688 8.679688zm0 0"/><path d="m101.617188 338.441406c0 4.792969-3.886719 8.675782-8.679688 8.675782s-8.675781-3.882813-8.675781-8.675782c0-4.792968 3.882812-8.679687 8.675781-8.679687s8.679688 3.886719 8.679688 8.679687zm0 0"/><path d="m180.316406 8.15625c-4.425781-5.179688-10.875-8.15625-17.695312-8.15625h-139.367188c-6.820312 0-13.265625 2.976562-17.695312 8.167969-4.425782 5.1875-6.339844 12.027343-5.265625 18.761719l30.050781 187.78125c1.804688 11.359374 11.464844 19.59375 22.964844 19.59375h30.953125v18.589843c-14.9375 3.878907-26.035157 17.347657-26.035157 33.476563v190.917968c0 19.144532 15.566407 34.710938 34.710938 34.710938 19.140625 0 34.710938-15.566406 34.710938-34.710938v-190.917968c0-16.128906-11.097657-29.597656-26.035157-33.476563v-18.589843h30.953125c11.492188 0 21.15625-8.234376 22.964844-19.585938l30.050781-187.789062c1.078125-6.734376-.839843-13.574219-5.265625-18.773438zm-70.023437 278.214844v190.917968c0 9.570313-7.78125 17.355469-17.355469 17.355469-9.570312 0-17.355469-7.785156-17.355469-17.355469v-190.917968c0-9.570313 7.785157-17.355469 17.355469-17.355469 9.574219 0 17.355469 7.785156 17.355469 17.355469zm58.160156-262.1875-30.050781 187.800781c-.460938 2.882813-2.90625 4.964844-5.824219 4.964844h-79.269531c-2.917969 0-5.375-2.082031-5.832032-4.972657l-30.054687-187.792968c-.371094-2.332032.679687-3.980469 1.339844-4.753906.667969-.78125 2.132812-2.074219 4.492187-2.074219h139.367188c2.371094 0 3.828125 1.292969 4.496094 2.0625.660156.785156 1.710937 2.433593 1.335937 4.765625zm0 0"/><path d="m92.9375 43.390625c-4.796875 0-8.675781 3.878906-8.675781 8.675781v130.171875c0 4.796875 3.878906 8.675781 8.675781 8.675781 4.800781 0 8.679688-3.878906 8.679688-8.675781v-130.171875c0-4.796875-3.878907-8.675781-8.679688-8.675781zm0 0"/><path d="m137.066406 43.988281c-4.84375-.503906-9.105468 2.757813-9.722656 7.5l-16.617188 129.109375c-.605468 4.753906 2.742188 9.101563 7.5 9.71875.382813.042969.753907.070313 1.117188.070313 4.304688 0 8.039062-3.195313 8.601562-7.570313l16.625-129.109375c.609376-4.746093-2.75-9.09375-7.503906-9.71875zm0 0"/><path d="m49.175781 43.988281c-4.757812.617188-8.113281 4.964844-7.5 9.71875l16.628907 129.105469c.5625 4.371094 4.292968 7.566406 8.597656 7.566406.367187 0 .738281-.027344 1.121094-.070312 4.757812-.617188 8.113281-4.964844 7.5-9.71875l-16.628907-129.09375c-.625-4.75-4.808593-8.019532-9.71875-7.507813zm0 0"/></svg>