<svg height="512pt" viewBox="0 -24 512.00178 512" width="512pt" xmlns="http://www.w3.org/2000/svg"><path d="m485.433594 27.089844-27.089844-27.089844-179.902344 179.902344-240.351562 240.34375c-.207032.050781-.402344.105468-.617188.160156l.085938.367188-37.558594 37.558593 15.75 3.613281c8.53125 1.96875 17.476562 2.941407 26.847656 2.941407 76.785156 0 181.511719-65.847657 311.914063-196.25l6.324219-6.324219-37.714844-37.710938c17.585937-3.800781 45.378906-12.476562 71.734375-32.019531 2.046875-1.714843 50.339843-42.585937 77.511719-88.230469l.582031-1.171874c.457031-1.003907 4.910156-9.722657 22.394531-6.277344l3.703125.722656 3.101563-2.125c.886718-.601562 8.613281-6.21875 9.722656-18.175781 1.339844-14.445313-7.550782-31.355469-26.4375-50.234375zm-206.992188 178.105468 22.519532 22.519532h.007812l12.761719 12.761718c-119.5 114.105469-168.132813 147.5-240.574219 169.992188zm-241.648437 241.628907 10.488281-10.492188c98.796875-25.738281 148.386719-58.355469 279.101562-183.203125l9.148438 9.148438c-126.0625 124.804687-228.660156 188.121094-298.738281 184.546875zm456.609375-368.3125c-22.027344-2.40625-33.316406 9.5-36.722656 17.21875-25.667969 42.808593-72.851563 82.75-72.898438 82.8125-30.71875 22.761719-64.75 29.066406-76.097656 30.605469l-16.589844-16.59375 167.25-167.265626 14.441406 14.445313c19.09375 19.101563 21.542969 30.363281 21.3125 35.371094-.070312 1.414062-.359375 2.539062-.695312 3.40625zm0 0"/><path d="m352.695312 174.1875c0 7.410156-6.007812 13.414062-13.414062 13.414062-7.410156 0-13.414062-6.003906-13.414062-13.414062 0-7.40625 6.003906-13.414062 13.414062-13.414062 7.40625 0 13.414062 6.007812 13.414062 13.414062zm0 0"/><path d="m460.015625 66.867188c0 7.410156-6.007813 13.417968-13.417969 13.417968-7.40625 0-13.414062-6.007812-13.414062-13.417968 0-7.40625 6.007812-13.414063 13.414062-13.414063 7.410156 0 13.417969 6.007813 13.417969 13.414063zm0 0"/></svg>