<svg height="511pt" viewBox="-13 1 511 511.99843" width="511pt" xmlns="http://www.w3.org/2000/svg"><path d="m459.863281 26.070312-26.070312-26.070312-171.597657 171.597656-261.695312 261.6875 57.101562 49.835938-.011718.007812 6.253906 5.464844.035156.011719 20.234375 17.652343c3.960938 3.828126 8.957031 5.742188 15.09375 5.742188 12.605469 0 30.03125-8.109375 53.25-24.585938 26.335938-18.691406 58.269531-47.082031 89.921875-79.9375 29.445313-30.578124 123.113282-132.53125 93.003906-161.921874l-21.605468-21.828126-3.277344-3.320312-.011719.007812-5.367187-5.421874c16.820312-3.65625 43.226562-11.96875 68.300781-30.550782 1.949219-1.648437 48.074219-40.671875 74.011719-84.269531l.566406-1.144531c.425781-.9375 4.640625-9.0625 21.011719-5.8125l3.660156.726562 3.070313-2.097656c.859374-.578125 8.339843-6.023438 9.417968-17.574219 1.3125-13.898437-7.207031-30.109375-25.296875-48.199219zm-136.855469 232.152344c1.851563 1.789063 2.394532 14.199219-18.839843 46.605469-17.140625 26.148437-43.609375 58.246094-74.542969 90.355469-30.910156 32.085937-61.957031 59.714844-87.425781 77.785156-31.535157 22.394531-43.890625 22.3125-46.117188 20.242188l-8.40625-7.34375c44.753907-16.890626 114.734375-88.078126 130.421875-104.421876 15.316406-15.972656 81.976563-87.167968 96.648438-131.574218l8.121094 8.203125zm-25.113281-25.359375 2.101563 2.113281c.53125 17.070313-31.386719 68.210938-94.6875 134.199219-62.753906 65.417969-115.949219 102.597657-133.683594 102.683594l-1.390625-1.210937-.984375-.859376-42.824219-37.394531 235.6875-235.675781zm169.125-157.851562c-20.90625-2.144531-31.808593 9.203125-35.105469 16.617187-24.464843 40.796875-69.421874 78.859375-69.457031 78.902344-29.101562 21.570312-61.347656 27.613281-72.289062 29.109375l-15.484375-15.484375 159.109375-159.105469 13.542969 13.546875c18.105468 18.105469 20.453124 28.734375 20.242187 33.457032-.054687 1.214843-.285156 2.1875-.558594 2.957031zm0 0"/><path d="m333 166.644531c0 7.070313-5.730469 12.800781-12.800781 12.800781-7.070313 0-12.800781-5.730468-12.800781-12.800781 0-7.070312 5.730468-12.800781 12.800781-12.800781 7.070312 0 12.800781 5.730469 12.800781 12.800781zm0 0"/><path d="m435.386719 64.257812c0 7.070313-5.730469 12.804688-12.800781 12.804688-7.070313 0-12.800782-5.734375-12.800782-12.804688 0-7.066406 5.730469-12.800781 12.800782-12.800781 7.070312 0 12.800781 5.734375 12.800781 12.800781zm0 0"/></svg>