<svg height="512pt" viewBox="-69 0 512 512.00201" width="512pt" xmlns="http://www.w3.org/2000/svg"><path d="m347.738281 143.433594c.84375-.242188 1.675781-.484375 2.527344-.738282 2.578125-.761718 4.640625-2.6875 5.605469-5.1875.511718-1.328124.632812-2.726562.476562-4.105468-.042968-1.484375-.363281-2.941406-1.144531-4.242188-16.117187-26.625-44.527344-44.328125-84.550781-52.773437 4.917968-6.777344 8.589844-14.085938 10.925781-21.878907.347656-1.160156.40625-2.335937.277344-3.472656-.105469-3.433594-2.167969-6.609375-5.5625-7.871094-31.824219-11.84375-51.203125-6.871093-61.804688-.703124-2.902343-3.316407-6.96875-5.71875-11.925781-7.21875l-2.335938-27.3125c-.226562-2.585938-1.597656-4.945313-3.742187-6.410157-2.144531-1.4687498-4.832031-1.902343-7.332031-1.171875l-43.386719 12.636719c-2.273437.65625-4.164063 2.210937-5.269531 4.3125-1.09375 2.089844-1.285156 4.535156-.535156 6.777344l6.039062 17.988281c-10.753906-5.96875-29.949219-10.472656-61.058594 1.101562-3.394531 1.257813-5.457031 4.4375-5.5625 7.871094-.132812 1.136719-.070312 2.3125.277344 3.472656 2.449219 8.183594 6.292969 15.777344 11.429688 22.738282-39.605469 8.410156-66.101563 25.582031-80.679688 52.25-.703125 1.285156-.972656 2.707031-.972656 4.140625-.121094 1.363281.027344 2.75.5625 4.050781 1 2.421875 3.03125 4.261719 5.539062 5.015625 3.089844.921875 6.160156 1.761719 9.222656 2.515625-16.632812 23.15625-24.757812 55.488281-24.757812 98.222656-.015625 118.515625 115.878906 268.5625 186.902344 268.5625 71.019531 0 186.917968-150.046875 186.917968-268.582031-.011718-43.816406-8.558593-76.714844-26.082031-99.988281zm-315.441406-14.898438c15.152344-19.128906 40.664063-31.050781 77.609375-36.277344 3.351562-.476562 6.117188-2.851562 7.089844-6.089843.277344-.9375.355468-1.890625.3125-2.835938.113281-2.578125-.886719-5.128906-2.871094-6.890625-6.433594-5.695312-11.371094-12.117187-14.808594-19.152344 32.484375-9.382812 42.800782 4.183594 43.148438 4.652344 2.023437 3.121094 5.824218 4.625 9.433594 3.695313.53125-.132813 1.03125-.3125 1.511718-.539063l1.300782 3.871094 9.804687 29.234375c.625 1.851563 1.820313 3.34375 3.332031 4.382813.042969.027343.070313.078124.113282.105468.15625.105469.347656.113282.511718.210938.703125.40625 1.441406.710937 2.230469.910156.148437.035156.269531.136719.414063.164062.203124.035157.417968-.027343.617187-.007812.332031.042969.652344.164062 1 .164062.589844 0 1.1875-.0625 1.777344-.183593l25.488281-5.328125c4.296875-.902344 7.246094-4.867188 6.875-9.234375l-2.238281-26.1875c1.058593 1.058593 2.402343 1.863281 3.914062 2.289062 3.503907.972657 7.324219-.417969 9.46875-3.367187.457031-.632813 10.785157-14.207032 43.234375-4.84375-3.316406 6.664062-8.039062 12.84375-14.179687 18.433594-1.953125 1.769531-2.917969 4.304687-2.785157 6.863281-.035156.945312.042969 1.910156.335938 2.847656.988281 3.21875 3.757812 5.570313 7.089844 6.03125 37.707031 5.273437 64.332031 17.519531 80.976562 37.230469-35.382812 8.710937-54.367187 4.53125-64.203125-.929688-9.476562-5.257812-11.480469-12.234375-11.515625-12.355468-.945312-4.160157-4.667968-7.023438-9.03125-6.734376-4.253906.285157-7.679687 3.617188-8.070312 7.863282-4.355469 47.121094-37.117188 64.753906-48.894532 69.613281-11.773437-4.859375-44.535156-22.492187-48.890624-69.613281-.339844-3.679688-3.003907-6.691406-6.585938-7.585938-.6875-.171875-1.371094-.25-2.058594-.25-2.90625 0-5.699218 1.472656-7.332031 3.980469-.957031 1.4375-22.78125 33.339844-94.125 15.863281zm151.53125-108.574218 1.976563 23.152343v.019531l3.4375 40.074219-10.414063 2.167969-12.789063-38.132812v-.007813l-6.753906-20.140625zm3.070313 474.683593c-61.390626 0-169.5625-145.234375-169.5625-251.222656 0-43.589844 8.929687-74.550781 27.058593-94.730469 43.683594 7.1875 69.660157-3.609375 83.492188-13.613281 11.914062 49.125 51.894531 65.535156 60.53125 68.539063.921875.320312 1.882812.484374 2.855469.484374.960937 0 1.925781-.164062 2.851562-.484374 8.429688-2.933594 46.734375-18.621094 59.636719-65.078126 1.675781 1.320313 3.550781 2.613282 5.648437 3.835938 16.246094 9.476562 39.417969 11.074219 68.84375 5.070312 18.902344 20.148438 28.210938 51.519532 28.210938 95.976563-.011719 105.988281-108.175782 251.222656-169.566406 251.222656zm0 0"/><path d="m82.753906 188.066406s-13.15625 45.941406-13.15625 50.375c0 4.4375 1.726563 8.609375 4.867188 11.753906 3.132812 3.140626 7.308594 4.867188 11.742187 4.867188 4.433594 0 8.609375-1.726562 11.742188-4.867188 3.140625-3.144531 4.867187-7.308593 4.867187-11.753906 0-4.433594-13.15625-50.375-13.15625-50.375-1.058594-3.394531-5.859375-3.394531-6.90625 0zm0 0"/><path d="m185.398438 222.777344s-13.15625 45.941406-13.15625 50.378906c0 4.433594 1.726562 8.605469 4.867187 11.75 3.132813 3.140625 7.304687 4.867188 11.742187 4.867188 4.433594 0 8.609376-1.726563 11.742188-4.867188 3.140625-3.144531 4.867188-7.308594 4.867188-11.75 0-4.4375-13.15625-50.378906-13.15625-50.378906-1.050782-3.390625-5.855469-3.390625-6.90625 0zm0 0"/><path d="m289.257812 187.960938c-1.058593-3.394532-5.859374-3.394532-6.910156 0 0 0-13.15625 45.941406-13.15625 50.378906 0 4.433594 1.726563 8.609375 4.871094 11.75 3.132812 3.140625 7.304688 4.867187 11.742188 4.867187 4.433593 0 8.609374-1.726562 11.738281-4.867187 3.144531-3.140625 4.871093-7.308594 4.871093-11.75 0-4.445313-13.15625-50.378906-13.15625-50.378906zm0 0"/><path d="m124.652344 300.984375s-13.160156 45.941406-13.160156 50.378906c0 4.433594 1.726562 8.609375 4.871093 11.75 3.132813 3.140625 7.304688 4.867188 11.742188 4.867188 4.433593 0 8.609375-1.726563 11.738281-4.867188 3.144531-3.140625 4.871094-7.304687 4.871094-11.75 0-4.4375-13.15625-50.378906-13.15625-50.378906-1.050782-3.394531-5.855469-3.394531-6.90625 0zm0 0"/><path d="m185.398438 378.878906s-13.15625 45.941406-13.15625 50.378906c0 4.433594 1.726562 8.609376 4.867187 11.75 3.132813 3.140626 7.304687 4.867188 11.742187 4.867188 4.433594 0 8.609376-1.726562 11.742188-4.867188 3.140625-3.140624 4.867188-7.304687 4.867188-11.75 0-4.4375-13.15625-50.378906-13.15625-50.378906-1.050782-3.390625-5.855469-3.390625-6.90625 0zm0 0"/><path d="m246.144531 300.882812s-13.15625 45.941407-13.15625 50.375c0 4.433594 1.726563 8.609376 4.867188 11.75 3.132812 3.144532 7.308593 4.871094 11.742187 4.871094s8.609375-1.726562 11.742188-4.871094c3.140625-3.140624 4.867187-7.304687 4.867187-11.75 0-4.433593-13.15625-50.375-13.15625-50.375-1.046875-3.394531-5.855469-3.394531-6.90625 0zm0 0"/></svg>