<svg height="511pt" viewBox="0 -1 511.99823 511" width="511pt" xmlns="http://www.w3.org/2000/svg"><path d="m504.671875 22.496094-14.902344-14.902344c-9.453125-9.46875-26.039062-9.449219-35.480469 0l-147.308593 147.300781 17.582031 17.585938-51.707031 51.707031c-.855469.113281-1.710938.285156-2.566407.425781-51.402343-11.863281-116.402343 17.253907-198.484374 89.023438-13.628907 11.925781-29.332032 25.9375-43.214844 41.417969-35.765625 39.859374-38.320313 98.816406-5.710938 131.429687 15.3125 15.273437 36.410156 22.820313 58.628906 22.8125 25.089844 0 51.601563-9.621094 72.734376-28.574219 15.421874-13.835937 29.460937-29.566406 41.394531-43.238281 29.367187-33.605469 51.332031-64.613281 67.144531-94.773437 10.5-20.015626 17.421875-38.1875 21.152344-55.5625 2.167968-10.101563 3.171875-19.855469 3.011718-28.984376l-.027343-2.226562c-.035157-6.894531-.410157-13.378906-1.863281-18.777344l52.089843-52.082031 20.222657 20.21875 147.300781-147.308594c4.71875-4.730469 7.332031-11.027343 7.332031-17.746093 0-6.714844-2.589844-13.023438-7.328125-17.746094zm-470.710937 440.078125c.292968-2.164063.730468-4.425781 1.46875-6.824219 5.851562-19.015625 19.875-39.699219 41.722656-61.550781 11.730468-11.960938 24.40625-24.316407 39.894531-38.878907 32.40625-30.429687 59.46875-53.640624 85.171875-73.058593l2.707031-2.042969c11.359375-8.585938 24.167969-18.277344 37.242188-25.847656zm220.171874-194.984375c-5.808593 9.746094-12.542968 19.179687-18.351562 27.265625l-.96875 1.347656c-22.695312 31.617187-48.492188 60.640625-68.4375 82.390625-16.984375 18.527344-33.0625 35.265625-49.148438 51.175781-13.203124 13.066407-24.726562 22.675781-36.269531 30.230469-14.484375 9.484375-26.171875 14.707031-34.925781 15.695312zm-212.28125 99.363281c13.21875-14.75 28.449219-28.335937 41.6875-39.90625 58.148438-50.84375 106.347657-79.203125 145.972657-85.796875-12.59375 7.652344-24.582031 16.628906-35.324219 24.765625l-2.699219 2.039063c-26.222656 19.808593-53.757812 43.414062-86.632812 74.296874-15.679688 14.722657-28.523438 27.246094-40.359375 39.328126-22.234375 22.230468-37.117188 43.847656-44.503906 64.355468-6.464844-25.21875 1.035156-55.878906 21.859374-79.082031zm205.164063-32.519531c-15.152344 28.902344-36.339844 58.777344-64.773437 91.316406-11.597657 13.273438-25.199219 28.53125-39.886719 41.707031-23.125 20.726563-53.640625 28.253907-78.796875 21.925781 9.957031-3.785156 19.453125-9.429687 27.160156-14.472656 12.558594-8.230468 24.964844-18.546875 39.039062-32.476562 16.292969-16.113282 32.566407-33.054688 49.757813-51.796875 20.273437-22.117188 46.53125-51.660157 69.769531-84.046875l.960938-1.335938c5.238281-7.296875 11.1875-15.597656 16.703125-24.425781-.167969.875-.222657 1.691406-.410157 2.566406-3.402343 15.773438-9.785156 32.464844-19.523437 51.039063zm125.355469-219.738282 37.792968 12.59375-4.820312 4.820313-37.792969-12.59375zm-40.199219 40.199219 21.304687-21.304687 37.792969 12.59375-33.898437 33.898437zm159.90625-109.515625-67.839844 67.839844-37.796875-12.59375 80.445313-80.433594c2.714843-2.746094 7.550781-2.734375 10.277343 0l14.90625 14.902344c1.359376 1.359375 2.109376 3.1875 2.109376 5.148438.015624 1.949218-.730469 3.773437-2.101563 5.136718zm0 0"/></svg>