<svg height="511pt" viewBox="0 0 511.99641 511" width="511pt" xmlns="http://www.w3.org/2000/svg"><path d="m175.390625 438.621094c-15.605469 15.679687-39.742187 23.359375-64.644531 20.488281-4.984375-.574219-9.546875 3.027344-10.121094 8.046875-.578125 5.011719 3.027344 9.542969 8.042969 10.109375 4.269531.496094 8.503906.734375 12.683593.734375 26.019532 0 49.933594-9.335938 67.003907-26.488281 3.554687-3.574219 3.546875-9.359375-.027344-12.925781-3.585937-3.566407-9.363281-3.546876-12.9375.035156zm0 0"/><path d="m454.949219 31.601562c-3.574219-3.578124-9.363281-3.578124-12.9375 0l-21.308594 21.300782c-3.566406 3.574218-3.566406 9.363281 0 12.925781 1.78125 1.785156 4.121094 2.679687 6.464844 2.679687 2.339843 0 4.679687-.898437 6.46875-2.679687l21.304687-21.300781c3.582032-3.554688 3.582032-9.351563.007813-12.925782zm0 0"/><path d="m410.664062 88.8125c3.574219-3.574219 3.574219-9.351562 0-12.925781-3.578124-3.574219-9.355468-3.574219-12.929687 0l-60.464844 60.46875c-3.578125 3.574219-3.578125 9.351562 0 12.925781 1.78125 1.78125 4.121094 2.679688 6.464844 2.679688 2.339844 0 4.679687-.898438 6.460937-2.679688zm0 0"/><path d="m368.425781 156.917969-21.640625 21.640625c-3.566406 3.574218-3.566406 9.359375 0 12.925781 1.78125 1.78125 4.121094 2.679687 6.460938 2.679687s4.683594-.898437 6.472656-2.679687l21.625-21.625c3.574219-3.574219 3.574219-9.351563.007812-12.933594-3.574218-3.558593-9.351562-3.566406-12.925781-.007812zm0 0"/><path d="m438.347656 86.984375-44.078125 44.078125c-3.574219 3.574219-3.574219 9.351562 0 12.925781 1.785157 1.785157 4.125 2.679688 6.464844 2.679688s4.679687-.898438 6.464844-2.679688l44.074219-44.074219c3.578124-3.578124 3.578124-9.355468 0-12.929687-3.574219-3.574219-9.351563-3.574219-12.925782 0zm0 0"/><path d="m469.785156 55.542969-10.867187 10.871093c-3.574219 3.574219-3.574219 9.351563 0 12.925782 1.78125 1.785156 4.125 2.679687 6.464843 2.679687 2.339844 0 4.679688-.898437 6.460938-2.679687l10.871094-10.871094c3.574218-3.574219 3.574218-9.351562 0-12.925781-3.574219-3.574219-9.363282-3.566407-12.929688 0zm0 0"/><path d="m511.90625 61.003906c-.082031-2.039062-1.316406-20.488281-20.488281-39.660156-2.039063-2.148438-20.304688-20.84375-40.007813-20.84375-.171875 0-.347656 0-.519531 0l-1.800781.035156-1.65625.703125c-3.984375 1.710938-98.589844 43.472657-169.621094 169.171875l-1.269531 2.257813.089843 2.589843c.074219 1.875 1.316407 17.761719 16.539063 35.253907l-76.101563 76.089843c-3.621093-5.300781-7.039062-9.523437-9.910156-12.386718-3.839844-3.839844-9.789062-7.167969-18.941406-7.425782-9.140625-.253906-21.476562 2.5625-38.078125 11.007813-2.898437 1.472656-5.851563 3.082031-8.859375 4.828125-21.019531 12.179688-44.339844 30.691406-66.648438 53.007812-25.816406 25.839844-47.46875 53.722657-60.925781 78.527344-15.511719 28.570313-17.910156 49.476563-6.929687 60.457032 9.902344 9.902343 42.054687 27.464843 79.628906 33.691406 8.46875 1.398437 17.855469 2.339844 27.8125 2.339844 30.171875 0 65.570312-8.632813 96.1875-39.257813 55.851562-55.851563 37.921875-127.492187 16.328125-168.585937l79.667969-79.660157c7.589844 5.863281 18.863281 12.625 30.71875 12.625h.539062l1.792969-.035156 1.652344-.703125c3.996093-1.71875 98.601562-43.472656 169.621093-169.183594l1.269532-2.257812zm-482.136719 361.875c12.460938-22.957031 33.535157-50.046875 57.808594-74.316406 24.179687-24.183594 49.34375-43.527344 70.863281-54.464844 12.679688-6.453125 22.398438-9.011718 28.679688-9.011718 3.417968 0 5.8125.757812 7.121094 2.066406 3.710937 3.710937 3.007812 16.21875-6.949219 35.800781-10.945313 21.519531-30.289063 46.679687-54.460938 70.863281-24.273437 24.273438-51.363281 45.347656-74.320312 57.808594-23.238281 12.625-35.957031 12.9375-38.816407 10.074219-2.863281-2.871094-2.542968-15.578125 10.074219-38.820313zm167.707031 35.582032c-35.242187 35.242187-78.246093 36.753906-108.089843 31.804687-16.390625-2.714844-31.332031-7.777344-43.324219-13.0625 6.5-2.269531 13.519531-5.359375 21.164062-9.507813 24.792969-13.46875 52.679688-35.109374 78.523438-60.953124 25.507812-25.5 46.042969-52.316407 57.835938-75.507813 3.347656-6.582031 5.777343-12.472656 7.515624-17.773437 17.5625 34.917968 34.769532 96.601562-13.625 145zm138.164063-241.050782c-9.710937-.96875-21.386719-11.050781-25.269531-15.085937l-2.167969-2.257813c-1.625-1.761718-2.988281-3.480468-4.242187-5.164062.640624-.382813 1.316406-.6875 1.867187-1.234375l23.804687-23.808594c3.578126-3.574219 3.578126-9.351563 0-12.925781-3.574218-3.574219-9.351562-3.574219-12.925781 0l-21.144531 21.144531c-.121094-.464844-.230469-.929687-.3125-1.3125 62.445312-108.890625 144.640625-151.65625 157.660156-157.910156 9.710938.96875 21.386719 11.0625 25.269532 15.09375l2.167968 2.257812c9.308594 10.09375 12.113282 19.199219 12.953125 23.3125-62.449219 108.871094-144.652343 151.636719-157.660156 157.890625zm0 0"/></svg>