<svg height="512pt" viewBox="-9 0 512 512" width="512pt" xmlns="http://www.w3.org/2000/svg"><path d="m121.902344 442.339844c-4.804688 0-8.707032 3.894531-8.707032 8.707031v17.417969c0 4.8125 3.902344 8.707031 8.707032 8.707031 4.808594 0 8.707031-3.894531 8.707031-8.707031v-17.417969c0-4.8125-3.898437-8.707031-8.707031-8.707031zm0 0"/><path d="m121.902344 337.851562c4.808594 0 8.707031-3.890624 8.707031-8.707031v-17.414062c0-4.816407-3.898437-8.707031-8.707031-8.707031-4.804688 0-8.707032 3.890624-8.707032 8.707031v17.414062c0 4.816407 3.898438 8.707031 8.707032 8.707031zm0 0"/><path d="m103.433594 383.941406c1.699218 1.699219 3.925781 2.550782 6.15625 2.550782 2.230468 0 4.457031-.855469 6.164062-2.550782 3.394532-3.40625 3.394532-8.917968 0-12.3125l-6.164062-6.15625c-3.40625-3.40625-8.914063-3.40625-12.320313 0-3.394531 3.40625-3.394531 8.914063 0 12.3125zm0 0"/><path d="m140.371094 396.253906c-3.40625-3.40625-8.910156-3.40625-12.3125 0s-3.402344 8.90625 0 12.3125l6.15625 6.15625c1.699218 1.699219 3.929687 2.550782 6.15625 2.550782 2.230468 0 4.460937-.855469 6.15625-2.550782 3.40625-3.40625 3.40625-8.910156 0-12.3125zm0 0"/><path d="m69.660156 390.097656c0-4.816406-3.902344-8.707031-8.707031-8.707031h-17.417969c-4.804687 0-8.707031 3.890625-8.707031 8.707031s3.902344 8.707032 8.707031 8.707032h17.417969c4.804687 0 8.707031-3.890626 8.707031-8.707032zm0 0"/><path d="m174.148438 390.097656c0 4.816406 3.898437 8.707032 8.707031 8.707032h17.414062c4.804688 0 8.707031-3.890626 8.707031-8.707032s-3.902343-8.707031-8.707031-8.707031h-17.414062c-4.808594 0-8.707031 3.890625-8.707031 8.707031zm0 0"/><path d="m72.644531 427.042969-12.3125 12.3125c-3.402343 3.402343-3.402343 8.90625 0 12.308593 1.699219 1.699219 3.929688 2.550782 6.15625 2.550782 2.230469 0 4.460938-.851563 6.15625-2.550782l12.3125-12.308593c3.40625-3.40625 3.40625-8.910157 0-12.3125-3.40625-3.40625-8.90625-3.40625-12.3125 0zm0 0"/><path d="m165.003906 355.703125c2.226563 0 4.457032-.855469 6.15625-2.550781l12.3125-12.3125c3.402344-3.402344 3.402344-8.90625 0-12.3125-3.40625-3.402344-8.910156-3.402344-12.3125 0l-12.3125 12.3125c-3.40625 3.40625-3.40625 8.910156 0 12.3125 1.699219 1.695312 3.925782 2.550781 6.15625 2.550781zm0 0"/><path d="m72.644531 328.519531c-3.40625-3.40625-8.90625-3.40625-12.3125 0-3.402343 3.402344-3.402343 8.90625 0 12.308594l12.3125 12.3125c1.699219 1.699219 3.929688 2.550781 6.15625 2.550781 2.230469 0 4.457031-.851562 6.15625-2.550781 3.40625-3.40625 3.40625-8.90625 0-12.3125zm0 0"/><path d="m171.160156 427.042969c-3.40625-3.40625-8.910156-3.40625-12.3125 0-3.40625 3.40625-3.40625 8.90625 0 12.3125l12.3125 12.308593c1.699219 1.699219 3.925782 2.550782 6.15625 2.550782 2.226563 0 4.457032-.851563 6.15625-2.550782 3.40625-3.402343 3.40625-8.90625 0-12.308593zm0 0"/><path d="m134.214844 365.472656-6.15625 6.15625c-3.40625 3.40625-3.40625 8.910156 0 12.3125 1.699218 1.699219 3.925781 2.550782 6.15625 2.550782 2.226562 0 4.457031-.855469 6.15625-2.550782l6.15625-6.15625c3.40625-3.40625 3.40625-8.910156 0-12.3125-3.40625-3.40625-8.90625-3.40625-12.3125 0zm0 0"/><path d="m115.753906 396.253906c-3.402344-3.40625-8.914062-3.40625-12.320312 0l-6.164063 6.15625c-3.402343 3.394532-3.402343 8.90625 0 12.3125 1.699219 1.699219 3.9375 2.550782 6.164063 2.550782 2.230468 0 4.460937-.855469 6.15625-2.550782l6.164062-6.15625c3.398438-3.398437 3.398438-8.917968 0-12.3125zm0 0"/><path d="m439.753906 29.621094c-3.40625-3.40625-8.914062-3.40625-12.320312 0l-20.296875 20.289062c-3.394531 3.40625-3.394531 8.914063 0 12.3125 1.699219 1.699219 3.929687 2.550782 6.15625 2.550782 2.230469 0 4.460937-.855469 6.164062-2.550782l20.289063-20.289062c3.414062-3.386719 3.414062-8.90625.007812-12.3125zm0 0"/><path d="m397.578125 84.113281c3.402344-3.40625 3.402344-8.910156 0-12.3125-3.40625-3.402343-8.910156-3.402343-12.3125 0l-57.589844 57.589844c-3.40625 3.40625-3.40625 8.910156 0 12.3125 1.699219 1.699219 3.925781 2.550781 6.15625 2.550781s4.457031-.855468 6.15625-2.550781zm0 0"/><path d="m357.339844 148.984375-20.609375 20.609375c-3.40625 3.40625-3.40625 8.90625 0 12.3125 1.699219 1.695312 3.925781 2.550781 6.15625 2.550781 2.226562 0 4.457031-.855469 6.15625-2.550781l20.601562-20.601562c3.40625-3.398438 3.40625-8.910157 0-12.3125-3.390625-3.40625-8.910156-3.40625-12.304687-.007813zm0 0"/><path d="m423.949219 82.371094-41.976563 41.976562c-3.40625 3.40625-3.40625 8.910156 0 12.3125 1.699219 1.699219 3.925782 2.550782 6.15625 2.550782 2.230469 0 4.457032-.851563 6.15625-2.550782l41.976563-41.976562c3.40625-3.40625 3.40625-8.910156 0-12.3125-3.402344-3.402344-8.914063-3.40625-12.3125 0zm0 0"/><path d="m453.894531 52.425781-10.351562 10.355469c-3.40625 3.402344-3.40625 8.90625 0 12.308594 1.699219 1.699218 3.929687 2.550781 6.15625 2.550781 2.230469 0 4.457031-.851563 6.15625-2.550781l10.351562-10.351563c3.40625-3.40625 3.40625-8.90625 0-12.3125-3.402343-3.402343-8.914062-3.394531-12.3125 0zm0 0"/><path d="m494 57.625c-.078125-1.941406-1.253906-19.511719-19.523438-37.773438-1.921874-2.042968-19.328124-19.851562-38.089843-19.851562-.167969 0-.332031 0-.5 0l-1.714844.0351562-1.574219.6718748c-3.804687 1.636719-93.910156 41.402344-161.546875 161.117188l-1.210937 2.152343.085937 2.464844c.070313 1.828125 1.316407 17.660156 16.839844 34.792969l-91.625 91.636719c-20.421875-15.421875-45.730469-24.675782-73.238281-24.675782-67.21875 0-121.902344 54.679688-121.902344 121.902344 0 67.21875 54.683594 121.902344 121.902344 121.902344 67.222656 0 121.902344-54.683594 121.902344-121.902344 0-33.445312-13.554688-63.773437-35.4375-85.820312l91.253906-91.242188c7.191406 5.328125 17.28125 11.039063 27.914062 11.039063h.511719l1.707031-.035157 1.574219-.667968c3.808594-1.640625 93.910156-41.398438 161.550781-161.121094l1.207032-2.152344zm-372.097656 436.960938c-57.617188 0-104.488282-46.871094-104.488282-104.488282 0-57.617187 46.871094-104.488281 104.488282-104.488281 57.617187 0 104.488281 46.871094 104.488281 104.488281 0 57.617188-46.871094 104.488282-104.488281 104.488282zm204.222656-287.996094c-9.246094-.925782-20.367188-10.527344-24.058594-14.367188l-2.066406-2.152344c-1.546875-1.679687-2.84375-3.316406-4.039062-4.917968.609374-.367188 1.253906-.65625 1.777343-1.175782l22.671875-22.675781c3.40625-3.40625 3.40625-8.910156 0-12.3125-3.402344-3.40625-8.90625-3.40625-12.308594 0l-20.140624 20.140625c-.113282-.445312-.21875-.886718-.296876-1.253906 59.460938-103.703125 137.75-144.4375 150.148438-150.390625 9.25.921875 20.367188 10.535156 24.066406 14.375l2.054688 2.132813c8.875 9.628906 11.546875 18.300781 12.339844 22.222656-59.472657 103.6875-137.757813 144.417968-150.148438 150.375zm0 0"/></svg>