<svg height="511pt" viewBox="-2 1 511 511.99843" width="511pt" xmlns="http://www.w3.org/2000/svg"><path d="m124.863281 439.496094c-3.464843 3.464844-3.464843 9.0625 0 12.527344 1.730469 1.726562 3.996094 2.59375 6.265625 2.59375 2.265625 0 4.53125-.867188 6.261719-2.59375l105.949219-105.960938c3.464844-3.464844 3.464844-9.0625 0-12.523438-3.464844-3.464843-9.0625-3.464843-12.523438 0zm0 0"/><path d="m93.542969 420.699219c1.726562 1.730469 3.992187 2.597656 6.261719 2.597656 2.265624 0 4.535156-.871094 6.261718-2.597656l123.667969-123.664063c3.460937-3.464844 3.460937-9.0625 0-12.527344-3.464844-3.460937-9.0625-3.460937-12.527344 0l-123.664062 123.667969c-3.457031 3.460938-3.457031 9.070313 0 12.523438zm0 0"/><path d="m180.703125 270.902344c-3.464844-3.460938-9.0625-3.460938-12.523437 0l-105.949219 105.960937c-3.464844 3.464844-3.464844 9.0625 0 12.523438 1.726562 1.726562 3.996093 2.59375 6.261719 2.59375 2.265624 0 4.535156-.867188 6.261718-2.59375l105.953125-105.957031c3.460938-3.464844 3.460938-9.0625-.003906-12.527344zm0 0"/><path d="m452.199219 30.132812c-3.460938-3.460937-9.066407-3.460937-12.53125 0l-20.648438 20.640626c-3.453125 3.464843-3.453125 9.070312 0 12.523437 1.726563 1.730469 3.996094 2.597656 6.261719 2.597656 2.269531 0 4.535156-.871093 6.273438-2.597656l20.636718-20.636719c3.472656-3.445312 3.472656-9.0625.007813-12.527344zm0 0"/><path d="m409.292969 85.566406c3.464843-3.460937 3.464843-9.058594 0-12.523437-3.464844-3.464844-9.0625-3.464844-12.523438 0l-58.585937 58.585937c-3.464844 3.464844-3.464844 9.0625 0 12.523438 1.726562 1.730468 3.996094 2.597656 6.261718 2.597656 2.269532 0 4.535157-.871094 6.261719-2.597656zm0 0"/><path d="m368.367188 151.550781-20.964844 20.96875c-3.457032 3.460938-3.457032 9.070313 0 12.523438 1.726562 1.726562 3.996094 2.59375 6.261718 2.59375 2.269532 0 4.535157-.867188 6.269532-2.59375l20.953125-20.949219c3.460937-3.464844 3.460937-9.0625.007812-12.535156-3.464843-3.445313-9.070312-3.453125-12.527343-.007813zm0 0"/><path d="m436.117188 83.796875-42.707032 42.703125c-3.464844 3.464844-3.464844 9.0625 0 12.523438 1.730469 1.730468 3.996094 2.597656 6.265625 2.597656 2.265625 0 4.535157-.871094 6.261719-2.597656l42.703125-42.703126c3.464844-3.464843 3.464844-9.0625 0-12.523437-3.464844-3.464844-9.0625-3.464844-12.523437 0zm0 0"/><path d="m466.578125 53.335938-10.53125 10.53125c-3.464844 3.460937-3.464844 9.0625 0 12.523437 1.726563 1.726563 3.996094 2.59375 6.261719 2.59375 2.269531 0 4.535156-.867187 6.261718-2.59375l10.53125-10.53125c3.464844-3.464844 3.464844-9.0625 0-12.523437-3.460937-3.464844-9.070312-3.457032-12.523437 0zm0 0"/><path d="m507.386719 58.621094c-.082031-1.976563-1.277344-19.851563-19.851563-38.425782-1.964844-2.082031-19.671875-20.195312-38.761718-20.195312-.167969 0-.335938 0-.503907 0l-1.746093.0351562-1.601563.6835938c-3.875 1.664062-95.527344 42.117188-164.34375 163.90625l-1.230469 2.1875.089844 2.507812c.070312 1.84375 1.308594 17.582032 16.582031 34.785157l-47.210937 47.214843-31.316406-31.316406c-6.820313-6.828125-17.476563-8.308594-25.894532-3.621094l-13.578125 7.539063c-6.5625 3.648437-13.492187 6.96875-20.832031 10.484375-17.636719 8.460938-35.875 17.195312-49.863281 31.191406l-95.738281 95.71875c-14.78125 14.792969-14.78125 38.859375 0 53.652344l85.925781 85.914062c7.164062 7.164063 16.6875 11.117188 26.820312 11.117188 10.132813 0 19.65625-3.945312 26.824219-11.117188l95.726562-95.730468c14.074219-14.082032 22.933594-32.382813 31.507813-50.082032 3.480469-7.183593 6.757813-13.96875 10.355469-20.433593l7.527344-13.5625c4.6875-8.441407 3.199218-19.089844-3.621094-25.910157l-31.320313-31.320312 47.628907-47.628906c7.34375 5.550781 17.921874 11.726562 29.082031 11.726562h.519531l1.738281-.035156 1.601563-.683594c3.871094-1.664062 95.523437-42.109375 164.339844-163.90625l1.234374-2.1875zm-226.597657 253.84375-7.527343 13.570312c-3.835938 6.890625-7.378907 14.214844-10.816407 21.3125-7.929687 16.378906-16.121093 33.3125-28.082031 45.273438l-95.726562 95.738281c-7.636719 7.652344-20.957031 7.644531-28.601563 0l-85.921875-85.914063c-7.882812-7.882812-7.882812-20.71875 0-28.601562l95.726563-95.730469c11.851562-11.851562 28.699218-19.929687 45-27.742187 7.246094-3.480469 14.746094-7.070313 21.769531-10.976563l13.582031-7.535156c.601563-.339844 1.265625-.507813 1.929688-.507813 1.035156 0 2.074218.410157 2.84375 1.171876l75.160156 75.160156c1.257812 1.265625 1.535156 3.230468.664062 4.78125zm55.8125-102.300782c-9.40625-.941406-20.71875-10.710937-24.480468-14.617187l-2.101563-2.1875c-1.574219-1.707031-2.894531-3.375-4.109375-5.003906.621094-.371094 1.277344-.664063 1.808594-1.199219l23.066406-23.066406c3.464844-3.460938 3.464844-9.0625 0-12.523438-3.464844-3.464844-9.0625-3.464844-12.523437 0l-20.492188 20.488282c-.113281-.449219-.21875-.902344-.300781-1.273438 60.5-105.5 140.140625-146.9375 152.757812-152.996094 9.40625.941406 20.71875 10.71875 24.480469 14.625l2.101563 2.1875c9.015625 9.777344 11.734375 18.601563 12.550781 22.589844-60.507813 105.480469-140.148437 146.917969-152.757813 152.976562zm0 0"/></svg>