<svg height="512pt" viewBox="-1 0 512 512" width="512pt" xmlns="http://www.w3.org/2000/svg"><path d="m453.695312 31.21875c-3.585937-3.585938-9.386718-3.585938-12.972656 0l-21.386718 21.386719c-3.578126 3.59375-3.578126 9.394531.011718 12.984375 1.789063 1.78125 4.140625 2.679687 6.488282 2.679687 2.347656 0 4.699218-.902343 6.496093-2.691406l21.375-21.382813c3.578125-3.578124 3.578125-9.386718-.011719-12.976562zm0 0"/><path d="m409.242188 88.652344c3.589843-3.589844 3.589843-9.386719 0-12.976563-3.589844-3.585937-9.386719-3.585937-12.976563 0l-60.695313 60.699219c-3.589843 3.589844-3.589843 9.386719 0 12.976562 1.789063 1.789063 4.136719 2.6875 6.488282 2.6875 2.347656 0 4.695312-.898437 6.488281-2.6875zm0 0"/><path d="m366.835938 157.023438-21.722657 21.714843c-3.582031 3.585938-3.582031 9.394531 0 12.972657 1.789063 1.792968 4.136719 2.691406 6.488281 2.691406 2.347657 0 4.699219-.902344 6.496094-2.691406l21.710938-21.710938c3.589844-3.578125 3.589844-9.390625 0-12.976562-3.578125-3.578126-9.386719-3.578126-12.972656 0zm0 0"/><path d="m437.039062 86.816406-44.242187 44.242188c-3.589844 3.589844-3.589844 9.390625 0 12.976562 1.789063 1.792969 4.140625 2.691406 6.488281 2.691406s4.699219-.902343 6.488282-2.691406l44.242187-44.242187c3.589844-3.589844 3.589844-9.390625 0-12.976563-3.585937-3.589844-9.398437-3.589844-12.976563 0zm0 0"/><path d="m468.601562 55.257812-10.910156 10.910157c-3.589844 3.589843-3.589844 9.386719 0 12.976562 1.789063 1.789063 4.136719 2.6875 6.488282 2.6875 2.347656 0 4.699218-.898437 6.488281-2.6875l10.910156-10.910156c3.589844-3.589844 3.589844-9.390625 0-12.976563-3.589844-3.589843-9.40625-3.578124-12.976563 0zm0 0"/><path d="m510.878906 60.734375c-.082031-2.046875-1.320312-20.566406-20.5625-39.8125-2.050781-2.152344-20.382812-20.921875-40.160156-20.921875-.175781 0-.351562 0-.523438 0l-1.808593.0390625-1.660157.7031255c-4.011718 1.726562-98.976562 43.640624-170.265624 169.816406l-1.277344 2.269531.09375 2.597656c.066406 1.640625 1.046875 14.019531 11.417968 28.8125-.425781.296875-.902343.46875-1.277343.855469l-53.613281 53.621094-12.820313-12.820313c-11.785156-11.792969-27.511719-18.277343-44.28125-18.277343-16.777344 0-32.503906 6.488281-44.289063 18.277343l-101.730468 101.710938c-18.136719 18.136719-28.121094 42.328125-28.121094 68.132812 0 25.816407 9.984375 50.007813 28.117188 68.144531 18.136718 18.140626 42.328124 28.117188 68.144531 28.117188 25.804687 0 50.007812-9.984375 68.132812-28.117188l101.71875-101.722656c11.792969-11.785156 18.28125-27.511718 18.28125-44.28125 0-16.769531-6.488281-32.496094-18.28125-44.28125l-21.90625-21.90625 53.613281-53.621094c.066407-.066406.074219-.148437.140626-.203124 6.039062 5.699218 21.1875 18.300781 37.460937 18.300781h.542969l1.796875-.039063 1.660156-.707031c4.011719-1.722656 98.976563-43.628906 170.265625-169.816406l1.277344-2.265625zm-244.839844 277.136719c0 11.867187-4.578124 22.988281-12.902343 31.304687l-101.722657 101.726563c-14.664062 14.675781-34.257812 22.75-55.15625 22.75-20.90625 0-40.496093-8.074219-55.164062-22.75-14.664062-14.664063-22.742188-34.246094-22.742188-55.164063 0-20.894531 8.078126-40.488281 22.742188-55.15625l101.722656-101.71875c8.324219-8.324219 19.4375-12.902343 31.3125-12.902343 11.792969 0 22.832032 4.539062 31.140625 12.765624l-14.445312 14.441407c-3.589844 3.589843-3.589844 9.390625 0 12.976562 1.789062 1.792969 4.140625 2.691407 6.488281 2.691407s4.699219-.902344 6.488281-2.691407l14.453125-14.453125 12.976563 12.976563-14.453125 14.453125c-3.589844 3.589844-3.589844 9.390625 0 12.976562 1.789062 1.789063 4.140625 2.6875 6.488281 2.6875 2.351563 0 4.699219-.898437 6.488281-2.6875l14.457032-14.453125 8.925781 8.925781c8.324219 8.320313 12.902343 19.433594 12.902343 31.300782zm67.894532-120.132813c-9.746094-.972656-21.464844-11.09375-25.363282-15.140625l-2.15625-2.25c-1.636718-1.78125-3.011718-3.507812-4.277343-5.203125.640625-.386719 1.320312-.691406 1.871093-1.242187l23.898438-23.894532c3.589844-3.589843 3.589844-9.390624 0-12.976562-3.589844-3.589844-9.386719-3.589844-12.976562 0l-21.226563 21.226562c-.117187-.46875-.230469-.9375-.3125-1.320312 62.683594-109.300781 145.203125-152.234375 158.273437-158.511719 9.746094.972657 21.464844 11.105469 25.355469 15.152344l2.175781 2.265625c9.34375 10.140625 12.160157 19.273438 13.003907 23.402344-62.691407 109.285156-145.207031 152.21875-158.265625 158.492187zm0 0"/><path d="m61.976562 360.0625c-31.40625 30.347656-34.070312 72.085938-6.472656 101.527344 1.808594 1.925781 4.25 2.898437 6.691406 2.898437 2.257813 0 4.507813-.824219 6.277344-2.484375 3.699219-3.46875 3.882813-9.28125.414063-12.96875-20.640625-22.007812-18.300781-52.464844 5.835937-75.785156 3.644532-3.523438 3.746094-9.335938.222656-12.976562-3.519531-3.625-9.335937-3.726563-12.96875-.210938zm0 0"/></svg>