<svg height="512pt" viewBox="0 -4 512 511" width="512pt" xmlns="http://www.w3.org/2000/svg"><path d="m504.136719 24.085938-15.984375-15.984376c-10.152344-10.136718-27.921875-10.136718-38.046875 0l-157.996094 157.984376 18.847656 18.847656-50.382812 50.382812c-27.816407-26.148437-62.277344-42.875-100.15625-48.261718l-2.683594 18.914062c35.703125 5.074219 68.085937 21.277344 93.660156 46.839844 25.574219 25.585937 41.777344 57.96875 46.839844 93.679687l18.914063-2.683593c-5.03125-35.453126-19.945313-67.941407-43.273438-94.777344l50.585938-50.585938 21.675781 21.6875 158-157.984375c5.0625-5.074219 7.863281-11.824219 7.863281-19.027343 0-7.203126-2.789062-13.96875-7.863281-19.03125zm-141.894531 98.894531 40.535156 13.507812-5.15625 5.160157-40.535156-13.507813zm-43.113282 43.105469 22.851563-22.84375 40.535156 13.507812-36.359375 36.359375zm171.5-117.457032-72.757812 72.757813-40.535156-13.507813 86.277343-86.265625c2.914063-2.933593 8.09375-2.933593 11.015625 0l15.992188 15.984375c1.460937 1.460938 2.261718 3.417969 2.261718 5.519532.011719 2.089843-.792968 4.046874-2.253906 5.511718zm0 0"/><path d="m143.300781 217.605469c-38.28125 0-74.257812 14.914062-101.324219 41.980469-27.066406 27.0625-41.976562 63.050781-41.976562 101.320312 0 38.28125 14.914062 74.257812 41.976562 101.324219 27.066407 27.0625 63.042969 41.976562 101.324219 41.976562s74.257813-14.914062 101.332031-41.976562c27.0625-27.066407 41.964844-63.042969 41.964844-101.324219 0-38.269531-14.910156-74.257812-41.976562-101.324219-27.0625-27.070312-63.039063-41.976562-101.320313-41.976562zm87.820313 231.113281c-23.460938 23.453125-54.644532 36.378906-87.824219 36.378906-33.167969 0-64.359375-12.925781-87.8125-36.378906s-36.378906-54.644531-36.378906-87.8125c0-33.171875 12.925781-64.351562 36.378906-87.8125 23.464844-23.457031 54.644531-36.382812 87.8125-36.382812 33.179687 0 64.363281 12.925781 87.824219 36.382812 23.453125 23.453125 36.371094 54.640625 36.371094 87.8125 0 33.167969-12.917969 64.359375-36.371094 87.8125zm0 0"/><path d="m143.300781 313.140625c-12.765625 0-24.753906 4.976563-33.78125 13.996094-9.027343 9.019531-13.984375 21.007812-13.984375 33.769531 0 12.765625 4.964844 24.753906 13.984375 33.773438 9.019531 9.019531 21.015625 13.996093 33.78125 13.996093 12.753907 0 24.75-4.976562 33.769531-13.996093 9.019532-9.019532 13.996094-21.007813 13.996094-33.773438 0-12.761719-4.964844-24.75-13.984375-33.769531s-21.019531-13.996094-33.78125-13.996094zm20.269531 68.027344c-10.832031 10.824219-29.699218 10.824219-40.535156 0-5.40625-5.417969-8.394531-12.609375-8.394531-20.261719s2.980469-14.855469 8.386719-20.261719c5.417968-5.40625 12.609375-8.398437 20.273437-8.398437 7.652344 0 14.84375 2.992187 20.261719 8.398437s8.398438 12.601563 8.398438 20.261719c0 7.664062-2.980469 14.84375-8.390626 20.261719zm0 0"/></svg>