<svg height="511pt" viewBox="-11 1 511 511.99845" width="511pt" xmlns="http://www.w3.org/2000/svg"><path d="m465.171875 27-27-27-161.472656 161.472656-259.992188 259.988282c-19.15625 19.15625-21.648437 49.230468-5.785156 69.9375 10.328125 13.46875 25.925781 20.601562 41.75 20.601562 10.21875 0 20.53125-2.984375 29.554687-9.171875 4.410157-3.019531 8.207032-5.113281 11.917969-6.59375 19.21875-7.585937 18.203125-22.710937 15.894531-31.039063-1.183593-4.246093-.980468-7.816406.507813-9.304687 1.488281-1.480469 5.023437-1.671875 9.292969-.5 10.652344 2.957031 20.234375 1.113281 26.34375-4.996094 6.117187-6.117187 7.9375-15.71875 4.996094-26.34375-1.183594-4.246093-.988282-7.804687.5-9.292969 1.480468-1.496093 5.058593-1.664062 9.292968-.5 10.625 2.949219 20.234375 1.136719 26.34375-4.996093 6.117188-6.117188 7.9375-15.71875 4.996094-26.34375-1.183594-4.242188-.988281-7.804688.5-9.292969s5.058594-1.671875 9.292969-.5c10.625 2.949219 20.234375 1.128906 26.34375-4.996094 6.117187-6.109375 7.9375-15.71875 4.996093-26.351562-1.183593-4.234375-.988281-7.796875.5-9.285156 1.496094-1.496094 5.066407-1.679688 9.292969-.507813 10.640625 2.949219 20.242188 1.128906 26.351563-4.988281 6.121094-6.121094 7.941406-15.726563 4.988281-26.351563-1.179687-4.238281-.980469-7.808593.507813-9.296875 1.480468-1.488281 5.050781-1.671875 9.285156-.5 10.652344 2.960938 20.234375 1.132813 26.355468-4.988281 6.117188-6.117187 7.9375-15.726563 4.988282-26.339844-1.183594-4.246093-.980469-7.816406.507812-9.304687 1.488282-1.488282 5.039063-1.671875 9.304688-.5 8.488281 2.355468 16.15625 1.742187 22.148437-1.777344 4.980469-2.914062 8.386719-7.550781 9.820313-13.40625 2.082031-8.472656-.824219-17.933594-7.589844-24.699219l-16.75-16.742187c6.097656-4.277344 16.113281-10.457032 30.675781-16.636719 28.679688-12.171875 53.472657-28.695313 73.699219-49.121094 9.757812-9.863281 17.660156-19.816406 23.472656-29.574219l.550782-1.09375c.332031-.699218 3.648437-6.851562 16.574218-4.269531l5.910156 1.179688 3.210938-5.09375c1.503906-2.449219 14.160156-25.230469-22.078125-61.480469zm-124.707031 203.390625c-.394532 1.578125-1.09375 2.164063-1.664063 2.496094-1.757812 1.023437-4.996093 1.015625-8.636719.007812-10.632812-2.9375-20.234374-1.117187-26.351562 4.988281-6.117188 6.109376-7.9375 15.71875-4.996094 26.355469 1.179688 4.234375.988282 7.804688-.5 9.292969-1.480468 1.488281-5.03125 1.679688-9.292968.5-10.609376-2.933594-20.226563-1.128906-26.34375 4.988281-6.117188 6.117188-7.9375 15.71875-4.996094 26.351563 1.179687 4.234375.988281 7.808594-.5 9.292968-1.496094 1.488282-5.03125 1.671876-9.292969.5-10.644531-2.957031-20.246094-1.109374-26.351563 4.996094-6.121093 6.117188-7.941406 15.726563-4.992187 26.335938 1.183594 4.242187.980469 7.8125-.507813 9.300781-1.476562 1.507813-5.039062 1.683594-9.285156.507813-10.625-2.9375-20.234375-1.136719-26.351562 4.992187-6.117188 6.117187-7.9375 15.726563-4.988282 26.351563 1.183594 4.234374.980469 7.796874-.507812 9.285156-1.46875 1.503906-5.042969 1.679687-9.285156.507812-10.617188-2.933594-20.234375-1.136718-26.351563 4.988282-6.117187 6.117187-7.9375 15.726562-4.988281 26.351562 1.179688 4.234375.980469 7.796875-.507812 9.285156-1.480469 1.488282-5.035157 1.679688-9.296876.507813-10.605468-2.941407-20.214843-1.128907-26.34375 4.980469-6.117187 6.117187-7.933593 15.726562-4.996093 26.359374 1.621093 5.8125.597656 7.703126-5.460938 10.089844-4.972656 1.96875-9.855469 4.640625-15.375 8.421875-15.292969 10.492188-36.179687 7.148438-47.515625-7.640625-10.546875-13.757812-8.714844-33.933594 4.261719-46.910156l259.992187-259.992188 48.414063 48.40625c2.46875 2.398438 3.625 5.589844 3.011719 8.101563zm131.835937-156.078125c-15.570312 0-23.925781 8.933594-26.675781 15.027344-5.058594 8.390625-11.972656 17.039062-20.574219 25.71875-18.605469 18.792968-41.519531 34.046875-68.089843 45.320312-17.722657 7.515625-29.667969 15.21875-36.40625 20.1875l-13.433594-13.421875-5.671875-5.671875 136.722656-136.722656 14.621094 14.625c16.988281 16.988281 20.113281 28.820312 20.253906 34.945312-.253906-.007812-.5-.007812-.746094-.007812zm0 0"/><path d="m351.394531 146.042969c0 6.019531-4.882812 10.902343-10.902343 10.902343-6.023438 0-10.90625-4.882812-10.90625-10.902343 0-6.023438 4.882812-10.90625 10.90625-10.90625 6.019531 0 10.902343 4.882812 10.902343 10.90625zm0 0"/><path d="m443.925781 63.792969c0 6.019531-4.878906 10.902343-10.902343 10.902343-6.023438 0-10.902344-4.882812-10.902344-10.902343 0-6.023438 4.878906-10.90625 10.902344-10.90625 6.023437 0 10.902343 4.882812 10.902343 10.90625zm0 0"/></svg>