<svg height="512pt" viewBox="-131 0 511 512" width="512pt" xmlns="http://www.w3.org/2000/svg"><path d="m116.363281 247.011719c0 4.960937-4.019531 8.984375-8.980469 8.984375-4.960937 0-8.984374-4.023438-8.984374-8.984375 0-4.960938 4.023437-8.980469 8.984374-8.980469 4.960938 0 8.980469 4.019531 8.980469 8.980469zm0 0"/><path d="m47.597656 222.878906c0 4.960938-4.023437 8.980469-8.984375 8.980469-4.960937 0-8.980469-4.019531-8.980469-8.980469 0-4.960937 4.019532-8.984375 8.980469-8.984375 4.960938 0 8.984375 4.023438 8.984375 8.984375zm0 0"/><path d="m134.328125 291.921875c0 4.960937-4.019531 8.984375-8.980469 8.984375-4.960937 0-8.984375-4.023438-8.984375-8.984375s4.023438-8.980469 8.984375-8.980469c4.960938 0 8.980469 4.019532 8.980469 8.980469zm0 0"/><path d="m204.5 243.089844c0 4.960937-4.023438 8.980468-8.984375 8.980468s-8.980469-4.019531-8.980469-8.980468c0-4.960938 4.019532-8.984375 8.980469-8.984375s8.984375 4.023437 8.984375 8.984375zm0 0"/><path d="m70.050781 261.050781c0 4.960938-4.019531 8.984375-8.980469 8.984375-4.960937 0-8.984374-4.023437-8.984374-8.984375 0-4.960937 4.023437-8.980469 8.984374-8.980469 4.960938 0 8.980469 4.019532 8.980469 8.980469zm0 0"/><path d="m152.292969 238.03125c0 4.960938-4.019531 8.980469-8.980469 8.980469s-8.984375-4.019531-8.984375-8.980469 4.023437-8.984375 8.984375-8.984375 8.980469 4.023437 8.980469 8.984375zm0 0"/><path d="m134.328125 449.222656v-117.363281c33.054687-2.378906 63.902344-17.632813 85.675781-42.960937 23.75-27.601563 34.230469-64.097657 28.777344-100.101563l-24.558594-162.027344c-.195312-1.3125-.773437-2.507812-1.546875-3.585937-11.800781-22.878906-93.585937-23.183594-97.328125-23.183594-3.726562 0-84.820312.304688-97.171875 22.894531-.886719 1.179688-1.507812 2.570313-1.730469 4.082031l-22.898437 151.027344c-.449219 1.355469-.734375 2.757813-.734375 4.238282 0 .097656.042969.191406.054688.296874l-.953126 6.269532c-5.453124 36 5.027344 72.488281 28.777344 100.097656 21.773438 25.320312 52.621094 40.582031 85.675782 42.960938v117.363281c-28.742188.640625-98.804688 4.898437-98.804688 31.332031 0 29.917969 89.785156 31.4375 107.785156 31.4375s107.789063-1.519531 107.789063-31.4375c-.003907-26.445312-70.0625-30.703125-98.808594-31.339844zm67.441406-420.765625c-.082031.027344-.164062.054688-.253906.082031-1.191406.386719-2.550781.78125-4.113281 1.175782-.125.035156-.277344.0625-.414063.097656-1.617187.40625-3.414062.808594-5.425781 1.203125-.070312.011719-.125.027344-.195312.046875-1.996094.394531-4.230469.773438-6.613282 1.140625-.367187.050781-.726562.113281-1.09375.167969-2.398437.359375-4.984375.710937-7.769531 1.035156-.378906.042969-.789063.085938-1.175781.125-2.855469.320312-5.875.621094-9.136719.886719-.125.011719-.242187.027343-.367187.039062-3.269532.269531-6.800782.492188-10.484376.699219-.664062.039062-1.320312.074219-2.003906.109375-3.664062.1875-7.527344.332031-11.59375.449219-.71875.015625-1.472656.035156-2.210937.042968-4.320313.097657-8.792969.171876-13.574219.171876-4.75 0-9.207031-.074219-13.507812-.164063-.78125-.015625-1.582032-.035156-2.355469-.054687-4.058594-.105469-7.910157-.257813-11.566407-.4375-.683593-.039063-1.339843-.074219-2.003906-.109376-3.621094-.199218-7.097656-.421874-10.3125-.691406-.082031-.011718-.171875-.011718-.242187-.019531-3.308594-.265625-6.34375-.582031-9.226563-.90625-.511718-.054687-1.03125-.117187-1.535156-.171875-2.730469-.320312-5.28125-.652344-7.636719-1.011719-.386719-.054687-.734375-.117187-1.113281-.171875-2.324219-.359375-4.515625-.734375-6.464844-1.121094-.046875-.011718-.089844-.019531-.136718-.027343-2.003907-.398438-3.773438-.800781-5.386719-1.195313-.246094-.0625-.496094-.117187-.730469-.179687-1.519531-.386719-2.875-.773438-4.042969-1.148438-.050781-.019531-.097656-.039062-.152343-.054687 11.273437-4.769532 38.722656-10.5 76.414062-10.5 37.683594 0 65.140625 5.730468 76.425781 10.492187zm-159.886719 16.492188c.097657.035156.234376.070312.34375.105469 1.550782.578124 3.242188 1.132812 5.117188 1.679687.054688.019531.128906.039063.179688.054687 1.90625.546876 3.988281 1.070313 6.261718 1.574219.144532.027344.269532.0625.414063.097657 2.21875.484374 4.652343.941406 7.25 1.382812.332031.054688.644531.117188.988281.171875 2.546875.410156 5.316406.796875 8.246094 1.164063.472656.066406.941406.117187 1.417968.171874 2.964844.347657 6.117188.664063 9.476563.953126.558594.042968 1.125.089843 1.691406.132812 3.445313.28125 7.09375.523438 10.976563.71875.554687.027344 1.136718.054688 1.714844.082031 4.050781.199219 8.289062.359375 12.828124.46875.4375.007813.90625.015625 1.355469.027344 4.796875.097656 9.828125.160156 15.207031.160156 5.378907 0 10.410157-.0625 15.214844-.167969.441406-.011718.914063-.019531 1.355469-.027343 4.535156-.109375 8.785156-.269531 12.835937-.46875.566407-.027344 1.148438-.054688 1.707032-.082031 3.878906-.207032 7.527344-.449219 10.976562-.71875.566406-.042969 1.132813-.089844 1.6875-.132813 3.359375-.289063 6.519532-.601563 9.484375-.953125.484375-.054688.945313-.117188 1.421875-.171875 2.929688-.359375 5.691406-.746094 8.246094-1.167969.332031-.050781.644531-.105468.980469-.167968 2.59375-.441407 5.027343-.898438 7.253906-1.382813.144531-.027344.261719-.0625.40625-.089844 2.269531-.503906 4.363281-1.035156 6.269531-1.574219.054688-.015624.117188-.027343.167969-.042968 1.886719-.539063 3.566406-1.105469 5.128906-1.679688.097657-.035156.234375-.070312.332031-.109375l17.695313 116.789063c-28.230469-11.398438-77.867187-14.425782-101.445313-14.425782-23.40625 0-72.503906 2.972657-100.835937 14.164063zm185.738282 136.980469c-8.792969 4.777343-39.875 12.085937-102.558594 12.085937-62.6875 0-93.765625-7.300781-102.5625-12.085937 9.773438-6.683594 47.625-16.65625 102.5625-16.65625 54.941406 0 92.785156 9.972656 102.558594 16.65625zm-183.3125 95.253906c-18.558594-21.582032-27.523438-49.492188-25.410156-77.640625 23.101562 9.898437 67.203124 12.441406 106.160156 12.441406 39.28125 0 83.769531-2.597656 106.710937-12.695313 2.183594 28.242188-6.773437 56.257813-25.386719 77.902344-20.324218 23.632813-49.859374 37.1875-81.039062 37.1875-31.175781 0-60.707031-13.554687-81.035156-37.195312zm81.039062 216.839844c-50.203125 0-80.410156-8.144532-88.414062-13.472657 7.519531-5 34.609375-12.484375 79.429687-13.382812v10.160156c0 4.96875 4.027344 8.980469 8.984375 8.980469 4.957032 0 8.980469-4.011719 8.980469-8.980469v-10.160156c44.832031.898437 71.914063 8.378906 79.433594 13.382812-8.007813 5.328125-38.214844 13.472657-88.414063 13.472657zm0 0"/></svg>