<svg height="512pt" viewBox="-126 0 512 512" width="512pt" xmlns="http://www.w3.org/2000/svg"><path d="m260.195312 164.558594c.011719-1.109375-.148437-2.195313-.535156-3.210938-.011718-.023437 0-.050781-.011718-.066406l-26.996094-67.507812c-5.589844-13.945313-18.378906-23.203126-33.132813-24.476563v-41.414063c0-15.378906-12.503906-27.882812-27.882812-27.882812h-83.082031c-15.378907 0-27.882813 12.503906-27.882813 27.882812v41.417969c-14.753906 1.269531-27.542969 10.539063-33.125 24.480469l-26.996094 67.5c-.011719.023438 0 .050781-.011719.066406-.398437 1.015625-.5468745 2.101563-.53515575 3.210938 0 .203125-.01171875.382812.00781255.574218.0078124.164063-.01562505.332032.0078124.496094l40.0585938 303.40625c2.28125 24.5 22.5625 42.964844 47.15625 42.964844h85.710937c24.601563 0 44.882813-18.46875 47.140626-42.636719l40.101562-303.726562c.027344-.164063-.007812-.332031.007812-.503907.011719-.191406 0-.371093 0-.574218zm-182.167968-136.675782c0-5.804687 4.722656-10.527343 10.527344-10.527343h83.082031c5.804687 0 10.527343 4.722656 10.527343 10.527343v41.160157h-104.136718zm-34.363282 72.347657c3.359376-8.410157 11.382813-13.832031 20.425782-13.832031h132.019531c9.042969 0 17.070313 5.425781 20.425781 13.824218l23.195313 57.988282c-3.703125.839843-7.410157 1.65625-11.132813 2.417968-4.042968.828125-8.078125 1.695313-12.128906 2.414063-5.640625.996093-11.308594 1.804687-16.984375 2.609375-3.90625.558594-7.792969 1.191406-11.707031 1.648437-6.109375.722657-12.246094 1.191407-18.378906 1.683594-3.496094.28125-6.996094.679687-10.5.878906-8.332032.484375-16.664063.695313-25 .761719-2.507813.019531-5.015626.019531-7.523438 0-8.332031-.058594-16.671875-.277344-24.996094-.753906-3.6875-.214844-7.367187-.632813-11.054687-.925782-5.9375-.480468-11.871094-.9375-17.78125-1.632812-4.070313-.476562-8.105469-1.136719-12.15625-1.710938-5.519531-.789062-11.046875-1.5625-16.542969-2.539062-4.128906-.730469-8.234375-1.617188-12.347656-2.457031-3.679688-.746094-7.351563-1.554688-11.011719-2.394531zm159.179688 367.183593c-1.449219 15.523438-14.308594 27.230469-29.894531 27.230469h-85.714844c-15.582031 0-28.4375-11.707031-29.929687-27.554687l-38.453126-291.257813c3.464844.773438 6.960938 1.328125 10.441407 2.03125 4 .808594 8 1.632813 12.019531 2.34375 6.074219 1.066407 12.167969 1.953125 18.269531 2.804688 3.703125.511719 7.390625 1.09375 11.105469 1.527343 6.933594.804688 13.886719 1.378907 20.847656 1.90625 2.90625.21875 5.804688.546876 8.710938.722657 19.890625 1.164062 39.839844 1.164062 59.722656 0 2.84375-.164063 5.671875-.484375 8.511719-.703125 7.03125-.53125 14.050781-1.113282 21.054687-1.925782 3.660156-.425781 7.304688-1.007812 10.957032-1.511718 6.152343-.859375 12.296874-1.742188 18.40625-2.828125 4-.707031 7.976562-1.527344 11.957031-2.328125 3.492187-.703125 6.996093-1.257813 10.46875-2.039063zm0 0"/><path d="m107.488281 459.949219c-15.21875-.945313-17.726562-16.660157-17.972656-18.519531l-11.566406-86.777344c-.632813-4.757813-4.953125-8.105469-9.746094-7.457032-4.753906.632813-8.09375 5-7.453125 9.746094l11.550781 86.652344c1.292969 10.992188 10.09375 32.167969 34.113281 33.679688.183594.007812.355469.015624.546876.015624 4.539062 0 8.363281-3.53125 8.652343-8.140624.296875-4.773438-3.339843-8.902344-8.125-9.199219zm0 0"/></svg>