<svg height="512pt" viewBox="-49 0 512 512.00159" width="512pt" xmlns="http://www.w3.org/2000/svg"><path d="m188.632812 290.472656c0 20.03125 16.300782 36.34375 36.351563 36.34375 6.125 0 18.871094 0 55.664063-75.523437 2.300781-4.722657 1.339843-10.402344-2.371094-14.121094-3.726563-3.707031-9.386719-4.667969-14.128906-2.363281-75.515626 36.8125-75.515626 49.546875-75.515626 55.664062zm35.550782 18.363282c-9.511719-.402344-17.164063-8.058594-17.570313-17.5625 2.203125-3.796876 15.207031-14.632813 50.328125-32.757813-18.117187 35.101563-28.957031 48.121094-32.757812 50.320313zm0 0"/><path d="m197.613281 224.5625h8.984375c4.964844 0 8.980469-4.015625 8.980469-8.984375s-4.015625-8.980469-8.980469-8.980469h-8.984375c-4.96875 0-8.980469 4.011719-8.980469 8.980469s4.011719 8.984375 8.980469 8.984375zm0 0"/><path d="m206.597656 377.261719h-8.984375c-4.96875 0-8.980469 4.015625-8.980469 8.984375 0 4.964844 4.011719 8.980468 8.980469 8.980468h8.984375c4.964844 0 8.980469-4.015624 8.980469-8.980468 0-4.96875-4.015625-8.984375-8.980469-8.984375zm0 0"/><path d="m125.753906 287.4375h-8.984375c-4.964843 0-8.980469 4.015625-8.980469 8.984375s4.015626 8.980469 8.980469 8.980469h8.984375c4.96875 0 8.984375-4.011719 8.984375-8.980469s-4.015625-8.984375-8.984375-8.984375zm0 0"/><path d="m278.457031 296.421875c0 4.96875 4.015625 8.980469 8.984375 8.980469h8.980469c4.96875 0 8.984375-4.011719 8.984375-8.980469s-4.015625-8.984375-8.984375-8.984375h-8.980469c-4.96875 0-8.984375 4.015625-8.984375 8.984375zm0 0"/><path d="m413.191406 8.984375v-8.984375h-413.191406v8.984375c0 61.464844 62.242188 116.832031 143.71875 136.289063v40.949218c-42.675781 22.554688-71.859375 67.363282-71.859375 118.902344 0 19.277344 4.148437 37.582031 11.5 54.171875h-30.730469c-11.292968 0-21.898437 5.515625-28.375 14.769531-6.46875 9.242188-8.03125 21.097656-4.167968 31.699219l25.554687 70.304687h42.53125c-3.71875 10.429688-13.601563 17.964844-25.296875 17.964844-4.964844 0-8.980469 4.015625-8.980469 8.984375s4.015625 8.980469 8.980469 8.980469c21.683594 0 39.828125-15.457031 44.007812-35.925781h208.410157c4.175781 20.46875 22.3125 35.925781 44.003906 35.925781 4.96875 0 8.984375-4.011719 8.984375-8.980469s-4.015625-8.984375-8.984375-8.984375c-11.695313 0-21.574219-7.535156-25.292969-17.964844h42.53125l25.566406-70.304687c3.859376-10.609375 2.296876-22.457031-4.167968-31.699219-6.484375-9.25-17.09375-14.769531-28.378906-14.769531h-40.277344c7.339844-16.589844 11.5-34.894531 11.5-54.171875 0-51.316406-28.921875-95.976562-71.304688-118.628906v-41.222656c81.480469-19.457032 143.71875-74.824219 143.71875-136.289063zm-394.625 8.980469h376.050782c-6.050782 45.558594-57.308594 92.96875-130.144532 110.070312l-5.847656 1.242188c-7.230469 1.527344-14.535156 2.667968-21.863281 3.546875-2.253907.269531-4.5.539062-6.792969.746093-2.59375.242188-5.199219.449219-7.804688.609376-4.15625.253906-8.351562.414062-12.601562.460937-1.984375.015625-3.980469.015625-5.964844 0-4.25-.046875-8.445312-.207031-12.601562-.460937-2.605469-.160157-5.210938-.367188-7.804688-.609376-2.285156-.207031-4.539062-.476562-6.792968-.746093-7.328126-.878907-14.632813-2.019531-21.863282-3.546875l-5.847656-1.242188c-72.804688-17.101562-124.058594-64.511718-130.121094-110.070312zm301.082032 359.296875h49.90625c5.515624 0 10.492187 2.589843 13.664062 7.105469 3.160156 4.519531 3.898438 10.070312 2.011719 15.253906l-21.269531 58.484375h-305.746094l-21.261719-58.484375c-1.886719-5.183594-1.148437-10.734375 2.011719-15.253906 3.160156-4.515626 8.140625-7.105469 13.652344-7.105469h40.359374c.160157.261719.351563.496093.511719.746093 1.070313 1.644532 2.183594 3.253907 3.3125 4.851563 1.042969 1.453125 2.121094 2.875 3.207031 4.285156 1.816407 2.34375 3.695313 4.617188 5.660157 6.824219 1.214843 1.375 2.425781 2.742188 3.691406 4.0625 1.421875 1.480469 2.882813 2.925781 4.375 4.347656 1.042969.984375 2.113281 1.9375 3.179687 2.890625 2.832032 2.523438 5.757813 4.921875 8.796876 7.214844.832031.625 1.652343 1.265625 2.503906 1.875 1.949218 1.394531 3.925781 2.742187 5.949218 4.035156.582032.375 1.183594.71875 1.777344 1.085938 3.746094 2.316406 7.617188 4.445312 11.597656 6.386719.859376.421874 1.722657.855468 2.601563 1.257812 2.15625.996094 4.320313 1.964844 6.539063 2.847656 1.105468.441406 2.246093.816406 3.359374 1.230469 3.296876 1.214844 6.628907 2.316406 10.042969 3.277344 1.957031.558593 3.925781 1.0625 5.910157 1.527343 1.527343.351563 3.046874.746094 4.597656 1.042969 3.476562.691407 7 1.203125 10.539062 1.617188 1.078125.125 2.164063.214843 3.25.3125 3.960938.359375 7.933594.605469 11.949219.605469 4.011719 0 7.984375-.246094 11.945313-.605469 1.085937-.097657 2.164062-.1875 3.25-.3125 3.542968-.414063 7.0625-.925781 10.539062-1.617188 1.550781-.304687 3.0625-.691406 4.597656-1.042969 1.984375-.464843 3.953125-.96875 5.910156-1.527343 3.414063-.949219 6.746094-2.0625 10.042969-3.277344 1.121094-.414063 2.253907-.789063 3.359375-1.230469 2.21875-.882812 4.382813-1.851562 6.539063-2.847656.871093-.402344 1.730469-.835938 2.605469-1.257812 3.976562-1.949219 7.839843-4.070313 11.59375-6.386719.59375-.367188 1.195312-.707031 1.777343-1.085938 2.023438-1.292969 4-2.632812 5.949219-4.035156.855469-.609375 1.679688-1.257813 2.523438-1.882813 3.027343-2.285156 5.953124-4.683593 8.785156-7.207031 1.070312-.949219 2.136718-1.902343 3.179687-2.890625 1.492188-1.421875 2.949219-2.855468 4.375-4.347656 1.265625-1.320312 2.480469-2.6875 3.691407-4.058594 1.957031-2.21875 3.847656-4.492187 5.660156-6.828125 1.089844-1.410156 2.175781-2.828125 3.207031-4.285156 1.140625-1.597656 2.246094-3.207031 3.316406-4.847656.125-.253907.3125-.488281.472657-.75zm3.164062-72.136719c0 19.941406-5.050781 38.722656-13.921875 55.152344l-1.015625 1.734375c-.703125 1.257812-1.492188 2.453125-2.238281 3.683593-1.859375 3.035157-3.835938 5.964844-5.9375 8.785157-.628907.84375-1.238281 1.699219-1.886719 2.523437-1.230469 1.5625-2.496094 3.082032-3.796875 4.5625-.675781.773438-1.375 1.519532-2.066406 2.273438-2.703125 2.929687-5.523438 5.722656-8.496094 8.351562-.34375.296875-.667969.621094-1.007813.917969-1.679687 1.453125-3.40625 2.835937-5.15625 4.195313-.492187.375-.996093.746093-1.5 1.121093-5.558593 4.140625-11.460937 7.789063-17.648437 10.886719-.53125.261719-1.0625.511719-1.589844.761719-3.574219 1.726562-7.25 3.253906-10.996093 4.597656-.753907.269531-1.492188.566406-2.246094.828125-1.769532.601562-3.554688 1.125-5.351563 1.636719-1.617187.457031-3.253906.871093-4.898437 1.265625-1.632813.386718-3.261719.78125-4.914063 1.09375-2.773437.53125-5.578125.960937-8.425781 1.292968-1.023438.117188-2.054688.214844-3.089844.316407-3.402344.292969-6.835937.519531-10.308594.519531-3.476562 0-6.910156-.222656-10.3125-.519531-1.035156-.089844-2.066406-.191407-3.089843-.316407-2.839844-.324218-5.652344-.761718-8.425781-1.292968-1.652344-.320313-3.289063-.707032-4.925782-1.09375-1.644531-.386719-3.277344-.800782-4.894531-1.257813-1.796875-.511719-3.585937-1.042969-5.355469-1.644531-.753906-.253906-1.492187-.558594-2.246094-.828125-3.746093-1.355469-7.410156-2.875-10.992187-4.597656-.53125-.25-1.070313-.503907-1.589844-.765625-6.1875-3.089844-12.089843-6.742188-17.652343-10.882813-.5-.378906-1.003907-.738281-1.5-1.125-1.75-1.355469-3.484376-2.738281-5.152344-4.195312-.34375-.292969-.664063-.609375-1-.90625-2.972656-2.632813-5.800782-5.425781-8.503906-8.363281-.691407-.753907-1.394532-1.5-2.066407-2.273438-1.300781-1.488281-2.570312-3.007812-3.796875-4.5625-.648437-.828125-1.265625-1.679688-1.886718-2.523438-2.101563-2.820312-4.085938-5.75-5.9375-8.785156-.746094-1.230468-1.535157-2.425781-2.238282-3.683594l-1.015625-1.734374c-8.863281-16.425782-13.921875-35.199219-13.921875-55.152344 0-46.597656 27.566406-86.777344 67.1875-105.390625 3.78125-1.769531 7.617188-3.339844 11.515625-4.6875.082031-.027344.152344-.066407.234375-.089844 20.515625-7.023437 42.378906-8.148437 63.308594-3.367187.011719 0 .019531.007812.027344.007812 4.113281.945312 8.191406 2.121094 12.207031 3.511719.191406.066406.371094.136719.550781.199219 3.824219 1.347656 7.597656 2.910156 11.308594 4.667968 39.332031 18.742188 66.65625 58.765625 66.65625 105.152344zm-71.304688-126.542969c-.429687-.152343-.859374-.261719-1.292968-.40625-2.550782-.886719-5.128906-1.695312-7.75-2.433593-1.636719-.457032-3.269532-.871094-4.914063-1.265626-2.148437-.511718-4.285156-1.015624-6.46875-1.429687-2.398437-.457031-4.8125-.777344-7.238281-1.101563-1.625-.21875-3.226562-.476562-4.871094-.640624-4.191406-.394532-8.40625-.636719-12.652344-.636719-4.222656 0-8.429687.242187-12.597656.636719-1.617187.152343-3.207031.414062-4.804687.621093-2.414063.324219-4.832031.65625-7.222657 1.105469-2.136718.394531-4.238281.882812-6.339843 1.375-1.660157.394531-3.3125.816406-4.957031 1.273438-2.5625.710937-5.085938 1.484374-7.582032 2.34375-.378906.125-.757812.21875-1.125.351562v-29.464844c7.242188 1.214844 14.597656 2.15625 22.054688 2.785156.179687.019532.359375.039063.539062.054688 7.355469.609375 14.800782.953125 22.3125.953125 7.507813 0 14.953125-.34375 22.320313-.953125.179687-.015625.359375-.035156.539062-.054688 7.457031-.628906 14.8125-1.570312 22.050781-2.785156zm0 0"/><path d="m197.515625 107.789062h.097656c4.96875 0 8.984375-4.023437 8.984375-8.984374 0-4.964844-4.027344-8.980469-8.984375-8.980469-.035156 0-.0625 0-.097656 0-22.527344 0-43.152344-3.414063-61.289063-10.140625-4.652343-1.734375-9.816406.644531-11.542968 5.296875-1.722656 4.652343.648437 9.820312 5.300781 11.542969 20.148437 7.476562 42.863281 11.265624 67.53125 11.265624zm0 0"/><path d="m98.808594 44.671875c-.136719-4.96875-4.429688-8.949219-9.226563-8.742187-4.957031.144531-8.863281 4.265624-8.738281 9.226562.324219 11.863281 6.007812 23.300781 16.015625 32.175781 1.707031 1.515625 3.84375 2.261719 5.964844 2.261719 2.46875 0 4.949219-1.015625 6.71875-3.015625 3.285156-3.710937 2.953125-9.398437-.753907-12.683594-6.253906-5.542969-9.792968-12.378906-9.980468-19.222656zm0 0"/></svg>