<svg height="511pt" viewBox="0 -18 511.99998 511" width="511pt" xmlns="http://www.w3.org/2000/svg"><path d="m476.105469 260.265625h-12.765625c17.871094-59.585937 13.5625-119.304687-12.117188-166.5625 7.652344-8.285156 11.839844-19.019531 11.839844-30.421875 0-12.019531-4.660156-23.285156-13.105469-31.730469-16.492187-16.488281-42.71875-17.433593-60.332031-2.863281-86.890625-53.667969-212.386719-29.082031-301.457031 59.988281-89.082031 89.082031-113.628907 214.585938-59.996094 301.457031-14.578125 17.613282-13.628906 43.839844 2.863281 60.320313 17.054688 17.0625 44.574219 17.496094 62.160156 1.265625 28.058594 15.25 60.535157 22.960938 94.777344 22.960938 26.039063 0 53.078125-4.566407 79.972656-13.554688 14.945313 3.625 30.535157 5.601562 46.578126 5.601562 108.890624 0 197.476562-88.585937 197.476562-197.476562v-8.976562h-35.894531zm-269.226563 103.9375c-20.519531-23.230469-33.652344-53.132813-35.691406-85.984375h121.675781zm98.675782-73.292969v121.511719c-32.835938-2.046875-62.664063-15.125-85.882813-35.625zm17.953124 0 85.882813 85.886719c-23.21875 20.5-53.046875 33.578125-85.882813 35.625zm98.675782 73.292969-85.984375-85.984375h121.671875c-2.035156 32.851562-15.167969 62.753906-35.6875 85.984375zm-325.847656 68.640625-6.003907-3.582031-8.5 8.5c-10.511719 10.5-27.59375 10.492187-38.085937 0-10.5-10.503907-10.5-27.585938.007812-38.085938l7.363282-7.386719-4.128907-6.132812c-53.023437-78.621094-29.859375-201.058594 53.878907-284.796875 83.742187-83.746094 206.195312-106.898437 284.800781-53.875l6.140625 4.140625 7.378906-7.378906c10.511719-10.511719 27.59375-10.492188 38.085938 0 5.050781 5.050781 7.84375 11.820312 7.84375 19.039062 0 7.222656-2.792969 13.984375-7.84375 19.046875l-8.5 8.5 3.582031 5.996094c26.917969 45.121094 31.273437 104.382813 12.1875 163.4375h-327.488281v8.976563c0 4.488281.207031 8.921874.5 13.339843.074218 1.101563.164062 2.199219.253906 3.300781.347656 4.210938.796875 8.394532 1.417968 12.53125.027344.191407.042969.378907.070313.566407.65625 4.34375 1.5 8.617187 2.441406 12.863281.222657 1.015625.457031 2.019531.699219 3.035156.917969 3.839844 1.914062 7.648438 3.054688 11.398438.125.414062.222656.835937.359374 1.257812 1.238282 4.003906 2.636719 7.941406 4.121094 11.828125.4375 1.152344.886719 2.28125 1.34375 3.421875 1.265625 3.132813 2.601563 6.238282 4.023438 9.289063.394531.855469.753906 1.714843 1.15625 2.558593 1.679687 3.492188 3.484375 6.902344 5.359375 10.269532.78125 1.398437 1.578125 2.78125 2.394531 4.15625 1.375 2.339844 2.8125 4.640625 4.273438 6.917968 1.007812 1.5625 2.011718 3.125 3.0625 4.660157 1.820312 2.65625 3.707031 5.261719 5.65625 7.820312 1.109374 1.46875 2.261718 2.90625 3.410156 4.34375 1.550781 1.929688 3.140625 3.8125 4.757812 5.671875 1.316406 1.515625 2.640625 3.035156 4.003906 4.515625 2.207032 2.394531 4.476563 4.730469 6.800782 7.007813 1.140625 1.113281 2.289062 2.210937 3.457031 3.296875 2.398437 2.253906 4.855469 4.441406 7.363281 6.570312.589844.492188 1.148438 1.023438 1.738282 1.507813 3.324218 2.746094 6.75 5.351562 10.253906 7.882812.535156.382813 1.066406.761719 1.605468 1.148438 11.472657 8.132812 23.8125 15.117187 36.910157 20.671875-51.480469 11.570312-101.785157 5.296875-141.207031-18.230469zm218.195312 15.921875c-15.332031 0-30.132812-2.125-44.351562-5.753906-4.675782-1.191407-9.265626-2.566407-13.761719-4.101563-.277344-.089844-.546875-.195312-.816407-.289062-4.355468-1.507813-8.632812-3.167969-12.820312-4.980469-.382812-.167969-.753906-.359375-1.128906-.527344-10.394532-4.605469-20.160156-10.214843-29.34375-16.570312-2.628906-1.832031-5.261719-3.636719-7.78125-5.601563-1.457032-1.121094-2.828125-2.335937-4.246094-3.5-2.722656-2.253906-5.40625-4.542968-7.988281-6.949218-1.230469-1.140626-2.425781-2.316407-3.617188-3.492188-2.667969-2.628906-5.261719-5.328125-7.757812-8.121094-.996094-1.113281-1.992188-2.21875-2.960938-3.347656-2.683593-3.144531-5.242187-6.402344-7.703125-9.722656-.664062-.890625-1.363281-1.75-2-2.65625-6.132812-8.609375-11.515625-17.773438-16.078125-27.40625-.59375-1.257813-1.105469-2.558594-1.667969-3.832032-1.554687-3.492187-3.027343-7.019531-4.355468-10.628906-.65625-1.773437-1.246094-3.570312-1.851563-5.375-1.085937-3.242187-2.070312-6.527344-2.96875-9.847656-.523437-1.929688-1.035156-3.859375-1.492187-5.808594-.816406-3.492187-1.496094-7.039062-2.109375-10.601562-.292969-1.75-.652344-3.480469-.90625-5.25-.753907-5.332032-1.328125-10.71875-1.597657-16.183594h18.1875c4.703126 84.902344 75.058594 152.59375 161.113282 152.59375 86.054687 0 156.421875-67.691406 161.117187-152.59375h18.183594c-4.683594 94.835938-83.3125 170.546875-179.296875 170.546875zm0 0"/><path d="m268.394531 92.734375c1.363281-.207031 2.726563-.378906 3.976563-.539063h1.246094c1.15625.007813 2.324218.117188 3.375.214844l1.605468.25c.933594.152344 1.796875.226563 2.585938.246094 1.660156.222656 3.277344.332031 4.867187.332031 12.449219 0 22.761719-6.75 26.910157-18.257812 2.691406-7.460938 1.847656-16.6875-2.199219-24.085938-3.566407-6.515625-9.191407-10.941406-15.871094-12.449219-12.574219-2.847656-23.921875-3.347656-35.714844-1.550781-7.289062 1.101563-13.742187 5.105469-18.195312 11.273438-4.496094 6.226562-6.355469 14.039062-5.082031 21.433593 2.59375 15.0625 17.15625 25.421876 32.496093 23.132813zm-12.847656-34.058594c1.609375-2.226562 3.851563-3.652343 6.320313-4.027343 9.507812-1.445313 18.75-1.015626 29.074218 1.308593 2.011719.457031 3.320313 2.191407 4.078125 3.554688 1.578125 2.882812 2.019531 6.734375 1.058594 9.371093-2.765625 7.632813-10.914063 6.652344-14.300781 5.890626l-.042969.195312-.234375-.035156c-1.132812-.191406-2.324219-.359375-2.773438-.40625-1.632812-.140625-3.25-.277344-4.730468-.292969l-1.257813-.011719-2.179687.117188c-1.632813.179687-3.234375.375-4.855469.628906-5.710937.878906-11.15625-2.910156-12.121094-8.421875-.449219-2.644531.261719-5.519531 1.964844-7.871094zm0 0"/></svg>