<svg height="512pt" viewBox="0 -18 512 511" width="512pt" xmlns="http://www.w3.org/2000/svg"><path d="m164.570312 302.214844h-64c-5.054687 0-9.140624 4.089844-9.140624 9.144531s4.085937 9.144531 9.140624 9.144531h64c5.058594 0 9.144532-4.089844 9.144532-9.144531s-4.085938-9.144531-9.144532-9.144531zm0 0"/><path d="m164.570312 265.644531h-45.714843c-5.054688 0-9.140625 4.085938-9.140625 9.140625 0 5.058594 4.085937 9.144532 9.140625 9.144532h45.714843c5.058594 0 9.144532-4.085938 9.144532-9.144532 0-5.054687-4.085938-9.140625-9.144532-9.140625zm0 0"/><path d="m164.570312 229.074219h-64c-5.054687 0-9.140624 4.085937-9.140624 9.140625 0 5.058594 4.085937 9.144531 9.140624 9.144531h64c5.058594 0 9.144532-4.085937 9.144532-9.144531 0-5.054688-4.085938-9.140625-9.144532-9.140625zm0 0"/><path d="m164.570312 192.5h-45.714843c-5.054688 0-9.140625 4.089844-9.140625 9.144531 0 5.058594 4.085937 9.144531 9.140625 9.144531h45.714843c5.058594 0 9.144532-4.085937 9.144532-9.144531 0-5.054687-4.085938-9.144531-9.144532-9.144531zm0 0"/><path d="m511.972656 233.78125c-1.199218-86.070312-67.0625-157.183594-150.785156-167.769531 2.800781-4.867188 4.527344-10.433594 4.527344-16.441407v-39.925781c0-2.605469-1.117188-5.101562-3.074219-6.832031-1.945313-1.734375-4.535156-2.558594-7.140625-2.25l-310.855469 36.574219c-3.476562.410156-6.417969 2.769531-7.5625 6.078125-1.152343 3.3125-.320312 6.996094 2.167969 9.464844l52.179688 52.179687v39.457031c-53.386719 39.207032-91.429688 117.332032-91.429688 189.898438 0 16.203125 1.984375 31.527344 5.761719 45.933594.015625.066406 0 .121093.015625.183593.074218.285157.183594.539063.257812.824219 1.1875 4.40625 2.53125 8.730469 4.066406 12.953125.113282.3125.210938.640625.328126.949219 1.601562 4.328125 3.382812 8.550781 5.351562 12.671875.367188.769531.769531 1.507812 1.140625 2.277343 1.59375 3.191407 3.292969 6.320313 5.101563 9.390626.625 1.050781 1.21875 2.113281 1.859374 3.144531 2.15625 3.464843 4.441407 6.859375 6.882813 10.148437.816406 1.105469 1.710937 2.15625 2.550781 3.238282 1.847656 2.347656 3.765625 4.660156 5.761719 6.917968 1.058594 1.199219 2.113281 2.398438 3.21875 3.566406 2.816406 3 5.730469 5.933594 8.820313 8.761719.75.675781 1.554687 1.3125 2.3125 1.992188 2.707031 2.382812 5.515624 4.699219 8.421874 6.945312 1.082032.832031 2.148438 1.65625 3.253907 2.46875 3.714843 2.746094 7.527343 5.421875 11.546875 7.953125 1.464844.90625 3.15625 1.390625 4.875 1.390625h294.089844c1.71875 0 3.410156-.484375 4.863281-1.398437 4.414062-2.769532 8.578125-5.722656 12.617187-8.757813.6875-.519531 1.371094-1.03125 2.046875-1.554687 40.601563-31.378906 62-75.941406 62-130 0-72.578125-38.046875-150.695313-91.429687-189.898438v-13.917968c49.535156 9.007812 88.027344 49.613281 91.183594 99.832031.164062 2.515625.238281 5.074219.246093 7.664062.027344 13.347657 9.726563 25.085938 22.570313 27.328125 1.609375.28125 3.21875.417969 4.820312.417969 6.445313 0 12.707032-2.238281 17.683594-6.425781 6.214844-5.230469 9.78125-12.882813 9.78125-21zm-164.542968-213.851562v29.640624c0 8.238282-6.695313 14.933594-14.933594 14.933594h-15.851563c-2.175781 0-4.296875.238282-6.355469.636719-.683593.140625-1.316406.378906-1.984374.550781-1.34375.355469-2.679688.722656-3.957032 1.234375-.75.300781-1.445312.6875-2.167968 1.03125-1.117188.550781-2.214844 1.109375-3.253907 1.777344-.714843.445313-1.371093.949219-2.039062 1.453125-.960938.710938-1.886719 1.460938-2.761719 2.277344-.621094.574218-1.207031 1.167968-1.785156 1.789062-.8125.878906-1.5625 1.800782-2.277344 2.761719-.503906.667969-.988281 1.335937-1.433594 2.046875-.660156 1.042969-1.226562 2.140625-1.777344 3.257812-.347656.71875-.71875 1.417969-1.023437 2.164063-.503906 1.273437-.875 2.589844-1.222656 3.933594-.175781.675781-.414063 1.324219-.550781 2.011719-.035157.171874-.101563.328124-.136719.503906h-179.5625l-38.835938-38.84375zm-263.234376 437.714843c-2.933593-1.902343-5.738281-3.894531-8.484374-5.925781-1.25-.929688-2.449219-1.898438-3.664063-2.859375-1.371094-1.082031-2.746094-2.167969-4.070313-3.28125-1.519531-1.289063-2.988281-2.597656-4.441406-3.933594-.851562-.777343-1.691406-1.5625-2.523437-2.359375-1.664063-1.597656-3.300781-3.226562-4.875-4.890625-.402344-.417969-.785157-.859375-1.179688-1.277343-9.683593-10.515626-17.507812-22.21875-23.394531-35-.238281-.523438-.476562-1.035157-.714844-1.566407-.511718-1.140625-.960937-2.320312-1.445312-3.480469 14.574218 2.09375 29.851562-2.257812 40.851562-12.636718 11.675782-11 30.644532-11 42.320313 0 18.570312 17.515625 48.824219 17.515625 67.390625 0 11.679687-11 30.648437-11 42.324218 0 18.570313 17.515625 48.824219 17.515625 67.390626 0 11.675781-11 30.648437-11 42.324218 0 18.566406 17.515625 48.820313 17.515625 67.390625 0 9.125-8.59375 23.011719-10.46875 34.296875-5.203125-.121094.441406-.238281.871093-.355468 1.308593-.84375 3.128907-1.8125 6.191407-2.855469 9.214844-.328125.953125-.621094 1.921875-.96875 2.863282-1.167969 3.183593-2.484375 6.28125-3.875 9.332031-.785157 1.710937-1.636719 3.382812-2.484375 5.058593-.734375 1.433594-1.492188 2.851563-2.277344 4.257813-1.042969 1.875-2.085938 3.761719-3.21875 5.578125-.019531.027344-.046875.066406-.066406.089844-2.6875 4.316406-5.667969 8.457031-8.859375 12.472656-.847657 1.058594-1.699219 2.128906-2.578125 3.171875-1.378906 1.644531-2.789063 3.273437-4.261719 4.855469-1.605469 1.730468-3.289063 3.410156-5 5.085937-1.617187 1.578125-3.292969 3.125-5 4.644531-1.929687 1.707032-3.894531 3.390626-5.933594 5.027344-1.082031.859375-2.167969 1.71875-3.273437 2.5625-3.144532 2.375-6.34375 4.707032-9.746094 6.910156h-288.742188zm354.660157-123.429687c0 7.890625-.574219 15.527344-1.582031 22.941406-17.09375-6.097656-36.953126-2.707031-50.402344 9.972656-11.675782 11-30.648438 11-42.324219 0-18.570313-17.515625-48.824219-17.515625-67.390625 0-11.675781 11-30.648438 11-42.324219 0-18.566406-17.515625-48.820312-17.515625-67.390625 0-11.675781 11-30.648437 11-42.320312 0-18.570313-17.515625-48.816406-17.515625-67.402344 0-9.390625 8.84375-23.679688 10.570313-35.183594 4.78125-2.816406-11.882812-4.25-24.464844-4.25-37.695312 0-69.117188 36.957032-143.558594 88.199219-178.285156h244.160156c51.257813 34.722656 88.210938 109.175781 88.210938 178.285156zm-91.425781-196.570313h-237.714844v-27.429687h173.714844v18.285156h61.53125c.832031 0 1.636718.101562 2.46875.121094zm143.019531 107.574219c-2.09375 1.773438-4.808594 2.476562-7.585938 1.992188-4.160156-.722657-7.425781-4.828126-7.433593-9.351563-.011719-2.972656-.109376-5.890625-.285157-8.761719-3.96875-63.332031-55.808593-113.527344-119.988281-118.390625-1.109375-.292969-2.25-.492187-3.449219-.492187h-49.992187v-12.5c0-8.226563 6.691406-14.929688 14.929687-14.929688h23.011719c83.769531 0 152.871094 67.847656 154.03125 151.230469l.027344 4.199219c0 2.707031-1.1875 5.257812-3.265625 7.003906zm0 0"/></svg>