<svg height="512pt" viewBox="-82 0 512 512.00162" width="512pt" xmlns="http://www.w3.org/2000/svg"><path d="m327.132812 92.488281c1.269532-3.160156 2.011719-6.589843 2.011719-10.203125v-9.140625c0-15.125-12.308593-27.429687-27.429687-27.429687h-159.398438l-24.765625-41.28125c-1.648437-2.742188-4.628906-4.433594-7.835937-4.433594h-36.574219c-5.042969 0-9.140625 4.085938-9.140625 9.144531v36.570313h-18.285156c-15.121094 0-27.429688 12.304687-27.429688 27.429687v9.140625c0 3.613282.742188 7.042969 2.011719 10.203125-11.65625 3.15625-20.296875 13.726563-20.296875 26.367188v54.859375c0 15.121094 12.304688 27.429687 27.429688 27.429687h1.648437l5.484375 27.429688h-7.132812c-2.585938 0-5.046876 1.085937-6.773438 3.007812-1.738281 1.910157-2.578125 4.46875-2.324219 7.046875l18.285157 182.859375c.46875 4.660157 4.398437 8.226563 9.097656 8.226563h9.621094l8.730468 74.214844c.539063 4.597656 4.445313 8.070312 9.078125 8.070312h210.285157c4.664062 0 8.566406-3.5 9.089843-8.136719l8.238281-74.144531h10.101563c4.875 0 8.886719-3.824219 9.132813-8.6875l9.144531-182.855469c.128906-2.496093-.777344-4.949219-2.503907-6.757812-1.730468-1.820313-4.125-2.84375-6.628906-2.84375h-7.132812l5.484375-27.429688h1.648437c15.121094 0 27.429688-12.304687 27.429688-27.429687v-54.859375c-.003906-12.640625-8.644532-23.210938-20.300782-26.367188zm-244.847656-74.203125h22.253906l16.457032 27.429688h-38.710938zm-45.714844 54.859375c0-5.046875 4.105469-9.144531 9.144532-9.144531h256c5.039062 0 9.144531 4.097656 9.144531 9.144531v9.140625c0 5.046875-4.105469 9.144532-9.144531 9.144532h-256c-5.039063 0-9.144532-4.097657-9.144532-9.144532zm238.675782 420.570313h-193.976563l-7.53125-64h208.613281zm26.917968-82.285156h-248.175781l-16.457031-164.570313h272.859375zm-7.945312-182.859376h-241.007812l-5.484376-27.429687h251.976563zm34.925781-54.855468c0 5.046875-4.105469 9.144531-9.144531 9.144531h-292.570312c-5.039063 0-9.144532-4.097656-9.144532-9.144531v-54.859375c0-5.042969 4.105469-9.140625 9.144532-9.140625h292.570312c5.039062 0 9.144531 4.097656 9.144531 9.140625zm0 0"/><path d="m173.714844 265.140625c-51.261719 0-91.425782 28.117187-91.425782 64 0 35.886719 40.164063 64.003906 91.425782 64.003906 51.265625 0 91.429687-28.117187 91.429687-64.003906 0-35.882813-40.164062-64-91.429687-64zm0 109.71875c-39.640625 0-73.144532-20.9375-73.144532-45.714844 0-24.777343 33.5-45.714843 73.144532-45.714843 39.644531 0 73.144531 20.9375 73.144531 45.714843 0 24.777344-33.5 45.714844-73.144531 45.714844zm0 0"/></svg>